<?xml version="1.0" encoding="UTF-8"?>
<!DOCTYPE svg PUBLIC "-//W3C//DTD SVG 1.1//EN" "http://www.w3.org/Graphics/SVG/1.1/DTD/svg11.dtd">
<svg version="1.1" xmlns="http://www.w3.org/2000/svg" xmlns:xlink="http://www.w3.org/1999/xlink" x="0" y="0" width="6000" height="6000" viewBox="0, 0, 6000, 6000">
  <g id="Layer_1" display="none">
    <g>
      <g>
        <path d="M2691.483,3425.836 L2500.5,2838.051 L3000.5,2474.78 L3500.5,2838.051 L3309.517,3425.836 z" fill-opacity="0" stroke="#000000" stroke-width="1" stroke-linejoin="bevel"/>
        <path d="M3000.5,3425.837 L2905.009,3131.943 L3155.009,2950.309 L3405.009,3131.944 L3309.517,3425.837 z" fill-opacity="0" stroke="#000000" stroke-width="0.5" stroke-linejoin="bevel"/>
        <path d="M3095.991,3131.943 L3000.5,2838.051 L3250.5,2656.414 L3500.5,2838.051 L3405.009,3131.943 z" fill-opacity="0" stroke="#000000" stroke-width="0.5" stroke-linejoin="bevel"/>
        <path d="M2595.991,3131.943 L2500.5,2838.051 L2750.5,2656.415 L3000.5,2838.051 L2905.008,3131.944 z" fill-opacity="0" stroke="#000000" stroke-width="0.5" stroke-linejoin="bevel"/>
        <path d="M2691.483,3425.835 L2595.991,3131.943 L2845.991,2950.307 L3095.991,3131.943 L3000.5,3425.835 z" fill-opacity="0" stroke="#000000" stroke-width="0.5" stroke-linejoin="bevel"/>
        <path d="M2845.991,2950.308 L2750.5,2656.415 L3000.5,2474.78 L3250.5,2656.415 L3155.009,2950.308 z" fill-opacity="0" stroke="#000000" stroke-width="0.5" stroke-linejoin="bevel"/>
        <path d="M3250.5,2656.415 L3000.5,3000.511 L2750.5,2656.415 L3000.5,2474.78 L3250.5,2656.415 z" fill-opacity="0" stroke="#000000" stroke-width="1" stroke-linejoin="bevel" id="Shape" display="none"/>
      </g>
      <g display="none">
        <path d="M3309.517,2575.187 L3500.5,3162.972 L3000.5,3526.243 L2500.5,3162.971 L2691.483,2575.186 z" fill-opacity="0" stroke="#000000" stroke-width="1" stroke-linejoin="bevel"/>
        <path d="M3000.5,2575.186 L3095.991,2869.078 L2845.991,3050.715 L2595.991,2869.078 L2691.483,2575.186 z" fill-opacity="0" stroke="#000000" stroke-width="0.5" stroke-linejoin="bevel"/>
        <path d="M2905.009,2869.078 L3000.5,3162.971 L2750.5,3344.606 L2500.5,3162.97 L2595.992,2869.078 z" fill-opacity="0" stroke="#000000" stroke-width="0.5" stroke-linejoin="bevel"/>
        <path d="M3405.009,2869.078 L3500.5,3162.971 L3250.5,3344.606 L3000.5,3162.971 L3095.992,2869.078 z" fill-opacity="0" stroke="#000000" stroke-width="0.5" stroke-linejoin="bevel"/>
        <path d="M3309.517,2575.186 L3405.009,2869.078 L3155.009,3050.715 L2905.009,2869.078 L3000.5,2575.186 z" fill-opacity="0" stroke="#000000" stroke-width="0.5" stroke-linejoin="bevel"/>
        <path d="M3155.009,3050.715 L3250.5,3344.606 L3000.5,3526.243 L2750.5,3344.606 L2845.991,3050.715 z" fill-opacity="0" stroke="#000000" stroke-width="0.5" stroke-linejoin="bevel"/>
        <path d="M2750.5,3344.606 L3000.5,3000.511 L3250.5,3344.606 L3000.5,3526.242 L2750.5,3344.606 z" fill-opacity="0" stroke="#000000" stroke-width="1" stroke-linejoin="bevel" id="Shape" display="none"/>
      </g>
    </g>
    <g>
      <g>
        <path d="M1455.415,5127.126 L500.5,2188.2 L3000.5,371.844 L5500.5,2188.201 L4545.585,5127.127 z" fill-opacity="0" stroke="#000000" stroke-width="5" stroke-linejoin="bevel"/>
        <path d="M3000.5,5127.127 L2523.042,3657.664 L3773.043,2749.485 L5023.042,3657.664 L4545.585,5127.127 z" fill-opacity="0" stroke="#000000" stroke-width="2.5" stroke-linejoin="bevel"/>
        <path d="M3477.958,3657.664 L3000.5,2188.201 L4250.5,1280.022 L5500.5,2188.201 L5023.042,3657.664 z" fill-opacity="0" stroke="#000000" stroke-width="2.5" stroke-linejoin="bevel"/>
        <path d="M977.958,3657.664 L500.5,2188.2 L1750.5,1280.023 L3000.5,2188.201 L2523.042,3657.664 z" fill-opacity="0" stroke="#000000" stroke-width="2.5" stroke-linejoin="bevel"/>
        <path d="M1455.415,5127.126 L977.957,3657.663 L2227.958,2749.485 L3477.958,3657.664 L3000.5,5127.126 z" fill-opacity="0" stroke="#000000" stroke-width="2.5" stroke-linejoin="bevel"/>
        <path d="M2227.958,2749.485 L1750.5,1280.022 L3000.5,371.845 L4250.5,1280.022 L3773.042,2749.486 z" fill-opacity="0" stroke="#000000" stroke-width="2.5" stroke-linejoin="bevel"/>
        <path d="M4250.5,1280.023 L3000.5,3000.5 L1750.5,1280.022 L3000.5,371.844 L4250.5,1280.023 z" fill-opacity="0" stroke="#000000" stroke-width="5" stroke-linejoin="bevel" id="Shape" display="none"/>
      </g>
      <g display="none">
        <path d="M4545.585,873.874 L5500.5,3812.8 L3000.5,5629.156 L500.5,3812.799 L1455.415,873.874 z" fill-opacity="0" stroke="#000000" stroke-width="5" stroke-linejoin="bevel"/>
        <path d="M3000.5,873.874 L3477.958,2343.336 L2227.958,3251.515 L977.958,2343.336 L1455.416,873.873 z" fill-opacity="0" stroke="#000000" stroke-width="2.5" stroke-linejoin="bevel"/>
        <path d="M2523.042,2343.336 L3000.5,3812.8 L1750.5,4720.978 L500.5,3812.799 L977.958,2343.336 z" fill-opacity="0" stroke="#000000" stroke-width="2.5" stroke-linejoin="bevel"/>
        <path d="M5023.042,2343.336 L5500.5,3812.8 L4250.5,4720.978 L3000.5,3812.799 L3477.958,2343.336 z" fill-opacity="0" stroke="#000000" stroke-width="2.5" stroke-linejoin="bevel"/>
        <path d="M4545.585,873.873 L5023.042,2343.337 L3773.042,3251.515 L2523.042,2343.336 L3000.5,873.873 z" fill-opacity="0" stroke="#000000" stroke-width="2.5" stroke-linejoin="bevel"/>
        <path d="M3773.042,3251.515 L4250.5,4720.978 L3000.5,5629.156 L1750.5,4720.978 L2227.958,3251.514 z" fill-opacity="0" stroke="#000000" stroke-width="2.5" stroke-linejoin="bevel"/>
        <path d="M1750.5,4720.978 L3000.5,3000.5 L4250.5,4720.978 L3000.5,5629.156 L1750.5,4720.978 z" fill-opacity="0" stroke="#000000" stroke-width="5" stroke-linejoin="bevel" id="Shape" display="none"/>
      </g>
    </g>
  </g>
  <g id="purple">
    <g id="purple1">
      <path d="M2999.998,2737.16 L3249.995,2655.936 L3250,2918.797 L3000.005,3000.018 z" fill="#602865"/>
      <path d="M3250,2655.916 L3404.509,2443.259 L3404.509,2706.113 L3250,2918.776 z" fill="#8C3E94"/>
      <path d="M3250.006,2655.914 L3404.509,2443.252 L3154.52,2524.48 L3000.012,2737.142 z" fill="#8C3E94"/>
    </g>
    <g id="purple2">
      <path d="M3249.989,2918.776 L3404.492,3131.437 L3154.497,3212.67 L3000,3000.01 z" fill="#602865"/>
      <path d="M3404.508,3131.437 L3654.503,3212.669 L3404.513,3293.895 L3154.513,3212.665 z" fill="#8C3E94"/>
      <path d="M3404.506,3131.451 L3654.503,3212.676 L3500,3000.023 L3250,2918.793 z" fill="#8C3E94"/>
    </g>
    <g id="purple3">
      <path d="M3154.502,3212.669 L2999.993,3425.326 L2845.483,3212.669 L2999.993,3000.017 z" fill="#602865"/>
      <path d="M3000.012,3425.334 L3000.008,3688.196 L2845.507,3475.542 L2845.507,3212.677 z" fill="#8C3E94"/>
      <path d="M2999.986,3425.334 L2999.989,3688.196 L3154.491,3475.542 L3154.491,3212.677 z" fill="#8C3E94"/>
    </g>
    <g id="purple4">
      <path d="M2845.492,3212.676 L2595.498,3131.444 L2750,2918.782 L2999.99,3000.016 z" fill="#602865"/>
      <path d="M2595.504,3131.439 L2345.507,3212.664 L2500.009,3000.011 L2750.009,2918.781 z" fill="#8C3E94"/>
      <path d="M2595.512,3131.437 L2345.517,3212.669 L2595.507,3293.895 L2845.507,3212.665 z" fill="#8C3E94"/>
    </g>
    <g id="purple5">
      <path d="M2749.998,2918.789 L2750.002,2655.927 L3000,2737.152 L2999.992,3000.009 z" fill="#602865"/>
      <path d="M2749.997,2655.91 L2595.488,2443.253 L2595.489,2706.107 L2749.997,2918.77 z" fill="#8C3E94"/>
      <path d="M2749.991,2655.92 L2595.488,2443.258 L2845.477,2524.486 L2999.986,2737.148 z" fill="#8C3E94"/>
    </g>
  </g>
  <g id="blue">
    <g id="blue1">
      <g id="blue1b">
        <path d="M3388.742,1716.984 L3154.529,1836.317 L3273.863,1602.112 L3508.078,1482.774 z" fill="#5A7194"/>
        <path d="M3154.529,1836.317 L3388.742,1716.984 L3543.251,1929.636 L3309.039,2048.969 z" fill="#5A7194"/>
        <path d="M3543.245,1929.645 L3388.742,1716.984 L3648.384,1675.882 L3802.881,1888.542 z" fill="#6F8AB5"/>
        <path d="M3508.08,1482.775 L3767.721,1441.673 L3648.384,1675.882 L3388.742,1716.984 z" fill="#6F8AB5"/>
        <path d="M3802.882,1888.542 L3922.219,1654.333 L3767.745,1441.705 L3648.384,1675.882 z" fill="#89AADD"/>
        <path d="M3309.039,2048.969 L3154.53,2261.626 L3000.02,2048.969 L3154.529,1836.317 z" fill="#485B78"/>
        <path d="M3154.534,2261.627 L3309.043,2048.97 L3309.042,2311.824 L3154.533,2524.487 z" fill="#485B78"/>
        <path d="M3309.039,2048.969 L3309.042,2311.83 L3543.258,2192.493 L3543.251,1929.636 z" fill="#5A7194"/>
        <path d="M3154.52,2261.62 L3000.011,2048.962 L3000.011,2311.817 L3154.52,2524.48 z" fill="#36455C"/>
      </g>
      <path d="M2845.49,2524.491 L2999.999,2311.834 L3154.509,2524.491 L3000,2737.143 z" fill="#222D3C"/>
      <g id="blue1a">
        <path d="M2611.281,1716.984 L2845.494,1836.317 L2726.16,1602.112 L2491.945,1482.774 z" fill="#5A7194"/>
        <path d="M2845.494,1836.317 L2611.281,1716.984 L2456.772,1929.636 L2690.985,2048.969 z" fill="#5A7194"/>
        <path d="M2456.778,1929.645 L2611.281,1716.984 L2351.639,1675.882 L2197.142,1888.542 z" fill="#6F8AB5"/>
        <path d="M2491.944,1482.775 L2232.302,1441.673 L2351.639,1675.882 L2611.281,1716.984 z" fill="#6F8AB5"/>
        <path d="M2197.142,1888.542 L2077.804,1654.333 L2232.278,1441.705 L2351.639,1675.882 z" fill="#89AADD"/>
        <path d="M2690.985,2048.969 L2845.493,2261.626 L3000.003,2048.969 L2845.494,1836.317 z" fill="#485B78"/>
        <path d="M2845.489,2261.627 L2690.98,2048.97 L2690.981,2311.824 L2845.49,2524.487 z" fill="#485B78"/>
        <path d="M2690.985,2048.969 L2690.981,2311.83 L2456.765,2192.493 L2456.772,1929.636 z" fill="#5A7194"/>
        <path d="M2845.503,2261.62 L3000.012,2048.962 L3000.011,2311.817 L2845.503,2524.48 z" fill="#36455C"/>
      </g>
    </g>
    <g id="blue2">
      <g id="blue2b">
        <path d="M4340.372,2973.249 L4154.503,2787.375 L4414.122,2828.496 L4599.995,3014.37 z" fill="#5A7194"/>
        <path d="M4154.503,2787.375 L4340.372,2973.249 L4185.874,3185.909 L4000.005,3000.036 z" fill="#5A7194"/>
        <path d="M4185.862,3185.906 L4340.371,2973.249 L4459.695,3207.482 L4305.186,3420.134 z" fill="#6F8AB5"/>
        <path d="M4599.995,3014.372 L4719.319,3248.604 L4459.695,3207.482 L4340.372,2973.249 z" fill="#6F8AB5"/>
        <path d="M4305.186,3420.134 L4564.81,3461.256 L4719.295,3248.637 L4459.695,3207.482 z" fill="#89AADD"/>
        <path d="M4000.005,3000.036 L3750.01,2918.804 L3904.513,2706.142 L4154.503,2787.376 z" fill="#485B78"/>
        <path d="M3750.011,2918.808 L4000.006,3000.04 L3750.016,3081.266 L3500.016,3000.036 z" fill="#485B78"/>
        <path d="M4000.005,3000.036 L3750.01,3081.268 L3935.884,3267.143 L4185.874,3185.909 z" fill="#5A7194"/>
        <path d="M3750.013,2918.792 L3904.517,2706.131 L3654.527,2787.358 L3500.019,3000.021 z" fill="#36455C"/>
      </g>
      <path d="M3404.498,2706.118 L3654.493,2787.35 L3499.99,3000.012 L3250,2918.778 z" fill="#222D3C"/>
      <g id="blue2a">
        <path d="M4100.116,2233.835 L4058.999,2493.461 L4244.864,2307.594 L4285.985,2047.965 z" fill="#5A7194"/>
        <path d="M4058.999,2493.461 L4100.116,2233.835 L3850.126,2152.601 L3809.009,2412.227 z" fill="#5A7194"/>
        <path d="M3850.118,2152.61 L4100.115,2233.835 L4058.972,1974.2 L3808.978,1892.979 z" fill="#6F8AB5"/>
        <path d="M4285.984,2047.964 L4244.841,1788.328 L4058.972,1974.2 L4100.116,2233.835 z" fill="#6F8AB5"/>
        <path d="M3808.978,1892.979 L3994.846,1707.108 L4244.803,1788.316 L4058.972,1974.2 z" fill="#89AADD"/>
        <path d="M3809.009,2412.227 L3654.506,2624.888 L3904.501,2706.121 L4058.999,2493.461 z" fill="#485B78"/>
        <path d="M3654.503,2624.885 L3809.006,2412.223 L3559.017,2493.45 L3404.509,2706.113 z" fill="#485B78"/>
        <path d="M3809.009,2412.227 L3559.012,2493.452 L3600.132,2233.822 L3850.126,2152.601 z" fill="#5A7194"/>
        <path d="M3654.515,2624.896 L3904.51,2706.127 L3654.52,2787.353 L3404.52,2706.123 z" fill="#36455C"/>
      </g>
    </g>
    <g id="blue3">
      <g id="blue3b">
        <path d="M3439.628,4266.505 L3558.968,4032.295 L3600.086,4291.914 L3480.748,4526.129 z" fill="#5A7194"/>
        <path d="M3558.968,4032.295 L3439.628,4266.505 L3189.634,4185.284 L3308.973,3951.075 z" fill="#5A7194"/>
        <path d="M3189.633,4185.272 L3439.628,4266.504 L3253.732,4452.37 L3003.743,4371.136 z" fill="#6F8AB5"/>
        <path d="M3480.746,4526.129 L3294.851,4711.995 L3253.732,4452.371 L3439.628,4266.505 z" fill="#6F8AB5"/>
        <path d="M3003.743,4371.136 L3044.861,4630.76 L3294.813,4711.982 L3253.732,4452.37 z" fill="#89AADD"/>
        <path d="M3308.973,3951.075 L3308.977,3688.214 L3558.975,3769.438 L3558.968,4032.295 z" fill="#485B78"/>
        <path d="M3308.973,3688.215 L3308.969,3951.076 L3154.468,3738.422 L3154.468,3475.556 z" fill="#485B78"/>
        <path d="M3308.973,3951.075 L3154.465,3738.418 L3035.125,3972.633 L3189.634,4185.284 z" fill="#5A7194"/>
        <path d="M3308.989,3688.213 L3558.986,3769.438 L3404.483,3556.785 L3154.483,3475.555 z" fill="#36455C"/>
      </g>
      <path d="M3404.504,3293.896 L3404.5,3556.758 L3154.502,3475.533 L3154.51,3212.676 z" fill="#222D3C"/>
      <g id="blue3a">
        <path d="M4068.611,3809.516 L3808.986,3850.641 L4043.192,3969.973 L4302.821,3928.852 z" fill="#5A7194"/>
        <path d="M3808.986,3850.64 L4068.61,3809.516 L4068.618,3546.659 L3808.993,3587.783 z" fill="#5A7194"/>
        <path d="M4068.607,3546.655 L4068.61,3809.516 L4302.824,3690.155 L4302.817,3427.298 z" fill="#6F8AB5"/>
        <path d="M4302.821,3928.85 L4537.035,3809.489 L4302.824,3690.155 L4068.611,3809.516 z" fill="#6F8AB5"/>
        <path d="M4302.817,3427.298 L4537.028,3546.632 L4537.035,3809.449 L4302.824,3690.155 z" fill="#89AADD"/>
        <path d="M3808.993,3587.783 L3558.996,3506.558 L3558.992,3769.42 L3808.986,3850.64 z" fill="#485B78"/>
        <path d="M3558.999,3506.555 L3808.996,3587.78 L3654.493,3375.126 L3404.493,3293.897 z" fill="#485B78"/>
        <path d="M3808.993,3587.783 L3654.49,3375.122 L3914.12,3333.999 L4068.618,3546.659 z" fill="#5A7194"/>
        <path d="M3558.992,3506.569 L3558.988,3769.43 L3404.487,3556.776 L3404.487,3293.911 z" fill="#36455C"/>
      </g>
    </g>
    <g id="blue4">
      <g id="blue4b">
        <path d="M1931.358,3809.488 L2190.983,3850.612 L1956.777,3969.945 L1697.148,3928.824 z" fill="#5A7194"/>
        <path d="M2190.983,3850.612 L1931.358,3809.488 L1931.351,3546.631 L2190.976,3587.755 z" fill="#5A7194"/>
        <path d="M1931.362,3546.627 L1931.358,3809.488 L1697.145,3690.126 L1697.152,3427.269 z" fill="#6F8AB5"/>
        <path d="M1697.148,3928.822 L1462.934,3809.46 L1697.145,3690.126 L1931.358,3809.488 z" fill="#6F8AB5"/>
        <path d="M1697.152,3427.269 L1462.941,3546.604 L1462.934,3809.421 L1697.145,3690.126 z" fill="#89AADD"/>
        <path d="M2190.976,3587.755 L2440.973,3506.53 L2440.977,3769.392 L2190.983,3850.612 z" fill="#485B78"/>
        <path d="M2440.97,3506.527 L2190.973,3587.752 L2345.476,3375.098 L2595.476,3293.868 z" fill="#485B78"/>
        <path d="M2190.976,3587.755 L2345.479,3375.094 L2085.849,3333.971 L1931.351,3546.631 z" fill="#5A7194"/>
        <path d="M2440.977,3506.541 L2440.98,3769.402 L2595.482,3556.748 L2595.482,3293.882 z" fill="#36455C"/>
      </g>
      <path d="M2845.499,3475.533 L2595.502,3556.758 L2595.498,3293.897 L2845.492,3212.676 z" fill="#222D3C"/>
      <g id="blue4a">
        <path d="M2560.322,4266.472 L2440.982,4032.262 L2399.864,4291.88 L2519.202,4526.095 z" fill="#5A7194"/>
        <path d="M2440.983,4032.262 L2560.322,4266.472 L2810.317,4185.251 L2690.977,3951.042 z" fill="#5A7194"/>
        <path d="M2810.317,4185.239 L2560.322,4266.471 L2746.218,4452.337 L2996.208,4371.103 z" fill="#6F8AB5"/>
        <path d="M2519.204,4526.095 L2705.1,4711.961 L2746.218,4452.337 L2560.322,4266.472 z" fill="#6F8AB5"/>
        <path d="M2996.208,4371.103 L2955.089,4630.727 L2705.137,4711.949 L2746.218,4452.337 z" fill="#89AADD"/>
        <path d="M2690.977,3951.042 L2690.973,3688.18 L2440.975,3769.405 L2440.982,4032.262 z" fill="#485B78"/>
        <path d="M2690.977,3688.182 L2690.981,3951.043 L2845.482,3738.389 L2845.482,3475.523 z" fill="#485B78"/>
        <path d="M2690.977,3951.042 L2845.486,3738.385 L2964.825,3972.599 L2810.317,4185.251 z" fill="#5A7194"/>
        <path d="M2690.961,3688.18 L2440.964,3769.405 L2595.467,3556.751 L2845.467,3475.522 z" fill="#36455C"/>
      </g>
    </g>
    <g id="blue5">
      <g id="blue5b">
        <path d="M1899.882,2233.859 L1940.999,2493.485 L1755.133,2307.618 L1714.012,2047.989 z" fill="#5A7194"/>
        <path d="M1940.999,2493.485 L1899.882,2233.859 L2149.872,2152.625 L2190.989,2412.251 z" fill="#5A7194"/>
        <path d="M2149.879,2152.634 L1899.882,2233.859 L1941.026,1974.224 L2191.02,1893.003 z" fill="#6F8AB5"/>
        <path d="M1714.013,2047.988 L1755.157,1788.353 L1941.026,1974.224 L1899.882,2233.859 z" fill="#6F8AB5"/>
        <path d="M2191.02,1893.003 L2005.151,1707.132 L1755.195,1788.34 L1941.026,1974.224 z" fill="#89AADD"/>
        <path d="M2190.989,2412.25 L2345.492,2624.912 L2095.497,2706.145 L1940.999,2493.485 z" fill="#485B78"/>
        <path d="M2345.494,2624.908 L2190.991,2412.247 L2440.98,2493.474 L2595.489,2706.137 z" fill="#485B78"/>
        <path d="M2190.989,2412.251 L2440.986,2493.476 L2399.866,2233.846 L2149.872,2152.625 z" fill="#5A7194"/>
        <path d="M2345.483,2624.919 L2095.488,2706.151 L2345.478,2787.377 L2595.478,2706.147 z" fill="#36455C"/>
      </g>
      <path d="M2500.01,3000.018 L2345.506,2787.356 L2595.502,2706.123 L2749.999,2918.783 z" fill="#222D3C"/>
      <g id="blue5a">
        <path d="M1659.644,2973.276 L1845.513,2787.403 L1585.895,2828.523 L1400.021,3014.397 z" fill="#5A7194"/>
        <path d="M1845.513,2787.403 L1659.644,2973.276 L1814.142,3185.937 L2000.011,3000.063 z" fill="#5A7194"/>
        <path d="M1814.154,3185.933 L1659.645,2973.276 L1540.321,3207.509 L1694.83,3420.161 z" fill="#6F8AB5"/>
        <path d="M1400.021,3014.399 L1280.697,3248.632 L1540.321,3207.509 L1659.644,2973.276 z" fill="#6F8AB5"/>
        <path d="M1694.83,3420.161 L1435.206,3461.283 L1280.721,3248.664 L1540.321,3207.509 z" fill="#89AADD"/>
        <path d="M2000.01,3000.063 L2250.005,2918.831 L2095.503,2706.169 L1845.513,2787.403 z" fill="#485B78"/>
        <path d="M2250.005,2918.835 L2000.01,3000.067 L2250,3081.293 L2500,3000.063 z" fill="#485B78"/>
        <path d="M2000.011,3000.063 L2250.005,3081.295 L2064.132,3267.17 L1814.142,3185.937 z" fill="#5A7194"/>
        <path d="M2250.002,2918.82 L2095.499,2706.158 L2345.489,2787.385 L2499.997,3000.048 z" fill="#36455C"/>
      </g>
    </g>
  </g>
  <g id="green">
    <g id="green1">
      <path d="M3154.52,1836.305 L3000.011,2048.962 L3000.012,1786.108 L3154.52,1573.445 z" fill="#263E2C"/>
      <path d="M2845.509,1836.308 L3000.018,2048.965 L3000.017,1786.111 L2845.509,1573.448 z" fill="#263E2C"/>
      <path d="M3154.52,1573.445 L3273.854,1339.24 L3273.863,1602.112 L3154.529,1836.317 z" fill="#406348"/>
      <path d="M2845.503,1573.465 L2726.169,1339.26 L2726.16,1602.132 L2845.494,1836.337 z" fill="#406348"/>
      <path d="M2726.207,1339.26 L2726.203,1602.121 L2491.999,1482.81 L2492.006,1219.953 z" fill="#558260"/>
      <path d="M3273.86,1339.251 L3273.863,1602.112 L3508.08,1482.775 L3508.073,1219.918 z" fill="#558260"/>
      <path d="M2845.508,1573.459 L3000.017,1360.802 L3154.527,1573.459 L3000.018,1786.111 z" fill="#263E2C"/>
      <path d="M3000.018,1360.802 L3154.527,1573.459 L3273.867,1339.244 L3119.358,1126.592 z" fill="#406348"/>
      <path d="M3000.018,1360.791 L2845.509,1573.448 L2726.169,1339.233 L2880.678,1126.582 z" fill="#406348"/>
      <path d="M3119.345,1126.589 L3353.558,1007.255 L3508.067,1219.907 L3273.854,1339.24 z" fill="#558260"/>
      <path d="M2880.678,1126.582 L2646.465,1007.248 L2491.956,1219.9 L2726.169,1339.233 z" fill="#558260"/>
      <path d="M2880.678,1126.582 L3000.018,892.372 L3119.358,1126.593 L3000.018,1360.791 z" fill="#669B72"/>
      <path d="M3000.018,892.372 L3234.218,773.035 L3353.557,1007.255 L3119.358,1126.592 z" fill="#669B72"/>
      <path d="M3000.018,892.361 L2765.818,773.024 L2646.478,1007.245 L2880.678,1126.582 z" fill="#669B72"/>
      <path d="M2880.678,658.163 L3000.018,423.954 L3119.358,658.174 L3000.018,892.372 z" fill="#79B687"/>
      <path d="M3234.231,773.039 L3000.018,892.372 L3119.352,658.168 L3353.567,538.829 z" fill="#79B687"/>
      <path d="M2765.805,773.039 L3000.018,892.372 L2880.684,658.168 L2646.469,538.829 z" fill="#79B687"/>
      <path d="M3000.018,423.954 L3234.218,304.617 L3353.558,538.837 L3119.358,658.174 z" fill="#8CD29C"/>
      <path d="M3000.018,423.943 L2765.818,304.606 L2646.479,538.826 L2880.678,658.163 z" fill="#8CD29C"/>
      <path d="M3000.018,185.28 L3234.218,304.617 L3000.018,423.943 L2765.818,304.606 z" fill="#99E6AB"/>
    </g>
    <g id="green2">
      <path d="M4154.504,2787.359 L3904.51,2706.127 L4154.5,2624.902 L4404.5,2706.132 z" fill="#263E2C"/>
      <path d="M4059.012,2493.474 L3904.509,2706.135 L4154.499,2624.908 L4309.007,2412.245 z" fill="#263E2C"/>
      <path d="M4404.5,2706.132 L4664.118,2747.252 L4414.114,2828.492 L4154.496,2787.372 z" fill="#406348"/>
      <path d="M4308.989,2412.245 L4494.855,2226.378 L4244.847,2307.601 L4058.981,2493.468 z" fill="#406348"/>
      <path d="M4494.867,2226.414 L4244.87,2307.639 L4285.968,2048.028 L4535.962,1966.808 z" fill="#558260"/>
      <path d="M4664.109,2747.26 L4414.115,2828.492 L4599.988,3014.368 L4849.978,2933.134 z" fill="#558260"/>
      <path d="M4308.997,2412.248 L4558.991,2493.48 L4404.488,2706.142 L4154.499,2624.908 z" fill="#263E2C"/>
      <path d="M4558.992,2493.481 L4404.489,2706.142 L4664.118,2747.265 L4818.616,2534.605 z" fill="#406348"/>
      <path d="M4559.002,2493.477 L4309.007,2412.245 L4494.88,2226.37 L4744.87,2307.604 z" fill="#406348"/>
      <path d="M4818.615,2534.592 L5004.484,2720.465 L4849.986,2933.125 L4664.118,2747.252 z" fill="#558260"/>
      <path d="M4744.87,2307.604 L4785.987,2047.978 L4535.997,1966.744 L4494.88,2226.37 z" fill="#558260"/>
      <path d="M4744.87,2307.604 L5004.495,2348.728 L4818.616,2534.605 L4559.002,2493.477 z" fill="#669B72"/>
      <path d="M5004.495,2348.728 L5190.362,2534.588 L5004.484,2720.465 L4818.616,2534.605 z" fill="#669B72"/>
      <path d="M5004.505,2348.725 L5045.629,2089.11 L4785.995,2047.989 L4744.87,2307.604 z" fill="#669B72"/>
      <path d="M5190.363,2162.855 L5449.987,2203.979 L5264.108,2389.856 L5004.494,2348.728 z" fill="#79B687"/>
      <path d="M5190.363,2534.602 L5004.495,2348.728 L5264.113,2389.848 L5449.987,2575.722 z" fill="#79B687"/>
      <path d="M5045.611,2089.103 L5004.494,2348.728 L5190.36,2162.861 L5231.481,1903.232 z" fill="#79B687"/>
      <path d="M5449.987,2203.979 L5635.855,2389.839 L5449.977,2575.716 L5264.108,2389.856 z" fill="#8CD29C"/>
      <path d="M5449.997,2203.976 L5491.122,1944.361 L5231.487,1903.24 L5190.363,2162.855 z" fill="#8CD29C"/>
      <path d="M5676.979,2130.225 L5635.855,2389.839 L5449.997,2203.976 L5491.122,1944.361 z" fill="#99E6AB"/>
    </g>
    <g id="green3">
      <path d="M3559.009,4032.278 L3559.013,3769.416 L3713.514,3982.071 L3713.514,4244.936 z" fill="#263E2C"/>
      <path d="M3809.002,3850.644 L3559.005,3769.418 L3713.508,3982.072 L3963.508,4063.302 z" fill="#263E2C"/>
      <path d="M3713.514,4244.936 L3754.633,4504.555 L3600.114,4291.892 L3558.994,4032.273 z" fill="#406348"/>
      <path d="M3963.503,4063.285 L4197.708,4182.617 L4043.204,3969.944 L3808.998,3850.611 z" fill="#406348"/>
      <path d="M4197.678,4182.64 L4043.175,3969.978 L4302.779,3928.841 L4457.277,4141.501 z" fill="#558260"/>
      <path d="M3754.622,4504.549 L3600.113,4291.892 L3480.773,4526.107 L3635.282,4738.758 z" fill="#558260"/>
      <path d="M3963.502,4063.292 L3963.498,4326.153 L3713.501,4244.929 L3713.508,3982.072 z" fill="#263E2C"/>
      <path d="M3963.498,4326.154 L3713.501,4244.929 L3754.62,4504.559 L4004.615,4585.779 z" fill="#406348"/>
      <path d="M3963.504,4326.163 L3963.508,4063.302 L4197.724,4182.639 L4197.717,4445.496 z" fill="#406348"/>
      <path d="M4004.627,4585.775 L3885.287,4819.984 L3635.293,4738.764 L3754.633,4504.554 z" fill="#558260"/>
      <path d="M4197.717,4445.496 L4457.341,4404.372 L4457.349,4141.515 L4197.724,4182.639 z" fill="#558260"/>
      <path d="M4197.717,4445.496 L4238.833,4705.121 L4004.615,4585.78 L3963.504,4326.163 z" fill="#669B72"/>
      <path d="M4238.833,4705.122 L4119.507,4939.326 L3885.288,4819.984 L4004.615,4585.78 z" fill="#669B72"/>
      <path d="M4238.84,4705.13 L4498.456,4664.017 L4457.333,4404.382 L4197.717,4445.496 z" fill="#669B72"/>
      <path d="M4473.046,4824.455 L4514.163,5084.08 L4279.944,4964.738 L4238.833,4705.122 z" fill="#79B687"/>
      <path d="M4119.494,4939.331 L4238.833,4705.121 L4279.953,4964.74 L4160.614,5198.955 z" fill="#79B687"/>
      <path d="M4498.458,4663.997 L4238.833,4705.121 L4473.039,4824.454 L4732.668,4783.333 z" fill="#79B687"/>
      <path d="M4514.163,5084.08 L4394.836,5318.285 L4160.617,5198.943 L4279.944,4964.738 z" fill="#8CD29C"/>
      <path d="M4514.169,5084.089 L4773.785,5042.976 L4732.662,4783.341 L4473.046,4824.455 z" fill="#8CD29C"/>
      <path d="M4654.452,5277.171 L4394.836,5318.285 L4514.169,5084.089 L4773.785,5042.976 z" fill="#99E6AB"/>
    </g>
    <g id="green4">
      <path d="M2190.986,3850.635 L2440.983,3769.41 L2286.48,3982.063 L2036.48,4063.293 z" fill="#263E2C"/>
      <path d="M2440.982,4032.264 L2440.979,3769.403 L2286.477,3982.057 L2286.477,4244.923 z" fill="#263E2C"/>
      <path d="M2036.48,4063.293 L1802.275,4182.625 L1956.78,3969.953 L2190.985,3850.62 z" fill="#406348"/>
      <path d="M2286.492,4244.913 L2245.373,4504.532 L2399.892,4291.869 L2441.011,4032.25 z" fill="#406348"/>
      <path d="M2245.343,4504.509 L2399.851,4291.852 L2519.198,4526.039 L2364.688,4738.69 z" fill="#558260"/>
      <path d="M1802.276,4182.614 L1956.779,3969.952 L1697.15,3928.83 L1542.652,4141.49 z" fill="#558260"/>
      <path d="M2286.484,4244.915 L2036.487,4326.14 L2036.483,4063.278 L2286.477,3982.057 z" fill="#263E2C"/>
      <path d="M2036.487,4326.139 L2036.483,4063.278 L1802.267,4182.615 L1802.274,4445.472 z" fill="#406348"/>
      <path d="M2036.48,4326.148 L2286.477,4244.923 L2245.357,4504.553 L1995.363,4585.773 z" fill="#406348"/>
      <path d="M1802.282,4445.483 L1542.657,4404.359 L1542.65,4141.501 L1802.275,4182.625 z" fill="#558260"/>
      <path d="M1995.363,4585.773 L2114.703,4819.983 L2364.697,4738.763 L2245.357,4504.553 z" fill="#558260"/>
      <path d="M1995.363,4585.773 L1761.151,4705.106 L1802.274,4445.472 L2036.48,4326.148 z" fill="#669B72"/>
      <path d="M1761.15,4705.106 L1501.534,4663.993 L1542.657,4404.359 L1802.274,4445.472 z" fill="#669B72"/>
      <path d="M1761.144,4705.115 L1880.471,4939.32 L2114.69,4819.979 L1995.363,4585.773 z" fill="#669B72"/>
      <path d="M1720.034,4964.732 L1485.821,5084.065 L1526.944,4824.431 L1761.151,4705.106 z" fill="#79B687"/>
      <path d="M1501.526,4663.982 L1761.151,4705.106 L1526.945,4824.439 L1267.316,4783.318 z" fill="#79B687"/>
      <path d="M1880.49,4939.316 L1761.151,4705.106 L1720.032,4964.725 L1839.37,5198.94 z" fill="#79B687"/>
      <path d="M1485.821,5084.065 L1226.204,5042.952 L1267.328,4783.317 L1526.944,4824.431 z" fill="#8CD29C"/>
      <path d="M1485.814,5084.074 L1605.141,5318.279 L1839.361,5198.937 L1720.034,4964.732 z" fill="#8CD29C"/>
      <path d="M1345.532,5277.156 L1226.205,5042.952 L1485.814,5084.074 L1605.141,5318.278 z" fill="#99E6AB"/>
    </g>
    <g id="green5">
      <path d="M1941.034,2493.494 L2095.537,2706.156 L1845.548,2624.928 L1691.039,2412.265 z" fill="#263E2C"/>
      <path d="M1845.547,2787.381 L2095.542,2706.149 L1845.552,2624.924 L1595.552,2706.154 z" fill="#263E2C"/>
      <path d="M1691.039,2412.266 L1505.174,2226.399 L1755.182,2307.622 L1941.048,2493.489 z" fill="#406348"/>
      <path d="M1595.566,2706.165 L1335.948,2747.285 L1585.951,2828.525 L1845.569,2787.405 z" fill="#406348"/>
      <path d="M1335.96,2747.249 L1585.954,2828.481 L1400.11,3014.353 L1150.12,2933.119 z" fill="#558260"/>
      <path d="M1505.185,2226.397 L1755.182,2307.622 L1714.063,2047.992 L1464.069,1966.771 z" fill="#558260"/>
      <path d="M1595.562,2706.158 L1441.059,2493.496 L1691.054,2412.263 L1845.552,2624.923 z" fill="#263E2C"/>
      <path d="M1441.06,2493.496 L1691.054,2412.263 L1505.181,2226.388 L1255.191,2307.622 z" fill="#406348"/>
      <path d="M1441.049,2493.492 L1595.552,2706.154 L1335.923,2747.276 L1181.425,2534.616 z" fill="#406348"/>
      <path d="M1255.184,2307.633 L1214.067,2048.008 L1464.057,1966.773 L1505.174,2226.399 z" fill="#558260"/>
      <path d="M1181.425,2534.616 L995.556,2720.49 L1150.054,2933.15 L1335.923,2747.277 z" fill="#558260"/>
      <path d="M1181.425,2534.616 L995.557,2348.743 L1255.191,2307.622 L1441.049,2493.492 z" fill="#669B72"/>
      <path d="M995.557,2348.743 L954.432,2089.128 L1214.067,2048.008 L1255.191,2307.622 z" fill="#669B72"/>
      <path d="M995.546,2348.74 L809.678,2534.599 L995.557,2720.477 L1181.425,2534.616 z" fill="#669B72"/>
      <path d="M735.933,2389.867 L550.064,2203.993 L809.699,2162.872 L995.557,2348.743 z" fill="#79B687"/>
      <path d="M954.44,2089.117 L995.557,2348.743 L809.691,2162.876 L768.57,1903.247 z" fill="#79B687"/>
      <path d="M809.688,2534.616 L995.557,2348.743 L735.938,2389.863 L550.065,2575.737 z" fill="#79B687"/>
      <path d="M550.064,2203.993 L508.94,1944.379 L768.574,1903.258 L809.699,2162.872 z" fill="#8CD29C"/>
      <path d="M550.054,2203.99 L364.186,2389.85 L550.065,2575.727 L735.932,2389.867 z" fill="#8CD29C"/>
      <path d="M323.072,2130.239 L508.94,1944.379 L550.054,2203.99 L364.186,2389.85 z" fill="#99E6AB"/>
    </g>
  </g>
</svg>
