<?xml version="1.0" encoding="UTF-8"?>
<!DOCTYPE svg PUBLIC "-//W3C//DTD SVG 1.1//EN" "http://www.w3.org/Graphics/SVG/1.1/DTD/svg11.dtd">
<svg version="1.1" xmlns="http://www.w3.org/2000/svg" xmlns:xlink="http://www.w3.org/1999/xlink" x="0" y="0" width="4000" height="4000" viewBox="0, 0, 4000, 4000">
  <g id="Layer_1" display="none" opacity="0.354">
    <g>
      <path d="M1912.337,2265.108 L1777.262,2151.768 L1746.643,1978.119 L1834.806,1825.416 L2000.5,1765.108 L2166.192,1825.416 L2254.356,1978.119 L2223.737,2151.767 L2088.664,2265.108 z" fill="#888888" fill-opacity="0.359"/>
      <path d="M1912.337,2265.108 L1777.262,2151.768 L1746.643,1978.119 L1834.806,1825.416 L2000.5,1765.108 L2166.192,1825.416 L2254.356,1978.119 L2223.737,2151.767 L2088.664,2265.108 z" fill-opacity="0" stroke="#000000" stroke-width="0.5" stroke-linejoin="bevel"/>
    </g>
  </g>
  <g id="Layer_3" display="none">
    <g>
      <g>
        <path d="M1834.807,1567.644 L2000.5,1765.108 L2000.5,2022.882 L1834.807,1825.416 z" fill="#69AEB0" fill-opacity="0.523"/>
        <path d="M1834.807,1567.644 L2000.5,1765.108 L2000.5,2022.882 L1834.807,1825.416 z" fill-opacity="0" stroke="#000000" stroke-width="0.5" stroke-linejoin="bevel"/>
      </g>
      <g>
        <path d="M2166.193,1567.643 L2166.193,1825.416 L2000.5,2022.881 L2000.5,1765.108 z" fill="#69AEB0" fill-opacity="0.523"/>
        <path d="M2166.193,1567.643 L2166.193,1825.416 L2000.5,2022.881 L2000.5,1765.108 z" fill-opacity="0" stroke="#000000" stroke-width="0.5" stroke-linejoin="bevel"/>
      </g>
      <g>
        <path d="M2477.594,2107.006 L2223.738,2151.767 L2000.5,2022.881 L2254.357,1978.119 z" fill="#69AEB0" fill-opacity="0.523"/>
        <path d="M2477.594,2107.006 L2223.738,2151.767 L2000.5,2022.881 L2254.357,1978.119 z" fill-opacity="0" stroke="#000000" stroke-width="0.5" stroke-linejoin="bevel"/>
      </g>
      <g>
        <path d="M2311.901,2393.994 L2088.663,2265.108 L2000.5,2022.88 L2223.738,2151.767 z" fill="#69AEB0" fill-opacity="0.523"/>
        <path d="M2311.901,2393.994 L2088.663,2265.108 L2000.5,2022.88 L2223.738,2151.767 z" fill-opacity="0" stroke="#000000" stroke-width="0.5" stroke-linejoin="bevel"/>
      </g>
      <g>
        <path d="M1689.099,2393.994 L1777.262,2151.767 L2000.5,2022.881 L1912.336,2265.108 z" fill="#69AEB0" fill-opacity="0.523"/>
        <path d="M1689.099,2393.994 L1777.262,2151.767 L2000.5,2022.881 L1912.336,2265.108 z" fill-opacity="0" stroke="#000000" stroke-width="0.5" stroke-linejoin="bevel"/>
      </g>
      <g>
        <path d="M1523.406,2107.005 L1746.643,1978.119 L2000.5,2022.881 L1777.262,2151.767 z" fill="#69AEB0" fill-opacity="0.523"/>
        <path d="M1523.406,2107.005 L1746.643,1978.119 L2000.5,2022.881 L1777.262,2151.767 z" fill-opacity="0" stroke="#000000" stroke-width="0.5" stroke-linejoin="bevel"/>
      </g>
    </g>
    <g>
      <g>
        <path d="M2643.287,1651.767 L2477.594,1849.233 L2223.737,1893.995 L2389.431,1696.529 z" fill="#69AEB0" fill-opacity="0.523"/>
        <path d="M2643.287,1651.767 L2477.594,1849.233 L2223.737,1893.995 L2389.431,1696.529 z" fill-opacity="0" stroke="#000000" stroke-width="0.5" stroke-linejoin="bevel"/>
      </g>
      <g>
        <path d="M2000.5,2765.109 L1912.336,2522.881 L2000.5,2280.655 L2088.664,2522.881 z" fill="#69AEB0" fill-opacity="0.523"/>
        <path d="M2000.5,2765.109 L1912.336,2522.881 L2000.5,2280.655 L2088.664,2522.881 z" fill-opacity="0" stroke="#000000" stroke-width="0.5" stroke-linejoin="bevel"/>
      </g>
      <g>
        <path d="M1357.712,1651.767 L1611.569,1696.529 L1777.261,1893.995 L1523.406,1849.233 z" fill="#69AEB0" fill-opacity="0.523"/>
        <path d="M1357.712,1651.767 L1611.569,1696.529 L1777.261,1893.995 L1523.406,1849.233 z" fill-opacity="0" stroke="#000000" stroke-width="0.5" stroke-linejoin="bevel"/>
      </g>
    </g>
    <g>
      <g>
        <path d="M1689.099,2393.995 L1912.337,2265.107 L1746.644,2462.573 L1523.406,2591.459 z" fill="#5279C3" fill-opacity="0.523"/>
        <path d="M1689.099,2393.995 L1912.337,2265.107 L1746.644,2462.573 L1523.406,2591.459 z" fill-opacity="0" stroke="#000000" stroke-width="0.5" stroke-linejoin="bevel"/>
      </g>
      <g>
        <path d="M1492.787,2022.881 L1746.643,1978.119 L1523.406,2107.006 L1269.549,2151.768 z" fill="#5279C3" fill-opacity="0.523"/>
        <path d="M1492.787,2022.881 L1746.643,1978.119 L1523.406,2107.006 L1269.549,2151.768 z" fill-opacity="0" stroke="#000000" stroke-width="0.5" stroke-linejoin="bevel"/>
      </g>
      <g>
        <path d="M1834.807,1567.643 L1834.807,1825.416 L1746.644,1583.188 L1746.644,1325.416 z" fill="#5279C3" fill-opacity="0.523"/>
        <path d="M1834.807,1567.643 L1834.807,1825.416 L1746.644,1583.188 L1746.644,1325.416 z" fill-opacity="0" stroke="#000000" stroke-width="0.5" stroke-linejoin="bevel"/>
      </g>
      <g>
        <path d="M2254.357,1583.188 L2166.193,1825.415 L2166.193,1567.643 L2254.357,1325.415 z" fill="#5279C3" fill-opacity="0.523"/>
        <path d="M2254.357,1583.188 L2166.193,1825.415 L2166.193,1567.643 L2254.357,1325.415 z" fill-opacity="0" stroke="#000000" stroke-width="0.5" stroke-linejoin="bevel"/>
      </g>
      <g>
        <path d="M2477.594,2107.005 L2254.356,1978.119 L2508.213,2022.881 L2731.45,2151.767 z" fill="#5279C3" fill-opacity="0.523"/>
        <path d="M2477.594,2107.005 L2254.356,1978.119 L2508.213,2022.881 L2731.45,2151.767 z" fill-opacity="0" stroke="#000000" stroke-width="0.5" stroke-linejoin="bevel"/>
      </g>
      <g>
        <path d="M2254.356,2462.573 L2088.663,2265.108 L2311.901,2393.994 L2477.594,2591.46 z" fill="#5279C3" fill-opacity="0.523"/>
        <path d="M2254.356,2462.573 L2088.663,2265.108 L2311.901,2393.994 L2477.594,2591.46 z" fill-opacity="0" stroke="#000000" stroke-width="0.5" stroke-linejoin="bevel"/>
      </g>
    </g>
    <g>
      <g>
        <path d="M2166.193,1825.416 L2389.431,1696.53 L2223.738,1893.995 L2000.5,2022.882 z" fill="#5279C3" fill-opacity="0.523"/>
        <path d="M2166.193,1825.416 L2389.431,1696.53 L2223.738,1893.995 L2000.5,2022.882 z" fill-opacity="0" stroke="#000000" stroke-width="0.5" stroke-linejoin="bevel"/>
      </g>
      <g>
        <path d="M2223.738,1893.995 L2477.594,1849.233 L2254.357,1978.119 L2000.5,2022.881 z" fill="#5279C3" fill-opacity="0.523"/>
        <path d="M2223.738,1893.995 L2477.594,1849.233 L2254.357,1978.119 L2000.5,2022.881 z" fill-opacity="0" stroke="#000000" stroke-width="0.5" stroke-linejoin="bevel"/>
      </g>
      <g>
        <path d="M2088.663,2265.108 L2088.663,2522.881 L2000.5,2280.654 L2000.5,2022.881 z" fill="#5279C3" fill-opacity="0.523"/>
        <path d="M2088.663,2265.108 L2088.663,2522.881 L2000.5,2280.654 L2000.5,2022.881 z" fill-opacity="0" stroke="#000000" stroke-width="0.5" stroke-linejoin="bevel"/>
      </g>
      <g>
        <path d="M2000.5,2280.654 L1912.336,2522.882 L1912.337,2265.108 L2000.5,2022.882 z" fill="#5279C3" fill-opacity="0.523"/>
        <path d="M2000.5,2280.654 L1912.336,2522.882 L1912.337,2265.108 L2000.5,2022.882 z" fill-opacity="0" stroke="#000000" stroke-width="0.5" stroke-linejoin="bevel"/>
      </g>
      <g>
        <path d="M1746.643,1978.119 L1523.405,1849.233 L1777.262,1893.995 L2000.499,2022.881 z" fill="#5279C3" fill-opacity="0.523"/>
        <path d="M1746.643,1978.119 L1523.405,1849.233 L1777.262,1893.995 L2000.499,2022.881 z" fill-opacity="0" stroke="#000000" stroke-width="0.5" stroke-linejoin="bevel"/>
      </g>
      <g>
        <path d="M1777.262,1893.995 L1611.569,1696.529 L1834.807,1825.416 L2000.5,2022.881 z" fill="#5279C3" fill-opacity="0.523"/>
        <path d="M1777.262,1893.995 L1611.569,1696.529 L1834.807,1825.416 L2000.5,2022.881 z" fill-opacity="0" stroke="#000000" stroke-width="0.5" stroke-linejoin="bevel"/>
      </g>
    </g>
    <g id="Group">
      <g>
        <path d="M2254.357,1583.188 L2477.594,1454.302 L2389.431,1696.529 L2166.193,1825.416 z" fill="#A65CC3" fill-opacity="0.523"/>
        <path d="M2254.357,1583.188 L2477.594,1454.302 L2389.431,1696.529 L2166.193,1825.416 z" fill-opacity="0" stroke="#000000" stroke-width="0.5" stroke-linejoin="bevel"/>
      </g>
      <g>
        <path d="M2477.594,1849.233 L2731.451,1893.994 L2508.213,2022.881 L2254.357,1978.119 z" fill="#A65CC3" fill-opacity="0.523"/>
        <path d="M2477.594,1849.233 L2731.451,1893.994 L2508.213,2022.881 L2254.357,1978.119 z" fill-opacity="0" stroke="#000000" stroke-width="0.5" stroke-linejoin="bevel"/>
      </g>
      <g>
        <path d="M2254.357,2462.574 L2254.357,2720.346 L2088.664,2522.881 L2088.664,2265.108 z" fill="#A65CC3" fill-opacity="0.523"/>
        <path d="M2254.357,2462.574 L2254.357,2720.346 L2088.664,2522.881 L2088.664,2265.108 z" fill-opacity="0" stroke="#000000" stroke-width="0.5" stroke-linejoin="bevel"/>
      </g>
      <g>
        <path d="M1912.337,2522.881 L1746.644,2720.346 L1746.644,2462.573 L1912.337,2265.108 z" fill="#A65CC3" fill-opacity="0.523"/>
        <path d="M1912.337,2522.881 L1746.644,2720.346 L1746.644,2462.573 L1912.337,2265.108 z" fill-opacity="0" stroke="#000000" stroke-width="0.5" stroke-linejoin="bevel"/>
      </g>
      <g>
        <path d="M1492.787,2022.881 L1269.549,1893.995 L1523.406,1849.233 L1746.643,1978.119 z" fill="#A65CC3" fill-opacity="0.523"/>
        <path d="M1492.787,2022.881 L1269.549,1893.995 L1523.406,1849.233 L1746.643,1978.119 z" fill-opacity="0" stroke="#000000" stroke-width="0.5" stroke-linejoin="bevel"/>
      </g>
      <g>
        <path d="M1611.569,1696.529 L1523.406,1454.303 L1746.643,1583.188 L1834.807,1825.416 z" fill="#A65CC3" fill-opacity="0.523"/>
        <path d="M1611.569,1696.529 L1523.406,1454.303 L1746.643,1583.188 L1834.807,1825.416 z" fill-opacity="0" stroke="#000000" stroke-width="0.5" stroke-linejoin="bevel"/>
      </g>
    </g>
    <g>
      <g>
        <path d="M2731.451,1893.994 L2985.308,1849.233 L2762.07,1978.119 L2508.213,2022.881 z" fill="#C55BA4" fill-opacity="0.523"/>
        <path d="M2731.451,1893.994 L2985.308,1849.233 L2762.07,1978.119 L2508.213,2022.881 z" fill-opacity="0" stroke="#000000" stroke-width="1" stroke-linejoin="bevel"/>
      </g>
      <g>
        <path d="M2420.05,1385.723 L2643.288,1256.837 L2477.594,1454.302 L2254.357,1583.188 z" fill="#C55BA4" fill-opacity="0.523"/>
        <path d="M2420.05,1385.723 L2643.288,1256.837 L2477.594,1454.302 L2254.357,1583.188 z" fill-opacity="0" stroke="#000000" stroke-width="1" stroke-linejoin="bevel"/>
      </g>
      <g>
        <path d="M1746.644,2720.346 L1658.48,2962.574 L1658.48,2704.801 L1746.644,2462.573 z" fill="#C55BA4" fill-opacity="0.523"/>
        <path d="M1746.644,2720.346 L1658.48,2962.574 L1658.48,2704.801 L1746.644,2462.573 z" fill-opacity="0" stroke="#000000" stroke-width="1" stroke-linejoin="bevel"/>
      </g>
      <g>
        <path d="M2342.52,2704.801 L2342.52,2962.573 L2254.357,2720.346 L2254.357,2462.574 z" fill="#C55BA4" fill-opacity="0.523"/>
        <path d="M2342.52,2704.801 L2342.52,2962.573 L2254.357,2720.346 L2254.357,2462.574 z" fill-opacity="0" stroke="#000000" stroke-width="1" stroke-linejoin="bevel"/>
      </g>
      <g>
        <path d="M1523.405,1454.302 L1357.712,1256.837 L1580.95,1385.723 L1746.644,1583.188 z" fill="#C55BA4" fill-opacity="0.523"/>
        <path d="M1523.405,1454.302 L1357.712,1256.837 L1580.95,1385.723 L1746.644,1583.188 z" fill-opacity="0" stroke="#000000" stroke-width="1" stroke-linejoin="bevel"/>
      </g>
      <g>
        <path d="M1238.93,1978.119 L1015.693,1849.233 L1269.549,1893.994 L1492.787,2022.881 z" fill="#C55BA4" fill-opacity="0.523"/>
        <path d="M1238.93,1978.119 L1015.693,1849.233 L1269.549,1893.994 L1492.787,2022.881 z" fill-opacity="0" stroke="#000000" stroke-width="1" stroke-linejoin="bevel"/>
      </g>
    </g>
    <g>
      <g>
        <path d="M1580.951,1127.95 L1746.644,1325.416 L1746.644,1583.188 L1580.951,1385.723 z" fill="#69AEB0" fill-opacity="0.523"/>
        <path d="M1580.951,1127.95 L1746.644,1325.416 L1746.644,1583.188 L1580.951,1385.723 z" fill-opacity="0" stroke="#000000" stroke-width="0.5" stroke-linejoin="bevel"/>
      </g>
      <g>
        <path d="M2420.05,1127.95 L2420.05,1385.723 L2254.357,1583.188 L2254.357,1325.416 z" fill="#69AEB0" fill-opacity="0.523"/>
        <path d="M2420.05,1127.95 L2420.05,1385.723 L2254.357,1583.188 L2254.357,1325.416 z" fill-opacity="0" stroke="#000000" stroke-width="0.5" stroke-linejoin="bevel"/>
      </g>
      <g>
        <path d="M2985.307,2107.006 L2731.451,2151.767 L2508.213,2022.881 L2762.07,1978.119 z" fill="#69AEB0" fill-opacity="0.523"/>
        <path d="M2985.307,2107.006 L2731.451,2151.767 L2508.213,2022.881 L2762.07,1978.119 z" fill-opacity="0" stroke="#000000" stroke-width="0.5" stroke-linejoin="bevel"/>
      </g>
      <g>
        <path d="M2565.758,2833.687 L2342.52,2704.801 L2254.357,2462.574 L2477.594,2591.46 z" fill="#69AEB0" fill-opacity="0.523"/>
        <path d="M2565.758,2833.687 L2342.52,2704.801 L2254.357,2462.574 L2477.594,2591.46 z" fill-opacity="0" stroke="#000000" stroke-width="0.5" stroke-linejoin="bevel"/>
      </g>
      <g>
        <path d="M1435.242,2833.687 L1523.406,2591.46 L1746.644,2462.573 L1658.48,2704.801 z" fill="#69AEB0" fill-opacity="0.523"/>
        <path d="M1435.242,2833.687 L1523.406,2591.46 L1746.644,2462.573 L1658.48,2704.801 z" fill-opacity="0" stroke="#000000" stroke-width="0.5" stroke-linejoin="bevel"/>
      </g>
      <g>
        <path d="M1015.693,2107.005 L1238.93,1978.119 L1492.787,2022.881 L1269.549,2151.767 z" fill="#69AEB0" fill-opacity="0.523"/>
        <path d="M1015.693,2107.005 L1238.93,1978.119 L1492.787,2022.881 L1269.549,2151.767 z" fill-opacity="0" stroke="#000000" stroke-width="0.5" stroke-linejoin="bevel"/>
      </g>
    </g>
    <g>
      <g>
        <path d="M1834.807,1567.643 L2000.5,1370.177 L2166.193,1567.643 L2000.5,1765.108 z" fill="#B18268" fill-opacity="0.523"/>
        <path d="M1834.807,1567.643 L2000.5,1370.177 L2166.193,1567.643 L2000.5,1765.108 z" fill-opacity="0" stroke="#000000" stroke-width="1" stroke-linejoin="bevel"/>
      </g>
      <g>
        <path d="M2477.594,2107.006 L2565.758,2349.233 L2311.901,2393.994 L2223.738,2151.767 z" fill="#B18268" fill-opacity="0.523"/>
        <path d="M2477.594,2107.006 L2565.758,2349.233 L2311.901,2393.994 L2223.738,2151.767 z" fill-opacity="0" stroke="#000000" stroke-width="1" stroke-linejoin="bevel"/>
      </g>
      <g>
        <path d="M1689.099,2393.995 L1435.242,2349.233 L1523.406,2107.006 L1777.262,2151.768 z" fill="#B18268" fill-opacity="0.523"/>
        <path d="M1689.099,2393.995 L1435.242,2349.233 L1523.406,2107.006 L1777.262,2151.768 z" fill-opacity="0" stroke="#000000" stroke-width="1" stroke-linejoin="bevel"/>
      </g>
    </g>
    <g>
      <g>
        <path d="M1357.713,999.064 L1580.951,1127.95 L1580.951,1385.723 L1357.712,1256.837 z" fill="#5DB6E9" fill-opacity="0.523"/>
        <path d="M1357.713,999.064 L1580.951,1127.95 L1580.951,1385.723 L1357.712,1256.837 z" fill-opacity="0" stroke="#000000" stroke-width="1" stroke-linejoin="bevel"/>
      </g>
      <g>
        <path d="M792.455,1978.119 L1015.693,1849.233 L1238.93,1978.119 L1015.693,2107.005 z" fill="#5DB6E9" fill-opacity="0.523"/>
        <path d="M792.455,1978.119 L1015.693,1849.233 L1238.93,1978.119 L1015.693,2107.005 z" fill-opacity="0" stroke="#000000" stroke-width="1" stroke-linejoin="bevel"/>
      </g>
      <g>
        <path d="M3208.545,1978.119 L2985.308,2107.006 L2762.07,1978.119 L2985.308,1849.233 z" fill="#5DB6E9" fill-opacity="0.523"/>
        <path d="M3208.545,1978.119 L2985.308,2107.006 L2762.07,1978.119 L2985.308,1849.233 z" fill-opacity="0" stroke="#000000" stroke-width="1" stroke-linejoin="bevel"/>
      </g>
      <g>
        <path d="M2643.288,999.064 L2643.288,1256.837 L2420.05,1385.723 L2420.05,1127.951 z" fill="#5DB6E9" fill-opacity="0.523"/>
        <path d="M2643.288,999.064 L2643.288,1256.837 L2420.05,1385.723 L2420.05,1127.951 z" fill-opacity="0" stroke="#000000" stroke-width="1" stroke-linejoin="bevel"/>
      </g>
      <g>
        <path d="M1435.242,3091.46 L1435.242,2833.687 L1658.48,2704.801 L1658.48,2962.574 z" fill="#5DB6E9" fill-opacity="0.523"/>
        <path d="M1435.242,3091.46 L1435.242,2833.687 L1658.48,2704.801 L1658.48,2962.574 z" fill-opacity="0" stroke="#000000" stroke-width="1" stroke-linejoin="bevel"/>
      </g>
      <g>
        <path d="M2565.758,3091.46 L2342.52,2962.573 L2342.52,2704.801 L2565.758,2833.687 z" fill="#5DB6E9" fill-opacity="0.523"/>
        <path d="M2565.758,3091.46 L2342.52,2962.573 L2342.52,2704.801 L2565.758,2833.687 z" fill-opacity="0" stroke="#000000" stroke-width="1" stroke-linejoin="bevel"/>
      </g>
    </g>
    <g>
      <g>
        <path d="M1746.644,1325.416 L1912.337,1127.95 L2000.5,1370.177 L1834.807,1567.643 z" fill="#4177DB" fill-opacity="0.523"/>
        <path d="M1746.644,1325.416 L1912.337,1127.95 L2000.5,1370.177 L1834.807,1567.643 z" fill-opacity="0" stroke="#000000" stroke-width="1" stroke-linejoin="bevel"/>
      </g>
      <g>
        <path d="M2000.5,1370.177 L2088.664,1127.95 L2254.357,1325.416 L2166.193,1567.643 z" fill="#4177DB" fill-opacity="0.523"/>
        <path d="M2000.5,1370.177 L2088.664,1127.95 L2254.357,1325.416 L2166.193,1567.643 z" fill-opacity="0" stroke="#000000" stroke-width="1" stroke-linejoin="bevel"/>
      </g>
      <g>
        <path d="M2731.451,2151.768 L2819.615,2393.995 L2565.758,2349.233 L2477.594,2107.006 z" fill="#4177DB" fill-opacity="0.523"/>
        <path d="M2731.451,2151.768 L2819.615,2393.995 L2565.758,2349.233 L2477.594,2107.006 z" fill-opacity="0" stroke="#000000" stroke-width="1" stroke-linejoin="bevel"/>
      </g>
      <g>
        <path d="M2565.758,2349.233 L2731.451,2546.698 L2477.594,2591.46 L2311.901,2393.994 z" fill="#4177DB" fill-opacity="0.523"/>
        <path d="M2565.758,2349.233 L2731.451,2546.698 L2477.594,2591.46 L2311.901,2393.994 z" fill-opacity="0" stroke="#000000" stroke-width="1" stroke-linejoin="bevel"/>
      </g>
      <g>
        <path d="M1523.406,2591.459 L1269.549,2546.698 L1435.242,2349.232 L1689.099,2393.994 z" fill="#4177DB" fill-opacity="0.523"/>
        <path d="M1523.406,2591.459 L1269.549,2546.698 L1435.242,2349.232 L1689.099,2393.994 z" fill-opacity="0" stroke="#000000" stroke-width="1" stroke-linejoin="bevel"/>
      </g>
      <g>
        <path d="M1435.242,2349.232 L1181.385,2393.994 L1269.549,2151.767 L1523.406,2107.005 z" fill="#4177DB" fill-opacity="0.523"/>
        <path d="M1435.242,2349.232 L1181.385,2393.994 L1269.549,2151.767 L1523.406,2107.005 z" fill-opacity="0" stroke="#000000" stroke-width="1" stroke-linejoin="bevel"/>
      </g>
    </g>
    <g>
      <g>
        <path d="M1435.242,2349.232 L1269.549,2546.698 L1015.692,2591.459 L1181.386,2393.994 z" fill="#69AEB0" fill-opacity="0.523"/>
        <path d="M1435.242,2349.232 L1269.549,2546.698 L1015.692,2591.459 L1181.386,2393.994 z" fill-opacity="0" stroke="#000000" stroke-width="0.5" stroke-linejoin="bevel"/>
      </g>
      <g>
        <path d="M2000.5,1370.177 L1912.337,1127.95 L2000.5,885.723 L2088.664,1127.95 z" fill="#69AEB0" fill-opacity="0.523"/>
        <path d="M2000.5,1370.177 L1912.337,1127.95 L2000.5,885.723 L2088.664,1127.95 z" fill-opacity="0" stroke="#000000" stroke-width="0.5" stroke-linejoin="bevel"/>
      </g>
      <g>
        <path d="M2565.758,2349.233 L2819.615,2393.995 L2985.307,2591.46 L2731.451,2546.698 z" fill="#69AEB0" fill-opacity="0.523"/>
        <path d="M2565.758,2349.233 L2819.615,2393.995 L2985.307,2591.46 L2731.451,2546.698 z" fill-opacity="0" stroke="#000000" stroke-width="0.5" stroke-linejoin="bevel"/>
      </g>
    </g>
    <g>
      <g>
        <path d="M1834.807,2962.573 L2000.5,2765.108 L2166.193,2962.574 L2000.5,3160.039 z" fill="#B18268" fill-opacity="0.523"/>
        <path d="M1834.807,2962.573 L2000.5,2765.108 L2166.193,2962.574 L2000.5,3160.039 z" fill-opacity="0" stroke="#000000" stroke-width="1" stroke-linejoin="bevel"/>
      </g>
      <g>
        <path d="M1269.549,1409.54 L1357.712,1651.767 L1103.856,1696.529 L1015.692,1454.302 z" fill="#B18268" fill-opacity="0.523"/>
        <path d="M1269.549,1409.54 L1357.712,1651.767 L1103.856,1696.529 L1015.692,1454.302 z" fill-opacity="0" stroke="#000000" stroke-width="1" stroke-linejoin="bevel"/>
      </g>
      <g>
        <path d="M2897.144,1696.529 L2643.287,1651.768 L2731.451,1409.54 L2985.308,1454.302 z" fill="#B18268" fill-opacity="0.523"/>
        <path d="M2897.144,1696.529 L2643.287,1651.768 L2731.451,1409.54 L2985.308,1454.302 z" fill-opacity="0" stroke="#000000" stroke-width="1" stroke-linejoin="bevel"/>
      </g>
    </g>
    <g>
      <g>
        <path d="M1746.644,2720.346 L1912.336,2522.881 L2000.5,2765.108 L1834.807,2962.573 z" fill="#4177DB" fill-opacity="0.523"/>
        <path d="M1746.644,2720.346 L1912.336,2522.881 L2000.5,2765.108 L1834.807,2962.573 z" fill-opacity="0" stroke="#000000" stroke-width="1" stroke-linejoin="bevel"/>
      </g>
      <g>
        <path d="M2000.5,2765.108 L2088.664,2522.881 L2254.357,2720.346 L2166.193,2962.574 z" fill="#4177DB" fill-opacity="0.523"/>
        <path d="M2000.5,2765.108 L2088.664,2522.881 L2254.357,2720.346 L2166.193,2962.574 z" fill-opacity="0" stroke="#000000" stroke-width="1" stroke-linejoin="bevel"/>
      </g>
      <g>
        <path d="M1523.406,1454.302 L1611.569,1696.529 L1357.712,1651.767 L1269.549,1409.54 z" fill="#4177DB" fill-opacity="0.523"/>
        <path d="M1523.406,1454.302 L1611.569,1696.529 L1357.712,1651.767 L1269.549,1409.54 z" fill-opacity="0" stroke="#000000" stroke-width="1" stroke-linejoin="bevel"/>
      </g>
      <g>
        <path d="M1357.713,1651.767 L1523.406,1849.233 L1269.549,1893.994 L1103.856,1696.529 z" fill="#4177DB" fill-opacity="0.523"/>
        <path d="M1357.713,1651.767 L1523.406,1849.233 L1269.549,1893.994 L1103.856,1696.529 z" fill-opacity="0" stroke="#000000" stroke-width="1" stroke-linejoin="bevel"/>
      </g>
      <g>
        <path d="M2731.451,1893.995 L2477.594,1849.233 L2643.288,1651.768 L2897.144,1696.53 z" fill="#4177DB" fill-opacity="0.523"/>
        <path d="M2731.451,1893.995 L2477.594,1849.233 L2643.288,1651.768 L2897.144,1696.53 z" fill-opacity="0" stroke="#000000" stroke-width="1" stroke-linejoin="bevel"/>
      </g>
      <g>
        <path d="M2643.288,1651.768 L2389.431,1696.529 L2477.594,1454.302 L2731.451,1409.541 z" fill="#4177DB" fill-opacity="0.523"/>
        <path d="M2643.288,1651.768 L2389.431,1696.529 L2477.594,1454.302 L2731.451,1409.541 z" fill-opacity="0" stroke="#000000" stroke-width="1" stroke-linejoin="bevel"/>
      </g>
    </g>
    <g>
      <g>
        <path d="M2508.214,885.723 L2731.451,756.837 L2643.288,999.064 L2420.05,1127.95 z" fill="#A65CC3" fill-opacity="0.523"/>
        <path d="M2508.214,885.723 L2731.451,756.837 L2643.288,999.064 L2420.05,1127.95 z" fill-opacity="0" stroke="#000000" stroke-width="0.5" stroke-linejoin="bevel"/>
      </g>
      <g>
        <path d="M3208.545,1978.119 L3462.402,2022.881 L3239.164,2151.768 L2985.308,2107.006 z" fill="#A65CC3" fill-opacity="0.523"/>
        <path d="M3208.545,1978.119 L3462.402,2022.881 L3239.164,2151.768 L2985.308,2107.006 z" fill-opacity="0" stroke="#000000" stroke-width="0.5" stroke-linejoin="bevel"/>
      </g>
      <g>
        <path d="M2731.451,3031.153 L2731.451,3288.925 L2565.758,3091.46 L2565.758,2833.687 z" fill="#A65CC3" fill-opacity="0.523"/>
        <path d="M2731.451,3031.153 L2731.451,3288.925 L2565.758,3091.46 L2565.758,2833.687 z" fill-opacity="0" stroke="#000000" stroke-width="0.5" stroke-linejoin="bevel"/>
      </g>
      <g>
        <path d="M1435.242,3091.459 L1269.55,3288.925 L1269.549,3031.152 L1435.242,2833.687 z" fill="#A65CC3" fill-opacity="0.523"/>
        <path d="M1435.242,3091.459 L1269.55,3288.925 L1269.549,3031.152 L1435.242,2833.687 z" fill-opacity="0" stroke="#000000" stroke-width="0.5" stroke-linejoin="bevel"/>
      </g>
      <g>
        <path d="M761.836,2151.767 L538.598,2022.881 L792.455,1978.119 L1015.693,2107.005 z" fill="#A65CC3" fill-opacity="0.523"/>
        <path d="M761.836,2151.767 L538.598,2022.881 L792.455,1978.119 L1015.693,2107.005 z" fill-opacity="0" stroke="#000000" stroke-width="0.5" stroke-linejoin="bevel"/>
      </g>
      <g>
        <path d="M1357.713,999.064 L1269.549,756.837 L1492.787,885.723 L1580.951,1127.95 z" fill="#A65CC3" fill-opacity="0.523"/>
        <path d="M1357.713,999.064 L1269.549,756.837 L1492.787,885.723 L1580.951,1127.95 z" fill-opacity="0" stroke="#000000" stroke-width="0.5" stroke-linejoin="bevel"/>
      </g>
    </g>
    <g>
      <g>
        <path d="M2342.521,1083.188 L2508.214,885.723 L2420.05,1127.951 L2254.357,1325.416 z" fill="#59E596" fill-opacity="0.523"/>
        <path d="M2342.521,1083.188 L2508.214,885.723 L2420.05,1127.951 L2254.357,1325.416 z" fill-opacity="0" stroke="#000000" stroke-width="1" stroke-linejoin="bevel"/>
      </g>
      <g>
        <path d="M1658.48,1083.188 L1492.787,885.723 L1580.95,1127.95 L1746.644,1325.416 z" fill="#59E596" fill-opacity="0.523"/>
        <path d="M1658.48,1083.188 L1492.787,885.723 L1580.95,1127.95 L1746.644,1325.416 z" fill-opacity="0" stroke="#000000" stroke-width="1" stroke-linejoin="bevel"/>
      </g>
      <g>
        <path d="M2643.287,2788.925 L2731.451,3031.153 L2565.757,2833.687 L2477.594,2591.46 z" fill="#59E596" fill-opacity="0.523"/>
        <path d="M2643.287,2788.925 L2731.451,3031.153 L2565.757,2833.687 L2477.594,2591.46 z" fill-opacity="0" stroke="#000000" stroke-width="1" stroke-linejoin="bevel"/>
      </g>
      <g>
        <path d="M2985.308,2196.529 L3239.164,2151.767 L2985.307,2107.005 L2731.451,2151.767 z" fill="#59E596" fill-opacity="0.523"/>
        <path d="M2985.308,2196.529 L3239.164,2151.767 L2985.307,2107.005 L2731.451,2151.767 z" fill-opacity="0" stroke="#000000" stroke-width="1" stroke-linejoin="bevel"/>
      </g>
      <g>
        <path d="M1015.692,2196.529 L761.836,2151.767 L1015.693,2107.005 L1269.549,2151.767 z" fill="#59E596" fill-opacity="0.523"/>
        <path d="M1015.692,2196.529 L761.836,2151.767 L1015.693,2107.005 L1269.549,2151.767 z" fill-opacity="0" stroke="#000000" stroke-width="1" stroke-linejoin="bevel"/>
      </g>
      <g id="Shape">
        <path d="M1357.713,2788.925 L1269.549,3031.152 L1435.242,2833.687 L1523.406,2591.459 z" fill="#59E596" fill-opacity="0.523"/>
        <path d="M1357.713,2788.925 L1269.549,3031.152 L1435.242,2833.687 L1523.406,2591.459 z" fill-opacity="0" stroke="#000000" stroke-width="1" stroke-linejoin="bevel"/>
      </g>
    </g>
    <g>
      <g>
        <path d="M2342.52,2962.573 L2565.758,3091.46 L2731.451,3288.925 L2508.213,3160.039 z" fill="#A3E460" fill-opacity="0.523"/>
        <path d="M2342.52,2962.573 L2565.758,3091.46 L2731.451,3288.925 L2508.213,3160.039 z" fill-opacity="0" stroke="#000000" stroke-width="1" stroke-linejoin="bevel"/>
      </g>
      <g>
        <path d="M1658.48,2962.574 L1492.787,3160.039 L1269.549,3288.925 L1435.242,3091.459 z" fill="#A3E460" fill-opacity="0.523"/>
        <path d="M1658.48,2962.574 L1492.787,3160.039 L1269.549,3288.925 L1435.242,3091.459 z" fill-opacity="0" stroke="#000000" stroke-width="1" stroke-linejoin="bevel"/>
      </g>
      <g>
        <path d="M1015.693,1849.233 L792.455,1978.119 L538.598,2022.88 L761.836,1893.994 z" fill="#A3E460" fill-opacity="0.523"/>
        <path d="M1015.693,1849.233 L792.455,1978.119 L538.598,2022.88 L761.836,1893.994 z" fill-opacity="0" stroke="#000000" stroke-width="1" stroke-linejoin="bevel"/>
      </g>
      <g>
        <path d="M1357.712,1256.836 L1269.549,1014.609 L1269.549,756.837 L1357.713,999.064 z" fill="#A3E460" fill-opacity="0.523"/>
        <path d="M1357.712,1256.836 L1269.549,1014.609 L1269.549,756.837 L1357.713,999.064 z" fill-opacity="0" stroke="#000000" stroke-width="1" stroke-linejoin="bevel"/>
      </g>
      <g>
        <path d="M2643.288,1256.837 L2643.288,999.064 L2731.451,756.837 L2731.451,1014.61 z" fill="#A3E460" fill-opacity="0.523"/>
        <path d="M2643.288,1256.837 L2643.288,999.064 L2731.451,756.837 L2731.451,1014.61 z" fill-opacity="0" stroke="#000000" stroke-width="1" stroke-linejoin="bevel"/>
      </g>
      <g>
        <path d="M2985.308,1849.232 L3239.164,1893.994 L3462.402,2022.881 L3208.545,1978.119 z" fill="#A3E460" fill-opacity="0.523"/>
        <path d="M2985.308,1849.232 L3239.164,1893.994 L3462.402,2022.881 L3208.545,1978.119 z" fill-opacity="0" stroke="#000000" stroke-width="1" stroke-linejoin="bevel"/>
      </g>
    </g>
    <g>
      <g>
        <path d="M1834.807,1083.188 L2000.5,885.723 L1912.337,1127.95 L1746.644,1325.416 z" fill="#59E596" fill-opacity="0.523"/>
        <path d="M1834.807,1083.188 L2000.5,885.723 L1912.337,1127.95 L1746.644,1325.416 z" fill-opacity="0" stroke="#000000" stroke-width="1" stroke-linejoin="bevel"/>
      </g>
      <g>
        <path d="M2166.193,1083.188 L2000.5,885.723 L2088.664,1127.95 L2254.357,1325.416 z" fill="#59E596" fill-opacity="0.523"/>
        <path d="M2166.193,1083.188 L2000.5,885.723 L2088.664,1127.95 L2254.357,1325.416 z" fill-opacity="0" stroke="#000000" stroke-width="1" stroke-linejoin="bevel"/>
      </g>
      <g>
        <path d="M2897.144,2349.233 L2985.307,2591.46 L2819.614,2393.995 L2731.451,2151.767 z" fill="#59E596" fill-opacity="0.523"/>
        <path d="M2897.144,2349.233 L2985.307,2591.46 L2819.614,2393.995 L2731.451,2151.767 z" fill-opacity="0" stroke="#000000" stroke-width="1" stroke-linejoin="bevel"/>
      </g>
      <g>
        <path d="M2731.451,2636.221 L2985.307,2591.46 L2731.45,2546.698 L2477.594,2591.46 z" fill="#59E596" fill-opacity="0.523"/>
        <path d="M2731.451,2636.221 L2985.307,2591.46 L2731.45,2546.698 L2477.594,2591.46 z" fill-opacity="0" stroke="#000000" stroke-width="1" stroke-linejoin="bevel"/>
      </g>
      <g>
        <path d="M1269.549,2636.221 L1015.692,2591.459 L1269.549,2546.698 L1523.406,2591.459 z" fill="#59E596" fill-opacity="0.523"/>
        <path d="M1269.549,2636.221 L1015.692,2591.459 L1269.549,2546.698 L1523.406,2591.459 z" fill-opacity="0" stroke="#000000" stroke-width="1" stroke-linejoin="bevel"/>
      </g>
      <g id="Shape">
        <path d="M1103.856,2349.232 L1015.693,2591.46 L1181.386,2393.994 L1269.549,2151.767 z" fill="#59E596" fill-opacity="0.523"/>
        <path d="M1103.856,2349.232 L1015.693,2591.46 L1181.386,2393.994 L1269.549,2151.767 z" fill-opacity="0" stroke="#000000" stroke-width="1" stroke-linejoin="bevel"/>
      </g>
    </g>
    <g>
      <g>
        <path d="M3151.001,1651.767 L2985.308,1849.233 L2731.451,1893.994 L2897.145,1696.529 z" fill="#69AEB0" fill-opacity="0.523"/>
        <path d="M3151.001,1651.767 L2985.308,1849.233 L2731.451,1893.994 L2897.145,1696.529 z" fill-opacity="0" stroke="#000000" stroke-width="0.5" stroke-linejoin="bevel"/>
      </g>
      <g>
        <path d="M2254.356,3204.801 L2166.193,2962.573 L2254.357,2720.347 L2342.52,2962.573 z" fill="#69AEB0" fill-opacity="0.523"/>
        <path d="M2254.356,3204.801 L2166.193,2962.573 L2254.357,2720.347 L2342.52,2962.573 z" fill-opacity="0" stroke="#000000" stroke-width="0.5" stroke-linejoin="bevel"/>
      </g>
      <g>
        <path d="M849.999,1651.767 L1103.856,1696.529 L1269.549,1893.995 L1015.693,1849.233 z" fill="#69AEB0" fill-opacity="0.523"/>
        <path d="M849.999,1651.767 L1103.856,1696.529 L1269.549,1893.995 L1015.693,1849.233 z" fill-opacity="0" stroke="#000000" stroke-width="0.5" stroke-linejoin="bevel"/>
      </g>
      <g>
        <path d="M1746.644,3204.801 L1658.48,2962.573 L1746.644,2720.346 L1834.807,2962.573 z" fill="#69AEB0" fill-opacity="0.523"/>
        <path d="M1746.644,3204.801 L1658.48,2962.573 L1746.644,2720.346 L1834.807,2962.573 z" fill-opacity="0" stroke="#000000" stroke-width="0.5" stroke-linejoin="bevel"/>
      </g>
      <g>
        <path d="M2897.144,1212.075 L2731.452,1409.541 L2477.594,1454.302 L2643.288,1256.837 z" fill="#69AEB0" fill-opacity="0.523"/>
        <path d="M2897.144,1212.075 L2731.452,1409.541 L2477.594,1454.302 L2643.288,1256.837 z" fill-opacity="0" stroke="#000000" stroke-width="0.5" stroke-linejoin="bevel"/>
      </g>
      <g>
        <path d="M1103.856,1212.075 L1357.713,1256.837 L1523.406,1454.302 L1269.549,1409.54 z" fill="#69AEB0" fill-opacity="0.523"/>
        <path d="M1103.856,1212.075 L1357.713,1256.837 L1523.406,1454.302 L1269.549,1409.54 z" fill-opacity="0" stroke="#000000" stroke-width="0.5" stroke-linejoin="bevel"/>
      </g>
    </g>
    <g>
      <g>
        <path d="M2000.5,3160.039 L2166.193,2962.574 L2254.357,3204.801 L2088.664,3402.266 z" fill="#4177DB" fill-opacity="0.523"/>
        <path d="M2000.5,3160.039 L2166.193,2962.574 L2254.357,3204.801 L2088.664,3402.266 z" fill-opacity="0" stroke="#000000" stroke-width="1" stroke-linejoin="bevel"/>
      </g>
      <g>
        <path d="M1746.644,3204.8 L1834.807,2962.573 L2000.5,3160.039 L1912.337,3402.266 z" fill="#4177DB" fill-opacity="0.523"/>
        <path d="M1746.644,3204.8 L1834.807,2962.573 L2000.5,3160.039 L1912.337,3402.266 z" fill-opacity="0" stroke="#000000" stroke-width="1" stroke-linejoin="bevel"/>
      </g>
      <g>
        <path d="M1015.693,1454.302 L1103.856,1696.529 L850,1651.767 L761.836,1409.54 z" fill="#4177DB" fill-opacity="0.523"/>
        <path d="M1015.693,1454.302 L1103.856,1696.529 L850,1651.767 L761.836,1409.54 z" fill-opacity="0" stroke="#000000" stroke-width="1" stroke-linejoin="bevel"/>
      </g>
      <g>
        <path d="M1103.856,1212.075 L1269.549,1409.54 L1015.693,1454.302 L850,1256.836 z" fill="#4177DB" fill-opacity="0.523"/>
        <path d="M1103.856,1212.075 L1269.549,1409.54 L1015.693,1454.302 L850,1256.836 z" fill-opacity="0" stroke="#000000" stroke-width="1" stroke-linejoin="bevel"/>
      </g>
      <g>
        <path d="M2985.308,1454.302 L2731.452,1409.541 L2897.145,1212.075 L3151.001,1256.837 z" fill="#4177DB" fill-opacity="0.523"/>
        <path d="M2985.308,1454.302 L2731.452,1409.541 L2897.145,1212.075 L3151.001,1256.837 z" fill-opacity="0" stroke="#000000" stroke-width="1" stroke-linejoin="bevel"/>
      </g>
      <g>
        <path d="M3151.001,1651.768 L2897.144,1696.53 L2985.308,1454.302 L3239.165,1409.541 z" fill="#4177DB" fill-opacity="0.523"/>
        <path d="M3151.001,1651.768 L2897.144,1696.53 L2985.308,1454.302 L3239.165,1409.541 z" fill-opacity="0" stroke="#000000" stroke-width="1" stroke-linejoin="bevel"/>
      </g>
    </g>
    <g>
      <g>
        <path d="M3404.858,1212.075 L3239.165,1409.541 L2985.308,1454.302 L3151.001,1256.837 z" fill="#69AEB0" fill-opacity="0.523"/>
        <path d="M3404.858,1212.075 L3239.165,1409.541 L2985.308,1454.302 L3151.001,1256.837 z" fill-opacity="0" stroke="#000000" stroke-width="0.5" stroke-linejoin="bevel"/>
      </g>
      <g>
        <path d="M2000.5,3644.493 L1912.337,3402.265 L2000.5,3160.039 L2088.664,3402.265 z" fill="#69AEB0" fill-opacity="0.523"/>
        <path d="M2000.5,3644.493 L1912.337,3402.265 L2000.5,3160.039 L2088.664,3402.265 z" fill-opacity="0" stroke="#000000" stroke-width="0.5" stroke-linejoin="bevel"/>
      </g>
      <g>
        <path d="M596.143,1212.074 L850,1256.836 L1015.693,1454.302 L761.836,1409.54 z" fill="#69AEB0" fill-opacity="0.523"/>
        <path d="M596.143,1212.074 L850,1256.836 L1015.693,1454.302 L761.836,1409.54 z" fill-opacity="0" stroke="#000000" stroke-width="0.5" stroke-linejoin="bevel"/>
      </g>
    </g>
  </g>
  <g id="Blue">
    <g>
      <path d="M1357.212,1651.267 L1611.069,1696.029 L1776.761,1893.495 L1522.906,1848.733 z" fill="#3B4868"/>
      <path d="M1269.049,1409.04 L1357.212,1651.267 L1103.356,1696.029 L1015.192,1453.802 z" fill="#6479AC"/>
      <path d="M1522.906,1453.802 L1611.069,1696.029 L1357.212,1651.267 L1269.049,1409.04 z" fill="#4C5D85"/>
      <path d="M1357.213,1651.267 L1522.906,1848.733 L1269.049,1893.495 L1103.356,1696.029 z" fill="#4C5D85"/>
      <path d="M849.499,1651.267 L1103.357,1696.029 L1269.049,1893.495 L1015.193,1848.733 z" fill="#6479AC"/>
      <path d="M1103.356,1211.575 L1357.213,1256.337 L1522.906,1453.802 L1269.049,1409.04 z" fill="#6479AC"/>
      <path d="M1015.193,1453.802 L1103.356,1696.029 L849.5,1651.267 L761.336,1409.04 z" fill="#7790CB"/>
      <path d="M1103.356,1211.575 L1269.049,1409.04 L1015.193,1453.802 L849.5,1256.336 z" fill="#7790CB"/>
      <path d="M595.643,1211.574 L849.5,1256.336 L1015.193,1453.802 L761.337,1409.04 z" fill="#87A3E5"/>
      <path d="M1776.762,1893.495 L1611.069,1696.029 L1834.307,1824.916 L2000,2022.381 z" fill="#222B3F" id="Shape"/>
      <path d="M1776.762,1893.504 L1522.906,1848.743 L1746.143,1977.629 L2000,2022.391 z" fill="#222B3F"/>
    </g>
    <g>
      <path d="M2642.789,1651.277 L2477.095,1848.743 L2223.239,1893.504 L2388.932,1696.039 z" fill="#3B4868"/>
      <path d="M2896.645,1696.039 L2642.789,1651.277 L2730.952,1409.05 L2984.809,1453.812 z" fill="#6479AC"/>
      <path d="M2730.952,1893.505 L2477.095,1848.743 L2642.789,1651.277 L2896.645,1696.039 z" fill="#4C5D85"/>
      <path d="M2642.789,1651.278 L2388.932,1696.039 L2477.095,1453.812 L2730.952,1409.05 z" fill="#4C5D85"/>
      <path d="M2896.645,1211.585 L2730.952,1409.051 L2477.095,1453.812 L2642.788,1256.347 z" fill="#6479AC"/>
      <path d="M3150.502,1651.278 L2984.809,1848.743 L2730.952,1893.505 L2896.645,1696.04 z" fill="#6479AC"/>
      <path d="M2984.809,1453.813 L2730.952,1409.051 L2896.645,1211.585 L3150.502,1256.347 z" fill="#7790CB"/>
      <path d="M3150.502,1651.278 L2896.645,1696.04 L2984.809,1453.812 L3238.666,1409.051 z" fill="#7790CB"/>
      <path d="M3404.359,1211.585 L3238.665,1409.051 L2984.809,1453.812 L3150.501,1256.347 z" fill="#87A3E5"/>
      <path d="M2223.238,1893.494 L2388.931,1696.028 L2165.693,1824.915 L2000,2022.38 z" fill="#222B3F"/>
      <path d="M2223.238,1893.504 L2477.095,1848.743 L2253.857,1977.629 L2000.001,2022.391 z" fill="#222B3F"/>
    </g>
    <g>
      <path d="M1999.993,2764.614 L1911.829,2522.386 L1999.993,2280.159 L2088.156,2522.386 z" fill="#3B4868"/>
      <path d="M1834.3,2962.078 L1999.993,2764.613 L2165.686,2962.079 L1999.993,3159.544 z" fill="#6479AC"/>
      <path d="M1746.136,2719.851 L1911.829,2522.386 L1999.993,2764.613 L1834.3,2962.078 z" fill="#4C5D85"/>
      <path d="M1999.993,2764.613 L2088.156,2522.386 L2253.85,2719.851 L2165.686,2962.078 z" fill="#4C5D85"/>
      <path d="M2253.849,3204.305 L2165.686,2962.078 L2253.849,2719.851 L2342.012,2962.078 z" fill="#6479AC"/>
      <path d="M1746.136,3204.306 L1657.973,2962.078 L1746.136,2719.851 L1834.3,2962.078 z" fill="#6479AC"/>
      <path d="M1999.992,3159.543 L2165.685,2962.078 L2253.849,3204.305 L2088.156,3401.771 z" fill="#7790CB"/>
      <path d="M1746.136,3204.305 L1834.299,2962.078 L1999.993,3159.544 L1911.829,3401.771 z" fill="#7790CB"/>
      <path d="M1999.992,3643.998 L1911.829,3401.771 L1999.993,3159.544 L2088.156,3401.77 z" fill="#87A3E5"/>
      <path d="M2000.001,2280.154 L2088.165,2522.381 L2088.165,2264.608 L2000.002,2022.381 z" fill="#222B3F"/>
      <path d="M1999.993,2280.158 L1911.83,2522.385 L1911.83,2264.612 L1999.993,2022.385 z" fill="#222B3F"/>
    </g>
  </g>
  <g id="Purple">
    <g>
      <path d="M2165.693,1567.142 L2165.693,1824.915 L2253.856,1582.688 L2253.857,1324.915 z" fill="#785486"/>
      <path d="M2388.931,1696.028 L2477.095,1453.802 L2253.857,1582.688 L2165.693,1824.915 z" fill="#785486"/>
      <path d="M2419.55,1127.449 L2253.856,1324.915 L2253.856,1582.688 L2419.55,1385.222 z" fill="#9267A3"/>
      <path d="M2642.787,998.563 L2419.55,1127.449 L2419.55,1385.222 L2642.788,1256.336 z" fill="#AE7BC1"/>
      <path d="M2642.787,998.563 L2730.951,756.336 L2507.713,885.222 L2419.55,1127.449 z" fill="#CE93E5"/>
      <path d="M2342.02,1082.688 L2507.713,885.222 L2419.55,1127.45 L2253.856,1324.915 z" fill="#AE7BC1"/>
      <path d="M2642.788,1256.336 L2730.951,1014.109 L2730.951,756.336 L2642.787,998.563 z" fill="#CE93E5"/>
      <path d="M2477.095,1453.801 L2642.788,1256.336 L2419.55,1385.222 L2253.857,1582.688 z" fill="#9267A3"/>
    </g>
    <g>
      <path d="M2477.095,2106.515 L2253.857,1977.629 L2507.714,2022.391 L2730.951,2151.277 z" fill="#785486"/>
      <path d="M2477.095,1848.743 L2730.951,1893.504 L2507.714,2022.391 L2253.857,1977.629 z" fill="#785486"/>
      <path d="M2984.808,2106.516 L2730.952,2151.277 L2507.714,2022.391 L2761.571,1977.629 z" fill="#9267A3"/>
      <path d="M3208.046,1977.629 L2984.808,2106.516 L2761.571,1977.629 L2984.808,1848.743 z" fill="#AE7BC1"/>
      <path d="M3208.046,1977.63 L3461.902,2022.391 L3238.665,2151.278 L2984.808,2106.516 z" fill="#CE93E5"/>
      <path d="M2984.808,2196.039 L3238.665,2151.277 L2984.808,2106.516 L2730.952,2151.278 z" fill="#AE7BC1"/>
      <path d="M2984.808,1848.743 L3238.665,1893.504 L3461.902,2022.391 L3208.046,1977.629 z" fill="#CE93E5"/>
      <path d="M2730.952,1893.504 L2984.808,1848.743 L2761.571,1977.629 L2507.714,2022.391 z" fill="#9267A3"/>
    </g>
    <g>
      <path d="M2311.403,2393.495 L2088.165,2264.608 L2253.858,2462.073 L2477.096,2590.96 z" fill="#785486"/>
      <path d="M2088.165,2522.381 L2253.857,2719.846 L2253.858,2462.074 L2088.165,2264.608 z" fill="#785486"/>
      <path d="M2565.26,2833.187 L2477.096,2590.96 L2253.858,2462.074 L2342.022,2704.301 z" fill="#9267A3"/>
      <path d="M2565.26,3090.96 L2565.26,2833.187 L2342.022,2704.301 L2342.022,2962.074 z" fill="#AE7BC1"/>
      <path d="M2565.26,3090.96 L2730.952,3288.425 L2730.953,3030.652 L2565.26,2833.187 z" fill="#CE93E5"/>
      <path d="M2642.789,2788.426 L2730.953,3030.653 L2565.26,2833.187 L2477.096,2590.96 z" fill="#AE7BC1"/>
      <path d="M2342.022,2962.074 L2507.715,3159.539 L2730.953,3288.425 L2565.26,3090.96 z" fill="#CE93E5"/>
      <path d="M2253.858,2719.847 L2342.022,2962.074 L2342.022,2704.301 L2253.858,2462.074 z" fill="#9267A3"/>
    </g>
    <g>
      <path d="M1834.307,1567.143 L1834.307,1824.916 L1746.144,1582.688 L1746.144,1324.916 z" fill="#785486"/>
      <path d="M1611.069,1696.029 L1522.906,1453.803 L1746.144,1582.688 L1834.307,1824.916 z" fill="#785486"/>
      <path d="M1580.451,1127.45 L1746.144,1324.916 L1746.144,1582.688 L1580.451,1385.223 z" fill="#9267A3"/>
      <path d="M1357.213,998.564 L1580.451,1127.45 L1580.451,1385.223 L1357.212,1256.337 z" fill="#AE7BC1"/>
      <path d="M1357.213,998.563 L1269.049,756.337 L1492.287,885.223 L1580.451,1127.45 z" fill="#CE93E5"/>
      <path d="M1657.98,1082.688 L1492.287,885.223 L1580.451,1127.45 L1746.144,1324.916 z" fill="#AE7BC1"/>
      <path d="M1357.212,1256.336 L1269.049,1014.109 L1269.049,756.337 L1357.213,998.564 z" fill="#CE93E5"/>
      <path d="M1522.905,1453.802 L1357.212,1256.337 L1580.45,1385.223 L1746.144,1582.688 z" fill="#9267A3"/>
    </g>
    <g>
      <path d="M1688.592,2393.499 L1911.83,2264.612 L1746.136,2462.078 L1522.899,2590.964 z" fill="#785486"/>
      <path d="M1911.83,2522.385 L1746.137,2719.85 L1746.136,2462.078 L1911.83,2264.612 z" fill="#785486"/>
      <path d="M1434.735,2833.191 L1522.899,2590.964 L1746.136,2462.078 L1657.973,2704.305 z" fill="#9267A3"/>
      <path d="M1434.735,3090.964 L1434.735,2833.191 L1657.973,2704.305 L1657.973,2962.078 z" fill="#AE7BC1"/>
      <path d="M1434.735,3090.964 L1269.042,3288.429 L1269.042,3030.656 L1434.735,2833.191 z" fill="#CE93E5"/>
      <path d="M1357.205,2788.429 L1269.042,3030.657 L1434.735,2833.191 L1522.899,2590.964 z" fill="#AE7BC1"/>
      <path d="M1657.973,2962.078 L1492.28,3159.543 L1269.042,3288.429 L1434.735,3090.963 z" fill="#CE93E5"/>
      <path d="M1746.137,2719.851 L1657.973,2962.078 L1657.973,2704.305 L1746.136,2462.078 z" fill="#9267A3"/>
    </g>
    <g>
      <path d="M1522.906,2106.515 L1746.143,1977.629 L1492.287,2022.391 L1269.049,2151.277 z" fill="#785486"/>
      <path d="M1522.906,1848.743 L1269.05,1893.504 L1492.287,2022.391 L1746.144,1977.629 z" fill="#785486"/>
      <path d="M1015.192,2106.516 L1269.049,2151.277 L1492.287,2022.391 L1238.43,1977.629 z" fill="#9267A3"/>
      <path d="M791.955,1977.629 L1015.193,2106.516 L1238.43,1977.629 L1015.192,1848.743 z" fill="#AE7BC1"/>
      <path d="M791.955,1977.63 L538.098,2022.391 L761.336,2151.278 L1015.193,2106.516 z" fill="#CE93E5"/>
      <path d="M1015.192,2196.039 L761.336,2151.277 L1015.193,2106.516 L1269.049,2151.278 z" fill="#AE7BC1"/>
      <path d="M1015.192,1848.743 L761.336,1893.504 L538.098,2022.391 L791.955,1977.629 z" fill="#CE93E5"/>
      <path d="M1269.049,1893.504 L1015.192,1848.743 L1238.43,1977.629 L1492.287,2022.391 z" fill="#9267A3"/>
    </g>
  </g>
  <g id="Green">
    <g>
      <path d="M1834.307,1567.143 L2000,1369.677 L2165.693,1567.143 L2000,1764.608 z" fill="#5F6F4F"/>
      <path d="M1746.144,1324.916 L1911.837,1127.45 L2000,1369.677 L1834.307,1567.143 z" fill="#7A8E67"/>
      <path d="M2000,1369.677 L2088.164,1127.45 L2253.857,1324.916 L2165.693,1567.143 z" fill="#7A8E67"/>
      <path d="M2000,1369.677 L1911.837,1127.45 L2000,885.223 L2088.164,1127.45 z" fill="#A2BB89"/>
      <path d="M1834.307,1082.688 L2000,885.223 L1911.837,1127.45 L1746.144,1324.916 z" fill="#A2BB89"/>
      <path d="M2165.693,1082.688 L2000,885.223 L2088.164,1127.45 L2253.857,1324.916 z" fill="#A2BB89"/>
      <path d="M1834.307,1567.144 L2000,1764.608 L2000,2022.382 L1834.307,1824.915 z" fill="#363F2C"/>
      <path d="M2165.693,1567.143 L2000,1764.608 L2000,2022.381 L2165.693,1824.915 z" fill="#363F2C"/>
    </g>
    <g>
      <path d="M2477.095,2106.506 L2565.259,2348.733 L2311.402,2393.494 L2223.239,2151.267 z" fill="#5F6F4F"/>
      <path d="M2730.952,2151.268 L2819.115,2393.495 L2565.259,2348.733 L2477.095,2106.506 z" fill="#7A8E67"/>
      <path d="M2565.259,2348.733 L2730.952,2546.198 L2477.095,2590.96 L2311.402,2393.494 z" fill="#7A8E67"/>
      <path d="M2565.259,2348.733 L2819.115,2393.495 L2984.808,2590.96 L2730.952,2546.198 z" fill="#A2BB89"/>
      <path d="M2896.645,2348.733 L2984.808,2590.96 L2819.115,2393.495 L2730.952,2151.267 z" fill="#A2BB89"/>
      <path d="M2730.952,2635.721 L2984.808,2590.96 L2730.951,2546.198 L2477.095,2590.96 z" fill="#A2BB89"/>
      <path d="M2477.094,2106.515 L2223.238,2151.277 L2000,2022.391 L2253.857,1977.629 z" fill="#363F2C"/>
      <path d="M2311.402,2393.494 L2223.239,2151.268 L2000.001,2022.381 L2088.165,2264.608 z" fill="#363F2C"/>
    </g>
    <g>
      <path d="M1688.601,2393.504 L1434.744,2348.742 L1522.908,2106.515 L1776.764,2151.277 z" fill="#5F6F4F"/>
      <path d="M1522.907,2590.969 L1269.051,2546.208 L1434.744,2348.742 L1688.601,2393.504 z" fill="#7A8E67"/>
      <path d="M1434.744,2348.742 L1180.887,2393.504 L1269.051,2151.276 L1522.908,2106.515 z" fill="#7A8E67"/>
      <path d="M1434.744,2348.742 L1269.051,2546.208 L1015.194,2590.969 L1180.887,2393.504 z" fill="#A2BB89"/>
      <path d="M1269.051,2635.731 L1015.194,2590.969 L1269.051,2546.207 L1522.907,2590.969 z" fill="#A2BB89"/>
      <path d="M1103.358,2348.742 L1015.194,2590.969 L1180.888,2393.504 L1269.051,2151.276 z" fill="#A2BB89"/>
      <path d="M1522.906,2106.515 L1776.762,2151.277 L2000,2022.391 L1746.143,1977.629 z" fill="#363F2C"/>
      <path d="M1688.592,2393.498 L1776.755,2151.271 L1999.994,2022.385 L1911.83,2264.612 z" fill="#363F2C"/>
    </g>
  </g>
</svg>
