<?xml version="1.0" encoding="UTF-8"?>
<!DOCTYPE svg PUBLIC "-//W3C//DTD SVG 1.1//EN" "http://www.w3.org/Graphics/SVG/1.1/DTD/svg11.dtd">
<svg version="1.1" xmlns="http://www.w3.org/2000/svg" xmlns:xlink="http://www.w3.org/1999/xlink" x="0" y="0" width="4000" height="4000" viewBox="0, 0, 4000, 4000">
  <g id="Centerstar">
    <g>
      <path d="M1950.272,1750 L2000,1500 L2049.728,1750 L2000,2000 z" fill="#A1846B"/>
      <path d="M2049.728,2250 L2000,2500 L1950.272,2250 L2000,2000 z" fill="#A1846B"/>
      <path d="M2141.614,1788.06 L2353.553,1646.447 L2211.94,1858.386 L2000,2000 z" fill="#A1846B"/>
      <path d="M1858.386,2211.94 L1646.446,2353.553 L1788.06,2141.614 L2000,2000 z" fill="#A1846B"/>
      <path d="M2250,1950.272 L2500,2000 L2250,2049.728 L2000,2000 z" fill="#A1846B"/>
      <path d="M1750,2049.728 L1500,2000 L1750,1950.272 L2000,2000 z" fill="#A1846B"/>
      <path d="M2211.94,2141.614 L2353.553,2353.553 L2141.614,2211.94 L2000,2000 z" fill="#A1846B"/>
      <path d="M1788.06,1858.386 L1646.447,1646.446 L1858.386,1788.06 L2000,2000 z" fill="#A1846B"/>
    </g>
  </g>
  <g id="Pinkarm">
    <g>
      <path d="M2141.614,1288.061 L2237.285,1057.091 L2287.013,1307.091 L2191.342,1538.06 z" fill="#9B6E86"/>
      <path d="M2287.013,1307.091 L2498.952,1165.477 L2403.281,1396.447 L2191.342,1538.06 z" fill="#9B6E86"/>
      <path d="M2049.728,1750 L2191.342,1538.06 L2141.614,1788.06 L2000,2000 z" fill="#614353"/>
      <path d="M2000,1500 L2141.614,1288.06 L2191.342,1538.06 L2049.728,1750 z" fill="#7D586B"/>
      <path d="M2191.342,1538.06 L2403.282,1396.447 L2353.553,1646.447 L2141.614,1788.06 z" fill="#7D586B"/>
      <path d="M2237.285,1057.091 L2449.224,915.477 L2498.952,1165.477 L2287.013,1307.091 z" fill="#B4809B"/>
      <path d="M2237.285,807.091 L2449.225,665.477 L2449.225,915.477 L2237.285,1057.091 z" fill="#CC92B0"/>
      <path d="M2449.225,915.477 L2626.001,738.701 L2675.729,988.701 L2498.952,1165.477 z" fill="#CC92B0"/>
      <path d="M2449.224,665.477 L2626.001,488.701 L2626.001,738.701 L2449.224,915.477 z" fill="#EAA8CB"/>
    </g>
    <g>
      <path d="M1858.386,2711.939 L1762.715,2942.909 L1712.987,2692.909 L1808.658,2461.939 z" fill="#9B6E86"/>
      <path d="M1712.987,2692.909 L1501.047,2834.523 L1596.718,2603.553 L1808.658,2461.94 z" fill="#9B6E86"/>
      <path d="M1950.272,2250 L1808.658,2461.94 L1858.386,2211.94 L2000,2000 z" fill="#614353"/>
      <path d="M2000,2500 L1858.386,2711.939 L1808.658,2461.94 L1950.272,2250 z" fill="#7D586B"/>
      <path d="M1808.658,2461.94 L1596.718,2603.553 L1646.446,2353.553 L1858.386,2211.94 z" fill="#7D586B"/>
      <path d="M1762.715,2942.909 L1550.775,3084.523 L1501.047,2834.523 L1712.987,2692.909 z" fill="#B4809B"/>
      <path d="M1762.715,3192.909 L1550.775,3334.523 L1550.775,3084.523 L1762.715,2942.909 z" fill="#CC92B0"/>
      <path d="M1550.775,3084.523 L1373.999,3261.299 L1324.271,3011.299 L1501.047,2834.523 z" fill="#CC92B0"/>
      <path d="M1550.775,3334.523 L1373.999,3511.299 L1373.999,3261.299 L1550.775,3084.523 z" fill="#EAA8CB"/>
    </g>
    <g>
      <path d="M2603.553,1596.719 L2834.523,1501.048 L2692.909,1712.988 L2461.939,1808.659 z" fill="#9B6E86"/>
      <path d="M2692.909,1712.988 L2942.909,1762.716 L2711.939,1858.387 L2461.94,1808.659 z" fill="#9B6E86"/>
      <path d="M2211.94,1858.386 L2461.94,1808.659 L2250,1950.272 L2000,2000 z" fill="#614353"/>
      <path d="M2353.553,1646.447 L2603.553,1596.719 L2461.94,1808.659 L2211.94,1858.386 z" fill="#7D586B"/>
      <path d="M2461.94,1808.659 L2711.94,1858.387 L2500,2000 L2250,1950.272 z" fill="#7D586B"/>
      <path d="M2834.523,1501.048 L3084.523,1550.776 L2942.909,1762.716 L2692.909,1712.988 z" fill="#B4809B"/>
      <path d="M3011.3,1324.271 L3261.3,1374 L3084.523,1550.776 L2834.523,1501.048 z" fill="#CC92B0"/>
      <path d="M3084.523,1550.776 L3334.523,1550.776 L3192.909,1762.716 L2942.909,1762.716 z" fill="#CC92B0"/>
      <path d="M3261.3,1374 L3511.299,1374 L3334.523,1550.776 L3084.523,1550.776 z" fill="#EAA8CB"/>
    </g>
    <g>
      <path d="M1396.447,2403.281 L1165.477,2498.952 L1307.09,2287.012 L1538.06,2191.341 z" fill="#9B6E86"/>
      <path d="M1307.09,2287.012 L1057.09,2237.284 L1288.06,2141.613 L1538.06,2191.341 z" fill="#9B6E86"/>
      <path d="M1788.06,2141.613 L1538.06,2191.341 L1750,2049.728 L2000,2000 z" fill="#614353"/>
      <path d="M1646.446,2353.553 L1396.447,2403.281 L1538.06,2191.341 L1788.06,2141.613 z" fill="#7D586B"/>
      <path d="M1538.06,2191.341 L1288.06,2141.613 L1500,2000 L1750,2049.728 z" fill="#7D586B"/>
      <path d="M1165.477,2498.952 L915.477,2449.224 L1057.091,2237.284 L1307.09,2287.012 z" fill="#B4809B"/>
      <path d="M988.7,2675.728 L738.7,2626 L915.477,2449.224 L1165.477,2498.952 z" fill="#CC92B0"/>
      <path d="M915.477,2449.224 L665.477,2449.223 L807.091,2237.284 L1057.09,2237.284 z" fill="#CC92B0"/>
      <path d="M738.7,2626 L488.7,2626 L665.477,2449.223 L915.477,2449.224 z" fill="#EAA8CB"/>
    </g>
    <g>
      <path d="M2711.939,2141.614 L2942.909,2237.285 L2692.909,2287.013 L2461.939,2191.342 z" fill="#9B6E86"/>
      <path d="M2692.909,2287.013 L2834.522,2498.952 L2603.553,2403.281 L2461.939,2191.342 z" fill="#9B6E86"/>
      <path d="M2250,2049.728 L2461.939,2191.342 L2211.939,2141.614 L2000,2000 z" fill="#614353"/>
      <path d="M2500,2000 L2711.939,2141.614 L2461.939,2191.342 L2250,2049.728 z" fill="#7D586B"/>
      <path d="M2461.939,2191.342 L2603.553,2403.281 L2353.553,2353.553 L2211.939,2141.614 z" fill="#7D586B"/>
      <path d="M2942.909,2237.285 L3084.523,2449.224 L2834.522,2498.952 L2692.909,2287.013 z" fill="#B4809B"/>
      <path d="M3192.909,2237.285 L3334.523,2449.225 L3084.522,2449.225 L2942.909,2237.285 z" fill="#CC92B0"/>
      <path d="M3084.522,2449.225 L3261.299,2626.001 L3011.299,2675.729 L2834.523,2498.952 z" fill="#CC92B0"/>
      <path d="M3334.523,2449.224 L3511.299,2626.001 L3261.299,2626.001 L3084.523,2449.224 z" fill="#EAA8CB"/>
    </g>
    <g>
      <path d="M1288.06,1858.386 L1057.091,1762.715 L1307.091,1712.987 L1538.06,1808.658 z" fill="#9B6E86"/>
      <path d="M1307.091,1712.987 L1165.477,1501.047 L1396.447,1596.718 L1538.06,1808.658 z" fill="#9B6E86"/>
      <path d="M1750,1950.272 L1538.06,1808.658 L1788.06,1858.386 L2000,2000 z" fill="#614353"/>
      <path d="M1500,2000 L1288.06,1858.386 L1538.06,1808.658 L1750,1950.272 z" fill="#7D586B"/>
      <path d="M1538.06,1808.658 L1396.447,1596.718 L1646.447,1646.446 L1788.06,1858.386 z" fill="#7D586B"/>
      <path d="M1057.091,1762.715 L915.477,1550.775 L1165.477,1501.047 L1307.091,1712.987 z" fill="#B4809B"/>
      <path d="M807.091,1762.715 L665.477,1550.775 L915.477,1550.775 L1057.091,1762.715 z" fill="#CC92B0"/>
      <path d="M915.477,1550.775 L738.701,1373.999 L988.701,1324.271 L1165.477,1501.047 z" fill="#CC92B0"/>
      <path d="M665.477,1550.776 L488.701,1373.999 L738.701,1373.999 L915.477,1550.776 z" fill="#EAA8CB"/>
    </g>
    <g>
      <path d="M2403.281,2603.553 L2498.952,2834.523 L2287.012,2692.909 L2191.341,2461.94 z" fill="#9B6E86"/>
      <path d="M2287.012,2692.909 L2237.284,2942.909 L2141.613,2711.939 L2191.341,2461.94 z" fill="#9B6E86"/>
      <path d="M2141.613,2211.94 L2191.341,2461.94 L2049.728,2250 L2000,2000 z" fill="#614353"/>
      <path d="M2353.553,2353.553 L2403.281,2603.553 L2191.341,2461.94 L2141.613,2211.94 z" fill="#7D586B"/>
      <path d="M2191.341,2461.94 L2141.613,2711.94 L2000,2500 L2049.728,2250 z" fill="#7D586B"/>
      <path d="M2498.952,2834.523 L2449.224,3084.523 L2237.284,2942.909 L2287.012,2692.909 z" fill="#B4809B"/>
      <path d="M2675.728,3011.3 L2626,3261.3 L2449.224,3084.523 L2498.952,2834.523 z" fill="#CC92B0"/>
      <path d="M2449.224,3084.523 L2449.223,3334.523 L2237.284,3192.909 L2237.284,2942.909 z" fill="#CC92B0"/>
      <path d="M2626,3261.3 L2626,3511.3 L2449.224,3334.523 L2449.224,3084.523 z" fill="#EAA8CB"/>
    </g>
    <g>
      <path d="M1596.719,1396.447 L1501.048,1165.477 L1712.988,1307.09 L1808.659,1538.06 z" fill="#9B6E86"/>
      <path d="M1712.988,1307.091 L1762.716,1057.091 L1858.387,1288.06 L1808.659,1538.06 z" fill="#9B6E86"/>
      <path d="M1858.386,1788.06 L1808.659,1538.06 L1950.272,1750 L2000,2000 z" fill="#614353"/>
      <path d="M1646.447,1646.447 L1596.719,1396.447 L1808.659,1538.06 L1858.386,1788.06 z" fill="#7D586B"/>
      <path d="M1808.659,1538.06 L1858.387,1288.061 L2000,1500 L1950.272,1750 z" fill="#7D586B"/>
      <path d="M1501.048,1165.477 L1550.776,915.477 L1762.716,1057.091 L1712.988,1307.091 z" fill="#B4809B"/>
      <path d="M1324.271,988.7 L1374,738.7 L1550.776,915.477 L1501.048,1165.477 z" fill="#CC92B0"/>
      <path d="M1550.776,915.477 L1550.776,665.477 L1762.716,807.091 L1762.716,1057.091 z" fill="#CC92B0"/>
      <path d="M1374,738.7 L1374,488.7 L1550.776,665.477 L1550.776,915.477 z" fill="#EAA8CB"/>
    </g>
  </g>
  <g id="Bluearm">
    <g>
      <path d="M1762.716,1057.091 L1904.33,845.151 L2000,1076.121 L1858.387,1288.06 z" fill="#2E619F"/>
      <path d="M2000,1076.121 L2095.671,845.151 L2237.285,1057.091 L2141.614,1288.06 z" fill="#2E619F"/>
      <path d="M1904.33,595.151 L2000,364.181 L2095.671,595.151 L2000,826.121 z" fill="#4B96F1"/>
      <path d="M1904.33,845.151 L1904.33,595.151 L2000,826.121 L2000,1076.121 z" fill="#4185D6"/>
      <path d="M2000,826.121 L2095.671,595.151 L2095.671,845.151 L2000,1076.121 z" fill="#4185D6"/>
      <path d="M1858.387,1288.06 L2000,1076.121 L2141.614,1288.06 L2000,1500 z" fill="#224A7B"/>
      <path d="M1762.716,807.091 L1904.33,595.151 L1904.33,845.151 L1762.716,1057.091 z" fill="#3874BB"/>
      <path d="M2095.671,595.151 L2237.285,807.091 L2237.285,1057.091 L2095.671,845.151 z" fill="#3874BB"/>
    </g>
    <g>
      <path d="M2237.284,2942.909 L2095.671,3154.849 L2000,2923.879 L2141.614,2711.94 z" fill="#2E619F"/>
      <path d="M2000,2923.879 L1904.329,3154.849 L1762.715,2942.909 L1858.386,2711.94 z" fill="#2E619F"/>
      <path d="M2095.671,3404.849 L2000,3635.819 L1904.329,3404.849 L2000,3173.879 z" fill="#4B96F1"/>
      <path d="M2095.671,3154.849 L2095.671,3404.849 L2000,3173.879 L2000,2923.879 z" fill="#4185D6"/>
      <path d="M2000,3173.879 L1904.329,3404.849 L1904.329,3154.849 L2000,2923.879 z" fill="#4185D6"/>
      <path d="M2141.614,2711.94 L2000,2923.879 L1858.386,2711.94 L2000,2500 z" fill="#224A7B"/>
      <path d="M2237.284,3192.909 L2095.671,3404.849 L2095.671,3154.849 L2237.284,2942.909 z" fill="#3874BB"/>
      <path d="M1904.329,3404.849 L1762.716,3192.909 L1762.716,2942.909 L1904.329,3154.849 z" fill="#3874BB"/>
    </g>
    <g>
      <path d="M2498.952,1165.477 L2748.952,1115.749 L2653.282,1346.719 L2403.282,1396.447 z" fill="#2E619F"/>
      <path d="M2653.282,1346.719 L2884.251,1251.048 L2834.523,1501.048 L2603.553,1596.719 z" fill="#2E619F"/>
      <path d="M2925.729,938.972 L3156.699,843.302 L3061.028,1074.271 L2830.059,1169.942 z" fill="#4B96F1"/>
      <path d="M2748.952,1115.749 L2925.729,938.972 L2830.058,1169.942 L2653.282,1346.719 z" fill="#4185D6"/>
      <path d="M2830.058,1169.942 L3061.028,1074.271 L2884.251,1251.048 L2653.281,1346.719 z" fill="#4185D6"/>
      <path d="M2403.282,1396.447 L2653.282,1346.719 L2603.553,1596.719 L2353.553,1646.447 z" fill="#224A7B"/>
      <path d="M2675.729,988.7 L2925.729,938.972 L2748.952,1115.749 L2498.952,1165.477 z" fill="#3874BB"/>
      <path d="M3061.028,1074.271 L3011.3,1324.271 L2834.523,1501.048 L2884.251,1251.048 z" fill="#3874BB"/>
    </g>
    <g>
      <path d="M1501.048,2834.523 L1251.048,2884.251 L1346.719,2653.281 L1596.719,2603.553 z" fill="#2E619F"/>
      <path d="M1346.719,2653.281 L1115.749,2748.952 L1165.477,2498.952 L1396.447,2403.281 z" fill="#2E619F"/>
      <path d="M1074.271,3061.028 L843.301,3156.698 L938.972,2925.729 L1169.942,2830.058 z" fill="#4B96F1"/>
      <path d="M1251.048,2884.251 L1074.271,3061.028 L1169.942,2830.058 L1346.719,2653.281 z" fill="#4185D6"/>
      <path d="M1169.942,2830.058 L938.972,2925.729 L1115.749,2748.952 L1346.719,2653.281 z" fill="#4185D6"/>
      <path d="M1596.719,2603.553 L1346.719,2653.281 L1396.447,2403.281 L1646.447,2353.553 z" fill="#224A7B"/>
      <path d="M1324.271,3011.3 L1074.271,3061.028 L1251.048,2884.251 L1501.048,2834.523 z" fill="#3874BB"/>
      <path d="M938.972,2925.729 L988.7,2675.729 L1165.477,2498.952 L1115.749,2748.952 z" fill="#3874BB"/>
    </g>
    <g>
      <path d="M2942.91,1762.716 L3154.849,1904.329 L2923.88,2000 L2711.94,1858.387 z" fill="#2E619F"/>
      <path d="M2923.88,2000 L3154.849,2095.671 L2942.91,2237.285 L2711.94,2141.614 z" fill="#2E619F"/>
      <path d="M3404.849,1904.329 L3635.819,2000 L3404.849,2095.671 L3173.88,2000 z" fill="#4B96F1"/>
      <path d="M3154.849,1904.329 L3404.849,1904.329 L3173.88,2000 L2923.88,2000 z" fill="#4185D6"/>
      <path d="M3173.88,2000 L3404.849,2095.671 L3154.849,2095.671 L2923.88,2000 z" fill="#4185D6"/>
      <path d="M2711.94,1858.386 L2923.88,2000 L2711.94,2141.614 L2500,2000 z" fill="#224A7B"/>
      <path d="M3192.91,1762.716 L3404.849,1904.329 L3154.849,1904.329 L2942.91,1762.716 z" fill="#3874BB"/>
      <path d="M3404.849,2095.671 L3192.91,2237.285 L2942.91,2237.285 L3154.849,2095.671 z" fill="#3874BB"/>
    </g>
    <g>
      <path d="M1057.091,2237.284 L845.151,2095.671 L1076.121,2000 L1288.06,2141.614 z" fill="#2E619F"/>
      <path d="M1076.121,2000 L845.151,1904.329 L1057.091,1762.715 L1288.061,1858.386 z" fill="#2E619F"/>
      <path d="M595.151,2095.671 L364.181,2000 L595.151,1904.329 L826.121,2000 z" fill="#4B96F1"/>
      <path d="M845.151,2095.671 L595.151,2095.671 L826.121,2000 L1076.121,2000 z" fill="#4185D6"/>
      <path d="M826.121,2000 L595.151,1904.329 L845.151,1904.329 L1076.121,2000 z" fill="#4185D6"/>
      <path d="M1288.06,2141.614 L1076.121,2000 L1288.06,1858.386 L1500,2000 z" fill="#224A7B"/>
      <path d="M807.091,2237.284 L595.151,2095.671 L845.151,2095.671 L1057.091,2237.284 z" fill="#3874BB"/>
      <path d="M595.151,1904.329 L807.091,1762.715 L1057.091,1762.715 L845.151,1904.329 z" fill="#3874BB"/>
    </g>
    <g>
      <path d="M2834.523,2498.952 L2884.251,2748.952 L2653.281,2653.282 L2603.554,2403.282 z" fill="#2E619F"/>
      <path d="M2653.281,2653.282 L2748.952,2884.251 L2498.952,2834.523 L2403.282,2603.553 z" fill="#2E619F"/>
      <path d="M3061.028,2925.729 L3156.699,3156.699 L2925.729,3061.028 L2830.058,2830.059 z" fill="#4B96F1"/>
      <path d="M2884.251,2748.952 L3061.028,2925.729 L2830.058,2830.058 L2653.281,2653.282 z" fill="#4185D6"/>
      <path d="M2830.058,2830.058 L2925.729,3061.028 L2748.952,2884.251 L2653.281,2653.282 z" fill="#4185D6"/>
      <path d="M2603.554,2403.282 L2653.281,2653.282 L2403.282,2603.553 L2353.554,2353.553 z" fill="#224A7B"/>
      <path d="M3011.3,2675.729 L3061.028,2925.729 L2884.251,2748.952 L2834.523,2498.952 z" fill="#3874BB"/>
      <path d="M2925.729,3061.028 L2675.729,3011.3 L2498.952,2834.523 L2748.952,2884.251 z" fill="#3874BB"/>
    </g>
    <g>
      <path d="M1165.477,1501.048 L1115.749,1251.048 L1346.719,1346.718 L1396.447,1596.718 z" fill="#2E619F"/>
      <path d="M1346.719,1346.719 L1251.048,1115.749 L1501.048,1165.477 L1596.719,1396.447 z" fill="#2E619F"/>
      <path d="M938.973,1074.271 L843.302,843.301 L1074.271,938.972 L1169.942,1169.942 z" fill="#4B96F1"/>
      <path d="M1115.749,1251.048 L938.973,1074.271 L1169.942,1169.942 L1346.719,1346.719 z" fill="#4185D6"/>
      <path d="M1169.942,1169.942 L1074.272,938.972 L1251.048,1115.749 L1346.719,1346.718 z" fill="#4185D6"/>
      <path d="M1396.447,1596.718 L1346.719,1346.718 L1596.719,1396.447 L1646.447,1646.447 z" fill="#224A7B"/>
      <path d="M988.701,1324.271 L938.973,1074.271 L1115.749,1251.048 L1165.477,1501.048 z" fill="#3874BB"/>
      <path d="M1074.271,938.972 L1324.271,988.7 L1501.048,1165.477 L1251.048,1115.749 z" fill="#3874BB"/>
    </g>
  </g>
</svg>
