<?xml version="1.0" encoding="UTF-8"?>
<!DOCTYPE svg PUBLIC "-//W3C//DTD SVG 1.1//EN" "http://www.w3.org/Graphics/SVG/1.1/DTD/svg11.dtd">
<svg version="1.1" xmlns="http://www.w3.org/2000/svg" xmlns:xlink="http://www.w3.org/1999/xlink" x="0" y="0" width="7000" height="4000" viewBox="0, 0, 7000, 4000">
  <g id="Layer_1">
    <g>
      <g>
        <path d="M2792.906,1550.718 L2832.501,1534.317 L2792.906,1517.916 L2753.31,1534.317 L2792.906,1550.718 z" fill="#5BF2FE"/>
        <path d="M2792.906,1517.916 L2814.774,1465.122 L2761.98,1486.99 L2740.112,1539.784 L2792.906,1517.916 z" fill="#58EBF6"/>
        <path d="M2703.665,1486.99 L2732.823,1557.382 L2761.98,1486.99 L2732.823,1416.598 L2703.665,1486.99 z" fill="#56E6F1"/>
        <path d="M2648.686,1541.969 L2742.542,1580.846 L2703.665,1486.99 L2609.809,1448.113 L2648.686,1541.969 z" fill="#52DDE8"/>
        <path d="M2648.686,1645.64 L2773.827,1593.804 L2648.686,1541.969 L2523.545,1593.804 L2648.686,1645.64 z" fill="#50D7E2"/>
        <path d="M2746.427,1743.381 L2815.541,1576.526 L2648.686,1645.64 L2579.572,1812.495 L2746.427,1743.381 z" fill="#4CCED9"/>
        <path d="M2930.73,1743.381 L2838.578,1520.908 L2746.427,1743.381 L2838.578,1965.854 L2930.73,1743.381 z" fill="#48C4CE"/>
        <path d="M2930.73,1743.381 L3227.361,1866.249 L3104.492,1569.619 L2807.861,1446.75 L2930.73,1743.381 z" fill="#43B9C2"/>
        <path d="M3104.492,1569.619 L3500,1405.794 L3104.492,1241.969 L2708.984,1405.794 L3104.492,1569.619 z" fill="#3EADB5"/>
        <path d="M3104.492,1241.969 L3322.925,714.625 L2795.581,933.058 L2577.148,1460.402 L3104.492,1241.969 z" fill="#39A0A8"/>
        <path d="M2795.581,933.058 L2504.337,229.933 L2213.094,933.058 L2504.337,1636.183 L2795.581,933.058 z" fill="#328F96"/>
        <path d="M1663.919,1482.233 L2601.419,1870.558 L2213.094,933.058 L1275.593,544.733 L1663.919,1482.233 z" fill="#2C7F86"/>
      </g>
      <g>
        <path d="M2792.906,2449.282 L2832.501,2465.683 L2792.906,2482.084 L2753.31,2465.683 L2792.906,2449.282 z" fill="#5BF2FE"/>
        <path d="M2792.906,2482.084 L2814.774,2534.878 L2761.98,2513.01 L2740.112,2460.216 L2792.906,2482.084 z" fill="#58EBF6"/>
        <path d="M2703.665,2513.01 L2732.823,2442.618 L2761.98,2513.01 L2732.823,2583.402 L2703.665,2513.01 z" fill="#56E6F1"/>
        <path d="M2648.686,2458.031 L2742.542,2419.154 L2703.665,2513.01 L2609.809,2551.886 L2648.686,2458.031 z" fill="#52DDE8"/>
        <path d="M2648.686,2354.36 L2773.827,2406.196 L2648.686,2458.031 L2523.545,2406.196 L2648.686,2354.36 z" fill="#50D7E2"/>
        <path d="M2746.427,2256.619 L2815.541,2423.474 L2648.686,2354.36 L2579.572,2187.505 L2746.427,2256.619 z" fill="#4CCED9"/>
        <path d="M2930.73,2256.619 L2838.578,2479.092 L2746.427,2256.619 L2838.578,2034.146 L2930.73,2256.619 z" fill="#48C4CE"/>
        <path d="M2930.73,2256.619 L3227.361,2133.75 L3104.492,2430.381 L2807.861,2553.25 L2930.73,2256.619 z" fill="#43B9C2"/>
        <path d="M3104.492,2430.381 L3500,2594.206 L3104.492,2758.031 L2708.984,2594.206 L3104.492,2430.381 z" fill="#3EADB5"/>
        <path d="M3104.492,2758.031 L3322.925,3285.375 L2795.581,3066.942 L2577.148,2539.598 L3104.492,2758.031 z" fill="#39A0A8"/>
        <path d="M2795.581,3066.942 L2504.337,3770.067 L2213.094,3066.942 L2504.337,2363.817 L2795.581,3066.942 z" fill="#328F96"/>
        <path d="M1663.919,2517.767 L2601.418,2129.442 L2213.094,3066.942 L1275.593,3455.267 L1663.919,2517.767 z" fill="#2C7F86"/>
      </g>
      <path d="M1663.919,1482.233 L413.919,2000 L1663.919,2517.767 L2913.919,2000 L1663.919,1482.233 z" fill="#256F75"/>
    </g>
    <g>
      <g>
        <path d="M4207.094,1550.718 L4167.499,1534.317 L4207.094,1517.916 L4246.689,1534.317 L4207.094,1550.718 z" fill="#5BF2FE"/>
        <path d="M4207.094,1517.916 L4185.226,1465.122 L4238.02,1486.99 L4259.888,1539.784 L4207.094,1517.916 z" fill="#58EBF6"/>
        <path d="M4296.334,1486.99 L4267.177,1557.382 L4238.02,1486.99 L4267.177,1416.598 L4296.334,1486.99 z" fill="#56E6F1"/>
        <path d="M4351.314,1541.969 L4257.458,1580.846 L4296.334,1486.99 L4390.19,1448.114 L4351.314,1541.969 z" fill="#52DDE8"/>
        <path d="M4351.314,1645.64 L4226.173,1593.805 L4351.314,1541.969 L4476.455,1593.805 L4351.314,1645.64 z" fill="#50D7E2"/>
        <path d="M4253.573,1743.381 L4184.459,1576.526 L4351.314,1645.64 L4420.428,1812.495 L4253.573,1743.381 z" fill="#4CCED9"/>
        <path d="M4069.27,1743.381 L4161.421,1520.908 L4253.573,1743.381 L4161.421,1965.854 L4069.27,1743.381 z" fill="#48C4CE"/>
        <path d="M4069.27,1743.381 L3772.639,1866.25 L3895.508,1569.619 L4192.139,1446.75 L4069.27,1743.381 z" fill="#43B9C2"/>
        <path d="M3895.508,1569.619 L3500,1405.794 L3895.508,1241.969 L4291.016,1405.794 L3895.508,1569.619 z" fill="#3EADB5"/>
        <path d="M3895.508,1241.969 L3677.075,714.626 L4204.418,933.058 L4422.852,1460.402 L3895.508,1241.969 z" fill="#39A0A8"/>
        <path d="M4204.418,933.058 L4495.662,229.933 L4786.906,933.058 L4495.662,1636.183 L4204.418,933.058 z" fill="#328F96"/>
        <path d="M5336.081,1482.233 L4398.581,1870.558 L4786.906,933.058 L5724.406,544.733 L5336.081,1482.233 z" fill="#2C7F86"/>
      </g>
      <g>
        <path d="M4207.094,2449.282 L4167.499,2465.683 L4207.094,2482.084 L4246.689,2465.683 L4207.094,2449.282 z" fill="#5BF2FE"/>
        <path d="M4207.094,2482.084 L4185.226,2534.878 L4238.02,2513.01 L4259.888,2460.216 L4207.094,2482.084 z" fill="#58EBF6"/>
        <path d="M4296.334,2513.01 L4267.177,2442.618 L4238.02,2513.01 L4267.177,2583.402 L4296.334,2513.01 z" fill="#56E6F1"/>
        <path d="M4351.314,2458.031 L4257.458,2419.154 L4296.334,2513.01 L4390.19,2551.886 L4351.314,2458.031 z" fill="#52DDE8"/>
        <path d="M4351.314,2354.36 L4226.173,2406.196 L4351.314,2458.031 L4476.455,2406.196 L4351.314,2354.36 z" fill="#50D7E2"/>
        <path d="M4253.573,2256.619 L4184.459,2423.474 L4351.314,2354.36 L4420.428,2187.505 L4253.573,2256.619 z" fill="#4CCED9"/>
        <path d="M4069.27,2256.619 L4161.421,2479.092 L4253.573,2256.619 L4161.421,2034.146 L4069.27,2256.619 z" fill="#48C4CE"/>
        <path d="M4069.27,2256.619 L3772.639,2133.75 L3895.508,2430.381 L4192.139,2553.25 L4069.27,2256.619 z" fill="#43B9C2"/>
        <path d="M3895.508,2430.381 L3500,2594.206 L3895.508,2758.031 L4291.015,2594.206 L3895.508,2430.381 z" fill="#3EADB5"/>
        <path d="M3895.508,2758.031 L3677.075,3285.375 L4204.418,3066.942 L4422.852,2539.598 L3895.508,2758.031 z" fill="#39A0A8"/>
        <path d="M4204.418,3066.942 L4495.663,3770.067 L4786.906,3066.942 L4495.663,2363.817 L4204.418,3066.942 z" fill="#328F96"/>
        <path d="M5336.081,2517.767 L4398.581,2129.442 L4786.906,3066.942 L5724.406,3455.267 L5336.081,2517.767 z" fill="#2C7F86"/>
      </g>
      <path d="M5336.081,1482.24 L6586.081,2000.006 L5336.082,2517.773 L4086.081,2000.006 L5336.081,1482.24 z" fill="#256F75"/>
    </g>
  </g>
</svg>
