<?xml version="1.0" encoding="UTF-8"?>
<!DOCTYPE svg PUBLIC "-//W3C//DTD SVG 1.1//EN" "http://www.w3.org/Graphics/SVG/1.1/DTD/svg11.dtd">
<svg version="1.1" xmlns="http://www.w3.org/2000/svg" xmlns:xlink="http://www.w3.org/1999/xlink" x="0" y="0" width="4000" height="4000" viewBox="0, 0, 4000, 4000">
  <g id="Layer_8" display="none">
    <path d="M3575.181,3584.26 L3818.913,3528.63" fill-opacity="0" stroke="#000000" stroke-width="2" stroke-linejoin="bevel"/>
    <path d="M3484.793,3181.118 L3593.265,3406.36" fill-opacity="0" stroke="#000000" stroke-width="2" stroke-linejoin="bevel"/>
    <path d="M3761.777,3181.118 L3653.306,3406.36" fill-opacity="0" stroke="#000000" stroke-width="2" stroke-linejoin="bevel"/>
    <path d="M2656.634,3362.971 L2852.092,3518.844" fill-opacity="0" stroke="#000000" stroke-width="2" stroke-linejoin="bevel"/>
    <path d="M3665.541,3244.061 L3909.274,3299.206" fill-opacity="0" stroke="#000000" stroke-width="2" stroke-linejoin="bevel"/>
    <path d="M3539.029,3763.944 L3539.029,3513.945" fill-opacity="0" stroke="#000000" stroke-width="2" stroke-linejoin="bevel"/>
    <path d="M3653.867,3078.113 L3849.325,2922.242" fill-opacity="0" stroke="#000000" stroke-width="2" stroke-linejoin="bevel"/>
  </g>
  <g id="blue">
    <path d="M1891.529,1774.758 L1999.999,1549.516 L2108.471,1774.758 L2000.001,2000 z" fill="#5C6E99"/>
    <path d="M2108.471,1774.758 L2352.202,1719.128 L2243.732,1944.37 L2000.001,2000 z" fill="#5C6E99"/>
    <path d="M2243.732,1944.37 L2439.189,2100.242 L2195.458,2155.873 L2000.001,2000 z" fill="#5C6E99"/>
    <path d="M2000,2000.001 L2195.458,2155.873 L2195.457,2405.873 L2000,2250 z" fill="#5C6E99"/>
    <path d="M1891.53,1774.759 L1647.799,1719.129 L1756.269,1944.371 L2000,2000.001 z" fill="#5C6E99"/>
    <path d="M1756.269,1944.371 L1560.812,2100.243 L1804.543,2155.874 L2000,2000.001 z" fill="#5C6E99"/>
    <path d="M2000.001,2000.002 L1804.543,2155.874 L1804.544,2405.874 L2000.001,2250.001 z" fill="#5C6E99"/>
    <path d="M2439.189,2100.242 L2439.188,2350.242 L2195.457,2405.873 L2195.458,2155.873 z" fill="#4C5B7E"/>
    <path d="M2352.202,1719.128 L2547.66,1875 L2439.189,2100.242 L2243.732,1944.37 z" fill="#4C5B7E"/>
    <path d="M2243.73,1493.885 L2352.202,1719.128 L2108.471,1774.758 L1999.999,1549.516 z" fill="#4C5B7E"/>
    <path d="M1560.812,2100.243 L1560.813,2350.243 L1804.544,2405.873 L1804.543,2155.874 z" fill="#4C5B7E"/>
    <path d="M1647.799,1719.129 L1452.341,1875.001 L1560.812,2100.243 L1756.269,1944.371 z" fill="#4C5B7E"/>
    <path d="M1756.271,1493.886 L1647.799,1719.129 L1891.53,1774.759 L2000.002,1549.516 z" fill="#4C5B7E"/>
    <path d="M2000,2250 L2195.457,2405.873 L2000.002,2561.746 L1804.544,2405.873 z" fill="#4C5B7E"/>
  </g>
  <g id="purple">
    <g id="purple7">
      <path d="M1365.355,1493.887 L1121.622,1438.742 L926.164,1282.87 L1169.897,1338.015 z" fill="#7D2BA9"/>
      <path d="M1365.355,1493.887 L1169.897,1338.015 L1061.426,1112.773 L1256.883,1268.645 z" fill="#7D2BA9"/>
      <path d="M1647.802,1719.128 L1756.274,1493.885 L1560.816,1649.758 L1452.344,1875 z" fill="#45185D"/>
      <path d="M1256.886,956.899 L1013.153,901.754 L817.695,1057.627 L1061.428,1112.772 z" fill="#9734CD"/>
      <path d="M926.167,1282.869 L817.695,1057.627 L709.224,1282.869 L817.695,1508.111 z" fill="#9734CD"/>
      <path d="M1452.348,1113.256 L1256.89,957.382 L1061.433,1113.254 L1256.89,1269.129 z" fill="#7D2BA9"/>
      <path d="M1121.629,1439.224 L926.171,1283.352 L817.7,1508.594 L1013.162,1663.982 z" fill="#7D2BA9"/>
      <path d="M1121.62,1438.742 L1365.353,1493.886 L1256.881,1719.129 L1013.153,1663.5 z" fill="#6C2592"/>
      <path d="M1452.339,1112.773 L1560.813,1338.015 L1365.353,1493.887 L1256.881,1268.646 z" fill="#6C2592"/>
      <path d="M573.96,1002.481 L817.693,1057.626 L709.221,1282.868 L465.492,1227.239 z" fill="#A63AE1"/>
      <path d="M904.676,676.512 L1013.15,901.753 L817.69,1057.625 L709.219,832.385 z" fill="#A63AE1"/>
      <path d="M1756.271,1493.886 L1560.813,1338.015 L1365.355,1493.887 L1560.813,1649.759 z" fill="#541D72"/>
      <path d="M1560.813,1649.759 L1365.355,1493.887 L1256.883,1719.13 L1452.341,1875.001 z" fill="#541D72"/>
      <path d="M1169.897,1338.015 L926.164,1282.87 L817.693,1057.628 L1061.426,1112.773 z" fill="#8C30BD"/>
      <path d="M817.693,1057.628 L573.96,1002.483 L465.488,777.241 L709.221,832.385 z" fill="#B73FF8"/>
    </g>
    <g id="purple6">
      <path d="M1208.609,2180.146 L964.878,2235.776 L721.145,2180.631 L964.876,2125.001 z" fill="#7D2BA9"/>
      <path d="M1208.609,2180.146 L1013.151,2336.018 L769.42,2391.647 L964.878,2235.776 z" fill="#7D2BA9"/>
      <path d="M721.149,1929.661 L525.691,2085.533 L525.69,2336.504 L721.147,2180.632 z" fill="#9734CD"/>
      <path d="M769.423,2391.649 L525.69,2336.504 L634.161,2560.775 L877.892,2616.405 z" fill="#9734CD"/>
      <path d="M964.886,1874.999 L721.153,1930.143 L721.152,2181.115 L964.886,2124.998 z" fill="#7D2BA9"/>
      <path d="M1013.158,2336.501 L769.427,2392.131 L877.897,2616.887 L1121.63,2561.742 z" fill="#7D2BA9"/>
      <path d="M1208.607,2180.147 L1317.081,2405.388 L1121.621,2561.26 L1013.149,2336.02 z" fill="#6C2592"/>
      <path d="M964.878,1874.516 L964.878,2124.515 L1208.609,2180.146 L1208.608,1930.146 z" fill="#6C2592"/>
      <path d="M525.687,2336.503 L634.161,2561.744 L438.701,2717.616 L330.229,2492.375 z" fill="#A63AE1"/>
      <path d="M281.957,2029.902 L281.957,2279.901 L525.689,2335.532 L525.688,2085.532 z" fill="#A63AE1"/>
      <path d="M1452.342,2125.001 L1452.341,1875.001 L1208.608,1930.146 L1208.609,2180.146 z" fill="#541D72"/>
      <path d="M1560.813,2350.243 L1452.342,2125.001 L1208.609,2180.146 L1317.08,2405.388 z" fill="#541D72"/>
      <path d="M964.878,2235.776 L769.42,2391.648 L525.687,2336.503 L721.145,2180.631 z" fill="#8C30BD"/>
      <path d="M525.689,2335.532 L330.232,2491.404 L86.499,2436.259 L281.956,2280.387 z" fill="#B73FF8"/>
      <path d="M1560.815,2100.242 L1452.344,1875 L1452.345,2125 L1560.816,2350.242 z" fill="#45185D"/>
    </g>
    <g id="purple5">
      <path d="M1539.325,2956.601 L1539.325,3206.601 L1647.797,2981.358 L1647.797,2731.359 z" fill="#7D2BA9"/>
      <path d="M1452.337,2887.23 L1343.865,3112.472 L1539.325,2956.601 L1647.795,2731.358 z" fill="#7D2BA9"/>
      <path d="M2000.002,2561.746 L1804.547,2405.873 L1560.816,2350.242 L1756.271,2506.116 z" fill="#45185D"/>
      <path d="M1783.061,3262.23 L1539.33,3206.6 L1343.872,3362.472 L1587.603,3418.103 z" fill="#9734CD"/>
      <path d="M1343.87,3112.472 L1131.69,2956.6 L1131.69,3206.6 L1343.872,3362.472 z" fill="#9734CD"/>
      <path d="M1240.166,2731.841 L1131.694,2957.083 L1343.874,3112.955 L1452.346,2887.712 z" fill="#7D2BA9"/>
      <path d="M1891.536,3037.471 L1647.806,2981.841 L1539.334,3207.083 L1783.065,3262.713 z" fill="#7D2BA9"/>
      <path d="M1647.797,2731.359 L1647.797,2981.358 L1891.529,3036.989 L1891.528,2786.989 z" fill="#6C2592"/>
      <path d="M1240.157,2731.358 L1452.339,2887.232 L1647.797,2731.359 L1452.342,2575.486 z" fill="#6C2592"/>
      <path d="M1343.869,3362.471 L1343.869,3612.47 L1587.601,3668.101 L1587.6,3418.101 z" fill="#A63AE1"/>
      <path d="M936.231,3362.471 L1148.411,3518.344 L1343.869,3362.471 L1131.687,3206.599 z" fill="#A63AE1"/>
      <path d="M1647.796,2731.359 L1756.268,2506.117 L1560.813,2350.243 L1452.341,2575.485 z" fill="#541D72"/>
      <path d="M1891.527,2786.989 L1999.999,2561.747 L1756.268,2506.117 L1647.796,2731.359 z" fill="#541D72"/>
      <path d="M1539.325,3206.601 L1343.868,3362.472 L1343.865,3112.472 L1539.325,2956.601 z" fill="#8C30BD"/>
      <path d="M1343.869,3612.47 L1148.411,3768.342 L1148.409,3518.342 L1343.869,3362.471 z" fill="#B73FF8"/>
    </g>
    <g id="purple4">
      <path d="M2460.677,2956.6 L2460.677,3206.599 L2352.205,2981.357 L2352.205,2731.358 z" fill="#7D2BA9"/>
      <path d="M2547.665,2887.229 L2656.136,3112.471 L2460.677,2956.6 L2352.207,2731.357 z" fill="#7D2BA9"/>
      <path d="M2000.002,2561.746 L2195.457,2405.873 L2439.188,2350.242 L2243.733,2506.116 z" fill="#45185D"/>
      <path d="M2216.946,3262.229 L2460.677,3206.599 L2656.134,3362.471 L2412.403,3418.102 z" fill="#9734CD"/>
      <path d="M2656.136,3112.471 L2868.316,2956.599 L2868.316,3206.599 L2656.134,3362.471 z" fill="#9734CD"/>
      <path d="M2759.844,2731.357 L2868.316,2956.599 L2656.136,3112.471 L2547.665,2887.229 z" fill="#7D2BA9"/>
      <path d="M2108.474,3036.987 L2352.205,2981.357 L2460.677,3206.599 L2216.946,3262.229 z" fill="#7D2BA9"/>
      <path d="M2352.205,2731.358 L2352.205,2981.357 L2108.473,3036.988 L2108.474,2786.988 z" fill="#6C2592"/>
      <path d="M2759.844,2731.357 L2547.662,2887.231 L2352.205,2731.358 L2547.659,2575.485 z" fill="#6C2592"/>
      <path d="M2656.134,3362.471 L2656.134,3612.47 L2412.402,3668.101 L2412.403,3418.101 z" fill="#A63AE1"/>
      <path d="M3063.772,3362.471 L2851.592,3518.344 L2656.134,3362.471 L2868.316,3206.599 z" fill="#A63AE1"/>
      <path d="M2352.205,2731.358 L2243.733,2506.116 L2439.188,2350.242 L2547.659,2575.485 z" fill="#541D72"/>
      <path d="M2108.474,2786.988 L2000.002,2561.746 L2243.733,2506.116 L2352.205,2731.358 z" fill="#541D72"/>
      <path d="M2460.677,3206.6 L2656.134,3362.471 L2656.136,3112.471 L2460.677,2956.6 z" fill="#8C30BD"/>
      <path d="M2656.134,3612.47 L2851.592,3768.342 L2851.594,3518.342 L2656.134,3362.471 z" fill="#B73FF8"/>
    </g>
    <g id="purple3">
      <path d="M2791.395,2180.146 L3035.126,2235.776 L3278.859,2180.631 L3035.128,2125.001 z" fill="#7D2BA9"/>
      <path d="M2791.395,2180.146 L2986.852,2336.018 L3230.583,2391.648 L3035.126,2235.776 z" fill="#7D2BA9"/>
      <path d="M2439.189,2100.242 L2547.66,1875 L2547.659,2125 L2439.188,2350.242 z" fill="#45185D"/>
      <path d="M3278.857,1929.66 L3474.315,2085.532 L3474.316,2336.503 L3278.859,2180.631 z" fill="#9734CD"/>
      <path d="M3230.583,2391.648 L3474.316,2336.503 L3365.845,2560.774 L3122.114,2616.404 z" fill="#9734CD"/>
      <path d="M3035.124,1874.515 L3278.857,1929.66 L3278.859,2180.631 L3035.124,2124.514 z" fill="#7D2BA9"/>
      <path d="M2986.852,2336.018 L3230.583,2391.648 L3122.114,2616.404 L2878.381,2561.259 z" fill="#7D2BA9"/>
      <path d="M2791.395,2180.146 L2682.921,2405.387 L2878.381,2561.259 L2986.853,2336.019 z" fill="#6C2592"/>
      <path d="M3035.124,1874.515 L3035.124,2124.514 L2791.392,2180.145 L2791.393,1930.145 z" fill="#6C2592"/>
      <path d="M3474.316,2336.503 L3365.842,2561.744 L3561.302,2717.616 L3669.774,2492.375 z" fill="#A63AE1"/>
      <path d="M3718.046,2029.902 L3718.046,2279.901 L3474.314,2335.532 L3474.315,2085.532 z" fill="#A63AE1"/>
      <path d="M2547.659,2125 L2547.66,1875 L2791.393,1930.145 L2791.392,2180.145 z" fill="#541D72"/>
      <path d="M2439.188,2350.242 L2547.659,2125 L2791.392,2180.145 L2682.921,2405.387 z" fill="#541D72"/>
      <path d="M3035.126,2235.776 L3230.583,2391.648 L3474.316,2336.503 L3278.859,2180.631 z" fill="#8C30BD"/>
      <path d="M3474.314,2335.532 L3669.771,2491.404 L3913.504,2436.259 L3718.047,2280.387 z" fill="#B73FF8"/>
    </g>
    <g id="purple2">
      <path d="M2634.648,1493.885 L2878.381,1438.741 L3073.839,1282.868 L2830.106,1338.013 z" fill="#7D2BA9"/>
      <path d="M2634.648,1493.885 L2830.106,1338.013 L2938.578,1112.771 L2743.12,1268.643 z" fill="#7D2BA9"/>
      <path d="M2352.202,1719.128 L2243.73,1493.885 L2439.188,1649.758 L2547.66,1875 z" fill="#45185D"/>
      <path d="M2743.12,956.898 L2986.853,901.753 L3182.311,1057.626 L2938.578,1112.771 z" fill="#9734CD"/>
      <path d="M3073.839,1282.868 L3182.311,1057.626 L3290.782,1282.868 L3182.311,1508.11 z" fill="#9734CD"/>
      <path d="M2547.662,1112.772 L2743.12,956.898 L2938.578,1112.771 L2743.12,1268.645 z" fill="#7D2BA9"/>
      <path d="M2878.381,1438.741 L3073.839,1282.868 L3182.311,1508.11 L2986.849,1663.499 z" fill="#7D2BA9"/>
      <path d="M2878.381,1438.741 L2634.648,1493.885 L2743.12,1719.128 L2986.849,1663.499 z" fill="#6C2592"/>
      <path d="M2547.662,1112.772 L2439.188,1338.014 L2634.648,1493.885 L2743.12,1268.645 z" fill="#6C2592"/>
      <path d="M3426.044,1002.481 L3182.311,1057.626 L3290.782,1282.868 L3534.511,1227.239 z" fill="#A63AE1"/>
      <path d="M3095.327,676.512 L2986.853,901.753 L3182.313,1057.625 L3290.785,832.385 z" fill="#A63AE1"/>
      <path d="M2243.73,1493.885 L2439.188,1338.014 L2634.646,1493.886 L2439.188,1649.758 z" fill="#541D72"/>
      <path d="M2439.188,1649.758 L2634.646,1493.886 L2743.118,1719.129 L2547.66,1875 z" fill="#541D72"/>
      <path d="M2830.106,1338.013 L3073.839,1282.868 L3182.311,1057.626 L2938.578,1112.771 z" fill="#8C30BD"/>
      <path d="M3182.313,1057.625 L3426.046,1002.48 L3534.518,777.238 L3290.785,832.383 z" fill="#B73FF8"/>
    </g>
    <g id="purple1">
      <path d="M2000.002,1188.257 L2108.476,963.016 L2108.476,713.016 L2000.004,938.259 z" fill="#7D2BA9"/>
      <path d="M2000.004,1188.258 L1891.53,963.017 L1891.53,713.017 L2000.002,938.26 z" fill="#7D2BA9"/>
      <path d="M1756.271,1493.886 L2000.002,1438.256 L2243.73,1493.885 L2000.002,1549.516 z" fill="#45185D"/>
      <path d="M2000.002,487.775 L2243.735,542.92 L2352.209,768.161 L2108.476,713.016 z" fill="#9734CD"/>
      <path d="M2000.005,487.776 L1756.271,542.921 L1647.797,768.162 L1891.53,713.017 z" fill="#9734CD"/>
      <path d="M2108.476,713.016 L2352.209,768.161 L2352.202,1018.644 L2108.476,963.016 z" fill="#7D2BA9"/>
      <path d="M1891.534,713.5 L1647.801,768.645 L1647.808,1019.128 L1891.534,963.499 z" fill="#7D2BA9"/>
      <path d="M2108.469,963.499 L2352.202,1018.644 L2243.73,1243.886 L2000.002,1188.257 z" fill="#6C2592"/>
      <path d="M1891.534,963.499 L1647.801,1018.644 L1756.273,1243.886 L2000.002,1188.257 z" fill="#6C2592"/>
      <path d="M2108.469,263.017 L2352.202,318.162 L2243.73,543.404 L2000.002,487.775 z" fill="#A63AE1"/>
      <path d="M1891.534,263.017 L1647.801,318.162 L1756.273,543.404 L2000.002,487.775 z" fill="#A63AE1"/>
      <path d="M2000.002,1188.257 L2243.73,1243.886 L2243.73,1493.885 L2000.002,1438.256 z" fill="#541D72"/>
      <path d="M2000.002,1188.257 L1756.273,1243.886 L1756.273,1493.885 L2000.002,1438.256 z" fill="#541D72"/>
      <path d="M1891.53,713.017 L2000.004,938.259 L2108.476,713.016 L2000.002,487.775 z" fill="#8C30BD"/>
      <path d="M1891.527,262.534 L2000.002,487.775 L2108.473,262.533 L1999.999,37.291 z" fill="#B73FF8"/>
    </g>
  </g>
  <g id="teal">
    <g id="teal7">
      <path d="M1647.801,1268.643 L1647.801,1018.644 L1756.273,1243.886 L1756.273,1493.885 z" fill="#2C5C62"/>
      <path d="M1560.813,1338.015 L1452.341,1112.772 L1647.801,1268.643 L1756.271,1493.886 z" fill="#2C5C62"/>
      <path d="M1647.801,1018.644 L1452.343,862.772 L1452.341,1112.772 L1647.801,1268.643 z" fill="#356F76"/>
      <path d="M1647.808,1019.128 L1539.333,793.886 L1539.333,543.887 L1647.805,769.129 z" fill="#428A93"/>
      <path d="M1452.348,1113.256 L1256.89,957.383 L1148.419,732.141 L1343.876,888.014 z" fill="#428A93"/>
      <path d="M1647.808,1019.127 L1452.35,863.255 L1343.878,638.013 L1539.336,793.885 z" fill="#428A93"/>
      <path d="M1452.348,1113.256 L1343.874,888.015 L1343.874,638.015 L1452.345,863.258 z" fill="#428A93"/>
      <path d="M1256.89,957.383 L1013.157,902.239 L904.686,676.997 L1148.419,732.141 z" fill="#54B0BC"/>
      <path d="M1756.28,543.888 L1647.805,769.129 L1539.333,543.887 L1647.808,318.646 z" fill="#54B0BC"/>
      <path d="M1148.416,732.143 L1343.874,888.015 L1343.876,638.014 L1148.416,482.144 z" fill="#54B0BC"/>
      <path d="M1343.879,638.014 L1539.336,793.885 L1539.338,543.885 L1343.879,388.014 z" fill="#54B0BC"/>
    </g>
    <g id="teal6">
      <path d="M1452.343,1875 L1208.612,1819.37 L964.879,1874.515 L1208.61,1930.145 z" fill="#2C5C62"/>
      <path d="M1452.343,1875 L1256.886,1719.129 L1013.155,1663.499 L1208.612,1819.37 z" fill="#2C5C62"/>
      <path d="M1208.612,1819.37 L1013.155,1663.499 L769.422,1718.643 L964.879,1874.515 z" fill="#356F76"/>
      <path d="M1013.162,1663.982 L769.429,1608.837 L573.971,1452.965 L817.704,1508.109 z" fill="#428A93"/>
      <path d="M1013.162,1663.982 L769.431,1719.612 L525.698,1664.467 L769.429,1608.837 z" fill="#428A93"/>
      <path d="M964.886,1874.999 L721.153,1819.854 L525.695,1663.981 L769.428,1719.126 z" fill="#428A93"/>
      <path d="M964.886,1874.999 L721.155,1930.629 L477.422,1875.484 L721.153,1819.854 z" fill="#428A93"/>
      <path d="M721.155,1930.629 L525.698,2086.5 L281.965,2031.355 L477.422,1875.484 z" fill="#54B0BC"/>
      <path d="M817.704,1508.109 L573.971,1452.965 L465.499,1227.723 L709.232,1282.867 z" fill="#54B0BC"/>
      <path d="M281.963,1719.127 L477.42,1874.998 L721.153,1819.854 L525.696,1663.982 z" fill="#54B0BC"/>
      <path d="M330.238,1508.111 L525.696,1663.982 L769.429,1608.837 L573.971,1452.966 z" fill="#54B0BC"/>
    </g>
    <g id="teal5">
      <path d="M1560.816,2350.242 L1317.083,2405.387 L1121.625,2561.26 L1365.358,2506.115 z" fill="#2C5C62"/>
      <path d="M1560.816,2350.242 L1365.358,2506.115 L1240.157,2731.358 L1452.344,2575.485 z" fill="#2C5C62"/>
      <path d="M1365.358,2506.115 L1121.625,2561.26 L1013.153,2786.502 L1240.157,2731.358 z" fill="#356F76"/>
      <path d="M1121.632,2561.743 L926.174,2717.615 L682.443,2773.245 L877.901,2617.373 z" fill="#428A93"/>
      <path d="M1044.708,2887.712 L936.236,3112.955 L1131.696,2957.084 L1240.166,2731.841 z" fill="#428A93"/>
      <path d="M926.174,2717.615 L817.702,2942.857 L1013.162,2786.986 L1121.632,2561.743 z" fill="#428A93"/>
      <path d="M1240.166,2731.841 L1044.708,2887.712 L817.702,2942.857 L1013.16,2786.986 z" fill="#428A93"/>
      <path d="M1131.696,3207.083 L936.239,3362.955 L936.236,3112.955 L1131.696,2957.084 z" fill="#54B0BC"/>
      <path d="M877.901,2617.374 L682.443,2773.245 L438.71,2718.1 L634.168,2562.229 z" fill="#54B0BC"/>
      <path d="M573.969,2998.002 L817.702,2942.857 L926.174,2717.615 L682.441,2772.76 z" fill="#54B0BC"/>
      <path d="M692.503,3168.099 L936.236,3112.954 L1044.708,2887.712 L800.975,2942.857 z" fill="#54B0BC"/>
    </g>
    <g id="teal4">
      <path d="M1999.999,2561.747 L2108.474,2786.988 L2108.474,3036.988 L2000.002,2811.745 z" fill="#2C5C62"/>
      <path d="M2000.002,2561.746 L1891.527,2786.987 L1891.527,3036.987 L1999.999,2811.744 z" fill="#2C5C62"/>
      <path d="M1891.527,3036.986 L2000.002,2811.745 L2108.474,3036.987 L1999.999,3262.229 z" fill="#356F76"/>
      <path d="M2000.002,3262.23 L2000.002,3512.229 L2108.474,3286.987 L2108.474,3036.988 z" fill="#428A93"/>
      <path d="M2216.946,3262.229 L2216.946,3512.229 L2108.474,3286.987 L2108.474,3036.987 z" fill="#428A93"/>
      <path d="M2000.008,3262.713 L2000.008,3512.712 L1891.536,3287.47 L1891.536,3037.471 z" fill="#428A93"/>
      <path d="M1783.065,3262.713 L1783.065,3512.712 L1891.536,3287.47 L1891.536,3037.471 z" fill="#428A93"/>
      <path d="M2216.946,3512.229 L2412.403,3668.1 L2412.405,3418.1 L2216.946,3262.229 z" fill="#54B0BC"/>
      <path d="M1783.065,3512.712 L1587.607,3668.584 L1587.605,3418.584 L1783.065,3262.713 z" fill="#54B0BC"/>
      <path d="M2000.002,3512.229 L2108.477,3737.47 L2216.948,3512.228 L2108.474,3286.987 z" fill="#54B0BC"/>
      <path d="M2000.008,3512.712 L1891.534,3737.954 L1783.062,3512.711 L1891.536,3287.47 z" fill="#54B0BC"/>
    </g>
    <g id="teal3">
      <path d="M2439.188,2350.242 L2682.921,2405.387 L2878.378,2561.26 L2634.646,2506.115 z" fill="#2C5C62"/>
      <path d="M2439.188,2350.242 L2634.646,2506.115 L2759.844,2731.357 L2547.659,2575.485 z" fill="#2C5C62"/>
      <path d="M2634.646,2506.115 L2878.378,2561.26 L2986.85,2786.502 L2759.844,2731.357 z" fill="#356F76"/>
      <path d="M2878.378,2561.26 L3073.836,2717.131 L3317.567,2772.761 L3122.109,2616.89 z" fill="#428A93"/>
      <path d="M2955.302,2887.229 L3063.774,3112.471 L2868.314,2956.6 L2759.844,2731.357 z" fill="#428A93"/>
      <path d="M3073.836,2717.131 L3182.308,2942.374 L2986.848,2786.503 L2878.378,2561.26 z" fill="#428A93"/>
      <path d="M2759.844,2731.357 L2955.302,2887.229 L3182.308,2942.374 L2986.85,2786.502 z" fill="#428A93"/>
      <path d="M2868.314,3206.6 L3063.772,3362.471 L3063.774,3112.471 L2868.314,2956.6 z" fill="#54B0BC"/>
      <path d="M3122.109,2616.89 L3317.567,2772.761 L3561.3,2717.617 L3365.843,2561.745 z" fill="#54B0BC"/>
      <path d="M3307.507,3167.616 L3063.774,3112.471 L2955.302,2887.229 L3182.308,2942.374 z" fill="#54B0BC"/>
      <path d="M3426.041,2997.518 L3182.308,2942.374 L3073.836,2717.131 L3317.569,2772.276 z" fill="#54B0BC"/>
    </g>
    <g id="teal2">
      <path d="M2547.66,1875 L2791.391,1819.37 L3035.124,1874.515 L2791.393,1930.145 z" fill="#2C5C62"/>
      <path d="M2547.66,1875 L2743.118,1719.129 L2986.849,1663.499 L2791.391,1819.37 z" fill="#2C5C62"/>
      <path d="M2791.391,1819.37 L2986.849,1663.499 L3230.582,1718.643 L3035.124,1874.515 z" fill="#356F76"/>
      <path d="M2986.849,1663.499 L3230.582,1608.354 L3426.039,1452.481 L3182.306,1507.626 z" fill="#428A93"/>
      <path d="M2986.849,1663.499 L3230.58,1719.129 L3474.312,1663.984 L3230.582,1608.354 z" fill="#428A93"/>
      <path d="M3035.124,1874.515 L3278.857,1819.37 L3474.315,1663.498 L3230.582,1718.642 z" fill="#428A93"/>
      <path d="M3035.124,1874.515 L3278.855,1930.145 L3522.588,1875 L3278.857,1819.37 z" fill="#428A93"/>
      <path d="M3278.855,1930.145 L3474.312,2086.017 L3718.046,2030.872 L3522.588,1875 z" fill="#54B0BC"/>
      <path d="M3182.306,1507.626 L3426.039,1452.481 L3534.511,1227.239 L3290.778,1282.384 z" fill="#54B0BC"/>
      <path d="M3669.772,1507.627 L3474.315,1663.499 L3230.582,1608.354 L3426.039,1452.482 z" fill="#54B0BC"/>
      <path d="M3718.048,1718.643 L3522.59,1874.515 L3278.857,1819.37 L3474.315,1663.499 z" fill="#54B0BC"/>
    </g>
    <g id="teal1">
      <path d="M2352.202,1268.643 L2352.202,1018.644 L2243.73,1243.886 L2243.73,1493.885 z" fill="#2C5C62"/>
      <path d="M2439.19,1338.015 L2547.662,1112.772 L2352.202,1268.643 L2243.733,1493.886 z" fill="#2C5C62"/>
      <path d="M2352.202,1018.644 L2547.66,862.772 L2547.662,1112.772 L2352.202,1268.643 z" fill="#356F76"/>
      <path d="M2352.202,1018.644 L2460.677,793.403 L2460.677,543.403 L2352.205,768.646 z" fill="#428A93"/>
      <path d="M2547.662,1112.772 L2743.12,956.9 L2851.592,731.658 L2656.134,887.53 z" fill="#428A93"/>
      <path d="M2352.202,1018.644 L2547.66,862.771 L2656.132,637.529 L2460.674,793.402 z" fill="#428A93"/>
      <path d="M2547.662,1112.772 L2656.137,887.531 L2656.137,637.532 L2547.665,862.774 z" fill="#428A93"/>
      <path d="M2743.12,956.9 L2986.853,901.755 L3095.325,676.513 L2851.592,731.658 z" fill="#54B0BC"/>
      <path d="M2243.73,543.404 L2352.205,768.646 L2460.677,543.403 L2352.202,318.162 z" fill="#54B0BC"/>
      <path d="M2851.594,731.659 L2656.137,887.531 L2656.135,637.531 L2851.594,481.66 z" fill="#54B0BC"/>
      <path d="M2656.135,637.531 L2460.677,793.403 L2460.675,543.402 L2656.135,387.532 z" fill="#54B0BC"/>
    </g>
  </g>
</svg>
