<?xml version="1.0" encoding="UTF-8"?>
<!DOCTYPE svg PUBLIC "-//W3C//DTD SVG 1.1//EN" "http://www.w3.org/Graphics/SVG/1.1/DTD/svg11.dtd">
<svg version="1.1" xmlns="http://www.w3.org/2000/svg" xmlns:xlink="http://www.w3.org/1999/xlink" x="0" y="0" width="4000" height="4000" viewBox="0, 0, 4000, 4000">
  <g id="green">
    <g id="green1">
      <g id="green1_1a">
        <path d="M2191.341,1538.06 L2049.728,1750 L2261.667,1608.386 L2403.281,1396.446 z" fill="#2F4431"/>
        <path d="M2403.281,1396.447 L2453.01,1146.447 L2241.07,1288.06 L2191.341,1538.06 z" fill="#435F45"/>
        <path d="M2382.683,1076.12 L2241.07,1288.06 L2453.009,1146.446 L2594.623,934.507 z" fill="#577A5A"/>
        <path d="M2703.009,1096.718 L2453.009,1146.447 L2594.623,934.507 L2844.623,884.779 z" fill="#69926C"/>
        <path d="M2844.623,884.778 L2703.009,1096.718 L2914.949,955.104 L3056.562,743.165 z" fill="#7BAA7F"/>
        <path d="M3056.562,743.165 L3106.291,493.165 L2894.351,634.779 L2844.623,884.778 z" fill="#94CC98"/>
        <path d="M2594.623,934.507 L2644.351,684.507 L2432.411,826.12 L2382.683,1076.12 z" fill="#69926C"/>
        <path d="M2844.623,384.779 L2894.351,634.779 L3106.29,493.165 L3056.562,243.165 z" fill="#A8E7AD"/>
        <path d="M2382.684,576.121 L2432.412,826.121 L2644.351,684.507 L2594.623,434.507 z" fill="#7BAA7F"/>
        <path d="M2644.351,684.507 L2894.351,634.779 L2844.623,884.778 L2594.623,934.507 z" fill="#7BAA7F"/>
        <path d="M2594.624,434.507 L2844.623,384.779 L2894.351,634.778 L2644.351,684.507 z" fill="#94CC98"/>
      </g>
      <g id="green1_3a">
        <path d="M1738.332,2391.614 L1596.719,2603.554 L1808.658,2461.94 L1950.272,2250 z" fill="#2F4431"/>
        <path d="M1758.93,2711.94 L1808.658,2461.94 L1596.719,2603.553 L1546.99,2853.553 z" fill="#435F45"/>
        <path d="M1546.99,2853.554 L1405.377,3065.493 L1617.317,2923.88 L1758.93,2711.94 z" fill="#577A5A"/>
        <path d="M1405.377,3065.493 L1155.377,3115.221 L1296.99,2903.281 L1546.99,2853.553 z" fill="#69926C"/>
        <path d="M1085.051,3044.895 L943.437,3256.835 L1155.377,3115.221 L1296.991,2903.281 z" fill="#7BAA7F"/>
        <path d="M1105.649,3365.221 L1155.377,3115.221 L943.437,3256.835 L893.709,3506.835 z" fill="#94CC98"/>
        <path d="M1567.588,3173.88 L1617.317,2923.88 L1405.377,3065.493 L1355.649,3315.493 z" fill="#69926C"/>
        <path d="M893.708,3506.835 L1105.648,3365.222 L1155.376,3615.221 L943.437,3756.835 z" fill="#A8E7AD"/>
        <path d="M1355.649,3315.493 L1567.588,3173.88 L1617.316,3423.879 L1405.377,3565.493 z" fill="#7BAA7F"/>
        <path d="M1155.377,3115.221 L1405.377,3065.493 L1355.649,3315.493 L1105.649,3365.221 z" fill="#7BAA7F"/>
        <path d="M1105.649,3365.221 L1355.649,3315.493 L1405.377,3565.493 L1155.376,3615.221 z" fill="#94CC98"/>
      </g>
      <g id="green1_4b">
        <path d="M1808.658,1538.06 L1950.272,1750 L1738.332,1608.386 L1596.719,1396.447 z" fill="#2F4431"/>
        <path d="M1758.93,1288.06 L1808.658,1538.06 L1596.718,1396.447 L1546.99,1146.447 z" fill="#435F45"/>
        <path d="M1617.317,1076.12 L1758.93,1288.06 L1546.99,1146.447 L1405.377,934.507 z" fill="#577A5A"/>
        <path d="M1405.377,934.507 L1155.377,884.779 L1296.99,1096.718 L1546.99,1146.447 z" fill="#69926C"/>
        <path d="M1155.377,884.779 L943.437,743.165 L1085.051,955.105 L1296.99,1096.718 z" fill="#7BAA7F"/>
        <path d="M1105.649,634.779 L1155.377,884.779 L943.437,743.165 L893.709,493.165 z" fill="#94CC98"/>
        <path d="M1567.588,826.12 L1617.317,1076.12 L1405.377,934.507 L1355.649,684.507 z" fill="#69926C"/>
        <path d="M1155.377,384.779 L1105.649,634.779 L893.71,493.165 L943.437,243.165 z" fill="#A8E7AD"/>
        <path d="M1617.317,576.121 L1567.588,826.121 L1355.649,684.507 L1405.377,434.507 z" fill="#7BAA7F"/>
        <path d="M1355.649,684.507 L1105.649,634.779 L1155.377,884.779 L1405.377,934.507 z" fill="#7BAA7F"/>
        <path d="M1405.377,434.507 L1155.377,384.779 L1105.649,634.779 L1355.649,684.507 z" fill="#94CC98"/>
      </g>
      <g id="green1_2b">
        <path d="M2261.668,2391.614 L2403.281,2603.553 L2191.342,2461.94 L2049.728,2250 z" fill="#2F4431"/>
        <path d="M2403.281,2603.553 L2453.01,2853.553 L2241.07,2711.94 L2191.342,2461.94 z" fill="#435F45"/>
        <path d="M2453.01,2853.553 L2594.623,3065.493 L2382.684,2923.88 L2241.07,2711.94 z" fill="#577A5A"/>
        <path d="M2703.01,2903.281 L2453.01,2853.553 L2594.623,3065.493 L2844.623,3115.221 z" fill="#69926C"/>
        <path d="M2914.949,3044.895 L3056.563,3256.835 L2844.623,3115.221 L2703.01,2903.281 z" fill="#7BAA7F"/>
        <path d="M3056.563,3256.835 L3106.291,3506.835 L2894.352,3365.221 L2844.623,3115.221 z" fill="#94CC98"/>
        <path d="M2594.623,3065.493 L2644.352,3315.493 L2432.412,3173.879 L2382.684,2923.88 z" fill="#69926C"/>
        <path d="M3106.291,3506.835 L2894.352,3365.221 L2844.624,3615.221 L3056.563,3756.834 z" fill="#A8E7AD"/>
        <path d="M2644.352,3315.493 L2432.412,3173.88 L2382.684,3423.879 L2594.624,3565.493 z" fill="#7BAA7F"/>
        <path d="M2844.623,3115.221 L2594.623,3065.493 L2644.351,3315.493 L2894.351,3365.221 z" fill="#7BAA7F"/>
        <path d="M2894.351,3365.221 L2644.351,3315.493 L2594.624,3565.493 L2844.624,3615.221 z" fill="#94CC98"/>
      </g>
      <g id="green1_2a">
        <path d="M2461.94,2191.342 L2250,2049.728 L2391.614,2261.668 L2603.553,2403.281 z" fill="#2F4431"/>
        <path d="M2711.94,2241.07 L2461.94,2191.342 L2603.553,2403.281 L2853.553,2453.01 z" fill="#435F45"/>
        <path d="M2923.88,2382.683 L2711.94,2241.07 L2853.553,2453.01 L3065.493,2594.623 z" fill="#577A5A"/>
        <path d="M3065.493,2594.623 L3115.221,2844.623 L2903.281,2703.01 L2853.553,2453.01 z" fill="#69926C"/>
        <path d="M3115.221,2844.623 L2903.281,2703.01 L3044.895,2914.949 L3256.835,3056.563 z" fill="#7BAA7F"/>
        <path d="M3365.221,2894.351 L3115.221,2844.623 L3256.835,3056.563 L3506.835,3106.291 z" fill="#94CC98"/>
        <path d="M3173.88,2432.412 L2923.88,2382.683 L3065.493,2594.623 L3315.493,2644.351 z" fill="#69926C"/>
        <path d="M3506.835,3106.291 L3756.835,3056.563 L3615.221,2844.624 L3365.221,2894.351 z" fill="#A8E7AD"/>
        <path d="M3315.493,2644.351 L3565.493,2594.623 L3423.88,2382.684 L3173.88,2432.412 z" fill="#7BAA7F"/>
        <path d="M3315.493,2644.351 L3365.221,2894.351 L3115.221,2844.623 L3065.493,2594.623 z" fill="#7BAA7F"/>
        <path d="M3565.493,2594.623 L3615.221,2844.623 L3365.221,2894.351 L3315.493,2644.351 z" fill="#94CC98"/>
      </g>
      <g id="green1_4a">
        <path d="M1608.386,1738.332 L1396.446,1596.719 L1538.06,1808.658 L1750,1950.272 z" fill="#2F4431"/>
        <path d="M1396.447,1596.719 L1146.447,1546.99 L1288.06,1758.93 L1538.06,1808.658 z" fill="#435F45"/>
        <path d="M1146.446,1546.99 L934.507,1405.377 L1076.12,1617.317 L1288.06,1758.93 z" fill="#577A5A"/>
        <path d="M1096.718,1296.99 L1146.446,1546.99 L934.507,1405.377 L884.778,1155.377 z" fill="#69926C"/>
        <path d="M955.105,1085.051 L1096.718,1296.99 L884.779,1155.377 L743.165,943.437 z" fill="#7BAA7F"/>
        <path d="M743.165,943.437 L493.165,893.709 L634.779,1105.648 L884.779,1155.377 z" fill="#94CC98"/>
        <path d="M934.507,1405.377 L684.507,1355.648 L826.12,1567.588 L1076.12,1617.317 z" fill="#69926C"/>
        <path d="M384.778,1155.377 L243.165,943.437 L493.165,893.709 L634.779,1105.649 z" fill="#A8E7AD"/>
        <path d="M576.12,1617.316 L434.507,1405.377 L684.506,1355.649 L826.12,1567.588 z" fill="#7BAA7F"/>
        <path d="M884.779,1155.377 L934.506,1405.377 L684.507,1355.649 L634.779,1105.649 z" fill="#7BAA7F"/>
        <path d="M634.779,1105.649 L684.507,1355.648 L434.507,1405.376 L384.779,1155.376 z" fill="#94CC98"/>
      </g>
      <g id="green1_1b">
        <path d="M2461.94,1808.658 L2250,1950.272 L2391.614,1738.332 L2603.553,1596.719 z" fill="#2F4431"/>
        <path d="M2711.94,1758.93 L2461.94,1808.658 L2603.553,1596.719 L2853.553,1546.99 z" fill="#435F45"/>
        <path d="M2923.88,1617.317 L2711.94,1758.93 L2853.553,1546.991 L3065.493,1405.377 z" fill="#577A5A"/>
        <path d="M3065.493,1405.377 L3115.222,1155.377 L2903.282,1296.991 L2853.553,1546.991 z" fill="#69926C"/>
        <path d="M3365.221,1105.649 L3115.222,1155.377 L3256.835,943.437 L3506.835,893.709 z" fill="#94CC98"/>
        <path d="M3173.88,1567.589 L2923.88,1617.317 L3065.493,1405.377 L3315.493,1355.649 z" fill="#69926C"/>
        <path d="M3615.222,1155.377 L3756.835,943.437 L3506.835,893.709 L3365.222,1105.649 z" fill="#A8E7AD"/>
        <path d="M3423.879,1617.316 L3565.492,1405.377 L3315.493,1355.649 L3173.879,1567.588 z" fill="#7BAA7F"/>
        <path d="M3315.493,1355.649 L3365.221,1105.649 L3115.221,1155.377 L3065.493,1405.377 z" fill="#7BAA7F"/>
        <path d="M3565.493,1405.376 L3615.221,1155.377 L3365.221,1105.649 L3315.493,1355.649 z" fill="#94CC98"/>
        <path d="M3115.222,1155.377 L2903.282,1296.991 L3044.896,1085.051 L3256.835,943.438 z" fill="#7BAA7F"/>
      </g>
      <g id="green1_3b">
        <path d="M1608.386,2261.668 L1396.446,2403.281 L1538.06,2191.342 L1750,2049.728 z" fill="#2F4431"/>
        <path d="M1396.447,2403.281 L1146.447,2453.01 L1288.06,2241.07 L1538.06,2191.342 z" fill="#435F45"/>
        <path d="M1146.446,2453.01 L934.507,2594.623 L1076.12,2382.684 L1288.06,2241.07 z" fill="#577A5A"/>
        <path d="M1096.718,2703.01 L1146.446,2453.01 L934.507,2594.623 L884.778,2844.623 z" fill="#69926C"/>
        <path d="M955.104,2914.949 L743.165,3056.563 L884.778,2844.623 L1096.718,2703.01 z" fill="#7BAA7F"/>
        <path d="M743.165,3056.563 L493.165,3106.291 L634.779,2894.351 L884.778,2844.623 z" fill="#94CC98"/>
        <path d="M934.507,2594.623 L684.507,2644.352 L826.12,2432.412 L1076.12,2382.684 z" fill="#69926C"/>
        <path d="M493.165,3106.291 L243.165,3056.563 L384.779,2844.624 L634.779,2894.351 z" fill="#A8E7AD"/>
        <path d="M684.507,2644.352 L434.507,2594.623 L576.12,2382.684 L826.12,2432.412 z" fill="#7BAA7F"/>
        <path d="M884.779,2844.623 L934.507,2594.623 L684.507,2644.351 L634.779,2894.351 z" fill="#7BAA7F"/>
        <path d="M634.779,2894.351 L684.507,2644.351 L434.507,2594.623 L384.779,2844.624 z" fill="#94CC98"/>
      </g>
    </g>
    <g id="green2">
      <g id="green2_2a">
        <path d="M2261.541,1891.666 L2119.996,1919.821 L2261.541,1947.976 L2403.087,1919.821 z" fill="#2F4431"/>
        <path d="M2403.086,1919.821 L2523.083,1839.642 L2381.538,1811.487 L2261.541,1891.666 z" fill="#435F45"/>
        <path d="M2523.083,1783.332 L2381.538,1811.487 L2523.083,1839.642 L2664.628,1811.487 z" fill="#577A5A"/>
        <path d="M2643.079,1919.821 L2523.083,1839.642 L2664.628,1811.487 L2784.624,1891.666 z" fill="#69926C"/>
        <path d="M2784.624,1891.666 L2643.079,1919.821 L2784.624,1947.976 L2926.17,1919.821 z" fill="#7BAA7F"/>
        <path d="M2926.169,1919.821 L3046.166,1839.642 L2904.62,1811.487 L2784.624,1891.666 z" fill="#94CC98"/>
        <path d="M2664.628,1811.487 L2784.624,1731.308 L2643.079,1703.153 L2523.083,1783.332 z" fill="#69926C"/>
        <path d="M2984.799,1691.491 L2904.621,1811.487 L3046.166,1839.642 L3126.345,1719.646 z" fill="#A8E7AD"/>
        <path d="M2723.258,1583.157 L2643.079,1703.153 L2784.624,1731.308 L2864.803,1611.312 z" fill="#7BAA7F"/>
        <path d="M2784.624,1731.308 L2904.621,1811.487 L2784.624,1891.666 L2664.628,1811.487 z" fill="#7BAA7F"/>
        <path d="M2864.803,1611.312 L2984.799,1691.491 L2904.621,1811.487 L2784.624,1731.308 z" fill="#94CC98"/>
      </g>
      <g id="green2_4a">
        <path d="M1738.458,2052.024 L1596.913,2080.179 L1738.458,2108.334 L1880.004,2080.179 z" fill="#2F4431"/>
        <path d="M1618.462,2188.513 L1738.458,2108.334 L1596.913,2080.179 L1476.917,2160.358 z" fill="#435F45"/>
        <path d="M1476.917,2160.358 L1335.372,2188.513 L1476.917,2216.668 L1618.462,2188.513 z" fill="#577A5A"/>
        <path d="M1335.372,2188.513 L1215.376,2108.334 L1356.921,2080.179 L1476.917,2160.358 z" fill="#69926C"/>
        <path d="M1215.376,2052.024 L1073.83,2080.179 L1215.376,2108.334 L1356.921,2080.179 z" fill="#7BAA7F"/>
        <path d="M1095.379,2188.513 L1215.376,2108.334 L1073.831,2080.179 L953.834,2160.358 z" fill="#94CC98"/>
        <path d="M1356.921,2296.847 L1476.917,2216.668 L1335.372,2188.513 L1215.376,2268.692 z" fill="#69926C"/>
        <path d="M953.834,2160.357 L1095.379,2188.513 L1015.2,2308.509 L873.655,2280.354 z" fill="#A8E7AD"/>
        <path d="M1215.375,2268.692 L1356.921,2296.847 L1276.742,2416.843 L1135.196,2388.688 z" fill="#7BAA7F"/>
        <path d="M1215.376,2108.334 L1335.372,2188.513 L1215.376,2268.692 L1095.379,2188.513 z" fill="#7BAA7F"/>
        <path d="M1095.379,2188.513 L1215.375,2268.692 L1135.197,2388.688 L1015.2,2308.509 z" fill="#94CC98"/>
      </g>
      <g id="green2_1b">
        <path d="M2108.334,1738.458 L2080.179,1880.004 L2052.024,1738.458 L2080.179,1596.913 z" fill="#2F4431"/>
        <path d="M2188.513,1618.462 L2108.334,1738.458 L2080.179,1596.913 L2160.358,1476.917 z" fill="#435F45"/>
        <path d="M2216.668,1476.917 L2188.513,1618.462 L2160.358,1476.917 L2188.513,1335.372 z" fill="#577A5A"/>
        <path d="M2188.513,1335.372 L2108.334,1215.376 L2080.179,1356.921 L2160.358,1476.917 z" fill="#69926C"/>
        <path d="M2108.334,1215.375 L2080.179,1073.83 L2052.024,1215.375 L2080.179,1356.921 z" fill="#7BAA7F"/>
        <path d="M2188.513,1095.379 L2108.334,1215.375 L2080.179,1073.83 L2160.358,953.834 z" fill="#94CC98"/>
        <path d="M2296.847,1356.921 L2216.668,1476.917 L2188.513,1335.372 L2268.692,1215.376 z" fill="#69926C"/>
        <path d="M2308.509,1015.201 L2188.513,1095.379 L2160.358,953.834 L2280.354,873.655 z" fill="#A8E7AD"/>
        <path d="M2416.843,1276.742 L2296.847,1356.921 L2268.692,1215.376 L2388.688,1135.197 z" fill="#7BAA7F"/>
        <path d="M2268.692,1215.376 L2188.513,1095.379 L2108.334,1215.376 L2188.513,1335.372 z" fill="#7BAA7F"/>
        <path d="M2388.688,1135.197 L2308.509,1015.2 L2188.513,1095.379 L2268.692,1215.376 z" fill="#94CC98"/>
      </g>
      <g id="green2_3b">
        <path d="M1947.976,2261.542 L1919.821,2403.087 L1891.666,2261.542 L1919.821,2119.996 z" fill="#2F4431"/>
        <path d="M1919.821,2403.087 L1839.642,2523.083 L1811.487,2381.538 L1891.666,2261.542 z" fill="#435F45"/>
        <path d="M1839.642,2523.083 L1811.487,2664.628 L1783.332,2523.083 L1811.487,2381.538 z" fill="#577A5A"/>
        <path d="M1919.821,2643.079 L1839.642,2523.083 L1811.487,2664.628 L1891.666,2784.624 z" fill="#69926C"/>
        <path d="M1947.976,2784.625 L1919.821,2926.17 L1891.666,2784.625 L1919.821,2643.079 z" fill="#7BAA7F"/>
        <path d="M1919.821,2926.169 L1839.642,3046.166 L1811.487,2904.621 L1891.666,2784.624 z" fill="#94CC98"/>
        <path d="M1811.487,2664.628 L1731.308,2784.624 L1703.153,2643.079 L1783.332,2523.083 z" fill="#69926C"/>
        <path d="M1839.642,3046.166 L1811.487,2904.621 L1691.491,2984.8 L1719.646,3126.345 z" fill="#A8E7AD"/>
        <path d="M1731.308,2784.624 L1703.153,2643.079 L1583.157,2723.258 L1611.312,2864.803 z" fill="#7BAA7F"/>
        <path d="M1891.666,2784.624 L1811.487,2664.628 L1731.308,2784.624 L1811.487,2904.62 z" fill="#7BAA7F"/>
        <path d="M1811.487,2904.62 L1731.308,2784.624 L1611.312,2864.803 L1691.491,2984.799 z" fill="#94CC98"/>
      </g>
      <g id="green2_3a">
        <path d="M2108.334,2261.541 L2080.179,2119.996 L2052.024,2261.541 L2080.179,2403.087 z" fill="#2F4431"/>
        <path d="M2188.513,2381.538 L2108.334,2261.541 L2080.179,2403.086 L2160.358,2523.083 z" fill="#435F45"/>
        <path d="M2216.668,2523.083 L2188.513,2381.538 L2160.358,2523.083 L2188.513,2664.628 z" fill="#577A5A"/>
        <path d="M2188.513,2664.628 L2108.334,2784.624 L2080.179,2643.079 L2160.358,2523.083 z" fill="#69926C"/>
        <path d="M2108.334,2784.624 L2080.179,2643.079 L2052.024,2784.624 L2080.179,2926.169 z" fill="#7BAA7F"/>
        <path d="M2188.513,2904.62 L2108.334,2784.624 L2080.179,2926.169 L2160.358,3046.166 z" fill="#94CC98"/>
        <path d="M2296.847,2643.079 L2216.668,2523.083 L2188.513,2664.628 L2268.692,2784.624 z" fill="#69926C"/>
        <path d="M2160.358,3046.166 L2280.354,3126.345 L2308.509,2984.8 L2188.513,2904.621 z" fill="#A8E7AD"/>
        <path d="M2268.692,2784.625 L2388.688,2864.803 L2416.843,2723.258 L2296.847,2643.079 z" fill="#7BAA7F"/>
        <path d="M2268.692,2784.624 L2188.513,2904.62 L2108.334,2784.624 L2188.513,2664.628 z" fill="#7BAA7F"/>
        <path d="M2388.688,2864.803 L2308.509,2984.799 L2188.513,2904.62 L2268.692,2784.624 z" fill="#94CC98"/>
      </g>
      <g id="green2_1a">
        <path d="M1947.976,1738.458 L1919.821,1596.913 L1891.666,1738.458 L1919.821,1880.004 z" fill="#2F4431"/>
        <path d="M1919.821,1596.913 L1839.642,1476.917 L1811.487,1618.462 L1891.666,1738.458 z" fill="#435F45"/>
        <path d="M1839.642,1476.917 L1811.487,1335.372 L1783.332,1476.917 L1811.487,1618.462 z" fill="#577A5A"/>
        <path d="M1919.821,1356.921 L1839.642,1476.917 L1811.487,1335.372 L1891.666,1215.375 z" fill="#69926C"/>
        <path d="M1947.976,1215.375 L1919.821,1356.921 L1891.666,1215.375 L1919.821,1073.83 z" fill="#7BAA7F"/>
        <path d="M1919.821,1073.83 L1839.642,953.834 L1811.487,1095.379 L1891.666,1215.375 z" fill="#94CC98"/>
        <path d="M1811.487,1335.372 L1731.308,1215.375 L1703.153,1356.921 L1783.332,1476.917 z" fill="#69926C"/>
        <path d="M1691.491,1015.2 L1719.646,873.655 L1839.642,953.834 L1811.487,1095.379 z" fill="#A8E7AD"/>
        <path d="M1583.157,1276.742 L1611.312,1135.197 L1731.308,1215.375 L1703.153,1356.921 z" fill="#7BAA7F"/>
        <path d="M1891.666,1215.375 L1811.487,1335.372 L1731.308,1215.375 L1811.487,1095.379 z" fill="#7BAA7F"/>
        <path d="M1811.487,1095.379 L1731.308,1215.375 L1611.312,1135.196 L1691.491,1015.2 z" fill="#94CC98"/>
      </g>
      <g id="green2_2a">
        <path d="M2261.542,2108.334 L2119.996,2080.179 L2261.542,2052.024 L2403.087,2080.179 z" fill="#2F4431"/>
        <path d="M2381.538,2188.513 L2261.542,2108.334 L2403.087,2080.179 L2523.083,2160.358 z" fill="#435F45"/>
        <path d="M2523.083,2216.668 L2381.538,2188.513 L2523.083,2160.358 L2664.628,2188.513 z" fill="#577A5A"/>
        <path d="M2664.628,2188.513 L2784.624,2108.334 L2643.079,2080.179 L2523.083,2160.358 z" fill="#69926C"/>
        <path d="M2904.621,2188.513 L2784.624,2108.334 L2926.169,2080.179 L3046.166,2160.358 z" fill="#94CC98"/>
        <path d="M2643.079,2296.847 L2523.083,2216.668 L2664.628,2188.513 L2784.624,2268.692 z" fill="#69926C"/>
        <path d="M2984.8,2308.509 L3126.344,2280.354 L3046.166,2160.358 L2904.62,2188.513 z" fill="#A8E7AD"/>
        <path d="M2723.258,2416.843 L2864.803,2388.688 L2784.624,2268.692 L2643.079,2296.847 z" fill="#7BAA7F"/>
        <path d="M2784.624,2268.692 L2904.621,2188.513 L2784.624,2108.334 L2664.628,2188.513 z" fill="#7BAA7F"/>
        <path d="M2864.803,2388.688 L2984.799,2308.509 L2904.621,2188.513 L2784.624,2268.692 z" fill="#94CC98"/>
        <path d="M2784.624,2108.334 L2643.079,2080.179 L2784.624,2052.024 L2926.17,2080.179 z" fill="#7BAA7F"/>
      </g>
      <g id="green2_4b">
        <path d="M1738.458,1947.976 L1596.913,1919.821 L1738.458,1891.666 L1880.004,1919.821 z" fill="#2F4431"/>
        <path d="M1596.913,1919.821 L1476.917,1839.642 L1618.462,1811.487 L1738.459,1891.666 z" fill="#435F45"/>
        <path d="M1476.917,1839.642 L1335.372,1811.487 L1476.917,1783.332 L1618.462,1811.487 z" fill="#577A5A"/>
        <path d="M1356.921,1919.821 L1476.917,1839.642 L1335.372,1811.487 L1215.375,1891.666 z" fill="#69926C"/>
        <path d="M1215.375,1947.976 L1073.83,1919.821 L1215.375,1891.666 L1356.921,1919.821 z" fill="#7BAA7F"/>
        <path d="M1073.83,1919.821 L953.834,1839.642 L1095.379,1811.487 L1215.375,1891.666 z" fill="#94CC98"/>
        <path d="M1335.372,1811.487 L1215.375,1731.308 L1356.921,1703.153 L1476.917,1783.332 z" fill="#69926C"/>
        <path d="M953.834,1839.642 L873.655,1719.646 L1015.2,1691.491 L1095.379,1811.487 z" fill="#A8E7AD"/>
        <path d="M1215.375,1731.308 L1135.197,1611.312 L1276.742,1583.157 L1356.921,1703.153 z" fill="#7BAA7F"/>
        <path d="M1215.376,1891.666 L1335.372,1811.487 L1215.376,1731.308 L1095.379,1811.487 z" fill="#7BAA7F"/>
        <path d="M1095.379,1811.487 L1215.376,1731.308 L1135.197,1611.312 L1015.2,1691.491 z" fill="#94CC98"/>
      </g>
    </g>
  </g>
  <g id="purple">
    <g id="purple1">
      <g id="purple1_4">
        <path d="M1750,1950.272 L2000,2000 L1750,2049.728 L1500,2000 z" fill="#50325A"/>
        <path d="M1500,2000 L1288.06,2141.613 L1538.06,2191.341 L1750,2049.728 z" fill="#71487E"/>
        <path d="M1538.06,1808.658 L1750,1950.272 L1500,2000 L1288.06,1858.386 z" fill="#71487E"/>
        <path d="M826.121,1950.272 L1076.121,2000 L826.121,2049.728 L576.121,2000 z" fill="#D38BEA"/>
        <path d="M1076.121,2000 L1288.061,2141.613 L1038.061,2191.342 L826.121,2049.728 z" fill="#B072C3"/>
        <path d="M1038.061,1808.658 L826.121,1950.272 L1076.121,2000 L1288.061,1858.387 z" fill="#B072C3"/>
        <path d="M1288.06,1858.386 L1076.121,2000 L1288.06,2141.613 L1500,2000 z" fill="#8F5C9F"/>
        <path d="M1288.06,2141.614 L1038.06,2191.342 L1288.06,2241.07 L1538.06,2191.342 z" fill="#8F5C9F"/>
        <path d="M1288.06,1858.386 L1038.06,1808.658 L1288.06,1758.93 L1538.06,1808.658 z" fill="#8F5C9F"/>
      </g>
      <g id="purple1_3">
        <path d="M1950.272,2250 L2000,2500 L2049.728,2250 L2000,2000 z" fill="#50325A"/>
        <path d="M2000,2500 L1858.387,2711.94 L1808.658,2461.94 L1950.272,2250 z" fill="#71487E"/>
        <path d="M2191.342,2461.94 L2049.728,2250 L2000,2500 L2141.614,2711.94 z" fill="#71487E"/>
        <path d="M1950.272,3173.879 L2000,3423.879 L2049.728,3173.879 L2000,2923.879 z" fill="#D38BEA"/>
        <path d="M2000,2923.879 L1858.387,2711.939 L1808.659,2961.939 L1950.272,3173.879 z" fill="#B072C3"/>
        <path d="M2191.342,2961.939 L2049.728,3173.879 L2000,2923.879 L2141.614,2711.939 z" fill="#B072C3"/>
        <path d="M1858.387,2711.939 L2000,2923.879 L2141.614,2711.94 L2000,2500 z" fill="#8F5C9F"/>
        <path d="M1858.386,2711.94 L1808.658,2961.94 L1758.93,2711.94 L1808.658,2461.94 z" fill="#8F5C9F"/>
        <path d="M2241.07,2711.94 L2191.342,2461.94 L2141.614,2711.94 L2191.342,2961.94 z" fill="#8F5C9F"/>
      </g>
      <g id="purple1_2">
        <path d="M2250,1950.272 L2500,2000 L2250,2049.728 L2000,2000 z" fill="#50325A"/>
        <path d="M2500,2000 L2711.94,2141.614 L2461.94,2191.342 L2250,2049.728 z" fill="#71487E"/>
        <path d="M2461.94,1808.659 L2250,1950.272 L2500,2000 L2711.94,1858.387 z" fill="#71487E"/>
        <path d="M3173.879,1950.272 L3423.879,2000.001 L3173.879,2049.729 L2923.879,2000 z" fill="#D38BEA"/>
        <path d="M2923.879,2000 L2711.939,2141.614 L2961.939,2191.342 L3173.879,2049.729 z" fill="#B072C3"/>
        <path d="M2961.939,1808.659 L3173.879,1950.272 L2923.879,2000.001 L2711.939,1858.387 z" fill="#B072C3"/>
        <path d="M2711.94,1858.387 L2923.879,2000 L2711.94,2141.614 L2500,2000 z" fill="#8F5C9F"/>
        <path d="M2711.94,1758.93 L2461.94,1808.658 L2711.94,1858.386 L2961.94,1808.658 z" fill="#8F5C9F"/>
        <path d="M2711.94,2241.07 L2461.94,2191.342 L2711.94,2141.614 L2961.94,2191.342 z" fill="#8F5C9F"/>
      </g>
      <g id="purple1_1">
        <path d="M1950.272,1750 L2000,2000 L2049.728,1750 L2000,1500 z" fill="#50325A"/>
        <path d="M2000,1500 L1858.386,1288.06 L1808.658,1538.06 L1950.272,1750 z" fill="#71487E"/>
        <path d="M2191.341,1538.06 L2049.728,1750 L2000,1500 L2141.613,1288.06 z" fill="#71487E"/>
        <path d="M1950.271,826.121 L2000,1076.121 L2049.728,826.121 L2000,576.121 z" fill="#D38BEA"/>
        <path d="M2000,1076.121 L1858.387,1288.061 L1808.658,1038.061 L1950.272,826.121 z" fill="#B072C3"/>
        <path d="M2191.342,1038.061 L2049.728,826.121 L2000,1076.121 L2141.613,1288.061 z" fill="#B072C3"/>
        <path d="M1858.386,1288.06 L2000,1076.121 L2141.613,1288.06 L2000,1500 z" fill="#8F5C9F"/>
        <path d="M2241.07,1288.06 L2191.341,1538.06 L2141.614,1288.06 L2191.342,1038.06 z" fill="#8F5C9F"/>
        <path d="M1858.386,1288.06 L1808.658,1038.06 L1758.93,1288.06 L1808.658,1538.06 z" fill="#8F5C9F"/>
      </g>
    </g>
    <g id="purple2">
      <g id="purple2_4">
        <path d="M1924.898,1887.602 L2000,2000 L1887.602,1924.898 L1812.5,1812.5 z" fill="#50325A"/>
        <path d="M1812.5,1812.5 L1679.918,1786.128 L1755.019,1898.526 L1887.602,1924.898 z" fill="#71487E"/>
        <path d="M1898.526,1755.019 L1924.898,1887.602 L1812.5,1812.5 L1786.128,1679.917 z" fill="#71487E"/>
        <path d="M1578.443,1541.147 L1653.545,1653.545 L1541.147,1578.443 L1466.045,1466.045 z" fill="#D38BEA"/>
        <path d="M1653.545,1653.545 L1679.918,1786.128 L1567.52,1711.026 L1541.147,1578.443 z" fill="#B072C3"/>
        <path d="M1711.026,1567.52 L1578.443,1541.147 L1653.545,1653.545 L1786.128,1679.918 z" fill="#B072C3"/>
        <path d="M1786.128,1679.917 L1653.545,1653.545 L1679.918,1786.127 L1812.5,1812.5 z" fill="#8F5C9F"/>
        <path d="M1679.917,1786.128 L1567.519,1711.026 L1642.621,1823.424 L1755.019,1898.526 z" fill="#8F5C9F"/>
        <path d="M1786.128,1679.917 L1711.026,1567.519 L1823.424,1642.621 L1898.526,1755.019 z" fill="#8F5C9F"/>
      </g>
      <g id="purple2_3">
        <path d="M1887.602,2075.102 L1812.5,2187.5 L1924.898,2112.398 L2000,2000 z" fill="#50325A"/>
        <path d="M1812.5,2187.5 L1679.917,2213.873 L1755.019,2101.474 L1887.602,2075.102 z" fill="#71487E"/>
        <path d="M1898.525,2244.98 L1924.898,2112.398 L1812.5,2187.5 L1786.127,2320.082 z" fill="#71487E"/>
        <path d="M1541.147,2421.557 L1466.045,2533.955 L1578.443,2458.853 L1653.545,2346.455 z" fill="#D38BEA"/>
        <path d="M1653.545,2346.455 L1679.918,2213.872 L1567.519,2288.974 L1541.147,2421.557 z" fill="#B072C3"/>
        <path d="M1711.026,2432.48 L1578.443,2458.853 L1653.545,2346.455 L1786.127,2320.082 z" fill="#B072C3"/>
        <path d="M1679.917,2213.872 L1653.545,2346.455 L1786.127,2320.083 L1812.5,2187.5 z" fill="#8F5C9F"/>
        <path d="M1679.917,2213.872 L1567.519,2288.974 L1642.621,2176.576 L1755.019,2101.474 z" fill="#8F5C9F"/>
        <path d="M1823.424,2357.379 L1898.526,2244.98 L1786.127,2320.083 L1711.026,2432.481 z" fill="#8F5C9F"/>
      </g>
      <g id="purple2_2">
        <path d="M2112.398,2075.102 L2187.5,2187.5 L2075.102,2112.398 L2000,2000 z" fill="#50325A"/>
        <path d="M2187.5,2187.5 L2213.872,2320.082 L2101.474,2244.98 L2075.102,2112.398 z" fill="#71487E"/>
        <path d="M2244.98,2101.474 L2112.398,2075.102 L2187.5,2187.5 L2320.082,2213.872 z" fill="#71487E"/>
        <path d="M2458.852,2421.557 L2533.954,2533.955 L2421.556,2458.853 L2346.454,2346.455 z" fill="#D38BEA"/>
        <path d="M2346.454,2346.455 L2213.872,2320.083 L2288.974,2432.48 L2421.556,2458.853 z" fill="#B072C3"/>
        <path d="M2432.48,2288.974 L2458.852,2421.557 L2346.454,2346.455 L2320.082,2213.872 z" fill="#B072C3"/>
        <path d="M2320.082,2213.872 L2346.454,2346.455 L2213.872,2320.083 L2187.5,2187.5 z" fill="#8F5C9F"/>
        <path d="M2357.378,2176.576 L2244.98,2101.474 L2320.083,2213.872 L2432.48,2288.974 z" fill="#8F5C9F"/>
        <path d="M2176.576,2357.378 L2101.474,2244.98 L2213.872,2320.083 L2288.974,2432.48 z" fill="#8F5C9F"/>
      </g>
      <g id="purple2_1">
        <path d="M2075.102,1887.602 L2000,2000 L2112.398,1924.898 L2187.5,1812.5 z" fill="#50325A"/>
        <path d="M2187.5,1812.5 L2213.872,1679.917 L2101.474,1755.019 L2075.102,1887.602 z" fill="#71487E"/>
        <path d="M2244.98,1898.525 L2112.398,1924.898 L2187.5,1812.5 L2320.082,1786.127 z" fill="#71487E"/>
        <path d="M2421.557,1541.147 L2346.455,1653.545 L2458.853,1578.443 L2533.955,1466.045 z" fill="#D38BEA"/>
        <path d="M2346.455,1653.545 L2213.872,1679.917 L2288.974,1567.519 L2421.557,1541.147 z" fill="#B072C3"/>
        <path d="M2432.48,1711.026 L2458.853,1578.443 L2346.455,1653.545 L2320.082,1786.128 z" fill="#B072C3"/>
        <path d="M2213.872,1679.917 L2346.455,1653.545 L2320.082,1786.127 L2187.5,1812.5 z" fill="#8F5C9F"/>
        <path d="M2357.378,1823.423 L2244.98,1898.525 L2320.083,1786.127 L2432.48,1711.025 z" fill="#8F5C9F"/>
        <path d="M2213.872,1679.917 L2288.974,1567.519 L2176.576,1642.621 L2101.474,1755.019 z" fill="#8F5C9F"/>
      </g>
    </g>
  </g>
  <g id="blue">
    <g id="blue2">
      <g id="blue2_4">
        <path d="M1791.194,2041.534 L1614.177,2159.813 L1822.983,2118.279 L2000,2000 z" fill="#2A5A68"/>
        <path d="M1582.389,2000 L1405.372,2118.279 L1614.177,2159.812 L1791.194,2041.534 z" fill="#418699"/>
        <path d="M1614.177,1840.187 L1791.194,1958.465 L1582.389,2000 L1405.372,1881.721 z" fill="#418699"/>
        <path d="M1791.194,1958.465 L2000,2000 L1791.194,2041.533 L1582.389,1999.999 z" fill="#2A5A68"/>
        <path d="M1822.983,1881.721 L2000,2000 L1791.195,1958.466 L1614.178,1840.187 z" fill="#2A5A68"/>
        <path d="M1405.372,2118.279 L1287.093,2295.296 L1495.898,2336.829 L1614.178,2159.813 z" fill="#4F9FB7"/>
        <path d="M1495.898,1663.17 L1287.093,1704.704 L1405.372,1881.72 L1614.177,1840.187 z" fill="#4F9FB7"/>
        <path d="M1405.372,1881.721 L1228.355,2000 L1405.372,2118.279 L1582.389,2000 z" fill="#4F9FB7"/>
        <path d="M1287.093,2295.296 L1110.077,2177.017 L1228.355,2000 L1405.372,2118.279 z" fill="#5FBED9"/>
        <path d="M1228.355,2000.001 L1110.076,1822.984 L1287.093,1704.705 L1405.372,1881.722 z" fill="#5FBED9"/>
        <path d="M1228.355,2000 L1110.076,2177.017 L991.798,2000 L1110.076,1822.983 z" fill="#6DD8F7"/>
      </g>
      <g id="blue2_3">
        <path d="M2118.279,2177.017 L2159.812,2385.822 L2041.534,2208.805 L2000,2000 z" fill="#2A5A68"/>
        <path d="M2000,2417.611 L1881.721,2594.628 L1840.187,2385.822 L1958.466,2208.805 z" fill="#418699"/>
        <path d="M2159.813,2385.822 L2041.534,2208.805 L2000,2417.611 L2118.279,2594.628 z" fill="#418699"/>
        <path d="M1958.466,2208.805 L2000,2417.611 L2041.534,2208.805 L2000,2000 z" fill="#2A5A68"/>
        <path d="M1881.721,2177.017 L1840.187,2385.823 L1958.466,2208.806 L2000,2000 z" fill="#2A5A68"/>
        <path d="M2336.83,2504.101 L2295.295,2712.907 L2118.279,2594.628 L2159.813,2385.822 z" fill="#4F9FB7"/>
        <path d="M1881.721,2594.628 L1704.704,2712.907 L1663.17,2504.101 L1840.187,2385.823 z" fill="#4F9FB7"/>
        <path d="M2118.279,2594.628 L1999.999,2771.645 L1881.721,2594.628 L2000,2417.611 z" fill="#4F9FB7"/>
        <path d="M2295.296,2712.907 L2177.017,2889.924 L2000,2771.645 L2118.279,2594.629 z" fill="#5FBED9"/>
        <path d="M2000,2771.646 L1822.983,2889.925 L1704.704,2712.907 L1881.721,2594.629 z" fill="#5FBED9"/>
        <path d="M2000,2771.646 L1822.984,2889.925 L2000,3008.203 L2177.017,2889.924 z" fill="#6DD8F7"/>
      </g>
      <g id="blue2_2">
        <path d="M2177.017,1881.721 L2000,2000 L2208.806,1958.465 L2385.823,1840.186 z" fill="#2A5A68"/>
        <path d="M2417.611,2000 L2594.628,2118.278 L2385.823,2159.812 L2208.806,2041.534 z" fill="#418699"/>
        <path d="M2385.823,1840.187 L2208.806,1958.466 L2417.611,2000 L2594.628,1881.721 z" fill="#418699"/>
        <path d="M2208.806,1958.466 L2417.611,2000 L2208.806,2041.534 L2000,2000 z" fill="#2A5A68"/>
        <path d="M2208.806,2041.534 L2385.823,2159.813 L2177.017,2118.279 L2000,2000 z" fill="#2A5A68"/>
        <path d="M2504.102,1663.17 L2712.907,1704.704 L2594.628,1881.72 L2385.823,1840.187 z" fill="#4F9FB7"/>
        <path d="M2594.628,2118.278 L2712.907,2295.295 L2504.102,2336.829 L2385.823,2159.812 z" fill="#4F9FB7"/>
        <path d="M2594.628,1881.721 L2771.645,2000 L2594.628,2118.278 L2417.611,2000 z" fill="#4F9FB7"/>
        <path d="M2712.907,1704.704 L2889.925,1822.983 L2771.645,2000 L2594.629,1881.721 z" fill="#5FBED9"/>
        <path d="M2771.646,1999.999 L2889.925,2177.016 L2712.907,2295.295 L2594.629,2118.278 z" fill="#5FBED9"/>
        <path d="M3008.203,1999.999 L2889.924,1822.982 L2771.645,1999.999 L2889.924,2177.016 z" fill="#6DD8F7"/>
      </g>
      <g id="blue2_1">
        <path d="M1958.466,1791.194 L2000,2000 L1881.721,1822.983 L1840.187,1614.177 z" fill="#2A5A68"/>
        <path d="M2000,1582.388 L1881.721,1405.371 L1840.187,1614.177 L1958.466,1791.194 z" fill="#418699"/>
        <path d="M2159.813,1614.177 L2041.534,1791.194 L2000,1582.388 L2118.279,1405.371 z" fill="#418699"/>
        <path d="M1958.466,1791.194 L2000,2000 L2041.534,1791.194 L2000,1582.388 z" fill="#2A5A68"/>
        <path d="M2041.534,1791.194 L2000,2000 L2118.279,1822.983 L2159.813,1614.177 z" fill="#2A5A68"/>
        <path d="M1881.721,1405.371 L1704.704,1287.093 L1663.171,1495.898 L1840.187,1614.177 z" fill="#4F9FB7"/>
        <path d="M2336.83,1495.898 L2295.296,1287.092 L2118.279,1405.371 L2159.813,1614.177 z" fill="#4F9FB7"/>
        <path d="M2118.279,1405.371 L2000,1228.354 L1881.722,1405.371 L2000,1582.388 z" fill="#4F9FB7"/>
        <path d="M1704.704,1287.093 L1822.983,1110.076 L2000,1228.355 L1881.721,1405.371 z" fill="#5FBED9"/>
        <path d="M2000,1228.355 L2177.017,1110.076 L2295.296,1287.093 L2118.279,1405.372 z" fill="#5FBED9"/>
        <path d="M2000,991.797 L2177.017,1110.076 L2000,1228.354 L1822.983,1110.076 z" fill="#6DD8F7"/>
      </g>
    </g>
    <g id="blue1">
      <g id="blue1_4">
        <path d="M1894.03,1929.193 L2000,2000 L1875,1975.136 L1769.03,1904.329 z" fill="#2A5A68"/>
        <path d="M1823.223,1823.223 L1698.223,1798.359 L1769.03,1904.329 L1894.03,1929.193 z" fill="#418699"/>
        <path d="M1904.329,1769.03 L1929.193,1894.03 L1823.223,1823.223 L1798.359,1698.223 z" fill="#418699"/>
        <path d="M1894.03,1929.193 L2000,2000 L1929.193,1894.03 L1823.223,1823.223 z" fill="#2A5A68"/>
        <path d="M1929.193,1894.03 L2000,2000 L1975.136,1875 L1904.329,1769.03 z" fill="#2A5A68"/>
        <path d="M1698.223,1798.359 L1573.223,1823.223 L1644.03,1929.193 L1769.03,1904.329 z" fill="#4F9FB7"/>
        <path d="M1929.193,1644.03 L1823.223,1573.223 L1798.359,1698.223 L1904.329,1769.03 z" fill="#4F9FB7"/>
        <path d="M1798.359,1698.223 L1673.359,1673.359 L1698.224,1798.359 L1823.224,1823.223 z" fill="#4F9FB7"/>
        <path d="M1573.224,1823.224 L1548.359,1698.224 L1673.359,1673.359 L1698.224,1798.359 z" fill="#5FBED9"/>
        <path d="M1673.359,1673.36 L1698.223,1548.36 L1823.223,1573.224 L1798.359,1698.224 z" fill="#5FBED9"/>
        <path d="M1573.224,1573.224 L1698.224,1548.36 L1673.359,1673.359 L1548.359,1698.224 z" fill="#6DD8F7"/>
      </g>
      <g id="blue1_3">
        <path d="M1929.193,2105.97 L1904.329,2230.97 L1975.136,2125 L2000,2000 z" fill="#2A5A68"/>
        <path d="M1823.223,2176.777 L1798.359,2301.777 L1904.329,2230.97 L1929.193,2105.97 z" fill="#418699"/>
        <path d="M1769.03,2095.671 L1894.03,2070.807 L1823.223,2176.777 L1698.223,2201.641 z" fill="#418699"/>
        <path d="M1894.03,2070.807 L2000,2000 L1929.193,2105.97 L1823.223,2176.777 z" fill="#2A5A68"/>
        <path d="M1875,2024.864 L2000,2000 L1894.03,2070.807 L1769.03,2095.671 z" fill="#2A5A68"/>
        <path d="M1798.359,2301.777 L1823.224,2426.776 L1929.193,2355.97 L1904.329,2230.97 z" fill="#4F9FB7"/>
        <path d="M1644.03,2070.807 L1573.223,2176.777 L1698.223,2201.641 L1769.03,2095.671 z" fill="#4F9FB7"/>
        <path d="M1698.224,2201.641 L1673.36,2326.641 L1798.359,2301.777 L1823.224,2176.777 z" fill="#4F9FB7"/>
        <path d="M1823.224,2426.777 L1698.224,2451.641 L1673.36,2326.641 L1798.36,2301.777 z" fill="#5FBED9"/>
        <path d="M1673.36,2326.641 L1548.36,2301.777 L1573.224,2176.777 L1698.224,2201.641 z" fill="#5FBED9"/>
        <path d="M1673.36,2326.641 L1698.224,2451.641 L1573.224,2426.777 L1548.36,2301.777 z" fill="#6DD8F7"/>
      </g>
      <g id="blue1_2">
        <path d="M2125,2024.864 L2230.97,2095.671 L2105.97,2070.807 L2000,2000 z" fill="#2A5A68"/>
        <path d="M2176.777,2176.777 L2201.641,2301.777 L2095.671,2230.97 L2070.807,2105.97 z" fill="#418699"/>
        <path d="M2230.97,2095.671 L2105.97,2070.807 L2176.777,2176.777 L2301.777,2201.641 z" fill="#418699"/>
        <path d="M2070.807,2105.97 L2176.777,2176.777 L2105.97,2070.807 L2000,2000 z" fill="#2A5A68"/>
        <path d="M2024.864,2125 L2095.671,2230.97 L2070.807,2105.97 L2000,2000 z" fill="#2A5A68"/>
        <path d="M2355.97,2070.807 L2426.777,2176.777 L2301.777,2201.641 L2230.97,2095.671 z" fill="#4F9FB7"/>
        <path d="M2201.641,2301.777 L2176.776,2426.777 L2070.807,2355.97 L2095.671,2230.97 z" fill="#4F9FB7"/>
        <path d="M2301.777,2201.641 L2326.641,2326.641 L2201.641,2301.777 L2176.777,2176.777 z" fill="#4F9FB7"/>
        <path d="M2426.777,2176.777 L2451.641,2301.777 L2326.641,2326.641 L2301.777,2201.641 z" fill="#5FBED9"/>
        <path d="M2326.641,2326.641 L2301.777,2451.641 L2176.777,2426.777 L2201.641,2301.777 z" fill="#5FBED9"/>
        <path d="M2326.641,2326.641 L2301.777,2451.641 L2426.777,2426.776 L2451.641,2301.777 z" fill="#6DD8F7"/>
      </g>
      <g id="blue1_1">
        <path d="M2024.864,1875 L2000,2000 L2070.807,1894.03 L2095.671,1769.03 z" fill="#2A5A68"/>
        <path d="M2176.777,1823.223 L2301.777,1798.359 L2230.97,1904.329 L2105.97,1929.193 z" fill="#418699"/>
        <path d="M2095.671,1769.03 L2070.807,1894.03 L2176.777,1823.223 L2201.641,1698.224 z" fill="#418699"/>
        <path d="M2070.807,1894.03 L2176.777,1823.223 L2105.97,1929.193 L2000,2000 z" fill="#2A5A68"/>
        <path d="M2105.97,1929.193 L2230.971,1904.329 L2125,1975.136 L2000.001,2000 z" fill="#2A5A68"/>
        <path d="M2070.807,1644.03 L2176.777,1573.224 L2201.641,1698.223 L2095.671,1769.03 z" fill="#4F9FB7"/>
        <path d="M2301.777,1798.359 L2426.777,1823.223 L2355.97,1929.193 L2230.97,1904.329 z" fill="#4F9FB7"/>
        <path d="M2201.641,1698.224 L2326.641,1673.359 L2301.777,1798.359 L2176.777,1823.224 z" fill="#4F9FB7"/>
        <path d="M2176.777,1573.223 L2301.777,1548.359 L2326.641,1673.359 L2201.641,1698.224 z" fill="#5FBED9"/>
        <path d="M2326.641,1673.359 L2451.641,1698.223 L2426.777,1823.223 L2301.777,1798.359 z" fill="#5FBED9"/>
        <path d="M2426.777,1573.223 L2301.777,1548.359 L2326.641,1673.359 L2451.641,1698.223 z" fill="#6DD8F7"/>
      </g>
    </g>
  </g>
  <g id="Layer_2" display="none">
    <path d="M3339.218,661.782 L3430.556,714.719 L3257.335,943.938 L3157.199,843.801 L3339.218,661.782 z" fill-opacity="0" stroke="#000000" stroke-width="1" stroke-linejoin="bevel"/>
    <path d="M3127.389,813.991 L2915.449,955.605" fill-opacity="0" stroke="#000000" stroke-width="1" stroke-linejoin="bevel"/>
    <path d="M2000.5,2500.5 C1724.358,2500.5 1500.5,2276.642 1500.5,2000.5 C1500.5,1724.358 1724.358,1500.5 2000.5,1500.5 C2276.642,1500.5 2500.5,1724.358 2500.5,2000.5 C2500.5,2276.642 2276.642,2500.5 2000.5,2500.5 z" fill-opacity="0" stroke="#000000" stroke-width="1" stroke-linejoin="bevel"/>
    <path d="M3303,614 z" fill-opacity="0" stroke="#000000" stroke-width="1" stroke-linejoin="bevel"/>
    <path d="M2000.5,1550.5 L2600.5,1550.5 L2600.5,2000.5 L2000.5,2000.5 z" fill-opacity="0" stroke="#000000" stroke-width="1" stroke-linejoin="bevel"/>
  </g>
</svg>
