<?xml version="1.0" encoding="UTF-8"?>
<!DOCTYPE svg PUBLIC "-//W3C//DTD SVG 1.1//EN" "http://www.w3.org/Graphics/SVG/1.1/DTD/svg11.dtd">
<svg version="1.1" xmlns="http://www.w3.org/2000/svg" xmlns:xlink="http://www.w3.org/1999/xlink" x="0" y="0" width="4000" height="4000" viewBox="0, 0, 4000, 4000">
  <g id="Layer_2" display="none">
    <g>
      <path d="M1762.236,1922.746 L1853.054,1797.746 L2000,1750 L2146.946,1797.746 L2237.764,1922.746 L2237.764,2077.254 L2146.946,2202.254 L2000,2250 L1853.054,2202.254 L1762.236,2077.254 z" fill="#A4A4A4" fill-opacity="0.59"/>
      <path d="M2000,1750 L2146.946,1797.746 L2237.764,1922.746 L2237.764,2077.254 L2146.946,2202.254 L2000,2250 L1853.054,2202.254 L1762.236,2077.254 L1762.236,1922.746 L1853.054,1797.746 L2000,1750 z M2000,1751.577 L1853.981,1799.022 L1763.736,1923.233 L1763.736,2076.767 L1853.981,2200.978 L2000,2248.423 L2146.019,2200.978 L2236.264,2076.767 L2236.264,1923.233 L2146.019,1799.022 L2000,1751.577 z" fill="#000000"/>
    </g>
  </g>
  <g id="orange">
    <g id="orange1">
      <path d="M2000,1345.492 L2000,1595.492 L1853.054,1797.746 L1853.054,1547.746 z" fill="#CBAD5B"/>
      <path d="M2000,1345.492 L2146.947,1547.746 L2146.946,1797.746 L2000,1595.492 z" fill="#CBAD5B"/>
      <path d="M2622.475,1797.746 L2384.71,1875 L2146.946,1797.746 L2384.71,1720.492 z" fill="#CBAD5B"/>
      <path d="M2622.475,1797.746 L2475.528,2000 L2237.764,2077.254 L2384.71,1875 z" fill="#CBAD5B"/>
      <path d="M2384.71,2529.509 L2237.764,2327.254 L2237.764,2077.254 L2384.71,2279.509 z" fill="#CBAD5B"/>
      <path d="M2384.71,2529.509 L2146.946,2452.254 L2000,2250 L2237.764,2327.254 z" fill="#CBAD5B"/>
      <path d="M1615.289,2529.509 L1762.236,2327.254 L2000,2250 L1853.054,2452.254 z" fill="#CBAD5B"/>
      <path d="M1615.289,2529.509 L1615.289,2279.509 L1762.236,2077.254 L1762.236,2327.254 z" fill="#CBAD5B"/>
      <path d="M1377.525,1797.746 L1615.29,1875 L1762.236,2077.254 L1524.472,2000 z" fill="#CBAD5B"/>
      <path d="M1377.525,1797.746 L1615.29,1720.491 L1853.054,1797.746 L1615.29,1875 z" fill="#CBAD5B"/>
      <path d="M1853.054,1797.746 L2000,1595.492 L2146.946,1797.746 L2000,2000 z" fill="#6E5D2E"/>
      <path d="M2146.946,1797.746 L2384.71,1875 L2237.764,2077.254 L2000,2000 z" fill="#6E5D2E"/>
      <path d="M2237.764,2077.254 L2237.764,2327.254 L2000,2250 L2000,2000 z" fill="#6E5D2E"/>
      <path d="M2000,2250 L1762.236,2327.254 L1762.236,2077.254 L2000,2000 z" fill="#6E5D2E"/>
      <path d="M1762.236,2077.254 L1615.289,1875 L1853.054,1797.746 L2000,2000 z" fill="#6E5D2E"/>
    </g>
    <g id="orange2">
      <path d="M2000,1345.492 L2000,1595.492 L1853.054,1797.746 L1853.054,1547.746 z" fill="#FBD672"/>
      <path d="M2000,1345.492 L2146.947,1547.746 L2146.946,1797.746 L2000,1595.492 z" fill="#4D411E"/>
      <path d="M2622.475,1797.746 L2384.71,1875 L2146.946,1797.746 L2384.71,1720.492 z" fill="#5B4D25"/>
      <path d="M2622.475,1797.746 L2475.528,2000 L2237.764,2077.254 L2384.71,1875 z" fill="#7A6733"/>
      <path d="M2384.71,2529.509 L2237.764,2327.254 L2237.764,2077.254 L2384.71,2279.509 z" fill="#857139"/>
      <path d="M2384.71,2529.509 L2146.946,2452.254 L2000,2250 L2237.764,2327.254 z" fill="#A48C48"/>
      <path d="M1615.289,2529.509 L1762.236,2327.254 L2000,2250 L1853.054,2452.254 z" fill="#B3984F"/>
      <path d="M1615.289,2529.509 L1615.289,2279.509 L1762.236,2077.254 L1762.236,2327.254 z" fill="#CAAC5A"/>
      <path d="M1377.525,1797.746 L1615.29,1875 L1762.236,2077.254 L1524.472,2000 z" fill="#D4B55F"/>
      <path d="M1377.525,1797.746 L1615.29,1720.491 L1853.054,1797.746 L1615.29,1875 z" fill="#EECB6C"/>
      <path d="M1853.054,1797.746 L2000,1595.492 L2146.946,1797.746 L2000,2000 z" fill="#28200C"/>
      <path d="M2146.946,1797.746 L2384.71,1875 L2237.764,2077.254 L2000,2000 z" fill="#6C5B2D"/>
      <path d="M2237.764,2077.254 L2237.764,2327.254 L2000,2250 L2000,2000 z" fill="#968041"/>
      <path d="M2000,2250 L1762.236,2327.254 L1762.236,2077.254 L2000,2000 z" fill="#BA9F53"/>
      <path d="M1762.236,2077.254 L1615.289,1875 L1853.054,1797.746 L2000,2000 z" fill="#E8C669"/>
    </g>
    <g display="none">
      <g>
        <path d="M2000,1345.492 L2000,1595.492 L1853.054,1797.746 L1853.054,1547.746 z" fill="#CBAD5B"/>
        <path d="M2000,1345.491 L2000,1595.491 L1853.054,1797.746 L1853.054,1547.746 L2000,1345.491 z M1999,1348.569 L1854.054,1548.071 L1854.054,1794.668 L1999,1595.167 L1999,1348.569 z" fill="#000000"/>
      </g>
      <g>
        <path d="M2000,1345.492 L2146.947,1547.746 L2146.946,1797.746 L2000,1595.492 z" fill="#CBAD5B"/>
        <path d="M2000,1345.491 L2146.946,1547.746 L2146.946,1797.746 L2000,1595.491 L2000,1345.491 z M2001,1348.569 L2001,1595.167 L2145.946,1794.668 L2145.946,1548.071 L2001,1348.569 z" fill="#000000"/>
      </g>
      <g>
        <path d="M2622.475,1797.746 L2384.71,1875 L2146.946,1797.746 L2384.71,1720.492 z" fill="#CBAD5B"/>
        <path d="M2384.71,1720.491 L2622.475,1797.746 L2384.71,1875 L2146.946,1797.746 L2384.71,1720.491 z M2384.71,1721.543 L2150.182,1797.746 L2384.71,1873.948 L2619.239,1797.746 L2384.71,1721.543 z" fill="#000000"/>
      </g>
      <g>
        <path d="M2622.475,1797.746 L2475.528,2000 L2237.764,2077.254 L2384.71,1875 z" fill="#CBAD5B"/>
        <path d="M2622.475,1797.746 L2475.528,2000 L2237.764,2077.254 L2384.71,1875 L2622.475,1797.746 z M2619.856,1799.648 L2385.328,1875.851 L2240.382,2075.352 L2474.91,1999.149 L2619.856,1799.648 z" fill="#000000"/>
      </g>
      <g>
        <path d="M2384.71,2529.509 L2237.764,2327.254 L2237.764,2077.254 L2384.71,2279.509 z" fill="#CBAD5B"/>
        <path d="M2237.764,2077.254 L2384.71,2279.509 L2384.71,2529.509 L2237.764,2327.254 L2237.764,2077.254 z M2238.764,2080.332 L2238.764,2326.929 L2383.71,2526.431 L2383.71,2279.833 L2238.764,2080.332 z" fill="#000000"/>
      </g>
      <g>
        <path d="M2384.71,2529.509 L2146.946,2452.254 L2000,2250 L2237.764,2327.254 z" fill="#CBAD5B"/>
        <path d="M2000,2250 L2237.764,2327.254 L2384.71,2529.509 L2146.946,2452.254 L2000,2250 z M2002.618,2251.902 L2147.564,2451.404 L2382.092,2527.606 L2237.146,2328.105 L2002.618,2251.902 z" fill="#000000"/>
      </g>
      <g>
        <path d="M1615.289,2529.509 L1762.236,2327.254 L2000,2250 L1853.054,2452.254 z" fill="#CBAD5B"/>
        <path d="M2000,2250 L1853.053,2452.254 L1615.289,2529.509 L1762.236,2327.254 L2000,2250 z M1997.382,2251.902 L1762.854,2328.105 L1617.907,2527.606 L1852.436,2451.404 L1997.382,2251.902 z" fill="#000000"/>
      </g>
      <g>
        <path d="M1615.289,2529.509 L1615.289,2279.509 L1762.236,2077.254 L1762.236,2327.254 z" fill="#CBAD5B"/>
        <path d="M1762.236,2077.254 L1762.236,2327.254 L1615.289,2529.509 L1615.289,2279.509 L1762.236,2077.254 z M1761.236,2080.332 L1616.289,2279.833 L1616.289,2526.431 L1761.236,2326.929 L1761.236,2080.332 z" fill="#000000"/>
      </g>
      <g>
        <path d="M1377.525,1797.746 L1615.29,1875 L1762.236,2077.254 L1524.472,2000 z" fill="#CBAD5B"/>
        <path d="M1377.525,1797.746 L1615.29,1875 L1762.236,2077.254 L1524.472,2000 L1377.525,1797.746 z M1380.143,1799.648 L1525.09,1999.149 L1759.618,2075.352 L1614.672,1875.851 L1380.143,1799.648 z" fill="#000000"/>
      </g>
      <g>
        <path d="M1377.525,1797.746 L1615.29,1720.491 L1853.054,1797.746 L1615.29,1875 z" fill="#CBAD5B"/>
        <path d="M1615.29,1720.491 L1853.054,1797.746 L1615.29,1875 L1377.525,1797.746 L1615.29,1720.491 z M1615.29,1721.543 L1380.761,1797.746 L1615.29,1873.949 L1849.818,1797.746 L1615.29,1721.543 z" fill="#000000"/>
      </g>
      <g>
        <path d="M1853.054,1797.746 L2000,1595.492 L2146.946,1797.746 L2000,2000 z" fill="#CBAD5B"/>
        <path d="M2000,1595.491 L2146.946,1797.746 L2000,2000 L1853.053,1797.746 L2000,1595.491 z M2000,1597.193 L1854.29,1797.746 L2000,1998.298 L2145.71,1797.746 L2000,1597.193 z" fill="#000000"/>
      </g>
      <g>
        <path d="M2146.946,1797.746 L2384.71,1875 L2237.764,2077.254 L2000,2000 z" fill="#CBAD5B"/>
        <path d="M2146.946,1797.746 L2384.71,1875 L2237.764,2077.254 L2000,2000 L2146.946,1797.746 z M2147.328,1798.921 L2001.618,1999.474 L2237.382,2076.079 L2383.092,1875.526 L2147.328,1798.921 z" fill="#000000"/>
      </g>
      <g>
        <path d="M2237.764,2077.254 L2237.764,2327.254 L2000,2250 L2000,2000 z" fill="#CBAD5B"/>
        <path d="M2000,2000 L2237.764,2077.254 L2237.764,2327.254 L2000,2250 L2000,2000 z M2001,2001.376 L2001,2249.273 L2236.764,2325.878 L2236.764,2077.981 L2001,2001.376 z" fill="#000000"/>
      </g>
      <g>
        <path d="M2000,2250 L1762.236,2327.254 L1762.236,2077.254 L2000,2000 z" fill="#CBAD5B"/>
        <path d="M2000,2000 L2000,2250 L1762.236,2327.254 L1762.236,2077.254 L2000,2000 z M1999,2001.376 L1763.236,2077.981 L1763.236,2325.878 L1999,2249.273 L1999,2001.376 z" fill="#000000"/>
      </g>
      <g>
        <path d="M1762.236,2077.254 L1615.289,1875 L1853.054,1797.746 L2000,2000 z" fill="#CBAD5B"/>
        <path d="M1853.054,1797.746 L2000,2000 L1762.236,2077.254 L1615.289,1875 L1853.054,1797.746 z M1852.672,1798.921 L1616.907,1875.526 L1762.618,2076.079 L1998.382,1999.474 L1852.672,1798.921 z" fill="#000000"/>
      </g>
    </g>
  </g>
  <g id="purple">
    <g id="purple2">
      <g>
        <path d="M2146.947,1547.746 L2384.711,1470.492 L2384.71,1720.492 L2146.947,1797.746 z" fill="#5F3F60"/>
        <path d="M2531.657,1268.237 L2769.421,1345.492 L2622.475,1547.746 L2384.711,1470.492 z" fill="#AA74AB"/>
        <path d="M2237.765,1268.237 L2384.711,1065.983 L2531.657,1268.237 L2384.711,1470.492 z" fill="#AA74AB"/>
        <path d="M2237.764,1268.237 L2384.71,1470.492 L2146.947,1547.746 L2000,1345.492 z" fill="#815782"/>
        <path d="M2622.475,1547.746 L2622.475,1797.746 L2384.71,1720.492 L2384.711,1470.492 z" fill="#815782"/>
      </g>
      <g>
        <path d="M2475.529,2000 L2622.475,2202.254 L2384.711,2279.509 L2237.764,2077.254 z" fill="#5F3F60"/>
        <path d="M2860.239,2279.509 L2622.475,2202.254 L2769.421,2000 L3007.185,2077.254 z" fill="#AA74AB"/>
        <path d="M2622.475,2452.254 L2622.475,2202.254 L2860.239,2279.509 L2860.239,2529.509 z" fill="#AA74AB"/>
        <path d="M2769.421,2000 L2622.475,2202.254 L2475.529,2000 L2622.475,1797.746 z" fill="#815782"/>
        <path d="M2622.475,2452.254 L2384.71,2529.509 L2384.71,2279.509 L2622.475,2202.254 z" fill="#815782"/>
      </g>
      <g>
        <path d="M2146.946,2452.254 L2000,2654.509 L1853.054,2452.254 L2000,2250 z" fill="#5F3F60"/>
        <path d="M2237.764,2731.763 L2237.764,2981.763 L2000,2904.509 L2000,2654.509 z" fill="#AA74AB"/>
        <path d="M1762.236,2731.763 L2000,2654.509 L2000,2904.509 L1762.236,2981.763 z" fill="#AA74AB"/>
        <path d="M2237.764,2731.763 L2000,2654.509 L2146.946,2452.254 L2384.71,2529.509 z" fill="#815782"/>
        <path d="M1762.236,2731.763 L1615.29,2529.509 L1853.054,2452.254 L2000,2654.509 z" fill="#815782"/>
      </g>
      <g>
        <path d="M1615.289,2279.509 L1377.525,2202.254 L1524.472,2000 L1762.236,2077.254 z" fill="#5F3F60"/>
        <path d="M1377.525,2452.254 L1139.761,2529.509 L1139.761,2279.509 L1377.525,2202.254 z" fill="#AA74AB"/>
        <path d="M1139.761,2279.509 L992.815,2077.254 L1230.579,2000 L1377.525,2202.254 z" fill="#AA74AB"/>
        <path d="M1377.525,2452.254 L1377.525,2202.254 L1615.289,2279.509 L1615.289,2529.509 z" fill="#815782"/>
        <path d="M1230.579,2000 L1377.525,1797.746 L1524.472,2000 L1377.525,2202.254 z" fill="#815782"/>
      </g>
      <g>
        <path d="M1615.289,1720.491 L1615.29,1470.491 L1853.054,1547.746 L1853.054,1797.746 z" fill="#5F3F60"/>
        <path d="M1468.343,1268.237 L1615.29,1470.491 L1377.526,1547.746 L1230.579,1345.491 z" fill="#AA74AB"/>
        <path d="M1762.236,1268.237 L1615.29,1470.491 L1468.343,1268.237 L1615.29,1065.983 z" fill="#AA74AB"/>
        <path d="M1762.236,1268.237 L2000,1345.492 L1853.054,1547.746 L1615.29,1470.491 z" fill="#815782"/>
        <path d="M1377.525,1547.746 L1615.29,1470.492 L1615.289,1720.491 L1377.525,1797.746 z" fill="#815782"/>
      </g>
    </g>
    <g id="purple1">
      <g>
        <path d="M2146.947,1547.746 L2384.711,1470.492 L2384.71,1720.492 L2146.947,1797.746 z" fill="#5F3F60"/>
        <path d="M2531.657,1268.237 L2769.421,1345.492 L2622.475,1547.746 L2384.711,1470.492 z" fill="#C98ACA"/>
        <path d="M2237.765,1268.237 L2384.711,1065.983 L2531.657,1268.237 L2384.711,1470.492 z" fill="#9A699B"/>
        <path d="M2237.764,1268.237 L2384.71,1470.492 L2146.947,1547.746 L2000,1345.492 z" fill="#7E557F"/>
        <path d="M2622.475,1547.746 L2622.475,1797.746 L2384.71,1720.492 L2384.711,1470.492 z" fill="#E39CE5"/>
      </g>
      <g>
        <path d="M2475.529,2000 L2622.475,2202.254 L2384.711,2279.509 L2237.764,2077.254 z" fill="#5F3F60"/>
        <path d="M2860.239,2279.509 L2622.475,2202.254 L2769.421,2000 L3007.185,2077.254 z" fill="#9A699B"/>
        <path d="M2622.475,2452.254 L2622.475,2202.254 L2860.239,2279.509 L2860.239,2529.509 z" fill="#C98ACA"/>
        <path d="M2769.421,2000 L2622.475,2202.254 L2475.529,2000 L2622.475,1797.746 z" fill="#7E557F"/>
        <path d="M2622.475,2452.254 L2384.71,2529.509 L2384.71,2279.509 L2622.475,2202.254 z" fill="#E39CE5"/>
      </g>
      <g>
        <path d="M2146.946,2452.254 L2000,2654.509 L1853.054,2452.254 L2000,2250 z" fill="#5F3F60"/>
        <path d="M2237.764,2731.763 L2237.764,2981.763 L2000,2904.509 L2000,2654.509 z" fill="#9A699B"/>
        <path d="M1762.236,2731.763 L2000,2654.509 L2000,2904.509 L1762.236,2981.763 z" fill="#C98ACA"/>
        <path d="M2237.764,2731.763 L2000,2654.509 L2146.946,2452.254 L2384.71,2529.509 z" fill="#7E557F"/>
        <path d="M1762.236,2731.763 L1615.29,2529.509 L1853.054,2452.254 L2000,2654.509 z" fill="#E39CE5"/>
      </g>
      <g>
        <path d="M1615.289,2279.509 L1377.525,2202.254 L1524.472,2000 L1762.236,2077.254 z" fill="#5F3F60"/>
        <path d="M1377.525,2452.254 L1139.761,2529.509 L1139.761,2279.509 L1377.525,2202.254 z" fill="#9A699B"/>
        <path d="M1139.761,2279.509 L992.815,2077.254 L1230.579,2000 L1377.525,2202.254 z" fill="#C98ACA"/>
        <path d="M1377.525,2452.254 L1377.525,2202.254 L1615.289,2279.509 L1615.289,2529.509 z" fill="#7E557F"/>
        <path d="M1230.579,2000 L1377.525,1797.746 L1524.472,2000 L1377.525,2202.254 z" fill="#E39CE5"/>
      </g>
      <g>
        <path d="M1615.289,1720.491 L1615.29,1470.491 L1853.054,1547.746 L1853.054,1797.746 z" fill="#5F3F60"/>
        <path d="M1468.343,1268.237 L1615.29,1470.491 L1377.526,1547.746 L1230.579,1345.491 z" fill="#9A699B"/>
        <path d="M1762.236,1268.237 L1615.29,1470.491 L1468.343,1268.237 L1615.29,1065.983 z" fill="#C98ACA"/>
        <path d="M1762.236,1268.237 L2000,1345.492 L1853.054,1547.746 L1615.29,1470.491 z" fill="#E39CE5"/>
        <path d="M1377.525,1547.746 L1615.29,1470.492 L1615.289,1720.491 L1377.525,1797.746 z" fill="#7E557F"/>
      </g>
    </g>
  </g>
  <g id="Layer_1" display="none">
    <path d="M993.315,2077.754 L1140.261,1875.5" fill-opacity="0" stroke="#FF2905" stroke-width="3" stroke-linejoin="bevel"/>
    <path d="M2860.739,1875.5 L3007.685,2077.754" fill-opacity="0" stroke="#FF2905" stroke-width="3" stroke-linejoin="bevel"/>
    <path d="M2385.21,2530.009 L2385.21,2780.009" fill-opacity="0" stroke="#FF2905" stroke-width="3" stroke-linejoin="bevel"/>
    <path d="M1615.79,1066.483 L1853.554,1143.737" fill-opacity="0" stroke="#FF2905" stroke-width="3" stroke-linejoin="bevel"/>
    <path d="M2860.739,2530.009 L2622.975,2607.263" fill-opacity="0" stroke="#FF2905" stroke-width="3" stroke-linejoin="bevel"/>
    <path d="M1468.843,2732.263 L1615.789,2530.009" fill-opacity="0" stroke="#FF2905" stroke-width="3" stroke-linejoin="bevel"/>
    <path d="M1140.261,1720.991 L1378.025,1798.246" fill-opacity="0" stroke="#FF2905" stroke-width="3" stroke-linejoin="bevel"/>
    <path d="M2000.5,1345.992 L2000.5,1595.992" fill-opacity="0" stroke="#000000" stroke-width="1.5" stroke-linejoin="bevel" display="none"/>
    <path d="M2860.739,1720.992 L2622.975,1798.246" fill-opacity="0" stroke="#FF2905" stroke-width="3" stroke-linejoin="bevel"/>
    <path d="M2385.21,2530.009 L2532.157,2732.263" fill-opacity="0" stroke="#FF2905" stroke-width="3" stroke-linejoin="bevel"/>
    <path d="M2622.975,1798.246 L2860.739,1875.5" fill-opacity="0" stroke="#FF2905" stroke-width="3" stroke-linejoin="bevel"/>
    <path d="M1615.789,2530.008 L1615.789,2780.008" fill-opacity="0" stroke="#FF2905" stroke-width="3" stroke-linejoin="bevel"/>
    <path d="M1378.025,1798.246 L1140.261,1875.5" fill-opacity="0" stroke="#FF2905" stroke-width="3" stroke-linejoin="bevel"/>
    <path d="M2385.211,1066.483 L2147.447,1143.737" fill-opacity="0" stroke="#FF2905" stroke-width="3" stroke-linejoin="bevel"/>
    <path d="M2769.921,1345.992 L2769.921,1595.992" fill-opacity="0" stroke="#FF2905" stroke-width="3" stroke-linejoin="bevel"/>
    <path d="M1231.079,1345.991 L1231.079,1595.991" fill-opacity="0" stroke="#FF2905" stroke-width="3" stroke-linejoin="bevel"/>
    <path d="M2238.264,2982.263 L2385.21,2780.009" fill-opacity="0" stroke="#FF2905" stroke-width="3" stroke-linejoin="bevel"/>
    <path d="M2860.739,1720.992 L3007.685,1518.738" fill-opacity="0" stroke="#FF2905" stroke-width="3" stroke-linejoin="bevel"/>
    <path d="M1140.261,2530.008 L1378.025,2607.262" fill-opacity="0" stroke="#FF2905" stroke-width="3" stroke-linejoin="bevel"/>
    <path d="M993.315,1518.737 L1140.261,1720.991" fill-opacity="0" stroke="#FF2905" stroke-width="3" stroke-linejoin="bevel"/>
    <path d="M2385.21,2530.009 L2622.975,2607.263" fill-opacity="0" stroke="#FF2905" stroke-width="3" stroke-linejoin="bevel"/>
    <path d="M1615.789,2780.008 L1762.736,2982.263" fill-opacity="0" stroke="#FF2905" stroke-width="3" stroke-linejoin="bevel"/>
    <path d="M1615.789,2530.008 L1378.025,2607.262" fill-opacity="0" stroke="#FF2905" stroke-width="3" stroke-linejoin="bevel"/>
    <path d="M2000.5,1095.992 L2000.5,1345.992" fill-opacity="0" stroke="#FF2905" stroke-width="3" stroke-linejoin="bevel"/>
    <path d="M2000.5,1095.992 L2147.447,893.737" fill-opacity="0" stroke="#FF2905" stroke-width="3" stroke-linejoin="bevel"/>
    <path d="M2622.975,1798.246 L2769.921,1595.992" fill-opacity="0" stroke="#FF2905" stroke-width="3" stroke-linejoin="bevel"/>
    <path d="M1231.079,1595.991 L1378.025,1798.246" fill-opacity="0" stroke="#FF2905" stroke-width="3" stroke-linejoin="bevel"/>
    <path d="M1853.554,893.737 L2000.5,1095.992" fill-opacity="0" stroke="#FF2905" stroke-width="3" stroke-linejoin="bevel"/>
    <path d="M1140.261,1720.991 L902.497,1798.245" fill-opacity="0" stroke="#FF2905" stroke-width="3" stroke-linejoin="bevel"/>
    <path d="M2860.739,1720.992 L3098.503,1798.246" fill-opacity="0" stroke="#FF2905" stroke-width="3" stroke-linejoin="bevel"/>
    <path d="M1468.843,2732.263 L1468.843,2982.263" fill-opacity="0" stroke="#FF2905" stroke-width="3" stroke-linejoin="bevel"/>
    <path d="M1468.843,2732.263 L1231.079,2809.517" fill-opacity="0" stroke="#FF2905" stroke-width="3" stroke-linejoin="bevel"/>
    <path d="M1853.554,1143.737 L2000.5,1345.992" fill-opacity="0" stroke="#FF2905" stroke-width="3" stroke-linejoin="bevel"/>
    <path d="M2000.5,1345.992 L2147.447,1143.737" fill-opacity="0" stroke="#FF2905" stroke-width="3" stroke-linejoin="bevel"/>
    <path d="M2532.157,2732.263 L2532.157,2982.263" fill-opacity="0" stroke="#FF2905" stroke-width="3" stroke-linejoin="bevel"/>
    <path d="M2532.157,2732.263 L2769.921,2809.517" fill-opacity="0" stroke="#FF2905" stroke-width="3" stroke-linejoin="bevel"/>
  </g>
  <g id="green">
    <g id="green5">
      <g>
        <path d="M1321.397,815.983 L1468.343,613.729 L1615.289,815.983 L1468.343,1018.237 z" fill="#1B5A7C"/>
        <path d="M1321.397,815.983 L1321.397,1065.983 L1083.633,988.728 L1083.633,738.728 z" fill="#3192C5"/>
        <path d="M992.815,1268.237 L845.868,1065.983 L1083.632,988.729 L1230.579,1190.983 z" fill="#1B5A7C"/>
        <path d="M845.868,815.983 L1083.632,738.728 L1083.632,988.729 L845.868,1065.983 z" fill="#39A6E1"/>
        <path d="M1230.579,536.474 L1468.343,613.729 L1321.396,815.983 L1083.632,738.728 z" fill="#39A6E1"/>
        <path d="M1230.579,536.474 L1083.632,738.729 L845.868,815.983 L992.815,613.729 z" fill="#40B8F8"/>
        <path d="M1615.29,815.983 L1615.289,1065.983 L1468.343,1268.237 L1468.343,1018.237 z" fill="#12445F"/>
        <path d="M992.815,1268.237 L1230.579,1190.983 L1468.343,1268.237 L1230.579,1345.491 z" fill="#12445F"/>
        <path d="M1468.343,1268.237 L1321.397,1065.983 L1321.397,815.983 L1468.343,1018.237 z" fill="#25749F"/>
        <path d="M1083.633,988.729 L1321.397,1065.983 L1468.343,1268.237 L1230.579,1190.983 z" fill="#25749F"/>
      </g>
      <g>
        <path d="M2916.37,988.729 L3154.134,1065.984 L3007.187,1268.238 L2769.423,1190.984 z" fill="#1B5A7C"/>
        <path d="M2916.37,988.729 L2678.605,1065.983 L2678.605,815.984 L2916.37,738.729 z" fill="#3192C5"/>
        <path d="M2384.713,815.983 L2531.659,613.729 L2678.605,815.983 L2531.659,1018.238 z" fill="#1B5A7C"/>
        <path d="M2769.423,536.474 L2916.369,738.729 L2678.605,815.983 L2531.659,613.729 z" fill="#39A6E1"/>
        <path d="M3154.133,815.983 L3154.133,1065.983 L2916.369,988.729 L2916.369,738.729 z" fill="#39A6E1"/>
        <path d="M3154.134,815.983 L2916.369,738.729 L2769.423,536.475 L3007.187,613.729 z" fill="#40B8F8"/>
        <path d="M3007.187,1268.238 L2769.423,1345.492 L2531.659,1268.238 L2769.423,1190.984 z" fill="#12445F"/>
        <path d="M2384.713,815.984 L2531.659,1018.238 L2531.659,1268.238 L2384.713,1065.984 z" fill="#12445F"/>
        <path d="M2531.659,1268.238 L2678.605,1065.984 L2916.369,988.729 L2769.423,1190.984 z" fill="#25749F"/>
        <path d="M2678.605,815.983 L2678.605,1065.984 L2531.659,1268.238 L2531.659,1018.238 z" fill="#25749F"/>
      </g>
      <g>
        <path d="M3244.955,2559.016 L3244.955,2809.016 L3007.19,2731.762 L3007.191,2481.762 z" fill="#1B5A7C"/>
        <path d="M3244.955,2559.016 L3098.009,2356.762 L3335.773,2279.508 L3482.719,2481.762 z" fill="#3192C5"/>
        <path d="M3244.955,1999.999 L3482.719,2077.253 L3335.773,2279.507 L3098.009,2202.253 z" fill="#1B5A7C"/>
        <path d="M3629.666,2279.507 L3482.719,2481.761 L3335.773,2279.507 L3482.719,2077.253 z" fill="#39A6E1"/>
        <path d="M3482.719,2731.761 L3244.955,2809.016 L3244.955,2559.016 L3482.719,2481.761 z" fill="#39A6E1"/>
        <path d="M3482.719,2731.761 L3482.719,2481.761 L3629.665,2279.507 L3629.665,2529.507 z" fill="#40B8F8"/>
        <path d="M3007.19,2731.762 L2860.244,2529.508 L2860.244,2279.507 L3007.19,2481.762 z" fill="#12445F"/>
        <path d="M3244.954,1999.999 L3098.008,2202.253 L2860.244,2279.508 L3007.191,2077.253 z" fill="#12445F"/>
        <path d="M2860.244,2279.507 L3098.008,2356.762 L3244.955,2559.016 L3007.19,2481.761 z" fill="#25749F"/>
        <path d="M3335.773,2279.507 L3098.008,2356.761 L2860.244,2279.507 L3098.008,2202.253 z" fill="#25749F"/>
      </g>
      <g>
        <path d="M1853.055,3356.763 L1615.291,3434.017 L1615.291,3184.017 L1853.055,3106.763 z" fill="#1B5A7C"/>
        <path d="M1853.055,3356.763 L2000.001,3154.509 L2146.948,3356.763 L2000.001,3559.017 z" fill="#3192C5"/>
        <path d="M2384.712,3184.017 L2384.712,3434.017 L2146.948,3356.763 L2146.948,3106.763 z" fill="#1B5A7C"/>
        <path d="M2237.766,3636.272 L2000.002,3559.017 L2146.948,3356.763 L2384.712,3434.017 z" fill="#39A6E1"/>
        <path d="M1762.238,3636.271 L1615.291,3434.017 L1853.055,3356.763 L2000.002,3559.017 z" fill="#39A6E1"/>
        <path d="M1762.237,3636.271 L2000.002,3559.017 L2237.766,3636.271 L2000.001,3713.526 z" fill="#40B8F8"/>
        <path d="M1615.291,3184.017 L1762.237,2981.763 L2000.001,2904.509 L1853.055,3106.763 z" fill="#12445F"/>
        <path d="M2384.712,3184.017 L2146.948,3106.763 L2000.001,2904.509 L2237.766,2981.763 z" fill="#12445F"/>
        <path d="M2000.001,2904.509 L2000.001,3154.509 L1853.055,3356.763 L1853.055,3106.763 z" fill="#25749F"/>
        <path d="M2146.948,3356.763 L2000.002,3154.509 L2000.001,2904.509 L2146.948,3106.763 z" fill="#25749F"/>
      </g>
      <g>
        <path d="M664.233,2279.508 L517.286,2077.254 L755.051,2000 L901.997,2202.254 z" fill="#1B5A7C"/>
        <path d="M664.233,2279.508 L901.997,2356.762 L755.051,2559.016 L517.287,2481.762 z" fill="#3192C5"/>
        <path d="M992.814,2731.762 L755.05,2809.017 L755.05,2559.017 L992.815,2481.762 z" fill="#1B5A7C"/>
        <path d="M517.287,2731.762 L517.287,2481.762 L755.051,2559.017 L755.051,2809.017 z" fill="#39A6E1"/>
        <path d="M370.34,2279.508 L517.286,2077.254 L664.232,2279.508 L517.286,2481.762 z" fill="#39A6E1"/>
        <path d="M370.34,2279.508 L517.287,2481.762 L517.287,2731.762 L370.34,2529.508 z" fill="#40B8F8"/>
        <path d="M755.051,1999.999 L992.815,2077.254 L1139.761,2279.508 L901.997,2202.253 z" fill="#12445F"/>
        <path d="M992.815,2731.762 L992.815,2481.762 L1139.761,2279.508 L1139.761,2529.508 z" fill="#12445F"/>
        <path d="M1139.761,2279.508 L901.997,2356.762 L664.233,2279.508 L901.997,2202.254 z" fill="#25749F"/>
        <path d="M755.051,2559.017 L901.997,2356.762 L1139.761,2279.508 L992.815,2481.762 z" fill="#25749F"/>
      </g>
    </g>
    <g id="green4">
      <g>
        <path d="M2916.368,988.729 L3154.132,1065.983 L3007.186,1268.237 L2769.421,1190.983 z" fill="#5F277F"/>
        <path d="M2916.368,988.729 L2678.604,1065.983 L2678.604,815.983 L2916.368,738.729 z" fill="#8037AA"/>
        <path d="M2384.711,815.983 L2531.657,613.728 L2678.604,815.983 L2531.657,1018.237 z" fill="#5F277F"/>
        <path d="M2769.421,536.474 L2916.368,738.728 L2678.604,815.983 L2531.657,613.728 z" fill="#8037AA"/>
        <path d="M3154.132,815.983 L3154.132,1065.983 L2916.368,988.728 L2916.368,738.729 z" fill="#8037AA"/>
        <path d="M3154.132,815.983 L2916.367,738.729 L2769.421,536.474 L3007.185,613.729 z" fill="#9D45D0"/>
        <path d="M2384.71,815.983 L2531.657,1018.237 L2531.657,1268.237 L2384.711,1065.983 z" fill="#411859"/>
        <path d="M3007.185,1268.237 L2769.421,1345.491 L2531.657,1268.237 L2769.421,1190.983 z" fill="#411859"/>
        <path d="M2916.367,988.729 L2769.421,1190.983 L2531.657,1268.237 L2678.603,1065.983 z" fill="#5F277F"/>
        <path d="M2531.657,1268.237 L2531.657,1018.237 L2678.603,815.983 L2678.603,1065.983 z" fill="#5F277F"/>
      </g>
      <g>
        <path d="M3244.951,2559.022 L3244.951,2809.022 L3007.187,2731.768 L3007.187,2481.768 z" fill="#5F277F"/>
        <path d="M3244.95,2559.022 L3098.004,2356.768 L3335.768,2279.513 L3482.715,2481.768 z" fill="#8037AA"/>
        <path d="M3244.951,2000.005 L3482.715,2077.259 L3335.769,2279.513 L3098.004,2202.259 z" fill="#5F277F"/>
        <path d="M3629.661,2279.513 L3482.715,2481.768 L3335.769,2279.513 L3482.715,2077.259 z" fill="#8037AA"/>
        <path d="M3482.715,2731.768 L3244.951,2809.022 L3244.951,2559.022 L3482.715,2481.768 z" fill="#8037AA"/>
        <path d="M3482.715,2731.768 L3482.715,2481.768 L3629.661,2279.513 L3629.661,2529.513 z" fill="#9D45D0"/>
        <path d="M3244.95,2000.005 L3098.004,2202.259 L2860.24,2279.513 L3007.187,2077.259 z" fill="#411859"/>
        <path d="M3007.187,2731.767 L2860.24,2529.513 L2860.24,2279.513 L3007.187,2481.767 z" fill="#411859"/>
        <path d="M3244.95,2559.021 L3007.186,2481.767 L2860.24,2279.513 L3098.004,2356.767 z" fill="#5F277F"/>
        <path d="M2860.24,2279.513 L3098.004,2202.259 L3335.769,2279.513 L3098.004,2356.767 z" fill="#5F277F"/>
      </g>
      <g>
        <path d="M1853.057,3356.763 L1615.293,3434.017 L1615.293,3184.017 L1853.057,3106.763 z" fill="#5F277F"/>
        <path d="M1853.057,3356.763 L2000.003,3154.509 L2146.949,3356.763 L2000.003,3559.017 z" fill="#8037AA"/>
        <path d="M2384.714,3184.017 L2384.714,3434.018 L2146.95,3356.763 L2146.95,3106.763 z" fill="#5F277F"/>
        <path d="M2237.768,3636.272 L2000.003,3559.017 L2146.95,3356.763 L2384.714,3434.018 z" fill="#8037AA"/>
        <path d="M1762.239,3636.271 L1615.293,3434.017 L1853.057,3356.763 L2000.003,3559.017 z" fill="#8037AA"/>
        <path d="M1762.239,3636.271 L2000.003,3559.017 L2237.768,3636.271 L2000.003,3713.526 z" fill="#9D45D0"/>
        <path d="M2384.714,3184.017 L2146.95,3106.763 L2000.004,2904.509 L2237.768,2981.763 z" fill="#411859"/>
        <path d="M1615.293,3184.017 L1762.24,2981.763 L2000.004,2904.508 L1853.057,3106.763 z" fill="#411859"/>
        <path d="M1853.057,3356.763 L1853.057,3106.763 L2000.004,2904.509 L2000.004,3154.509 z" fill="#5F277F"/>
        <path d="M2000.004,2904.508 L2146.95,3106.763 L2146.95,3356.763 L2000.004,3154.508 z" fill="#5F277F"/>
      </g>
      <g>
        <path d="M664.233,2279.504 L517.286,2077.25 L755.051,1999.996 L901.997,2202.25 z" fill="#5F277F"/>
        <path d="M664.233,2279.504 L901.997,2356.758 L755.051,2559.013 L517.287,2481.758 z" fill="#8037AA"/>
        <path d="M992.815,2731.759 L755.05,2809.013 L755.051,2559.013 L992.815,2481.759 z" fill="#5F277F"/>
        <path d="M517.286,2731.759 L517.286,2481.759 L755.05,2559.013 L755.05,2809.013 z" fill="#8037AA"/>
        <path d="M370.34,2279.504 L517.286,2077.25 L664.233,2279.504 L517.287,2481.759 z" fill="#8037AA"/>
        <path d="M370.34,2279.504 L517.287,2481.759 L517.287,2731.759 L370.34,2529.504 z" fill="#9D45D0"/>
        <path d="M992.815,2731.759 L992.815,2481.759 L1139.761,2279.504 L1139.761,2529.504 z" fill="#411859"/>
        <path d="M755.051,1999.996 L992.815,2077.25 L1139.761,2279.505 L901.997,2202.25 z" fill="#411859"/>
        <path d="M664.233,2279.504 L901.997,2202.25 L1139.762,2279.504 L901.997,2356.759 z" fill="#5F277F"/>
        <path d="M1139.762,2279.505 L992.815,2481.759 L755.051,2559.013 L901.997,2356.759 z" fill="#5F277F"/>
      </g>
      <g>
        <path d="M1321.399,815.981 L1468.345,613.727 L1615.292,815.981 L1468.345,1018.235 z" fill="#5F277F"/>
        <path d="M1321.399,815.981 L1321.399,1065.981 L1083.635,988.727 L1083.635,738.727 z" fill="#8037AA"/>
        <path d="M992.817,1268.236 L845.87,1065.981 L1083.635,988.727 L1230.581,1190.981 z" fill="#5F277F"/>
        <path d="M845.87,815.981 L1083.635,738.727 L1083.635,988.727 L845.87,1065.981 z" fill="#8037AA"/>
        <path d="M1230.581,536.473 L1468.345,613.727 L1321.399,815.981 L1083.635,738.727 z" fill="#8037AA"/>
        <path d="M1230.581,536.473 L1083.635,738.727 L845.87,815.981 L992.817,613.727 z" fill="#9D45D0"/>
        <path d="M992.817,1268.236 L1230.581,1190.982 L1468.345,1268.236 L1230.581,1345.49 z" fill="#411859"/>
        <path d="M1615.291,815.982 L1615.291,1065.982 L1468.345,1268.236 L1468.345,1018.236 z" fill="#411859"/>
        <path d="M1321.399,815.982 L1468.345,1018.236 L1468.345,1268.236 L1321.399,1065.982 z" fill="#5F277F"/>
        <path d="M1468.345,1268.236 L1230.581,1190.982 L1083.635,988.728 L1321.399,1065.982 z" fill="#5F277F"/>
      </g>
    </g>
    <g id="green3">
      <g>
        <path d="M3244.949,2559.017 L3244.949,2809.017 L3007.185,2731.763 L3007.185,2481.763 z" fill="#1BBA86"/>
        <path d="M3244.949,2559.017 L3098.003,2356.763 L3335.767,2279.509 L3482.713,2481.763 z" fill="#085C41"/>
        <path d="M3244.949,2000 L3482.714,2077.254 L3335.767,2279.508 L3098.003,2202.254 z" fill="#1BBA86"/>
        <path d="M3629.66,2279.509 L3482.713,2481.763 L3335.767,2279.508 L3482.713,2077.254 z" fill="#21D79C"/>
        <path d="M3482.713,2731.763 L3244.949,2809.017 L3244.949,2559.017 L3482.713,2481.763 z" fill="#21D79C"/>
        <path d="M3482.713,2731.763 L3482.713,2481.763 L3629.66,2279.508 L3629.66,2529.508 z" fill="#27F2B0"/>
        <path d="M3244.949,2000 L3098.003,2202.254 L2860.239,2279.509 L3007.185,2077.254 z" fill="#159D71"/>
        <path d="M3007.185,2731.763 L2860.239,2529.509 L2860.239,2279.509 L3007.185,2481.763 z" fill="#159D71"/>
        <path d="M3244.949,2559.017 L3007.185,2481.763 L2860.239,2279.509 L3098.003,2356.763 z" fill="#10815C"/>
        <path d="M3335.767,2279.508 L3098.003,2356.762 L2860.239,2279.508 L3098.003,2202.254 z" fill="#10815C"/>
      </g>
      <g>
        <path d="M1853.054,3356.765 L1615.29,3434.019 L1615.291,3184.019 L1853.055,3106.765 z" fill="#1BBA86"/>
        <path d="M1853.054,3356.765 L2000.001,3154.511 L2146.947,3356.765 L2000.001,3559.019 z" fill="#085C41"/>
        <path d="M2384.711,3184.019 L2384.711,3434.019 L2146.948,3356.765 L2146.947,3106.765 z" fill="#1BBA86"/>
        <path d="M2237.765,3636.274 L2000.001,3559.019 L2146.948,3356.765 L2384.711,3434.019 z" fill="#21D79C"/>
        <path d="M1762.237,3636.273 L1615.291,3434.019 L1853.055,3356.765 L2000.001,3559.019 z" fill="#21D79C"/>
        <path d="M1762.237,3636.273 L2000.001,3559.019 L2237.765,3636.273 L2000.001,3713.528 z" fill="#27F2B0"/>
        <path d="M2384.711,3184.019 L2146.947,3106.765 L2000.001,2904.511 L2237.765,2981.765 z" fill="#159D71"/>
        <path d="M1615.29,3184.019 L1762.237,2981.765 L2000.001,2904.511 L1853.054,3106.765 z" fill="#159D71"/>
        <path d="M1853.054,3356.765 L1853.055,3106.765 L2000.001,2904.51 L2000.001,3154.511 z" fill="#10815C"/>
        <path d="M2146.948,3356.765 L2000.001,3154.511 L2000.001,2904.51 L2146.948,3106.765 z" fill="#10815C"/>
      </g>
      <g>
        <path d="M664.238,2279.507 L517.291,2077.253 L755.056,1999.999 L902.002,2202.253 z" fill="#1BBA86"/>
        <path d="M664.238,2279.507 L902.002,2356.761 L755.056,2559.016 L517.292,2481.761 z" fill="#085C41"/>
        <path d="M992.819,2731.762 L755.055,2809.016 L755.055,2559.016 L992.82,2481.761 z" fill="#1BBA86"/>
        <path d="M517.291,2731.762 L517.291,2481.762 L755.056,2559.016 L755.055,2809.016 z" fill="#21D79C"/>
        <path d="M370.345,2279.508 L517.292,2077.253 L664.237,2279.508 L517.291,2481.762 z" fill="#21D79C"/>
        <path d="M370.345,2279.508 L517.292,2481.762 L517.292,2731.762 L370.345,2529.508 z" fill="#27F2B0"/>
        <path d="M992.82,2731.761 L992.82,2481.761 L1139.766,2279.507 L1139.766,2529.507 z" fill="#159D71"/>
        <path d="M755.055,1999.999 L992.82,2077.253 L1139.766,2279.507 L902.002,2202.253 z" fill="#159D71"/>
        <path d="M664.238,2279.507 L902.002,2202.253 L1139.766,2279.507 L902.002,2356.761 z" fill="#10815C"/>
        <path d="M755.056,2559.016 L902.002,2356.762 L1139.766,2279.508 L992.82,2481.762 z" fill="#10815C"/>
      </g>
      <g>
        <path d="M1321.399,815.985 L1468.346,613.731 L1615.292,815.985 L1468.346,1018.239 z" fill="#1BBA86"/>
        <path d="M1321.399,815.985 L1321.399,1065.985 L1083.635,988.73 L1083.635,738.731 z" fill="#085C41"/>
        <path d="M992.817,1268.239 L845.871,1065.985 L1083.635,988.731 L1230.581,1190.985 z" fill="#1BBA86"/>
        <path d="M845.871,815.985 L1083.635,738.731 L1083.635,988.731 L845.871,1065.985 z" fill="#21D79C"/>
        <path d="M1230.581,536.476 L1468.345,613.731 L1321.399,815.985 L1083.635,738.731 z" fill="#21D79C"/>
        <path d="M1230.582,536.476 L1083.635,738.731 L845.871,815.985 L992.817,613.731 z" fill="#27F2B0"/>
        <path d="M992.817,1268.239 L1230.581,1190.985 L1468.346,1268.239 L1230.581,1345.493 z" fill="#159D71"/>
        <path d="M1615.292,815.985 L1615.292,1065.985 L1468.346,1268.239 L1468.346,1018.239 z" fill="#159D71"/>
        <path d="M1321.399,815.985 L1468.346,1018.239 L1468.346,1268.239 L1321.399,1065.985 z" fill="#10815C"/>
        <path d="M1083.635,988.73 L1321.399,1065.985 L1468.345,1268.239 L1230.581,1190.985 z" fill="#10815C"/>
      </g>
      <g>
        <path d="M2916.362,988.731 L3154.126,1065.986 L3007.179,1268.24 L2769.415,1190.985 z" fill="#1BBA86"/>
        <path d="M2916.362,988.731 L2678.598,1065.985 L2678.598,815.986 L2916.362,738.731 z" fill="#085C41"/>
        <path d="M2384.705,815.985 L2531.651,613.731 L2678.597,815.985 L2531.651,1018.24 z" fill="#1BBA86"/>
        <path d="M2769.415,536.477 L2916.362,738.731 L2678.597,815.985 L2531.651,613.731 z" fill="#21D79C"/>
        <path d="M3154.126,815.985 L3154.126,1065.985 L2916.362,988.731 L2916.362,738.731 z" fill="#21D79C"/>
        <path d="M3154.126,815.985 L2916.361,738.731 L2769.415,536.477 L3007.179,613.731 z" fill="#27F2B0"/>
        <path d="M2384.705,815.985 L2531.651,1018.24 L2531.651,1268.24 L2384.705,1065.985 z" fill="#159D71"/>
        <path d="M3007.18,1268.24 L2769.416,1345.494 L2531.651,1268.24 L2769.416,1190.986 z" fill="#159D71"/>
        <path d="M2916.362,988.731 L2769.415,1190.985 L2531.651,1268.24 L2678.598,1065.986 z" fill="#10815C"/>
        <path d="M2678.597,815.985 L2678.597,1065.985 L2531.651,1268.24 L2531.651,1018.239 z" fill="#10815C"/>
      </g>
    </g>
    <g id="green2">
      <g>
        <path d="M1853.053,3356.763 L1615.289,3434.017 L1615.289,3184.018 L1853.054,3106.763 z" fill="#227A9E"/>
        <path d="M1853.053,3356.763 L2000,3154.509 L2146.946,3356.763 L2000,3559.018 z" fill="#227A9E"/>
        <path d="M2384.71,3184.018 L2384.71,3434.018 L2146.946,3356.763 L2146.946,3106.763 z" fill="#227A9E"/>
        <path d="M2237.764,3636.272 L2000,3559.018 L2146.946,3356.763 L2384.71,3434.018 z" fill="#2D99C5"/>
        <path d="M1762.236,3636.272 L1615.29,3434.018 L1853.054,3356.763 L2000,3559.018 z" fill="#2D99C5"/>
        <path d="M1762.236,3636.272 L2000,3559.018 L2237.764,3636.272 L2000,3713.526 z" fill="#3BBFF5"/>
        <path d="M2384.71,3184.017 L2146.946,3106.763 L2000,2904.509 L2237.764,2981.763 z" fill="#165873"/>
        <path d="M1615.289,3184.017 L1762.236,2981.763 L2000,2904.509 L1853.053,3106.763 z" fill="#165873"/>
        <path d="M1853.053,3356.763 L1853.053,3106.763 L2000,2904.509 L2000,3154.509 z" fill="#165873"/>
        <path d="M2146.946,3356.763 L2000,3154.509 L2000,2904.509 L2146.946,3106.763 z" fill="#165873"/>
      </g>
      <g>
        <path d="M664.233,2279.513 L517.286,2077.259 L755.051,2000.005 L901.997,2202.259 z" fill="#227A9E"/>
        <path d="M664.233,2279.513 L901.997,2356.767 L755.051,2559.022 L517.287,2481.767 z" fill="#227A9E"/>
        <path d="M992.814,2731.768 L755.05,2809.022 L755.05,2559.022 L992.815,2481.768 z" fill="#227A9E"/>
        <path d="M517.287,2731.768 L517.287,2481.768 L755.051,2559.022 L755.051,2809.022 z" fill="#2D99C5"/>
        <path d="M370.34,2279.513 L517.286,2077.259 L664.233,2279.513 L517.286,2481.768 z" fill="#2D99C5"/>
        <path d="M370.34,2279.513 L517.287,2481.768 L517.287,2731.768 L370.34,2529.513 z" fill="#3BBFF5"/>
        <path d="M992.815,2731.767 L992.815,2481.767 L1139.761,2279.513 L1139.761,2529.513 z" fill="#165873"/>
        <path d="M755.051,2000.005 L992.815,2077.259 L1139.761,2279.513 L901.997,2202.259 z" fill="#165873"/>
        <path d="M664.233,2279.513 L901.997,2202.259 L1139.761,2279.513 L901.997,2356.767 z" fill="#165873"/>
        <path d="M755.051,2559.022 L901.997,2356.768 L1139.761,2279.513 L992.815,2481.768 z" fill="#165873"/>
      </g>
      <g>
        <path d="M1321.401,815.986 L1468.348,613.732 L1615.294,815.986 L1468.347,1018.24 z" fill="#227A9E"/>
        <path d="M1321.401,815.986 L1321.401,1065.986 L1083.637,988.731 L1083.637,738.731 z" fill="#227A9E"/>
        <path d="M992.819,1268.24 L845.872,1065.986 L1083.637,988.732 L1230.583,1190.986 z" fill="#227A9E"/>
        <path d="M845.873,815.986 L1083.637,738.731 L1083.637,988.732 L845.873,1065.986 z" fill="#2D99C5"/>
        <path d="M1230.583,536.477 L1468.347,613.732 L1321.401,815.986 L1083.637,738.732 z" fill="#2D99C5"/>
        <path d="M1230.583,536.477 L1083.637,738.732 L845.873,815.986 L992.819,613.732 z" fill="#3BBFF5"/>
        <path d="M992.819,1268.24 L1230.583,1190.986 L1468.348,1268.24 L1230.583,1345.494 z" fill="#165873"/>
        <path d="M1615.294,815.986 L1615.294,1065.986 L1468.348,1268.24 L1468.348,1018.24 z" fill="#165873"/>
        <path d="M1321.401,815.986 L1468.348,1018.24 L1468.348,1268.24 L1321.401,1065.986 z" fill="#165873"/>
        <path d="M1083.637,988.732 L1321.401,1065.986 L1468.347,1268.24 L1230.583,1190.986 z" fill="#165873"/>
      </g>
      <g>
        <path d="M2916.37,988.729 L3154.134,1065.983 L3007.188,1268.237 L2769.424,1190.983 z" fill="#227A9E"/>
        <path d="M2916.37,988.729 L2678.606,1065.983 L2678.606,815.983 L2916.37,738.729 z" fill="#227A9E"/>
        <path d="M2384.713,815.983 L2531.66,613.728 L2678.606,815.983 L2531.659,1018.237 z" fill="#227A9E"/>
        <path d="M2769.424,536.474 L2916.37,738.728 L2678.606,815.983 L2531.659,613.728 z" fill="#2D99C5"/>
        <path d="M3154.134,815.983 L3154.134,1065.983 L2916.37,988.728 L2916.37,738.728 z" fill="#2D99C5"/>
        <path d="M3154.134,815.982 L2916.37,738.728 L2769.423,536.474 L3007.188,613.729 z" fill="#3BBFF5"/>
        <path d="M2384.713,815.983 L2531.659,1018.237 L2531.659,1268.237 L2384.713,1065.983 z" fill="#165873"/>
        <path d="M3007.188,1268.237 L2769.423,1345.492 L2531.659,1268.237 L2769.424,1190.983 z" fill="#165873"/>
        <path d="M2916.37,988.729 L2769.424,1190.983 L2531.659,1268.237 L2678.606,1065.983 z" fill="#165873"/>
        <path d="M2678.606,815.983 L2678.605,1065.983 L2531.659,1268.237 L2531.659,1018.237 z" fill="#165873"/>
      </g>
      <g>
        <path d="M3244.945,2559.018 L3244.945,2809.018 L3007.181,2731.763 L3007.181,2481.764 z" fill="#227A9E"/>
        <path d="M3244.945,2559.018 L3097.999,2356.763 L3335.763,2279.509 L3482.709,2481.763 z" fill="#227A9E"/>
        <path d="M3244.945,2000 L3482.709,2077.255 L3335.763,2279.509 L3097.999,2202.255 z" fill="#227A9E"/>
        <path d="M3629.656,2279.509 L3482.709,2481.763 L3335.763,2279.509 L3482.709,2077.255 z" fill="#2D99C5"/>
        <path d="M3482.709,2731.763 L3244.945,2809.017 L3244.945,2559.018 L3482.709,2481.763 z" fill="#2D99C5"/>
        <path d="M3482.709,2731.763 L3482.709,2481.763 L3629.656,2279.509 L3629.656,2529.509 z" fill="#3BBFF5"/>
        <path d="M3244.945,2000 L3097.999,2202.255 L2860.234,2279.509 L3007.181,2077.255 z" fill="#165873"/>
        <path d="M3007.181,2731.763 L2860.234,2529.509 L2860.234,2279.509 L3007.181,2481.763 z" fill="#165873"/>
        <path d="M3244.945,2559.018 L3007.181,2481.763 L2860.234,2279.509 L3097.999,2356.763 z" fill="#165873"/>
        <path d="M3335.763,2279.509 L3097.999,2356.763 L2860.235,2279.509 L3097.999,2202.255 z" fill="#165873"/>
      </g>
    </g>
    <g id="green1">
      <g>
        <path d="M664.233,2279.509 L517.287,2077.254 L755.051,2000 L901.997,2202.254 z" fill="#5E7618"/>
        <path d="M664.233,2279.509 L901.997,2356.763 L755.051,2559.017 L517.287,2481.763 z" fill="#2A3606"/>
        <path d="M992.815,2731.763 L755.051,2809.017 L755.051,2559.017 L992.815,2481.763 z" fill="#8FB229"/>
        <path d="M517.286,2731.763 L517.287,2481.763 L755.051,2559.017 L755.051,2809.017 z" fill="#7F9F23"/>
        <path d="M370.34,2279.509 L517.287,2077.255 L664.233,2279.509 L517.286,2481.763 z" fill="#67811B"/>
        <path d="M370.34,2279.509 L517.287,2481.763 L517.287,2731.763 L370.34,2529.509 z" fill="#749220"/>
        <path d="M992.815,2731.763 L992.815,2481.763 L1139.761,2279.509 L1139.761,2529.509 z" fill="#A5CD31"/>
        <path d="M755.05,2000 L992.815,2077.254 L1139.761,2279.509 L901.997,2202.254 z" fill="#506613"/>
        <path d="M1139.761,2279.509 L901.997,2356.763 L664.233,2279.509 L901.997,2202.254 z" fill="#40520D"/>
        <path d="M755.05,2559.017 L901.997,2356.763 L1139.761,2279.509 L992.815,2481.763 z" fill="#B7E337"/>
      </g>
      <g>
        <path d="M1321.398,815.983 L1468.344,613.729 L1615.291,815.984 L1468.344,1018.238 z" fill="#5E7618"/>
        <path d="M1321.398,815.983 L1321.398,1065.984 L1083.634,988.729 L1083.634,738.729 z" fill="#2A3606"/>
        <path d="M992.816,1268.237 L845.87,1065.983 L1083.634,988.729 L1230.58,1190.983 z" fill="#8FB229"/>
        <path d="M845.869,815.983 L1083.633,738.729 L1083.633,988.729 L845.869,1065.984 z" fill="#7F9F23"/>
        <path d="M1230.58,536.475 L1468.344,613.729 L1321.398,815.984 L1083.634,738.729 z" fill="#67811B"/>
        <path d="M1230.58,536.475 L1083.634,738.729 L845.87,815.984 L992.816,613.729 z" fill="#749220"/>
        <path d="M992.816,1268.238 L1230.58,1190.983 L1468.344,1268.238 L1230.58,1345.492 z" fill="#A5CD31"/>
        <path d="M1615.291,815.983 L1615.291,1065.983 L1468.344,1268.238 L1468.345,1018.237 z" fill="#506613"/>
        <path d="M1468.344,1268.238 L1321.398,1065.983 L1321.398,815.983 L1468.344,1018.238 z" fill="#40520D"/>
        <path d="M1083.634,988.729 L1321.398,1065.983 L1468.344,1268.238 L1230.58,1190.983 z" fill="#B7E337"/>
      </g>
      <g>
        <path d="M2916.372,988.732 L3154.136,1065.986 L3007.19,1268.24 L2769.426,1190.986 z" fill="#5E7618"/>
        <path d="M2916.373,988.732 L2678.608,1065.986 L2678.608,815.986 L2916.373,738.732 z" fill="#2A3606"/>
        <path d="M2384.716,815.986 L2531.662,613.732 L2678.608,815.986 L2531.662,1018.24 z" fill="#8FB229"/>
        <path d="M2769.426,536.477 L2916.373,738.731 L2678.608,815.986 L2531.662,613.731 z" fill="#7F9F23"/>
        <path d="M3154.137,815.986 L3154.136,1065.986 L2916.373,988.731 L2916.373,738.731 z" fill="#67811B"/>
        <path d="M3154.136,815.986 L2916.372,738.732 L2769.426,536.477 L3007.19,613.732 z" fill="#749220"/>
        <path d="M2384.716,815.986 L2531.662,1018.24 L2531.662,1268.24 L2384.716,1065.986 z" fill="#A5CD31"/>
        <path d="M3007.19,1268.24 L2769.426,1345.494 L2531.662,1268.24 L2769.426,1190.986 z" fill="#506613"/>
        <path d="M2531.662,1268.24 L2678.608,1065.986 L2916.372,988.732 L2769.426,1190.986 z" fill="#40520D"/>
        <path d="M2678.608,815.986 L2678.608,1065.986 L2531.662,1268.24 L2531.662,1018.24 z" fill="#B7E337"/>
      </g>
      <g>
        <path d="M3244.953,2559.016 L3244.953,2809.016 L3007.189,2731.761 L3007.189,2481.761 z" fill="#5E7618"/>
        <path d="M3244.953,2559.016 L3098.007,2356.762 L3335.771,2279.508 L3482.718,2481.762 z" fill="#2A3606"/>
        <path d="M3244.954,1999.999 L3482.718,2077.253 L3335.771,2279.507 L3098.007,2202.253 z" fill="#8FB229"/>
        <path d="M3629.664,2279.507 L3482.718,2481.761 L3335.771,2279.507 L3482.718,2077.253 z" fill="#7F9F23"/>
        <path d="M3482.718,2731.761 L3244.954,2809.016 L3244.954,2559.016 L3482.718,2481.761 z" fill="#67811B"/>
        <path d="M3482.718,2731.761 L3482.718,2481.761 L3629.664,2279.507 L3629.664,2529.507 z" fill="#749220"/>
        <path d="M3244.954,1999.999 L3098.007,2202.253 L2860.243,2279.508 L3007.189,2077.253 z" fill="#A5CD31"/>
        <path d="M3007.189,2731.762 L2860.243,2529.508 L2860.243,2279.508 L3007.189,2481.762 z" fill="#506613"/>
        <path d="M2860.243,2279.507 L3098.007,2356.762 L3244.953,2559.016 L3007.189,2481.762 z" fill="#40520D"/>
        <path d="M3335.771,2279.508 L3098.007,2356.762 L2860.243,2279.508 L3098.007,2202.253 z" fill="#B7E337"/>
      </g>
      <g>
        <path d="M1853.049,3356.763 L1615.285,3434.017 L1615.285,3184.017 L1853.049,3106.763 z" fill="#5E7618"/>
        <path d="M1853.049,3356.763 L1999.995,3154.509 L2146.941,3356.763 L1999.995,3559.017 z" fill="#2A3606"/>
        <path d="M2384.706,3184.017 L2384.706,3434.017 L2146.942,3356.763 L2146.942,3106.763 z" fill="#8FB229"/>
        <path d="M2237.76,3636.271 L1999.995,3559.017 L2146.942,3356.763 L2384.706,3434.017 z" fill="#7F9F23"/>
        <path d="M1762.231,3636.271 L1615.285,3434.017 L1853.049,3356.763 L1999.995,3559.017 z" fill="#67811B"/>
        <path d="M1762.231,3636.271 L1999.995,3559.017 L2237.76,3636.271 L1999.995,3713.526 z" fill="#749220"/>
        <path d="M2384.706,3184.017 L2146.942,3106.763 L1999.995,2904.509 L2237.759,2981.763 z" fill="#A5CD31"/>
        <path d="M1615.285,3184.017 L1762.231,2981.763 L1999.995,2904.509 L1853.049,3106.763 z" fill="#506613"/>
        <path d="M1999.995,2904.509 L1999.995,3154.509 L1853.049,3356.763 L1853.049,3106.763 z" fill="#40520D"/>
        <path d="M2146.942,3356.763 L1999.995,3154.509 L1999.995,2904.509 L2146.941,3106.763 z" fill="#B7E337"/>
      </g>
    </g>
  </g>
  <g id="blue">
    <g id="blue5">
      <g>
        <path d="M3098.003,1797.746 L3244.949,2000 L3007.185,2077.254 L2860.239,1875 z" fill="#5E7618"/>
        <path d="M3098.003,1797.746 L2860.239,1720.492 L3007.185,1518.238 L3244.949,1595.492 z" fill="#2A3606"/>
        <path d="M2769.421,1345.491 L3007.186,1268.237 L3007.185,1518.237 L2769.421,1595.491 z" fill="#8FB229"/>
        <path d="M3244.949,1345.491 L3244.949,1595.491 L3007.185,1518.237 L3007.186,1268.237 z" fill="#7F9F23"/>
        <path d="M3391.896,1797.746 L3244.949,2000 L3098.003,1797.746 L3244.949,1595.491 z" fill="#67811B"/>
        <path d="M3391.896,1797.746 L3244.949,1595.491 L3244.949,1345.491 L3391.896,1547.746 z" fill="#749220"/>
        <path d="M2769.421,1345.492 L2769.421,1595.492 L2622.475,1797.746 L2622.475,1547.746 z" fill="#A5CD31"/>
        <path d="M3007.186,2077.255 L2769.421,2000 L2622.475,1797.746 L2860.239,1875 z" fill="#506613"/>
        <path d="M2622.475,1797.746 L2860.239,1720.492 L3098.003,1797.746 L2860.239,1875 z" fill="#40520D"/>
        <path d="M3007.186,1518.237 L2860.239,1720.492 L2622.475,1797.746 L2769.421,1595.492 z" fill="#B7E337"/>
      </g>
      <g>
        <path d="M2531.657,2981.763 L2384.71,3184.017 L2237.764,2981.763 L2384.71,2779.509 z" fill="#5E7618"/>
        <path d="M2531.657,2981.763 L2531.657,2731.763 L2769.421,2809.018 L2769.421,3059.017 z" fill="#2A3606"/>
        <path d="M2860.239,2529.509 L3007.185,2731.763 L2769.421,2809.017 L2622.475,2606.763 z" fill="#8FB229"/>
        <path d="M3007.186,2981.763 L2769.421,3059.017 L2769.421,2809.017 L3007.186,2731.763 z" fill="#7F9F23"/>
        <path d="M2622.475,3261.271 L2384.711,3184.017 L2531.657,2981.763 L2769.421,3059.017 z" fill="#67811B"/>
        <path d="M2622.475,3261.271 L2769.421,3059.017 L3007.185,2981.763 L2860.239,3184.017 z" fill="#749220"/>
        <path d="M2860.239,2529.509 L2622.474,2606.763 L2384.71,2529.509 L2622.475,2452.255 z" fill="#A5CD31"/>
        <path d="M2237.764,2981.763 L2237.764,2731.763 L2384.71,2529.509 L2384.71,2779.509 z" fill="#506613"/>
        <path d="M2384.71,2529.509 L2531.657,2731.763 L2531.657,2981.763 L2384.71,2779.509 z" fill="#40520D"/>
        <path d="M2769.421,2809.018 L2531.657,2731.763 L2384.71,2529.509 L2622.475,2606.763 z" fill="#B7E337"/>
      </g>
      <g>
        <path d="M1230.579,2809.017 L992.815,2731.763 L1139.761,2529.509 L1377.525,2606.763 z" fill="#5E7618"/>
        <path d="M1230.579,2809.017 L1468.343,2731.763 L1468.343,2981.763 L1230.579,3059.017 z" fill="#2A3606"/>
        <path d="M1762.236,2981.763 L1615.29,3184.018 L1468.343,2981.763 L1615.29,2779.509 z" fill="#8FB229"/>
        <path d="M1377.526,3261.272 L1230.579,3059.018 L1468.343,2981.763 L1615.29,3184.018 z" fill="#7F9F23"/>
        <path d="M992.815,2981.763 L992.815,2731.763 L1230.579,2809.018 L1230.579,3059.018 z" fill="#67811B"/>
        <path d="M992.815,2981.763 L1230.579,3059.017 L1377.526,3261.272 L1139.761,3184.017 z" fill="#749220"/>
        <path d="M1762.236,2981.763 L1615.289,2779.509 L1615.289,2529.509 L1762.236,2731.763 z" fill="#A5CD31"/>
        <path d="M1139.761,2529.509 L1377.525,2452.255 L1615.289,2529.509 L1377.525,2606.763 z" fill="#506613"/>
        <path d="M1615.29,2529.509 L1468.343,2731.763 L1230.579,2809.017 L1377.525,2606.763 z" fill="#40520D"/>
        <path d="M1468.343,2981.763 L1468.343,2731.763 L1615.289,2529.509 L1615.289,2779.509 z" fill="#B7E337"/>
      </g>
      <g>
        <path d="M992.815,1518.237 L992.815,1268.237 L1230.579,1345.491 L1230.579,1595.492 z" fill="#5E7618"/>
        <path d="M992.815,1518.237 L1139.761,1720.491 L901.997,1797.745 L755.051,1595.491 z" fill="#2A3606"/>
        <path d="M992.815,2077.254 L755.051,2000 L901.997,1797.746 L1139.761,1875 z" fill="#8FB229"/>
        <path d="M608.104,1797.746 L755.051,1595.492 L901.997,1797.746 L755.051,2000 z" fill="#7F9F23"/>
        <path d="M755.05,1345.491 L992.815,1268.237 L992.815,1518.237 L755.05,1595.491 z" fill="#67811B"/>
        <path d="M755.051,1345.491 L755.051,1595.492 L608.104,1797.746 L608.104,1547.746 z" fill="#749220"/>
        <path d="M992.815,2077.254 L1139.761,1875 L1377.525,1797.745 L1230.579,2000 z" fill="#A5CD31"/>
        <path d="M1230.579,1345.491 L1377.525,1547.745 L1377.525,1797.745 L1230.579,1595.491 z" fill="#506613"/>
        <path d="M1377.525,1797.745 L1139.761,1720.491 L992.815,1518.237 L1230.579,1595.491 z" fill="#40520D"/>
        <path d="M901.997,1797.745 L1139.761,1720.491 L1377.525,1797.745 L1139.761,1875 z" fill="#B7E337"/>
      </g>
      <g>
        <path d="M2146.949,893.235 L2384.713,815.981 L2384.713,1065.981 L2146.949,1143.235 z" fill="#5E7618"/>
        <path d="M2146.949,893.235 L2000.003,1095.49 L1853.057,893.235 L2000.003,690.981 z" fill="#2A3606"/>
        <path d="M1615.292,1065.981 L1615.292,815.981 L1853.056,893.235 L1853.056,1143.235 z" fill="#8FB229"/>
        <path d="M1762.239,613.727 L2000.003,690.981 L1853.056,893.235 L1615.292,815.981 z" fill="#7F9F23"/>
        <path d="M2237.767,613.727 L2384.713,815.981 L2146.949,893.235 L2000.003,690.981 z" fill="#67811B"/>
        <path d="M2237.767,613.727 L2000.003,690.981 L1762.238,613.727 L2000.003,536.473 z" fill="#749220"/>
        <path d="M1615.292,1065.981 L1853.057,1143.235 L2000.003,1345.49 L1762.239,1268.235 z" fill="#A5CD31"/>
        <path d="M2384.714,1065.981 L2237.767,1268.235 L2000.003,1345.49 L2146.949,1143.235 z" fill="#506613"/>
        <path d="M2000.003,1345.49 L2000.003,1095.49 L2146.949,893.235 L2146.949,1143.235 z" fill="#40520D"/>
        <path d="M1853.057,893.235 L2000.003,1095.49 L2000.003,1345.489 L1853.057,1143.235 z" fill="#B7E337"/>
      </g>
    </g>
    <g id="blue4">
      <g>
        <path d="M2146.949,893.239 L2384.713,815.985 L2384.713,1065.985 L2146.949,1143.239 z" fill="#227A9E"/>
        <path d="M2146.949,893.239 L2000.003,1095.493 L1853.057,893.239 L2000.003,690.985 z" fill="#227A9E"/>
        <path d="M1615.292,1065.985 L1615.292,815.985 L1853.056,893.239 L1853.057,1143.239 z" fill="#227A9E"/>
        <path d="M1762.239,613.73 L2000.003,690.985 L1853.056,893.239 L1615.292,815.985 z" fill="#2D99C5"/>
        <path d="M2237.767,613.731 L2384.713,815.985 L2146.949,893.239 L2000.003,690.985 z" fill="#2D99C5"/>
        <path d="M2237.767,613.731 L2000.003,690.985 L1762.239,613.731 L2000.003,536.476 z" fill="#3BBFF5"/>
        <path d="M1615.292,1065.985 L1853.057,1143.239 L2000.003,1345.494 L1762.239,1268.239 z" fill="#165873"/>
        <path d="M2384.714,1065.985 L2237.767,1268.239 L2000.003,1345.494 L2146.949,1143.239 z" fill="#165873"/>
        <path d="M2146.949,893.239 L2146.949,1143.239 L2000.003,1345.494 L2000.003,1095.494 z" fill="#165873"/>
        <path d="M1853.056,893.239 L2000.003,1095.493 L2000.003,1345.493 L1853.057,1143.239 z" fill="#165873"/>
      </g>
      <g>
        <path d="M3098.003,1797.746 L3244.95,2000 L3007.186,2077.254 L2860.239,1875 z" fill="#227A9E"/>
        <path d="M3098.003,1797.746 L2860.239,1720.492 L3007.186,1518.238 L3244.949,1595.492 z" fill="#227A9E"/>
        <path d="M2769.422,1345.491 L3007.186,1268.237 L3007.186,1518.237 L2769.422,1595.492 z" fill="#227A9E"/>
        <path d="M3244.949,1345.491 L3244.949,1595.491 L3007.185,1518.237 L3007.185,1268.237 z" fill="#2D99C5"/>
        <path d="M3391.896,1797.746 L3244.95,2000 L3098.004,1797.746 L3244.95,1595.491 z" fill="#2D99C5"/>
        <path d="M3391.896,1797.746 L3244.95,1595.491 L3244.949,1345.491 L3391.896,1547.746 z" fill="#3BBFF5"/>
        <path d="M2769.421,1345.492 L2769.421,1595.492 L2622.475,1797.746 L2622.475,1547.746 z" fill="#165873"/>
        <path d="M3007.185,2077.255 L2769.421,2000 L2622.475,1797.746 L2860.239,1875 z" fill="#165873"/>
        <path d="M3098.003,1797.746 L2860.239,1875 L2622.475,1797.746 L2860.239,1720.492 z" fill="#165873"/>
        <path d="M3007.186,1518.237 L2860.239,1720.491 L2622.475,1797.746 L2769.421,1595.491 z" fill="#165873"/>
      </g>
      <g>
        <path d="M2531.657,2981.763 L2384.71,3184.018 L2237.764,2981.763 L2384.71,2779.509 z" fill="#227A9E"/>
        <path d="M2531.657,2981.763 L2531.657,2731.763 L2769.421,2809.018 L2769.421,3059.018 z" fill="#227A9E"/>
        <path d="M2860.239,2529.509 L3007.185,2731.763 L2769.421,2809.017 L2622.475,2606.763 z" fill="#227A9E"/>
        <path d="M3007.185,2981.763 L2769.421,3059.017 L2769.421,2809.017 L3007.185,2731.763 z" fill="#2D99C5"/>
        <path d="M2622.475,3261.272 L2384.711,3184.017 L2531.657,2981.763 L2769.421,3059.017 z" fill="#2D99C5"/>
        <path d="M2622.475,3261.271 L2769.421,3059.017 L3007.185,2981.763 L2860.239,3184.017 z" fill="#3BBFF5"/>
        <path d="M2860.239,2529.509 L2622.474,2606.763 L2384.71,2529.509 L2622.474,2452.255 z" fill="#165873"/>
        <path d="M2237.764,2981.763 L2237.764,2731.763 L2384.71,2529.509 L2384.71,2779.509 z" fill="#165873"/>
        <path d="M2531.656,2981.763 L2384.71,2779.509 L2384.71,2529.509 L2531.656,2731.763 z" fill="#165873"/>
        <path d="M2769.421,2809.018 L2531.657,2731.763 L2384.71,2529.509 L2622.475,2606.763 z" fill="#165873"/>
      </g>
      <g>
        <path d="M1230.579,2809.017 L992.815,2731.763 L1139.761,2529.509 L1377.526,2606.763 z" fill="#227A9E"/>
        <path d="M1230.579,2809.017 L1468.343,2731.763 L1468.343,2981.763 L1230.579,3059.017 z" fill="#227A9E"/>
        <path d="M1762.236,2981.763 L1615.29,3184.018 L1468.343,2981.763 L1615.29,2779.509 z" fill="#227A9E"/>
        <path d="M1377.526,3261.271 L1230.579,3059.017 L1468.343,2981.763 L1615.29,3184.017 z" fill="#2D99C5"/>
        <path d="M992.815,2981.763 L992.815,2731.763 L1230.579,2809.018 L1230.579,3059.018 z" fill="#2D99C5"/>
        <path d="M992.815,2981.763 L1230.579,3059.017 L1377.526,3261.271 L1139.761,3184.017 z" fill="#3BBFF5"/>
        <path d="M1762.236,2981.763 L1615.29,2779.508 L1615.29,2529.508 L1762.236,2731.763 z" fill="#165873"/>
        <path d="M1139.761,2529.508 L1377.526,2452.254 L1615.29,2529.508 L1377.526,2606.763 z" fill="#165873"/>
        <path d="M1230.579,2809.017 L1377.526,2606.763 L1615.29,2529.508 L1468.343,2731.763 z" fill="#165873"/>
        <path d="M1468.343,2981.763 L1468.344,2731.763 L1615.29,2529.509 L1615.29,2779.509 z" fill="#165873"/>
      </g>
      <g>
        <path d="M992.815,1518.237 L992.815,1268.237 L1230.579,1345.492 L1230.579,1595.491 z" fill="#227A9E"/>
        <path d="M992.815,1518.237 L1139.761,1720.492 L901.997,1797.746 L755.051,1595.492 z" fill="#227A9E"/>
        <path d="M992.815,2077.254 L755.05,2000 L901.997,1797.746 L1139.761,1875 z" fill="#227A9E"/>
        <path d="M608.104,1797.746 L755.051,1595.492 L901.997,1797.746 L755.051,2000 z" fill="#2D99C5"/>
        <path d="M755.05,1345.492 L992.815,1268.238 L992.815,1518.237 L755.05,1595.492 z" fill="#2D99C5"/>
        <path d="M755.051,1345.492 L755.05,1595.492 L608.104,1797.746 L608.104,1547.746 z" fill="#3BBFF5"/>
        <path d="M992.815,2077.254 L1139.761,1875 L1377.526,1797.746 L1230.579,2000 z" fill="#165873"/>
        <path d="M1230.579,1345.492 L1377.526,1547.746 L1377.526,1797.746 L1230.579,1595.492 z" fill="#165873"/>
        <path d="M992.815,1518.237 L1230.579,1595.492 L1377.525,1797.746 L1139.761,1720.491 z" fill="#165873"/>
        <path d="M901.997,1797.746 L1139.761,1720.492 L1377.525,1797.746 L1139.761,1875 z" fill="#165873"/>
      </g>
    </g>
    <g id="blue3">
      <g>
        <path d="M992.815,1518.237 L992.815,1268.237 L1230.579,1345.492 L1230.579,1595.492 z" fill="#1BBA86"/>
        <path d="M992.815,1518.237 L1139.761,1720.492 L901.997,1797.746 L755.051,1595.491 z" fill="#085C41"/>
        <path d="M992.815,2077.254 L755.051,2000 L901.997,1797.746 L1139.761,1875 z" fill="#1BBA86"/>
        <path d="M608.104,1797.746 L755.051,1595.492 L901.997,1797.746 L755.051,2000 z" fill="#21D79C"/>
        <path d="M755.051,1345.492 L992.815,1268.238 L992.815,1518.237 L755.051,1595.492 z" fill="#21D79C"/>
        <path d="M755.051,1345.492 L755.051,1595.492 L608.105,1797.746 L608.105,1547.746 z" fill="#27F2B0"/>
        <path d="M992.815,2077.254 L1139.761,1875 L1377.526,1797.746 L1230.579,2000 z" fill="#159D71"/>
        <path d="M1230.579,1345.491 L1377.525,1547.746 L1377.526,1797.746 L1230.579,1595.491 z" fill="#159D71"/>
        <path d="M992.815,1518.237 L1230.579,1595.492 L1377.526,1797.746 L1139.761,1720.491 z" fill="#10815C"/>
        <path d="M901.997,1797.746 L1139.761,1720.492 L1377.525,1797.746 L1139.761,1875 z" fill="#10815C"/>
      </g>
      <g>
        <path d="M2146.957,893.235 L2384.721,815.981 L2384.721,1065.981 L2146.957,1143.235 z" fill="#1BBA86"/>
        <path d="M2146.958,893.235 L2000.011,1095.49 L1853.065,893.235 L2000.011,690.981 z" fill="#085C41"/>
        <path d="M1615.3,1065.981 L1615.3,815.981 L1853.064,893.235 L1853.065,1143.235 z" fill="#1BBA86"/>
        <path d="M1762.247,613.727 L2000.011,690.981 L1853.064,893.235 L1615.3,815.981 z" fill="#21D79C"/>
        <path d="M2237.775,613.727 L2384.721,815.981 L2146.957,893.235 L2000.011,690.981 z" fill="#21D79C"/>
        <path d="M2237.775,613.727 L2000.011,690.981 L1762.247,613.727 L2000.011,536.473 z" fill="#27F2B0"/>
        <path d="M1615.301,1065.981 L1853.065,1143.235 L2000.011,1345.49 L1762.247,1268.235 z" fill="#159D71"/>
        <path d="M2384.722,1065.981 L2237.775,1268.235 L2000.011,1345.49 L2146.958,1143.235 z" fill="#159D71"/>
        <path d="M2146.957,893.235 L2146.957,1143.235 L2000.011,1345.49 L2000.011,1095.49 z" fill="#10815C"/>
        <path d="M1853.064,893.235 L2000.011,1095.49 L2000.011,1345.489 L1853.064,1143.235 z" fill="#10815C"/>
      </g>
      <g>
        <path d="M3098.003,1797.746 L3244.949,2000 L3007.185,2077.254 L2860.239,1875 z" fill="#1BBA86"/>
        <path d="M3098.003,1797.746 L2860.239,1720.492 L3007.186,1518.238 L3244.949,1595.492 z" fill="#085C41"/>
        <path d="M2769.421,1345.491 L3007.186,1268.237 L3007.185,1518.237 L2769.421,1595.491 z" fill="#1BBA86"/>
        <path d="M3244.95,1345.491 L3244.95,1595.491 L3007.185,1518.237 L3007.186,1268.237 z" fill="#21D79C"/>
        <path d="M3391.896,1797.746 L3244.949,2000 L3098.004,1797.746 L3244.95,1595.492 z" fill="#21D79C"/>
        <path d="M3391.896,1797.746 L3244.949,1595.491 L3244.949,1345.492 L3391.896,1547.746 z" fill="#27F2B0"/>
        <path d="M2769.421,1345.492 L2769.421,1595.492 L2622.475,1797.746 L2622.475,1547.746 z" fill="#159D71"/>
        <path d="M3007.186,2077.255 L2769.421,2000 L2622.475,1797.746 L2860.239,1875 z" fill="#159D71"/>
        <path d="M3098.003,1797.746 L2860.239,1875 L2622.475,1797.746 L2860.239,1720.492 z" fill="#10815C"/>
        <path d="M3007.185,1518.237 L2860.239,1720.491 L2622.475,1797.746 L2769.421,1595.491 z" fill="#10815C"/>
      </g>
      <g>
        <path d="M2531.657,2981.763 L2384.71,3184.017 L2237.764,2981.763 L2384.71,2779.509 z" fill="#1BBA86"/>
        <path d="M2531.656,2981.763 L2531.656,2731.763 L2769.42,2809.018 L2769.42,3059.018 z" fill="#085C41"/>
        <path d="M2860.239,2529.509 L3007.185,2731.763 L2769.421,2809.017 L2622.475,2606.763 z" fill="#1BBA86"/>
        <path d="M3007.185,2981.763 L2769.421,3059.017 L2769.421,2809.017 L3007.185,2731.763 z" fill="#21D79C"/>
        <path d="M2622.475,3261.271 L2384.71,3184.017 L2531.657,2981.763 L2769.421,3059.017 z" fill="#21D79C"/>
        <path d="M2622.474,3261.272 L2769.421,3059.017 L3007.185,2981.763 L2860.239,3184.017 z" fill="#27F2B0"/>
        <path d="M2860.239,2529.509 L2622.474,2606.763 L2384.71,2529.509 L2622.475,2452.255 z" fill="#159D71"/>
        <path d="M2237.764,2981.763 L2237.764,2731.763 L2384.71,2529.509 L2384.71,2779.509 z" fill="#159D71"/>
        <path d="M2531.657,2981.763 L2384.71,2779.509 L2384.71,2529.509 L2531.656,2731.763 z" fill="#10815C"/>
        <path d="M2769.421,2809.018 L2531.657,2731.763 L2384.71,2529.509 L2622.475,2606.763 z" fill="#10815C"/>
      </g>
      <g>
        <path d="M1230.579,2809.017 L992.815,2731.763 L1139.761,2529.509 L1377.526,2606.763 z" fill="#1BBA86"/>
        <path d="M1230.579,2809.017 L1468.343,2731.763 L1468.343,2981.763 L1230.579,3059.017 z" fill="#085C41"/>
        <path d="M1762.236,2981.763 L1615.29,3184.017 L1468.343,2981.763 L1615.29,2779.509 z" fill="#1BBA86"/>
        <path d="M1377.525,3261.272 L1230.579,3059.018 L1468.343,2981.763 L1615.29,3184.018 z" fill="#21D79C"/>
        <path d="M992.815,2981.763 L992.815,2731.763 L1230.579,2809.017 L1230.579,3059.017 z" fill="#21D79C"/>
        <path d="M992.815,2981.763 L1230.579,3059.017 L1377.526,3261.271 L1139.762,3184.017 z" fill="#27F2B0"/>
        <path d="M1762.236,2981.763 L1615.29,2779.509 L1615.289,2529.509 L1762.236,2731.763 z" fill="#159D71"/>
        <path d="M1139.761,2529.509 L1377.525,2452.255 L1615.289,2529.509 L1377.525,2606.763 z" fill="#159D71"/>
        <path d="M1230.579,2809.017 L1377.526,2606.763 L1615.29,2529.509 L1468.343,2731.763 z" fill="#10815C"/>
        <path d="M1468.344,2981.763 L1468.344,2731.763 L1615.29,2529.509 L1615.29,2779.509 z" fill="#10815C"/>
      </g>
    </g>
    <g id="blue2">
      <g>
        <path d="M1230.579,2809.017 L992.815,2731.763 L1139.761,2529.509 L1377.525,2606.763 z" fill="#5F277F"/>
        <path d="M1230.579,2809.017 L1468.343,2731.763 L1468.343,2981.763 L1230.579,3059.017 z" fill="#8037AA"/>
        <path d="M1762.236,2981.763 L1615.289,3184.018 L1468.343,2981.763 L1615.29,2779.509 z" fill="#5F277F"/>
        <path d="M1377.525,3261.272 L1230.579,3059.017 L1468.343,2981.763 L1615.29,3184.018 z" fill="#8037AA"/>
        <path d="M992.815,2981.763 L992.815,2731.763 L1230.579,2809.017 L1230.579,3059.017 z" fill="#8037AA"/>
        <path d="M992.815,2981.763 L1230.579,3059.017 L1377.526,3261.272 L1139.761,3184.017 z" fill="#9D45D0"/>
        <path d="M1762.236,2981.763 L1615.29,2779.509 L1615.29,2529.509 L1762.236,2731.763 z" fill="#411859"/>
        <path d="M1139.762,2529.509 L1377.526,2452.255 L1615.29,2529.509 L1377.526,2606.763 z" fill="#411859"/>
        <path d="M1230.579,2809.017 L1377.526,2606.763 L1615.29,2529.509 L1468.344,2731.763 z" fill="#5F277F"/>
        <path d="M1615.29,2529.509 L1615.29,2779.509 L1468.344,2981.763 L1468.344,2731.763 z" fill="#5F277F"/>
      </g>
      <g>
        <path d="M992.815,1518.237 L992.815,1268.237 L1230.579,1345.491 L1230.579,1595.491 z" fill="#5F277F"/>
        <path d="M992.815,1518.237 L1139.761,1720.491 L901.997,1797.746 L755.051,1595.491 z" fill="#8037AA"/>
        <path d="M992.815,2077.254 L755.051,2000 L901.997,1797.746 L1139.761,1875 z" fill="#5F277F"/>
        <path d="M608.104,1797.746 L755.051,1595.491 L901.997,1797.746 L755.051,2000 z" fill="#8037AA"/>
        <path d="M755.051,1345.491 L992.815,1268.237 L992.815,1518.237 L755.051,1595.491 z" fill="#8037AA"/>
        <path d="M755.051,1345.491 L755.051,1595.491 L608.104,1797.746 L608.105,1547.746 z" fill="#9D45D0"/>
        <path d="M992.815,2077.254 L1139.761,1875 L1377.525,1797.746 L1230.579,2000 z" fill="#411859"/>
        <path d="M1230.579,1345.492 L1377.525,1547.746 L1377.526,1797.746 L1230.579,1595.492 z" fill="#411859"/>
        <path d="M992.815,1518.237 L1230.579,1595.492 L1377.526,1797.746 L1139.761,1720.492 z" fill="#5F277F"/>
        <path d="M1377.526,1797.746 L1139.761,1875 L901.997,1797.746 L1139.761,1720.492 z" fill="#5F277F"/>
      </g>
      <g>
        <path d="M2146.949,893.239 L2384.714,815.985 L2384.714,1065.985 L2146.949,1143.239 z" fill="#5F277F"/>
        <path d="M2146.949,893.239 L2000.003,1095.493 L1853.057,893.239 L2000.003,690.985 z" fill="#8037AA"/>
        <path d="M1615.292,1065.985 L1615.292,815.985 L1853.057,893.239 L1853.057,1143.239 z" fill="#5F277F"/>
        <path d="M1762.239,613.731 L2000.003,690.985 L1853.057,893.239 L1615.292,815.985 z" fill="#8037AA"/>
        <path d="M2237.767,613.731 L2384.713,815.985 L2146.949,893.239 L2000.003,690.985 z" fill="#8037AA"/>
        <path d="M2237.767,613.731 L2000.003,690.985 L1762.239,613.731 L2000.003,536.476 z" fill="#9D45D0"/>
        <path d="M1615.292,1065.985 L1853.057,1143.239 L2000.003,1345.493 L1762.239,1268.239 z" fill="#411859"/>
        <path d="M2384.713,1065.985 L2237.767,1268.239 L2000.003,1345.494 L2146.949,1143.24 z" fill="#411859"/>
        <path d="M2146.949,893.239 L2146.949,1143.239 L2000.003,1345.494 L2000.003,1095.494 z" fill="#5F277F"/>
        <path d="M2000.003,1345.494 L1853.056,1143.24 L1853.056,893.239 L2000.003,1095.494 z" fill="#5F277F"/>
      </g>
      <g>
        <path d="M3098.003,1797.746 L3244.95,2000 L3007.186,2077.254 L2860.24,1875 z" fill="#5F277F"/>
        <path d="M3098.003,1797.746 L2860.239,1720.492 L3007.186,1518.238 L3244.95,1595.492 z" fill="#8037AA"/>
        <path d="M2769.421,1345.491 L3007.186,1268.237 L3007.185,1518.237 L2769.421,1595.491 z" fill="#5F277F"/>
        <path d="M3244.95,1345.491 L3244.949,1595.491 L3007.185,1518.237 L3007.186,1268.237 z" fill="#8037AA"/>
        <path d="M3391.896,1797.746 L3244.95,2000 L3098.003,1797.746 L3244.95,1595.491 z" fill="#8037AA"/>
        <path d="M3391.896,1797.746 L3244.95,1595.491 L3244.95,1345.491 L3391.896,1547.746 z" fill="#9D45D0"/>
        <path d="M2769.421,1345.491 L2769.421,1595.491 L2622.475,1797.746 L2622.475,1547.746 z" fill="#411859"/>
        <path d="M3007.185,2077.254 L2769.421,2000 L2622.475,1797.745 L2860.239,1875 z" fill="#411859"/>
        <path d="M3098.003,1797.746 L2860.239,1875 L2622.475,1797.746 L2860.239,1720.491 z" fill="#5F277F"/>
        <path d="M2622.475,1797.745 L2769.421,1595.491 L3007.185,1518.237 L2860.239,1720.491 z" fill="#5F277F"/>
      </g>
      <g>
        <path d="M2531.656,2981.763 L2384.71,3184.018 L2237.764,2981.763 L2384.71,2779.509 z" fill="#5F277F"/>
        <path d="M2531.656,2981.763 L2531.656,2731.763 L2769.421,2809.018 L2769.421,3059.018 z" fill="#8037AA"/>
        <path d="M2860.239,2529.509 L3007.185,2731.763 L2769.421,2809.018 L2622.474,2606.763 z" fill="#5F277F"/>
        <path d="M3007.185,2981.763 L2769.421,3059.017 L2769.421,2809.018 L3007.185,2731.763 z" fill="#8037AA"/>
        <path d="M2622.475,3261.272 L2384.711,3184.018 L2531.657,2981.763 L2769.421,3059.018 z" fill="#8037AA"/>
        <path d="M2622.475,3261.272 L2769.421,3059.017 L3007.185,2981.763 L2860.239,3184.017 z" fill="#9D45D0"/>
        <path d="M2860.239,2529.509 L2622.475,2606.763 L2384.71,2529.509 L2622.475,2452.255 z" fill="#411859"/>
        <path d="M2237.764,2981.763 L2237.764,2731.763 L2384.71,2529.509 L2384.71,2779.509 z" fill="#411859"/>
        <path d="M2531.657,2981.763 L2384.71,2779.509 L2384.71,2529.509 L2531.657,2731.763 z" fill="#5F277F"/>
        <path d="M2384.71,2529.509 L2622.475,2606.763 L2769.421,2809.017 L2531.657,2731.763 z" fill="#5F277F"/>
      </g>
    </g>
    <g id="blue1">
      <g>
        <path d="M2531.657,2981.763 L2384.71,3184.017 L2237.764,2981.763 L2384.71,2779.509 z" fill="#1B5A7C"/>
        <path d="M2531.656,2981.763 L2531.657,2731.763 L2769.421,2809.018 L2769.421,3059.017 z" fill="#3192C5"/>
        <path d="M2860.239,2529.509 L3007.185,2731.763 L2769.421,2809.017 L2622.475,2606.763 z" fill="#1B5A7C"/>
        <path d="M3007.185,2981.763 L2769.421,3059.018 L2769.421,2809.018 L3007.185,2731.763 z" fill="#39A6E1"/>
        <path d="M2622.475,3261.271 L2384.711,3184.017 L2531.657,2981.763 L2769.421,3059.017 z" fill="#39A6E1"/>
        <path d="M2622.475,3261.272 L2769.421,3059.017 L3007.185,2981.763 L2860.239,3184.017 z" fill="#40B8F8"/>
        <path d="M2237.764,2981.763 L2237.764,2731.763 L2384.71,2529.509 L2384.71,2779.509 z" fill="#12445F"/>
        <path d="M2860.239,2529.509 L2622.474,2606.763 L2384.71,2529.509 L2622.474,2452.255 z" fill="#12445F"/>
        <path d="M2384.71,2529.509 L2531.657,2731.763 L2531.657,2981.763 L2384.71,2779.509 z" fill="#25749F"/>
        <path d="M2769.421,2809.017 L2531.657,2731.763 L2384.71,2529.509 L2622.475,2606.763 z" fill="#25749F"/>
      </g>
      <g>
        <path d="M1230.579,2809.017 L992.815,2731.763 L1139.761,2529.509 L1377.525,2606.763 z" fill="#1B5A7C"/>
        <path d="M1230.579,2809.017 L1468.343,2731.763 L1468.343,2981.763 L1230.579,3059.017 z" fill="#3192C5"/>
        <path d="M1762.236,2981.763 L1615.289,3184.018 L1468.343,2981.763 L1615.289,2779.509 z" fill="#1B5A7C"/>
        <path d="M1377.525,3261.272 L1230.579,3059.018 L1468.343,2981.764 L1615.29,3184.018 z" fill="#39A6E1"/>
        <path d="M992.815,2981.763 L992.815,2731.763 L1230.579,2809.018 L1230.579,3059.018 z" fill="#39A6E1"/>
        <path d="M992.815,2981.763 L1230.579,3059.017 L1377.526,3261.272 L1139.761,3184.017 z" fill="#40B8F8"/>
        <path d="M1139.761,2529.509 L1377.525,2452.254 L1615.29,2529.509 L1377.525,2606.763 z" fill="#12445F"/>
        <path d="M1762.236,2981.763 L1615.289,2779.509 L1615.289,2529.509 L1762.236,2731.763 z" fill="#12445F"/>
        <path d="M1615.29,2529.509 L1468.343,2731.763 L1230.579,2809.017 L1377.526,2606.763 z" fill="#25749F"/>
        <path d="M1468.343,2981.763 L1468.343,2731.763 L1615.29,2529.509 L1615.29,2779.509 z" fill="#25749F"/>
      </g>
      <g>
        <path d="M992.815,1518.237 L992.815,1268.237 L1230.579,1345.491 L1230.579,1595.491 z" fill="#1B5A7C"/>
        <path d="M992.815,1518.237 L1139.761,1720.491 L901.997,1797.746 L755.051,1595.491 z" fill="#3192C5"/>
        <path d="M992.815,2077.254 L755.05,2000 L901.997,1797.746 L1139.761,1875 z" fill="#1B5A7C"/>
        <path d="M608.104,1797.746 L755.05,1595.491 L901.997,1797.746 L755.05,2000 z" fill="#39A6E1"/>
        <path d="M755.051,1345.492 L992.815,1268.237 L992.815,1518.237 L755.051,1595.492 z" fill="#39A6E1"/>
        <path d="M755.051,1345.491 L755.051,1595.492 L608.104,1797.746 L608.104,1547.746 z" fill="#40B8F8"/>
        <path d="M1230.579,1345.491 L1377.525,1547.746 L1377.525,1797.746 L1230.579,1595.491 z" fill="#12445F"/>
        <path d="M992.815,2077.254 L1139.761,1875 L1377.526,1797.746 L1230.579,2000 z" fill="#12445F"/>
        <path d="M1377.525,1797.746 L1139.761,1720.491 L992.815,1518.237 L1230.579,1595.492 z" fill="#25749F"/>
        <path d="M901.997,1797.746 L1139.761,1720.492 L1377.525,1797.746 L1139.761,1875 z" fill="#25749F"/>
      </g>
      <g>
        <path d="M2146.952,893.239 L2384.716,815.985 L2384.716,1065.985 L2146.952,1143.239 z" fill="#1B5A7C"/>
        <path d="M2146.952,893.239 L2000.005,1095.493 L1853.059,893.239 L2000.006,690.985 z" fill="#3192C5"/>
        <path d="M1615.295,1065.985 L1615.295,815.985 L1853.059,893.239 L1853.059,1143.239 z" fill="#1B5A7C"/>
        <path d="M1762.241,613.73 L2000.005,690.985 L1853.059,893.239 L1615.295,815.985 z" fill="#39A6E1"/>
        <path d="M2237.77,613.73 L2384.716,815.985 L2146.952,893.239 L2000.005,690.985 z" fill="#39A6E1"/>
        <path d="M2237.77,613.731 L2000.005,690.985 L1762.241,613.731 L2000.005,536.476 z" fill="#40B8F8"/>
        <path d="M2384.716,1065.985 L2237.77,1268.239 L2000.005,1345.494 L2146.952,1143.239 z" fill="#12445F"/>
        <path d="M1615.295,1065.985 L1853.059,1143.239 L2000.006,1345.494 L1762.241,1268.239 z" fill="#12445F"/>
        <path d="M2000.005,1345.494 L2000.005,1095.493 L2146.952,893.239 L2146.952,1143.239 z" fill="#25749F"/>
        <path d="M1853.059,893.239 L2000.005,1095.493 L2000.005,1345.494 L1853.059,1143.239 z" fill="#25749F"/>
      </g>
      <g>
        <path d="M3098.004,1797.746 L3244.95,2000 L3007.186,2077.254 L2860.239,1875 z" fill="#1B5A7C"/>
        <path d="M3098.003,1797.746 L2860.24,1720.492 L3007.186,1518.238 L3244.95,1595.492 z" fill="#3192C5"/>
        <path d="M2769.421,1345.491 L3007.186,1268.237 L3007.186,1518.237 L2769.421,1595.492 z" fill="#1B5A7C"/>
        <path d="M3244.95,1345.491 L3244.95,1595.491 L3007.186,1518.237 L3007.186,1268.237 z" fill="#39A6E1"/>
        <path d="M3391.896,1797.746 L3244.95,2000 L3098.004,1797.746 L3244.95,1595.491 z" fill="#39A6E1"/>
        <path d="M3391.896,1797.746 L3244.95,1595.492 L3244.95,1345.492 L3391.896,1547.746 z" fill="#40B8F8"/>
        <path d="M3007.186,2077.255 L2769.421,2000 L2622.475,1797.746 L2860.239,1875 z" fill="#12445F"/>
        <path d="M2769.421,1345.492 L2769.421,1595.492 L2622.475,1797.746 L2622.475,1547.746 z" fill="#12445F"/>
        <path d="M2622.475,1797.746 L2860.239,1720.492 L3098.003,1797.746 L2860.239,1875 z" fill="#25749F"/>
        <path d="M3007.186,1518.237 L2860.239,1720.492 L2622.475,1797.746 L2769.421,1595.492 z" fill="#25749F"/>
      </g>
    </g>
  </g>
</svg>
