<?xml version="1.0" encoding="UTF-8"?>
<!DOCTYPE svg PUBLIC "-//W3C//DTD SVG 1.1//EN" "http://www.w3.org/Graphics/SVG/1.1/DTD/svg11.dtd">
<svg version="1.1" xmlns="http://www.w3.org/2000/svg" xmlns:xlink="http://www.w3.org/1999/xlink" x="0" y="0" width="4000" height="4000" viewBox="0, 0, 4000, 4000">
  <g id="Layer_4" display="none">
    <g>
      <path d="M2157.852,2197.939 L2109.848,2228.102 L2056.337,2246.826 L2000,2253.174 L1943.664,2246.826 L1890.152,2228.102 L1842.149,2197.939 L1802.061,2157.851 L1771.899,2109.848 L1753.174,2056.336 L1746.827,2000 L1753.174,1943.663 L1771.899,1890.152 L1802.061,1842.149 L1842.149,1802.061 L1890.153,1771.898 L1943.664,1753.174 L2000.001,1746.826 L2056.337,1753.174 L2109.849,1771.899 L2157.852,1802.061 L2197.94,1842.149 L2228.102,1890.152 L2246.827,1943.664 L2253.174,2000 L2246.827,2056.337 L2228.102,2109.848 L2197.939,2157.852 z" fill="#959595" fill-opacity="0.473"/>
      <path d="M2000.001,1746.826 L2056.337,1753.174 L2109.849,1771.899 L2157.852,1802.061 L2197.94,1842.149 L2228.102,1890.152 L2246.827,1943.664 L2253.174,2000 L2246.826,2056.337 L2228.102,2109.848 L2197.939,2157.852 L2157.852,2197.939 L2109.848,2228.102 L2056.337,2246.826 L2000,2253.174 L1943.664,2246.826 L1890.152,2228.102 L1842.149,2197.939 L1802.061,2157.851 L1771.899,2109.848 L1753.174,2056.336 L1746.827,2000 L1753.174,1943.663 L1771.899,1890.152 L1802.061,1842.149 L1842.149,1802.061 L1890.153,1771.898 L1943.664,1753.174 L2000.001,1746.826 z M2000.001,1747.333 L1943.777,1753.667 L1890.372,1772.354 L1842.465,1802.456 L1802.457,1842.464 L1772.355,1890.372 L1753.668,1943.776 L1747.333,2000 L1753.668,2056.224 L1772.355,2109.628 L1802.457,2157.535 L1842.465,2197.543 L1890.372,2227.645 L1943.777,2246.333 L2000,2252.667 L2056.224,2246.333 L2109.629,2227.646 L2157.536,2197.543 L2197.544,2157.536 L2227.646,2109.629 L2246.333,2056.224 L2252.668,2000 L2246.333,1943.776 L2227.646,1890.372 L2197.544,1842.465 L2157.536,1802.457 L2109.629,1772.355 L2056.225,1753.668 L2000.001,1747.333 z" fill="#000000"/>
    </g>
  </g>
  <g id="Layer_3">
    <g>
      <g>
        <path d="M1944.017,2245.274 L2000,2000 L2055.982,2245.274 L1999.999,2490.548 z" fill="#597D9D" fill-opacity="0.57"/>
        <path d="M2000,2000 L2055.982,2245.274 L1999.999,2490.548 L1944.017,2245.274 L2000,2000 z M2000,2002.247 L1944.53,2245.274 L1999.999,2488.301 L2055.469,2245.274 L2000,2002.247 z" fill="#000000"/>
      </g>
      <g>
        <path d="M2055.982,2245.274 L2000,2000 L2156.859,2196.695 L2212.841,2441.969 z" fill="#597D9D" fill-opacity="0.57"/>
        <path d="M2000,2000 L2156.859,2196.695 L2212.841,2441.969 L2055.982,2245.274 L2000,2000 z M2000.975,2002.024 L2056.445,2245.052 L2211.865,2439.944 L2156.397,2196.917 L2000.975,2002.024 z" fill="#000000"/>
      </g>
      <g>
        <path d="M2156.859,2196.695 L2000,2000 L2226.667,2109.157 L2393.389,2313.718 z" fill="#597D9D" fill-opacity="0.57"/>
        <path d="M2000,2000 L2226.667,2109.157 L2393.389,2313.718 L2156.859,2196.695 L2000,2000 z M2001.757,2001.401 L2157.18,2196.296 L2391.546,2312.248 L2226.35,2109.56 L2001.757,2001.401 z" fill="#000000"/>
      </g>
      <g>
        <path d="M2000,2000 L2251.582,2000 L2478.25,2109.158 L2226.667,2109.157 z" fill="#597D9D" fill-opacity="0.57"/>
        <path d="M2000,2000 L2251.582,2000 L2478.25,2109.158 L2226.667,2109.157 L2000,2000 z M2002.19,2000.5 L2226.781,2108.657 L2476.059,2108.658 L2251.468,2000.5 L2002.19,2000.5 z" fill="#000000"/>
      </g>
      <g>
        <path d="M1944.018,2245.274 L2000,2000 L1843.141,2196.695 L1787.159,2441.969 z" fill="#597D9D" fill-opacity="0.57"/>
        <path d="M2000,2000 L1944.017,2245.274 L1787.159,2441.969 L1843.141,2196.695 L2000,2000 z M1999.025,2002.024 L1843.603,2196.917 L1788.134,2439.944 L1943.555,2245.052 L1999.025,2002.024 z" fill="#000000"/>
      </g>
      <g>
        <path d="M1843.141,2196.695 L2000,2000 L1773.333,2109.157 L1606.611,2313.718 z" fill="#597D9D" fill-opacity="0.57"/>
        <path d="M2000,2000 L1843.141,2196.695 L1606.611,2313.718 L1773.332,2109.157 L2000,2000 z M1998.243,2001.401 L1773.65,2109.56 L1608.453,2312.248 L1842.819,2196.296 L1998.243,2001.401 z" fill="#000000"/>
      </g>
      <g>
        <path d="M2000,2000 L1748.418,2000 L1521.75,2109.158 L1773.333,2109.157 z" fill="#597D9D" fill-opacity="0.57"/>
        <path d="M2000,2000 L1773.332,2109.157 L1521.75,2109.158 L1748.418,2000 L2000,2000 z M1997.809,2000.5 L1748.532,2000.5 L1523.941,2108.658 L1773.219,2108.657 L1997.809,2000.5 z" fill="#000000"/>
      </g>
      <g>
        <path d="M2055.983,1754.726 L2000,2000 L1944.018,1754.726 L2000.001,1509.452 z" fill="#597D9D" fill-opacity="0.57"/>
        <path d="M2000.001,1509.452 L2055.983,1754.726 L2000,2000 L1944.018,1754.726 L2000.001,1509.452 z M2000.001,1511.699 L1944.531,1754.726 L2000,1997.753 L2055.47,1754.726 L2000.001,1511.699 z" fill="#000000"/>
      </g>
      <g>
        <path d="M1944.018,1754.726 L2000,2000 L1843.141,1803.305 L1787.159,1558.031 z" fill="#597D9D" fill-opacity="0.57"/>
        <path d="M1787.159,1558.031 L1944.017,1754.726 L2000,2000 L1843.141,1803.305 L1787.159,1558.031 z M1788.134,1560.056 L1843.603,1803.083 L1999.025,1997.976 L1943.555,1754.948 L1788.134,1560.056 z" fill="#000000"/>
      </g>
      <g>
        <path d="M1843.141,1803.305 L2000,2000 L1773.333,1890.842 L1606.611,1686.282 z" fill="#597D9D" fill-opacity="0.57"/>
        <path d="M1606.611,1686.282 L1843.141,1803.305 L2000,2000 L1773.332,1890.842 L1606.611,1686.282 z M1608.453,1687.751 L1773.65,1890.44 L1998.243,1998.599 L1842.819,1803.704 L1608.453,1687.751 z" fill="#000000"/>
      </g>
      <g>
        <path d="M2000,2000 L1748.418,2000 L1521.75,1890.842 L1773.333,1890.842 z" fill="#597D9D" fill-opacity="0.57"/>
        <path d="M1521.75,1890.842 L1773.332,1890.842 L2000,2000 L1748.418,2000 L1521.75,1890.842 z M1523.941,1891.342 L1748.532,1999.5 L1997.809,1999.5 L1773.218,1891.342 L1523.941,1891.342 z" fill="#000000"/>
      </g>
      <g>
        <path d="M2055.982,1754.726 L2000,2000 L2156.859,1803.305 L2212.841,1558.031 z" fill="#597D9D" fill-opacity="0.57"/>
        <path d="M2212.841,1558.031 L2156.859,1803.305 L2000,2000 L2055.982,1754.726 L2212.841,1558.031 z M2211.865,1560.056 L2056.445,1754.948 L2000.975,1997.976 L2156.397,1803.083 L2211.865,1560.056 z" fill="#000000"/>
      </g>
      <g>
        <path d="M2156.859,1803.305 L2000,2000 L2226.667,1890.842 L2393.389,1686.282 z" fill="#597D9D" fill-opacity="0.57"/>
        <path d="M2393.389,1686.282 L2226.667,1890.842 L2000,2000 L2156.859,1803.305 L2393.389,1686.282 z M2391.546,1687.751 L2157.18,1803.704 L2001.757,1998.599 L2226.35,1890.44 L2391.546,1687.751 z" fill="#000000"/>
      </g>
      <g>
        <path d="M2000,2000 L2251.582,2000 L2478.25,1890.842 L2226.667,1890.842 z" fill="#597D9D" fill-opacity="0.57"/>
        <path d="M2478.25,1890.842 L2251.582,2000 L2000,2000 L2226.667,1890.842 L2478.25,1890.842 z M2476.059,1891.342 L2226.781,1891.342 L2002.191,1999.5 L2251.468,1999.5 L2476.059,1891.342 z" fill="#000000"/>
      </g>
    </g>
    <g>
      <g>
        <path d="M2000.001,609.782 L2065.845,862.922 L2000,1116.062 L1934.156,862.922 z" fill="#69A86C" fill-opacity="0.648"/>
        <path d="M2000.001,609.782 L2065.845,862.922 L2000,1116.062 L1934.156,862.922 L2000.001,609.782 z M2000.001,621.7 L1937.256,862.922 L2000,1104.145 L2062.745,862.922 L2000.001,621.7 z" fill="#000000"/>
      </g>
      <g>
        <path d="M2616.093,745.899 L2560.111,991.173 L2393.389,1195.734 L2449.371,950.459 z" fill="#69A86C" fill-opacity="0.648"/>
        <path d="M2616.093,745.899 L2560.111,991.173 L2393.389,1195.734 L2449.371,950.459 L2616.093,745.899 z M2610.313,757.739 L2452.14,951.811 L2399.169,1183.894 L2557.343,989.822 L2610.313,757.739 z" fill="#000000"/>
      </g>
      <g>
        <path d="M3104.205,1119.424 L2937.483,1323.984 L2700.953,1441.007 L2867.675,1236.447 z" fill="#69A86C" fill-opacity="0.648"/>
        <path d="M3104.205,1119.424 L2937.483,1323.984 L2700.953,1441.007 L2867.675,1236.447 L3104.205,1119.424 z M3093.148,1128.241 L2869.588,1238.847 L2712.009,1432.19 L2935.569,1321.584 L3093.148,1128.241 z" fill="#000000"/>
      </g>
      <g>
        <path d="M3359.751,1678.416 L3123.221,1795.44 L2871.639,1795.44 L3108.169,1678.417 z" fill="#69A86C" fill-opacity="0.648"/>
        <path d="M3359.751,1678.416 L3123.221,1795.439 L2871.639,1795.44 L3108.169,1678.417 L3359.751,1678.416 z M3346.922,1681.416 L3108.87,1681.417 L2884.468,1792.44 L3122.519,1792.439 L3346.922,1681.416 z" fill="#000000"/>
      </g>
      <g>
        <path d="M1383.908,745.899 L1439.889,991.173 L1606.611,1195.734 L1550.63,950.459 z" fill="#69A86C" fill-opacity="0.648"/>
        <path d="M1383.908,745.899 L1550.63,950.459 L1606.611,1195.734 L1439.889,991.173 L1383.908,745.899 z M1389.687,757.739 L1442.658,989.822 L1600.832,1183.894 L1547.861,951.811 L1389.687,757.739 z" fill="#000000"/>
      </g>
      <g>
        <path d="M895.796,1119.424 L1062.518,1323.984 L1299.048,1441.007 L1132.326,1236.447 z" fill="#69A86C" fill-opacity="0.648"/>
        <path d="M895.796,1119.423 L1132.326,1236.447 L1299.048,1441.007 L1062.517,1323.984 L895.796,1119.423 z M906.852,1128.241 L1064.432,1321.584 L1287.991,1432.19 L1130.412,1238.847 L906.852,1128.241 z" fill="#000000"/>
      </g>
      <g>
        <path d="M640.25,1678.416 L876.78,1795.439 L1128.362,1795.44 L891.832,1678.417 z" fill="#69A86C" fill-opacity="0.648"/>
        <path d="M640.25,1678.416 L891.832,1678.416 L1128.362,1795.44 L876.78,1795.439 L640.25,1678.416 z M653.079,1681.416 L877.482,1792.439 L1115.533,1792.44 L891.13,1681.416 L653.079,1681.416 z" fill="#000000"/>
      </g>
      <g>
        <path d="M2000,3390.218 L1934.156,3137.078 L2000.001,2883.938 L2065.845,3137.078 z" fill="#69A86C" fill-opacity="0.648"/>
        <path d="M2000.001,2883.938 L2065.845,3137.078 L2000,3390.218 L1934.156,3137.077 L2000.001,2883.938 z M2000.001,2895.855 L1937.256,3137.078 L2000,3378.3 L2062.745,3137.078 L2000.001,2895.855 z" fill="#000000"/>
      </g>
      <g>
        <path d="M1383.908,3254.101 L1439.89,3008.827 L1606.611,2804.266 L1550.63,3049.541 z" fill="#69A86C" fill-opacity="0.648"/>
        <path d="M1606.611,2804.266 L1550.63,3049.541 L1383.908,3254.101 L1439.889,3008.827 L1606.611,2804.266 z M1600.832,2816.106 L1442.658,3010.178 L1389.687,3242.261 L1547.861,3048.189 L1600.832,2816.106 z" fill="#000000"/>
      </g>
      <g>
        <path d="M895.796,2880.576 L1062.518,2676.016 L1299.048,2558.993 L1132.326,2763.553 z" fill="#69A86C" fill-opacity="0.648"/>
        <path d="M1299.048,2558.992 L1132.326,2763.553 L895.796,2880.576 L1062.518,2676.016 L1299.048,2558.992 z M1287.991,2567.81 L1064.432,2678.416 L906.852,2871.759 L1130.412,2761.153 L1287.991,2567.81 z" fill="#000000"/>
      </g>
      <g>
        <path d="M640.25,2321.584 L876.78,2204.561 L1128.362,2204.56 L891.832,2321.583 z" fill="#69A86C" fill-opacity="0.648"/>
        <path d="M1128.362,2204.56 L891.832,2321.583 L640.25,2321.584 L876.78,2204.56 L1128.362,2204.56 z M1115.533,2207.56 L877.482,2207.56 L653.079,2318.584 L891.13,2318.583 L1115.533,2207.56 z" fill="#000000"/>
      </g>
      <g>
        <path d="M2616.093,3254.101 L2560.111,3008.827 L2393.39,2804.266 L2449.371,3049.541 z" fill="#69A86C" fill-opacity="0.648"/>
        <path d="M2393.389,2804.266 L2560.111,3008.827 L2616.093,3254.101 L2449.371,3049.541 L2393.389,2804.266 z M2399.169,2816.106 L2452.14,3048.189 L2610.313,3242.261 L2557.343,3010.178 L2399.169,2816.106 z" fill="#000000"/>
      </g>
      <g>
        <path d="M3104.205,2880.576 L2937.483,2676.016 L2700.953,2558.993 L2867.675,2763.553 z" fill="#69A86C" fill-opacity="0.648"/>
        <path d="M2700.953,2558.993 L2937.483,2676.016 L3104.205,2880.576 L2867.675,2763.553 L2700.953,2558.993 z M2712.009,2567.81 L2869.589,2761.153 L3093.148,2871.759 L2935.569,2678.416 L2712.009,2567.81 z" fill="#000000"/>
      </g>
      <g>
        <path d="M3359.751,2321.584 L3123.221,2204.561 L2871.639,2204.56 L3108.169,2321.583 z" fill="#69A86C" fill-opacity="0.648"/>
        <path d="M2871.639,2204.56 L3123.221,2204.561 L3359.751,2321.584 L3108.169,2321.583 L2871.639,2204.56 z M2884.468,2207.56 L3108.87,2318.583 L3346.922,2318.584 L3122.519,2207.561 L2884.468,2207.56 z" fill="#000000"/>
      </g>
    </g>
    <g>
      <g>
        <path d="M2212.841,1067.483 L2449.371,950.459 L2393.39,1195.734 L2156.859,1312.757 z" fill="#A544B2" fill-opacity="0.492"/>
        <path d="M2449.371,950.459 L2393.389,1195.734 L2156.859,1312.757 L2212.841,1067.483 L2449.371,950.459 z M2445.041,955.949 L2215.448,1069.54 L2161.189,1307.267 L2390.782,1193.677 L2445.041,955.949 z" fill="#000000"/>
      </g>
      <g>
        <path d="M2000,1116.062 L2065.845,862.922 L2212.841,1067.483 L2156.859,1312.757 z" fill="#A544B2" fill-opacity="0.492"/>
        <path d="M2065.845,862.922 L2212.841,1067.483 L2156.859,1312.757 L2000,1116.062 L2065.845,862.922 z M2067.139,869.864 L2003.281,1115.365 L2155.321,1306.016 L2209.615,1068.134 L2067.139,869.864 z" fill="#000000"/>
      </g>
      <g>
        <path d="M2616.093,1236.447 L2867.675,1236.447 L2700.953,1441.007 L2449.371,1441.008 z" fill="#A544B2" fill-opacity="0.492"/>
        <path d="M2867.675,1236.447 L2700.953,1441.007 L2449.371,1441.008 L2616.093,1236.447 L2867.675,1236.447 z M2861.359,1239.447 L2617.518,1239.447 L2455.686,1438.008 L2699.528,1438.007 L2861.359,1239.447 z" fill="#000000"/>
      </g>
      <g>
        <path d="M2393.39,1195.734 L2560.111,991.173 L2616.093,1236.447 L2449.371,1441.008 z" fill="#A544B2" fill-opacity="0.492"/>
        <path d="M2560.111,991.173 L2616.093,1236.447 L2449.371,1441.008 L2393.389,1195.734 L2560.111,991.173 z M2558.554,997.832 L2396.64,1196.494 L2450.928,1434.349 L2612.842,1235.687 L2558.554,997.832 z" fill="#000000"/>
      </g>
      <g>
        <path d="M2700.953,1441.007 L2937.483,1323.984 L2881.501,1569.258 L2644.971,1686.282 z" fill="#A544B2" fill-opacity="0.492"/>
        <path d="M2937.483,1323.984 L2881.501,1569.258 L2644.971,1686.282 L2700.953,1441.007 L2937.483,1323.984 z M2933.153,1329.473 L2703.561,1443.064 L2649.302,1680.792 L2878.894,1567.201 L2933.153,1329.473 z" fill="#000000"/>
      </g>
      <g>
        <path d="M2881.501,1569.258 L3108.169,1678.417 L2871.639,1795.44 L2644.971,1686.282 z" fill="#A544B2" fill-opacity="0.492"/>
        <path d="M2881.501,1569.258 L3108.169,1678.417 L2871.639,1795.44 L2644.971,1686.282 L2881.501,1569.258 z M2881.519,1572.597 L2651.81,1686.245 L2871.621,1792.102 L3101.33,1678.453 L2881.519,1572.597 z" fill="#000000"/>
      </g>
      <g>
        <path d="M2871.639,1795.44 L3123.221,1795.44 L2956.499,1999.999 L2704.917,2000 z" fill="#A544B2" fill-opacity="0.492"/>
        <path d="M3123.221,1795.439 L2956.499,1999.999 L2704.917,2000 L2871.639,1795.44 L3123.221,1795.439 z M3116.906,1798.439 L2873.064,1798.44 L2711.232,1997 L2955.074,1996.999 L3116.906,1798.439 z" fill="#000000"/>
      </g>
      <g>
        <path d="M1787.16,1067.483 L1550.63,950.459 L1606.611,1195.734 L1843.141,1312.757 z" fill="#A544B2" fill-opacity="0.492"/>
        <path d="M1550.63,950.459 L1787.16,1067.483 L1843.141,1312.757 L1606.611,1195.734 L1550.63,950.459 z M1554.96,955.949 L1609.219,1193.677 L1838.811,1307.267 L1784.552,1069.54 L1554.96,955.949 z" fill="#000000"/>
      </g>
      <g>
        <path d="M2000,1116.062 L1934.156,862.922 L1787.16,1067.483 L1843.141,1312.757 z" fill="#A544B2" fill-opacity="0.492"/>
        <path d="M1934.156,862.922 L2000,1116.062 L1843.141,1312.757 L1787.16,1067.483 L1934.156,862.922 z M1932.862,869.864 L1790.386,1068.134 L1844.68,1306.016 L1996.718,1115.365 L1932.862,869.864 z" fill="#000000"/>
      </g>
      <g>
        <path d="M1383.908,1236.447 L1132.326,1236.447 L1299.048,1441.007 L1550.63,1441.008 z" fill="#A544B2" fill-opacity="0.492"/>
        <path d="M1132.326,1236.447 L1383.908,1236.447 L1550.63,1441.008 L1299.048,1441.007 L1132.326,1236.447 z M1138.641,1239.447 L1300.473,1438.007 L1544.315,1438.008 L1382.483,1239.447 L1138.641,1239.447 z" fill="#000000"/>
      </g>
      <g>
        <path d="M1606.611,1195.734 L1439.89,991.173 L1383.908,1236.447 L1550.63,1441.008 z" fill="#A544B2" fill-opacity="0.492"/>
        <path d="M1439.89,991.173 L1606.611,1195.734 L1550.63,1441.008 L1383.908,1236.447 L1439.89,991.173 z M1441.447,997.832 L1387.159,1235.687 L1549.073,1434.348 L1603.36,1196.494 L1441.447,997.832 z" fill="#000000"/>
      </g>
      <g>
        <path d="M1299.048,1441.007 L1062.518,1323.984 L1118.499,1569.258 L1355.03,1686.282 z" fill="#A544B2" fill-opacity="0.492"/>
        <path d="M1062.518,1323.984 L1299.048,1441.007 L1355.03,1686.281 L1118.499,1569.258 L1062.518,1323.984 z M1066.848,1329.473 L1121.107,1567.201 L1350.699,1680.792 L1296.44,1443.064 L1066.848,1329.473 z" fill="#000000"/>
      </g>
      <g>
        <path d="M1118.499,1569.258 L891.832,1678.417 L1128.362,1795.44 L1355.029,1686.282 z" fill="#A544B2" fill-opacity="0.492"/>
        <path d="M1118.499,1569.258 L1355.029,1686.281 L1128.362,1795.44 L891.832,1678.416 L1118.499,1569.258 z M1118.481,1572.597 L898.671,1678.453 L1128.38,1792.101 L1348.191,1686.245 L1118.481,1572.597 z" fill="#000000"/>
      </g>
      <g>
        <path d="M1128.362,1795.44 L876.78,1795.439 L1043.502,1999.999 L1295.084,2000 z" fill="#A544B2" fill-opacity="0.492"/>
        <path d="M876.78,1795.439 L1128.362,1795.44 L1295.084,2000 L1043.502,1999.999 L876.78,1795.439 z M883.095,1798.439 L1044.927,1996.999 L1288.768,1997 L1126.937,1798.44 L883.095,1798.439 z" fill="#000000"/>
      </g>
      <g>
        <path d="M1787.159,2932.518 L1550.629,3049.541 L1606.61,2804.267 L1843.141,2687.244 z" fill="#A544B2" fill-opacity="0.492"/>
        <path d="M1843.141,2687.244 L1787.159,2932.518 L1550.629,3049.541 L1606.61,2804.267 L1843.141,2687.244 z M1838.811,2692.733 L1609.218,2806.324 L1554.959,3044.052 L1784.551,2930.461 L1838.811,2692.733 z" fill="#000000"/>
      </g>
      <g>
        <path d="M2000,2883.938 L1934.155,3137.078 L1787.159,2932.518 L1843.141,2687.244 z" fill="#A544B2" fill-opacity="0.492"/>
        <path d="M1843.141,2687.244 L2000,2883.938 L1934.155,3137.078 L1787.159,2932.518 L1843.141,2687.244 z M1844.679,2693.985 L1790.385,2931.866 L1932.861,3130.136 L1996.719,2884.635 L1844.679,2693.985 z" fill="#000000"/>
      </g>
      <g>
        <path d="M1383.907,2763.553 L1132.325,2763.554 L1299.047,2558.993 L1550.629,2558.993 z" fill="#A544B2" fill-opacity="0.492"/>
        <path d="M1550.629,2558.993 L1383.907,2763.553 L1132.325,2763.554 L1299.047,2558.993 L1550.629,2558.993 z M1544.314,2561.993 L1300.472,2561.993 L1138.641,2760.554 L1382.482,2760.553 L1544.314,2561.993 z" fill="#000000"/>
      </g>
      <g>
        <path d="M1606.61,2804.267 L1439.889,3008.828 L1383.907,2763.553 L1550.629,2558.993 z" fill="#A544B2" fill-opacity="0.492"/>
        <path d="M1550.629,2558.993 L1606.61,2804.267 L1439.889,3008.827 L1383.907,2763.553 L1550.629,2558.993 z M1549.072,2565.652 L1387.158,2764.313 L1441.446,3002.168 L1603.36,2803.507 L1549.072,2565.652 z" fill="#000000"/>
      </g>
      <g>
        <path d="M1299.047,2558.993 L1062.517,2676.017 L1118.498,2430.742 L1355.029,2313.719 z" fill="#A544B2" fill-opacity="0.492"/>
        <path d="M1355.029,2313.719 L1299.047,2558.993 L1062.517,2676.017 L1118.498,2430.742 L1355.029,2313.719 z M1350.699,2319.208 L1121.106,2432.799 L1066.847,2670.527 L1296.439,2556.936 L1350.699,2319.208 z" fill="#000000"/>
      </g>
      <g>
        <path d="M1118.498,2430.742 L891.831,2321.584 L1128.361,2204.561 L1355.029,2313.719 z" fill="#A544B2" fill-opacity="0.492"/>
        <path d="M1128.361,2204.561 L1355.029,2313.719 L1118.498,2430.742 L891.831,2321.584 L1128.361,2204.561 z M1128.379,2207.899 L898.67,2321.548 L1118.481,2427.404 L1348.19,2313.755 L1128.379,2207.899 z" fill="#000000"/>
      </g>
      <g>
        <path d="M1128.361,2204.561 L876.779,2204.561 L1043.501,2000.001 L1295.083,2000.001 z" fill="#A544B2" fill-opacity="0.492"/>
        <path d="M1295.083,2000.001 L1128.361,2204.561 L876.779,2204.561 L1043.501,2000.001 L1295.083,2000.001 z M1288.767,2003.001 L1044.926,2003.001 L883.094,2201.561 L1126.936,2201.561 L1288.767,2003.001 z" fill="#000000"/>
      </g>
      <g>
        <path d="M2212.84,2932.518 L2449.37,3049.542 L2393.389,2804.267 L2156.859,2687.244 z" fill="#A544B2" fill-opacity="0.492"/>
        <path d="M2156.858,2687.244 L2393.389,2804.267 L2449.37,3049.541 L2212.84,2932.518 L2156.858,2687.244 z M2161.188,2692.733 L2215.448,2930.461 L2445.04,3044.052 L2390.781,2806.324 L2161.188,2692.733 z" fill="#000000"/>
      </g>
      <g>
        <path d="M2000,2883.938 L2065.844,3137.078 L2212.84,2932.518 L2156.859,2687.244 z" fill="#A544B2" fill-opacity="0.492"/>
        <path d="M2156.858,2687.244 L2212.84,2932.518 L2065.844,3137.078 L2000,2883.938 L2156.858,2687.244 z M2155.32,2693.985 L2003.281,2884.635 L2067.138,3130.136 L2209.614,2931.866 L2155.32,2693.985 z" fill="#000000"/>
      </g>
      <g>
        <path d="M2616.092,2763.553 L2867.674,2763.554 L2700.952,2558.993 L2449.37,2558.993 z" fill="#A544B2" fill-opacity="0.492"/>
        <path d="M2449.37,2558.993 L2700.952,2558.993 L2867.674,2763.554 L2616.092,2763.553 L2449.37,2558.993 z M2455.685,2561.993 L2617.517,2760.553 L2861.358,2760.554 L2699.527,2561.993 L2455.685,2561.993 z" fill="#000000"/>
      </g>
      <g>
        <path d="M2393.389,2804.267 L2560.111,3008.828 L2616.092,2763.553 L2449.37,2558.993 z" fill="#A544B2" fill-opacity="0.492"/>
        <path d="M2449.37,2558.993 L2616.092,2763.553 L2560.11,3008.827 L2393.389,2804.267 L2449.37,2558.993 z M2450.927,2565.652 L2396.639,2803.507 L2558.553,3002.168 L2612.841,2764.314 L2450.927,2565.652 z" fill="#000000"/>
      </g>
      <g>
        <path d="M2700.952,2558.993 L2937.482,2676.017 L2881.501,2430.743 L2644.97,2313.719 z" fill="#A544B2" fill-opacity="0.492"/>
        <path d="M2644.97,2313.719 L2881.501,2430.742 L2937.482,2676.017 L2700.952,2558.993 L2644.97,2313.719 z M2649.3,2319.208 L2703.56,2556.936 L2933.152,2670.527 L2878.893,2432.8 L2649.3,2319.208 z" fill="#000000"/>
      </g>
      <g>
        <path d="M2881.501,2430.742 L3108.168,2321.584 L2871.638,2204.561 L2644.97,2313.719 z" fill="#A544B2" fill-opacity="0.492"/>
        <path d="M2871.638,2204.561 L3108.168,2321.584 L2881.501,2430.742 L2644.97,2313.719 L2871.638,2204.561 z M2871.62,2207.899 L2651.809,2313.756 L2881.518,2427.404 L3101.329,2321.548 L2871.62,2207.899 z" fill="#000000"/>
      </g>
      <g>
        <path d="M2871.638,2204.561 L3123.22,2204.561 L2956.498,2000.001 L2704.916,2000.001 z" fill="#A544B2" fill-opacity="0.492"/>
        <path d="M2704.916,2000.001 L2956.498,2000.001 L3123.22,2204.561 L2871.638,2204.561 L2704.916,2000.001 z M2711.231,2003.001 L2873.063,2201.561 L3116.905,2201.561 L2955.073,2003.001 L2711.231,2003.001 z" fill="#000000"/>
      </g>
    </g>
    <g>
      <g>
        <path d="M1843.141,1312.757 L2000,1116.062 L2156.859,1312.757 L2000.001,1509.452 z" fill="#2EB0B0" fill-opacity="0.492"/>
        <path d="M2000,1116.062 L2156.859,1312.757 L2000.001,1509.452 L1843.141,1312.757 L2000,1116.062 z M2000,1120.874 L1846.979,1312.757 L2000.001,1504.64 L2153.022,1312.757 L2000,1120.874 z" fill="#000000"/>
      </g>
      <g>
        <path d="M2156.859,1312.757 L2393.389,1195.734 L2449.371,1441.008 L2212.841,1558.031 z" fill="#2EB0B0" fill-opacity="0.492"/>
        <path d="M2393.389,1195.734 L2449.371,1441.008 L2212.841,1558.031 L2156.859,1312.757 L2393.389,1195.734 z M2391.311,1200.109 L2160.311,1314.396 L2214.919,1553.656 L2445.919,1439.368 L2391.311,1200.109 z" fill="#000000"/>
      </g>
      <g>
        <path d="M2449.371,1441.008 L2700.953,1441.007 L2644.971,1686.282 L2393.389,1686.282 z" fill="#2EB0B0" fill-opacity="0.492"/>
        <path d="M2700.953,1441.007 L2644.971,1686.282 L2393.389,1686.282 L2449.371,1441.008 L2700.953,1441.007 z M2697.191,1444.007 L2451.763,1444.008 L2397.151,1683.282 L2642.579,1683.282 L2697.191,1444.007 z" fill="#000000"/>
      </g>
      <g>
        <path d="M2644.971,1686.282 L2871.639,1795.44 L2704.917,2000 L2478.25,1890.842 z" fill="#2EB0B0" fill-opacity="0.492"/>
        <path d="M2644.971,1686.281 L2871.639,1795.44 L2704.917,2000 L2478.25,1890.842 L2644.971,1686.281 z M2645.802,1690.011 L2482.978,1889.789 L2704.086,1996.271 L2866.91,1796.493 L2645.802,1690.011 z" fill="#000000"/>
      </g>
      <g>
        <path d="M1843.141,1312.757 L1606.611,1195.734 L1550.63,1441.008 L1787.16,1558.031 z" fill="#2EB0B0" fill-opacity="0.492"/>
        <path d="M1606.611,1195.734 L1843.141,1312.757 L1787.16,1558.031 L1550.63,1441.008 L1606.611,1195.734 z M1608.69,1200.109 L1554.081,1439.368 L1785.082,1553.656 L1839.69,1314.396 L1608.69,1200.109 z" fill="#000000"/>
      </g>
      <g>
        <path d="M1550.63,1441.008 L1299.048,1441.007 L1355.029,1686.281 L1606.611,1686.282 z" fill="#2EB0B0" fill-opacity="0.492"/>
        <path d="M1299.048,1441.007 L1550.63,1441.008 L1606.611,1686.282 L1355.029,1686.281 L1299.048,1441.007 z M1302.81,1444.007 L1357.422,1683.281 L1602.849,1683.282 L1548.237,1444.008 L1302.81,1444.007 z" fill="#000000"/>
      </g>
      <g>
        <path d="M1355.03,1686.281 L1128.362,1795.44 L1295.084,2000 L1521.751,1890.842 z" fill="#2EB0B0" fill-opacity="0.492"/>
        <path d="M1355.029,1686.281 L1521.751,1890.842 L1295.084,2000 L1128.362,1795.44 L1355.029,1686.281 z M1354.199,1690.011 L1133.09,1796.493 L1295.914,1996.271 L1517.023,1889.789 L1354.199,1690.011 z" fill="#000000"/>
      </g>
      <g>
        <path d="M2156.859,2687.243 L2000,2883.938 L1843.141,2687.243 L2000,2490.548 z" fill="#2EB0B0" fill-opacity="0.492"/>
        <path d="M2000,2490.548 L2156.859,2687.243 L2000,2883.938 L1843.141,2687.243 L2000,2490.548 z M2000,2495.36 L1846.979,2687.243 L2000,2879.127 L2153.022,2687.243 L2000,2495.36 z" fill="#000000"/>
      </g>
      <g>
        <path d="M1843.141,2687.243 L1606.611,2804.266 L1550.63,2558.992 L1787.16,2441.969 z" fill="#2EB0B0" fill-opacity="0.492"/>
        <path d="M1787.16,2441.969 L1843.141,2687.243 L1606.611,2804.266 L1550.63,2558.992 L1787.16,2441.969 z M1785.082,2446.344 L1554.081,2560.632 L1608.69,2799.891 L1839.69,2685.604 L1785.082,2446.344 z" fill="#000000"/>
      </g>
      <g>
        <path d="M1550.63,2558.992 L1299.048,2558.993 L1355.029,2313.718 L1606.611,2313.718 z" fill="#2EB0B0" fill-opacity="0.492"/>
        <path d="M1606.611,2313.718 L1550.63,2558.992 L1299.048,2558.992 L1355.029,2313.718 L1606.611,2313.718 z M1602.849,2316.718 L1357.422,2316.718 L1302.81,2555.992 L1548.238,2555.992 L1602.849,2316.718 z" fill="#000000"/>
      </g>
      <g>
        <path d="M1355.029,2313.719 L1128.362,2204.56 L1295.084,2000 L1521.751,2109.158 z" fill="#2EB0B0" fill-opacity="0.492"/>
        <path d="M1295.084,2000 L1521.751,2109.158 L1355.029,2313.719 L1128.362,2204.56 L1295.084,2000 z M1295.914,2003.729 L1133.09,2203.507 L1354.199,2309.989 L1517.023,2110.211 L1295.914,2003.729 z" fill="#000000"/>
      </g>
      <g>
        <path d="M2156.859,2687.243 L2393.39,2804.266 L2449.371,2558.992 L2212.841,2441.969 z" fill="#2EB0B0" fill-opacity="0.492"/>
        <path d="M2212.841,2441.969 L2449.371,2558.992 L2393.389,2804.266 L2156.859,2687.243 L2212.841,2441.969 z M2214.919,2446.344 L2160.311,2685.604 L2391.311,2799.891 L2445.919,2560.632 L2214.919,2446.344 z" fill="#000000"/>
      </g>
      <g>
        <path d="M2449.371,2558.992 L2700.953,2558.993 L2644.971,2313.719 L2393.389,2313.718 z" fill="#2EB0B0" fill-opacity="0.492"/>
        <path d="M2393.389,2313.718 L2644.971,2313.719 L2700.953,2558.993 L2449.371,2558.992 L2393.389,2313.718 z M2397.151,2316.718 L2451.763,2555.992 L2697.191,2555.993 L2642.579,2316.719 L2397.151,2316.718 z" fill="#000000"/>
      </g>
      <g>
        <path d="M2644.971,2313.719 L2871.639,2204.56 L2704.917,2000 L2478.25,2109.158 z" fill="#2EB0B0" fill-opacity="0.492"/>
        <path d="M2704.917,2000 L2871.639,2204.56 L2644.971,2313.719 L2478.25,2109.158 L2704.917,2000 z M2704.086,2003.729 L2482.978,2110.211 L2645.802,2309.989 L2866.91,2203.507 L2704.086,2003.729 z" fill="#000000"/>
      </g>
    </g>
    <g>
      <g>
        <path d="M2156.859,1312.757 L2212.841,1558.031 L2055.982,1754.726 L2000.001,1509.452 z" fill="#5CAE4F" fill-opacity="0.492"/>
        <path d="M2156.859,1312.757 L2212.841,1558.031 L2055.982,1754.726 L2000.001,1509.452 L2156.859,1312.757 z M2155.321,1319.498 L2003.247,1510.193 L2057.521,1747.985 L2209.594,1557.29 L2155.321,1319.498 z" fill="#000000"/>
      </g>
      <g>
        <path d="M2449.371,1441.008 L2393.389,1686.282 L2156.859,1803.305 L2212.841,1558.031 z" fill="#5CAE4F" fill-opacity="0.492"/>
        <path d="M2449.371,1441.008 L2393.389,1686.282 L2156.859,1803.305 L2212.841,1558.031 L2449.371,1441.008 z M2445.041,1446.497 L2215.448,1560.088 L2161.189,1797.816 L2390.781,1684.225 L2445.041,1446.497 z" fill="#000000"/>
      </g>
      <g>
        <path d="M2644.971,1686.282 L2478.25,1890.842 L2226.667,1890.842 L2393.389,1686.282 z" fill="#5CAE4F" fill-opacity="0.492"/>
        <path d="M2644.971,1686.282 L2478.25,1890.842 L2226.667,1890.842 L2393.389,1686.282 L2644.971,1686.282 z M2638.656,1689.282 L2394.814,1689.282 L2232.983,1887.842 L2476.824,1887.842 L2638.656,1689.282 z" fill="#000000"/>
      </g>
      <g>
        <path d="M1843.141,1312.757 L1787.16,1558.031 L1944.018,1754.726 L2000,1509.452 z" fill="#5CAE4F" fill-opacity="0.492"/>
        <path d="M1843.141,1312.757 L2000,1509.452 L1944.018,1754.726 L1787.16,1558.031 L1843.141,1312.757 z M1844.68,1319.498 L1790.406,1557.29 L1942.48,1747.985 L1996.753,1510.193 L1844.68,1319.498 z" fill="#000000"/>
      </g>
      <g>
        <path d="M1550.63,1441.008 L1606.611,1686.282 L1843.142,1803.305 L1787.16,1558.031 z" fill="#5CAE4F" fill-opacity="0.492"/>
        <path d="M1550.63,1441.008 L1787.16,1558.031 L1843.142,1803.305 L1606.611,1686.282 L1550.63,1441.008 z M1554.96,1446.497 L1609.219,1684.225 L1838.812,1797.816 L1784.552,1560.088 L1554.96,1446.497 z" fill="#000000"/>
      </g>
      <g>
        <path d="M1355.029,1686.282 L1521.751,1890.842 L1773.333,1890.842 L1606.611,1686.282 z" fill="#5CAE4F" fill-opacity="0.492"/>
        <path d="M1355.029,1686.281 L1606.611,1686.282 L1773.333,1890.842 L1521.751,1890.842 L1355.029,1686.281 z M1361.344,1689.281 L1523.176,1887.842 L1767.018,1887.842 L1605.186,1689.282 L1361.344,1689.281 z" fill="#000000"/>
      </g>
      <g>
        <path d="M2156.859,2687.243 L2212.841,2441.969 L2055.982,2245.274 L2000.001,2490.548 z" fill="#5CAE4F" fill-opacity="0.492"/>
        <path d="M2055.982,2245.274 L2212.841,2441.969 L2156.859,2687.243 L2000.001,2490.548 L2055.982,2245.274 z M2057.521,2252.015 L2003.247,2489.807 L2155.321,2680.502 L2209.594,2442.71 L2057.521,2252.015 z" fill="#000000"/>
      </g>
      <g>
        <path d="M2449.371,2558.992 L2393.389,2313.718 L2156.859,2196.695 L2212.841,2441.969 z" fill="#5CAE4F" fill-opacity="0.492"/>
        <path d="M2156.859,2196.695 L2393.389,2313.718 L2449.371,2558.992 L2212.841,2441.969 L2156.859,2196.695 z M2161.189,2202.184 L2215.448,2439.912 L2445.041,2553.503 L2390.781,2315.775 L2161.189,2202.184 z" fill="#000000"/>
      </g>
      <g>
        <path d="M2644.971,2313.718 L2478.25,2109.158 L2226.667,2109.157 L2393.389,2313.718 z" fill="#5CAE4F" fill-opacity="0.492"/>
        <path d="M2226.667,2109.157 L2478.25,2109.158 L2644.971,2313.718 L2393.389,2313.718 L2226.667,2109.157 z M2232.983,2112.157 L2394.814,2310.718 L2638.656,2310.718 L2476.824,2112.158 L2232.983,2112.157 z" fill="#000000"/>
      </g>
      <g>
        <path d="M1843.141,2687.243 L1787.16,2441.969 L1944.018,2245.274 L2000,2490.548 z" fill="#5CAE4F" fill-opacity="0.492"/>
        <path d="M1944.018,2245.274 L2000,2490.548 L1843.141,2687.243 L1787.16,2441.969 L1944.018,2245.274 z M1942.48,2252.015 L1790.406,2442.71 L1844.68,2680.502 L1996.753,2489.807 L1942.48,2252.015 z" fill="#000000"/>
      </g>
      <g>
        <path d="M1550.63,2558.992 L1606.611,2313.718 L1843.142,2196.695 L1787.16,2441.969 z" fill="#5CAE4F" fill-opacity="0.492"/>
        <path d="M1843.142,2196.695 L1787.16,2441.969 L1550.63,2558.992 L1606.611,2313.718 L1843.142,2196.695 z M1838.812,2202.184 L1609.219,2315.775 L1554.96,2553.503 L1784.552,2439.912 L1838.812,2202.184 z" fill="#000000"/>
      </g>
      <g>
        <path d="M1355.029,2313.719 L1521.751,2109.158 L1773.333,2109.158 L1606.611,2313.718 z" fill="#5CAE4F" fill-opacity="0.492"/>
        <path d="M1773.333,2109.158 L1606.611,2313.718 L1355.029,2313.719 L1521.751,2109.158 L1773.333,2109.158 z M1767.018,2112.158 L1523.176,2112.158 L1361.344,2310.719 L1605.186,2310.718 L1767.018,2112.158 z" fill="#000000"/>
      </g>
      <path d="M2478.75,1891.342 L2705.417,2000.5" fill-opacity="0" stroke="#000000" stroke-width="3" stroke-linejoin="bevel"/>
      <g>
        <path d="M2704.917,2000 L2478.25,2109.158 L2251.582,2000 L2478.25,1890.842 z" fill="#5CAE4F" fill-opacity="0.492"/>
        <path d="M2478.25,1890.842 L2704.917,2000 L2478.25,2109.158 L2251.582,2000 L2478.25,1890.842 z M2478.25,1894.172 L2258.496,2000 L2478.25,2105.828 L2698.003,2000 L2478.25,1894.172 z" fill="#000000"/>
      </g>
      <g>
        <path d="M1748.418,2000 L1521.75,1890.843 L1295.083,2000.001 L1521.75,2109.159 z" fill="#5CAE4F" fill-opacity="0.492"/>
        <path d="M1521.75,1890.843 L1748.418,2000 L1521.75,2109.158 L1295.083,2000.001 L1521.75,1890.843 z M1521.75,1894.172 L1301.997,2000.001 L1521.75,2105.829 L1741.504,2000 L1521.75,1894.172 z" fill="#000000"/>
      </g>
    </g>
  </g>
  <g id="Layer_5" display="none">
    <path d="M3807.273,17.422 L3873.117,270.562" fill-opacity="0" stroke="#000000" stroke-width="3" stroke-linejoin="bevel"/>
    <path d="M3281.678,411.166 L3337.66,165.892" fill-opacity="0" stroke="#000000" stroke-width="3" stroke-linejoin="bevel"/>
    <path d="M3401.201,553.967 L3558.059,357.272" fill-opacity="0" stroke="#000000" stroke-width="3" stroke-linejoin="bevel"/>
    <path d="M3580.568,1168.708 L3817.099,1051.684" fill-opacity="0" stroke="#000000" stroke-width="3" stroke-linejoin="bevel"/>
    <path d="M3587.241,878.805 L3813.908,987.963" fill-opacity="0" stroke="#000000" stroke-width="3" stroke-linejoin="bevel"/>
    <path d="M3433.423,583.389 L3590.283,780.083" fill-opacity="0" stroke="#000000" stroke-width="3" stroke-linejoin="bevel"/>
    <path d="M3844.249,446.433 L3778.404,699.573" fill-opacity="0" stroke="#000000" stroke-width="3" stroke-linejoin="bevel"/>
    <path d="M3026.964,357.272 L3193.686,152.712" fill-opacity="0" stroke="#000000" stroke-width="3" stroke-linejoin="bevel"/>
    <path d="M3337.66,0.5 L3484.656,205.06" fill-opacity="0" stroke="#000000" stroke-width="3" stroke-linejoin="bevel"/>
  </g>
</svg>
