<?xml version="1.0" encoding="UTF-8"?>
<!DOCTYPE svg PUBLIC "-//W3C//DTD SVG 1.1//EN" "http://www.w3.org/Graphics/SVG/1.1/DTD/svg11.dtd">
<svg version="1.1" xmlns="http://www.w3.org/2000/svg" xmlns:xlink="http://www.w3.org/1999/xlink" x="0" y="0" width="3000" height="3000" viewBox="0, 0, 3000, 3000">
  <g id="blue">
    <g>
      <g>
        <path d="M1525.5,750.5 L1575.5,750.5 L1625.5,700.5 L1625.5,650.5 L1575.5,700.5 L1575.5,600.5 L1600.5,575.5 L1600.5,525.5 L1525.5,600.5 L1525.5,750.5 z" fill-opacity="0" stroke="#0433FF" stroke-width="2"/>
        <path d="M1475.5,750.5 L1425.5,750.5 L1375.5,700.5 L1375.5,650.5 L1425.5,700.5 L1425.5,600.5 L1400.5,575.5 L1400.5,525.5 L1475.5,600.5 L1475.5,750.5 z" fill-opacity="0" stroke="#0433FF" stroke-width="2"/>
      </g>
      <g>
        <path d="M750.5,1475.5 L750.5,1425.5 L700.5,1375.5 L650.5,1375.5 L700.5,1425.5 L600.5,1425.5 L575.5,1400.5 L525.5,1400.5 L600.5,1475.5 L750.5,1475.5 z" fill-opacity="0" stroke="#0433FF" stroke-width="2"/>
        <path d="M750.5,1525.5 L750.5,1575.5 L700.5,1625.5 L650.5,1625.5 L700.5,1575.5 L600.5,1575.5 L575.5,1600.5 L525.5,1600.5 L600.5,1525.5 L750.5,1525.5 z" fill-opacity="0" stroke="#0433FF" stroke-width="2"/>
      </g>
      <g>
        <path d="M1475.5,2250.5 L1425.5,2250.5 L1375.5,2300.5 L1375.5,2350.5 L1425.5,2300.5 L1425.5,2400.5 L1400.5,2425.5 L1400.5,2475.5 L1475.5,2400.5 L1475.5,2250.5 z" fill-opacity="0" stroke="#0433FF" stroke-width="2"/>
        <path d="M1525.5,2250.5 L1575.5,2250.5 L1625.5,2300.5 L1625.5,2350.5 L1575.5,2300.5 L1575.5,2400.5 L1600.5,2425.5 L1600.5,2475.5 L1525.5,2400.5 L1525.5,2250.5 z" fill-opacity="0" stroke="#0433FF" stroke-width="2"/>
      </g>
      <g>
        <path d="M2250.5,1525.5 L2250.5,1575.5 L2300.5,1625.5 L2350.5,1625.5 L2300.5,1575.5 L2400.5,1575.5 L2425.5,1600.5 L2475.5,1600.5 L2400.5,1525.5 L2250.5,1525.5 z" fill-opacity="0" stroke="#0433FF" stroke-width="2"/>
        <path d="M2250.5,1475.5 L2250.5,1425.5 L2300.5,1375.5 L2350.5,1375.5 L2300.5,1425.5 L2400.5,1425.5 L2425.5,1400.5 L2475.5,1400.5 L2400.5,1475.5 L2250.5,1475.5 z" fill-opacity="0" stroke="#0433FF" stroke-width="2"/>
      </g>
    </g>
    <g>
      <path d="M1425.5,2025.5 L1575.5,2025.5 L1675.5,2125.5 L1625.5,2125.5 L1575.5,2075.5 L1425.5,2075.5 L1375.5,2125.5 L1325.5,2125.5 L1425.5,2025.5 z" fill-opacity="0" stroke="#0433FF" stroke-width="2"/>
      <path d="M2025.5,1425.5 L2025.5,1575.5 L2125.5,1675.5 L2125.5,1625.5 L2075.5,1575.5 L2075.5,1425.5 L2125.5,1375.5 L2125.5,1325.5 L2025.5,1425.5 z" fill-opacity="0" stroke="#0433FF" stroke-width="2"/>
      <path d="M1575.5,975.5 L1675.5,875.5 L1625.5,875.5 L1575.5,925.5 L1425.5,925.5 L1375.5,875.5 L1325.5,875.5 L1425.5,975.5 L1575.5,975.5 z" fill-opacity="0" stroke="#0433FF" stroke-width="2"/>
      <path d="M975.5,1425.5 L875.5,1325.5 L875.5,1375.5 L925.5,1425.5 L925.5,1575.5 L875.5,1625.5 L875.5,1675.5 L975.5,1575.5 L975.5,1425.5 z" fill-opacity="0" stroke="#0433FF" stroke-width="2"/>
    </g>
    <g>
      <path d="M1425.5,2100.5 L1575.5,2100.5 L1625.5,2150.5 L1625.5,2200.5 L1575.5,2150.5 L1425.5,2150.5 L1375.5,2200.5 L1375.5,2150.5 L1425.5,2100.5 z" fill-opacity="0" stroke="#0433FF" stroke-width="2"/>
      <path d="M2175.5,1425.5 L2175.5,1575.5 L2275.5,1675.5 L2275.5,1625.5 L2225.5,1575.5 L2225.5,1425.5 L2275.5,1375.5 L2275.5,1325.5 L2175.5,1425.5 z" fill-opacity="0" stroke="#0433FF" stroke-width="2"/>
      <path d="M1575.5,900.5 L1625.5,850.5 L1625.5,800.5 L1575.5,850.5 L1425.5,850.5 L1375.5,800.5 L1375.5,850.5 L1425.5,900.5 L1575.5,900.5 z" fill-opacity="0" stroke="#0433FF" stroke-width="2"/>
      <path d="M900.5,1425.5 L850.5,1375.5 L800.5,1375.5 L850.5,1425.5 L850.5,1575.5 L800.5,1625.5 L850.5,1625.5 L900.5,1575.5 L900.5,1425.5 z" fill-opacity="0" stroke="#0433FF" stroke-width="2"/>
    </g>
    <g>
      <path d="M1425.5,2175.5 L1575.5,2175.5 L1675.5,2275.5 L1625.5,2275.5 L1575.5,2225.5 L1425.5,2225.5 L1375.5,2275.5 L1325.5,2275.5 L1425.5,2175.5 z" fill-opacity="0" stroke="#0433FF" stroke-width="2"/>
      <path d="M2100.5,1425.5 L2100.5,1575.5 L2150.5,1625.5 L2200.5,1625.5 L2150.5,1575.5 L2150.5,1425.5 L2200.5,1375.5 L2150.5,1375.5 L2100.5,1425.5 z" fill-opacity="0" stroke="#0433FF" stroke-width="2"/>
      <path d="M1575.5,825.5 L1675.5,725.5 L1625.5,725.5 L1575.5,775.5 L1425.5,775.5 L1375.5,725.5 L1325.5,725.5 L1425.5,825.5 L1575.5,825.5 z" fill-opacity="0" stroke="#0433FF" stroke-width="2"/>
      <path d="M825.5,1425.5 L725.5,1325.5 L725.5,1375.5 L775.5,1425.5 L775.5,1575.5 L725.5,1625.5 L725.5,1675.5 L825.5,1575.5 L825.5,1425.5 z" fill-opacity="0" stroke="#0433FF" stroke-width="2"/>
    </g>
    <g>
      <path d="M1500.5,1025.5 L1475.5,1050.5 L1475.5,1125.5 L1500.5,1150.5 L1525.5,1125.5 L1525.5,1050.5 L1500.5,1025.5 z" fill-opacity="0" stroke="#0433FF" stroke-width="2"/>
      <path d="M1025.5,1500.5 L1050.5,1525.5 L1125.5,1525.5 L1150.5,1500.5 L1125.5,1475.5 L1050.5,1475.5 L1025.5,1500.5 z" fill-opacity="0" stroke="#0433FF" stroke-width="2"/>
      <path d="M1500.5,1975.5 L1525.5,1950.5 L1525.5,1875.5 L1500.5,1850.5 L1475.5,1875.5 L1475.5,1950.5 L1500.5,1975.5 z" fill-opacity="0" stroke="#0433FF" stroke-width="2"/>
      <path d="M1975.5,1500.5 L1950.5,1475.5 L1875.5,1475.5 L1850.5,1500.5 L1875.5,1525.5 L1950.5,1525.5 L1975.5,1500.5 z" fill-opacity="0" stroke="#0433FF" stroke-width="2"/>
    </g>
    <g>
      <path d="M1500.5,1225.5 C1500.5,1225.5 1475.5,1250.5 1475.5,1250.5 L1475.5,1300.5 L1500.5,1325.5 L1525.5,1300.5 L1525.5,1250.5 L1500.5,1225.5 z" fill-opacity="0" stroke="#0433FF" stroke-width="2"/>
      <path d="M1225.5,1500.5 L1250.5,1525.5 L1300.5,1525.5 L1325.5,1500.5 L1300.5,1475.5 L1250.5,1475.5 L1225.5,1500.5 z" fill-opacity="0" stroke="#0433FF" stroke-width="2"/>
      <path d="M1500.5,1775.5 C1500.5,1775.5 1525.5,1750.5 1525.5,1750.5 L1525.5,1700.5 L1500.5,1675.5 L1475.5,1700.5 L1475.5,1750.5 L1500.5,1775.5 z" fill-opacity="0" stroke="#0433FF" stroke-width="2"/>
      <path d="M1775.5,1500.5 L1750.5,1475.5 L1700.5,1475.5 L1675.5,1500.5 L1700.5,1525.5 L1750.5,1525.5 L1775.5,1500.5 z" fill-opacity="0" stroke="#0433FF" stroke-width="2"/>
    </g>
    <g>
      <path d="M1600.5,1500.5 L1575.5,1525.5 L1550.5,1525.5 L1525.5,1500.5 L1550.5,1475.5 L1575.5,1475.5 L1600.5,1500.5" fill-opacity="0" stroke="#0433FF" stroke-width="2"/>
      <path d="M1500.5,1600.5 L1475.5,1575.5 L1475.5,1550.5 L1500.5,1525.5 L1525.5,1550.5 L1525.5,1575.5 L1500.5,1600.5 z" fill-opacity="0" stroke="#0433FF" stroke-width="2"/>
      <path d="M1400.5,1500.5 L1425.5,1475.5 L1450.5,1475.5 L1475.5,1500.5 L1450.5,1525.5 L1425.5,1525.5 L1400.5,1500.5 z" fill-opacity="0" stroke="#0433FF" stroke-width="2"/>
      <path d="M1500.5,1400.5 L1525.5,1425.5 L1525.5,1450.5 L1500.5,1475.5 L1475.5,1450.5 L1475.5,1425.5 L1500.5,1400.5 z" fill-opacity="0" stroke="#0433FF" stroke-width="2"/>
    </g>
  </g>
  <g id="teal">
    <g>
      <g>
        <path d="M1525.5,1175.5 L1525.5,1150.5 L1550.5,1125.5 L1550.5,1050.5 L1525.5,1025.5 L1525.5,1000.5 L1575.5,1000.5 L1625.5,950.5 L1625.5,1000.5 L1575.5,1050.5 L1575.5,1125.5 L1625.5,1125.5 L1625.5,1175.5 L1525.5,1175.5 z" fill-opacity="0" stroke="#00FDFF" stroke-width="2"/>
        <path d="M1475.5,1175.5 L1475.5,1150.5 L1450.5,1125.5 L1450.5,1050.5 L1475.5,1025.5 L1475.5,1000.5 L1425.5,1000.5 L1375.5,950.5 L1375.5,1000.5 L1425.5,1050.5 L1425.5,1125.5 L1375.5,1125.5 L1375.5,1175.5 L1475.5,1175.5 z" fill-opacity="0" stroke="#00FDFF" stroke-width="2"/>
      </g>
      <g>
        <path d="M1175.5,1475.5 L1150.5,1475.5 L1125.5,1450.5 L1050.5,1450.5 L1025.5,1475.5 L1000.5,1475.5 L1000.5,1425.5 L950.5,1375.5 L1000.5,1375.5 L1050.5,1425.5 L1125.5,1425.5 L1125.5,1375.5 L1175.5,1375.5 L1175.5,1475.5 z" fill-opacity="0" stroke="#00FDFF" stroke-width="2"/>
        <path d="M1175.5,1525.5 L1150.5,1525.5 L1125.5,1550.5 L1050.5,1550.5 L1025.5,1525.5 L1000.5,1525.5 L1000.5,1575.5 L950.5,1625.5 L1000.5,1625.5 L1050.5,1575.5 L1125.5,1575.5 L1125.5,1625.5 L1175.5,1625.5 L1175.5,1525.5 z" fill-opacity="0" stroke="#00FDFF" stroke-width="2"/>
      </g>
      <g>
        <path d="M1475.5,1825.5 L1475.5,1850.5 L1450.5,1875.5 L1450.5,1950.5 L1450.5,1950.5 L1475.5,1975.5 L1475.5,2000.5 L1425.5,2000.5 L1375.5,2050.5 L1375.5,2000.5 L1425.5,1950.5 L1425.5,1875.5 L1375.5,1875.5 L1375.5,1825.5 L1475.5,1825.5 z" fill-opacity="0" stroke="#00FDFF" stroke-width="2"/>
        <path d="M1525.5,1825.5 L1525.5,1850.5 L1550.5,1875.5 L1550.5,1950.5 L1525.5,1975.5 L1525.5,2000.5 L1575.5,2000.5 L1625.5,2050.5 L1625.5,2000.5 L1575.5,1950.5 L1575.5,1875.5 L1625.5,1875.5 L1625.5,1825.5 L1525.5,1825.5 z" fill-opacity="0" stroke="#00FDFF" stroke-width="2"/>
      </g>
      <g>
        <path d="M1825.5,1475.5 L1850.5,1475.5 L1875.5,1450.5 L1950.5,1450.5 L1975.5,1475.5 L2000.5,1475.5 L2000.5,1425.5 L2050.5,1375.5 L2000.5,1375.5 L1950.5,1425.5 L1875.5,1425.5 L1875.5,1375.5 L1825.5,1375.5 L1825.5,1475.5 z" fill-opacity="0" stroke="#00FDFF" stroke-width="2"/>
        <path d="M1825.5,1525.5 L1850.5,1525.5 L1875.5,1550.5 L1950.5,1550.5 L1975.5,1525.5 L2000.5,1525.5 L2000.5,1575.5 L2050.5,1625.5 L2000.5,1625.5 L1950.5,1575.5 L1875.5,1575.5 L1875.5,1625.5 L1825.5,1625.5 L1825.5,1525.5 z" fill-opacity="0" stroke="#00FDFF" stroke-width="2"/>
      </g>
    </g>
    <g>
      <g>
        <path d="M1650.5,850.5 L1700.5,850.5 L1700.5,800.5 L1750.5,750.5 L1750.5,700.5 L1700.5,650.5 L1675.5,650.5 L1650.5,675.5 L1650.5,700.5 L1700.5,700.5 L1700.5,750.5 L1650.5,800.5 L1650.5,850.5 z" fill-opacity="0" stroke="#00FDFF" stroke-width="2"/>
        <path d="M1300.5,850.5 C1300.5,850.5 1350.5,850.5 1350.5,850.5 L1350.5,800.5 L1300.5,750.5 L1300.5,700.5 L1350.5,700.5 L1350.5,675.5 L1325.5,650.5 L1300.5,650.5 L1250.5,700.5 L1250.5,750.5 L1300.5,800.5 L1300.5,850.5 z" fill-opacity="0" stroke="#00FDFF" stroke-width="2"/>
      </g>
      <g>
        <path d="M850.5,1300.5 L850.5,1350.5 L800.5,1350.5 L750.5,1300.5 L700.5,1300.5 L700.5,1350.5 L675.5,1350.5 L650.5,1325.5 L650.5,1300.5 L700.5,1250.5 L750.5,1250.5 L800.5,1300.5 L850.5,1300.5 z" fill-opacity="0" stroke="#00FDFF" stroke-width="2"/>
        <path d="M850.5,1700.5 L850.5,1650.5 L800.5,1650.5 L750.5,1700.5 L700.5,1700.5 L700.5,1650.5 L675.5,1650.5 L650.5,1675.5 L650.5,1700.5 L700.5,1750.5 L750.5,1750.5 L800.5,1700.5 L850.5,1700.5 z" fill-opacity="0" stroke="#00FDFF" stroke-width="2"/>
      </g>
      <g>
        <path d="M1300.5,2150.5 L1350.5,2150.5 L1350.5,2200.5 L1300.5,2250.5 L1300.5,2300.5 L1350.5,2300.5 L1350.5,2325.5 L1325.5,2350.5 L1300.5,2350.5 L1300.5,2350.5 L1250.5,2300.5 L1250.5,2250.5 L1300.5,2200.5 L1300.5,2150.5 z" fill-opacity="0" stroke="#00FDFF" stroke-width="2"/>
        <path d="M1700.5,2150.5 L1650.5,2150.5 L1650.5,2200.5 L1700.5,2250.5 L1700.5,2300.5 L1650.5,2300.5 L1650.5,2350.5 L1650.5,2350.5 L1650.5,2350.5 L1650.5,2325.5 L1675.5,2350.5 L1700.5,2350.5 L1750.5,2300.5 L1750.5,2250.5 L1700.5,2200.5 L1700.5,2150.5 z" fill-opacity="0" stroke="#00FDFF" stroke-width="2"/>
      </g>
      <g>
        <path d="M2150.5,1700.5 L2150.5,1650.5 L2200.5,1650.5 L2250.5,1700.5 L2300.5,1700.5 L2300.5,1650.5 L2350.5,1650.5 L2350.5,1700.5 L2300.5,1750.5 L2250.5,1750.5 L2200.5,1700.5 L2150.5,1700.5 z" fill-opacity="0" stroke="#00FDFF" stroke-width="2"/>
        <path d="M2150.5,1300.5 L2150.5,1350.5 L2200.5,1350.5 L2250.5,1300.5 L2300.5,1300.5 L2300.5,1350.5 L2325.5,1350.5 L2350.5,1325.5 L2350.5,1300.5 L2300.5,1250.5 L2250.5,1250.5 L2200.5,1300.5 L2150.5,1300.5 z" fill-opacity="0" stroke="#00FDFF" stroke-width="2"/>
      </g>
    </g>
    <g>
      <g>
        <path d="M1650.5,1900.5 L1600.5,1900.5 L1600.5,1950.5 L1650.5,2000.5 L1650.5,2075.5 L1700.5,2125.5 L1700.5,2000.5 L1650.5,1950.5 L1650.5,1900.5 z" fill-opacity="0" stroke="#00FDFF" stroke-width="2"/>
        <path d="M1350.5,1900.5 L1400.5,1900.5 L1400.5,1950.5 L1350.5,2000.5 L1350.5,2075.5 L1300.5,2125.5 L1300.5,2000.5 L1350.5,1950.5 L1350.5,1900.5 z" fill-opacity="0" stroke="#00FDFF" stroke-width="2"/>
      </g>
      <g>
        <path d="M1900.5,1650.5 L1900.5,1600.5 L1950.5,1600.5 L2000.5,1650.5 L2075.5,1650.5 L2125.5,1700.5 L2000.5,1700.5 L1950.5,1650.5 L1900.5,1650.5 z" fill-opacity="0" stroke="#00FDFF" stroke-width="2"/>
        <path d="M1900.5,1350.5 L1900.5,1400.5 L1950.5,1400.5 L2000.5,1350.5 L2075.5,1350.5 L2125.5,1300.5 L2000.5,1300.5 L1950.5,1350.5 L1900.5,1350.5 z" fill-opacity="0" stroke="#00FDFF" stroke-width="2"/>
      </g>
      <g>
        <path d="M1650.5,1100.5 L1600.5,1100.5 L1600.5,1050.5 L1650.5,1000.5 L1650.5,925.5 L1700.5,875.5 L1700.5,1000.5 L1650.5,1050.5 L1650.5,1100.5 z" fill-opacity="0" stroke="#00FDFF" stroke-width="2"/>
        <path d="M1350.5,1100.5 L1400.5,1100.5 L1400.5,1050.5 L1350.5,1000.5 L1350.5,925.5 L1300.5,875.5 L1300.5,1000.5 L1350.5,1050.5 L1350.5,1100.5 z" fill-opacity="0" stroke="#00FDFF" stroke-width="2"/>
      </g>
      <g>
        <path d="M1100.5,1350.5 L1100.5,1400.5 L1050.5,1400.5 L1000.5,1350.5 L925.5,1350.5 L875.5,1300.5 L1000.5,1300.5 L1050.5,1350.5 L1100.5,1350.5 z" fill-opacity="0" stroke="#00FDFF" stroke-width="2"/>
        <path d="M1100.5,1650.5 L1100.5,1600.5 L1050.5,1600.5 L1000.5,1650.5 L925.5,1650.5 L875.5,1700.5 L1000.5,1700.5 L1050.5,1650.5 L1100.5,1650.5 z" fill-opacity="0" stroke="#00FDFF" stroke-width="2"/>
      </g>
    </g>
    <g>
      <g>
        <path d="M1475.5,1200.5 L1375.5,1200.5 L1425.5,1250.5 L1425.5,1300.5 L1475.5,1350.5 L1475.5,1325.5 L1450.5,1300.5 L1450.5,1250.5 L1475.5,1225.5 L1475.5,1200.5 z" fill-opacity="0" stroke="#00FDFF" stroke-width="2"/>
        <path d="M1525.5,1200.5 L1625.5,1200.5 L1575.5,1250.5 L1575.5,1300.5 L1525.5,1350.5 L1525.5,1325.5 L1550.5,1300.5 L1550.5,1250.5 L1525.5,1225.5 L1525.5,1200.5 z" fill-opacity="0" stroke="#00FDFF" stroke-width="2"/>
      </g>
      <g>
        <path d="M1800.5,1475.5 L1800.5,1375.5 L1750.5,1425.5 L1700.5,1425.5 L1650.5,1475.5 L1675.5,1475.5 L1700.5,1450.5 L1750.5,1450.5 L1775.5,1475.5 L1800.5,1475.5 z" fill-opacity="0" stroke="#00FDFF" stroke-width="2"/>
        <path d="M1800.5,1525.5 L1800.5,1625.5 L1750.5,1575.5 L1700.5,1575.5 L1650.5,1525.5 L1675.5,1525.5 L1700.5,1550.5 L1750.5,1550.5 L1775.5,1525.5 L1800.5,1525.5 z" fill-opacity="0" stroke="#00FDFF" stroke-width="2"/>
      </g>
      <g>
        <path d="M1525.5,1800.5 L1625.5,1800.5 L1575.5,1750.5 L1575.5,1700.5 L1525.5,1650.5 L1525.5,1675.5 L1550.5,1700.5 L1550.5,1750.5 L1525.5,1775.5 L1525.5,1800.5 z" fill-opacity="0" stroke="#00FDFF" stroke-width="2"/>
        <path d="M1475.5,1800.5 L1375.5,1800.5 L1425.5,1750.5 L1425.5,1700.5 L1475.5,1650.5 L1475.5,1675.5 L1450.5,1700.5 L1450.5,1750.5 L1475.5,1775.5 L1475.5,1800.5 z" fill-opacity="0" stroke="#00FDFF" stroke-width="2"/>
      </g>
      <g>
        <path d="M1200.5,1525.5 L1200.5,1625.5 L1250.5,1575.5 L1300.5,1575.5 L1350.5,1525.5 L1325.5,1525.5 L1300.5,1550.5 L1250.5,1550.5 L1225.5,1525.5 L1200.5,1525.5 z" fill-opacity="0" stroke="#00FDFF" stroke-width="2"/>
        <path d="M1200.5,1475.5 L1200.5,1375.5 L1250.5,1425.5 L1300.5,1425.5 L1350.5,1475.5 L1325.5,1475.5 L1300.5,1450.5 L1250.5,1450.5 L1225.5,1475.5 L1200.5,1475.5 z" fill-opacity="0" stroke="#00FDFF" stroke-width="2"/>
      </g>
    </g>
  </g>
  <g id="green">
    <g>
      <path d="M1725.5,1250.5 L1750.5,1275.5 L1850.5,1175.5 L1875.5,1200.5 L1875.5,1125.5 L1800.5,1125.5 L1825.5,1150.5 L1725.5,1250.5 z" fill-opacity="0" stroke="#00F900" stroke-width="2"/>
      <path d="M1750.5,1725.5 L1725.5,1750.5 L1825.5,1850.5 L1800.5,1875.5 L1875.5,1875.5 L1875.5,1800.5 L1850.5,1825.5 L1750.5,1725.5 z" fill-opacity="0" stroke="#00F900" stroke-width="2"/>
      <path d="M1250.5,1725.5 L1275.5,1750.5 L1175.5,1850.5 L1200.5,1875.5 L1125.5,1875.5 L1125.5,1800.5 L1150.5,1825.5 L1250.5,1725.5 z" fill-opacity="0" stroke="#00F900" stroke-width="2"/>
      <path d="M1250.5,1275.5 L1275.5,1250.5 L1175.5,1150.5 L1200.5,1125.5 L1125.5,1125.5 L1125.5,1200.5 L1150.5,1175.5 L1250.5,1275.5 z" fill-opacity="0" stroke="#00F900" stroke-width="2"/>
    </g>
    <g>
      <path d="M1900.5,1950.5 L1950.5,1900.5 L2025.5,1900.5 L2025.5,1950.5 L1975.5,1950.5 L1950.5,1975.5 L1950.5,2025.5 L1900.5,2025.5 L1900.5,1950.5" fill-opacity="0" stroke="#00F900" stroke-width="2"/>
      <path d="M1050.5,1100.5 L1100.5,1050.5 L1100.5,975.5 L1050.5,975.5 L1050.5,1025.5 L1025.5,1050.5 L975.5,1050.5 L975.5,1100.5 L1050.5,1100.5 z" fill-opacity="0" stroke="#00F900" stroke-width="2"/>
      <path d="M1100.5,1950.5 L1050.5,1900.5 L975.5,1900.5 L975.5,1950.5 L1025.5,1950.5 L1050.5,1975.5 L1050.5,2025.5 L1100.5,2025.5 L1100.5,1950.5 z" fill-opacity="0" stroke="#00F900" stroke-width="2"/>
      <path d="M1900.5,1050.5 L1950.5,1100.5 L2025.5,1100.5 L2025.5,1050.5 L1975.5,1050.5 L1950.5,1025.5 L1950.5,975.5 L1900.5,975.5 L1900.5,1050.5 z" fill-opacity="0" stroke="#00F900" stroke-width="2"/>
    </g>
    <g>
      <g>
        <path d="M1975.5,2000.5 L1975.5,2100.5 L2025.5,2100.5 L2075.5,2150.5 L2125.5,2150.5 L1975.5,2000.5 z" fill-opacity="0" stroke="#00F900" stroke-width="2"/>
        <path d="M2000.5,1975.5 L2100.5,1975.5 L2100.5,2025.5 L2150.5,2075.5 L2150.5,2125.5 L2000.5,1975.5 z" fill-opacity="0" stroke="#00F900" stroke-width="2"/>
      </g>
      <g>
        <path d="M1000.5,1975.5 L900.5,1975.5 L900.5,2025.5 L850.5,2075.5 L850.5,2125.5 L1000.5,1975.5 z" fill-opacity="0" stroke="#00F900" stroke-width="2"/>
        <path d="M1025.5,2000.5 L1025.5,2100.5 L975.5,2100.5 L925.5,2150.5 L875.5,2150.5 L1025.5,2000.5 z" fill-opacity="0" stroke="#00F900" stroke-width="2"/>
      </g>
      <g>
        <path d="M1025.5,1000.5 L1025.5,900.5 L975.5,900.5 L925.5,850.5 L875.5,850.5 L1025.5,1000.5 z" fill-opacity="0" stroke="#00F900" stroke-width="2"/>
        <path d="M1000.5,1025.5 L900.5,1025.5 L900.5,975.5 L850.5,925.5 L850.5,875.5 L1000.5,1025.5 z" fill-opacity="0" stroke="#00F900" stroke-width="2"/>
      </g>
      <g>
        <path d="M2000.5,1025.5 L2100.5,1025.5 L2100.5,975.5 L2150.5,925.5 L2150.5,875.5 L2000.5,1025.5 z" fill-opacity="0" stroke="#00F900" stroke-width="2"/>
        <path d="M1975.5,1000.5 L1975.5,900.5 L2025.5,900.5 L2075.5,850.5 L2125.5,850.5 L1975.5,1000.5 z" fill-opacity="0" stroke="#00F900" stroke-width="2"/>
      </g>
    </g>
    <g>
      <path d="M1625.5,1475.5 L1675.5,1425.5 L1625.5,1425.5 L1575.5,1375.5 L1575.5,1325.5 L1525.5,1375.5 L1525.5,1400.5 L1550.5,1425.5 L1550.5,1450.5 L1575.5,1450.5 L1600.5,1475.5 L1625.5,1475.5 z" fill-opacity="0" stroke="#00F900" stroke-width="2"/>
      <path d="M1525.5,1625.5 L1575.5,1675.5 L1575.5,1625.5 L1625.5,1575.5 L1675.5,1575.5 L1625.5,1525.5 L1600.5,1525.5 L1575.5,1550.5 L1575.5,1550.5 L1550.5,1550.5 L1550.5,1575.5 L1525.5,1600.5 L1525.5,1625.5 z" fill-opacity="0" stroke="#00F900" stroke-width="2"/>
      <path d="M1375.5,1525.5 L1325.5,1575.5 L1375.5,1575.5 L1425.5,1625.5 L1425.5,1675.5 L1475.5,1625.5 L1475.5,1600.5 L1450.5,1575.5 L1450.5,1575.5 L1450.5,1575.5 L1450.5,1550.5 L1425.5,1550.5 L1425.5,1550.5 L1425.5,1550.5 L1425.5,1550.5 L1400.5,1525.5 L1375.5,1525.5 z" fill-opacity="0" stroke="#00F900" stroke-width="2"/>
      <path d="M1425.5,1325.5 L1475.5,1375.5 L1475.5,1400.5 L1450.5,1425.5 L1450.5,1425.5 L1450.5,1450.5 L1425.5,1450.5 L1400.5,1475.5 L1375.5,1475.5 L1325.5,1425.5 L1375.5,1425.5 L1425.5,1375.5 L1425.5,1325.5 z" fill-opacity="0" stroke="#00F900" stroke-width="2"/>
    </g>
    <g>
      <path d="M1700.5,1275.5 L1725.5,1300.5 L1700.5,1325.5 L1700.5,1350.5 L1650.5,1350.5 L1650.5,1300.5 L1675.5,1300.5 L1700.5,1275.5 z" fill-opacity="0" stroke="#00F900" stroke-width="2"/>
      <path d="M1725.5,1700.5 L1700.5,1725.5 L1675.5,1700.5 L1650.5,1700.5 L1650.5,1650.5 L1700.5,1650.5 L1700.5,1675.5 L1725.5,1700.5 z" fill-opacity="0" stroke="#00F900" stroke-width="2"/>
      <path d="M1300.5,1725.5 L1275.5,1700.5 L1300.5,1675.5 L1300.5,1650.5 L1350.5,1650.5 L1350.5,1700.5 L1325.5,1700.5 L1300.5,1725.5 z" fill-opacity="0" stroke="#00F900" stroke-width="2"/>
      <path d="M1275.5,1300.5 L1300.5,1275.5 L1325.5,1300.5 L1350.5,1300.5 L1350.5,1350.5 L1300.5,1350.5 L1300.5,1325.5 L1275.5,1300.5 z" fill-opacity="0" stroke="#00F900" stroke-width="2"/>
    </g>
  </g>
  <g id="red">
    <g>
      <g>
        <path d="M1700.5,1250.5 L1650.5,1200.5 L1650.5,1150.5 L1700.5,1150.5 L1750.5,1100.5 L1800.5,1150.5 L1700.5,1250.5 z" fill-opacity="0" stroke="#FF2600" stroke-width="2"/>
        <path d="M1750.5,1300.5 L1800.5,1350.5 L1850.5,1350.5 L1850.5,1300.5 L1900.5,1250.5 L1850.5,1200.5 L1750.5,1300.5 z" fill-opacity="0" stroke="#FF2600" stroke-width="2"/>
      </g>
      <g>
        <path d="M1700.5,1750.5 L1650.5,1800.5 L1650.5,1850.5 L1700.5,1850.5 L1750.5,1900.5 L1800.5,1850.5 L1700.5,1750.5 z" fill-opacity="0" stroke="#FF2600" stroke-width="2"/>
        <path d="M1750.5,1700.5 L1800.5,1650.5 L1850.5,1650.5 L1850.5,1700.5 L1900.5,1750.5 L1850.5,1800.5 L1750.5,1700.5 z" fill-opacity="0" stroke="#FF2600" stroke-width="2"/>
      </g>
      <g>
        <path d="M1250.5,1700.5 L1200.5,1650.5 L1150.5,1650.5 L1150.5,1700.5 L1100.5,1750.5 L1150.5,1800.5 L1250.5,1700.5 z" fill-opacity="0" stroke="#FF2600" stroke-width="2"/>
        <path d="M1300.5,1750.5 L1350.5,1800.5 L1350.5,1850.5 L1300.5,1850.5 L1250.5,1900.5 L1200.5,1850.5 L1300.5,1750.5 z" fill-opacity="0" stroke="#FF2600" stroke-width="2"/>
      </g>
      <g>
        <path d="M1250.5,1300.5 L1200.5,1350.5 L1150.5,1350.5 L1150.5,1300.5 L1100.5,1250.5 L1150.5,1200.5 L1250.5,1300.5 z" fill-opacity="0" stroke="#FF2600" stroke-width="2"/>
        <path d="M1300.5,1250.5 L1350.5,1200.5 L1350.5,1150.5 L1300.5,1150.5 L1250.5,1100.5 L1200.5,1150.5 L1300.5,1250.5 z" fill-opacity="0" stroke="#FF2600" stroke-width="2"/>
      </g>
    </g>
    <g>
      <g>
        <path d="M1875.5,1100.5 L1800.5,1100.5 L1750.5,1050.5 L1675.5,1125.5 L1675.5,1075.5 L1750.5,1000.5 L1800.5,1050.5 L1875.5,1050.5 L1875.5,1100.5 z" fill-opacity="0" stroke="#FF2600" stroke-width="2"/>
        <path d="M1900.5,1125.5 L1900.5,1200.5 L1950.5,1250.5 L1875.5,1325.5 L1925.5,1325.5 L2000.5,1250.5 L1950.5,1200.5 L1950.5,1125.5 L1900.5,1125.5 z" fill-opacity="0" stroke="#FF2600" stroke-width="2"/>
      </g>
      <g>
        <path d="M1900.5,1875.5 L1900.5,1800.5 L1950.5,1750.5 L1875.5,1675.5 L1925.5,1675.5 L2000.5,1750.5 L1950.5,1800.5 L1950.5,1875.5 L1900.5,1875.5 z" fill-opacity="0" stroke="#FF2600" stroke-width="2"/>
        <path d="M1875.5,1900.5 L1800.5,1900.5 L1750.5,1950.5 L1675.5,1875.5 L1675.5,1925.5 L1750.5,2000.5 L1800.5,1950.5 L1875.5,1950.5 L1875.5,1900.5 z" fill-opacity="0" stroke="#FF2600" stroke-width="2"/>
      </g>
      <g>
        <path d="M1125.5,1900.5 L1200.5,1900.5 L1250.5,1950.5 L1325.5,1875.5 L1325.5,1925.5 L1250.5,2000.5 L1200.5,1950.5 L1125.5,1950.5 L1125.5,1900.5 z" fill-opacity="0" stroke="#FF2600" stroke-width="2"/>
        <path d="M1100.5,1875.5 L1100.5,1800.5 L1050.5,1750.5 L1125.5,1675.5 L1075.5,1675.5 L1000.5,1750.5 L1050.5,1800.5 L1050.5,1875.5 L1100.5,1875.5 z" fill-opacity="0" stroke="#FF2600" stroke-width="2"/>
      </g>
      <g>
        <path d="M1100.5,1125.5 L1100.5,1200.5 L1050.5,1250.5 L1125.5,1325.5 L1075.5,1325.5 L1000.5,1250.5 L1050.5,1200.5 L1050.5,1125.5 L1100.5,1125.5 z" fill-opacity="0" stroke="#FF2600" stroke-width="2"/>
        <path d="M1125.5,1100.5 L1200.5,1100.5 L1250.5,1050.5 L1325.5,1125.5 L1325.5,1075.5 L1250.5,1000.5 L1200.5,1050.5 L1125.5,1050.5 L1125.5,1100.5 z" fill-opacity="0" stroke="#FF2600" stroke-width="2"/>
      </g>
    </g>
    <g>
      <g>
        <path d="M1975.5,1200.5 L2025.5,1250.5 L2025.5,1275.5 L2125.5,1275.5 L2125.5,1225.5 L2075.5,1225.5 L1975.5,1125.5 L1975.5,1200.5 z" fill-opacity="0" stroke="#FF2600" stroke-width="2"/>
        <path d="M1800.5,1025.5 L1750.5,975.5 L1725.5,975.5 L1725.5,875.5 L1775.5,875.5 L1775.5,925.5 L1875.5,1025.5 L1800.5,1025.5 z" fill-opacity="0" stroke="#FF2600" stroke-width="2"/>
      </g>
      <g>
        <path d="M1975.5,1800.5 L2025.5,1750.5 L2025.5,1725.5 L2125.5,1725.5 L2125.5,1775.5 L2075.5,1775.5 L1975.5,1875.5 L1975.5,1800.5 z" fill-opacity="0" stroke="#FF2600" stroke-width="2"/>
        <path d="M1800.5,1975.5 L1750.5,2025.5 L1725.5,2025.5 L1725.5,2125.5 L1775.5,2125.5 L1775.5,2075.5 L1875.5,1975.5 L1800.5,1975.5 z" fill-opacity="0" stroke="#FF2600" stroke-width="2"/>
      </g>
      <g>
        <path d="M1200.5,1975.5 L1250.5,2025.5 L1275.5,2025.5 L1275.5,2125.5 L1225.5,2125.5 L1225.5,2075.5 L1125.5,1975.5 L1200.5,1975.5 z" fill-opacity="0" stroke="#FF2600" stroke-width="2"/>
        <path d="M1025.5,1800.5 L975.5,1750.5 L975.5,1725.5 L875.5,1725.5 L875.5,1775.5 L925.5,1775.5 L1025.5,1875.5 L1025.5,1800.5 z" fill-opacity="0" stroke="#FF2600" stroke-width="2"/>
      </g>
      <g>
        <path d="M1200.5,1025.5 L1250.5,975.5 L1275.5,975.5 L1275.5,875.5 L1225.5,875.5 L1225.5,925.5 L1125.5,1025.5 L1200.5,1025.5 z" fill-opacity="0" stroke="#FF2600" stroke-width="2"/>
        <path d="M1025.5,1200.5 L975.5,1250.5 L975.5,1275.5 L875.5,1275.5 L875.5,1225.5 L925.5,1225.5 L1025.5,1125.5 L1025.5,1200.5 z" fill-opacity="0" stroke="#FF2600" stroke-width="2"/>
      </g>
    </g>
    <g>
      <g>
        <path d="M2050.5,1125.5 L2100.5,1175.5 L2100.5,1200.5 L2125.5,1200.5 L2150.5,1175.5 L2150.5,1150.5 L2125.5,1150.5 L2050.5,1075.5 L2050.5,1125.5 z" fill-opacity="0" stroke="#FF2600" stroke-width="2"/>
        <path d="M1875.5,950.5 L1825.5,900.5 L1800.5,900.5 L1800.5,875.5 L1825.5,850.5 L1850.5,850.5 L1850.5,875.5 L1925.5,950.5 L1875.5,950.5 z" fill-opacity="0" stroke="#FF2600" stroke-width="2"/>
      </g>
      <g>
        <path d="M1125.5,950.5 L1175.5,900.5 L1200.5,900.5 L1200.5,875.5 L1175.5,850.5 L1150.5,850.5 L1150.5,875.5 L1075.5,950.5 L1125.5,950.5 z" fill-opacity="0" stroke="#FF2600" stroke-width="2"/>
        <path d="M950.5,1125.5 L900.5,1175.5 L900.5,1200.5 L875.5,1200.5 L850.5,1175.5 L850.5,1150.5 L875.5,1150.5 L950.5,1075.5 L950.5,1125.5 z" fill-opacity="0" stroke="#FF2600" stroke-width="2"/>
      </g>
      <g>
        <path d="M2050.5,1875.5 L2100.5,1825.5 L2100.5,1800.5 L2125.5,1800.5 L2150.5,1825.5 L2150.5,1850.5 L2125.5,1850.5 L2050.5,1925.5 L2050.5,1875.5 z" fill-opacity="0" stroke="#FF2600" stroke-width="2"/>
        <path d="M1875.5,2050.5 L1825.5,2100.5 L1800.5,2100.5 L1800.5,2125.5 L1825.5,2150.5 L1850.5,2150.5 L1850.5,2125.5 L1925.5,2050.5 L1875.5,2050.5 z" fill-opacity="0" stroke="#FF2600" stroke-width="2"/>
      </g>
      <g>
        <path d="M1125.5,2050.5 L1175.5,2100.5 L1200.5,2100.5 L1200.5,2125.5 L1175.5,2150.5 L1150.5,2150.5 L1150.5,2125.5 L1075.5,2050.5 L1125.5,2050.5 z" fill-opacity="0" stroke="#FF2600" stroke-width="2"/>
        <path d="M950.5,1875.5 L900.5,1825.5 L900.5,1800.5 L875.5,1800.5 L850.5,1825.5 L850.5,1850.5 L875.5,1850.5 L950.5,1925.5 L950.5,1875.5 z" fill-opacity="0" stroke="#FF2600" stroke-width="2"/>
      </g>
    </g>
    <g>
      <g>
        <path d="M2075.5,1050.5 L2125.5,1100.5 L2125.5,1125.5 L2175.5,1125.5 L2175.5,1075.5 L2150.5,1075.5 L2125.5,1050.5 L2075.5,1050.5 z" fill-opacity="0" stroke="#FF2600" stroke-width="2"/>
        <path d="M1950.5,925.5 L1900.5,875.5 L1875.5,875.5 L1875.5,825.5 L1925.5,825.5 L1925.5,850.5 L1950.5,875.5 L1950.5,925.5 z" fill-opacity="0" stroke="#FF2600" stroke-width="2"/>
      </g>
      <g>
        <path d="M1050.5,925.5 L1100.5,875.5 L1125.5,875.5 L1125.5,825.5 L1075.5,825.5 L1075.5,850.5 L1050.5,875.5 L1050.5,925.5 z" fill-opacity="0" stroke="#FF2600" stroke-width="2"/>
        <path d="M925.5,1050.5 L875.5,1100.5 L875.5,1125.5 L825.5,1125.5 L825.5,1075.5 L850.5,1075.5 L875.5,1050.5 L925.5,1050.5 z" fill-opacity="0" stroke="#FF2600" stroke-width="2"/>
      </g>
      <g>
        <path d="M2075.5,1950.5 L2125.5,1900.5 L2125.5,1875.5 L2175.5,1875.5 L2175.5,1925.5 L2150.5,1925.5 L2125.5,1950.5 L2075.5,1950.5 z" fill-opacity="0" stroke="#FF2600" stroke-width="2"/>
        <path d="M1950.5,2075.5 L1900.5,2125.5 L1875.5,2125.5 L1875.5,2175.5 L1925.5,2175.5 L1925.5,2150.5 L1950.5,2125.5 L1950.5,2075.5 z" fill-opacity="0" stroke="#FF2600" stroke-width="2"/>
      </g>
      <g>
        <path d="M1050.5,2075.5 L1100.5,2125.5 L1125.5,2125.5 L1125.5,2175.5 L1075.5,2175.5 L1075.5,2150.5 L1050.5,2125.5 L1050.5,2075.5 z" fill-opacity="0" stroke="#FF2600" stroke-width="2"/>
        <path d="M925.5,1950.5 L875.5,1900.5 L875.5,1875.5 L825.5,1875.5 L825.5,1925.5 L850.5,1925.5 L875.5,1950.5 L925.5,1950.5 z" fill-opacity="0" stroke="#FF2600" stroke-width="2"/>
      </g>
    </g>
    <g>
      <g>
        <path d="M2125.5,1000.5 L2200.5,1075.5 L2200.5,1100.5 L2225.5,1100.5 L2250.5,1075.5 L2250.5,1050.5 L2225.5,1050.5 L2175.5,1000.5 L2125.5,1000.5 z" fill-opacity="0" stroke="#FF2600" stroke-width="2"/>
        <path d="M2000.5,875.5 L1925.5,800.5 L1900.5,800.5 L1900.5,775.5 L1925.5,750.5 L1950.5,750.5 L1950.5,775.5 L2000.5,825.5 L2000.5,875.5 z" fill-opacity="0" stroke="#FF2600" stroke-width="2"/>
      </g>
      <g>
        <path d="M2125.5,2000.5 L2200.5,1925.5 L2200.5,1900.5 L2225.5,1900.5 L2250.5,1925.5 L2250.5,1950.5 L2225.5,1950.5 L2175.5,2000.5 L2125.5,2000.5 z" fill-opacity="0" stroke="#FF2600" stroke-width="2"/>
        <path d="M2000.5,2125.5 L1925.5,2200.5 L1900.5,2200.5 L1900.5,2225.5 L1925.5,2250.5 L1950.5,2250.5 L1950.5,2225.5 L2000.5,2175.5 L2000.5,2125.5 z" fill-opacity="0" stroke="#FF2600" stroke-width="2"/>
      </g>
      <g>
        <path d="M1000.5,2125.5 L1075.5,2200.5 L1100.5,2200.5 L1100.5,2225.5 L1075.5,2250.5 L1050.5,2250.5 L1050.5,2225.5 L1000.5,2175.5 L1000.5,2125.5 z" fill-opacity="0" stroke="#FF2600" stroke-width="2"/>
        <path d="M875.5,2000.5 L800.5,1925.5 L800.5,1900.5 L775.5,1900.5 L750.5,1925.5 L750.5,1950.5 L775.5,1950.5 L825.5,2000.5 L875.5,2000.5 z" fill-opacity="0" stroke="#FF2600" stroke-width="2"/>
      </g>
      <g>
        <path d="M875.5,1000.5 L800.5,1075.5 L800.5,1100.5 L775.5,1100.5 L750.5,1075.5 L750.5,1050.5 L775.5,1050.5 L825.5,1000.5 L875.5,1000.5 z" fill-opacity="0" stroke="#FF2600" stroke-width="2"/>
        <path d="M1000.5,875.5 L1075.5,800.5 L1100.5,800.5 L1100.5,775.5 L1075.5,750.5 L1050.5,750.5 L1050.5,775.5 L1000.5,825.5 L1000.5,875.5 z" fill-opacity="0" stroke="#FF2600" stroke-width="2"/>
      </g>
    </g>
    <g>
      <g>
        <path d="M1650.5,1225.5 L1675.5,1250.5 L1675.5,1275.5 L1650.5,1275.5 L1625.5,1300.5 L1625.5,1350.5 L1600.5,1375.5 L1600.5,1275.5 L1650.5,1225.5 z" fill-opacity="0" stroke="#FF2600" stroke-width="2"/>
        <path d="M1775.5,1350.5 L1750.5,1325.5 L1725.5,1325.5 L1725.5,1350.5 L1700.5,1375.5 L1650.5,1375.5 L1625.5,1400.5 L1725.5,1400.5 L1775.5,1350.5 z" fill-opacity="0" stroke="#FF2600" stroke-width="2"/>
      </g>
      <g>
        <path d="M1650.5,1775.5 L1675.5,1750.5 L1675.5,1725.5 L1650.5,1725.5 L1625.5,1700.5 L1625.5,1650.5 L1600.5,1625.5 L1600.5,1725.5 L1650.5,1775.5 z" fill-opacity="0" stroke="#FF2600" stroke-width="2"/>
        <path d="M1775.5,1650.5 L1750.5,1675.5 L1725.5,1675.5 L1725.5,1650.5 L1700.5,1625.5 L1650.5,1625.5 L1625.5,1600.5 L1725.5,1600.5 L1775.5,1650.5 z" fill-opacity="0" stroke="#FF2600" stroke-width="2"/>
      </g>
      <g>
        <path d="M1350.5,1775.5 L1325.5,1750.5 L1325.5,1725.5 L1350.5,1725.5 L1375.5,1700.5 L1375.5,1650.5 L1400.5,1625.5 L1400.5,1725.5 L1350.5,1775.5 z" fill-opacity="0" stroke="#FF2600" stroke-width="2"/>
        <path d="M1225.5,1650.5 L1250.5,1675.5 L1275.5,1675.5 L1275.5,1650.5 L1300.5,1625.5 L1350.5,1625.5 L1375.5,1600.5 L1275.5,1600.5 L1225.5,1650.5 z" fill-opacity="0" stroke="#FF2600" stroke-width="2"/>
      </g>
      <g>
        <path d="M1225.5,1350.5 L1250.5,1325.5 L1275.5,1325.5 L1275.5,1350.5 L1300.5,1375.5 L1350.5,1375.5 L1375.5,1400.5 L1275.5,1400.5 L1225.5,1350.5 z" fill-opacity="0" stroke="#FF2600" stroke-width="2"/>
        <path d="M1350.5,1225.5 L1325.5,1250.5 L1325.5,1275.5 L1350.5,1275.5 L1375.5,1300.5 L1375.5,1350.5 L1400.5,1375.5 L1400.5,1275.5 C1400.5,1275.5 1350.5,1225.5 1350.5,1225.5" fill-opacity="0" stroke="#FF2600" stroke-width="2"/>
      </g>
    </g>
  </g>
</svg>
