<?xml version="1.0" encoding="UTF-8"?>
<!DOCTYPE svg PUBLIC "-//W3C//DTD SVG 1.1//EN" "http://www.w3.org/Graphics/SVG/1.1/DTD/svg11.dtd">
<svg version="1.1" xmlns="http://www.w3.org/2000/svg" xmlns:xlink="http://www.w3.org/1999/xlink" x="0" y="0" width="3000" height="2000" viewBox="0, 0, 3000, 2000">
  <g id="Center">
    <g id="centerBottom">
      <g id="centerBottom5">
        <path d="M1620.5,1120.5 L1620.5,1220.5 L1660.5,1260.5 L1700.5,1220.5 L1660.5,1180.5 L1660.5,1120.5 L1620.5,1120.5 z" fill="#0E8A08"/>
        <path d="M1620.5,1120.5 L1620.5,1220.5 L1660.5,1260.5 L1700.5,1220.5 L1660.5,1180.5 L1660.5,1120.5 L1620.5,1120.5 z" fill-opacity="0" stroke="#000000" stroke-width="1"/>
      </g>
      <g id="centerBottom4">
        <path d="M1520.5,1020.5 L1520.5,1080.5 L1560.5,1120.5 L1560.5,1260.5 L1600.5,1300.5 L1640.5,1300.5 L1640.5,1260.5 L1600.5,1220.5 L1600.5,1060.5 L1560.5,1020.5 L1520.5,1020.5 z" fill="#11A60A"/>
        <path d="M1520.5,1020.5 L1520.5,1080.5 L1560.5,1120.5 L1560.5,1260.5 L1600.5,1300.5 L1640.5,1300.5 L1640.5,1260.5 L1600.5,1220.5 L1600.5,1060.5 L1560.5,1020.5 L1520.5,1020.5 z" fill-opacity="0" stroke="#000000" stroke-width="1"/>
      </g>
      <g id="centerBottom3">
        <path d="M1480.5,1100.5 L1520.5,1100.5 L1540.5,1120.5 L1540.5,1260.5 L1560.5,1280.5 L1560.5,1300.5 L1440.5,1300.5 L1440.5,1280.5 L1460.5,1260.5 L1460.5,1120.5 L1480.5,1100.5 z" fill="#12B30A"/>
        <path d="M1480.5,1100.5 L1520.5,1100.5 L1540.5,1120.5 L1540.5,1260.5 L1560.5,1280.5 L1560.5,1300.5 L1440.5,1300.5 L1440.5,1280.5 L1460.5,1260.5 L1460.5,1120.5 L1480.5,1100.5 z" fill-opacity="0" stroke="#000000" stroke-width="1"/>
      </g>
      <g id="centerBottom2">
        <path d="M1480.5,1020.5 L1480.5,1080.5 L1440.5,1120.5 L1440.5,1260.5 L1400.5,1300.5 L1360.5,1300.5 L1360.5,1260.5 L1400.5,1220.5 L1400.5,1060.5 L1440.5,1020.5 L1480.5,1020.5 z" fill="#11A60A"/>
        <path d="M1480.5,1020.5 L1480.5,1080.5 L1440.5,1120.5 L1440.5,1260.5 L1400.5,1300.5 L1360.5,1300.5 L1360.5,1260.5 L1400.5,1220.5 L1400.5,1060.5 L1440.5,1020.5 L1480.5,1020.5 z" fill-opacity="0" stroke="#000000" stroke-width="1"/>
      </g>
      <g id="centerBottom1">
        <path d="M1380.5,1120.5 L1380.5,1220.5 L1340.5,1260.5 L1300.5,1220.5 L1340.5,1180.5 L1340.5,1120.5 L1380.5,1120.5 z" fill="#0E8A08"/>
        <path d="M1380.5,1120.5 L1380.5,1220.5 L1340.5,1260.5 L1300.5,1220.5 L1340.5,1180.5 L1340.5,1120.5 L1380.5,1120.5 z" fill-opacity="0" stroke="#000000" stroke-width="1"/>
      </g>
      <g id="centerBottom6">
        <path d="M1320.5,1120.5 L1280.5,1120.5 L1240.5,1160.5 L1280.5,1200.5 L1320.5,1160.5 C1320.5,1160.5 1320.5,1120.5 1320.5,1120.5 z" fill="#0C7607"/>
        <path d="M1320.5,1120.5 L1280.5,1120.5 L1240.5,1160.5 L1280.5,1200.5 L1320.5,1160.5 C1320.5,1160.5 1320.5,1120.5 1320.5,1120.5 z" fill-opacity="0" stroke="#000000" stroke-width="1"/>
      </g>
      <g id="centerBottom7">
        <path d="M1680.5,1120.5 L1720.5,1120.5 L1760.5,1160.5 L1720.5,1200.5 L1680.5,1160.5 C1680.5,1160.5 1680.5,1120.5 1680.5,1120.5 z" fill="#0C7607"/>
        <path d="M1680.5,1120.5 L1720.5,1120.5 L1760.5,1160.5 L1720.5,1200.5 L1680.5,1160.5 C1680.5,1160.5 1680.5,1120.5 1680.5,1120.5 z" fill-opacity="0" stroke="#000000" stroke-width="1"/>
      </g>
    </g>
    <g id="centerTop">
      <g id="centerTop5">
        <path d="M1620.5,880.5 L1620.5,780.5 L1660.5,740.5 L1700.5,780.5 L1660.5,820.5 L1660.5,880.5 L1620.5,880.5 z" fill="#0E8A08"/>
        <path d="M1620.5,880.5 L1620.5,780.5 L1660.5,740.5 L1700.5,780.5 L1660.5,820.5 L1660.5,880.5 L1620.5,880.5 z" fill-opacity="0" stroke="#000000" stroke-width="1"/>
      </g>
      <g id="centerTop4">
        <path d="M1520.5,980.5 L1520.5,920.5 L1560.5,880.5 L1560.5,740.5 L1600.5,700.5 L1640.5,700.5 L1640.5,740.5 L1600.5,780.5 L1600.5,940.5 L1560.5,980.5 L1520.5,980.5 z" fill="#11A60A"/>
        <path d="M1520.5,980.5 L1520.5,920.5 L1560.5,880.5 L1560.5,740.5 L1600.5,700.5 L1640.5,700.5 L1640.5,740.5 L1600.5,780.5 L1600.5,940.5 L1560.5,980.5 L1520.5,980.5 z" fill-opacity="0" stroke="#000000" stroke-width="1"/>
      </g>
      <g id="centerTop3">
        <path d="M1480.5,900.5 L1520.5,900.5 L1540.5,880.5 L1540.5,740.5 L1560.5,720.5 L1560.5,700.5 L1440.5,700.5 L1440.5,720.5 L1460.5,740.5 L1460.5,880.5 L1480.5,900.5 z" fill="#12B30A"/>
        <path d="M1480.5,900.5 L1520.5,900.5 L1540.5,880.5 L1540.5,740.5 L1560.5,720.5 L1560.5,700.5 L1440.5,700.5 L1440.5,720.5 L1460.5,740.5 L1460.5,880.5 L1480.5,900.5 z" fill-opacity="0" stroke="#000000" stroke-width="1"/>
      </g>
      <g id="centerTop2">
        <path d="M1480.5,980.5 L1480.5,920.5 L1440.5,880.5 L1440.5,740.5 L1400.5,700.5 L1360.5,700.5 L1360.5,740.5 L1400.5,780.5 L1400.5,940.5 L1440.5,980.5 L1480.5,980.5 z" fill="#11A70A"/>
        <path d="M1480.5,980.5 L1480.5,920.5 L1440.5,880.5 L1440.5,740.5 L1400.5,700.5 L1360.5,700.5 L1360.5,740.5 L1400.5,780.5 L1400.5,940.5 L1440.5,980.5 L1480.5,980.5 z" fill-opacity="0" stroke="#000000" stroke-width="1"/>
      </g>
      <g id="centerTop1">
        <path d="M1380.5,880.5 L1380.5,780.5 L1340.5,740.5 L1300.5,780.5 L1340.5,820.5 L1340.5,880.5 L1380.5,880.5 z" fill="#0E8A08"/>
        <path d="M1380.5,880.5 L1380.5,780.5 L1340.5,740.5 L1300.5,780.5 L1340.5,820.5 L1340.5,880.5 L1380.5,880.5 z" fill-opacity="0" stroke="#000000" stroke-width="1"/>
      </g>
      <g id="centerTop6">
        <path d="M1320.5,880.5 L1280.5,880.5 L1240.5,840.5 L1280.5,800.5 L1320.5,840.5 C1320.5,840.5 1320.5,880.5 1320.5,880.5 z" fill="#0C7607"/>
        <path d="M1320.5,880.5 L1280.5,880.5 L1240.5,840.5 L1280.5,800.5 L1320.5,840.5 C1320.5,840.5 1320.5,880.5 1320.5,880.5 z" fill-opacity="0" stroke="#000000" stroke-width="1"/>
      </g>
      <g id="centerTop7">
        <path d="M1680.5,880.5 L1720.5,880.5 L1760.5,840.5 L1720.5,800.5 L1680.5,840.5 C1680.5,840.5 1680.5,880.5 1680.5,880.5 z" fill="#0C7607"/>
        <path d="M1680.5,880.5 L1720.5,880.5 L1760.5,840.5 L1720.5,800.5 L1680.5,840.5 C1680.5,840.5 1680.5,880.5 1680.5,880.5 z" fill-opacity="0" stroke="#000000" stroke-width="1"/>
      </g>
    </g>
    <g id="centerRight">
      <g id="centerRight4">
        <path d="M1620.5,1080.5 L1640.5,1060.5 L1800.5,1060.5 L1800.5,1140.5 L1760.5,1140.5 C1760.5,1140.5 1720.5,1100.5 1720.5,1100.5 C1720.5,1100.5 1620.5,1100.5 1620.5,1100.5 L1620.5,1080.5 z" fill="#0A6106"/>
        <path d="M1620.5,1080.5 L1640.5,1060.5 L1800.5,1060.5 L1800.5,1140.5 L1760.5,1140.5 C1760.5,1140.5 1720.5,1100.5 1720.5,1100.5 C1720.5,1100.5 1620.5,1100.5 1620.5,1100.5 L1620.5,1080.5 z" fill-opacity="0" stroke="#000000" stroke-width="1"/>
      </g>
      <g id="centerRight3">
        <path d="M1580.5,1020.5 L1620.5,1060.5 L1640.5,1040.5 L1800.5,1040.5 L1800.5,960.5 L1640.5,960.5 L1620.5,940.5 L1580.5,980.5 L1580.5,1020.5 z" fill="#084D04"/>
        <path d="M1580.5,1020.5 L1620.5,1060.5 L1640.5,1040.5 L1800.5,1040.5 L1800.5,960.5 L1640.5,960.5 L1620.5,940.5 L1580.5,980.5 L1580.5,1020.5 z" fill-opacity="0" stroke="#000000" stroke-width="1"/>
      </g>
      <g id="centerRight2">
        <path d="M1620.5,920.5 L1640.5,940.5 L1800.5,940.5 L1800.5,860.5 L1760.5,860.5 L1720.5,900.5 L1620.5,900.5 L1620.5,920.5 z" fill="#0A6106"/>
        <path d="M1620.5,920.5 L1640.5,940.5 L1800.5,940.5 L1800.5,860.5 L1760.5,860.5 L1720.5,900.5 L1620.5,900.5 L1620.5,920.5 z" fill-opacity="0" stroke="#000000" stroke-width="1"/>
      </g>
    </g>
    <g id="centerLeft">
      <g id="centerLeft4">
        <path d="M1380.5,1080.5 L1360.5,1060.5 L1200.5,1060.5 L1200.5,1140.5 C1200.5,1140.5 1240.5,1140.5 1240.5,1140.5 C1240.5,1140.5 1280.5,1100.5 1280.5,1100.5 L1380.5,1100.5 L1380.5,1080.5 z" fill="#0A6106"/>
        <path d="M1380.5,1080.5 L1360.5,1060.5 L1200.5,1060.5 L1200.5,1140.5 C1200.5,1140.5 1240.5,1140.5 1240.5,1140.5 C1240.5,1140.5 1280.5,1100.5 1280.5,1100.5 L1380.5,1100.5 L1380.5,1080.5 z" fill-opacity="0" stroke="#000000" stroke-width="1"/>
      </g>
      <g id="centerLeft3">
        <path d="M1420.5,1020.5 L1380.5,1060.5 L1360.5,1040.5 L1200.5,1040.5 L1200.5,960.5 L1360.5,960.5 L1380.5,940.5 L1420.5,980.5 L1420.5,1020.5 z" fill="#084D04"/>
        <path d="M1420.5,1020.5 L1380.5,1060.5 L1360.5,1040.5 L1200.5,1040.5 L1200.5,960.5 L1360.5,960.5 L1380.5,940.5 L1420.5,980.5 L1420.5,1020.5 z" fill-opacity="0" stroke="#000000" stroke-width="1"/>
      </g>
      <g id="centerLeft2">
        <path d="M1380.5,920.5 L1360.5,940.5 L1200.5,940.5 L1200.5,860.5 L1240.5,860.5 L1280.5,900.5 L1380.5,900.5 L1380.5,920.5 z" fill="#0A6106"/>
        <path d="M1380.5,920.5 L1360.5,940.5 L1200.5,940.5 L1200.5,860.5 L1240.5,860.5 L1280.5,900.5 L1380.5,900.5 L1380.5,920.5 z" fill-opacity="0" stroke="#000000" stroke-width="1"/>
      </g>
    </g>
  </g>
  <g id="Vertical_arm">
    <g id="Top_arm">
      <g>
        <path d="M1420.5,680.5 L1480.5,680.5 L1480.5,560.5 L1420.5,500.5 L1360.5,500.5 L1360.5,560.5 L1420.5,620.5 L1420.5,680.5 z" fill="#561630"/>
        <path d="M1420.5,680.5 L1480.5,680.5 L1480.5,560.5 L1420.5,500.5 L1360.5,500.5 L1360.5,560.5 L1420.5,620.5 L1420.5,680.5 z" fill-opacity="0" stroke="#000000" stroke-width="1"/>
      </g>
      <g>
        <path d="M1520.5,680.5 L1520.5,560.5 L1580.5,500.5 L1640.5,500.5 L1640.5,560.5 L1580.5,620.5 L1580.5,680.5 L1520.5,680.5 z" fill="#561630"/>
        <path d="M1520.5,680.5 L1520.5,560.5 L1580.5,500.5 L1640.5,500.5 L1640.5,560.5 L1580.5,620.5 L1580.5,680.5 L1520.5,680.5 z" fill-opacity="0" stroke="#000000" stroke-width="1"/>
      </g>
      <g>
        <path d="M1440.5,500.5 L1500.5,560.5 L1560.5,500.5 L1520.5,460.5 L1520.5,400.5 L1480.5,400.5 L1480.5,460.5 L1440.5,500.5 z" fill="#932552"/>
        <path d="M1440.5,500.5 L1500.5,560.5 L1560.5,500.5 L1520.5,460.5 L1520.5,400.5 L1480.5,400.5 L1480.5,460.5 L1440.5,500.5 z" fill-opacity="0" stroke="#000000" stroke-width="1"/>
      </g>
      <g>
        <path d="M1540.5,460.5 L1560.5,480.5 L1640.5,480.5 L1640.5,420.5 L1580.5,420.5 L1540.5,460.5 z" fill="#7B1F44"/>
        <path d="M1540.5,460.5 L1560.5,480.5 L1640.5,480.5 L1640.5,420.5 L1580.5,420.5 L1540.5,460.5 z" fill-opacity="0" stroke="#000000" stroke-width="1"/>
      </g>
      <g>
        <path d="M1540.5,440.5 L1580.5,400.5 L1600.5,400.5 L1600.5,340.5 L1580.5,340.5 L1540.5,380.5 L1540.5,440.5 z" fill="#9F2859"/>
        <path d="M1540.5,440.5 L1580.5,400.5 L1600.5,400.5 L1600.5,340.5 L1580.5,340.5 L1540.5,380.5 L1540.5,440.5 z" fill-opacity="0" stroke="#000000" stroke-width="1"/>
      </g>
      <g>
        <path d="M1520.5,380.5 L1580.5,320.5 L1660.5,320.5 L1660.5,260.5 L1580.5,260.5 L1520.5,320.5 L1520.5,380.5 z" fill="#C7326E"/>
        <path d="M1520.5,380.5 L1580.5,320.5 L1660.5,320.5 L1660.5,260.5 L1580.5,260.5 L1520.5,320.5 L1520.5,380.5 z" fill-opacity="0" stroke="#000000" stroke-width="1"/>
      </g>
      <g>
        <path d="M1460.5,460.5 L1440.5,480.5 L1360.5,480.5 L1360.5,420.5 L1420.5,420.5 L1460.5,460.5 z" fill="#7B1F44"/>
        <path d="M1460.5,460.5 L1440.5,480.5 L1360.5,480.5 L1360.5,420.5 L1420.5,420.5 L1460.5,460.5 z" fill-opacity="0" stroke="#000000" stroke-width="1"/>
      </g>
      <g>
        <path d="M1460.5,440.5 L1420.5,400.5 L1400.5,400.5 L1400.5,340.5 L1420.5,340.5 L1460.5,380.5 L1460.5,440.5 z" fill="#9F2859"/>
        <path d="M1460.5,440.5 L1420.5,400.5 L1400.5,400.5 L1400.5,340.5 L1420.5,340.5 L1460.5,380.5 L1460.5,440.5 z" fill-opacity="0" stroke="#000000" stroke-width="1"/>
      </g>
      <g>
        <path d="M1480.5,380.5 L1420.5,320.5 L1340.5,320.5 L1340.5,260.5 L1420.5,260.5 L1480.5,320.5 L1480.5,380.5 z" fill="#C7326E"/>
        <path d="M1480.5,380.5 L1420.5,320.5 L1340.5,320.5 L1340.5,260.5 L1420.5,260.5 L1480.5,320.5 L1480.5,380.5 z" fill-opacity="0" stroke="#000000" stroke-width="1"/>
      </g>
      <g>
        <path d="M1520.5,300.5 L1580.5,240.5 L1620.5,240.5 L1620.5,180.5 L1580.5,180.5 L1520.5,240.5 L1520.5,300.5 z" fill="#D23574"/>
        <path d="M1520.5,300.5 L1580.5,240.5 L1620.5,240.5 L1620.5,180.5 L1580.5,180.5 L1520.5,240.5 L1520.5,300.5 z" fill-opacity="0" stroke="#000000" stroke-width="1"/>
      </g>
      <g>
        <path d="M1540.5,200.5 L1580.5,160.5 L1660.5,160.5 L1660.5,100.5 L1580.5,100.5 L1540.5,140.5 L1540.5,200.5 z" fill="#DD387B"/>
        <path d="M1540.5,200.5 L1580.5,160.5 L1660.5,160.5 L1660.5,100.5 L1580.5,100.5 L1540.5,140.5 L1540.5,200.5 z" fill-opacity="0" stroke="#000000" stroke-width="1"/>
      </g>
      <g>
        <path d="M1480.5,300.5 L1420.5,240.5 L1380.5,240.5 L1380.5,180.5 L1420.5,180.5 L1480.5,240.5 L1480.5,300.5 z" fill="#D23574"/>
        <path d="M1480.5,300.5 L1420.5,240.5 L1380.5,240.5 L1380.5,180.5 L1420.5,180.5 L1480.5,240.5 L1480.5,300.5 z" fill-opacity="0" stroke="#000000" stroke-width="1"/>
      </g>
      <g>
        <path d="M1460.5,200.5 L1420.5,160.5 L1340.5,160.5 L1340.5,100.5 L1420.5,100.5 L1460.5,140.5 L1460.5,200.5 z" fill="#DD387B"/>
        <path d="M1460.5,200.5 L1420.5,160.5 L1340.5,160.5 L1340.5,100.5 L1420.5,100.5 L1460.5,140.5 L1460.5,200.5 z" fill-opacity="0" stroke="#000000" stroke-width="1"/>
      </g>
      <g>
        <path d="M1480.5,220.5 L1520.5,220.5 L1520.5,140.5 L1560.5,100.5 L1520.5,60.5 L1480.5,60.5 L1440.5,100.5 L1480.5,140.5 L1480.5,220.5 z" fill="#EB3B82"/>
        <path d="M1480.5,220.5 L1520.5,220.5 L1520.5,140.5 L1560.5,100.5 L1520.5,60.5 L1480.5,60.5 L1440.5,100.5 L1480.5,140.5 L1480.5,220.5 z" fill-opacity="0" stroke="#000000" stroke-width="1"/>
      </g>
      <g>
        <path d="M1660.5,480.5 L1660.5,420.5 L1640.5,400.5 L1620.5,400.5 L1620.5,340.5 L1640.5,340.5 L1700.5,400.5 L1700.5,480.5 L1660.5,480.5 z" fill="#6F1C3E"/>
        <path d="M1660.5,480.5 L1660.5,420.5 L1640.5,400.5 L1620.5,400.5 L1620.5,340.5 L1640.5,340.5 L1700.5,400.5 L1700.5,480.5 L1660.5,480.5 z" fill-opacity="0" stroke="#000000" stroke-width="1"/>
      </g>
      <g>
        <path d="M1340.5,480.5 L1340.5,420.5 L1360.5,400.5 L1380.5,400.5 L1380.5,340.5 L1360.5,340.5 L1300.5,400.5 L1300.5,480.5 L1340.5,480.5 z" fill="#6F1C3E"/>
        <path d="M1340.5,480.5 L1340.5,420.5 L1360.5,400.5 L1380.5,400.5 L1380.5,340.5 L1360.5,340.5 L1300.5,400.5 L1300.5,480.5 L1340.5,480.5 z" fill-opacity="0" stroke="#000000" stroke-width="1"/>
      </g>
      <g>
        <path d="M1680.5,340.5 L1680.5,260.5 L1660.5,240.5 L1640.5,240.5 L1640.5,180.5 L1680.5,180.5 L1720.5,220.5 L1720.5,300.5 L1680.5,340.5 z" fill="#BB2F68"/>
        <path d="M1680.5,340.5 L1680.5,260.5 L1660.5,240.5 L1640.5,240.5 L1640.5,180.5 L1680.5,180.5 L1720.5,220.5 L1720.5,300.5 L1680.5,340.5 z" fill-opacity="0" stroke="#000000" stroke-width="1"/>
      </g>
      <g>
        <path d="M1320.5,340.5 L1320.5,260.5 L1340.5,240.5 L1360.5,240.5 L1360.5,180.5 L1320.5,180.5 L1280.5,220.5 L1280.5,300.5 L1320.5,340.5 z" fill="#BB2F68"/>
        <path d="M1320.5,340.5 L1320.5,260.5 L1340.5,240.5 L1360.5,240.5 L1360.5,180.5 L1320.5,180.5 L1280.5,220.5 L1280.5,300.5 L1320.5,340.5 z" fill-opacity="0" stroke="#000000" stroke-width="1"/>
      </g>
      <g>
        <path d="M1600.5,680.5 L1600.5,620.5 L1660.5,560.5 L1660.5,500.5 L1700.5,500.5 L1700.5,580.5 L1640.5,640.5 L1640.5,680.5 L1600.5,680.5 z" fill="#661A39"/>
        <path d="M1600.5,680.5 L1600.5,620.5 L1660.5,560.5 L1660.5,500.5 L1700.5,500.5 L1700.5,580.5 L1640.5,640.5 L1640.5,680.5 L1600.5,680.5 z" fill-opacity="0" stroke="#000000" stroke-width="1"/>
      </g>
      <g>
        <path d="M1400.5,680.5 L1400.5,620.5 L1340.5,560.5 L1340.5,500.5 L1300.5,500.5 L1300.5,580.5 L1360.5,640.5 L1360.5,680.5 L1400.5,680.5 z" fill="#661A39"/>
        <path d="M1400.5,680.5 L1400.5,620.5 L1340.5,560.5 L1340.5,500.5 L1300.5,500.5 L1300.5,580.5 L1360.5,640.5 L1360.5,680.5 L1400.5,680.5 z" fill-opacity="0" stroke="#000000" stroke-width="1"/>
      </g>
    </g>
    <g id="Bottom_arm">
      <g>
        <path d="M1420.5,1320.5 L1480.5,1320.5 L1480.5,1440.5 L1420.5,1500.5 L1360.5,1500.5 L1360.5,1440.5 L1420.5,1380.5 L1420.5,1320.5 z" fill="#561630"/>
        <path d="M1420.5,1320.5 L1480.5,1320.5 L1480.5,1440.5 L1420.5,1500.5 L1360.5,1500.5 L1360.5,1440.5 L1420.5,1380.5 L1420.5,1320.5 z" fill-opacity="0" stroke="#000000" stroke-width="1"/>
      </g>
      <g>
        <path d="M1520.5,1320.5 L1520.5,1440.5 L1580.5,1500.5 L1640.5,1500.5 L1640.5,1440.5 L1580.5,1380.5 L1580.5,1320.5 L1520.5,1320.5 z" fill="#561630"/>
        <path d="M1520.5,1320.5 L1520.5,1440.5 L1580.5,1500.5 L1640.5,1500.5 L1640.5,1440.5 L1580.5,1380.5 L1580.5,1320.5 L1520.5,1320.5 z" fill-opacity="0" stroke="#000000" stroke-width="1"/>
      </g>
      <g>
        <path d="M1440.5,1500.5 L1500.5,1440.5 L1560.5,1500.5 L1520.5,1540.5 L1520.5,1600.5 L1480.5,1600.5 L1480.5,1540.5 L1440.5,1500.5 z" fill="#932552"/>
        <path d="M1440.5,1500.5 L1500.5,1440.5 L1560.5,1500.5 L1520.5,1540.5 L1520.5,1600.5 L1480.5,1600.5 L1480.5,1540.5 L1440.5,1500.5 z" fill-opacity="0" stroke="#000000" stroke-width="1"/>
      </g>
      <g>
        <path d="M1540.5,1540.5 L1560.5,1520.5 L1640.5,1520.5 L1640.5,1580.5 L1580.5,1580.5 L1540.5,1540.5 z" fill="#7B1F44"/>
        <path d="M1540.5,1540.5 L1560.5,1520.5 L1640.5,1520.5 L1640.5,1580.5 L1580.5,1580.5 L1540.5,1540.5 z" fill-opacity="0" stroke="#000000" stroke-width="1"/>
      </g>
      <g>
        <path d="M1540.5,1560.5 L1580.5,1600.5 L1600.5,1600.5 L1600.5,1660.5 L1580.5,1660.5 L1540.5,1620.5 L1540.5,1560.5 z" fill="#9F2859"/>
        <path d="M1540.5,1560.5 L1580.5,1600.5 L1600.5,1600.5 L1600.5,1660.5 L1580.5,1660.5 L1540.5,1620.5 L1540.5,1560.5 z" fill-opacity="0" stroke="#000000" stroke-width="1"/>
      </g>
      <g>
        <path d="M1520.5,1620.5 L1580.5,1680.5 L1660.5,1680.5 L1660.5,1740.5 L1580.5,1740.5 L1520.5,1680.5 L1520.5,1620.5 z" fill="#C7326E"/>
        <path d="M1520.5,1620.5 L1580.5,1680.5 L1660.5,1680.5 L1660.5,1740.5 L1580.5,1740.5 L1520.5,1680.5 L1520.5,1620.5 z" fill-opacity="0" stroke="#000000" stroke-width="1"/>
      </g>
      <g>
        <path d="M1460.5,1540.5 L1440.5,1520.5 L1360.5,1520.5 L1360.5,1580.5 L1420.5,1580.5 L1460.5,1540.5 z" fill="#7B1F44"/>
        <path d="M1460.5,1540.5 L1440.5,1520.5 L1360.5,1520.5 L1360.5,1580.5 L1420.5,1580.5 L1460.5,1540.5 z" fill-opacity="0" stroke="#000000" stroke-width="1"/>
      </g>
      <g>
        <path d="M1460.5,1560.5 L1420.5,1600.5 L1400.5,1600.5 L1400.5,1660.5 L1420.5,1660.5 L1460.5,1620.5 L1460.5,1560.5 z" fill="#9F2859"/>
        <path d="M1460.5,1560.5 L1420.5,1600.5 L1400.5,1600.5 L1400.5,1660.5 L1420.5,1660.5 L1460.5,1620.5 L1460.5,1560.5 z" fill-opacity="0" stroke="#000000" stroke-width="1"/>
      </g>
      <g>
        <path d="M1480.5,1620.5 L1420.5,1680.5 L1340.5,1680.5 L1340.5,1740.5 L1420.5,1740.5 L1480.5,1680.5 L1480.5,1620.5 z" fill="#C7326E"/>
        <path d="M1480.5,1620.5 L1420.5,1680.5 L1340.5,1680.5 L1340.5,1740.5 L1420.5,1740.5 L1480.5,1680.5 L1480.5,1620.5 z" fill-opacity="0" stroke="#000000" stroke-width="1"/>
      </g>
      <g>
        <path d="M1520.5,1700.5 L1580.5,1760.5 L1620.5,1760.5 L1620.5,1820.5 L1580.5,1820.5 L1520.5,1760.5 L1520.5,1700.5 z" fill="#D23574"/>
        <path d="M1520.5,1700.5 L1580.5,1760.5 L1620.5,1760.5 L1620.5,1820.5 L1580.5,1820.5 L1520.5,1760.5 L1520.5,1700.5 z" fill-opacity="0" stroke="#000000" stroke-width="1"/>
      </g>
      <g>
        <path d="M1540.5,1800.5 L1580.5,1840.5 L1660.5,1840.5 L1660.5,1900.5 L1580.5,1900.5 L1540.5,1860.5 L1540.5,1800.5 z" fill="#DD387B"/>
        <path d="M1540.5,1800.5 L1580.5,1840.5 L1660.5,1840.5 L1660.5,1900.5 L1580.5,1900.5 L1540.5,1860.5 L1540.5,1800.5 z" fill-opacity="0" stroke="#000000" stroke-width="1"/>
      </g>
      <g>
        <path d="M1480.5,1700.5 L1420.5,1760.5 L1380.5,1760.5 L1380.5,1820.5 L1420.5,1820.5 L1480.5,1760.5 L1480.5,1700.5 z" fill="#D23574"/>
        <path d="M1480.5,1700.5 L1420.5,1760.5 L1380.5,1760.5 L1380.5,1820.5 L1420.5,1820.5 L1480.5,1760.5 L1480.5,1700.5 z" fill-opacity="0" stroke="#000000" stroke-width="1"/>
      </g>
      <g>
        <path d="M1460.5,1800.5 L1420.5,1840.5 L1340.5,1840.5 L1340.5,1900.5 L1420.5,1900.5 L1460.5,1860.5 L1460.5,1800.5 z" fill="#DD387B"/>
        <path d="M1460.5,1800.5 L1420.5,1840.5 L1340.5,1840.5 L1340.5,1900.5 L1420.5,1900.5 L1460.5,1860.5 L1460.5,1800.5 z" fill-opacity="0" stroke="#000000" stroke-width="1"/>
      </g>
      <g>
        <path d="M1480.5,1780.5 L1520.5,1780.5 L1520.5,1860.5 L1560.5,1900.5 L1520.5,1940.5 L1480.5,1940.5 L1440.5,1900.5 L1480.5,1860.5 L1480.5,1780.5 z" fill="#EB3B82"/>
        <path d="M1480.5,1780.5 L1520.5,1780.5 L1520.5,1860.5 L1560.5,1900.5 L1520.5,1940.5 L1480.5,1940.5 L1440.5,1900.5 L1480.5,1860.5 L1480.5,1780.5 z" fill-opacity="0" stroke="#000000" stroke-width="1"/>
      </g>
      <g>
        <path d="M1660.5,1520.5 L1660.5,1580.5 L1640.5,1600.5 L1620.5,1600.5 L1620.5,1660.5 L1640.5,1660.5 L1700.5,1600.5 L1700.5,1520.5 L1660.5,1520.5 z" fill="#6F1C3E"/>
        <path d="M1660.5,1520.5 L1660.5,1580.5 L1640.5,1600.5 L1620.5,1600.5 L1620.5,1660.5 L1640.5,1660.5 L1700.5,1600.5 L1700.5,1520.5 L1660.5,1520.5 z" fill-opacity="0" stroke="#000000" stroke-width="1"/>
      </g>
      <g>
        <path d="M1340.5,1520.5 L1340.5,1580.5 L1360.5,1600.5 L1380.5,1600.5 L1380.5,1660.5 L1360.5,1660.5 L1300.5,1600.5 L1300.5,1520.5 L1340.5,1520.5 z" fill="#6F1C3E"/>
        <path d="M1340.5,1520.5 L1340.5,1580.5 L1360.5,1600.5 L1380.5,1600.5 L1380.5,1660.5 L1360.5,1660.5 L1300.5,1600.5 L1300.5,1520.5 L1340.5,1520.5 z" fill-opacity="0" stroke="#000000" stroke-width="1"/>
      </g>
      <g>
        <path d="M1680.5,1660.5 L1680.5,1740.5 L1660.5,1760.5 L1640.5,1760.5 L1640.5,1820.5 L1680.5,1820.5 L1720.5,1780.5 L1720.5,1700.5 L1680.5,1660.5 z" fill="#BB2F68"/>
        <path d="M1680.5,1660.5 L1680.5,1740.5 L1660.5,1760.5 L1640.5,1760.5 L1640.5,1820.5 L1680.5,1820.5 L1720.5,1780.5 L1720.5,1700.5 L1680.5,1660.5 z" fill-opacity="0" stroke="#000000" stroke-width="1"/>
      </g>
      <g>
        <path d="M1320.5,1660.5 L1320.5,1740.5 L1340.5,1760.5 L1360.5,1760.5 L1360.5,1820.5 L1320.5,1820.5 L1280.5,1780.5 L1280.5,1700.5 L1320.5,1660.5 z" fill="#BB2F68"/>
        <path d="M1320.5,1660.5 L1320.5,1740.5 L1340.5,1760.5 L1360.5,1760.5 L1360.5,1820.5 L1320.5,1820.5 L1280.5,1780.5 L1280.5,1700.5 L1320.5,1660.5 z" fill-opacity="0" stroke="#000000" stroke-width="1"/>
      </g>
      <g>
        <path d="M1600.5,1320.5 L1600.5,1380.5 L1660.5,1440.5 L1660.5,1500.5 L1700.5,1500.5 L1700.5,1420.5 L1640.5,1360.5 L1640.5,1320.5 L1600.5,1320.5 z" fill="#661A39"/>
        <path d="M1600.5,1320.5 L1600.5,1380.5 L1660.5,1440.5 L1660.5,1500.5 L1700.5,1500.5 L1700.5,1420.5 L1640.5,1360.5 L1640.5,1320.5 L1600.5,1320.5 z" fill-opacity="0" stroke="#000000" stroke-width="1"/>
      </g>
      <g>
        <path d="M1400.5,1320.5 L1400.5,1380.5 L1340.5,1440.5 L1340.5,1500.5 L1300.5,1500.5 L1300.5,1420.5 L1360.5,1360.5 L1360.5,1320.5 L1400.5,1320.5 z" fill="#661A39"/>
        <path d="M1400.5,1320.5 L1400.5,1380.5 L1340.5,1440.5 L1340.5,1500.5 L1300.5,1500.5 L1300.5,1420.5 L1360.5,1360.5 L1360.5,1320.5 L1400.5,1320.5 z" fill-opacity="0" stroke="#000000" stroke-width="1"/>
      </g>
    </g>
  </g>
  <g id="Side_secondary_arm">
    <g id="Right_upper_secondary_arm">
      <g>
        <path d="M2020.5,820.5 L2020.5,800.5 L2000.5,780.5 L1980.5,780.5 L1980.5,720.5 L2020.5,720.5 L2060.5,760.5 L2060.5,820.5 L2020.5,820.5 z" fill="#574063"/>
        <path d="M2020.5,820.5 L2020.5,800.5 L2000.5,780.5 L1980.5,780.5 L1980.5,720.5 L2020.5,720.5 L2060.5,760.5 L2060.5,820.5 L2020.5,820.5 z" fill-opacity="0" stroke="#000000" stroke-width="1"/>
      </g>
      <g>
        <path d="M2100.5,840.5 L2080.5,820.5 L2080.5,760.5 L2020.5,700.5 L2020.5,660.5 L2060.5,660.5 L2160.5,760.5 L2160.5,820.5 L2140.5,840.5 L2100.5,840.5 z" fill="#674C76"/>
        <path d="M2100.5,840.5 L2080.5,820.5 L2080.5,760.5 L2020.5,700.5 L2020.5,660.5 L2060.5,660.5 L2160.5,760.5 L2160.5,820.5 L2140.5,840.5 L2100.5,840.5 z" fill-opacity="0" stroke="#000000" stroke-width="1"/>
      </g>
      <g>
        <path d="M2180.5,820.5 L2180.5,760.5 L2220.5,720.5 L2320.5,820.5 L2320.5,860.5 L2280.5,860.5 L2240.5,820.5 L2180.5,820.5 z" fill="#7B5B8C"/>
        <path d="M2180.5,820.5 L2180.5,760.5 L2220.5,720.5 L2320.5,820.5 L2320.5,860.5 L2280.5,860.5 L2240.5,820.5 L2180.5,820.5 z" fill-opacity="0" stroke="#000000" stroke-width="1"/>
      </g>
      <g>
        <path d="M2340.5,820.5 L2260.5,740.5 L2300.5,700.5 L2360.5,760.5 L2380.5,760.5 L2380.5,820.5 L2340.5,820.5 z" fill="#8E69A3"/>
        <path d="M2340.5,820.5 L2260.5,740.5 L2300.5,700.5 L2360.5,760.5 L2380.5,760.5 L2380.5,820.5 L2340.5,820.5 z" fill-opacity="0" stroke="#000000" stroke-width="1"/>
      </g>
      <g>
        <path d="M2360.5,740.5 L2300.5,680.5 L2300.5,640.5 L2340.5,640.5 L2380.5,680.5 L2400.5,680.5 L2420.5,700.5 L2420.5,720.5 L2400.5,740.5 L2360.5,740.5 z" fill="#9A72B0"/>
        <path d="M2360.5,740.5 L2300.5,680.5 L2300.5,640.5 L2340.5,640.5 L2380.5,680.5 L2400.5,680.5 L2420.5,700.5 L2420.5,720.5 L2400.5,740.5 L2360.5,740.5 z" fill-opacity="0" stroke="#000000" stroke-width="1"/>
      </g>
      <g>
        <path d="M2440.5,700.5 L2400.5,660.5 L2380.5,660.5 L2380.5,640.5 L2400.5,620.5 L2440.5,620.5 L2460.5,640.5 L2480.5,640.5 L2500.5,660.5 L2500.5,680.5 L2480.5,700.5 L2440.5,700.5 z" fill="#A379BB"/>
        <path d="M2440.5,700.5 L2400.5,660.5 L2380.5,660.5 L2380.5,640.5 L2400.5,620.5 L2440.5,620.5 L2460.5,640.5 L2480.5,640.5 L2500.5,660.5 L2500.5,680.5 L2480.5,700.5 L2440.5,700.5 z" fill-opacity="0" stroke="#000000" stroke-width="1"/>
      </g>
      <g>
        <path d="M2520.5,640.5 L2500.5,620.5 L2460.5,620.5 L2460.5,580.5 L2540.5,580.5 L2560.5,600.5 L2560.5,620.5 L2540.5,640.5 L2520.5,640.5 z" fill="#AC7FC4"/>
        <path d="M2520.5,640.5 L2500.5,620.5 L2460.5,620.5 L2460.5,580.5 L2540.5,580.5 L2560.5,600.5 L2560.5,620.5 L2540.5,640.5 L2520.5,640.5 z" fill-opacity="0" stroke="#000000" stroke-width="1"/>
      </g>
    </g>
    <g id="Left_upper_secondary_arm">
      <g>
        <path d="M960.5,820.5 L960.5,800.5 L980.5,780.5 L1000.5,780.5 L1000.5,720.5 L960.5,720.5 L920.5,760.5 L920.5,820.5 L960.5,820.5 z" fill="#574063"/>
        <path d="M960.5,820.5 L960.5,800.5 L980.5,780.5 L1000.5,780.5 L1000.5,720.5 L960.5,720.5 L920.5,760.5 L920.5,820.5 L960.5,820.5 z" fill-opacity="0" stroke="#000000" stroke-width="1"/>
      </g>
      <g>
        <path d="M880.5,840.5 L900.5,820.5 L900.5,760.5 L960.5,700.5 L960.5,660.5 L920.5,660.5 L820.5,760.5 L820.5,820.5 L840.5,840.5 L880.5,840.5 z" fill="#674C76"/>
        <path d="M880.5,840.5 L900.5,820.5 L900.5,760.5 L960.5,700.5 L960.5,660.5 L920.5,660.5 L820.5,760.5 L820.5,820.5 L840.5,840.5 L880.5,840.5 z" fill-opacity="0" stroke="#000000" stroke-width="1"/>
      </g>
      <g>
        <path d="M800.5,820.5 L800.5,760.5 L760.5,720.5 L660.5,820.5 L660.5,860.5 L700.5,860.5 L740.5,820.5 L800.5,820.5 z" fill="#7B5B8C"/>
        <path d="M800.5,820.5 L800.5,760.5 L760.5,720.5 L660.5,820.5 L660.5,860.5 L700.5,860.5 L740.5,820.5 L800.5,820.5 z" fill-opacity="0" stroke="#000000" stroke-width="1"/>
      </g>
      <g>
        <path d="M640.5,820.5 L720.5,740.5 L680.5,700.5 L620.5,760.5 L600.5,760.5 L600.5,820.5 L640.5,820.5 z" fill="#8E69A3"/>
        <path d="M640.5,820.5 L720.5,740.5 L680.5,700.5 L620.5,760.5 L600.5,760.5 L600.5,820.5 L640.5,820.5 z" fill-opacity="0" stroke="#000000" stroke-width="1"/>
      </g>
      <g>
        <path d="M620.5,740.5 L680.5,680.5 L680.5,640.5 L640.5,640.5 L600.5,680.5 L580.5,680.5 L560.5,700.5 L560.5,720.5 L580.5,740.5 L620.5,740.5 z" fill="#9A72B0"/>
        <path d="M620.5,740.5 L680.5,680.5 L680.5,640.5 L640.5,640.5 L600.5,680.5 L580.5,680.5 L560.5,700.5 L560.5,720.5 L580.5,740.5 L620.5,740.5 z" fill-opacity="0" stroke="#000000" stroke-width="1"/>
      </g>
      <g>
        <path d="M540.5,700.5 L580.5,660.5 L600.5,660.5 L600.5,640.5 L580.5,620.5 L540.5,620.5 L520.5,640.5 L500.5,640.5 L480.5,660.5 L480.5,680.5 L500.5,700.5 L540.5,700.5 z" fill="#A379BB"/>
        <path d="M540.5,700.5 L580.5,660.5 L600.5,660.5 L600.5,640.5 L580.5,620.5 L540.5,620.5 L520.5,640.5 L500.5,640.5 L480.5,660.5 L480.5,680.5 L500.5,700.5 L540.5,700.5 z" fill-opacity="0" stroke="#000000" stroke-width="1"/>
      </g>
      <g>
        <path d="M460.5,640.5 L480.5,620.5 L520.5,620.5 L520.5,580.5 L440.5,580.5 L420.5,600.5 L420.5,620.5 L440.5,640.5 L460.5,640.5 z" fill="#AC7FC4"/>
        <path d="M460.5,640.5 L480.5,620.5 L520.5,620.5 L520.5,580.5 L440.5,580.5 L420.5,600.5 L420.5,620.5 L440.5,640.5 L460.5,640.5 z" fill-opacity="0" stroke="#000000" stroke-width="1"/>
      </g>
    </g>
    <g id="Right_lower_secondary_arm">
      <g>
        <path d="M2020.5,1180.5 L2020.5,1200.5 L2000.5,1220.5 L1980.5,1220.5 L1980.5,1280.5 L2020.5,1280.5 L2060.5,1240.5 L2060.5,1180.5 L2020.5,1180.5 z" fill="#574063"/>
        <path d="M2020.5,1180.5 L2020.5,1200.5 L2000.5,1220.5 L1980.5,1220.5 L1980.5,1280.5 L2020.5,1280.5 L2060.5,1240.5 L2060.5,1180.5 L2020.5,1180.5 z" fill-opacity="0" stroke="#000000" stroke-width="1"/>
      </g>
      <g>
        <path d="M2100.5,1160.5 L2080.5,1180.5 L2080.5,1240.5 L2020.5,1300.5 L2020.5,1340.5 L2060.5,1340.5 L2160.5,1240.5 L2160.5,1180.5 L2140.5,1160.5 L2100.5,1160.5 z" fill="#674C76"/>
        <path d="M2100.5,1160.5 L2080.5,1180.5 L2080.5,1240.5 L2020.5,1300.5 L2020.5,1340.5 L2060.5,1340.5 L2160.5,1240.5 L2160.5,1180.5 L2140.5,1160.5 L2100.5,1160.5 z" fill-opacity="0" stroke="#000000" stroke-width="1"/>
      </g>
      <g>
        <path d="M2180.5,1180.5 L2180.5,1240.5 L2220.5,1280.5 L2320.5,1180.5 L2320.5,1140.5 L2280.5,1140.5 L2240.5,1180.5 L2180.5,1180.5 z" fill="#7B5B8C"/>
        <path d="M2180.5,1180.5 L2180.5,1240.5 L2220.5,1280.5 L2320.5,1180.5 L2320.5,1140.5 L2280.5,1140.5 L2240.5,1180.5 L2180.5,1180.5 z" fill-opacity="0" stroke="#000000" stroke-width="1"/>
      </g>
      <g>
        <path d="M2340.5,1180.5 L2260.5,1260.5 L2300.5,1300.5 L2360.5,1240.5 L2380.5,1240.5 L2380.5,1180.5 L2340.5,1180.5 z" fill="#8E69A3"/>
        <path d="M2340.5,1180.5 L2260.5,1260.5 L2300.5,1300.5 L2360.5,1240.5 L2380.5,1240.5 L2380.5,1180.5 L2340.5,1180.5 z" fill-opacity="0" stroke="#000000" stroke-width="1"/>
      </g>
      <g>
        <path d="M2360.5,1260.5 L2300.5,1320.5 L2300.5,1360.5 L2340.5,1360.5 L2380.5,1320.5 L2400.5,1320.5 L2420.5,1300.5 L2420.5,1280.5 L2400.5,1260.5 L2360.5,1260.5 z" fill="#9A72B0"/>
        <path d="M2360.5,1260.5 L2300.5,1320.5 L2300.5,1360.5 L2340.5,1360.5 L2380.5,1320.5 L2400.5,1320.5 L2420.5,1300.5 L2420.5,1280.5 L2400.5,1260.5 L2360.5,1260.5 z" fill-opacity="0" stroke="#000000" stroke-width="1"/>
      </g>
      <g>
        <path d="M2440.5,1300.5 L2400.5,1340.5 L2380.5,1340.5 L2380.5,1360.5 L2400.5,1380.5 L2440.5,1380.5 L2460.5,1360.5 L2480.5,1360.5 L2500.5,1340.5 L2500.5,1320.5 L2480.5,1300.5 L2440.5,1300.5 z" fill="#A379BB"/>
        <path d="M2440.5,1300.5 L2400.5,1340.5 L2380.5,1340.5 L2380.5,1360.5 L2400.5,1380.5 L2440.5,1380.5 L2460.5,1360.5 L2480.5,1360.5 L2500.5,1340.5 L2500.5,1320.5 L2480.5,1300.5 L2440.5,1300.5 z" fill-opacity="0" stroke="#000000" stroke-width="1"/>
      </g>
      <g>
        <path d="M2520.5,1360.5 L2500.5,1380.5 L2460.5,1380.5 L2460.5,1420.5 L2540.5,1420.5 L2560.5,1400.5 L2560.5,1380.5 L2540.5,1360.5 L2520.5,1360.5 z" fill="#AC7FC4"/>
        <path d="M2520.5,1360.5 L2500.5,1380.5 L2460.5,1380.5 L2460.5,1420.5 L2540.5,1420.5 L2560.5,1400.5 L2560.5,1380.5 L2540.5,1360.5 L2520.5,1360.5 z" fill-opacity="0" stroke="#000000" stroke-width="1"/>
      </g>
    </g>
    <g id="Left_lower_secondary_arm">
      <g>
        <path d="M960.5,1180.5 L960.5,1200.5 L980.5,1220.5 L1000.5,1220.5 L1000.5,1280.5 L960.5,1280.5 L920.5,1240.5 L920.5,1180.5 L960.5,1180.5 z" fill="#574063"/>
        <path d="M960.5,1180.5 L960.5,1200.5 L980.5,1220.5 L1000.5,1220.5 L1000.5,1280.5 L960.5,1280.5 L920.5,1240.5 L920.5,1180.5 L960.5,1180.5 z" fill-opacity="0" stroke="#000000" stroke-width="1"/>
      </g>
      <g>
        <path d="M880.5,1160.5 L900.5,1180.5 L900.5,1240.5 L960.5,1300.5 L960.5,1340.5 L920.5,1340.5 L820.5,1240.5 L820.5,1180.5 L840.5,1160.5 L880.5,1160.5 z" fill="#674C76"/>
        <path d="M880.5,1160.5 L900.5,1180.5 L900.5,1240.5 L960.5,1300.5 L960.5,1340.5 L920.5,1340.5 L820.5,1240.5 L820.5,1180.5 L840.5,1160.5 L880.5,1160.5 z" fill-opacity="0" stroke="#000000" stroke-width="1"/>
      </g>
      <g>
        <path d="M800.5,1180.5 L800.5,1240.5 L760.5,1280.5 L660.5,1180.5 L660.5,1140.5 L700.5,1140.5 L740.5,1180.5 L800.5,1180.5 z" fill="#7B5B8C"/>
        <path d="M800.5,1180.5 L800.5,1240.5 L760.5,1280.5 L660.5,1180.5 L660.5,1140.5 L700.5,1140.5 L740.5,1180.5 L800.5,1180.5 z" fill-opacity="0" stroke="#000000" stroke-width="1"/>
      </g>
      <g>
        <path d="M640.5,1180.5 L720.5,1260.5 L680.5,1300.5 L620.5,1240.5 L600.5,1240.5 L600.5,1180.5 L640.5,1180.5 z" fill="#8E69A3"/>
        <path d="M640.5,1180.5 L720.5,1260.5 L680.5,1300.5 L620.5,1240.5 L600.5,1240.5 L600.5,1180.5 L640.5,1180.5 z" fill-opacity="0" stroke="#000000" stroke-width="1"/>
      </g>
      <g>
        <path d="M620.5,1260.5 L680.5,1320.5 L680.5,1360.5 L640.5,1360.5 L600.5,1320.5 L580.5,1320.5 L560.5,1300.5 L560.5,1280.5 L580.5,1260.5 L620.5,1260.5 z" fill="#9A72B0"/>
        <path d="M620.5,1260.5 L680.5,1320.5 L680.5,1360.5 L640.5,1360.5 L600.5,1320.5 L580.5,1320.5 L560.5,1300.5 L560.5,1280.5 L580.5,1260.5 L620.5,1260.5 z" fill-opacity="0" stroke="#000000" stroke-width="1"/>
      </g>
      <g>
        <path d="M540.5,1300.5 L580.5,1340.5 L600.5,1340.5 L600.5,1360.5 L580.5,1380.5 L540.5,1380.5 L520.5,1360.5 L500.5,1360.5 L480.5,1340.5 L480.5,1320.5 L500.5,1300.5 L540.5,1300.5 z" fill="#A379BB"/>
        <path d="M540.5,1300.5 L580.5,1340.5 L600.5,1340.5 L600.5,1360.5 L580.5,1380.5 L540.5,1380.5 L520.5,1360.5 L500.5,1360.5 L480.5,1340.5 L480.5,1320.5 L500.5,1300.5 L540.5,1300.5 z" fill-opacity="0" stroke="#000000" stroke-width="1"/>
      </g>
      <g>
        <path d="M460.5,1360.5 L480.5,1380.5 L520.5,1380.5 L520.5,1420.5 L440.5,1420.5 L420.5,1400.5 L420.5,1380.5 L440.5,1360.5 L460.5,1360.5 z" fill="#AC7FC4"/>
        <path d="M460.5,1360.5 L480.5,1380.5 L520.5,1380.5 L520.5,1420.5 L440.5,1420.5 L420.5,1400.5 L420.5,1380.5 L440.5,1360.5 L460.5,1360.5 z" fill-opacity="0" stroke="#000000" stroke-width="1"/>
      </g>
    </g>
  </g>
  <g id="Side_main_arm">
    <g id="Left_main_arm">
      <g>
        <path d="M1000.5,980.5 L940.5,980.5 L940.5,900.5 L980.5,860.5 L1000.5,860.5 L1000.5,980.5 z" fill="#2E8279"/>
        <path d="M1000.5,980.5 L940.5,980.5 L940.5,900.5 L980.5,860.5 L1000.5,860.5 L1000.5,980.5 z" fill-opacity="0" stroke="#000000" stroke-width="1"/>
      </g>
      <g>
        <path d="M1000.5,1020.5 L940.5,1020.5 L940.5,1100.5 L980.5,1140.5 L1000.5,1140.5 L1000.5,1020.5 z" fill="#2E8279"/>
        <path d="M1000.5,1020.5 L940.5,1020.5 L940.5,1100.5 L980.5,1140.5 L1000.5,1140.5 L1000.5,1020.5 z" fill-opacity="0" stroke="#000000" stroke-width="1"/>
      </g>
      <g>
        <path d="M920.5,1060.5 L840.5,1060.5 L840.5,1080.5 L920.5,1160.5 L960.5,1160.5 L960.5,1140.5 L920.5,1100.5 L920.5,1060.5 z" fill="#369A8F"/>
        <path d="M920.5,1060.5 L840.5,1060.5 L840.5,1080.5 L920.5,1160.5 L960.5,1160.5 L960.5,1140.5 L920.5,1100.5 L920.5,1060.5 z" fill-opacity="0" stroke="#000000" stroke-width="1"/>
      </g>
      <g>
        <path d="M920.5,940.5 L840.5,940.5 L840.5,920.5 L920.5,840.5 L960.5,840.5 L960.5,860.5 L920.5,900.5 L920.5,940.5 z" fill="#369A8F"/>
        <path d="M920.5,940.5 L840.5,940.5 L840.5,920.5 L920.5,840.5 L960.5,840.5 L960.5,860.5 L920.5,900.5 L920.5,940.5 z" fill-opacity="0" stroke="#000000" stroke-width="1"/>
      </g>
      <g>
        <path d="M820.5,1040.5 L760.5,1040.5 L760.5,1060.5 L840.5,1140.5 L880.5,1140.5 L820.5,1080.5 L820.5,1040.5 z" fill="#39A296"/>
        <path d="M820.5,1040.5 L760.5,1040.5 L760.5,1060.5 L840.5,1140.5 L880.5,1140.5 L820.5,1080.5 L820.5,1040.5 z" fill-opacity="0" stroke="#000000" stroke-width="1"/>
      </g>
      <g>
        <path d="M820.5,960.5 L760.5,960.5 L760.5,940.5 L840.5,860.5 L880.5,860.5 L820.5,920.5 L820.5,960.5 z" fill="#39A296"/>
        <path d="M820.5,960.5 L760.5,960.5 L760.5,940.5 L840.5,860.5 L880.5,860.5 L820.5,920.5 L820.5,960.5 z" fill-opacity="0" stroke="#000000" stroke-width="1"/>
      </g>
      <g>
        <path d="M740.5,980.5 L680.5,980.5 L680.5,920.5 L760.5,840.5 L820.5,840.5 L820.5,860.5 C820.5,860.5 740.5,940.5 740.5,940.5 C740.5,940.5 740.5,980.5 740.5,980.5 z" fill="#3EB0A3"/>
        <path d="M740.5,980.5 L680.5,980.5 L680.5,920.5 L760.5,840.5 L820.5,840.5 L820.5,860.5 C820.5,860.5 740.5,940.5 740.5,940.5 C740.5,940.5 740.5,980.5 740.5,980.5 z" fill-opacity="0" stroke="#000000" stroke-width="1"/>
      </g>
      <g>
        <path d="M740.5,1020.5 L680.5,1020.5 L680.5,1080.5 L760.5,1160.5 L820.5,1160.5 L820.5,1140.5 L740.5,1060.5 L740.5,1020.5 z" fill="#3EB0A3"/>
        <path d="M740.5,1020.5 L680.5,1020.5 L680.5,1080.5 L760.5,1160.5 L820.5,1160.5 L820.5,1140.5 L740.5,1060.5 L740.5,1020.5 z" fill-opacity="0" stroke="#000000" stroke-width="1"/>
      </g>
      <g>
        <path d="M660.5,1020.5 L620.5,1020.5 L620.5,1080.5 L660.5,1120.5 L700.5,1120.5 C700.5,1120.5 660.5,1080.5 660.5,1080.5 C660.5,1080.5 660.5,1020.5 660.5,1020.5 z" fill="#43BFB1"/>
        <path d="M660.5,1020.5 L620.5,1020.5 L620.5,1080.5 L660.5,1120.5 L700.5,1120.5 C700.5,1120.5 660.5,1080.5 660.5,1080.5 C660.5,1080.5 660.5,1020.5 660.5,1020.5 z" fill-opacity="0" stroke="#000000" stroke-width="1"/>
      </g>
      <g>
        <path d="M660.5,980.5 L620.5,980.5 L620.5,920.5 L660.5,880.5 L700.5,880.5 L660.5,920.5 L660.5,980.5 z" fill="#43BFB1"/>
        <path d="M660.5,980.5 L620.5,980.5 L620.5,920.5 L660.5,880.5 L700.5,880.5 L660.5,920.5 L660.5,980.5 z" fill-opacity="0" stroke="#000000" stroke-width="1"/>
      </g>
      <g>
        <path d="M600.5,1020.5 L540.5,1020.5 L540.5,1080.5 L620.5,1160.5 L660.5,1160.5 L660.5,1140.5 L600.5,1080.5 L600.5,1020.5 z" fill="#49D0C1"/>
        <path d="M600.5,1020.5 L540.5,1020.5 L540.5,1080.5 L620.5,1160.5 L660.5,1160.5 L660.5,1140.5 L600.5,1080.5 L600.5,1020.5 z" fill-opacity="0" stroke="#000000" stroke-width="1"/>
      </g>
      <g>
        <path d="M600.5,980.5 L540.5,980.5 L540.5,920.5 L620.5,840.5 L660.5,840.5 L660.5,860.5 L600.5,920.5 L600.5,980.5 z" fill="#49D0C1"/>
        <path d="M600.5,980.5 L540.5,980.5 L540.5,920.5 L620.5,840.5 L660.5,840.5 L660.5,860.5 L600.5,920.5 L600.5,980.5 z" fill-opacity="0" stroke="#000000" stroke-width="1"/>
      </g>
      <g>
        <path d="M920.5,960.5 L920.5,1040.5 L840.5,1040.5 L820.5,1020.5 L760.5,1020.5 L760.5,980.5 L820.5,980.5 C820.5,980.5 840.5,960.5 840.5,960.5 C840.5,960.5 920.5,960.5 920.5,960.5 z" fill="#328E84"/>
        <path d="M920.5,960.5 L920.5,1040.5 L840.5,1040.5 L820.5,1020.5 L760.5,1020.5 L760.5,980.5 L820.5,980.5 C820.5,980.5 840.5,960.5 840.5,960.5 C840.5,960.5 920.5,960.5 920.5,960.5 z" fill-opacity="0" stroke="#000000" stroke-width="1"/>
      </g>
      <g>
        <path d="M1160.5,920.5 L1100.5,920.5 L1040.5,860.5 L1020.5,860.5 L1020.5,980.5 L1160.5,980.5 L1160.5,920.5 z" fill="#266C64"/>
        <path d="M1160.5,920.5 L1100.5,920.5 L1040.5,860.5 L1020.5,860.5 L1020.5,980.5 L1160.5,980.5 L1160.5,920.5 z" fill-opacity="0" stroke="#000000" stroke-width="1"/>
      </g>
      <g>
        <path d="M1160.5,1080.5 L1100.5,1080.5 L1040.5,1140.5 L1020.5,1140.5 L1020.5,1020.5 L1160.5,1020.5 L1160.5,1080.5 z" fill="#266C64"/>
        <path d="M1160.5,1080.5 L1100.5,1080.5 L1040.5,1140.5 L1020.5,1140.5 L1020.5,1020.5 L1160.5,1020.5 L1160.5,1080.5 z" fill-opacity="0" stroke="#000000" stroke-width="1"/>
      </g>
      <g>
        <path d="M1180.5,1100.5 L1120.5,1100.5 L1060.5,1160.5 L1000.5,1160.5 L1000.5,1200.5 L1080.5,1200.5 L1140.5,1140.5 L1180.5,1140.5 L1180.5,1100.5 z" fill="#1F5851"/>
        <path d="M1180.5,1100.5 L1120.5,1100.5 L1060.5,1160.5 L1000.5,1160.5 L1000.5,1200.5 L1080.5,1200.5 L1140.5,1140.5 L1180.5,1140.5 L1180.5,1100.5 z" fill-opacity="0" stroke="#000000" stroke-width="1"/>
      </g>
      <g>
        <path d="M1180.5,900.5 L1120.5,900.5 L1060.5,840.5 L1000.5,840.5 L1000.5,800.5 L1080.5,800.5 L1140.5,860.5 L1180.5,860.5 L1180.5,900.5 z" fill="#1F5851"/>
        <path d="M1180.5,900.5 L1120.5,900.5 L1060.5,840.5 L1000.5,840.5 L1000.5,800.5 L1080.5,800.5 L1140.5,860.5 L1180.5,860.5 L1180.5,900.5 z" fill-opacity="0" stroke="#000000" stroke-width="1"/>
      </g>
    </g>
    <g id="Right_main_arm">
      <g>
        <path d="M2000.5,980.5 L2060.5,980.5 L2060.5,900.5 L2020.5,860.5 L2000.5,860.5 L2000.5,980.5 z" fill="#2E8279"/>
        <path d="M2000.5,980.5 L2060.5,980.5 L2060.5,900.5 L2020.5,860.5 L2000.5,860.5 L2000.5,980.5 z" fill-opacity="0" stroke="#000000" stroke-width="1"/>
      </g>
      <g>
        <path d="M2000.5,1020.5 L2060.5,1020.5 L2060.5,1100.5 L2020.5,1140.5 L2000.5,1140.5 L2000.5,1020.5 z" fill="#2E8279"/>
        <path d="M2000.5,1020.5 L2060.5,1020.5 L2060.5,1100.5 L2020.5,1140.5 L2000.5,1140.5 L2000.5,1020.5 z" fill-opacity="0" stroke="#000000" stroke-width="1"/>
      </g>
      <g>
        <path d="M2080.5,1060.5 L2160.5,1060.5 L2160.5,1080.5 L2080.5,1160.5 L2040.5,1160.5 L2040.5,1140.5 L2080.5,1100.5 L2080.5,1060.5 z" fill="#369A8F"/>
        <path d="M2080.5,1060.5 L2160.5,1060.5 L2160.5,1080.5 L2080.5,1160.5 L2040.5,1160.5 L2040.5,1140.5 L2080.5,1100.5 L2080.5,1060.5 z" fill-opacity="0" stroke="#000000" stroke-width="1"/>
      </g>
      <g>
        <path d="M2080.5,940.5 L2160.5,940.5 L2160.5,920.5 L2080.5,840.5 L2040.5,840.5 L2040.5,860.5 L2080.5,900.5 L2080.5,940.5 z" fill="#369A8F"/>
        <path d="M2080.5,940.5 L2160.5,940.5 L2160.5,920.5 L2080.5,840.5 L2040.5,840.5 L2040.5,860.5 L2080.5,900.5 L2080.5,940.5 z" fill-opacity="0" stroke="#000000" stroke-width="1"/>
      </g>
      <g>
        <path d="M2180.5,1040.5 L2240.5,1040.5 L2240.5,1060.5 L2160.5,1140.5 L2120.5,1140.5 L2180.5,1080.5 L2180.5,1040.5 z" fill="#39A296"/>
        <path d="M2180.5,1040.5 L2240.5,1040.5 L2240.5,1060.5 L2160.5,1140.5 L2120.5,1140.5 L2180.5,1080.5 L2180.5,1040.5 z" fill-opacity="0" stroke="#000000" stroke-width="1"/>
      </g>
      <g>
        <path d="M2180.5,960.5 L2240.5,960.5 L2240.5,940.5 L2160.5,860.5 L2120.5,860.5 L2180.5,920.5 L2180.5,960.5 z" fill="#39A296"/>
        <path d="M2180.5,960.5 L2240.5,960.5 L2240.5,940.5 L2160.5,860.5 L2120.5,860.5 L2180.5,920.5 L2180.5,960.5 z" fill-opacity="0" stroke="#000000" stroke-width="1"/>
      </g>
      <g>
        <path d="M2260.5,980.5 L2320.5,980.5 L2320.5,920.5 L2240.5,840.5 L2180.5,840.5 L2180.5,860.5 C2180.5,860.5 2260.5,940.5 2260.5,940.5 C2260.5,940.5 2260.5,980.5 2260.5,980.5 z" fill="#3EB0A3"/>
        <path d="M2260.5,980.5 L2320.5,980.5 L2320.5,920.5 L2240.5,840.5 L2180.5,840.5 L2180.5,860.5 C2180.5,860.5 2260.5,940.5 2260.5,940.5 C2260.5,940.5 2260.5,980.5 2260.5,980.5 z" fill-opacity="0" stroke="#000000" stroke-width="1"/>
      </g>
      <g>
        <path d="M2260.5,1020.5 L2320.5,1020.5 L2320.5,1080.5 L2240.5,1160.5 L2180.5,1160.5 L2180.5,1140.5 L2260.5,1060.5 L2260.5,1020.5 z" fill="#3EB0A3"/>
        <path d="M2260.5,1020.5 L2320.5,1020.5 L2320.5,1080.5 L2240.5,1160.5 L2180.5,1160.5 L2180.5,1140.5 L2260.5,1060.5 L2260.5,1020.5 z" fill-opacity="0" stroke="#000000" stroke-width="1"/>
      </g>
      <g>
        <path d="M2340.5,1020.5 L2380.5,1020.5 L2380.5,1080.5 L2340.5,1120.5 L2300.5,1120.5 C2300.5,1120.5 2340.5,1080.5 2340.5,1080.5 C2340.5,1080.5 2340.5,1020.5 2340.5,1020.5 z" fill="#43BFB1"/>
        <path d="M2340.5,1020.5 L2380.5,1020.5 L2380.5,1080.5 L2340.5,1120.5 L2300.5,1120.5 C2300.5,1120.5 2340.5,1080.5 2340.5,1080.5 C2340.5,1080.5 2340.5,1020.5 2340.5,1020.5 z" fill-opacity="0" stroke="#000000" stroke-width="1"/>
      </g>
      <g>
        <path d="M2340.5,980.5 L2380.5,980.5 L2380.5,920.5 L2340.5,880.5 L2300.5,880.5 L2340.5,920.5 L2340.5,980.5 z" fill="#43BFB1"/>
        <path d="M2340.5,980.5 L2380.5,980.5 L2380.5,920.5 L2340.5,880.5 L2300.5,880.5 L2340.5,920.5 L2340.5,980.5 z" fill-opacity="0" stroke="#000000" stroke-width="1"/>
      </g>
      <g>
        <path d="M2400.5,1020.5 L2460.5,1020.5 L2460.5,1080.5 L2380.5,1160.5 L2340.5,1160.5 L2340.5,1140.5 L2400.5,1080.5 L2400.5,1020.5 z" fill="#49D0C1"/>
        <path d="M2400.5,1020.5 L2460.5,1020.5 L2460.5,1080.5 L2380.5,1160.5 L2340.5,1160.5 L2340.5,1140.5 L2400.5,1080.5 L2400.5,1020.5 z" fill-opacity="0" stroke="#000000" stroke-width="1"/>
      </g>
      <g>
        <path d="M2400.5,980.5 L2460.5,980.5 L2460.5,920.5 L2380.5,840.5 L2340.5,840.5 L2340.5,860.5 L2400.5,920.5 L2400.5,980.5 z" fill="#49D0C1"/>
        <path d="M2400.5,980.5 L2460.5,980.5 L2460.5,920.5 L2380.5,840.5 L2340.5,840.5 L2340.5,860.5 L2400.5,920.5 L2400.5,980.5 z" fill-opacity="0" stroke="#000000" stroke-width="1"/>
      </g>
      <g>
        <path d="M2080.5,960.5 L2080.5,1040.5 L2160.5,1040.5 L2180.5,1020.5 L2240.5,1020.5 L2240.5,980.5 L2180.5,980.5 C2180.5,980.5 2160.5,960.5 2160.5,960.5 C2160.5,960.5 2080.5,960.5 2080.5,960.5 z" fill="#328E84"/>
        <path d="M2080.5,960.5 L2080.5,1040.5 L2160.5,1040.5 L2180.5,1020.5 L2240.5,1020.5 L2240.5,980.5 L2180.5,980.5 C2180.5,980.5 2160.5,960.5 2160.5,960.5 C2160.5,960.5 2080.5,960.5 2080.5,960.5 z" fill-opacity="0" stroke="#000000" stroke-width="1"/>
      </g>
      <g>
        <path d="M1840.5,920.5 L1900.5,920.5 L1960.5,860.5 L1980.5,860.5 L1980.5,980.5 L1840.5,980.5 L1840.5,920.5 z" fill="#266C64"/>
        <path d="M1840.5,920.5 L1900.5,920.5 L1960.5,860.5 L1980.5,860.5 L1980.5,980.5 L1840.5,980.5 L1840.5,920.5 z" fill-opacity="0" stroke="#000000" stroke-width="1"/>
      </g>
      <g>
        <path d="M1840.5,1080.5 L1900.5,1080.5 L1960.5,1140.5 L1980.5,1140.5 L1980.5,1020.5 L1840.5,1020.5 L1840.5,1080.5 z" fill="#266C64"/>
        <path d="M1840.5,1080.5 L1900.5,1080.5 L1960.5,1140.5 L1980.5,1140.5 L1980.5,1020.5 L1840.5,1020.5 L1840.5,1080.5 z" fill-opacity="0" stroke="#000000" stroke-width="1"/>
      </g>
      <g>
        <path d="M1820.5,1100.5 L1880.5,1100.5 L1940.5,1160.5 L2000.5,1160.5 L2000.5,1200.5 L1920.5,1200.5 L1860.5,1140.5 L1820.5,1140.5 L1820.5,1100.5 z" fill="#1F5851"/>
        <path d="M1820.5,1100.5 L1880.5,1100.5 L1940.5,1160.5 L2000.5,1160.5 L2000.5,1200.5 L1920.5,1200.5 L1860.5,1140.5 L1820.5,1140.5 L1820.5,1100.5 z" fill-opacity="0" stroke="#000000" stroke-width="1"/>
      </g>
      <g>
        <path d="M1820.5,900.5 L1880.5,900.5 L1940.5,840.5 L2000.5,840.5 L2000.5,800.5 L1920.5,800.5 L1860.5,860.5 L1820.5,860.5 L1820.5,900.5 z" fill="#1F5851"/>
        <path d="M1820.5,900.5 L1880.5,900.5 L1940.5,840.5 L2000.5,840.5 L2000.5,800.5 L1920.5,800.5 L1860.5,860.5 L1820.5,860.5 L1820.5,900.5 z" fill-opacity="0" stroke="#000000" stroke-width="1"/>
      </g>
    </g>
  </g>
  <g id="Corners">
    <g id="Top_right_corner_arm">
      <g>
        <path d="M1660.5,660.5 L1660.5,720.5 L1700.5,760.5 L1740.5,720.5 L1700.5,680.5 L1700.5,660.5 L1660.5,660.5 z" fill="#273069"/>
        <path d="M1660.5,660.5 L1660.5,720.5 L1700.5,760.5 L1740.5,720.5 L1700.5,680.5 L1700.5,660.5 L1660.5,660.5 z" fill-opacity="0" stroke="#000000" stroke-width="1"/>
      </g>
      <g>
        <path d="M1840.5,840.5 L1780.5,840.5 L1740.5,800.5 L1780.5,760.5 L1820.5,800.5 L1840.5,800.5 L1840.5,840.5 z" fill="#273069"/>
        <path d="M1840.5,840.5 L1780.5,840.5 L1740.5,800.5 L1780.5,760.5 L1820.5,800.5 L1840.5,800.5 L1840.5,840.5 z" fill-opacity="0" stroke="#000000" stroke-width="1"/>
      </g>
      <g>
        <path d="M1720.5,760.5 L1740.5,780.5 L1780.5,740.5 L1820.5,780.5 L1820.5,740.5 L1760.5,680.5 L1720.5,680.5 L1760.5,720.5 L1720.5,760.5 z" fill="#4B5CCA"/>
        <path d="M1720.5,760.5 L1740.5,780.5 L1780.5,740.5 L1820.5,780.5 L1820.5,740.5 L1760.5,680.5 L1720.5,680.5 L1760.5,720.5 L1720.5,760.5 z" fill-opacity="0" stroke="#000000" stroke-width="1"/>
      </g>
      <g>
        <path d="M1780.5,680.5 L1820.5,720.5 L1860.5,720.5 L1840.5,700.5 L1920.5,620.5 C1920.5,620.5 1880.5,580.5 1880.5,580.5 C1880.5,580.5 1800.5,660.5 1800.5,660.5 L1780.5,640.5 L1780.5,680.5 z" fill="#4758C0"/>
        <path d="M1780.5,680.5 L1820.5,720.5 L1860.5,720.5 L1840.5,700.5 L1920.5,620.5 C1920.5,620.5 1880.5,580.5 1880.5,580.5 C1880.5,580.5 1800.5,660.5 1800.5,660.5 L1780.5,640.5 L1780.5,680.5 z" fill-opacity="0" stroke="#000000" stroke-width="1"/>
      </g>
      <g>
        <path d="M1680.5,620.5 L1680.5,640.5 L1720.5,640.5 L1720.5,660.5 L1760.5,660.5 L1760.5,620.5 L1720.5,580.5 L1680.5,620.5 z" fill="#303C83"/>
        <path d="M1680.5,620.5 L1680.5,640.5 L1720.5,640.5 L1720.5,660.5 L1760.5,660.5 L1760.5,620.5 L1720.5,580.5 L1680.5,620.5 z" fill-opacity="0" stroke="#000000" stroke-width="1"/>
      </g>
      <g>
        <path d="M1720.5,560.5 L1800.5,640.5 L1840.5,600.5 L1800.5,560.5 L1800.5,540.5 L1720.5,540.5 L1720.5,560.5 z" fill="#34418E"/>
        <path d="M1720.5,560.5 L1800.5,640.5 L1840.5,600.5 L1800.5,560.5 L1800.5,540.5 L1720.5,540.5 L1720.5,560.5 z" fill-opacity="0" stroke="#000000" stroke-width="1"/>
      </g>
      <g>
        <path d="M1940.5,780.5 L1860.5,700.5 L1900.5,660.5 L1940.5,700.5 L1960.5,700.5 L1960.5,780.5 L1940.5,780.5 z" fill="#34418E"/>
        <path d="M1940.5,780.5 L1860.5,700.5 L1900.5,660.5 L1940.5,700.5 L1960.5,700.5 L1960.5,780.5 L1940.5,780.5 z" fill-opacity="0" stroke="#000000" stroke-width="1"/>
      </g>
      <g>
        <path d="M1840.5,780.5 L1840.5,740.5 L1880.5,740.5 L1920.5,780.5 L1880.5,820.5 L1860.5,820.5 L1860.5,800.5 L1840.5,780.5 z" fill="#303C83"/>
        <path d="M1840.5,780.5 L1840.5,740.5 L1880.5,740.5 L1920.5,780.5 L1880.5,820.5 L1860.5,820.5 L1860.5,800.5 L1840.5,780.5 z" fill-opacity="0" stroke="#000000" stroke-width="1"/>
      </g>
      <g>
        <path d="M1860.5,580.5 L1800.5,520.5 L1800.5,500.5 L1880.5,500.5 L1880.5,520.5 L1900.5,540.5 L1860.5,580.5 z" fill="#384596"/>
        <path d="M1860.5,580.5 L1800.5,520.5 L1800.5,500.5 L1880.5,500.5 L1880.5,520.5 L1900.5,540.5 L1860.5,580.5 z" fill-opacity="0" stroke="#000000" stroke-width="1"/>
      </g>
      <g>
        <path d="M1920.5,640.5 L1980.5,700.5 L2000.5,700.5 L2000.5,620.5 L1980.5,620.5 L1960.5,600.5 L1920.5,640.5 z" fill="#384596"/>
        <path d="M1920.5,640.5 L1980.5,700.5 L2000.5,700.5 L2000.5,620.5 L1980.5,620.5 L1960.5,600.5 L1920.5,640.5 z" fill-opacity="0" stroke="#000000" stroke-width="1"/>
      </g>
      <g>
        <path d="M1980.5,580.5 L2040.5,640.5 L2060.5,640.5 L2060.5,560.5 L2040.5,560.5 L2020.5,540.5 C2020.5,540.5 1980.5,580.5 1980.5,580.5 z" fill="#3D4CA6"/>
        <path d="M1980.5,580.5 L2040.5,640.5 L2060.5,640.5 L2060.5,560.5 L2040.5,560.5 L2020.5,540.5 C2020.5,540.5 1980.5,580.5 1980.5,580.5 z" fill-opacity="0" stroke="#000000" stroke-width="1"/>
      </g>
      <g>
        <path d="M1920.5,520.5 L1860.5,460.5 L1860.5,440.5 L1940.5,440.5 L1940.5,460.5 L1960.5,480.5 L1920.5,520.5 z" fill="#3D4CA6"/>
        <path d="M1920.5,520.5 L1860.5,460.5 L1860.5,440.5 L1940.5,440.5 L1940.5,460.5 L1960.5,480.5 L1920.5,520.5 z" fill-opacity="0" stroke="#000000" stroke-width="1"/>
      </g>
      <g>
        <path d="M1900.5,560.5 L1940.5,600.5 L2020.5,520.5 L2040.5,540.5 L2040.5,500.5 L2000.5,460.5 L1960.5,460.5 L1980.5,480.5 L1900.5,560.5 z" fill="#4353B5"/>
        <path d="M1900.5,560.5 L1940.5,600.5 L2020.5,520.5 L2040.5,540.5 L2040.5,500.5 L2000.5,460.5 L1960.5,460.5 L1980.5,480.5 L1900.5,560.5 z" fill-opacity="0" stroke="#000000" stroke-width="1"/>
      </g>
    </g>
    <g id="Bottom_right_corner_arm">
      <g>
        <path d="M1660.5,1340.5 L1660.5,1280.5 L1700.5,1240.5 L1740.5,1280.5 L1700.5,1320.5 L1700.5,1340.5 L1660.5,1340.5 z" fill="#273069"/>
        <path d="M1660.5,1340.5 L1660.5,1280.5 L1700.5,1240.5 L1740.5,1280.5 L1700.5,1320.5 L1700.5,1340.5 L1660.5,1340.5 z" fill-opacity="0" stroke="#000000" stroke-width="1"/>
      </g>
      <g>
        <path d="M1840.5,1160.5 L1780.5,1160.5 L1740.5,1200.5 L1780.5,1240.5 L1820.5,1200.5 L1840.5,1200.5 L1840.5,1160.5 z" fill="#273069"/>
        <path d="M1840.5,1160.5 L1780.5,1160.5 L1740.5,1200.5 L1780.5,1240.5 L1820.5,1200.5 L1840.5,1200.5 L1840.5,1160.5 z" fill-opacity="0" stroke="#000000" stroke-width="1"/>
      </g>
      <g>
        <path d="M1720.5,1240.5 L1740.5,1220.5 L1780.5,1260.5 L1820.5,1220.5 L1820.5,1260.5 L1760.5,1320.5 L1720.5,1320.5 L1760.5,1280.5 L1720.5,1240.5 z" fill="#4B5CCA"/>
        <path d="M1720.5,1240.5 L1740.5,1220.5 L1780.5,1260.5 L1820.5,1220.5 L1820.5,1260.5 L1760.5,1320.5 L1720.5,1320.5 L1760.5,1280.5 L1720.5,1240.5 z" fill-opacity="0" stroke="#000000" stroke-width="1"/>
      </g>
      <g>
        <path d="M1780.5,1320.5 L1820.5,1280.5 L1860.5,1280.5 L1840.5,1300.5 L1920.5,1380.5 C1920.5,1380.5 1880.5,1420.5 1880.5,1420.5 C1880.5,1420.5 1800.5,1340.5 1800.5,1340.5 L1780.5,1360.5 L1780.5,1320.5 z" fill="#4758C0"/>
        <path d="M1780.5,1320.5 L1820.5,1280.5 L1860.5,1280.5 L1840.5,1300.5 L1920.5,1380.5 C1920.5,1380.5 1880.5,1420.5 1880.5,1420.5 C1880.5,1420.5 1800.5,1340.5 1800.5,1340.5 L1780.5,1360.5 L1780.5,1320.5 z" fill-opacity="0" stroke="#000000" stroke-width="1"/>
      </g>
      <g>
        <path d="M1680.5,1380.5 L1680.5,1360.5 L1720.5,1360.5 L1720.5,1340.5 L1760.5,1340.5 L1760.5,1380.5 L1720.5,1420.5 L1680.5,1380.5 z" fill="#303C83"/>
        <path d="M1680.5,1380.5 L1680.5,1360.5 L1720.5,1360.5 L1720.5,1340.5 L1760.5,1340.5 L1760.5,1380.5 L1720.5,1420.5 L1680.5,1380.5 z" fill-opacity="0" stroke="#000000" stroke-width="1"/>
      </g>
      <g>
        <path d="M1720.5,1440.5 L1800.5,1360.5 L1840.5,1400.5 L1800.5,1440.5 L1800.5,1460.5 L1720.5,1460.5 L1720.5,1440.5 z" fill="#34418E"/>
        <path d="M1720.5,1440.5 L1800.5,1360.5 L1840.5,1400.5 L1800.5,1440.5 L1800.5,1460.5 L1720.5,1460.5 L1720.5,1440.5 z" fill-opacity="0" stroke="#000000" stroke-width="1"/>
      </g>
      <g>
        <path d="M1940.5,1220.5 L1860.5,1300.5 L1900.5,1340.5 L1940.5,1300.5 L1960.5,1300.5 L1960.5,1220.5 L1940.5,1220.5 z" fill="#34418E"/>
        <path d="M1940.5,1220.5 L1860.5,1300.5 L1900.5,1340.5 L1940.5,1300.5 L1960.5,1300.5 L1960.5,1220.5 L1940.5,1220.5 z" fill-opacity="0" stroke="#000000" stroke-width="1"/>
      </g>
      <g>
        <path d="M1840.5,1220.5 L1840.5,1260.5 L1880.5,1260.5 L1920.5,1220.5 L1880.5,1180.5 L1860.5,1180.5 L1860.5,1200.5 L1840.5,1220.5 z" fill="#303C83"/>
        <path d="M1840.5,1220.5 L1840.5,1260.5 L1880.5,1260.5 L1920.5,1220.5 L1880.5,1180.5 L1860.5,1180.5 L1860.5,1200.5 L1840.5,1220.5 z" fill-opacity="0" stroke="#000000" stroke-width="1"/>
      </g>
      <g>
        <path d="M1860.5,1420.5 L1800.5,1480.5 L1800.5,1500.5 L1880.5,1500.5 L1880.5,1480.5 L1900.5,1460.5 L1860.5,1420.5 z" fill="#384596"/>
        <path d="M1860.5,1420.5 L1800.5,1480.5 L1800.5,1500.5 L1880.5,1500.5 L1880.5,1480.5 L1900.5,1460.5 L1860.5,1420.5 z" fill-opacity="0" stroke="#000000" stroke-width="1"/>
      </g>
      <g>
        <path d="M1920.5,1360.5 L1980.5,1300.5 L2000.5,1300.5 L2000.5,1380.5 L1980.5,1380.5 L1960.5,1400.5 L1920.5,1360.5 z" fill="#384596"/>
        <path d="M1920.5,1360.5 L1980.5,1300.5 L2000.5,1300.5 L2000.5,1380.5 L1980.5,1380.5 L1960.5,1400.5 L1920.5,1360.5 z" fill-opacity="0" stroke="#000000" stroke-width="1"/>
      </g>
      <g>
        <path d="M1980.5,1420.5 L2040.5,1360.5 L2060.5,1360.5 L2060.5,1440.5 L2040.5,1440.5 L2020.5,1460.5 C2020.5,1460.5 1980.5,1420.5 1980.5,1420.5 z" fill="#3D4CA6"/>
        <path d="M1980.5,1420.5 L2040.5,1360.5 L2060.5,1360.5 L2060.5,1440.5 L2040.5,1440.5 L2020.5,1460.5 C2020.5,1460.5 1980.5,1420.5 1980.5,1420.5 z" fill-opacity="0" stroke="#000000" stroke-width="1"/>
      </g>
      <g>
        <path d="M1920.5,1480.5 L1860.5,1540.5 L1860.5,1560.5 L1940.5,1560.5 L1940.5,1540.5 L1960.5,1520.5 L1920.5,1480.5 z" fill="#3D4CA6"/>
        <path d="M1920.5,1480.5 L1860.5,1540.5 L1860.5,1560.5 L1940.5,1560.5 L1940.5,1540.5 L1960.5,1520.5 L1920.5,1480.5 z" fill-opacity="0" stroke="#000000" stroke-width="1"/>
      </g>
      <g>
        <path d="M1900.5,1440.5 L1940.5,1400.5 L2020.5,1480.5 L2040.5,1460.5 L2040.5,1500.5 L2000.5,1540.5 L1960.5,1540.5 L1980.5,1520.5 L1900.5,1440.5 z" fill="#4353B5"/>
        <path d="M1900.5,1440.5 L1940.5,1400.5 L2020.5,1480.5 L2040.5,1460.5 L2040.5,1500.5 L2000.5,1540.5 L1960.5,1540.5 L1980.5,1520.5 L1900.5,1440.5 z" fill-opacity="0" stroke="#000000" stroke-width="1"/>
      </g>
    </g>
    <g id="Bottom_left_corner_arm">
      <g>
        <path d="M1340.5,1340.5 L1340.5,1280.5 L1300.5,1240.5 L1260.5,1280.5 L1300.5,1320.5 L1300.5,1340.5 L1340.5,1340.5 z" fill="#273069"/>
        <path d="M1340.5,1340.5 L1340.5,1280.5 L1300.5,1240.5 L1260.5,1280.5 L1300.5,1320.5 L1300.5,1340.5 L1340.5,1340.5 z" fill-opacity="0" stroke="#000000" stroke-width="1"/>
      </g>
      <g>
        <path d="M1160.5,1160.5 L1220.5,1160.5 L1260.5,1200.5 L1220.5,1240.5 L1180.5,1200.5 L1160.5,1200.5 L1160.5,1160.5 z" fill="#273069"/>
        <path d="M1160.5,1160.5 L1220.5,1160.5 L1260.5,1200.5 L1220.5,1240.5 L1180.5,1200.5 L1160.5,1200.5 L1160.5,1160.5 z" fill-opacity="0" stroke="#000000" stroke-width="1"/>
      </g>
      <g>
        <path d="M1280.5,1240.5 L1260.5,1220.5 L1220.5,1260.5 L1180.5,1220.5 L1180.5,1260.5 L1240.5,1320.5 L1280.5,1320.5 L1240.5,1280.5 L1280.5,1240.5 z" fill="#4B5CCA"/>
        <path d="M1280.5,1240.5 L1260.5,1220.5 L1220.5,1260.5 L1180.5,1220.5 L1180.5,1260.5 L1240.5,1320.5 L1280.5,1320.5 L1240.5,1280.5 L1280.5,1240.5 z" fill-opacity="0" stroke="#000000" stroke-width="1"/>
      </g>
      <g>
        <path d="M1220.5,1320.5 L1180.5,1280.5 L1140.5,1280.5 L1160.5,1300.5 L1080.5,1380.5 C1080.5,1380.5 1120.5,1420.5 1120.5,1420.5 C1120.5,1420.5 1200.5,1340.5 1200.5,1340.5 L1220.5,1360.5 L1220.5,1320.5 z" fill="#4758C0"/>
        <path d="M1220.5,1320.5 L1180.5,1280.5 L1140.5,1280.5 L1160.5,1300.5 L1080.5,1380.5 C1080.5,1380.5 1120.5,1420.5 1120.5,1420.5 C1120.5,1420.5 1200.5,1340.5 1200.5,1340.5 L1220.5,1360.5 L1220.5,1320.5 z" fill-opacity="0" stroke="#000000" stroke-width="1"/>
      </g>
      <g>
        <path d="M1320.5,1380.5 L1320.5,1360.5 L1280.5,1360.5 L1280.5,1340.5 L1240.5,1340.5 L1240.5,1380.5 L1280.5,1420.5 L1320.5,1380.5 z" fill="#303C83"/>
        <path d="M1320.5,1380.5 L1320.5,1360.5 L1280.5,1360.5 L1280.5,1340.5 L1240.5,1340.5 L1240.5,1380.5 L1280.5,1420.5 L1320.5,1380.5 z" fill-opacity="0" stroke="#000000" stroke-width="1"/>
      </g>
      <g>
        <path d="M1280.5,1440.5 L1200.5,1360.5 L1160.5,1400.5 L1200.5,1440.5 L1200.5,1460.5 L1280.5,1460.5 L1280.5,1440.5 z" fill="#34418E"/>
        <path d="M1280.5,1440.5 L1200.5,1360.5 L1160.5,1400.5 L1200.5,1440.5 L1200.5,1460.5 L1280.5,1460.5 L1280.5,1440.5 z" fill-opacity="0" stroke="#000000" stroke-width="1"/>
      </g>
      <g>
        <path d="M1060.5,1220.5 L1140.5,1300.5 L1100.5,1340.5 L1060.5,1300.5 L1040.5,1300.5 L1040.5,1220.5 L1060.5,1220.5 z" fill="#34418E"/>
        <path d="M1060.5,1220.5 L1140.5,1300.5 L1100.5,1340.5 L1060.5,1300.5 L1040.5,1300.5 L1040.5,1220.5 L1060.5,1220.5 z" fill-opacity="0" stroke="#000000" stroke-width="1"/>
      </g>
      <g>
        <path d="M1160.5,1220.5 L1160.5,1260.5 L1120.5,1260.5 L1080.5,1220.5 L1120.5,1180.5 L1140.5,1180.5 L1140.5,1200.5 L1160.5,1220.5 z" fill="#303C83"/>
        <path d="M1160.5,1220.5 L1160.5,1260.5 L1120.5,1260.5 L1080.5,1220.5 L1120.5,1180.5 L1140.5,1180.5 L1140.5,1200.5 L1160.5,1220.5 z" fill-opacity="0" stroke="#000000" stroke-width="1"/>
      </g>
      <g>
        <path d="M1140.5,1420.5 L1200.5,1480.5 L1200.5,1500.5 L1120.5,1500.5 L1120.5,1480.5 L1100.5,1460.5 L1140.5,1420.5 z" fill="#384596"/>
        <path d="M1140.5,1420.5 L1200.5,1480.5 L1200.5,1500.5 L1120.5,1500.5 L1120.5,1480.5 L1100.5,1460.5 L1140.5,1420.5 z" fill-opacity="0" stroke="#000000" stroke-width="1"/>
      </g>
      <g>
        <path d="M1080.5,1360.5 L1020.5,1300.5 L1000.5,1300.5 L1000.5,1380.5 L1020.5,1380.5 L1040.5,1400.5 L1080.5,1360.5 z" fill="#384596"/>
        <path d="M1080.5,1360.5 L1020.5,1300.5 L1000.5,1300.5 L1000.5,1380.5 L1020.5,1380.5 L1040.5,1400.5 L1080.5,1360.5 z" fill-opacity="0" stroke="#000000" stroke-width="1"/>
      </g>
      <g>
        <path d="M1020.5,1420.5 L960.5,1360.5 L940.5,1360.5 L940.5,1440.5 L960.5,1440.5 L980.5,1460.5 C980.5,1460.5 1020.5,1420.5 1020.5,1420.5 z" fill="#3D4CA6"/>
        <path d="M1020.5,1420.5 L960.5,1360.5 L940.5,1360.5 L940.5,1440.5 L960.5,1440.5 L980.5,1460.5 C980.5,1460.5 1020.5,1420.5 1020.5,1420.5 z" fill-opacity="0" stroke="#000000" stroke-width="1"/>
      </g>
      <g>
        <path d="M1080.5,1480.5 L1140.5,1540.5 L1140.5,1560.5 L1060.5,1560.5 L1060.5,1540.5 L1040.5,1520.5 L1080.5,1480.5 z" fill="#3D4CA6"/>
        <path d="M1080.5,1480.5 L1140.5,1540.5 L1140.5,1560.5 L1060.5,1560.5 L1060.5,1540.5 L1040.5,1520.5 L1080.5,1480.5 z" fill-opacity="0" stroke="#000000" stroke-width="1"/>
      </g>
      <g>
        <path d="M1100.5,1440.5 L1060.5,1400.5 L980.5,1480.5 L960.5,1460.5 L960.5,1500.5 L1000.5,1540.5 L1040.5,1540.5 L1020.5,1520.5 L1100.5,1440.5 z" fill="#4353B5"/>
        <path d="M1100.5,1440.5 L1060.5,1400.5 L980.5,1480.5 L960.5,1460.5 L960.5,1500.5 L1000.5,1540.5 L1040.5,1540.5 L1020.5,1520.5 L1100.5,1440.5 z" fill-opacity="0" stroke="#000000" stroke-width="1"/>
      </g>
    </g>
    <g id="Top_left_corner_arm">
      <g>
        <path d="M1340.5,660.5 L1340.5,720.5 L1300.5,760.5 L1260.5,720.5 L1300.5,680.5 L1300.5,660.5 L1340.5,660.5 z" fill="#273069"/>
        <path d="M1340.5,660.5 L1340.5,720.5 L1300.5,760.5 L1260.5,720.5 L1300.5,680.5 L1300.5,660.5 L1340.5,660.5 z" fill-opacity="0" stroke="#000000" stroke-width="1"/>
      </g>
      <g>
        <path d="M1160.5,840.5 L1220.5,840.5 L1260.5,800.5 L1220.5,760.5 L1180.5,800.5 L1160.5,800.5 L1160.5,840.5 z" fill="#273069"/>
        <path d="M1160.5,840.5 L1220.5,840.5 L1260.5,800.5 L1220.5,760.5 L1180.5,800.5 L1160.5,800.5 L1160.5,840.5 z" fill-opacity="0" stroke="#000000" stroke-width="1"/>
      </g>
      <g>
        <path d="M1280.5,760.5 L1260.5,780.5 L1220.5,740.5 L1180.5,780.5 L1180.5,740.5 L1240.5,680.5 L1280.5,680.5 L1240.5,720.5 L1280.5,760.5 z" fill="#4B5CCA"/>
        <path d="M1280.5,760.5 L1260.5,780.5 L1220.5,740.5 L1180.5,780.5 L1180.5,740.5 L1240.5,680.5 L1280.5,680.5 L1240.5,720.5 L1280.5,760.5 z" fill-opacity="0" stroke="#000000" stroke-width="1"/>
      </g>
      <g>
        <path d="M1220.5,680.5 L1180.5,720.5 L1140.5,720.5 L1160.5,700.5 L1080.5,620.5 C1080.5,620.5 1120.5,580.5 1120.5,580.5 C1120.5,580.5 1200.5,660.5 1200.5,660.5 L1220.5,640.5 L1220.5,680.5 z" fill="#4758C0"/>
        <path d="M1220.5,680.5 L1180.5,720.5 L1140.5,720.5 L1160.5,700.5 L1080.5,620.5 C1080.5,620.5 1120.5,580.5 1120.5,580.5 C1120.5,580.5 1200.5,660.5 1200.5,660.5 L1220.5,640.5 L1220.5,680.5 z" fill-opacity="0" stroke="#000000" stroke-width="1"/>
      </g>
      <g>
        <path d="M1320.5,620.5 L1320.5,640.5 L1280.5,640.5 L1280.5,660.5 L1240.5,660.5 L1240.5,620.5 L1280.5,580.5 L1320.5,620.5 z" fill="#303C83"/>
        <path d="M1320.5,620.5 L1320.5,640.5 L1280.5,640.5 L1280.5,660.5 L1240.5,660.5 L1240.5,620.5 L1280.5,580.5 L1320.5,620.5 z" fill-opacity="0" stroke="#000000" stroke-width="1"/>
      </g>
      <g>
        <path d="M1280.5,560.5 L1200.5,640.5 L1160.5,600.5 L1200.5,560.5 L1200.5,540.5 L1280.5,540.5 L1280.5,560.5 z" fill="#34418E"/>
        <path d="M1280.5,560.5 L1200.5,640.5 L1160.5,600.5 L1200.5,560.5 L1200.5,540.5 L1280.5,540.5 L1280.5,560.5 z" fill-opacity="0" stroke="#000000" stroke-width="1"/>
      </g>
      <g>
        <path d="M1060.5,780.5 L1140.5,700.5 L1100.5,660.5 L1060.5,700.5 L1040.5,700.5 L1040.5,780.5 L1060.5,780.5 z" fill="#34418E"/>
        <path d="M1060.5,780.5 L1140.5,700.5 L1100.5,660.5 L1060.5,700.5 L1040.5,700.5 L1040.5,780.5 L1060.5,780.5 z" fill-opacity="0" stroke="#000000" stroke-width="1"/>
      </g>
      <g>
        <path d="M1160.5,780.5 L1160.5,740.5 L1120.5,740.5 L1080.5,780.5 L1120.5,820.5 L1140.5,820.5 L1140.5,800.5 L1160.5,780.5 z" fill="#303C83"/>
        <path d="M1160.5,780.5 L1160.5,740.5 L1120.5,740.5 L1080.5,780.5 L1120.5,820.5 L1140.5,820.5 L1140.5,800.5 L1160.5,780.5 z" fill-opacity="0" stroke="#000000" stroke-width="1"/>
      </g>
      <g>
        <path d="M1140.5,580.5 L1200.5,520.5 L1200.5,500.5 L1120.5,500.5 L1120.5,520.5 L1100.5,540.5 L1140.5,580.5 z" fill="#384596"/>
        <path d="M1140.5,580.5 L1200.5,520.5 L1200.5,500.5 L1120.5,500.5 L1120.5,520.5 L1100.5,540.5 L1140.5,580.5 z" fill-opacity="0" stroke="#000000" stroke-width="1"/>
      </g>
      <g>
        <path d="M1080.5,640.5 L1020.5,700.5 L1000.5,700.5 L1000.5,620.5 L1020.5,620.5 L1040.5,600.5 L1080.5,640.5 z" fill="#384596"/>
        <path d="M1080.5,640.5 L1020.5,700.5 L1000.5,700.5 L1000.5,620.5 L1020.5,620.5 L1040.5,600.5 L1080.5,640.5 z" fill-opacity="0" stroke="#000000" stroke-width="1"/>
      </g>
      <g>
        <path d="M1020.5,580.5 L960.5,640.5 L940.5,640.5 L940.5,560.5 L960.5,560.5 L980.5,540.5 C980.5,540.5 1020.5,580.5 1020.5,580.5 z" fill="#3D4CA6"/>
        <path d="M1020.5,580.5 L960.5,640.5 L940.5,640.5 L940.5,560.5 L960.5,560.5 L980.5,540.5 C980.5,540.5 1020.5,580.5 1020.5,580.5 z" fill-opacity="0" stroke="#000000" stroke-width="1"/>
      </g>
      <g>
        <path d="M1080.5,520.5 L1140.5,460.5 L1140.5,440.5 L1060.5,440.5 L1060.5,460.5 L1040.5,480.5 L1080.5,520.5 z" fill="#3D4CA6"/>
        <path d="M1080.5,520.5 L1140.5,460.5 L1140.5,440.5 L1060.5,440.5 L1060.5,460.5 L1040.5,480.5 L1080.5,520.5 z" fill-opacity="0" stroke="#000000" stroke-width="1"/>
      </g>
      <g>
        <path d="M1100.5,560.5 L1060.5,600.5 L980.5,520.5 L960.5,540.5 L960.5,500.5 L1000.5,460.5 L1040.5,460.5 L1020.5,480.5 L1100.5,560.5 z" fill="#4353B5"/>
        <path d="M1100.5,560.5 L1060.5,600.5 L980.5,520.5 L960.5,540.5 L960.5,500.5 L1000.5,460.5 L1040.5,460.5 L1020.5,480.5 L1100.5,560.5 z" fill-opacity="0" stroke="#000000" stroke-width="1"/>
      </g>
    </g>
  </g>
</svg>
