<?xml version="1.0" encoding="utf-8"?>
<!-- Generator: Adobe Illustrator 22.0.1, SVG Export Plug-In . SVG Version: 6.00 Build 0)  -->
<svg version="1.1" id="Layer_1" xmlns="http://www.w3.org/2000/svg" xmlns:xlink="http://www.w3.org/1999/xlink" x="0px" y="0px"
	 viewBox="0 0 3000 2000" style="enable-background:new 0 0 3000 2000;" xml:space="preserve">
<style type="text/css">
	.st0{display:none;}
	.st1{display:inline;fill:#FFFFFF;fill-opacity:0.244;}
	.st2{display:inline;fill-opacity:0;stroke:#000000;stroke-linejoin:bevel;}
	.st3{fill:#D7E5F0;}
	.st4{fill-opacity:0;stroke:#000000;}
	.st5{fill:#E6F2FF;}
	.st6{fill:#D4DADD;}
	.st7{fill:#BEDEFF;}
</style>
<g id="Center">
	<g id="Shape" class="st0">
		<path class="st1" d="M1380.5,1300.5l-180-180v-240l180-180h240l180,180v240l-180,180H1380.5z"/>
		<path class="st2" d="M1380.5,1300.5l-180-180v-240l180-180h240l180,180v240l-180,180H1380.5z"/>
	</g>
	<g id="centerBottom">
		<g id="centerBottom5">
			<path class="st3" d="M1620.5,1120.5v100l40,40l40-40l-40-40v-60H1620.5z"/>
			<path class="st4" d="M1620.5,1120.5v100l40,40l40-40l-40-40v-60H1620.5z"/>
		</g>
		<g id="centerBottom4">
			<path class="st3" d="M1520.5,1020.5v60l40,40v140l40,40h40v-40l-40-40v-160l-40-40H1520.5z"/>
			<path class="st4" d="M1520.5,1020.5v60l40,40v140l40,40h40v-40l-40-40v-160l-40-40H1520.5z"/>
		</g>
		<g id="centerBottom3">
			<path class="st3" d="M1480.5,1100.5h40l20,20v140l20,20v20h-120v-20l20-20v-140L1480.5,1100.5z"/>
			<path class="st4" d="M1480.5,1100.5h40l20,20v140l20,20v20h-120v-20l20-20v-140L1480.5,1100.5z"/>
		</g>
		<g id="centerBottom2">
			<path class="st3" d="M1480.5,1020.5v60l-40,40v140l-40,40h-40v-40l40-40v-160l40-40H1480.5z"/>
			<path class="st4" d="M1480.5,1020.5v60l-40,40v140l-40,40h-40v-40l40-40v-160l40-40H1480.5z"/>
		</g>
		<g id="centerBottom1">
			<path class="st3" d="M1380.5,1120.5v100l-40,40l-40-40l40-40v-60H1380.5z"/>
			<path class="st4" d="M1380.5,1120.5v100l-40,40l-40-40l40-40v-60H1380.5z"/>
		</g>
	</g>
	<g id="centerTop">
		<g id="centerTop5">
			<path class="st3" d="M1620.5,880.5v-100l40-40l40,40l-40,40v60H1620.5z"/>
			<path class="st4" d="M1620.5,880.5v-100l40-40l40,40l-40,40v60H1620.5z"/>
		</g>
		<g id="centerTop4">
			<path class="st3" d="M1520.5,980.5v-60l40-40v-140l40-40h40v40l-40,40v160l-40,40H1520.5z"/>
			<path class="st4" d="M1520.5,980.5v-60l40-40v-140l40-40h40v40l-40,40v160l-40,40H1520.5z"/>
		</g>
		<g id="centerTop3">
			<path class="st3" d="M1480.5,900.5h40l20-20v-140l20-20v-20h-120v20l20,20v140L1480.5,900.5z"/>
			<path class="st4" d="M1480.5,900.5h40l20-20v-140l20-20v-20h-120v20l20,20v140L1480.5,900.5z"/>
		</g>
		<g id="centerTop2">
			<path class="st3" d="M1480.5,980.5v-60l-40-40v-140l-40-40h-40v40l40,40v160l40,40H1480.5z"/>
			<path class="st4" d="M1480.5,980.5v-60l-40-40v-140l-40-40h-40v40l40,40v160l40,40H1480.5z"/>
		</g>
		<g id="centerTop1">
			<path class="st3" d="M1380.5,880.5v-100l-40-40l-40,40l40,40v60H1380.5z"/>
			<path class="st4" d="M1380.5,880.5v-100l-40-40l-40,40l40,40v60H1380.5z"/>
		</g>
	</g>
	<g id="centerRight">
		<g id="centerRight5">
			<path class="st3" d="M1680.5,1120.5h40l40,40l-40,40l-40-40V1120.5z"/>
			<path class="st4" d="M1680.5,1120.5h40l40,40l-40,40l-40-40V1120.5z"/>
		</g>
		<g id="centerRight4">
			<path class="st3" d="M1620.5,1080.5l20-20h160v80h-40l-40-40h-100V1080.5z"/>
			<path class="st4" d="M1620.5,1080.5l20-20h160v80h-40l-40-40h-100V1080.5z"/>
		</g>
		<g id="centerRight3">
			<path class="st3" d="M1580.5,1020.5l40,40l20-20h160v-80h-160l-20-20l-40,40V1020.5z"/>
			<path class="st4" d="M1580.5,1020.5l40,40l20-20h160v-80h-160l-20-20l-40,40V1020.5z"/>
		</g>
		<g id="centerRight2">
			<path class="st3" d="M1620.5,920.5l20,20h160v-80h-40l-40,40h-100V920.5z"/>
			<path class="st4" d="M1620.5,920.5l20,20h160v-80h-40l-40,40h-100V920.5z"/>
		</g>
		<g id="centerRight1">
			<path class="st3" d="M1680.5,880.5h40l40-40l-40-40l-40,40V880.5z"/>
			<path class="st4" d="M1680.5,880.5h40l40-40l-40-40l-40,40V880.5z"/>
		</g>
	</g>
	<g id="centerLeft">
		<g id="centerLeft5">
			<path class="st3" d="M1320.5,1120.5h-40l-40,40l40,40l40-40V1120.5z"/>
			<path class="st4" d="M1320.5,1120.5h-40l-40,40l40,40l40-40V1120.5z"/>
		</g>
		<g id="centerLeft4">
			<path class="st3" d="M1380.5,1080.5l-20-20h-160v80h40l40-40h100V1080.5z"/>
			<path class="st4" d="M1380.5,1080.5l-20-20h-160v80h40l40-40h100V1080.5z"/>
		</g>
		<g id="centerLeft3">
			<path class="st3" d="M1420.5,1020.5l-40,40l-20-20h-160v-80h160l20-20l40,40V1020.5z"/>
			<path class="st4" d="M1420.5,1020.5l-40,40l-20-20h-160v-80h160l20-20l40,40V1020.5z"/>
		</g>
		<g id="centerLeft2">
			<path class="st3" d="M1380.5,920.5l-20,20h-160v-80h40l40,40h100V920.5z"/>
			<path class="st4" d="M1380.5,920.5l-20,20h-160v-80h40l40,40h100V920.5z"/>
		</g>
		<g id="centerLeft1">
			<path class="st3" d="M1320.5,880.5h-40l-40-40l40-40l40,40V880.5z"/>
			<path class="st4" d="M1320.5,880.5h-40l-40-40l40-40l40,40V880.5z"/>
		</g>
	</g>
	<path id="CENTERPOINT" class="st5" d="M1500,1000"/>
</g>
<g id="Verticals">
	<g id="Bottom">
		<g>
			<path class="st5" d="M1420.5,1320.5h60v120l-60,60h-60v-60l60-60V1320.5z"/>
			<path class="st4" d="M1420.5,1320.5h60v120l-60,60h-60v-60l60-60V1320.5z"/>
		</g>
		<g>
			<path class="st5" d="M1520.5,1320.5v120l60,60h60v-60l-60-60v-60H1520.5z"/>
			<path class="st4" d="M1520.5,1320.5v120l60,60h60v-60l-60-60v-60H1520.5z"/>
		</g>
		<g>
			<path class="st5" d="M1440.5,1500.5l60-60l60,60l-40,40v60h-40v-60L1440.5,1500.5z"/>
			<path class="st4" d="M1440.5,1500.5l60-60l60,60l-40,40v60h-40v-60L1440.5,1500.5z"/>
		</g>
		<g>
			<path class="st5" d="M1540.5,1540.5l20-20h80v60h-60L1540.5,1540.5z"/>
			<path class="st4" d="M1540.5,1540.5l20-20h80v60h-60L1540.5,1540.5z"/>
		</g>
		<g>
			<path class="st5" d="M1540.5,1560.5l40,40h20v60h-20l-40-40V1560.5z"/>
			<path class="st4" d="M1540.5,1560.5l40,40h20v60h-20l-40-40V1560.5z"/>
		</g>
		<g>
			<path class="st5" d="M1520.5,1620.5l60,60h80v60h-80l-60-60V1620.5z"/>
			<path class="st4" d="M1520.5,1620.5l60,60h80v60h-80l-60-60V1620.5z"/>
		</g>
		<g>
			<path class="st5" d="M1460.5,1540.5l-20-20h-80v60h60L1460.5,1540.5z"/>
			<path class="st4" d="M1460.5,1540.5l-20-20h-80v60h60L1460.5,1540.5z"/>
		</g>
		<g>
			<path class="st5" d="M1460.5,1560.5l-40,40h-20v60h20l40-40V1560.5z"/>
			<path class="st4" d="M1460.5,1560.5l-40,40h-20v60h20l40-40V1560.5z"/>
		</g>
		<g>
			<path class="st5" d="M1480.5,1620.5l-60,60h-80v60h80l60-60V1620.5z"/>
			<path class="st4" d="M1480.5,1620.5l-60,60h-80v60h80l60-60V1620.5z"/>
		</g>
		<g>
			<path class="st5" d="M1520.5,1700.5l60,60h40v60h-40l-60-60V1700.5z"/>
			<path class="st4" d="M1520.5,1700.5l60,60h40v60h-40l-60-60V1700.5z"/>
		</g>
		<g>
			<path class="st5" d="M1540.5,1800.5l40,40h80v60h-80l-40-40V1800.5z"/>
			<path class="st4" d="M1540.5,1800.5l40,40h80v60h-80l-40-40V1800.5z"/>
		</g>
		<g>
			<path class="st5" d="M1480.5,1700.5l-60,60h-40v60h40l60-60V1700.5z"/>
			<path class="st4" d="M1480.5,1700.5l-60,60h-40v60h40l60-60V1700.5z"/>
		</g>
		<g>
			<path class="st5" d="M1460.5,1800.5l-40,40h-80v60h80l40-40V1800.5z"/>
			<path class="st4" d="M1460.5,1800.5l-40,40h-80v60h80l40-40V1800.5z"/>
		</g>
		<g>
			<path class="st5" d="M1480.5,1780.5h40v80l40,40l-40,40h-40l-40-40l40-40V1780.5z"/>
			<path class="st4" d="M1480.5,1780.5h40v80l40,40l-40,40h-40l-40-40l40-40V1780.5z"/>
		</g>
		<g>
			<path class="st5" d="M1660.5,1520.5v60l-20,20h-20v60h20l60-60v-80H1660.5z"/>
			<path class="st4" d="M1660.5,1520.5v60l-20,20h-20v60h20l60-60v-80H1660.5z"/>
		</g>
		<g>
			<path class="st5" d="M1340.5,1520.5v60l20,20h20v60h-20l-60-60v-80H1340.5z"/>
			<path class="st4" d="M1340.5,1520.5v60l20,20h20v60h-20l-60-60v-80H1340.5z"/>
		</g>
		<g>
			<path class="st5" d="M1680.5,1660.5v80l-20,20h-20v60h40l40-40v-80L1680.5,1660.5z"/>
			<path class="st4" d="M1680.5,1660.5v80l-20,20h-20v60h40l40-40v-80L1680.5,1660.5z"/>
		</g>
		<g>
			<path class="st5" d="M1320.5,1660.5v80l20,20h20v60h-40l-40-40v-80L1320.5,1660.5z"/>
			<path class="st4" d="M1320.5,1660.5v80l20,20h20v60h-40l-40-40v-80L1320.5,1660.5z"/>
		</g>
		<g>
			<path class="st5" d="M1600.5,1320.5v60l60,60v60h40v-80l-60-60v-40H1600.5z"/>
			<path class="st4" d="M1600.5,1320.5v60l60,60v60h40v-80l-60-60v-40H1600.5z"/>
		</g>
		<g>
			<path class="st5" d="M1400.5,1320.5v60l-60,60v60h-40v-80l60-60v-40H1400.5z"/>
			<path class="st4" d="M1400.5,1320.5v60l-60,60v60h-40v-80l60-60v-40H1400.5z"/>
		</g>
	</g>
	<g id="Top">
		<g>
			<path class="st5" d="M1420.5,680.5h60v-120l-60-60h-60v60l60,60V680.5z"/>
			<path class="st4" d="M1420.5,680.5h60v-120l-60-60h-60v60l60,60V680.5z"/>
		</g>
		<g>
			<path class="st5" d="M1520.5,680.5v-120l60-60h60v60l-60,60v60H1520.5z"/>
			<path class="st4" d="M1520.5,680.5v-120l60-60h60v60l-60,60v60H1520.5z"/>
		</g>
		<g>
			<path class="st5" d="M1440.5,500.5l60,60l60-60l-40-40v-60h-40v60L1440.5,500.5z"/>
			<path class="st4" d="M1440.5,500.5l60,60l60-60l-40-40v-60h-40v60L1440.5,500.5z"/>
		</g>
		<g>
			<path class="st5" d="M1540.5,460.5l20,20h80v-60h-60L1540.5,460.5z"/>
			<path class="st4" d="M1540.5,460.5l20,20h80v-60h-60L1540.5,460.5z"/>
		</g>
		<g>
			<path class="st5" d="M1540.5,440.5l40-40h20v-60h-20l-40,40V440.5z"/>
			<path class="st4" d="M1540.5,440.5l40-40h20v-60h-20l-40,40V440.5z"/>
		</g>
		<g>
			<path class="st5" d="M1520.5,380.5l60-60h80v-60h-80l-60,60V380.5z"/>
			<path class="st4" d="M1520.5,380.5l60-60h80v-60h-80l-60,60V380.5z"/>
		</g>
		<g>
			<path class="st5" d="M1460.5,460.5l-20,20h-80v-60h60L1460.5,460.5z"/>
			<path class="st4" d="M1460.5,460.5l-20,20h-80v-60h60L1460.5,460.5z"/>
		</g>
		<g>
			<path class="st5" d="M1460.5,440.5l-40-40h-20v-60h20l40,40V440.5z"/>
			<path class="st4" d="M1460.5,440.5l-40-40h-20v-60h20l40,40V440.5z"/>
		</g>
		<g>
			<path class="st5" d="M1480.5,380.5l-60-60h-80v-60h80l60,60V380.5z"/>
			<path class="st4" d="M1480.5,380.5l-60-60h-80v-60h80l60,60V380.5z"/>
		</g>
		<g>
			<path class="st5" d="M1520.5,300.5l60-60h40v-60h-40l-60,60V300.5z"/>
			<path class="st4" d="M1520.5,300.5l60-60h40v-60h-40l-60,60V300.5z"/>
		</g>
		<g>
			<path class="st5" d="M1540.5,200.5l40-40h80v-60h-80l-40,40V200.5z"/>
			<path class="st4" d="M1540.5,200.5l40-40h80v-60h-80l-40,40V200.5z"/>
		</g>
		<g>
			<path class="st5" d="M1480.5,300.5l-60-60h-40v-60h40l60,60V300.5z"/>
			<path class="st4" d="M1480.5,300.5l-60-60h-40v-60h40l60,60V300.5z"/>
		</g>
		<g>
			<path class="st5" d="M1460.5,200.5l-40-40h-80v-60h80l40,40V200.5z"/>
			<path class="st4" d="M1460.5,200.5l-40-40h-80v-60h80l40,40V200.5z"/>
		</g>
		<g>
			<path class="st5" d="M1480.5,220.5h40v-80l40-40l-40-40h-40l-40,40l40,40V220.5z"/>
			<path class="st4" d="M1480.5,220.5h40v-80l40-40l-40-40h-40l-40,40l40,40V220.5z"/>
		</g>
		<g>
			<path class="st5" d="M1660.5,480.5v-60l-20-20h-20v-60h20l60,60v80H1660.5z"/>
			<path class="st4" d="M1660.5,480.5v-60l-20-20h-20v-60h20l60,60v80H1660.5z"/>
		</g>
		<g>
			<path class="st5" d="M1340.5,480.5v-60l20-20h20v-60h-20l-60,60v80H1340.5z"/>
			<path class="st4" d="M1340.5,480.5v-60l20-20h20v-60h-20l-60,60v80H1340.5z"/>
		</g>
		<g>
			<path class="st5" d="M1680.5,340.5v-80l-20-20h-20v-60h40l40,40v80L1680.5,340.5z"/>
			<path class="st4" d="M1680.5,340.5v-80l-20-20h-20v-60h40l40,40v80L1680.5,340.5z"/>
		</g>
		<g>
			<path class="st5" d="M1320.5,340.5v-80l20-20h20v-60h-40l-40,40v80L1320.5,340.5z"/>
			<path class="st4" d="M1320.5,340.5v-80l20-20h20v-60h-40l-40,40v80L1320.5,340.5z"/>
		</g>
		<g>
			<path class="st5" d="M1600.5,680.5v-60l60-60v-60h40v80l-60,60v40H1600.5z"/>
			<path class="st4" d="M1600.5,680.5v-60l60-60v-60h40v80l-60,60v40H1600.5z"/>
		</g>
		<g>
			<path class="st5" d="M1400.5,680.5v-60l-60-60v-60h-40v80l60,60v40H1400.5z"/>
			<path class="st4" d="M1400.5,680.5v-60l-60-60v-60h-40v80l60,60v40H1400.5z"/>
		</g>
	</g>
</g>
<g id="Sides">
	<g id="Left">
		<g>
			<path class="st6" d="M1020.5,980.5h-60v-80l40-40h20V980.5z"/>
			<path class="st4" d="M1020.5,980.5h-60v-80l40-40h20V980.5z"/>
		</g>
		<g>
			<path class="st6" d="M1020.5,1020.5h-60v80l40,40h20V1020.5z"/>
			<path class="st4" d="M1020.5,1020.5h-60v80l40,40h20V1020.5z"/>
		</g>
		<g>
			<path class="st6" d="M940.5,1060.5h-80v20l80,80h40v-20l-40-40V1060.5z"/>
			<path class="st4" d="M940.5,1060.5h-80v20l80,80h40v-20l-40-40V1060.5z"/>
		</g>
		<g>
			<path class="st6" d="M940.5,940.5h-80v-20l80-80h40v20l-40,40V940.5z"/>
			<path class="st4" d="M940.5,940.5h-80v-20l80-80h40v20l-40,40V940.5z"/>
		</g>
		<g>
			<path class="st6" d="M840.5,1040.5h-60v20l80,80h40l-60-60V1040.5z"/>
			<path class="st4" d="M840.5,1040.5h-60v20l80,80h40l-60-60V1040.5z"/>
		</g>
		<g>
			<path class="st6" d="M840.5,960.5h-60v-20l80-80h40l-60,60V960.5z"/>
			<path class="st4" d="M840.5,960.5h-60v-20l80-80h40l-60,60V960.5z"/>
		</g>
		<g>
			<path class="st6" d="M760.5,980.5h-60v-60l80-80h60v20l-80,80V980.5z"/>
			<path class="st4" d="M760.5,980.5h-60v-60l80-80h60v20l-80,80V980.5z"/>
		</g>
		<g>
			<path class="st6" d="M760.5,1020.5h-60v60l80,80h60v-20l-80-80V1020.5z"/>
			<path class="st4" d="M760.5,1020.5h-60v60l80,80h60v-20l-80-80V1020.5z"/>
		</g>
		<g>
			<path class="st6" d="M680.5,1020.5h-40v60l40,40h40l-40-40V1020.5z"/>
			<path class="st4" d="M680.5,1020.5h-40v60l40,40h40l-40-40V1020.5z"/>
		</g>
		<g>
			<path class="st6" d="M680.5,980.5h-40v-60l40-40h40l-40,40V980.5z"/>
			<path class="st4" d="M680.5,980.5h-40v-60l40-40h40l-40,40V980.5z"/>
		</g>
		<g>
			<path class="st6" d="M620.5,1020.5h-60v60l80,80h40v-20l-60-60V1020.5z"/>
			<path class="st4" d="M620.5,1020.5h-60v60l80,80h40v-20l-60-60V1020.5z"/>
		</g>
		<g>
			<path class="st6" d="M620.5,980.5h-60v-60l80-80h40v20l-60,60V980.5z"/>
			<path class="st4" d="M620.5,980.5h-60v-60l80-80h40v20l-60,60V980.5z"/>
		</g>
		<g>
			<path class="st6" d="M940.5,960.5v80h-80l-20-20h-60v-40h60l20-20H940.5z"/>
			<path class="st4" d="M940.5,960.5v80h-80l-20-20h-60v-40h60l20-20H940.5z"/>
		</g>
		<g>
			<path class="st6" d="M1180.5,920.5h-60l-60-60h-20v120h140V920.5z"/>
			<path class="st4" d="M1180.5,920.5h-60l-60-60h-20v120h140V920.5z"/>
		</g>
		<g>
			<path class="st6" d="M1180.5,1080.5h-60l-60,60h-20v-120h140V1080.5z"/>
			<path class="st4" d="M1180.5,1080.5h-60l-60,60h-20v-120h140V1080.5z"/>
		</g>
		<g>
			<path class="st6" d="M1180.5,900.5h-60l-60-60h-60v-40h80l60,60h40V900.5z"/>
			<path class="st4" d="M1180.5,900.5h-60l-60-60h-60v-40h80l60,60h40V900.5z"/>
		</g>
		<g>
			<path class="st6" d="M1180.5,1100.5h-60l-60,60h-60v40h80l60-60h40V1100.5z"/>
			<path class="st4" d="M1180.5,1100.5h-60l-60,60h-60v40h80l60-60h40V1100.5z"/>
		</g>
	</g>
	<g id="Right">
		<g>
			<path class="st6" d="M2000.5,980.5h60v-80l-40-40h-20V980.5z"/>
			<path class="st4" d="M2000.5,980.5h60v-80l-40-40h-20V980.5z"/>
		</g>
		<g>
			<path class="st6" d="M2000.5,1020.5h60v80l-40,40h-20V1020.5z"/>
			<path class="st4" d="M2000.5,1020.5h60v80l-40,40h-20V1020.5z"/>
		</g>
		<g>
			<path class="st6" d="M2080.5,1060.5h80v20l-80,80h-40v-20l40-40V1060.5z"/>
			<path class="st4" d="M2080.5,1060.5h80v20l-80,80h-40v-20l40-40V1060.5z"/>
		</g>
		<g>
			<path class="st6" d="M2080.5,940.5h80v-20l-80-80h-40v20l40,40V940.5z"/>
			<path class="st4" d="M2080.5,940.5h80v-20l-80-80h-40v20l40,40V940.5z"/>
		</g>
		<g>
			<path class="st6" d="M2180.5,1040.5h60v20l-80,80h-40l60-60V1040.5z"/>
			<path class="st4" d="M2180.5,1040.5h60v20l-80,80h-40l60-60V1040.5z"/>
		</g>
		<g>
			<path class="st6" d="M2180.5,960.5h60v-20l-80-80h-40l60,60V960.5z"/>
			<path class="st4" d="M2180.5,960.5h60v-20l-80-80h-40l60,60V960.5z"/>
		</g>
		<g>
			<path class="st6" d="M2260.5,980.5h60v-60l-80-80h-60v20l80,80V980.5z"/>
			<path class="st4" d="M2260.5,980.5h60v-60l-80-80h-60v20l80,80V980.5z"/>
		</g>
		<g>
			<path class="st6" d="M2260.5,1020.5h60v60l-80,80h-60v-20l80-80V1020.5z"/>
			<path class="st4" d="M2260.5,1020.5h60v60l-80,80h-60v-20l80-80V1020.5z"/>
		</g>
		<g>
			<path class="st6" d="M2340.5,1020.5h40v60l-40,40h-40l40-40V1020.5z"/>
			<path class="st4" d="M2340.5,1020.5h40v60l-40,40h-40l40-40V1020.5z"/>
		</g>
		<g>
			<path class="st6" d="M2340.5,980.5h40v-60l-40-40h-40l40,40V980.5z"/>
			<path class="st4" d="M2340.5,980.5h40v-60l-40-40h-40l40,40V980.5z"/>
		</g>
		<g>
			<path class="st6" d="M2400.5,1020.5h60v60l-80,80h-40v-20l60-60V1020.5z"/>
			<path class="st4" d="M2400.5,1020.5h60v60l-80,80h-40v-20l60-60V1020.5z"/>
		</g>
		<g>
			<path class="st6" d="M2400.5,980.5h60v-60l-80-80h-40v20l60,60V980.5z"/>
			<path class="st4" d="M2400.5,980.5h60v-60l-80-80h-40v20l60,60V980.5z"/>
		</g>
		<g>
			<path class="st6" d="M2080.5,960.5v80h80l20-20h60v-40h-60l-20-20H2080.5z"/>
			<path class="st4" d="M2080.5,960.5v80h80l20-20h60v-40h-60l-20-20H2080.5z"/>
		</g>
		<g>
			<path class="st6" d="M1840.5,920.5h60l60-60h20v120h-140V920.5z"/>
			<path class="st4" d="M1840.5,920.5h60l60-60h20v120h-140V920.5z"/>
		</g>
		<g>
			<path class="st6" d="M1840.5,1080.5h60l60,60h20v-120h-140V1080.5z"/>
			<path class="st4" d="M1840.5,1080.5h60l60,60h20v-120h-140V1080.5z"/>
		</g>
		<g>
			<path class="st6" d="M1820.5,1100.5h60l60,60h60v40h-80l-60-60h-40V1100.5z"/>
			<path class="st4" d="M1820.5,1100.5h60l60,60h60v40h-80l-60-60h-40V1100.5z"/>
		</g>
		<g>
			<path class="st6" d="M1820.5,900.5h60l60-60h60v-40h-80l-60,60h-40V900.5z"/>
			<path class="st4" d="M1820.5,900.5h60l60-60h60v-40h-80l-60,60h-40V900.5z"/>
		</g>
	</g>
	<g id="Right_side_bottom">
		<g>
			<path class="st6" d="M2020.5,1180.5v20l-20,20h-20v60h40l40-40v-60H2020.5z"/>
			<path class="st4" d="M2020.5,1180.5v20l-20,20h-20v60h40l40-40v-60H2020.5z"/>
		</g>
		<g>
			<path class="st6" d="M2100.5,1160.5l-20,20v60l-60,60v40h40l80-80v-100H2100.5z"/>
			<path class="st4" d="M2100.5,1160.5l-20,20v60l-60,60v40h40l80-80v-100H2100.5z"/>
		</g>
		<g>
			<path class="st6" d="M2160.5,1180.5v60l40,40l100-100v-40h-40l-40,40H2160.5z"/>
			<path class="st4" d="M2160.5,1180.5v60l40,40l100-100v-40h-40l-40,40H2160.5z"/>
		</g>
		<g>
			<path class="st6" d="M2320.5,1180.5l-80,80l40,40l60-60h20v-60H2320.5z"/>
			<path class="st4" d="M2320.5,1180.5l-80,80l40,40l60-60h20v-60H2320.5z"/>
		</g>
	</g>
	<g id="Left_side_bottom">
		<g>
			<path class="st6" d="M980.5,1180.5v20l20,20h20v60h-40l-40-40v-60H980.5z"/>
			<path class="st4" d="M980.5,1180.5v20l20,20h20v60h-40l-40-40v-60H980.5z"/>
		</g>
		<g>
			<path class="st6" d="M900.5,1160.5l20,20v60l60,60v40h-40l-80-80v-100H900.5z"/>
			<path class="st4" d="M900.5,1160.5l20,20v60l60,60v40h-40l-80-80v-100H900.5z"/>
		</g>
		<g>
			<path class="st6" d="M840.5,1180.5v60l-40,40l-100-100v-40h40l40,40H840.5z"/>
			<path class="st4" d="M840.5,1180.5v60l-40,40l-100-100v-40h40l40,40H840.5z"/>
		</g>
		<g>
			<path class="st6" d="M680.5,1180.5l80,80l-40,40l-60-60h-20v-60H680.5z"/>
			<path class="st4" d="M680.5,1180.5l80,80l-40,40l-60-60h-20v-60H680.5z"/>
		</g>
	</g>
	<g id="Right_side_top">
		<g>
			<path class="st6" d="M2020.5,820.5v-20l-20-20h-20v-60h40l40,40v60H2020.5z"/>
			<path class="st4" d="M2020.5,820.5v-20l-20-20h-20v-60h40l40,40v60H2020.5z"/>
		</g>
		<g>
			<path class="st6" d="M2100.5,840.5l-20-20v-60l-60-60v-40h40l80,80v100H2100.5z"/>
			<path class="st4" d="M2100.5,840.5l-20-20v-60l-60-60v-40h40l80,80v100H2100.5z"/>
		</g>
		<g>
			<path class="st6" d="M2160.5,820.5v-60l40-40l100,100v40h-40l-40-40H2160.5z"/>
			<path class="st4" d="M2160.5,820.5v-60l40-40l100,100v40h-40l-40-40H2160.5z"/>
		</g>
		<g>
			<path class="st6" d="M2320.5,820.5l-80-80l40-40l60,60h20v60H2320.5z"/>
			<path class="st4" d="M2320.5,820.5l-80-80l40-40l60,60h20v60H2320.5z"/>
		</g>
	</g>
	<g id="Left_side_top">
		<g>
			<path class="st6" d="M980.5,820.5v-20l20-20h20v-60h-40l-40,40v60H980.5z"/>
			<path class="st4" d="M980.5,820.5v-20l20-20h20v-60h-40l-40,40v60H980.5z"/>
		</g>
		<g>
			<path class="st6" d="M900.5,840.5l20-20v-60l60-60v-40h-40l-80,80v100H900.5z"/>
			<path class="st4" d="M900.5,840.5l20-20v-60l60-60v-40h-40l-80,80v100H900.5z"/>
		</g>
		<g>
			<path class="st6" d="M840.5,820.5v-60l-40-40l-100,100v40h40l40-40H840.5z"/>
			<path class="st4" d="M840.5,820.5v-60l-40-40l-100,100v40h40l40-40H840.5z"/>
		</g>
		<g>
			<path class="st6" d="M680.5,820.5l80-80l-40-40l-60,60h-20v60H680.5z"/>
			<path class="st4" d="M680.5,820.5l80-80l-40-40l-60,60h-20v60H680.5z"/>
		</g>
	</g>
</g>
<g id="Corners">
	<g id="Bottom_right">
		<g>
			<path class="st7" d="M1660.5,1340.5v-60l40-40l40,40l-40,40v20H1660.5z"/>
			<path class="st4" d="M1660.5,1340.5v-60l40-40l40,40l-40,40v20H1660.5z"/>
		</g>
		<g>
			<path class="st7" d="M1840.5,1160.5h-60l-40,40l40,40l40-40h20V1160.5z"/>
			<path class="st4" d="M1840.5,1160.5h-60l-40,40l40,40l40-40h20V1160.5z"/>
		</g>
		<g>
			<path class="st7" d="M1720.5,1240.5l20-20l40,40l40-40v40l-60,60h-40l40-40L1720.5,1240.5z"/>
			<path class="st4" d="M1720.5,1240.5l20-20l40,40l40-40v40l-60,60h-40l40-40L1720.5,1240.5z"/>
		</g>
		<g>
			<path class="st7" d="M1780.5,1320.5l40-40h40l-20,20l80,80l-40,40l-80-80l-20,20V1320.5z"/>
			<path class="st4" d="M1780.5,1320.5l40-40h40l-20,20l80,80l-40,40l-80-80l-20,20V1320.5z"/>
		</g>
		<g>
			<path class="st7" d="M1680.5,1380.5v-20h40v-20h40v40l-40,40L1680.5,1380.5z"/>
			<path class="st4" d="M1680.5,1380.5v-20h40v-20h40v40l-40,40L1680.5,1380.5z"/>
		</g>
		<g>
			<path class="st7" d="M1720.5,1440.5l80-80l40,40l-40,40v20h-80V1440.5z"/>
			<path class="st4" d="M1720.5,1440.5l80-80l40,40l-40,40v20h-80V1440.5z"/>
		</g>
		<g>
			<path class="st7" d="M1940.5,1220.5l-80,80l40,40l40-40h20v-80H1940.5z"/>
			<path class="st4" d="M1940.5,1220.5l-80,80l40,40l40-40h20v-80H1940.5z"/>
		</g>
		<g>
			<path class="st7" d="M1840.5,1220.5v40h40l40-40l-40-40h-20v20L1840.5,1220.5z"/>
			<path class="st4" d="M1840.5,1220.5v40h40l40-40l-40-40h-20v20L1840.5,1220.5z"/>
		</g>
		<g>
			<path class="st7" d="M1860.5,1420.5l-60,60v20h80v-20l20-20L1860.5,1420.5z"/>
			<path class="st4" d="M1860.5,1420.5l-60,60v20h80v-20l20-20L1860.5,1420.5z"/>
		</g>
		<g>
			<path class="st7" d="M1920.5,1360.5l60-60h20v80h-20l-20,20L1920.5,1360.5z"/>
			<path class="st4" d="M1920.5,1360.5l60-60h20v80h-20l-20,20L1920.5,1360.5z"/>
		</g>
		<g>
			<path class="st7" d="M1980.5,1420.5l60-60h20v80h-20l-20,20L1980.5,1420.5z"/>
			<path class="st4" d="M1980.5,1420.5l60-60h20v80h-20l-20,20L1980.5,1420.5z"/>
		</g>
		<g>
			<path class="st7" d="M1920.5,1480.5l-60,60v20h80v-20l20-20L1920.5,1480.5z"/>
			<path class="st4" d="M1920.5,1480.5l-60,60v20h80v-20l20-20L1920.5,1480.5z"/>
		</g>
		<g>
			<path class="st7" d="M1900.5,1440.5l40-40l80,80l20-20v40l-40,40h-40l20-20L1900.5,1440.5z"/>
			<path class="st4" d="M1900.5,1440.5l40-40l80,80l20-20v40l-40,40h-40l20-20L1900.5,1440.5z"/>
		</g>
	</g>
	<g id="Bottom_left">
		<g>
			<path class="st7" d="M1340.5,1340.5v-60l-40-40l-40,40l40,40v20H1340.5z"/>
			<path class="st4" d="M1340.5,1340.5v-60l-40-40l-40,40l40,40v20H1340.5z"/>
		</g>
		<g>
			<path class="st7" d="M1160.5,1160.5h60l40,40l-40,40l-40-40h-20V1160.5z"/>
			<path class="st4" d="M1160.5,1160.5h60l40,40l-40,40l-40-40h-20V1160.5z"/>
		</g>
		<g>
			<path class="st7" d="M1280.5,1240.5l-20-20l-40,40l-40-40v40l60,60h40l-40-40L1280.5,1240.5z"/>
			<path class="st4" d="M1280.5,1240.5l-20-20l-40,40l-40-40v40l60,60h40l-40-40L1280.5,1240.5z"/>
		</g>
		<g>
			<path class="st7" d="M1220.5,1320.5l-40-40h-40l20,20l-80,80l40,40l80-80l20,20V1320.5z"/>
			<path class="st4" d="M1220.5,1320.5l-40-40h-40l20,20l-80,80l40,40l80-80l20,20V1320.5z"/>
		</g>
		<g>
			<path class="st7" d="M1320.5,1380.5v-20h-40v-20h-40v40l40,40L1320.5,1380.5z"/>
			<path class="st4" d="M1320.5,1380.5v-20h-40v-20h-40v40l40,40L1320.5,1380.5z"/>
		</g>
		<g>
			<path class="st7" d="M1280.5,1440.5l-80-80l-40,40l40,40v20h80V1440.5z"/>
			<path class="st4" d="M1280.5,1440.5l-80-80l-40,40l40,40v20h80V1440.5z"/>
		</g>
		<g>
			<path class="st7" d="M1060.5,1220.5l80,80l-40,40l-40-40h-20v-80H1060.5z"/>
			<path class="st4" d="M1060.5,1220.5l80,80l-40,40l-40-40h-20v-80H1060.5z"/>
		</g>
		<g>
			<path class="st7" d="M1160.5,1220.5v40h-40l-40-40l40-40h20v20L1160.5,1220.5z"/>
			<path class="st4" d="M1160.5,1220.5v40h-40l-40-40l40-40h20v20L1160.5,1220.5z"/>
		</g>
		<g>
			<path class="st7" d="M1140.5,1420.5l60,60v20h-80v-20l-20-20L1140.5,1420.5z"/>
			<path class="st4" d="M1140.5,1420.5l60,60v20h-80v-20l-20-20L1140.5,1420.5z"/>
		</g>
		<g>
			<path class="st7" d="M1080.5,1360.5l-60-60h-20v80h20l20,20L1080.5,1360.5z"/>
			<path class="st4" d="M1080.5,1360.5l-60-60h-20v80h20l20,20L1080.5,1360.5z"/>
		</g>
		<g>
			<path class="st7" d="M1020.5,1420.5l-60-60h-20v80h20l20,20L1020.5,1420.5z"/>
			<path class="st4" d="M1020.5,1420.5l-60-60h-20v80h20l20,20L1020.5,1420.5z"/>
		</g>
		<g>
			<path class="st7" d="M1080.5,1480.5l60,60v20h-80v-20l-20-20L1080.5,1480.5z"/>
			<path class="st4" d="M1080.5,1480.5l60,60v20h-80v-20l-20-20L1080.5,1480.5z"/>
		</g>
		<g>
			<path class="st7" d="M1100.5,1440.5l-40-40l-80,80l-20-20v40l40,40h40l-20-20L1100.5,1440.5z"/>
			<path class="st4" d="M1100.5,1440.5l-40-40l-80,80l-20-20v40l40,40h40l-20-20L1100.5,1440.5z"/>
		</g>
	</g>
	<g id="Top_right">
		<g>
			<path class="st7" d="M1660.5,660.5v60l40,40l40-40l-40-40v-20H1660.5z"/>
			<path class="st4" d="M1660.5,660.5v60l40,40l40-40l-40-40v-20H1660.5z"/>
		</g>
		<g>
			<path class="st7" d="M1840.5,840.5h-60l-40-40l40-40l40,40h20V840.5z"/>
			<path class="st4" d="M1840.5,840.5h-60l-40-40l40-40l40,40h20V840.5z"/>
		</g>
		<g>
			<path class="st7" d="M1720.5,760.5l20,20l40-40l40,40v-40l-60-60h-40l40,40L1720.5,760.5z"/>
			<path class="st4" d="M1720.5,760.5l20,20l40-40l40,40v-40l-60-60h-40l40,40L1720.5,760.5z"/>
		</g>
		<g>
			<path class="st7" d="M1780.5,680.5l40,40h40l-20-20l80-80l-40-40l-80,80l-20-20V680.5z"/>
			<path class="st4" d="M1780.5,680.5l40,40h40l-20-20l80-80l-40-40l-80,80l-20-20V680.5z"/>
		</g>
		<g>
			<path class="st7" d="M1680.5,620.5v20h40v20h40v-40l-40-40L1680.5,620.5z"/>
			<path class="st4" d="M1680.5,620.5v20h40v20h40v-40l-40-40L1680.5,620.5z"/>
		</g>
		<g>
			<path class="st7" d="M1720.5,560.5l80,80l40-40l-40-40v-20h-80V560.5z"/>
			<path class="st4" d="M1720.5,560.5l80,80l40-40l-40-40v-20h-80V560.5z"/>
		</g>
		<g>
			<path class="st7" d="M1940.5,780.5l-80-80l40-40l40,40h20v80H1940.5z"/>
			<path class="st4" d="M1940.5,780.5l-80-80l40-40l40,40h20v80H1940.5z"/>
		</g>
		<g>
			<path class="st7" d="M1840.5,780.5v-40h40l40,40l-40,40h-20v-20L1840.5,780.5z"/>
			<path class="st4" d="M1840.5,780.5v-40h40l40,40l-40,40h-20v-20L1840.5,780.5z"/>
		</g>
		<g>
			<path class="st7" d="M1860.5,580.5l-60-60v-20h80v20l20,20L1860.5,580.5z"/>
			<path class="st4" d="M1860.5,580.5l-60-60v-20h80v20l20,20L1860.5,580.5z"/>
		</g>
		<g>
			<path class="st7" d="M1920.5,640.5l60,60h20v-80h-20l-20-20L1920.5,640.5z"/>
			<path class="st4" d="M1920.5,640.5l60,60h20v-80h-20l-20-20L1920.5,640.5z"/>
		</g>
		<g>
			<path class="st7" d="M1980.5,580.5l60,60h20v-80h-20l-20-20L1980.5,580.5z"/>
			<path class="st4" d="M1980.5,580.5l60,60h20v-80h-20l-20-20L1980.5,580.5z"/>
		</g>
		<g>
			<path class="st7" d="M1920.5,520.5l-60-60v-20h80v20l20,20L1920.5,520.5z"/>
			<path class="st4" d="M1920.5,520.5l-60-60v-20h80v20l20,20L1920.5,520.5z"/>
		</g>
		<g>
			<path class="st7" d="M1900.5,560.5l40,40l80-80l20,20v-40l-40-40h-40l20,20L1900.5,560.5z"/>
			<path class="st4" d="M1900.5,560.5l40,40l80-80l20,20v-40l-40-40h-40l20,20L1900.5,560.5z"/>
		</g>
	</g>
	<g id="Top_left">
		<g>
			<path class="st7" d="M1340.5,660.5v60l-40,40l-40-40l40-40v-20H1340.5z"/>
			<path class="st4" d="M1340.5,660.5v60l-40,40l-40-40l40-40v-20H1340.5z"/>
		</g>
		<g>
			<path class="st7" d="M1160.5,840.5h60l40-40l-40-40l-40,40h-20V840.5z"/>
			<path class="st4" d="M1160.5,840.5h60l40-40l-40-40l-40,40h-20V840.5z"/>
		</g>
		<g>
			<path class="st7" d="M1280.5,760.5l-20,20l-40-40l-40,40v-40l60-60h40l-40,40L1280.5,760.5z"/>
			<path class="st4" d="M1280.5,760.5l-20,20l-40-40l-40,40v-40l60-60h40l-40,40L1280.5,760.5z"/>
		</g>
		<g>
			<path class="st7" d="M1220.5,680.5l-40,40h-40l20-20l-80-80l40-40l80,80l20-20V680.5z"/>
			<path class="st4" d="M1220.5,680.5l-40,40h-40l20-20l-80-80l40-40l80,80l20-20V680.5z"/>
		</g>
		<g>
			<path class="st7" d="M1320.5,620.5v20h-40v20h-40v-40l40-40L1320.5,620.5z"/>
			<path class="st4" d="M1320.5,620.5v20h-40v20h-40v-40l40-40L1320.5,620.5z"/>
		</g>
		<g>
			<path class="st7" d="M1280.5,560.5l-80,80l-40-40l40-40v-20h80V560.5z"/>
			<path class="st4" d="M1280.5,560.5l-80,80l-40-40l40-40v-20h80V560.5z"/>
		</g>
		<g>
			<path class="st7" d="M1060.5,780.5l80-80l-40-40l-40,40h-20v80H1060.5z"/>
			<path class="st4" d="M1060.5,780.5l80-80l-40-40l-40,40h-20v80H1060.5z"/>
		</g>
		<g>
			<path class="st7" d="M1160.5,780.5v-40h-40l-40,40l40,40h20v-20L1160.5,780.5z"/>
			<path class="st4" d="M1160.5,780.5v-40h-40l-40,40l40,40h20v-20L1160.5,780.5z"/>
		</g>
		<g>
			<path class="st7" d="M1140.5,580.5l60-60v-20h-80v20l-20,20L1140.5,580.5z"/>
			<path class="st4" d="M1140.5,580.5l60-60v-20h-80v20l-20,20L1140.5,580.5z"/>
		</g>
		<g>
			<path class="st7" d="M1080.5,640.5l-60,60h-20v-80h20l20-20L1080.5,640.5z"/>
			<path class="st4" d="M1080.5,640.5l-60,60h-20v-80h20l20-20L1080.5,640.5z"/>
		</g>
		<g>
			<path class="st7" d="M1020.5,580.5l-60,60h-20v-80h20l20-20L1020.5,580.5z"/>
			<path class="st4" d="M1020.5,580.5l-60,60h-20v-80h20l20-20L1020.5,580.5z"/>
		</g>
		<g>
			<path class="st7" d="M1080.5,520.5l60-60v-20h-80v20l-20,20L1080.5,520.5z"/>
			<path class="st4" d="M1080.5,520.5l60-60v-20h-80v20l-20,20L1080.5,520.5z"/>
		</g>
		<g>
			<path class="st7" d="M1100.5,560.5l-40,40l-80-80l-20,20v-40l40-40h40l-20,20L1100.5,560.5z"/>
			<path class="st4" d="M1100.5,560.5l-40,40l-80-80l-20,20v-40l40-40h40l-20,20L1100.5,560.5z"/>
		</g>
	</g>
</g>
</svg>
