<?xml version="1.0" encoding="UTF-8"?>
<!DOCTYPE svg PUBLIC "-//W3C//DTD SVG 1.1//EN" "http://www.w3.org/Graphics/SVG/1.1/DTD/svg11.dtd">
<svg version="1.1" xmlns="http://www.w3.org/2000/svg" xmlns:xlink="http://www.w3.org/1999/xlink" x="0" y="0" width="3000" height="3000" viewBox="0, 0, 3000, 3000">
  <g id="-background" display="none">
    <path d="M-0.004,-0 L3000,-0 L3000,3000 L-0.004,3000 z" fill="#000000"/>
  </g>
  <g id="-guides">
    <g opacity="0.272" display="none">
      <path d="M1293.394,2000.5 L1000.5,1707.607 L1000.5,1293.394 L1293.393,1000.5 L1707.606,1000.5 L2000.5,1293.393 L2000.5,1707.606 L1707.607,2000.5 z" fill-opacity="0" stroke="#0000F4" stroke-width="2" stroke-dasharray="20,14" stroke-linejoin="bevel"/>
      <path d="M1086.287,2500.503 L500.501,1914.718 L500.5,1086.291 L1086.286,500.504 L1914.713,500.503 L2500.5,1086.289 L2500.5,1914.716 L1914.714,2500.503 z" fill-opacity="0" stroke="#0000F4" stroke-width="2" stroke-dasharray="20,14" stroke-linejoin="bevel"/>
      <path d="M879.181,3000.5 L0.501,2121.821 L0.5,879.181 L879.179,0.501 L2121.819,0.5 L3000.499,879.179 L3000.5,2121.82 L2121.821,3000.499 z" fill-opacity="0" stroke="#0000F4" stroke-width="2" stroke-dasharray="20,14" stroke-linejoin="bevel"/>
    </g>
    <g opacity="0.272">
      <path d="M0.5,3000.5 L3000.5,0.5 M0.5,0.5 L3000.5,3000.5" fill-opacity="0" stroke="#0000F4" stroke-width="2" stroke-dasharray="20,14" stroke-linejoin="bevel"/>
      <path d="M1500.5,3621.82 L1500.5,-620.82 M-620.82,1500.5 L3621.82,1500.5" fill-opacity="0" stroke="#0000F4" stroke-width="2" stroke-dasharray="20,14" stroke-linejoin="bevel"/>
      <path d="M688.706,3460.344 L2312.294,-459.344 M-459.344,688.706 L3460.344,2312.294" fill-opacity="0" stroke="#00C7F4" stroke-width="2" stroke-dasharray="20,14" stroke-linejoin="bevel"/>
      <path d="M2312.294,3460.344 L688.706,-459.344 M-459.344,2312.294 L3460.344,688.706" fill-opacity="0" stroke="#00C7F4" stroke-width="2" stroke-dasharray="20,14" stroke-linejoin="bevel"/>
    </g>
    <g opacity="0.272">
      <path d="M1500.5,1625.5 C1431.464,1625.5 1375.5,1569.536 1375.5,1500.5 C1375.5,1431.464 1431.464,1375.5 1500.5,1375.5 C1569.536,1375.5 1625.5,1431.464 1625.5,1500.5 C1625.5,1569.536 1569.536,1625.5 1500.5,1625.5 z" fill-opacity="0" stroke="#86BD65" stroke-width="2" stroke-dasharray="6,4" stroke-linejoin="bevel"/>
      <path d="M1500.5,1875.5 C1293.393,1875.5 1125.5,1707.607 1125.5,1500.5 C1125.5,1293.393 1293.393,1125.5 1500.5,1125.5 C1707.607,1125.5 1875.5,1293.393 1875.5,1500.5 C1875.5,1707.607 1707.607,1875.5 1500.5,1875.5 z" fill-opacity="0" stroke="#86BD65" stroke-width="2" stroke-dasharray="6,4" stroke-linejoin="bevel"/>
      <path d="M1500.5,2125.503 C1155.322,2125.503 875.5,1845.681 875.5,1500.5 C875.5,1155.325 1155.322,875.503 1500.5,875.503 C1845.678,875.503 2125.5,1155.325 2125.5,1500.5 C2125.5,1845.681 1845.678,2125.503 1500.5,2125.503 z" fill-opacity="0" stroke="#86BD65" stroke-width="2" stroke-dasharray="6,4" stroke-linejoin="bevel"/>
      <path d="M1500.5,2375.5 C1017.251,2375.5 625.5,1983.749 625.5,1500.5 C625.5,1017.251 1017.251,625.5 1500.5,625.5 C1983.749,625.5 2375.5,1017.251 2375.5,1500.5 C2375.5,1983.749 1983.749,2375.5 1500.5,2375.5 z" fill-opacity="0" stroke="#86BD65" stroke-width="2" stroke-dasharray="6,4" stroke-linejoin="bevel"/>
      <path d="M1500.5,2625.5 C879.18,2625.5 375.5,2121.82 375.5,1500.5 C375.5,879.18 879.18,375.5 1500.5,375.5 C2121.82,375.5 2625.5,879.18 2625.5,1500.5 C2625.5,2121.82 2121.82,2625.5 1500.5,2625.5 z" fill-opacity="0" stroke="#86BD65" stroke-width="2" stroke-dasharray="6,4" stroke-linejoin="bevel"/>
      <path d="M1500.5,2875.5 C741.109,2875.5 125.5,2259.892 125.5,1500.5 C125.5,741.108 741.109,125.5 1500.5,125.5 C2259.892,125.5 2875.5,741.108 2875.5,1500.5 C2875.5,2259.892 2259.892,2875.5 1500.5,2875.5 z" fill-opacity="0" stroke="#86BD65" stroke-width="2" stroke-dasharray="6,4" stroke-linejoin="bevel"/>
    </g>
    <g opacity="0.272">
      <path d="M1500.5,1750.5 C1362.429,1750.5 1250.5,1638.571 1250.5,1500.5 C1250.5,1362.429 1362.429,1250.5 1500.5,1250.5 C1638.571,1250.5 1750.5,1362.429 1750.5,1500.5 C1750.5,1638.571 1638.571,1750.5 1500.5,1750.5 z" fill-opacity="0" stroke="#4D822D" stroke-width="4" stroke-dasharray="24,20" stroke-linejoin="bevel"/>
      <path d="M1500.5,2000.501 C1224.358,2000.501 1000.5,1776.643 1000.5,1500.501 C1000.5,1224.358 1224.358,1000.501 1500.5,1000.501 C1776.642,1000.501 2000.5,1224.358 2000.5,1500.501 C2000.5,1776.643 1776.642,2000.501 1500.5,2000.501 z" fill-opacity="0" stroke="#4D822D" stroke-width="4" stroke-dasharray="24,20" stroke-linejoin="bevel"/>
      <path d="M1500.5,2250.5 C1086.289,2250.5 750.503,1914.714 750.503,1500.5 C750.503,1086.286 1086.289,750.5 1500.5,750.5 C1914.716,750.5 2250.503,1086.286 2250.503,1500.5 C2250.503,1914.714 1914.716,2250.5 1500.5,2250.5 z" fill-opacity="0" stroke="#4D822D" stroke-width="4" stroke-dasharray="24,20" stroke-linejoin="bevel"/>
      <path d="M1500.5,2500.5 C948.215,2500.5 500.5,2052.785 500.5,1500.5 C500.5,948.215 948.215,500.5 1500.5,500.5 C2052.785,500.5 2500.5,948.215 2500.5,1500.5 C2500.5,2052.785 2052.785,2500.5 1500.5,2500.5 z" fill-opacity="0" stroke="#4D822D" stroke-width="4" stroke-dasharray="24,20" stroke-linejoin="bevel"/>
      <path d="M1500.5,2750.5 C810.144,2750.5 250.5,2190.856 250.5,1500.5 C250.5,810.144 810.144,250.5 1500.5,250.5 C2190.856,250.5 2750.5,810.144 2750.5,1500.5 C2750.5,2190.856 2190.856,2750.5 1500.5,2750.5 z" fill-opacity="0" stroke="#4D822D" stroke-width="4" stroke-dasharray="24,20" stroke-linejoin="bevel"/>
      <path d="M1500.5,3000.5 C672.073,3000.5 0.5,2328.927 0.5,1500.5 C0.5,672.073 672.073,0.5 1500.5,0.5 C2328.927,0.5 3000.5,672.073 3000.5,1500.5 C3000.5,2328.927 2328.927,3000.5 1500.5,3000.5 z" fill-opacity="0" stroke="#4D822D" stroke-width="4" stroke-dasharray="24,20" stroke-linejoin="bevel"/>
    </g>
    <g>
      <g>
        <path d="M1500.5,1500.5 L1625.5,1375.5 L1625.5,1250.5 L2000.5,875.5 L2125.5,875.5 L2125.5,625.5 L1875.5,375.5 L1125.5,375.5 L875.5,625.5 L875.5,875.5 L1000.5,875.5 L1375.5,1250.5 L1375.5,1375.5 L1500.5,1500.5 z" fill="#7D7D7D" fill-opacity="0.594"/>
        <path d="M1500.5,1500.5 L1625.5,1375.5 L1625.5,1250.5 L2000.5,875.5 L2125.5,875.5 L2125.5,625.5 L1875.5,375.5 L1125.5,375.5 L875.5,625.5 L875.5,875.5 L1000.5,875.5 L1375.5,1250.5 L1375.5,1375.5 L1500.5,1500.5 z" fill-opacity="0" stroke="#000000" stroke-width="1"/>
      </g>
      <g>
        <path d="M1500.5,1500.5 L1625.5,1625.5 L1750.5,1625.5 L2125.5,2000.5 L2125.5,2125.5 L2375.5,2125.5 L2625.5,1875.5 L2625.5,1125.5 L2375.5,875.5 L2125.5,875.5 L2125.5,1000.5 L1750.5,1375.5 L1625.5,1375.5 L1500.5,1500.5 z" fill="#7D7D7D" fill-opacity="0.594"/>
        <path d="M1500.5,1500.5 L1625.5,1625.5 L1750.5,1625.5 L2125.5,2000.5 L2125.5,2125.5 L2375.5,2125.5 L2625.5,1875.5 L2625.5,1125.5 L2375.5,875.5 L2125.5,875.5 L2125.5,1000.5 L1750.5,1375.5 L1625.5,1375.5 L1500.5,1500.5 z" fill-opacity="0" stroke="#000000" stroke-width="1"/>
      </g>
      <g>
        <path d="M1500.5,1500.5 L1375.5,1625.5 L1375.5,1750.5 L1000.5,2125.5 L875.5,2125.5 L875.5,2375.5 L1125.5,2625.5 L1875.5,2625.5 L2125.5,2375.5 L2125.5,2125.5 L2000.5,2125.5 L1625.5,1750.5 L1625.5,1625.5 L1500.5,1500.5 z" fill="#7D7D7D" fill-opacity="0.594"/>
        <path d="M1500.5,1500.5 L1375.5,1625.5 L1375.5,1750.5 L1000.5,2125.5 L875.5,2125.5 L875.5,2375.5 L1125.5,2625.5 L1875.5,2625.5 L2125.5,2375.5 L2125.5,2125.5 L2000.5,2125.5 L1625.5,1750.5 L1625.5,1625.5 L1500.5,1500.5 z" fill-opacity="0" stroke="#000000" stroke-width="1"/>
      </g>
      <g>
        <path d="M1500.5,1500.5 L1375.5,1375.5 L1250.5,1375.5 L875.5,1000.5 L875.5,875.5 L625.5,875.5 L375.5,1125.5 L375.5,1875.5 L625.5,2125.5 L875.5,2125.5 L875.5,2000.5 L1250.5,1625.5 L1375.5,1625.5 L1500.5,1500.5 z" fill="#7D7D7D" fill-opacity="0.594"/>
        <path d="M1500.5,1500.5 L1375.5,1375.5 L1250.5,1375.5 L875.5,1000.5 L875.5,875.5 L625.5,875.5 L375.5,1125.5 L375.5,1875.5 L625.5,2125.5 L875.5,2125.5 L875.5,2000.5 L1250.5,1625.5 L1375.5,1625.5 L1500.5,1500.5 z" fill-opacity="0" stroke="#000000" stroke-width="1"/>
      </g>
    </g>
    <g>
      <path d="M2138,863 L2375.5,863 L2500.5,988 L2738,750.5 L2738,625.5 L2863,500.5 L2863,375.5 L2988,250.5 L2988,125.5 L2875.5,13 L2750.5,13 L2625.5,138 L2500.5,138 L2375.5,263 L2250.5,263 L2013,500.5 L2138,625.5 L2138,863 z" fill="#7D7D7D" fill-opacity="0.594"/>
      <path d="M2138,863 L2375.5,863 L2500.5,988 L2738,750.5 L2738,625.5 L2863,500.5 L2863,375.5 L2988,250.5 L2988,125.5 L2875.5,13 L2750.5,13 L2625.5,138 L2500.5,138 L2375.5,263 L2250.5,263 L2013,500.5 L2138,625.5 L2138,863 z" fill-opacity="0" stroke="#000000" stroke-width="1"/>
    </g>
    <g>
      <path d="M2138,2138 L2138,2375.5 L2013,2500.5 L2250.5,2738 L2375.5,2738 L2500.5,2863 L2625.5,2863 L2750.5,2988 L2875.5,2988 L2988,2875.5 L2988,2750.5 L2863,2625.5 L2863,2500.5 L2738,2375.5 L2738,2250.5 L2500.5,2013 L2375.5,2138 L2138,2138 z" fill="#7D7D7D" fill-opacity="0.594"/>
      <path d="M2138,2138 L2138,2375.5 L2013,2500.5 L2250.5,2738 L2375.5,2738 L2500.5,2863 L2625.5,2863 L2750.5,2988 L2875.5,2988 L2988,2875.5 L2988,2750.5 L2863,2625.5 L2863,2500.5 L2738,2375.5 L2738,2250.5 L2500.5,2013 L2375.5,2138 L2138,2138 z" fill-opacity="0" stroke="#000000" stroke-width="1"/>
    </g>
    <g>
      <path d="M863,2138 L625.5,2138 L500.5,2013 L263,2250.5 L263,2375.5 L138,2500.5 L138,2625.5 L13,2750.5 L13,2875.5 L125.5,2988 L250.5,2988 L375.5,2863 L500.5,2863 L625.5,2738 L750.5,2738 L988,2500.5 L863,2375.5 L863,2138 z" fill="#7D7D7D" fill-opacity="0.594"/>
      <path d="M863,2138 L625.5,2138 L500.5,2013 L263,2250.5 L263,2375.5 L138,2500.5 L138,2625.5 L13,2750.5 L13,2875.5 L125.5,2988 L250.5,2988 L375.5,2863 L500.5,2863 L625.5,2738 L750.5,2738 L988,2500.5 L863,2375.5 L863,2138 z" fill-opacity="0" stroke="#000000" stroke-width="1"/>
    </g>
    <g>
      <path d="M863,863 L863,625.5 L988,500.5 L750.5,263 L625.5,263 L500.5,138 L375.5,138 L250.5,13 L125.5,13 L13,125.5 L13,250.5 L138,375.5 L138,500.5 L263,625.5 L263,750.5 L500.5,988 L625.5,863 L863,863 z" fill="#7D7D7D" fill-opacity="0.594"/>
      <path d="M863,863 L863,625.5 L988,500.5 L750.5,263 L625.5,263 L500.5,138 L375.5,138 L250.5,13 L125.5,13 L13,125.5 L13,250.5 L138,375.5 L138,500.5 L263,625.5 L263,750.5 L500.5,988 L625.5,863 L863,863 z" fill-opacity="0" stroke="#000000" stroke-width="1"/>
    </g>
    <g>
      <path d="M1600.5,1500.5 L1675.5,1425.5 L1800.5,1425.5 L2150.5,1075.5 L2150.5,1025.5 L2350.5,1025.5 L2550.5,1225.5 L2550.5,1775.5 L2350.5,1975.5 L2150.5,1975.5 L2150.5,1925.5 L1800.5,1575.5 L1675.5,1575.5 L1600.5,1500.5 z" fill="#7D7D7D" fill-opacity="0.594"/>
      <path d="M1600.5,1500.5 L1675.5,1425.5 L1800.5,1425.5 L2150.5,1075.5 L2150.5,1025.5 L2350.5,1025.5 L2550.5,1225.5 L2550.5,1775.5 L2350.5,1975.5 L2150.5,1975.5 L2150.5,1925.5 L1800.5,1575.5 L1675.5,1575.5 L1600.5,1500.5 z" fill-opacity="0" stroke="#000000" stroke-width="1"/>
    </g>
    <g>
      <path d="M1650.5,1500.5 L1700.5,1450.5 L1825.5,1450.5 L2200.5,1075.5 L2350.5,1075.5 L2525.5,1250.5 L2525.5,1750.5 L2350.5,1925.5 L2200.5,1925.5 L1825.5,1550.5 L1700.5,1550.5 L1650.5,1500.5 z" fill="#7D7D7D" fill-opacity="0.594"/>
      <path d="M1650.5,1500.5 L1700.5,1450.5 L1825.5,1450.5 L2200.5,1075.5 L2350.5,1075.5 L2525.5,1250.5 L2525.5,1750.5 L2350.5,1925.5 L2200.5,1925.5 L1825.5,1550.5 L1700.5,1550.5 L1650.5,1500.5 z" fill-opacity="0" stroke="#000000" stroke-width="1"/>
    </g>
    <g>
      <path d="M1825.5,1500.5 L2200.5,1125.5 L2350.5,1125.5 L2500.5,1275.5 L2500.5,1725.5 L2350.5,1875.5 L2200.5,1875.5 L1825.5,1500.5 z" fill="#7D7D7D" fill-opacity="0.594"/>
      <path d="M1825.5,1500.5 L2200.5,1125.5 L2350.5,1125.5 L2500.5,1275.5 L2500.5,1725.5 L2350.5,1875.5 L2200.5,1875.5 L1825.5,1500.5 z" fill-opacity="0" stroke="#000000" stroke-width="1"/>
    </g>
    <g>
      <path d="M1875.5,1500.5 L2200.5,1175.5 L2350.5,1175.5 L2475.5,1300.5 L2475.5,1700.5 L2350.5,1825.5 L2200.5,1825.5 L1875.5,1500.5 z" fill="#7D7D7D" fill-opacity="0.594"/>
      <path d="M1875.5,1500.5 L2200.5,1175.5 L2350.5,1175.5 L2475.5,1300.5 L2475.5,1700.5 L2350.5,1825.5 L2200.5,1825.5 L1875.5,1500.5 z" fill-opacity="0" stroke="#000000" stroke-width="1"/>
    </g>
  </g>
</svg>
