<?xml version="1.0" encoding="UTF-8"?>
<!DOCTYPE svg PUBLIC "-//W3C//DTD SVG 1.1//EN" "http://www.w3.org/Graphics/SVG/1.1/DTD/svg11.dtd">
<svg version="1.1" xmlns="http://www.w3.org/2000/svg" xmlns:xlink="http://www.w3.org/1999/xlink" x="0" y="0" width="3000" height="3000" viewBox="0, 0, 3000, 3000">
  <g id="blue">
    <g>
      <path d="M1525,750 L1575,750 L1625,700 L1625,650 L1575,700 L1575,600 L1600,575 L1600,525 L1525,600 L1525,750 z" fill="#0000F7" id="blue7b"/>
      <path d="M1475,750 L1425,750 L1375,700 L1375,650 L1425,700 L1425,600 L1400,575 L1400,525 L1475,600 L1475,750 z" fill="#0000F7" id="blue7a"/>
      <path d="M1675,875 L1575,975 L1425,975 L1325,875 L1375,875 L1425,925 L1575,925 L1625,875 L1675,875 z" fill="#0000BD" id="blue6"/>
      <path d="M1575,900 L1625,850 L1625,800 L1575,850 L1425,850 L1375,800 L1375,850 L1425,900 L1575,900 z" fill="#0000D0" id="blue5"/>
      <path d="M1575,825 L1675,725 L1625,725 L1575,775 L1425,775 L1375,725 L1325,725 L1425,825 L1575,825 z" fill="#0000DF" id="blue4"/>
      <path d="M1500,1025 L1475,1050 L1475,1125 L1500,1150 L1525,1125 L1525,1050 L1500,1025 z" fill="#0000A7" id="blue3"/>
      <path d="M1500,1325 L1475,1300 L1475,1250 L1500,1225 L1525,1250 L1525,1300 L1500,1325 z" fill="#000090" id="blue2"/>
      <path d="M1500,1400 L1525,1425 L1525,1450 L1500,1475 L1475,1450 L1475,1425 L1500,1400 z" fill="#00007F" id="blue1"/>
    </g>
    <g>
      <path d="M750,1475 L750,1425 L700,1375 L650,1375 L700,1425 L600,1425 L575,1400 L525,1400 L600,1475 L750,1475 z" fill="#0000F7" id="blue7b"/>
      <path d="M750,1525 L750,1575 L700,1625 L650,1625 L700,1575 L600,1575 L575,1600 L525,1600 L600,1525 L750,1525 z" fill="#0000F7" id="blue7a"/>
      <path d="M875,1325 L975,1425 L975,1575 L875,1675 L875,1625 L925,1575 L925,1425 L875,1375 L875,1325 z" fill="#0000BD" id="blue6"/>
      <path d="M900,1425 L850,1375 L800,1375 L850,1425 L850,1575 L800,1625 L850,1625 L900,1575 L900,1425 z" fill="#0000D0" id="blue5"/>
      <path d="M825,1425 L725,1325 L725,1375 L775,1425 L775,1575 L725,1625 L725,1675 L825,1575 L825,1425 z" fill="#0000DF" id="blue4"/>
      <path d="M1025,1500 L1050,1525 L1125,1525 L1150,1500 L1125,1475 L1050,1475 L1025,1500 z" fill="#0000A7" id="blue3"/>
      <path d="M1325,1500 L1300,1525 L1250,1525 L1225,1500 L1250,1475 L1300,1475 L1325,1500 z" fill="#000090" id="blue2"/>
      <path d="M1400,1500 L1425,1475 L1450,1475 L1475,1500 L1450,1525 L1425,1525 L1400,1500 z" fill="#00007F" id="blue1"/>
    </g>
    <g>
      <path d="M1475,2250 L1425,2250 L1375,2300 L1375,2350 L1425,2300 L1425,2400 L1400,2425 L1400,2475 L1475,2400 L1475,2250 z" fill="#0000F7" id="blue7b"/>
      <path d="M1525,2250 L1575,2250 L1625,2300 L1625,2350 L1575,2300 L1575,2400 L1600,2425 L1600,2475 L1525,2400 L1525,2250 z" fill="#0000F7" id="blue7a"/>
      <path d="M1325,2125 L1425,2025 L1575,2025 L1675,2125 L1625,2125 L1575,2075 L1425,2075 L1375,2125 L1325,2125 z" fill="#0000BD" id="blue6"/>
      <path d="M1425,2100 L1375,2150 L1375,2200 L1425,2150 L1575,2150 L1625,2200 L1625,2150 L1575,2100 L1425,2100 z" fill="#0000D0" id="blue5"/>
      <path d="M1425,2175 L1325,2275 L1375,2275 L1425,2225 L1575,2225 L1625,2275 L1675,2275 L1575,2175 L1425,2175 z" fill="#0000DF" id="blue4"/>
      <path d="M1500,1975 L1525,1950 L1525,1875 L1500,1850 L1475,1875 L1475,1950 L1500,1975 z" fill="#0000A7" id="blue3"/>
      <path d="M1500,1675 L1525,1700 L1525,1750 L1500,1775 L1475,1750 L1475,1700 L1500,1675 z" fill="#000090" id="blue2"/>
      <path d="M1500,1600 L1475,1575 L1475,1550 L1500,1525 L1525,1550 L1525,1575 L1500,1600 z" fill="#00007F" id="blue1"/>
    </g>
    <g>
      <path d="M2250,1525 L2250,1575 L2300,1625 L2350,1625 L2300,1575 L2400,1575 L2425,1600 L2475,1600 L2400,1525 L2250,1525 z" fill="#0000F7" id="blue7b"/>
      <path d="M2250,1475 L2250,1425 L2300,1375 L2350,1375 L2300,1425 L2400,1425 L2425,1400 L2475,1400 L2400,1475 L2250,1475 z" fill="#0000F7" id="blue7a"/>
      <path d="M2125,1675 L2025,1575 L2025,1425 L2125,1325 L2125,1375 L2075,1425 L2075,1575 L2125,1625 L2125,1675 z" fill="#0000BD" id="blue6"/>
      <path d="M2100,1575 L2150,1625 L2200,1625 L2150,1575 L2150,1425 L2200,1375 L2150,1375 L2100,1425 L2100,1575 z" fill="#0000D0" id="blue5"/>
      <path d="M2175,1575 L2275,1675 L2275,1625 L2225,1575 L2225,1425 L2275,1375 L2275,1325 L2175,1425 L2175,1575 z" fill="#0000DF" id="blue4"/>
      <path d="M1975,1500 L1950,1475 L1875,1475 L1850,1500 L1875,1525 L1950,1525 L1975,1500 z" fill="#0000A7" id="blue3"/>
      <path d="M1675,1500 L1700,1475 L1750,1475 L1775,1500 L1750,1525 L1700,1525 L1675,1500 z" fill="#000090" id="blue2"/>
      <path d="M1600,1500 L1575,1525 L1550,1525 L1525,1500 L1550,1475 L1575,1475 L1600,1500 z" fill="#00007F" id="blue1"/>
    </g>
  </g>
  <g id="teal">
    <g>
      <g>
        <path d="M1525,1175 L1525,1150 L1550,1125 L1550,1050 L1525,1025 L1525,1000 L1575,1000 L1625,950 L1625,1000 L1575,1050 L1575,1125 L1625,1125 L1625,1175 L1525,1175 z" fill="#007C7C"/>
        <path d="M1475,1175 L1475,1150 L1450,1125 L1450,1050 L1475,1025 L1475,1000 L1425,1000 L1375,950 L1375,1000 L1425,1050 L1425,1125 L1375,1125 L1375,1175 L1475,1175 z" fill="#007C7C"/>
      </g>
      <g>
        <path d="M1650,850 L1700,850 L1700,800 L1750,750 L1750,700 L1700,650 L1675,650 L1650,675 L1650,700 L1700,700 L1700,750 L1650,800 L1650,850 z" fill="#00CECE"/>
        <path d="M1350,850 L1300,850 L1300,800 L1250,750 L1250,700 L1300,650 L1325,650 L1350,675 L1350,700 L1300,700 L1300,750 L1350,800 L1350,850 z" fill="#00CECE"/>
      </g>
      <g>
        <path d="M1650,1100 L1600,1100 L1600,1050 L1650,1000 L1650,925 L1700,875 L1700,1000 L1650,1050 L1650,1100 z" fill="#00ADAD"/>
        <path d="M1350,1100 L1400,1100 L1400,1050 L1350,1000 L1350,925 L1300,875 L1300,1000 L1350,1050 L1350,1100 z" fill="#00ADAD"/>
      </g>
      <g>
        <path d="M1475,1200 L1375,1200 L1425,1250 L1425,1300 L1475,1350 L1475,1325 L1450,1300 L1450,1250 L1475,1225 L1475,1200 z" fill="#005757"/>
        <path d="M1525,1200 L1625,1200 L1575,1250 L1575,1300 L1525,1350 L1525,1325 L1550,1300 L1550,1250 L1525,1225 L1525,1200 z" fill="#005757"/>
      </g>
    </g>
    <g>
      <g>
        <path d="M1175,1475 L1150,1475 L1125,1450 L1050,1450 L1025,1475 L1000,1475 L1000,1425 L950,1375 L1000,1375 L1050,1425 L1125,1425 L1125,1375 L1175,1375 L1175,1475 z" fill="#007C7C"/>
        <path d="M1175,1525 L1150,1525 L1125,1550 L1050,1550 L1025,1525 L1000,1525 L1000,1575 L950,1625 L1000,1625 L1050,1575 L1125,1575 L1125,1625 L1175,1625 L1175,1525 z" fill="#007C7C"/>
      </g>
      <g>
        <path d="M850,1350 L850,1300 L800,1300 L750,1250 L700,1250 L650,1300 L650,1325 L675,1350 L700,1350 L700,1300 L750,1300 L800,1350 L850,1350 z" fill="#00CECE"/>
        <path d="M850,1650 L850,1700 L800,1700 L750,1750 L700,1750 L650,1700 L650,1675 L675,1650 L700,1650 L700,1700 L750,1700 L800,1650 L850,1650 z" fill="#00CECE"/>
      </g>
      <g>
        <path d="M1100,1350 L1100,1400 L1050,1400 L1000,1350 L925,1350 L875,1300 L1000,1300 L1050,1350 L1100,1350 z" fill="#00ADAD"/>
        <path d="M1100,1650 L1100,1600 L1050,1600 L1000,1650 L925,1650 L875,1700 L1000,1700 L1050,1650 L1100,1650 z" fill="#00ADAD"/>
      </g>
      <g>
        <path d="M1200,1525 L1200,1625 L1250,1575 L1300,1575 L1350,1525 L1325,1525 L1300,1550 L1250,1550 L1225,1525 L1200,1525 z" fill="#005757"/>
        <path d="M1200,1475 L1200,1375 L1250,1425 L1300,1425 L1350,1475 L1325,1475 L1300,1450 L1250,1450 L1225,1475 L1200,1475 z" fill="#005757"/>
      </g>
    </g>
    <g>
      <g>
        <path d="M1475,1825 L1475,1850 L1450,1875 L1450,1950 L1475,1975 L1475,2000 L1425,2000 L1375,2050 L1375,2000 L1425,1950 L1425,1875 L1375,1875 L1375,1825 L1475,1825 z" fill="#007C7C"/>
        <path d="M1525,1825 L1525,1850 L1550,1875 L1550,1950 L1525,1975 L1525,2000 L1575,2000 L1625,2050 L1625,2000 L1575,1950 L1575,1875 L1625,1875 L1625,1825 L1525,1825 z" fill="#007C7C"/>
      </g>
      <g>
        <path d="M1350,2150 L1300,2150 L1300,2200 L1250,2250 L1250,2300 L1300,2350 L1325,2350 L1350,2325 L1350,2300 L1300,2300 L1300,2250 L1350,2200 L1350,2150 z" fill="#00CECE"/>
        <path d="M1650,2150 L1700,2150 L1700,2200 L1750,2250 L1750,2300 L1700,2350 L1675,2350 L1650,2325 L1650,2300 L1700,2300 L1700,2250 L1650,2200 L1650,2150 z" fill="#00CECE"/>
      </g>
      <g>
        <path d="M1350,1900 L1400,1900 L1400,1950 L1350,2000 L1350,2075 L1300,2125 L1300,2000 L1350,1950 L1350,1900 z" fill="#00ADAD"/>
        <path d="M1650,1900 L1600,1900 L1600,1950 L1650,2000 L1650,2075 L1700,2125 L1700,2000 L1650,1950 L1650,1900 z" fill="#00ADAD"/>
      </g>
      <g>
        <path d="M1525,1800 L1625,1800 L1575,1750 L1575,1700 L1525,1650 L1525,1675 L1550,1700 L1550,1750 L1525,1775 L1525,1800 z" fill="#005757"/>
        <path d="M1475,1800 L1375,1800 L1425,1750 L1425,1700 L1475,1650 L1475,1675 L1450,1700 L1450,1750 L1475,1775 L1475,1800 z" fill="#005757"/>
      </g>
    </g>
    <g>
      <g>
        <path d="M1825,1525 L1850,1525 L1875,1550 L1950,1550 L1975,1525 L2000,1525 L2000,1575 L2050,1625 L2000,1625 L1950,1575 L1875,1575 L1875,1625 L1825,1625 L1825,1525 z" fill="#007C7C"/>
        <path d="M1825,1475 L1850,1475 L1875,1450 L1950,1450 L1975,1475 L2000,1475 L2000,1425 L2050,1375 L2000,1375 L1950,1425 L1875,1425 L1875,1375 L1825,1375 L1825,1475 z" fill="#007C7C"/>
      </g>
      <g>
        <path d="M2150,1650 L2150,1700 L2200,1700 L2250,1750 L2300,1750 L2350,1700 L2350,1675 L2325,1650 L2300,1650 L2300,1700 L2250,1700 L2200,1650 L2150,1650 z" fill="#00CECE"/>
        <path d="M2150,1350 L2150,1300 L2200,1300 L2250,1250 L2300,1250 L2350,1300 L2350,1325 L2325,1350 L2300,1350 L2300,1300 L2250,1300 L2200,1350 L2150,1350 z" fill="#00CECE"/>
      </g>
      <g>
        <path d="M1900,1650 L1900,1600 L1950,1600 L2000,1650 L2075,1650 L2125,1700 L2000,1700 L1950,1650 L1900,1650 z" fill="#00ADAD"/>
        <path d="M1900,1350 L1900,1400 L1950,1400 L2000,1350 L2075,1350 L2125,1300 L2000,1300 L1950,1350 L1900,1350 z" fill="#00ADAD"/>
      </g>
      <g>
        <path d="M1800,1475 L1800,1375 L1750,1425 L1700,1425 L1650,1475 L1675,1475 L1700,1450 L1750,1450 L1775,1475 L1800,1475 z" fill="#005757"/>
        <path d="M1800,1525 L1800,1625 L1750,1575 L1700,1575 L1650,1525 L1675,1525 L1700,1550 L1750,1550 L1775,1525 L1800,1525 z" fill="#005757"/>
      </g>
    </g>
  </g>
  <g id="green">
    <g>
      <path d="M1250,1275 L1275,1250 L1175,1150 L1200,1125 L1125,1125 L1125,1200 L1150,1175 L1250,1275 z" fill="#00AC00"/>
      <path d="M1050,1100 L1100,1050 L1100,975 L1050,975 L1050,1025 L1025,1050 L975,1050 L975,1100 L1050,1100 z" fill="#00C700"/>
      <g>
        <path d="M1025,1000 L1025,900 L975,900 L925,850 L875,850 L1025,1000 z" fill="#00E500"/>
        <path d="M1000,1025 L900,1025 L900,975 L850,925 L850,875 L1000,1025 z" fill="#00E500"/>
      </g>
      <path d="M1425,1325 L1475,1375 L1475,1400 L1450,1425 L1450,1425 L1450,1450 L1425,1450 L1400,1475 L1375,1475 L1325,1425 L1375,1425 L1425,1375 L1425,1325 z" fill="#006800"/>
      <path d="M1275,1300 L1300,1275 L1325,1300 L1350,1300 L1350,1350 L1300,1350 L1300,1325 L1275,1300 z" fill="#008500"/>
    </g>
    <g>
      <path d="M1275,1750 L1250,1725 L1150,1825 L1125,1800 L1125,1875 L1200,1875 L1175,1850 L1275,1750 z" fill="#00AC00"/>
      <path d="M1100,1950 L1050,1900 L975,1900 L975,1950 L1025,1950 L1050,1975 L1050,2025 L1100,2025 L1100,1950 z" fill="#00C700"/>
      <g>
        <path d="M1000,1975 L900,1975 L900,2025 L850,2075 L850,2125 L1000,1975 z" fill="#00E500"/>
        <path d="M1025,2000 L1025,2100 L975,2100 L925,2150 L875,2150 L1025,2000 z" fill="#00E500"/>
      </g>
      <path d="M1325,1575 L1375,1525 L1400,1525 L1425,1550 L1425,1550 L1450,1550 L1450,1575 L1475,1600 L1475,1625 L1425,1675 L1425,1625 L1375,1575 L1325,1575 z" fill="#006800"/>
      <path d="M1300,1725 L1275,1700 L1300,1675 L1300,1650 L1350,1650 L1350,1700 L1325,1700 L1300,1725 z" fill="#008500"/>
    </g>
    <g>
      <path d="M1750,1725 L1725,1750 L1825,1850 L1800,1875 L1875,1875 L1875,1800 L1850,1825 L1750,1725 z" fill="#00AC00"/>
      <path d="M1950,1900 L1900,1950 L1900,2025 L1950,2025 L1950,1975 L1975,1950 L2025,1950 L2025,1900 L1950,1900 z" fill="#00C700"/>
      <g>
        <path d="M1975,2000 L1975,2100 L2025,2100 L2075,2150 L2125,2150 L1975,2000 z" fill="#00E500"/>
        <path d="M2000,1975 L2100,1975 L2100,2025 L2150,2075 L2150,2125 L2000,1975 z" fill="#00E500"/>
      </g>
      <path d="M1575,1675 L1525,1625 L1525,1600 L1550,1575 L1550,1575 L1550,1550 L1575,1550 L1600,1525 L1625,1525 L1675,1575 L1625,1575 L1575,1625 L1575,1675 z" fill="#006800"/>
      <path d="M1725,1700 L1700,1725 L1675,1700 L1650,1700 L1650,1650 L1700,1650 L1700,1675 L1725,1700 z" fill="#008500"/>
    </g>
    <g>
      <path d="M1725,1250 L1750,1275 L1850,1175 L1875,1200 L1875,1125 L1800,1125 L1825,1150 L1725,1250 z" fill="#00AC00"/>
      <path d="M1900,1050 L1950,1100 L2025,1100 L2025,1050 L1975,1050 L1950,1025 L1950,975 L1900,975 L1900,1050 z" fill="#00C700"/>
      <g>
        <path d="M2000,1025 L2100,1025 L2100,975 L2150,925 L2150,875 L2000,1025 z" fill="#00E500"/>
        <path d="M1975,1000 L1975,900 L2025,900 L2075,850 L2125,850 L1975,1000 z" fill="#00E500"/>
      </g>
      <path d="M1675,1425 L1625,1475 L1600,1475 L1575,1450 L1575,1450 L1550,1450 L1550,1425 L1525,1400 L1525,1375 L1575,1325 L1575,1375 L1625,1425 L1675,1425 z" fill="#006800"/>
      <path d="M1700,1275 L1725,1300 L1700,1325 L1700,1350 L1650,1350 L1650,1300 L1675,1300 L1700,1275 z" fill="#008500"/>
    </g>
  </g>
  <g id="red">
    <g>
      <g>
        <path d="M1350,1225 L1325,1250 L1325,1275 L1350,1275 L1375,1300 L1375,1350 L1400,1375 L1400,1275 L1350,1225 z" fill="#690000"/>
        <path d="M1225,1350 L1250,1325 L1275,1325 L1275,1350 L1300,1375 L1350,1375 L1375,1400 L1275,1400 L1225,1350 z" fill="#690000"/>
      </g>
      <g>
        <path d="M1250,1300 L1200,1350 L1150,1350 L1150,1300 L1100,1250 L1150,1200 L1250,1300 z" fill="#7C0000"/>
        <path d="M1300,1250 L1350,1200 L1350,1150 L1300,1150 L1250,1100 L1200,1150 L1300,1250 z" fill="#7C0000"/>
      </g>
      <g>
        <path d="M1100,1125 L1100,1200 L1050,1250 L1125,1325 L1075,1325 L1000,1250 L1050,1200 L1050,1125 L1100,1125 z" fill="#890000"/>
        <path d="M1125,1100 L1200,1100 L1250,1050 L1325,1125 L1325,1075 L1250,1000 L1200,1050 L1125,1050 L1125,1100 z" fill="#890000"/>
      </g>
      <g>
        <path d="M1200,1025 L1250,975 L1275,975 L1275,875 L1225,875 L1225,925 L1125,1025 L1200,1025 z" fill="#A50000"/>
        <path d="M1025,1200 L975,1250 L975,1275 L875,1275 L875,1225 L925,1225 L1025,1125 L1025,1200 z" fill="#A50000"/>
      </g>
      <g>
        <path d="M1125,950 L1175,900 L1200,900 L1200,875 L1175,850 L1150,850 L1150,875 L1075,950 L1125,950 z" fill="#BA0000"/>
        <path d="M950,1125 L900,1175 L900,1200 L875,1200 L850,1175 L850,1150 L875,1150 L950,1075 L950,1125 z" fill="#BA0000"/>
      </g>
      <g>
        <path d="M1050,925 L1100,875 L1125,875 L1125,825 L1075,825 L1075,850 L1050,875 L1050,925 z" fill="#CC0000"/>
        <path d="M925,1050 L875,1100 L875,1125 L825,1125 L825,1075 L850,1075 L875,1050 L925,1050 z" fill="#CC0000"/>
      </g>
      <g>
        <path d="M875,1000 L800,1075 L800,1100 L775,1100 L750,1075 L750,1050 L775,1050 L825,1000 L875,1000 z" fill="#E60000"/>
        <path d="M1000,875 L1075,800 L1100,800 L1100,775 L1075,750 L1050,750 L1050,775 L1000,825 L1000,875 z" fill="#E60000"/>
      </g>
    </g>
    <g>
      <g>
        <path d="M1225,1650 L1250,1675 L1275,1675 L1275,1650 L1300,1625 L1350,1625 L1375,1600 L1275,1600 L1225,1650 z" fill="#690000"/>
        <path d="M1350,1775 L1325,1750 L1325,1725 L1350,1725 L1375,1700 L1375,1650 L1400,1625 L1400,1725 L1350,1775 z" fill="#690000"/>
      </g>
      <g>
        <path d="M1300,1750 L1350,1800 L1350,1850 L1300,1850 L1250,1900 L1200,1850 L1300,1750 z" fill="#7C0000"/>
        <path d="M1250,1700 L1200,1650 L1150,1650 L1150,1700 L1100,1750 L1150,1800 L1250,1700 z" fill="#7C0000"/>
      </g>
      <g>
        <path d="M1125,1900 L1200,1900 L1250,1950 L1325,1875 L1325,1925 L1250,2000 L1200,1950 L1125,1950 L1125,1900 z" fill="#890000"/>
        <path d="M1100,1875 L1100,1800 L1050,1750 L1125,1675 L1075,1675 L1000,1750 L1050,1800 L1050,1875 L1100,1875 z" fill="#890000"/>
      </g>
      <g>
        <path d="M1025,1800 L975,1750 L975,1725 L875,1725 L875,1775 L925,1775 L1025,1875 L1025,1800 z" fill="#A50000"/>
        <path d="M1200,1975 L1250,2025 L1275,2025 L1275,2125 L1225,2125 L1225,2075 L1125,1975 L1200,1975 z" fill="#A50000"/>
      </g>
      <g>
        <path d="M950,1875 L900,1825 L900,1800 L875,1800 L850,1825 L850,1850 L875,1850 L950,1925 L950,1875 z" fill="#BA0000"/>
        <path d="M1125,2050 L1175,2100 L1200,2100 L1200,2125 L1175,2150 L1150,2150 L1150,2125 L1075,2050 L1125,2050 z" fill="#BA0000"/>
      </g>
      <g>
        <path d="M925,1950 L875,1900 L875,1875 L825,1875 L825,1925 L850,1925 L875,1950 L925,1950 z" fill="#CC0000"/>
        <path d="M1050,2075 L1100,2125 L1125,2125 L1125,2175 L1075,2175 L1075,2150 L1050,2125 L1050,2075 z" fill="#CC0000"/>
      </g>
      <g>
        <path d="M1000,2125 L1075,2200 L1100,2200 L1100,2225 L1075,2250 L1050,2250 L1050,2225 L1000,2175 L1000,2125 z" fill="#E60000"/>
        <path d="M875,2000 L800,1925 L800,1900 L775,1900 L750,1925 L750,1950 L775,1950 L825,2000 L875,2000 z" fill="#E60000"/>
      </g>
    </g>
    <g>
      <g>
        <path d="M1650,1775 L1675,1750 L1675,1725 L1650,1725 L1625,1700 L1625,1650 L1600,1625 L1600,1725 L1650,1775 z" fill="#690000"/>
        <path d="M1775,1650 L1750,1675 L1725,1675 L1725,1650 L1700,1625 L1650,1625 L1625,1600 L1725,1600 L1775,1650 z" fill="#690000"/>
      </g>
      <g>
        <path d="M1750,1700 L1800,1650 L1850,1650 L1850,1700 L1900,1750 L1850,1800 L1750,1700 z" fill="#7C0000"/>
        <path d="M1700,1750 L1650,1800 L1650,1850 L1700,1850 L1750,1900 L1800,1850 L1700,1750 z" fill="#7C0000"/>
      </g>
      <g>
        <path d="M1900,1875 L1900,1800 L1950,1750 L1875,1675 L1925,1675 L2000,1750 L1950,1800 L1950,1875 L1900,1875 z" fill="#890000"/>
        <path d="M1875,1900 L1800,1900 L1750,1950 L1675,1875 L1675,1925 L1750,2000 L1800,1950 L1875,1950 L1875,1900 z" fill="#890000"/>
      </g>
      <g>
        <path d="M1800,1975 L1750,2025 L1725,2025 L1725,2125 L1775,2125 L1775,2075 L1875,1975 L1800,1975 z" fill="#A50000"/>
        <path d="M1975,1800 L2025,1750 L2025,1725 L2125,1725 L2125,1775 L2075,1775 L1975,1875 L1975,1800 z" fill="#A50000"/>
      </g>
      <g>
        <path d="M1875,2050 L1825,2100 L1800,2100 L1800,2125 L1825,2150 L1850,2150 L1850,2125 L1925,2050 L1875,2050 z" fill="#BA0000"/>
        <path d="M2050,1875 L2100,1825 L2100,1800 L2125,1800 L2150,1825 L2150,1850 L2125,1850 L2050,1925 L2050,1875 z" fill="#BA0000"/>
      </g>
      <g>
        <path d="M1950,2075 L1900,2125 L1875,2125 L1875,2175 L1925,2175 L1925,2150 L1950,2125 L1950,2075 z" fill="#CC0000"/>
        <path d="M2075,1950 L2125,1900 L2125,1875 L2175,1875 L2175,1925 L2150,1925 L2125,1950 L2075,1950 z" fill="#CC0000"/>
      </g>
      <g>
        <path d="M2125,2000 L2200,1925 L2200,1900 L2225,1900 L2250,1925 L2250,1950 L2225,1950 L2175,2000 L2125,2000 z" fill="#E60000"/>
        <path d="M2000,2125 L1925,2200 L1900,2200 L1900,2225 L1925,2250 L1950,2250 L1950,2225 L2000,2175 L2000,2125 z" fill="#E60000"/>
      </g>
    </g>
    <g>
      <g>
        <path d="M1775,1350 L1750,1325 L1725,1325 L1725,1350 L1700,1375 L1650,1375 L1625,1400 L1725,1400 L1775,1350 z" fill="#690000"/>
        <path d="M1650,1225 L1675,1250 L1675,1275 L1650,1275 L1625,1300 L1625,1350 L1600,1375 L1600,1275 L1650,1225 z" fill="#690000"/>
      </g>
      <g>
        <path d="M1700,1250 L1650,1200 L1650,1150 L1700,1150 L1750,1100 L1800,1150 L1700,1250 z" fill="#7C0000"/>
        <path d="M1750,1300 L1800,1350 L1850,1350 L1850,1300 L1900,1250 L1850,1200 L1750,1300 z" fill="#7C0000"/>
      </g>
      <g>
        <path d="M1875,1100 L1800,1100 L1750,1050 L1675,1125 L1675,1075 L1750,1000 L1800,1050 L1875,1050 L1875,1100 z" fill="#890000"/>
        <path d="M1900,1125 L1900,1200 L1950,1250 L1875,1325 L1925,1325 L2000,1250 L1950,1200 L1950,1125 L1900,1125 z" fill="#890000"/>
      </g>
      <g>
        <path d="M1975,1200 L2025,1250 L2025,1275 L2125,1275 L2125,1225 L2075,1225 L1975,1125 L1975,1200 z" fill="#A50000"/>
        <path d="M1800,1025 L1750,975 L1725,975 L1725,875 L1775,875 L1775,925 L1875,1025 L1800,1025 z" fill="#A50000"/>
      </g>
      <g>
        <path d="M2050,1125 L2100,1175 L2100,1200 L2125,1200 L2150,1175 L2150,1150 L2125,1150 L2050,1075 L2050,1125 z" fill="#BA0000"/>
        <path d="M1875,950 L1825,900 L1800,900 L1800,875 L1825,850 L1850,850 L1850,875 L1925,950 L1875,950 z" fill="#BA0000"/>
      </g>
      <g>
        <path d="M2075,1050 L2125,1100 L2125,1125 L2175,1125 L2175,1075 L2150,1075 L2125,1050 L2075,1050 z" fill="#CC0000"/>
        <path d="M1950,925 L1900,875 L1875,875 L1875,825 L1925,825 L1925,850 L1950,875 L1950,925 z" fill="#CC0000"/>
      </g>
      <g>
        <path d="M2000,875 L1925,800 L1900,800 L1900,775 L1925,750 L1950,750 L1950,775 L2000,825 L2000,875 z" fill="#E60000"/>
        <path d="M2125,1000 L2200,1075 L2200,1100 L2225,1100 L2250,1075 L2250,1050 L2225,1050 L2175,1000 L2125,1000 z" fill="#E60000"/>
      </g>
    </g>
  </g>
</svg>
