<?xml version="1.0" encoding="UTF-8"?>
<!DOCTYPE svg PUBLIC "-//W3C//DTD SVG 1.1//EN" "http://www.w3.org/Graphics/SVG/1.1/DTD/svg11.dtd">
<svg version="1.1" xmlns="http://www.w3.org/2000/svg" xmlns:xlink="http://www.w3.org/1999/xlink" x="0" y="0" width="800" height="800" viewBox="0, 0, 800, 800">
  <g id="-background" display="none">
    <path d="M0,-0 L800,-0 L800,800 L0,800 z" fill="#000000"/>
  </g>
  <g id="Layer_6">
    <g>
      <path d="M0,-0 L400,-0 L400,400 L0,400 z" fill="#3C5413"/>
      <path d="M400,-0 L650,-0 L650,250 L400,250 z" fill="#618423"/>
      <path d="M650,-0 L800,-0 L800,150 L650,150 z" fill="#8ABC36"/>
      <path d="M0,400 L200,400 L200,600 L0,600 z" fill="#618423"/>
      <path d="M0,600 L150,600 L150,750 L0,750 z" fill="#8ABC36"/>
    </g>
    <g>
      <path d="M0,750 L50,750 L50,800 L0,800 z" fill="#092B2B"/>
      <path d="M400,250 L500,250 L500,350 L400,350 z" fill="#49CECF"/>
      <path d="M400,350 L450,350 L450,400 L400,400 z" fill="#45C3C5"/>
      <path d="M200,400 L350,400 L350,550 L200,550 z" fill="#339596"/>
      <path d="M350,400 L450,400 L450,500 L350,500 z" fill="#40B6B8"/>
      <path d="M200,550 L250,550 L250,600 L200,600 z" fill="#2D8889"/>
      <path d="M150,600 L250,600 L250,700 L150,700 z" fill="#297D7E"/>
      <path d="M50,750 L100,750 L100,800 L50,800 z" fill="#174F4F"/>
      <path d="M100,750 L150,750 L150,800 L100,800 z" fill="#206768"/>
      <path d="M150,700 L250,700 L250,800 L150,800 z" fill="#277778"/>
      <path d="M350,500 L400,500 L400,550 L350,550 z" fill="#38A3A4"/>
      <path d="M400,500 L450,500 L450,550 L400,550 z" fill="#3CADAF"/>
      <path d="M600,300 L650,300 L650,350 L600,350 z" fill="#59F6F8"/>
      <path d="M600,250 L650,250 L650,300 L600,300 z" fill="#54EBED"/>
      <path d="M500,250 L600,250 L600,350 L500,350 z" fill="#4FDCDE"/>
    </g>
    <g>
      <path d="M700,150 L800,150 L800,250 L700,250 z" fill="#136497"/>
      <path d="M720,250 L800,250 L800,330 L720,330 z" fill="#1873AC"/>
      <path d="M720,330 L760,330 L760,370 L720,370 z" fill="#27A8F9"/>
      <path d="M650,150 L700,150 L700,200 L650,200 z" fill="#105886"/>
      <path d="M650,200 L700,200 L700,250 L650,250 z" fill="#0B486F"/>
      <path d="M650,250 L720,250 L720,320 L650,320 z" fill="#073A5A"/>
      <path d="M650,320 L720,320 L720,390 L650,390 z" fill="#042A43"/>
      <path d="M760,330 L800,330 L800,370 L760,370 z" fill="#1D83C4"/>
      <path d="M720,370 L740,370 L740,390 L720,390 z" fill="#26A2F1"/>
      <path d="M740,370 L760,370 L760,390 L740,390 z" fill="#249CE9"/>
      <path d="M760,370 L780,370 L780,390 L760,390 z" fill="#2192DA"/>
      <path d="M780,370 L800,370 L800,390 L780,390 z" fill="#1F8BD0"/>
    </g>
    <g>
      <path d="M450,350 L650,350 L650,550 L450,550 z" fill="#43135E"/>
      <path d="M650,390 L760,390 L760,500 L650,500 z" fill="#521872"/>
      <path d="M760,390 L800,390 L800,430 L760,430 z" fill="#611E86"/>
      <path d="M760,430 L800,430 L800,470 L760,470 z" fill="#7627A3"/>
      <path d="M760,470 L790,470 L790,500 L760,500 z" fill="#A73BE4"/>
      <path d="M790,470 L800,470 L800,480 L790,480 z" fill="#7627A3"/>
      <path d="M790,480 L800,480 L800,490 L790,490 z" fill="#892EBC"/>
      <path d="M790,490 L800,490 L800,500 L790,500 z" fill="#9734CF"/>
    </g>
    <g>
      <path d="M250,550 L500,550 L500,800 L250,800 z" fill="#004309"/>
      <path d="M500,550 L650,550 L650,700 L500,700 z" fill="#006B14"/>
      <path d="M500,700 L600,700 L600,800 L500,800 z" fill="#007E1A"/>
      <path d="M600,700 L640,700 L640,740 L600,740 z" fill="#00D031"/>
      <path d="M600,740 L640,740 L640,780 L600,780 z" fill="#00B629"/>
      <path d="M600,780 L620,780 L620,800 L600,800 z" fill="#007E1A"/>
      <path d="M620,780 L640,780 L640,800 L620,800 z" fill="#00911F"/>
    </g>
    <g>
      <path d="M650,500 L720,500 L720,570 L650,570 z" fill="#932D6E"/>
      <path d="M640,760 L680,760 L680,800 L640,800 z" fill="#591841"/>
      <path d="M650,570 L720,570 L720,640 L650,640 z" fill="#9D3176"/>
      <path d="M720,500 L800,500 L800,580 L720,580 z" fill="#8C2B68"/>
      <path d="M720,580 L800,580 L800,660 L720,660 z" fill="#812760"/>
      <path d="M650,640 L690,640 L690,680 L650,680 z" fill="#AC3781"/>
      <path d="M740,660 L800,660 L800,720 L740,720 z" fill="#742256"/>
      <path d="M720,660 L740,660 L740,680 L720,680 z" fill="#E24BAA"/>
      <path d="M700,680 L740,680 L740,720 L700,720 z" fill="#D646A2"/>
      <path d="M720,720 L800,720 L800,800 L720,800 z" fill="#6A1E4F"/>
      <path d="M650,680 L700,680 L700,730 L650,730 z" fill="#B33987"/>
      <path d="M700,720 L720,720 L720,740 L700,740 z" fill="#D1449D"/>
      <path d="M680,760 L720,760 L720,800 L680,800 z" fill="#601B47"/>
      <path d="M700,740 L720,740 L720,760 L700,760 z" fill="#C44094"/>
      <path d="M670,730 L700,730 L700,760 L670,760 z" fill="#B93B8B"/>
      <path d="M640,730 L670,730 L670,760 L640,760 z" fill="#50153A"/>
      <path d="M640,720 L650,720 L650,730 L640,730 z" fill="#420F2F"/>
      <path d="M640,710 L650,710 L650,720 L640,720 z" fill="#350B25"/>
      <path d="M640,700 L650,700 L650,710 L640,710 z" fill="#250719"/>
      <path d="M700,660 L720,660 L720,680 L700,680 z" fill="#E74DAF"/>
      <path d="M690,670 L700,670 L700,680 L690,680 z" fill="#EF4FB4"/>
      <path d="M690,660 L700,660 L700,670 L690,670 z" fill="#F451B9"/>
      <path d="M690,640 L710,640 L710,660 L690,660 z" fill="#FA53BD"/>
      <path d="M710,640 L720,640 L720,650 L710,650 z" fill="#FC54BF"/>
      <path d="M710,650 L720,650 L720,660 L710,660 z" fill="#FF55C1"/>
    </g>
  </g>
</svg>
