<?xml version="1.0" encoding="UTF-8"?>
<!DOCTYPE svg PUBLIC "-//W3C//DTD SVG 1.1//EN" "http://www.w3.org/Graphics/SVG/1.1/DTD/svg11.dtd">
<svg version="1.1" xmlns="http://www.w3.org/2000/svg" xmlns:xlink="http://www.w3.org/1999/xlink" x="0" y="0" width="800" height="800" viewBox="0, 0, 800, 800">
  <g id="-background" display="none">
    <path d="M0,-0 L800,-0 L800,800 L0,800 z" fill="#000000"/>
  </g>
  <g id="Layer_2">
    <g>
      <path d="M300,300 L500,300 L500,500 L300,500 z" fill="#3F5B4B"/>
      <path d="M500,300 L650,300 L650,450 L500,450 z" fill="#4D6E5C"/>
      <path d="M650,300 L750,300 L750,400 L650,400 z" fill="#5F8771"/>
      <path d="M750,300 L800,300 L800,350 L750,350 z" fill="#6C9880"/>
      <path d="M750,350 L800,350 L800,400 L750,400 z" fill="#80B397"/>
      <path d="M700,400 L800,400 L800,500 L700,500 z" fill="#8DC5A6"/>
      <path d="M650,400 L700,400 L700,450 L650,450 z" fill="#ACF0CA"/>
      <path d="M650,450 L700,450 L700,500 L650,500 z" fill="#9BD9B6"/>
      <path d="M300,300 L150,300 L150,450 L300,450 z" fill="#4D6E5C"/>
      <path d="M150,300 L50,300 L50,400 L150,400 z" fill="#5F8771"/>
      <path d="M50,300 L0,300 L0,350 L50,350 z" fill="#6C9880"/>
      <path d="M50,350 L0,350 L0,400 L50,400 z" fill="#80B397"/>
      <path d="M100,400 L0,400 L0,500 L100,500 z" fill="#8DC5A6"/>
      <path d="M150,400 L100,400 L100,450 L150,450 z" fill="#ACF0CA"/>
      <path d="M150,450 L100,450 L100,500 L150,500 z" fill="#9BD9B6"/>
    </g>
    <g>
      <path d="M250,0 L550,0 L550,300 L250,300 z" fill="#1D2949"/>
      <path d="M100,0 L250,0 L250,150 L100,150 z" fill="#26345A"/>
      <path d="M0,0 L100,0 L100,100 L0,100 z" fill="#314271"/>
      <path d="M0,100 L100,100 L100,200 L0,200 z" fill="#3B4E84"/>
      <path d="M-0,200 L50,200 L50,250 L-0,250 z" fill="#425793"/>
      <path d="M0,250 L50,250 L50,300 L0,300 z" fill="#4D65A9"/>
      <path d="M50,200 L150,200 L150,300 L50,300 z" fill="#556EB7"/>
      <path d="M150,250 L200,250 L200,300 L150,300 z" fill="#5C77C5"/>
      <path d="M200,250 L250,250 L250,300 L200,300 z" fill="#6482D6"/>
      <path d="M150,150 L250,150 L250,250 L150,250 z" fill="#6C8BE6"/>
      <path d="M100,150 L150,150 L150,200 L100,200 z" fill="#7293F3"/>
      <path d="M700,0 L550,0 L550,150 L700,150 z" fill="#26345A"/>
      <path d="M800,0 L700,0 L700,100 L800,100 z" fill="#314271"/>
      <path d="M800,100 L700,100 L700,200 L800,200 z" fill="#3B4E84"/>
      <path d="M800,200 L750,200 L750,250 L800,250 z" fill="#425793"/>
      <path d="M800,250 L750,250 L750,300 L800,300 z" fill="#4D65A9"/>
      <path d="M750,200 L650,200 L650,300 L750,300 z" fill="#556EB7"/>
      <path d="M650,250 L600,250 L600,300 L650,300 z" fill="#5C77C5"/>
      <path d="M600,250 L550,250 L550,300 L600,300 z" fill="#6482D6"/>
      <path d="M650,150 L550,150 L550,250 L650,250 z" fill="#6C8BE6"/>
      <path d="M700,150 L650,150 L650,200 L700,200 z" fill="#7293F3"/>
    </g>
    <g>
      <path d="M350,500 L450,500 L450,600 L350,600 z" fill="#4E4662"/>
      <path d="M450,500 L500,500 L500,550 L450,550 z" fill="#605678"/>
      <path d="M500,450 L600,450 L600,550 L500,550 z" fill="#756991"/>
      <path d="M600,450 L650,450 L650,500 L600,500 z" fill="#756991"/>
      <path d="M650,500 L800,500 L800,650 L650,650 z" fill="#A090C5"/>
      <path d="M550,550 L650,550 L650,650 L550,650 z" fill="#B2A1DC"/>
      <path d="M600,500 L650,500 L650,550 L600,550 z" fill="#9182B3"/>
      <path d="M500,600 L550,600 L550,650 L500,650 z" fill="#BEABE9"/>
      <path d="M500,550 L550,550 L550,600 L500,600 z" fill="#CAB6F8"/>
      <path d="M350,500 L300,500 L300,550 L350,550 z" fill="#605678"/>
      <path d="M300,450 L200,450 L200,550 L300,550 z" fill="#756991"/>
      <path d="M200,450 L150,450 L150,500 L200,500 z" fill="#756991"/>
      <path d="M150,500 L0,500 L0,650 L150,650 z" fill="#A090C5"/>
      <path d="M250,550 L150,550 L150,650 L250,650 z" fill="#B2A1DC"/>
      <path d="M200,500 L150,500 L150,550 L200,550 z" fill="#9182B3"/>
      <path d="M300,600 L250,600 L250,650 L300,650 z" fill="#BEABE9"/>
      <path d="M300,550 L250,550 L250,600 L300,600 z" fill="#CAB6F8"/>
      <path d="M350,550 L300,550 L300,600 L350,600 z" fill="#D0BBFF"/>
      <path d="M500,550 L450,550 L450,600 L500,600 z" fill="#D0BBFF"/>
    </g>
    <g>
      <path d="M300,600 L500,600 L500,800 L300,800 z" fill="#5A3917"/>
      <path d="M500,650 L650,650 L650,800 L500,800 z" fill="#784D22"/>
      <path d="M650,650 L750,650 L750,750 L650,750 z" fill="#95602D"/>
      <path d="M750,650 L800,650 L800,700 L750,700 z" fill="#A96E34"/>
      <path d="M750,700 L800,700 L800,750 L750,750 z" fill="#C4803D"/>
      <path d="M750,750 L800,750 L800,800 L750,800 z" fill="#DB9046"/>
      <path d="M700,750 L750,750 L750,800 L700,800 z" fill="#E69749"/>
      <path d="M650,750 L700,750 L700,800 L650,800 z" fill="#F19E4D"/>
      <path d="M300,650 L150,650 L150,800 L300,800 z" fill="#784D22"/>
      <path d="M150,650 L50,650 L50,750 L150,750 z" fill="#95602D"/>
      <path d="M50,650 L0,650 L0,700 L50,700 z" fill="#A96E34"/>
      <path d="M50,700 L0,700 L0,750 L50,750 z" fill="#C4803D"/>
      <path d="M50,750 L0,750 L0,800 L50,800 z" fill="#DB9046"/>
      <path d="M100,750 L50,750 L50,800 L100,800 z" fill="#E69749"/>
      <path d="M150,750 L100,750 L100,800 L150,800 z" fill="#F19E4D"/>
    </g>
  </g>
</svg>
