<?xml version="1.0" encoding="UTF-8"?>
<!DOCTYPE svg PUBLIC "-//W3C//DTD SVG 1.1//EN" "http://www.w3.org/Graphics/SVG/1.1/DTD/svg11.dtd">
<svg version="1.1" xmlns="http://www.w3.org/2000/svg" xmlns:xlink="http://www.w3.org/1999/xlink" x="0" y="0" width="800" height="800" viewBox="0, 0, 800, 800">
  <g id="-background">
    <path d="M-0,-0 L800,-0 L800,800 L-0,800 z" fill="#000000"/>
  </g>
  <g id="Layer_2">
    <g>
      <path d="M370,30 L430,30 L430,90 L370,90 z" fill="#00A0B9"/>
      <path d="M400,-0 L410,-0 L410,10 L400,10 z" fill="#00CCEA"/>
      <path d="M440,220 L470,220 L470,250 L440,250 z" fill="#005E6E"/>
      <path d="M470,230 L490,230 L490,250 L470,250 z" fill="#00505D"/>
      <path d="M430,180 L470,180 L470,220 L430,220 z" fill="#006D7E"/>
      <path d="M490,240 L500,240 L500,250 L490,250 z" fill="#00404B"/>
      <path d="M430,150 L460,150 L460,180 L430,180 z" fill="#007587"/>
      <path d="M420,120 L450,120 L450,150 L420,150 z" fill="#008296"/>
      <path d="M410,90 L440,90 L440,120 L410,120 z" fill="#0094AB"/>
      <path d="M400,10 L420,10 L420,30 L400,30 z" fill="#00BBD7"/>
      <path d="M400,0 L390,0 L390,10 L400,10 z" fill="#00CCEA"/>
      <path d="M360,220 L330,220 L330,250 L360,250 z" fill="#005E6E"/>
      <path d="M330,230 L310,230 L310,250 L330,250 z" fill="#00505D"/>
      <path d="M370,180 L330,180 L330,220 L370,220 z" fill="#006D7E"/>
      <path d="M310,240 L300,240 L300,250 L310,250 z" fill="#00404B"/>
      <path d="M370,150 L340,150 L340,180 L370,180 z" fill="#007587"/>
      <path d="M380,120 L350,120 L350,150 L380,150 z" fill="#008296"/>
      <path d="M390,90 L360,90 L360,120 L390,120 z" fill="#0094AB"/>
      <path d="M400,10 L380,10 L380,30 L400,30 z" fill="#00BBD7"/>
    </g>
    <g>
      <path d="M700,400 L800,400 L800,500 L700,500 z" fill="#00293E"/>
      <path d="M720,500 L800,500 L800,580 L720,580 z" fill="#00344E"/>
      <path d="M730,580 L800,580 L800,650 L730,650 z" fill="#003F5D"/>
      <path d="M740,650 L800,650 L800,710 L740,710 z" fill="#004E73"/>
      <path d="M750,710 L800,710 L800,760 L750,760 z" fill="#005E89"/>
      <path d="M760,760 L800,760 L800,800 L760,800 z" fill="#0074A8"/>
      <path d="M730,770 L760,770 L760,800 L730,800 z" fill="#0082BC"/>
      <path d="M710,780 L730,780 L730,800 L710,800 z" fill="#008ECC"/>
      <path d="M680,770 L710,770 L710,800 L680,800 z" fill="#0097DA"/>
      <path d="M660,780 L680,780 L680,800 L660,800 z" fill="#00A5EC"/>
      <path d="M650,790 L660,790 L660,800 L650,800 z" fill="#00ACF7"/>
    </g>
    <g>
      <path d="M500,400 L700,400 L700,600 L500,600 z" fill="#172A05"/>
      <path d="M500,600 L600,600 L600,700 L500,700 z" fill="#1F3708"/>
      <path d="M500,700 L560,700 L560,760 L500,760 z" fill="#26410B"/>
      <path d="M500,760 L540,760 L540,800 L500,800 z" fill="#315310"/>
      <path d="M540,760 L580,760 L580,800 L540,800 z" fill="#3A6115"/>
      <path d="M580,780 L600,780 L600,800 L580,800 z" fill="#47751B"/>
      <path d="M700,580 L730,580 L730,610 L700,610 z" fill="#88D83A"/>
      <path d="M680,610 L730,610 L730,660 L680,660 z" fill="#84D238"/>
      <path d="M710,660 L740,660 L740,690 L710,690 z" fill="#7DC835"/>
      <path d="M700,560 L720,560 L720,580 L700,580 z" fill="#8EE13D"/>
      <path d="M700,550 L710,550 L710,560 L700,560 z" fill="#93E83F"/>
      <path d="M700,500 L720,500 L720,520 L700,520 z" fill="#9EFA45"/>
      <path d="M710,520 L720,520 L720,530 L710,530 z" fill="#9AF443"/>
      <path d="M690,710 L750,710 L750,770 L690,770 z" fill="#69A92B"/>
      <path d="M650,730 L690,730 L690,770 L650,770 z" fill="#5E9726"/>
      <path d="M600,750 L650,750 L650,800 L600,800 z" fill="#538721"/>
      <path d="M710,690 L730,690 L730,710 L710,710 z" fill="#76BD32"/>
      <path d="M730,700 L740,700 L740,710 L730,710 z" fill="#70B32F"/>
      <path d="M700,530 L720,530 L720,550 L700,550 z" fill="#95ED40"/>
    </g>
    <g>
      <path d="M690,660 L710,660 L710,680 L690,680 z" fill="#825FEB"/>
      <path d="M680,660 L690,660 L690,670 L680,670 z" fill="#8B66F9"/>
      <path d="M680,680 L710,680 L710,710 L680,710 z" fill="#7455D3"/>
      <path d="M630,680 L680,680 L680,730 L630,730 z" fill="#6549B8"/>
      <path d="M590,710 L630,710 L630,750 L590,750 z" fill="#473284"/>
      <path d="M630,730 L650,730 L650,750 L630,750 z" fill="#553D9D"/>
      <path d="M580,750 L600,750 L600,770 L580,770 z" fill="#362567"/>
    </g>
    <g>
      <path d="M600,600 L680,600 L680,680 L600,680 z" fill="#0D5C40"/>
      <path d="M560,700 L590,700 L590,730 L560,730 z" fill="#21A777"/>
      <path d="M560,730 L580,730 L580,750 L560,750 z" fill="#2AC991"/>
      <path d="M560,750 L570,750 L570,760 L560,760 z" fill="#31E5A5"/>
      <path d="M600,680 L630,680 L630,710 L600,710 z" fill="#198861"/>
    </g>
    <g>
      <path d="M600,200 L800,200 L800,400 L600,400 z" fill="#803734"/>
      <path d="M700,100 L800,100 L800,200 L700,200 z" fill="#A04642"/>
      <path d="M450,250 L600,250 L600,400 L450,400 z" fill="#5F2725"/>
      <path d="M740,40 L800,40 L800,100 L740,100 z" fill="#C05551"/>
      <path d="M760,-0 L800,-0 L800,40 L760,40 z" fill="#E26661"/>
    </g>
    <g>
      <path d="M100,400 L-0,400 L-0,500 L100,500 z" fill="#00293E"/>
      <path d="M80,500 L0,500 L0,580 L80,580 z" fill="#00344E"/>
      <path d="M70,580 L0,580 L0,650 L70,650 z" fill="#003F5D"/>
      <path d="M60,650 L0,650 L0,710 L60,710 z" fill="#004E73"/>
      <path d="M50,710 L0,710 L0,760 L50,760 z" fill="#005E89"/>
      <path d="M40,760 L-0,760 L-0,800 L40,800 z" fill="#0074A8"/>
      <path d="M70,770 L40,770 L40,800 L70,800 z" fill="#0082BC"/>
      <path d="M90,780 L70,780 L70,800 L90,800 z" fill="#008ECC"/>
      <path d="M120,770 L90,770 L90,800 L120,800 z" fill="#0097DA"/>
      <path d="M140,780 L120,780 L120,800 L140,800 z" fill="#00A5EC"/>
      <path d="M150,790 L140,790 L140,800 L150,800 z" fill="#00ACF7"/>
    </g>
    <g>
      <path d="M110,660 L90,660 L90,680 L110,680 z" fill="#825FEB"/>
      <path d="M120,660 L110,660 L110,670 L120,670 z" fill="#8B66F9"/>
      <path d="M120,680 L90,680 L90,710 L120,710 z" fill="#7455D3"/>
      <path d="M170,680 L120,680 L120,730 L170,730 z" fill="#6549B8"/>
      <path d="M210,710 L170,710 L170,750 L210,750 z" fill="#473284"/>
      <path d="M170,730 L150,730 L150,750 L170,750 z" fill="#553D9D"/>
      <path d="M220,750 L200,750 L200,770 L220,770 z" fill="#362567"/>
    </g>
    <g>
      <path d="M300,400 L100,400 L100,600 L300,600 z" fill="#172A05"/>
      <path d="M300,600 L200,600 L200,700 L300,700 z" fill="#1F3708"/>
      <path d="M300,700 L240,700 L240,760 L300,760 z" fill="#26410B"/>
      <path d="M300,760 L260,760 L260,800 L300,800 z" fill="#315310"/>
      <path d="M260,760 L220,760 L220,800 L260,800 z" fill="#3A6115"/>
      <path d="M220,780 L200,780 L200,800 L220,800 z" fill="#47751B"/>
      <path d="M100,580 L70,580 L70,610 L100,610 z" fill="#88D83A"/>
      <path d="M120,610 L70,610 L70,660 L120,660 z" fill="#84D238"/>
      <path d="M90,660 L60,660 L60,690 L90,690 z" fill="#7DC835"/>
      <path d="M100,560 L80,560 L80,580 L100,580 z" fill="#8EE13D"/>
      <path d="M100,550 L90,550 L90,560 L100,560 z" fill="#93E83F"/>
      <path d="M100,500 L80,500 L80,520 L100,520 z" fill="#9EFA45"/>
      <path d="M90,520 L80,520 L80,530 L90,530 z" fill="#9AF443"/>
      <path d="M110,710 L50,710 L50,770 L110,770 z" fill="#69A92B"/>
      <path d="M150,730 L110,730 L110,770 L150,770 z" fill="#5E9726"/>
      <path d="M200,750 L150,750 L150,800 L200,800 z" fill="#538721"/>
      <path d="M90,690 L70,690 L70,710 L90,710 z" fill="#76BD32"/>
      <path d="M70,700 L60,700 L60,710 L70,710 z" fill="#70B32F"/>
      <path d="M100,530 L80,530 L80,550 L100,550 z" fill="#95ED40"/>
    </g>
    <g>
      <path d="M200,600 L120,600 L120,680 L200,680 z" fill="#0D5C40"/>
      <path d="M240,700 L210,700 L210,730 L240,730 z" fill="#21A777"/>
      <path d="M240,730 L220,730 L220,750 L240,750 z" fill="#2AC991"/>
      <path d="M240,750 L230,750 L230,760 L240,760 z" fill="#31E5A5"/>
      <path d="M200,680 L170,680 L170,710 L200,710 z" fill="#198861"/>
    </g>
    <g>
      <path d="M300,400 L500,400 L500,800 L300,800 z" fill="#684D00"/>
      <path d="M350,300 L450,300 L450,400 L350,400 z" fill="#906C00"/>
      <path d="M360,220 L440,220 L440,300 L360,300 z" fill="#AC8200"/>
      <path d="M370,160 L430,160 L430,220 L370,220 z" fill="#CA9A00"/>
      <path d="M380,120 L420,120 L420,160 L380,160 z" fill="#E1AC00"/>
      <path d="M390,100 L410,100 L410,120 L390,120 z" fill="#F9BE00"/>
    </g>
    <g>
      <path d="M650,150 L700,150 L700,200 L650,200 z" fill="#097564"/>
      <path d="M730,0 L760,0 L760,30 L730,30 z" fill="#097564"/>
      <path d="M700,70 L730,70 L730,100 L700,100 z" fill="#097564"/>
      <path d="M720,50 L740,50 L740,70 L720,70 z" fill="#097564"/>
      <path d="M470,190 L510,190 L510,230 L470,230 z" fill="#097564"/>
      <path d="M510,200 L560,200 L560,250 L510,250 z" fill="#097564"/>
      <path d="M560,210 L600,210 L600,250 L560,250 z" fill="#097564"/>
      <path d="M610,160 L650,160 L650,200 L610,200 z" fill="#097564"/>
      <path d="M660,110 L700,110 L700,150 L660,150 z" fill="#097564"/>
      <path d="M700,20 L730,20 L730,50 L700,50 z" fill="#097564"/>
      <path d="M420,0 L450,0 L450,30 L420,30 z" fill="#097564"/>
      <path d="M430,30 L450,30 L450,50 L430,50 z" fill="#097564"/>
      <path d="M430,50 L470,50 L470,90 L430,90 z" fill="#097564"/>
      <path d="M440,90 L460,90 L460,110 L440,110 z" fill="#097564"/>
      <path d="M440,110 L450,110 L450,120 L440,120 z" fill="#097564"/>
      <path d="M450,110 L490,110 L490,150 L450,150 z" fill="#097564"/>
      <path d="M460,160 L480,160 L480,180 L460,180 z" fill="#097564"/>
      <path d="M460,150 L470,150 L470,160 L460,160 z" fill="#097564"/>
      <path d="M700,50 L720,50 L720,70 L700,70 z" fill="#097564"/>
      <path d="M670,80 L700,80 L700,110 L670,110 z" fill="#097564"/>
      <path d="M480,160 L510,160 L510,190 L480,190 z" fill="#097564"/>
      <path d="M580,190 L600,190 L600,210 L580,210 z" fill="#097564"/>
      <path d="M580,160 L610,160 L610,190 L580,190 z" fill="#097564"/>
    </g>
    <g>
      <path d="M700,-0 L720,-0 L720,20 L700,20 z" fill="#BA8DF6"/>
      <path d="M630,140 L650,140 L650,160 L630,160 z" fill="#9671C8"/>
      <path d="M630,110 L660,110 L660,140 L630,140 z" fill="#9D77D2"/>
      <path d="M720,-0 L730,-0 L730,10 L720,10 z" fill="#BF91FE"/>
      <path d="M660,0 L700,0 L700,40 L660,40 z" fill="#B589F0"/>
      <path d="M450,0 L500,0 L500,50 L450,50 z" fill="#38284D"/>
      <path d="M470,50 L500,50 L500,80 L470,80 z" fill="#42305A"/>
      <path d="M470,80 L500,80 L500,110 L470,110 z" fill="#493563"/>
      <path d="M660,40 L700,40 L700,80 L660,80 z" fill="#AE84E8"/>
      <path d="M650,90 L670,90 L670,110 L650,110 z" fill="#A37CD9"/>
      <path d="M660,80 L670,80 L670,90 L660,90 z" fill="#A87FDF"/>
      <path d="M510,160 L550,160 L550,200 L510,200 z" fill="#76589E"/>
      <path d="M550,170 L580,170 L580,200 L550,200 z" fill="#7F5FAA"/>
      <path d="M580,110 L630,110 L630,160 L580,160 z" fill="#8F6BBE"/>
      <path d="M550,140 L580,140 L580,170 L550,170 z" fill="#8867B6"/>
      <path d="M520,140 L540,140 L540,160 L520,160 z" fill="#664C8A"/>
      <path d="M540,150 L550,150 L550,160 L540,160 z" fill="#6E5294"/>
      <path d="M490,110 L510,110 L510,130 L490,130 z" fill="#543E71"/>
      <path d="M510,120 L520,120 L520,130 L510,130 z" fill="#594178"/>
      <path d="M490,130 L520,130 L520,160 L490,160 z" fill="#604781"/>
    </g>
    <g>
      <path d="M630,0 L660,0 L660,30 L630,30 z" fill="#D24B9C"/>
      <path d="M610,0 L630,0 L630,20 L610,20 z" fill="#DE4FA4"/>
      <path d="M500,0 L570,0 L570,70 L500,70 z" fill="#4A1535"/>
      <path d="M570,0 L610,0 L610,40 L570,40 z" fill="#EC55AF"/>
      <path d="M500,70 L540,70 L540,110 L500,110 z" fill="#5B1B41"/>
      <path d="M610,30 L660,30 L660,80 L610,80 z" fill="#CB4896"/>
      <path d="M570,40 L610,40 L610,80 L570,80 z" fill="#FE5CBD"/>
      <path d="M540,70 L570,70 L570,100 L540,100 z" fill="#802A5E"/>
      <path d="M570,80 L590,80 L590,100 L570,100 z" fill="#8B2E66"/>
      <path d="M590,80 L600,80 L600,90 L590,90 z" fill="#9A3471"/>
      <path d="M620,80 L650,80 L650,110 L620,110 z" fill="#B74087"/>
      <path d="M600,80 L620,80 L620,100 L600,100 z" fill="#A83A7C"/>
      <path d="M540,100 L580,100 L580,140 L540,140 z" fill="#752655"/>
      <path d="M520,110 L540,110 L540,130 L520,130 z" fill="#6B224E"/>
    </g>
    <g>
      <path d="M200,200 L0,200 L0,400 L200,400 z" fill="#803734"/>
      <path d="M100,100 L0,100 L0,200 L100,200 z" fill="#A04642"/>
      <path d="M350,250 L200,250 L200,400 L350,400 z" fill="#5F2725"/>
      <path d="M60,40 L0,40 L0,100 L60,100 z" fill="#C05551"/>
      <path d="M40,-0 L0,-0 L0,40 L40,40 z" fill="#E26661"/>
    </g>
    <g>
      <path d="M150,150 L100,150 L100,200 L150,200 z" fill="#097564"/>
      <path d="M70,0 L40,0 L40,30 L70,30 z" fill="#097564"/>
      <path d="M100,70 L70,70 L70,100 L100,100 z" fill="#097564"/>
      <path d="M80,50 L60,50 L60,70 L80,70 z" fill="#097564"/>
      <path d="M330,190 L290,190 L290,230 L330,230 z" fill="#097564"/>
      <path d="M290,200 L240,200 L240,250 L290,250 z" fill="#097564"/>
      <path d="M240,210 L200,210 L200,250 L240,250 z" fill="#097564"/>
      <path d="M190,160 L150,160 L150,200 L190,200 z" fill="#097564"/>
      <path d="M140,110 L100,110 L100,150 L140,150 z" fill="#097564"/>
      <path d="M100,20 L70,20 L70,50 L100,50 z" fill="#097564"/>
      <path d="M380,0 L350,0 L350,30 L380,30 z" fill="#097564"/>
      <path d="M370,30 L350,30 L350,50 L370,50 z" fill="#097564"/>
      <path d="M370,50 L330,50 L330,90 L370,90 z" fill="#097564"/>
      <path d="M360,90 L340,90 L340,110 L360,110 z" fill="#097564"/>
      <path d="M360,110 L350,110 L350,120 L360,120 z" fill="#097564"/>
      <path d="M350,110 L310,110 L310,150 L350,150 z" fill="#097564"/>
      <path d="M340,160 L320,160 L320,180 L340,180 z" fill="#097564"/>
      <path d="M340,150 L330,150 L330,160 L340,160 z" fill="#097564"/>
      <path d="M100,50 L80,50 L80,70 L100,70 z" fill="#097564"/>
      <path d="M130,80 L100,80 L100,110 L130,110 z" fill="#097564"/>
      <path d="M320,160 L290,160 L290,190 L320,190 z" fill="#097564"/>
      <path d="M220,190 L200,190 L200,210 L220,210 z" fill="#097564"/>
      <path d="M220,160 L190,160 L190,190 L220,190 z" fill="#097564"/>
    </g>
    <g>
      <path d="M100,-0 L80,-0 L80,20 L100,20 z" fill="#BA8DF6"/>
      <path d="M170,140 L150,140 L150,160 L170,160 z" fill="#9671C8"/>
      <path d="M170,110 L140,110 L140,140 L170,140 z" fill="#9D77D2"/>
      <path d="M80,-0 L70,-0 L70,10 L80,10 z" fill="#BF91FE"/>
      <path d="M140,0 L100,0 L100,40 L140,40 z" fill="#B589F0"/>
      <path d="M350,0 L300,0 L300,50 L350,50 z" fill="#38284D"/>
      <path d="M330,50 L300,50 L300,80 L330,80 z" fill="#42305A"/>
      <path d="M330,80 L300,80 L300,110 L330,110 z" fill="#493563"/>
      <path d="M140,40 L100,40 L100,80 L140,80 z" fill="#AE84E8"/>
      <path d="M150,90 L130,90 L130,110 L150,110 z" fill="#A37CD9"/>
      <path d="M140,80 L130,80 L130,90 L140,90 z" fill="#A87FDF"/>
      <path d="M290,160 L250,160 L250,200 L290,200 z" fill="#76589E"/>
      <path d="M250,170 L220,170 L220,200 L250,200 z" fill="#7F5FAA"/>
      <path d="M220,110 L170,110 L170,160 L220,160 z" fill="#8F6BBE"/>
      <path d="M250,140 L220,140 L220,170 L250,170 z" fill="#8867B6"/>
      <path d="M280,140 L260,140 L260,160 L280,160 z" fill="#664C8A"/>
      <path d="M260,150 L250,150 L250,160 L260,160 z" fill="#6E5294"/>
      <path d="M310,110 L290,110 L290,130 L310,130 z" fill="#543E71"/>
      <path d="M290,120 L280,120 L280,130 L290,130 z" fill="#594178"/>
      <path d="M310,130 L280,130 L280,160 L310,160 z" fill="#604781"/>
    </g>
    <g>
      <path d="M170,0 L140,0 L140,30 L170,30 z" fill="#D24B9C"/>
      <path d="M190,0 L170,0 L170,20 L190,20 z" fill="#DE4FA4"/>
      <path d="M300,0 L230,0 L230,70 L300,70 z" fill="#4A1535"/>
      <path d="M230,0 L190,0 L190,40 L230,40 z" fill="#EC55AF"/>
      <path d="M300,70 L260,70 L260,110 L300,110 z" fill="#5B1B41"/>
      <path d="M190,30 L140,30 L140,80 L190,80 z" fill="#CB4896"/>
      <path d="M230,40 L190,40 L190,80 L230,80 z" fill="#FE5CBD"/>
      <path d="M260,70 L230,70 L230,100 L260,100 z" fill="#802A5E"/>
      <path d="M230,80 L210,80 L210,100 L230,100 z" fill="#8B2E66"/>
      <path d="M210,80 L200,80 L200,90 L210,90 z" fill="#9A3471"/>
      <path d="M180,80 L150,80 L150,110 L180,110 z" fill="#B74087"/>
      <path d="M200,80 L180,80 L180,100 L200,100 z" fill="#A83A7C"/>
      <path d="M260,100 L220,100 L220,140 L260,140 z" fill="#752655"/>
      <path d="M280,110 L260,110 L260,130 L280,130 z" fill="#6B224E"/>
    </g>
  </g>
</svg>
