<?xml version="1.0" encoding="UTF-8"?>
<!DOCTYPE svg PUBLIC "-//W3C//DTD SVG 1.1//EN" "http://www.w3.org/Graphics/SVG/1.1/DTD/svg11.dtd">
<svg version="1.1" xmlns="http://www.w3.org/2000/svg" xmlns:xlink="http://www.w3.org/1999/xlink" x="0" y="0" width="800" height="800" viewBox="0, 0, 800, 800">
  <g id="-background" display="none">
    <path d="M0,-0 L800,-0 L800,800 L0,800 z" fill="#000000"/>
  </g>
  <g id="Layer_2">
    <g>
      <path d="M-0,650 L150,650 L150,800 L-0,800 z" fill="#AB4AE0"/>
      <path d="M650,650 L800,650 L800,800 L650,800 z" fill="#AB4AE0"/>
      <path d="M550,650 L650,650 L650,750 L550,750 z" fill="#953FC4"/>
      <path d="M150,650 L250,650 L250,750 L150,750 z" fill="#953FC4"/>
      <path d="M250,600 L350,600 L350,700 L250,700 z" fill="#722F97"/>
      <path d="M450,600 L550,600 L550,700 L450,700 z" fill="#722F97"/>
      <path d="M350,650 L450,650 L450,750 L350,750 z" fill="#53206F"/>
    </g>
    <g>
      <path d="M150,750 L200,750 L200,800 L150,800 z" fill="#238DB3"/>
      <path d="M200,750 L250,750 L250,800 L200,800 z" fill="#186A88"/>
      <path d="M600,750 L650,750 L650,800 L600,800 z" fill="#238DB3"/>
      <path d="M550,750 L600,750 L600,800 L550,800 z" fill="#186A88"/>
      <path d="M250,700 L350,700 L350,800 L250,800 z" fill="#105068"/>
      <path d="M450,700 L550,700 L550,800 L450,800 z" fill="#105068"/>
      <path d="M350,750 L400,750 L400,800 L350,800 z" fill="#0A3E51"/>
      <path d="M400,750 L450,750 L450,800 L400,800 z" fill="#0A3E51"/>
    </g>
    <g>
      <path d="M350,0 L450,0 L450,100 L350,100 z" fill="#204994"/>
      <path d="M300,-0 L350,-0 L350,50 L300,50 z" fill="#2E65C7"/>
      <path d="M450,-0 L500,-0 L500,50 L450,50 z" fill="#2E65C7"/>
      <path d="M450,50 L550,50 L550,150 L450,150 z" fill="#2758AF"/>
      <path d="M250,50 L350,50 L350,150 L250,150 z" fill="#2758AF"/>
      <path d="M350,100 L400,100 L400,150 L350,150 z" fill="#1B4185"/>
      <path d="M400,100 L450,100 L450,150 L400,150 z" fill="#1B4185"/>
      <path d="M250,-0 L300,-0 L300,50 L250,50 z" fill="#3471DD"/>
      <path d="M500,-0 L550,-0 L550,50 L500,50 z" fill="#3471DD"/>
      <path d="M300,150 L400,150 L400,250 L300,250 z" fill="#133168"/>
      <path d="M400,150 L500,150 L500,250 L400,250 z" fill="#133168"/>
    </g>
    <g>
      <path d="M500,150 L650,150 L650,300 L500,300 z" fill="#038193"/>
      <path d="M150,150 L300,150 L300,300 L150,300 z" fill="#038193"/>
      <path d="M650,200 L800,200 L800,350 L650,350 z" fill="#059AAF"/>
      <path d="M0,200 L150,200 L150,350 L0,350 z" fill="#059AAF"/>
      <path d="M300,250 L350,250 L350,300 L300,300 z" fill="#026675"/>
      <path d="M450,250 L500,250 L500,300 L450,300 z" fill="#026675"/>
      <path d="M350,250 L450,250 L450,350 L350,350 z" fill="#014A55"/>
      <path d="M100,0 L250,0 L250,150 L100,150 z" fill="#09CCE7"/>
      <path d="M550,0 L700,0 L700,150 L550,150 z" fill="#09CCE7"/>
      <path d="M650,150 L700,150 L700,200 L650,200 z" fill="#0AD7F4"/>
      <path d="M100,150 L150,150 L150,200 L100,200 z" fill="#0AD7F4"/>
      <path d="M700,100 L800,100 L800,200 L700,200 z" fill="#06AEC5"/>
      <path d="M0,100 L100,100 L100,200 L0,200 z" fill="#06AEC5"/>
      <path d="M0,-0 L100,-0 L100,100 L0,100 z" fill="#07BCD6"/>
      <path d="M700,0 L800,0 L800,100 L700,100 z" fill="#07BCD6"/>
    </g>
    <g>
      <path d="M150,350 L200,350 L200,400 L150,400 z" fill="#BD5D2B"/>
      <path d="M200,300 L350,300 L350,450 L200,450 z" fill="#8E441E"/>
      <path d="M450,300 L600,300 L600,450 L450,450 z" fill="#8E441E"/>
      <path d="M600,300 L650,300 L650,350 L600,350 z" fill="#AA5326"/>
      <path d="M150,300 L200,300 L200,350 L150,350 z" fill="#AA5326"/>
      <path d="M350,350 L450,350 L450,450 L350,450 z" fill="#662F13"/>
      <path d="M100,350 L150,350 L150,400 L100,400 z" fill="#CC652F"/>
      <path d="M0,350 L100,350 L100,450 L0,450 z" fill="#DC6D34"/>
      <path d="M650,350 L600,350 L600,400 L650,400 z" fill="#BD5D2B"/>
      <path d="M700,350 L650,350 L650,400 L700,400 z" fill="#CC652F"/>
      <path d="M800,350 L700,350 L700,450 L800,450 z" fill="#DC6D34"/>
    </g>
    <g>
      <path d="M100,400 L200,400 L200,500 L100,500 z" fill="#2BC676"/>
      <path d="M250,450 L400,450 L400,600 L250,600 z" fill="#146E3F"/>
      <path d="M400,450 L550,450 L550,600 L400,600 z" fill="#146E3F"/>
      <path d="M100,500 L250,500 L250,650 L100,650 z" fill="#1B8A51"/>
      <path d="M200,450 L250,450 L250,500 L200,500 z" fill="#32DD85"/>
      <path d="M0,550 L100,550 L100,650 L0,650 z" fill="#209C5C"/>
      <path d="M0,450 L100,450 L100,550 L0,550 z" fill="#26B46B"/>
      <path d="M700,400 L600,400 L600,500 L700,500 z" fill="#2BC676"/>
      <path d="M700,500 L550,500 L550,650 L700,650 z" fill="#1B8A51"/>
      <path d="M800,550 L700,550 L700,650 L800,650 z" fill="#209C5C"/>
      <path d="M800,450 L700,450 L700,550 L800,550 z" fill="#26B46B"/>
      <path d="M550,450 L600,450 L600,500 L550,500 z" fill="#32DD85"/>
      <path d="M350,600 L400,600 L400,650 L350,650 z" fill="#0A4A29"/>
      <path d="M400,600 L450,600 L450,650 L400,650 z" fill="#0A4A29"/>
    </g>
  </g>
</svg>
