<?xml version="1.0" encoding="UTF-8"?>
<!DOCTYPE svg PUBLIC "-//W3C//DTD SVG 1.1//EN" "http://www.w3.org/Graphics/SVG/1.1/DTD/svg11.dtd">
<svg version="1.1" xmlns="http://www.w3.org/2000/svg" xmlns:xlink="http://www.w3.org/1999/xlink" x="0" y="0" width="800" height="800" viewBox="0, 0, 800, 800">
  <g id="-background">
    <path d="M0,-0 L800,-0 L800,800 L0,800 z" fill="#000000"/>
  </g>
  <g id="Layer_2">
    <g>
      <g>
        <path d="M500,180 L610,180 L610,220 L500,220 z" fill="#051431"/>
        <path d="M580,150 L610,150 L610,180 L580,180 z" fill="#0A2048"/>
        <path d="M590,130 L610,130 L610,150 L590,150 z" fill="#102A5B"/>
        <path d="M610,140 L630,140 L630,160 L610,160 z" fill="#14346C"/>
        <path d="M610,160 L650,160 L650,200 L610,200 z" fill="#183B7A"/>
        <path d="M580,220 L610,220 L610,250 L580,250 z" fill="#0A2048"/>
        <path d="M590,250 L610,250 L610,270 L590,270 z" fill="#102A5B"/>
        <path d="M610,240 L630,240 L630,260 L610,260 z" fill="#14346C"/>
        <path d="M610,200 L650,200 L650,240 L610,240 z" fill="#183B7A"/>
        <path d="M650,180 L710,180 L710,220 L650,220 z" fill="#1D4389"/>
        <path d="M680,150 L710,150 L710,180 L680,180 z" fill="#214C99"/>
        <path d="M690,130 L710,130 L710,150 L690,150 z" fill="#2656AD"/>
        <path d="M680,220 L710,220 L710,250 L680,250 z" fill="#214C99"/>
        <path d="M690,250 L710,250 L710,270 L690,270 z" fill="#2656AD"/>
        <path d="M710,240 L730,240 L730,260 L710,260 z" fill="#2B5FBE"/>
        <path d="M710,140 L730,140 L730,160 L710,160 z" fill="#2B5FBE"/>
        <path d="M710,160 L750,160 L750,200 L710,200 z" fill="#2F67CC"/>
        <path d="M710,200 L750,200 L750,240 L710,240 z" fill="#2F67CC"/>
        <path d="M750,170 L770,170 L770,230 L750,230 z" fill="#346FDB"/>
        <path d="M770,190 L780,190 L780,210 L770,210 z" fill="#397AEF"/>
      </g>
      <g>
        <path d="M500,60 L560,60 L560,100 L500,100 z" fill="#201137"/>
        <path d="M530,30 L560,30 L560,60 L530,60 z" fill="#291744"/>
        <path d="M540,10 L560,10 L560,30 L540,30 z" fill="#321C51"/>
        <path d="M560,20 L580,20 L580,40 L560,40 z" fill="#3C235F"/>
        <path d="M560,40 L600,40 L600,80 L560,80 z" fill="#45296E"/>
        <path d="M530,100 L560,100 L560,130 L530,130 z" fill="#291744"/>
        <path d="M540,130 L560,130 L560,150 L540,150 z" fill="#321C51"/>
        <path d="M560,120 L580,120 L580,140 L560,140 z" fill="#3C235F"/>
        <path d="M560,80 L600,80 L600,120 L560,120 z" fill="#45296E"/>
        <path d="M600,60 L660,60 L660,100 L600,100 z" fill="#51317E"/>
        <path d="M630,30 L660,30 L660,60 L630,60 z" fill="#59368B"/>
        <path d="M640,10 L660,10 L660,30 L640,30 z" fill="#613B97"/>
        <path d="M630,100 L660,100 L660,130 L630,130 z" fill="#59368B"/>
        <path d="M640,130 L660,130 L660,150 L640,150 z" fill="#613B97"/>
        <path d="M660,120 L680,120 L680,140 L660,140 z" fill="#6941A3"/>
        <path d="M660,20 L680,20 L680,40 L660,40 z" fill="#6941A3"/>
        <path d="M660,40 L700,40 L700,80 L660,80 z" fill="#774AB7"/>
        <path d="M660,80 L700,80 L700,120 L660,120 z" fill="#774AB7"/>
        <path d="M700,60 L760,60 L760,100 L700,100 z" fill="#8050C5"/>
        <path d="M730,30 L760,30 L760,60 L730,60 z" fill="#8855D0"/>
        <path d="M740,10 L760,10 L760,30 L740,30 z" fill="#925CE0"/>
        <path d="M760,20 L780,20 L780,40 L760,40 z" fill="#9960E9"/>
        <path d="M760,40 L800,40 L800,80 L760,80 z" fill="#A568FB"/>
        <path d="M730,100 L760,100 L760,130 L730,130 z" fill="#8855D0"/>
        <path d="M740,130 L760,130 L760,150 L740,150 z" fill="#925CE0"/>
        <path d="M760,120 L780,120 L780,140 L760,140 z" fill="#9960E9"/>
        <path d="M760,80 L800,80 L800,120 L760,120 z" fill="#A568FB"/>
      </g>
      <g>
        <path d="M480,300 L560,300 L560,340 L480,340 z" fill="#46102A"/>
        <path d="M530,270 L560,270 L560,300 L530,300 z" fill="#531433"/>
        <path d="M540,250 L560,250 L560,270 L540,270 z" fill="#60193C"/>
        <path d="M560,260 L580,260 L580,280 L560,280 z" fill="#6B1D43"/>
        <path d="M560,280 L600,280 L600,320 L560,320 z" fill="#7A224D"/>
        <path d="M530,340 L560,340 L560,370 L530,370 z" fill="#531433"/>
        <path d="M540,370 L560,370 L560,390 L540,390 z" fill="#60193C"/>
        <path d="M560,360 L580,360 L580,380 L560,380 z" fill="#6B1D43"/>
        <path d="M560,320 L600,320 L600,360 L560,360 z" fill="#7A224D"/>
        <path d="M600,300 L660,300 L660,340 L600,340 z" fill="#872756"/>
        <path d="M630,270 L660,270 L660,300 L630,300 z" fill="#952C5F"/>
        <path d="M640,250 L660,250 L660,270 L640,270 z" fill="#A13067"/>
        <path d="M630,340 L660,340 L660,370 L630,370 z" fill="#952C5F"/>
        <path d="M640,370 L660,370 L660,390 L640,390 z" fill="#A13067"/>
        <path d="M660,360 L680,360 L680,380 L660,380 z" fill="#B13672"/>
        <path d="M660,260 L680,260 L680,280 L660,280 z" fill="#B13672"/>
        <path d="M660,280 L700,280 L700,320 L660,320 z" fill="#C63D80"/>
        <path d="M660,320 L700,320 L700,360 L660,360 z" fill="#C63D80"/>
        <path d="M700,290 L720,290 L720,350 L700,350 z" fill="#D5438A"/>
        <path d="M720,310 L730,310 L730,330 L720,330 z" fill="#EC4A99"/>
      </g>
      <g>
        <path d="M460,420 L510,420 L510,460 L460,460 z" fill="#411F05"/>
        <path d="M480,390 L510,390 L510,420 L480,420 z" fill="#592E07"/>
        <path d="M490,370 L510,370 L510,390 L490,390 z" fill="#6F3A0B"/>
        <path d="M510,380 L530,380 L530,400 L510,400 z" fill="#81440E"/>
        <path d="M510,400 L550,400 L550,440 L510,440 z" fill="#8C4B11"/>
        <path d="M480,460 L510,460 L510,490 L480,490 z" fill="#592E07"/>
        <path d="M490,490 L510,490 L510,510 L490,510 z" fill="#6F3A0B"/>
        <path d="M510,480 L530,480 L530,500 L510,500 z" fill="#81440E"/>
        <path d="M510,440 L550,440 L550,480 L510,480 z" fill="#8C4B11"/>
        <path d="M550,420 L610,420 L610,460 L550,460 z" fill="#965112"/>
        <path d="M580,390 L610,390 L610,420 L580,420 z" fill="#A15715"/>
        <path d="M590,370 L610,370 L610,390 L590,390 z" fill="#B66319"/>
        <path d="M580,460 L610,460 L610,490 L580,490 z" fill="#A15715"/>
        <path d="M590,490 L610,490 L610,510 L590,510 z" fill="#B66319"/>
        <path d="M610,480 L630,480 L630,500 L610,500 z" fill="#C76D1C"/>
        <path d="M610,380 L630,380 L630,400 L610,400 z" fill="#C76D1C"/>
        <path d="M610,400 L650,400 L650,440 L610,440 z" fill="#D4751F"/>
        <path d="M610,440 L650,440 L650,480 L610,480 z" fill="#D4751F"/>
        <path d="M650,410 L670,410 L670,470 L650,470 z" fill="#E57E22"/>
        <path d="M670,430 L680,430 L680,450 L670,450 z" fill="#F48725"/>
      </g>
      <g>
        <path d="M420,540 L460,540 L460,580 L420,580 z" fill="#104451"/>
        <path d="M430,510 L460,510 L460,540 L430,540 z" fill="#185969"/>
        <path d="M440,490 L460,490 L460,510 L440,510 z" fill="#1E6A7C"/>
        <path d="M460,500 L480,500 L480,520 L460,520 z" fill="#24798E"/>
        <path d="M460,520 L500,520 L500,560 L460,560 z" fill="#278399"/>
        <path d="M430,580 L460,580 L460,610 L430,610 z" fill="#185969"/>
        <path d="M440,610 L460,610 L460,630 L440,630 z" fill="#1E6A7C"/>
        <path d="M460,600 L480,600 L480,620 L460,620 z" fill="#24798E"/>
        <path d="M460,560 L500,560 L500,600 L460,600 z" fill="#278399"/>
        <path d="M500,540 L560,540 L560,580 L500,580 z" fill="#2A8BA2"/>
        <path d="M530,510 L560,510 L560,540 L530,540 z" fill="#2E97AF"/>
        <path d="M540,490 L560,490 L560,510 L540,510 z" fill="#34A7C2"/>
        <path d="M530,580 L560,580 L560,610 L530,610 z" fill="#2E97AF"/>
        <path d="M540,610 L560,610 L560,630 L540,630 z" fill="#34A7C2"/>
        <path d="M560,600 L580,600 L580,620 L560,620 z" fill="#38B1CE"/>
        <path d="M560,500 L580,500 L580,520 L560,520 z" fill="#38B1CE"/>
        <path d="M560,520 L600,520 L600,560 L560,560 z" fill="#3CBBD9"/>
        <path d="M560,560 L600,560 L600,600 L560,600 z" fill="#3CBBD9"/>
        <path d="M600,530 L620,530 L620,590 L600,590 z" fill="#40C7E7"/>
        <path d="M620,550 L630,550 L630,570 L620,570 z" fill="#45D3F5"/>
      </g>
      <g>
        <path d="M430,660 L510,660 L510,700 L430,700 z" fill="#2C3B06"/>
        <path d="M480,630 L510,630 L510,660 L480,660 z" fill="#3F520B"/>
        <path d="M490,610 L510,610 L510,630 L490,630 z" fill="#4A5F0F"/>
        <path d="M510,620 L530,620 L530,640 L510,640 z" fill="#566E13"/>
        <path d="M510,640 L550,640 L550,680 L510,680 z" fill="#5F7A16"/>
        <path d="M480,700 L510,700 L510,730 L480,730 z" fill="#3F520B"/>
        <path d="M490,730 L510,730 L510,750 L490,750 z" fill="#4A5F0F"/>
        <path d="M510,720 L530,720 L530,740 L510,740 z" fill="#566E13"/>
        <path d="M510,680 L550,680 L550,720 L510,720 z" fill="#5F7A16"/>
        <path d="M550,660 L610,660 L610,700 L550,700 z" fill="#688519"/>
        <path d="M580,630 L610,630 L610,660 L580,660 z" fill="#72911C"/>
        <path d="M590,610 L610,610 L610,630 L590,630 z" fill="#7EA120"/>
        <path d="M580,700 L610,700 L610,730 L580,730 z" fill="#72911C"/>
        <path d="M590,730 L610,730 L610,750 L590,750 z" fill="#7EA120"/>
        <path d="M610,720 L630,720 L630,740 L610,740 z" fill="#8BB124"/>
        <path d="M610,620 L630,620 L630,640 L610,640 z" fill="#8BB124"/>
        <path d="M610,640 L650,640 L650,680 L610,680 z" fill="#9CC62A"/>
        <path d="M610,680 L650,680 L650,720 L610,720 z" fill="#9CC62A"/>
        <path d="M650,650 L670,650 L670,710 L650,710 z" fill="#ACD92F"/>
        <path d="M670,670 L680,670 L680,690 L670,690 z" fill="#BDEF35"/>
      </g>
    </g>
    <g>
      <g>
        <path d="M300,180 L190,180 L190,220 L300,220 z" fill="#051431"/>
        <path d="M220,150 L190,150 L190,180 L220,180 z" fill="#0A2048"/>
        <path d="M210,130 L190,130 L190,150 L210,150 z" fill="#102A5B"/>
        <path d="M190,140 L170,140 L170,160 L190,160 z" fill="#14346C"/>
        <path d="M190,160 L150,160 L150,200 L190,200 z" fill="#183B7A"/>
        <path d="M220,220 L190,220 L190,250 L220,250 z" fill="#0A2048"/>
        <path d="M210,250 L190,250 L190,270 L210,270 z" fill="#102A5B"/>
        <path d="M190,240 L170,240 L170,260 L190,260 z" fill="#14346C"/>
        <path d="M190,200 L150,200 L150,240 L190,240 z" fill="#183B7A"/>
        <path d="M150,180 L90,180 L90,220 L150,220 z" fill="#1D4389"/>
        <path d="M120,150 L90,150 L90,180 L120,180 z" fill="#214C99"/>
        <path d="M110,130 L90,130 L90,150 L110,150 z" fill="#2656AD"/>
        <path d="M120,220 L90,220 L90,250 L120,250 z" fill="#214C99"/>
        <path d="M110,250 L90,250 L90,270 L110,270 z" fill="#2656AD"/>
        <path d="M90,240 L70,240 L70,260 L90,260 z" fill="#2B5FBE"/>
        <path d="M90,140 L70,140 L70,160 L90,160 z" fill="#2B5FBE"/>
        <path d="M90,160 L50,160 L50,200 L90,200 z" fill="#2F67CC"/>
        <path d="M90,200 L50,200 L50,240 L90,240 z" fill="#2F67CC"/>
        <path d="M50,170 L30,170 L30,230 L50,230 z" fill="#346FDB"/>
        <path d="M30,190 L20,190 L20,210 L30,210 z" fill="#397AEF"/>
      </g>
      <g>
        <path d="M300,60 L240,60 L240,100 L300,100 z" fill="#201137"/>
        <path d="M270,30 L240,30 L240,60 L270,60 z" fill="#291744"/>
        <path d="M260,10 L240,10 L240,30 L260,30 z" fill="#321C51"/>
        <path d="M240,20 L220,20 L220,40 L240,40 z" fill="#3C235F"/>
        <path d="M240,40 L200,40 L200,80 L240,80 z" fill="#45296E"/>
        <path d="M270,100 L240,100 L240,130 L270,130 z" fill="#291744"/>
        <path d="M260,130 L240,130 L240,150 L260,150 z" fill="#321C51"/>
        <path d="M240,120 L220,120 L220,140 L240,140 z" fill="#3C235F"/>
        <path d="M240,80 L200,80 L200,120 L240,120 z" fill="#45296E"/>
        <path d="M200,60 L140,60 L140,100 L200,100 z" fill="#51317E"/>
        <path d="M170,30 L140,30 L140,60 L170,60 z" fill="#59368B"/>
        <path d="M160,10 L140,10 L140,30 L160,30 z" fill="#613B97"/>
        <path d="M170,100 L140,100 L140,130 L170,130 z" fill="#59368B"/>
        <path d="M160,130 L140,130 L140,150 L160,150 z" fill="#613B97"/>
        <path d="M140,120 L120,120 L120,140 L140,140 z" fill="#6941A3"/>
        <path d="M140,20 L120,20 L120,40 L140,40 z" fill="#6941A3"/>
        <path d="M140,40 L100,40 L100,80 L140,80 z" fill="#774AB7"/>
        <path d="M140,80 L100,80 L100,120 L140,120 z" fill="#774AB7"/>
        <path d="M100,60 L40,60 L40,100 L100,100 z" fill="#8050C5"/>
        <path d="M70,30 L40,30 L40,60 L70,60 z" fill="#8855D0"/>
        <path d="M60,10 L40,10 L40,30 L60,30 z" fill="#925CE0"/>
        <path d="M40,20 L20,20 L20,40 L40,40 z" fill="#9960E9"/>
        <path d="M40,40 L-0,40 L-0,80 L40,80 z" fill="#A568FB"/>
        <path d="M70,100 L40,100 L40,130 L70,130 z" fill="#8855D0"/>
        <path d="M60,130 L40,130 L40,150 L60,150 z" fill="#925CE0"/>
        <path d="M40,120 L20,120 L20,140 L40,140 z" fill="#9960E9"/>
        <path d="M40,80 L0,80 L0,120 L40,120 z" fill="#A568FB"/>
      </g>
      <g>
        <path d="M320,300 L240,300 L240,340 L320,340 z" fill="#46102A"/>
        <path d="M270,270 L240,270 L240,300 L270,300 z" fill="#531433"/>
        <path d="M260,250 L240,250 L240,270 L260,270 z" fill="#60193C"/>
        <path d="M240,260 L220,260 L220,280 L240,280 z" fill="#6B1D43"/>
        <path d="M240,280 L200,280 L200,320 L240,320 z" fill="#7A224D"/>
        <path d="M270,340 L240,340 L240,370 L270,370 z" fill="#531433"/>
        <path d="M260,370 L240,370 L240,390 L260,390 z" fill="#60193C"/>
        <path d="M240,360 L220,360 L220,380 L240,380 z" fill="#6B1D43"/>
        <path d="M240,320 L200,320 L200,360 L240,360 z" fill="#7A224D"/>
        <path d="M200,300 L140,300 L140,340 L200,340 z" fill="#872756"/>
        <path d="M170,270 L140,270 L140,300 L170,300 z" fill="#952C5F"/>
        <path d="M160,250 L140,250 L140,270 L160,270 z" fill="#A13067"/>
        <path d="M170,340 L140,340 L140,370 L170,370 z" fill="#952C5F"/>
        <path d="M160,370 L140,370 L140,390 L160,390 z" fill="#A13067"/>
        <path d="M140,360 L120,360 L120,380 L140,380 z" fill="#B13672"/>
        <path d="M140,260 L120,260 L120,280 L140,280 z" fill="#B13672"/>
        <path d="M140,280 L100,280 L100,320 L140,320 z" fill="#C63D80"/>
        <path d="M140,320 L100,320 L100,360 L140,360 z" fill="#C63D80"/>
        <path d="M100,290 L80,290 L80,350 L100,350 z" fill="#D5438A"/>
        <path d="M80,310 L70,310 L70,330 L80,330 z" fill="#EC4A99"/>
      </g>
      <g>
        <path d="M340,420 L290,420 L290,460 L340,460 z" fill="#411F05"/>
        <path d="M320,390 L290,390 L290,420 L320,420 z" fill="#592E07"/>
        <path d="M310,370 L290,370 L290,390 L310,390 z" fill="#6F3A0B"/>
        <path d="M290,380 L270,380 L270,400 L290,400 z" fill="#81440E"/>
        <path d="M290,400 L250,400 L250,440 L290,440 z" fill="#8C4B11"/>
        <path d="M320,460 L290,460 L290,490 L320,490 z" fill="#592E07"/>
        <path d="M310,490 L290,490 L290,510 L310,510 z" fill="#6F3A0B"/>
        <path d="M290,480 L270,480 L270,500 L290,500 z" fill="#81440E"/>
        <path d="M290,440 L250,440 L250,480 L290,480 z" fill="#8C4B11"/>
        <path d="M250,420 L190,420 L190,460 L250,460 z" fill="#965112"/>
        <path d="M220,390 L190,390 L190,420 L220,420 z" fill="#A15715"/>
        <path d="M210,370 L190,370 L190,390 L210,390 z" fill="#B66319"/>
        <path d="M220,460 L190,460 L190,490 L220,490 z" fill="#A15715"/>
        <path d="M210,490 L190,490 L190,510 L210,510 z" fill="#B66319"/>
        <path d="M190,480 L170,480 L170,500 L190,500 z" fill="#C76D1C"/>
        <path d="M190,380 L170,380 L170,400 L190,400 z" fill="#C76D1C"/>
        <path d="M190,400 L150,400 L150,440 L190,440 z" fill="#D4751F"/>
        <path d="M190,440 L150,440 L150,480 L190,480 z" fill="#D4751F"/>
        <path d="M150,410 L130,410 L130,470 L150,470 z" fill="#E57E22"/>
        <path d="M130,430 L120,430 L120,450 L130,450 z" fill="#F48725"/>
      </g>
      <g>
        <path d="M380,540 L340,540 L340,580 L380,580 z" fill="#104451"/>
        <path d="M370,510 L340,510 L340,540 L370,540 z" fill="#185969"/>
        <path d="M360,490 L340,490 L340,510 L360,510 z" fill="#1E6A7C"/>
        <path d="M340,500 L320,500 L320,520 L340,520 z" fill="#24798E"/>
        <path d="M340,520 L300,520 L300,560 L340,560 z" fill="#278399"/>
        <path d="M370,580 L340,580 L340,610 L370,610 z" fill="#185969"/>
        <path d="M360,610 L340,610 L340,630 L360,630 z" fill="#1E6A7C"/>
        <path d="M340,600 L320,600 L320,620 L340,620 z" fill="#24798E"/>
        <path d="M340,560 L300,560 L300,600 L340,600 z" fill="#278399"/>
        <path d="M300,540 L240,540 L240,580 L300,580 z" fill="#2A8BA2"/>
        <path d="M270,510 L240,510 L240,540 L270,540 z" fill="#2E97AF"/>
        <path d="M260,490 L240,490 L240,510 L260,510 z" fill="#34A7C2"/>
        <path d="M270,580 L240,580 L240,610 L270,610 z" fill="#2E97AF"/>
        <path d="M260,610 L240,610 L240,630 L260,630 z" fill="#34A7C2"/>
        <path d="M240,600 L220,600 L220,620 L240,620 z" fill="#38B1CE"/>
        <path d="M240,500 L220,500 L220,520 L240,520 z" fill="#38B1CE"/>
        <path d="M240,520 L200,520 L200,560 L240,560 z" fill="#3CBBD9"/>
        <path d="M240,560 L200,560 L200,600 L240,600 z" fill="#3CBBD9"/>
        <path d="M200,530 L180,530 L180,590 L200,590 z" fill="#40C7E7"/>
        <path d="M180,550 L170,550 L170,570 L180,570 z" fill="#45D3F5"/>
      </g>
      <g>
        <path d="M370,660 L290,660 L290,700 L370,700 z" fill="#2C3B06"/>
        <path d="M320,630 L290,630 L290,660 L320,660 z" fill="#3F520B"/>
        <path d="M310,610 L290,610 L290,630 L310,630 z" fill="#4A5F0F"/>
        <path d="M290,620 L270,620 L270,640 L290,640 z" fill="#566E13"/>
        <path d="M290,640 L250,640 L250,680 L290,680 z" fill="#5F7A16"/>
        <path d="M320,700 L290,700 L290,730 L320,730 z" fill="#3F520B"/>
        <path d="M310,730 L290,730 L290,750 L310,750 z" fill="#4A5F0F"/>
        <path d="M290,720 L270,720 L270,740 L290,740 z" fill="#566E13"/>
        <path d="M290,680 L250,680 L250,720 L290,720 z" fill="#5F7A16"/>
        <path d="M250,660 L190,660 L190,700 L250,700 z" fill="#688519"/>
        <path d="M220,630 L190,630 L190,660 L220,660 z" fill="#72911C"/>
        <path d="M210,610 L190,610 L190,630 L210,630 z" fill="#7EA120"/>
        <path d="M220,700 L190,700 L190,730 L220,730 z" fill="#72911C"/>
        <path d="M210,730 L190,730 L190,750 L210,750 z" fill="#7EA120"/>
        <path d="M190,720 L170,720 L170,740 L190,740 z" fill="#8BB124"/>
        <path d="M190,620 L170,620 L170,640 L190,640 z" fill="#8BB124"/>
        <path d="M190,640 L150,640 L150,680 L190,680 z" fill="#9CC62A"/>
        <path d="M190,680 L150,680 L150,720 L190,720 z" fill="#9CC62A"/>
        <path d="M150,650 L130,650 L130,710 L150,710 z" fill="#ACD92F"/>
        <path d="M130,670 L120,670 L120,690 L130,690 z" fill="#BDEF35"/>
      </g>
    </g>
    <g>
      <path d="M300,-0 L500,-0 L500,250 L300,250 z" fill="#14553A"/>
      <path d="M320,250 L480,250 L480,370 L320,370 z" fill="#1B6D4B"/>
      <path d="M340,370 L460,370 L460,480 L340,480 z" fill="#258960"/>
      <path d="M380,480 L420,480 L420,620 L380,620 z" fill="#2EA272"/>
      <path d="M370,620 L430,620 L430,720 L370,720 z" fill="#38C189"/>
      <path d="M350,720 L450,720 L450,800 L350,800 z" fill="#44E6A3"/>
    </g>
  </g>
</svg>
