<?xml version="1.0" encoding="UTF-8"?>
<!DOCTYPE svg PUBLIC "-//W3C//DTD SVG 1.1//EN" "http://www.w3.org/Graphics/SVG/1.1/DTD/svg11.dtd">
<svg version="1.1" xmlns="http://www.w3.org/2000/svg" xmlns:xlink="http://www.w3.org/1999/xlink" x="0" y="0" width="800" height="800" viewBox="0, 0, 800, 800">
  <g id="Layer_6">
    <path d="M0.5,500.5 L300.5,500.5 L300.5,800.5 L0.5,800.5 z" fill-opacity="0" stroke="#000000" stroke-width="1" stroke-linejoin="bevel"/>
    <path d="M0.5,250.5 L250.5,250.5 L250.5,500.5 L0.5,500.5 z" fill-opacity="0" stroke="#000000" stroke-width="1" stroke-linejoin="bevel"/>
    <path d="M0.5,100.5 L150.5,100.5 L150.5,250.5 L0.5,250.5 z" fill-opacity="0" stroke="#000000" stroke-width="1" stroke-linejoin="bevel"/>
    <path d="M0.5,0.5 L100.5,0.5 L100.5,100.5 L0.5,100.5 z" fill-opacity="0" stroke="#000000" stroke-width="1" stroke-linejoin="bevel"/>
    <path d="M300.5,500.5 L520.5,500.5 L520.5,720.5 L300.5,720.5 z" fill-opacity="0" stroke="#000000" stroke-width="1" stroke-linejoin="bevel"/>
    <path d="M520.5,500.5 L680.5,500.5 L680.5,660.5 L520.5,660.5 z" fill-opacity="0" stroke="#000000" stroke-width="1" stroke-linejoin="bevel"/>
    <path d="M680.5,500.5 L800.5,500.5 L800.5,620.5 L680.5,620.5 z" fill-opacity="0" stroke="#000000" stroke-width="1" stroke-linejoin="bevel"/>
    <path d="M710.5,620.5 L800.5,620.5 L800.5,710.5 L710.5,710.5 z" fill-opacity="0" stroke="#000000" stroke-width="1" stroke-linejoin="bevel"/>
    <path d="M740.5,710.5 L800.5,710.5 L800.5,770.5 L740.5,770.5 z" fill-opacity="0" stroke="#000000" stroke-width="1" stroke-linejoin="bevel"/>
    <path d="M770.5,770.5 L800.5,770.5 L800.5,800.5 L770.5,800.5 z" fill-opacity="0" stroke="#000000" stroke-width="1" stroke-linejoin="bevel"/>
    <path d="M600.5,660.5 L680.5,660.5 L680.5,740.5 L600.5,740.5 z" fill-opacity="0" stroke="#000000" stroke-width="1" stroke-linejoin="bevel"/>
    <path d="M640.5,740.5 L680.5,740.5 L680.5,780.5 L640.5,780.5 z" fill-opacity="0" stroke="#000000" stroke-width="1" stroke-linejoin="bevel"/>
    <path d="M660.5,780.5 L680.5,780.5 L680.5,800.5 L660.5,800.5 z" fill-opacity="0" stroke="#000000" stroke-width="1" stroke-linejoin="bevel"/>
    <path d="M680.5,740.5 L740.5,740.5 L740.5,800.5 L680.5,800.5 z" fill-opacity="0" stroke="#000000" stroke-width="1" stroke-linejoin="bevel"/>
    <path d="M680.5,710.5 L710.5,710.5 L710.5,740.5 L680.5,740.5 z" fill-opacity="0" stroke="#000000" stroke-width="1" stroke-linejoin="bevel"/>
    <path d="M680.5,690.5 L700.5,690.5 L700.5,710.5 L680.5,710.5 z" fill-opacity="0" stroke="#000000" stroke-width="1" stroke-linejoin="bevel"/>
    <path d="M550.5,660.5 L600.5,660.5 L600.5,710.5 L550.5,710.5 z" fill-opacity="0" stroke="#000000" stroke-width="1" stroke-linejoin="bevel"/>
    <path d="M520.5,660.5 L550.5,660.5 L550.5,690.5 L520.5,690.5 z" fill-opacity="0" stroke="#000000" stroke-width="1" stroke-linejoin="bevel"/>
    <path d="M310.5,720.5 L360.5,720.5 L360.5,770.5 L310.5,770.5 z" fill-opacity="0" stroke="#000000" stroke-width="1" stroke-linejoin="bevel"/>
    <path d="M330.5,770.5 L360.5,770.5 L360.5,800.5 L330.5,800.5 z" fill-opacity="0" stroke="#000000" stroke-width="1" stroke-linejoin="bevel"/>
    <path d="M360.5,750.5 L410.5,750.5 L410.5,800.5 L360.5,800.5 z" fill-opacity="0" stroke="#000000" stroke-width="1" stroke-linejoin="bevel"/>
    <path d="M360.5,720.5 L390.5,720.5 L390.5,750.5 L360.5,750.5 z" fill-opacity="0" stroke="#000000" stroke-width="1" stroke-linejoin="bevel"/>
    <path d="M400.5,720.5 L420.5,720.5 L420.5,740.5 L400.5,740.5 z" fill-opacity="0" stroke="#000000" stroke-width="1" stroke-linejoin="bevel"/>
    <path d="M420.5,720.5 L460.5,720.5 L460.5,760.5 L420.5,760.5 z" fill-opacity="0" stroke="#000000" stroke-width="1" stroke-linejoin="bevel"/>
    <path d="M460.5,720.5 L520.5,720.5 L520.5,780.5 L460.5,780.5 z" fill-opacity="0" stroke="#000000" stroke-width="1" stroke-linejoin="bevel"/>
    <path d="M440.5,760.5 L460.5,760.5 L460.5,780.5 L440.5,780.5 z" fill-opacity="0" stroke="#000000" stroke-width="1" stroke-linejoin="bevel"/>
    <path d="M430.5,760.5 L440.5,760.5 L440.5,770.5 L430.5,770.5 z" fill-opacity="0" stroke="#000000" stroke-width="1" stroke-linejoin="bevel"/>
    <path d="M500.5,780.5 L520.5,780.5 L520.5,800.5 L500.5,800.5 z" fill-opacity="0" stroke="#000000" stroke-width="1" stroke-linejoin="bevel"/>
    <path d="M520.5,760.5 L560.5,760.5 L560.5,800.5 L520.5,800.5 z" fill-opacity="0" stroke="#000000" stroke-width="1" stroke-linejoin="bevel"/>
    <path d="M520.5,730.5 L550.5,730.5 L550.5,760.5 L520.5,760.5 z" fill-opacity="0" stroke="#000000" stroke-width="1" stroke-linejoin="bevel"/>
    <path d="M520.5,710.5 L540.5,710.5 L540.5,730.5 L520.5,730.5 z" fill-opacity="0" stroke="#000000" stroke-width="1" stroke-linejoin="bevel"/>
    <path d="M520.5,700.5 L530.5,700.5 L530.5,710.5 L520.5,710.5 z" fill-opacity="0" stroke="#000000" stroke-width="1" stroke-linejoin="bevel"/>
    <path d="M610.5,740.5 L640.5,740.5 L640.5,770.5 L610.5,770.5 z" fill-opacity="0" stroke="#000000" stroke-width="1" stroke-linejoin="bevel"/>
    <path d="M560.5,710.5 L600.5,710.5 L600.5,750.5 L560.5,750.5 z" fill-opacity="0" stroke="#000000" stroke-width="1" stroke-linejoin="bevel"/>
    <path d="M570.5,750.5 L600.5,750.5 L600.5,780.5 L570.5,780.5 z" fill-opacity="0" stroke="#000000" stroke-width="1" stroke-linejoin="bevel"/>
    <path d="M580.5,780.5 L600.5,780.5 L600.5,800.5 L580.5,800.5 z" fill-opacity="0" stroke="#000000" stroke-width="1" stroke-linejoin="bevel"/>
    <path d="M600.5,770.5 L630.5,770.5 L630.5,800.5 L600.5,800.5 z" fill-opacity="0" stroke="#000000" stroke-width="1" stroke-linejoin="bevel"/>
    <path d="M630.5,780.5 L650.5,780.5 L650.5,800.5 L630.5,800.5 z" fill-opacity="0" stroke="#000000" stroke-width="1" stroke-linejoin="bevel"/>
    <path d="M650.5,790.5 L660.5,790.5 L660.5,800.5 L650.5,800.5 z" fill-opacity="0" stroke="#000000" stroke-width="1" stroke-linejoin="bevel"/>
    <path d="M570.5,790.5 L580.5,790.5 L580.5,800.5 L570.5,800.5 z" fill-opacity="0" stroke="#000000" stroke-width="1" stroke-linejoin="bevel"/>
    <path d="M490.5,780.5 L500.5,780.5 L500.5,790.5 L490.5,790.5 z" fill-opacity="0" stroke="#000000" stroke-width="1" stroke-linejoin="bevel"/>
    <path d="M410.5,770.5 L440.5,770.5 L440.5,800.5 L410.5,800.5 z" fill-opacity="0" stroke="#000000" stroke-width="1" stroke-linejoin="bevel"/>
    <path d="M440.5,790.5 L450.5,790.5 L450.5,800.5 L440.5,800.5 z" fill-opacity="0" stroke="#000000" stroke-width="1" stroke-linejoin="bevel"/>
    <path d="M680.5,620.5 L710.5,620.5 L710.5,650.5 L680.5,650.5 z" fill-opacity="0" stroke="#000000" stroke-width="1" stroke-linejoin="bevel"/>
    <path d="M690.5,650.5 L710.5,650.5 L710.5,670.5 L690.5,670.5 z" fill-opacity="0" stroke="#000000" stroke-width="1" stroke-linejoin="bevel"/>
    <path d="M700.5,670.5 L710.5,670.5 L710.5,680.5 L700.5,680.5 z" fill-opacity="0" stroke="#000000" stroke-width="1" stroke-linejoin="bevel"/>
    <path d="M680.5,680.5 L690.5,680.5 L690.5,690.5 L680.5,690.5 z" fill-opacity="0" stroke="#000000" stroke-width="1" stroke-linejoin="bevel"/>
    <path d="M710.5,720.5 L730.5,720.5 L730.5,740.5 L710.5,740.5 z" fill-opacity="0" stroke="#000000" stroke-width="1" stroke-linejoin="bevel"/>
    <path d="M730.5,730.5 L740.5,730.5 L740.5,740.5 L730.5,740.5 z" fill-opacity="0" stroke="#000000" stroke-width="1" stroke-linejoin="bevel"/>
    <path d="M740.5,780.5 L760.5,780.5 L760.5,800.5 L740.5,800.5 z" fill-opacity="0" stroke="#000000" stroke-width="1" stroke-linejoin="bevel"/>
    <path d="M760.5,790.5 L770.5,790.5 L770.5,800.5 L760.5,800.5 z" fill-opacity="0" stroke="#000000" stroke-width="1" stroke-linejoin="bevel"/>
    <path d="M700.5,400.5 L800.5,400.5 L800.5,500.5 L700.5,500.5 z" fill-opacity="0" stroke="#000000" stroke-width="1" stroke-linejoin="bevel"/>
    <path d="M610.5,410.5 L700.5,410.5 L700.5,500.5 L610.5,500.5 z" fill-opacity="0" stroke="#000000" stroke-width="1" stroke-linejoin="bevel"/>
    <path d="M530.5,420.5 L610.5,420.5 L610.5,500.5 L530.5,500.5 z" fill-opacity="0" stroke="#000000" stroke-width="1" stroke-linejoin="bevel"/>
    <path d="M460.5,430.5 L530.5,430.5 L530.5,500.5 L460.5,500.5 z" fill-opacity="0" stroke="#000000" stroke-width="1" stroke-linejoin="bevel"/>
    <path d="M400.5,440.5 L460.5,440.5 L460.5,500.5 L400.5,500.5 z" fill-opacity="0" stroke="#000000" stroke-width="1" stroke-linejoin="bevel"/>
    <path d="M350.5,450.5 L400.5,450.5 L400.5,500.5 L350.5,500.5 z" fill-opacity="0" stroke="#000000" stroke-width="1" stroke-linejoin="bevel"/>
    <path d="M310.5,460.5 L350.5,460.5 L350.5,500.5 L310.5,500.5 z" fill-opacity="0" stroke="#000000" stroke-width="1" stroke-linejoin="bevel"/>
    <path d="M280.5,470.5 L310.5,470.5 L310.5,500.5 L280.5,500.5 z" fill-opacity="0" stroke="#000000" stroke-width="1" stroke-linejoin="bevel"/>
    <path d="M260.5,480.5 L280.5,480.5 L280.5,500.5 L260.5,500.5 z" fill-opacity="0" stroke="#000000" stroke-width="1" stroke-linejoin="bevel"/>
    <path d="M250.5,490.5 L260.5,490.5 L260.5,500.5 L250.5,500.5 z" fill-opacity="0" stroke="#000000" stroke-width="1" stroke-linejoin="bevel"/>
    <path d="M700.5,340.5 L760.5,340.5 L760.5,400.5 L700.5,400.5 z" fill-opacity="0" stroke="#000000" stroke-width="1" stroke-linejoin="bevel"/>
    <path d="M760.5,360.5 L800.5,360.5 L800.5,400.5 L760.5,400.5 z" fill-opacity="0" stroke="#000000" stroke-width="1" stroke-linejoin="bevel"/>
    <path d="M770.5,330.5 L800.5,330.5 L800.5,360.5 L770.5,360.5 z" fill-opacity="0" stroke="#000000" stroke-width="1" stroke-linejoin="bevel"/>
    <path d="M780.5,310.5 L800.5,310.5 L800.5,330.5 L780.5,330.5 z" fill-opacity="0" stroke="#000000" stroke-width="1" stroke-linejoin="bevel"/>
    <path d="M700.5,290.5 L750.5,290.5 L750.5,340.5 L700.5,340.5 z" fill-opacity="0" stroke="#000000" stroke-width="1" stroke-linejoin="bevel"/>
    <path d="M700.5,250.5 L740.5,250.5 L740.5,290.5 L700.5,290.5 z" fill-opacity="0" stroke="#000000" stroke-width="1" stroke-linejoin="bevel"/>
    <path d="M700.5,220.5 L730.5,220.5 L730.5,250.5 L700.5,250.5 z" fill-opacity="0" stroke="#000000" stroke-width="1" stroke-linejoin="bevel"/>
    <path d="M750.5,300.5 L780.5,300.5 L780.5,330.5 L750.5,330.5 z" fill-opacity="0" stroke="#000000" stroke-width="1" stroke-linejoin="bevel"/>
    <path d="M760.5,350.5 L770.5,350.5 L770.5,360.5 L760.5,360.5 z" fill-opacity="0" stroke="#000000" stroke-width="1" stroke-linejoin="bevel"/>
    <path d="M790.5,300.5 L800.5,300.5 L800.5,310.5 L790.5,310.5 z" fill-opacity="0" stroke="#000000" stroke-width="1" stroke-linejoin="bevel"/>
    <path d="M740.5,250.5 L770.5,250.5 L770.5,280.5 L740.5,280.5 z" fill-opacity="0" stroke="#000000" stroke-width="1" stroke-linejoin="bevel"/>
    <path d="M770.5,250.5 L790.5,250.5 L790.5,270.5 L770.5,270.5 z" fill-opacity="0" stroke="#000000" stroke-width="1" stroke-linejoin="bevel"/>
    <path d="M790.5,250.5 L800.5,250.5 L800.5,260.5 L790.5,260.5 z" fill-opacity="0" stroke="#000000" stroke-width="1" stroke-linejoin="bevel"/>
    <path d="M730.5,220.5 L750.5,220.5 L750.5,240.5 L730.5,240.5 z" fill-opacity="0" stroke="#000000" stroke-width="1" stroke-linejoin="bevel"/>
    <path d="M750.5,220.5 L760.5,220.5 L760.5,230.5 L750.5,230.5 z" fill-opacity="0" stroke="#000000" stroke-width="1" stroke-linejoin="bevel"/>
    <path d="M770.5,220.5 L800.5,220.5 L800.5,250.5 L770.5,250.5 z" fill-opacity="0" stroke="#000000" stroke-width="1" stroke-linejoin="bevel"/>
    <path d="M750.5,230.5 L770.5,230.5 L770.5,250.5 L750.5,250.5 z" fill-opacity="0" stroke="#000000" stroke-width="1" stroke-linejoin="bevel"/>
    <path d="M740.5,240.5 L750.5,240.5 L750.5,250.5 L740.5,250.5 z" fill-opacity="0" stroke="#000000" stroke-width="1" stroke-linejoin="bevel"/>
    <path d="M720.5,140.5 L800.5,140.5 L800.5,220.5 L720.5,220.5 z" fill-opacity="0" stroke="#000000" stroke-width="1" stroke-linejoin="bevel"/>
    <path d="M660.5,0.5 L800.5,0.5 L800.5,140.5 L660.5,140.5 z" fill-opacity="0" stroke="#000000" stroke-width="1" stroke-linejoin="bevel"/>
    <path d="M620.5,330.5 L700.5,330.5 L700.5,410.5 L620.5,410.5 z" fill-opacity="0" stroke="#000000" stroke-width="1" stroke-linejoin="bevel"/>
    <path d="M630.5,260.5 L700.5,260.5 L700.5,330.5 L630.5,330.5 z" fill-opacity="0" stroke="#000000" stroke-width="1" stroke-linejoin="bevel"/>
    <path d="M700.5,200.5 L720.5,200.5 L720.5,220.5 L700.5,220.5 z" fill-opacity="0" stroke="#000000" stroke-width="1" stroke-linejoin="bevel"/>
    <path d="M710.5,190.5 L720.5,190.5 L720.5,200.5 L710.5,200.5 z" fill-opacity="0" stroke="#000000" stroke-width="1" stroke-linejoin="bevel"/>
    <path d="M690.5,140.5 L720.5,140.5 L720.5,170.5 L690.5,170.5 z" fill-opacity="0" stroke="#000000" stroke-width="1" stroke-linejoin="bevel"/>
    <path d="M700.5,170.5 L720.5,170.5 L720.5,190.5 L700.5,190.5 z" fill-opacity="0" stroke="#000000" stroke-width="1" stroke-linejoin="bevel"/>
    <path d="M660.5,140.5 L680.5,140.5 L680.5,160.5 L660.5,160.5 z" fill-opacity="0" stroke="#000000" stroke-width="1" stroke-linejoin="bevel"/>
    <path d="M680.5,140.5 L690.5,140.5 L690.5,150.5 L680.5,150.5 z" fill-opacity="0" stroke="#000000" stroke-width="1" stroke-linejoin="bevel"/>
    <path d="M640.5,200.5 L700.5,200.5 L700.5,260.5 L640.5,260.5 z" fill-opacity="0" stroke="#000000" stroke-width="1" stroke-linejoin="bevel"/>
    <path d="M650.5,160.5 L690.5,160.5 L690.5,200.5 L650.5,200.5 z" fill-opacity="0" stroke="#000000" stroke-width="1" stroke-linejoin="bevel"/>
    <path d="M470.5,380.5 L520.5,380.5 L520.5,430.5 L470.5,430.5 z" fill-opacity="0" stroke="#000000" stroke-width="1" stroke-linejoin="bevel"/>
    <path d="M480.5,340.5 L520.5,340.5 L520.5,380.5 L480.5,380.5 z" fill-opacity="0" stroke="#000000" stroke-width="1" stroke-linejoin="bevel"/>
    <path d="M410.5,400.5 L450.5,400.5 L450.5,440.5 L410.5,440.5 z" fill-opacity="0" stroke="#000000" stroke-width="1" stroke-linejoin="bevel"/>
    <path d="M420.5,370.5 L450.5,370.5 L450.5,400.5 L420.5,400.5 z" fill-opacity="0" stroke="#000000" stroke-width="1" stroke-linejoin="bevel"/>
    <path d="M360.5,420.5 L390.5,420.5 L390.5,450.5 L360.5,450.5 z" fill-opacity="0" stroke="#000000" stroke-width="1" stroke-linejoin="bevel"/>
    <path d="M370.5,400.5 L390.5,400.5 L390.5,420.5 L370.5,420.5 z" fill-opacity="0" stroke="#000000" stroke-width="1" stroke-linejoin="bevel"/>
    <path d="M380.5,390.5 L390.5,390.5 L390.5,400.5 L380.5,400.5 z" fill-opacity="0" stroke="#000000" stroke-width="1" stroke-linejoin="bevel"/>
    <path d="M430.5,350.5 L450.5,350.5 L450.5,370.5 L430.5,370.5 z" fill-opacity="0" stroke="#000000" stroke-width="1" stroke-linejoin="bevel"/>
    <path d="M490.5,310.5 L520.5,310.5 L520.5,340.5 L490.5,340.5 z" fill-opacity="0" stroke="#000000" stroke-width="1" stroke-linejoin="bevel"/>
    <path d="M500.5,290.5 L520.5,290.5 L520.5,310.5 L500.5,310.5 z" fill-opacity="0" stroke="#000000" stroke-width="1" stroke-linejoin="bevel"/>
    <path d="M510.5,280.5 L520.5,280.5 L520.5,290.5 L510.5,290.5 z" fill-opacity="0" stroke="#000000" stroke-width="1" stroke-linejoin="bevel"/>
    <path d="M450.5,350.5 L480.5,350.5 L480.5,380.5 L450.5,380.5 z" fill-opacity="0" stroke="#000000" stroke-width="1" stroke-linejoin="bevel"/>
    <path d="M450.5,380.5 L470.5,380.5 L470.5,400.5 L450.5,400.5 z" fill-opacity="0" stroke="#000000" stroke-width="1" stroke-linejoin="bevel"/>
    <path d="M450.5,400.5 L460.5,400.5 L460.5,410.5 L450.5,410.5 z" fill-opacity="0" stroke="#000000" stroke-width="1" stroke-linejoin="bevel"/>
    <path d="M390.5,370.5 L420.5,370.5 L420.5,400.5 L390.5,400.5 z" fill-opacity="0" stroke="#000000" stroke-width="1" stroke-linejoin="bevel"/>
    <path d="M390.5,400.5 L410.5,400.5 L410.5,420.5 L390.5,420.5 z" fill-opacity="0" stroke="#000000" stroke-width="1" stroke-linejoin="bevel"/>
    <path d="M390.5,420.5 L400.5,420.5 L400.5,430.5 L390.5,430.5 z" fill-opacity="0" stroke="#000000" stroke-width="1" stroke-linejoin="bevel"/>
    <path d="M520.5,380.5 L560.5,380.5 L560.5,420.5 L520.5,420.5 z" fill-opacity="0" stroke="#000000" stroke-width="1" stroke-linejoin="bevel"/>
    <path d="M560.5,390.5 L590.5,390.5 L590.5,420.5 L560.5,420.5 z" fill-opacity="0" stroke="#000000" stroke-width="1" stroke-linejoin="bevel"/>
    <path d="M590.5,400.5 L610.5,400.5 L610.5,420.5 L590.5,420.5 z" fill-opacity="0" stroke="#000000" stroke-width="1" stroke-linejoin="bevel"/>
    <path d="M610.5,400.5 L620.5,400.5 L620.5,410.5 L610.5,410.5 z" fill-opacity="0" stroke="#000000" stroke-width="1" stroke-linejoin="bevel"/>
    <path d="M590.5,370.5 L620.5,370.5 L620.5,400.5 L590.5,400.5 z" fill-opacity="0" stroke="#000000" stroke-width="1" stroke-linejoin="bevel"/>
    <path d="M600.5,350.5 L620.5,350.5 L620.5,370.5 L600.5,370.5 z" fill-opacity="0" stroke="#000000" stroke-width="1" stroke-linejoin="bevel"/>
    <path d="M610.5,340.5 L620.5,340.5 L620.5,350.5 L610.5,350.5 z" fill-opacity="0" stroke="#000000" stroke-width="1" stroke-linejoin="bevel"/>
    <path d="M520.5,330.5 L570.5,330.5 L570.5,380.5 L520.5,380.5 z" fill-opacity="0" stroke="#000000" stroke-width="1" stroke-linejoin="bevel"/>
    <path d="M570.5,340.5 L600.5,340.5 L600.5,370.5 L570.5,370.5 z" fill-opacity="0" stroke="#000000" stroke-width="1" stroke-linejoin="bevel"/>
    <path d="M520.5,290.5 L560.5,290.5 L560.5,330.5 L520.5,330.5 z" fill-opacity="0" stroke="#000000" stroke-width="1" stroke-linejoin="bevel"/>
    <path d="M520.5,260.5 L550.5,260.5 L550.5,290.5 L520.5,290.5 z" fill-opacity="0" stroke="#000000" stroke-width="1" stroke-linejoin="bevel"/>
    <path d="M250.5,410.5 L310.5,410.5 L310.5,470.5 L250.5,470.5 z" fill-opacity="0" stroke="#000000" stroke-width="1" stroke-linejoin="bevel"/>
    <path d="M250.5,360.5 L300.5,360.5 L300.5,410.5 L250.5,410.5 z" fill-opacity="0" stroke="#000000" stroke-width="1" stroke-linejoin="bevel"/>
    <path d="M250.5,320.5 L290.5,320.5 L290.5,360.5 L250.5,360.5 z" fill-opacity="0" stroke="#000000" stroke-width="1" stroke-linejoin="bevel"/>
    <path d="M250.5,290.5 L280.5,290.5 L280.5,320.5 L250.5,320.5 z" fill-opacity="0" stroke="#000000" stroke-width="1" stroke-linejoin="bevel"/>
    <path d="M250.5,270.5 L270.5,270.5 L270.5,290.5 L250.5,290.5 z" fill-opacity="0" stroke="#000000" stroke-width="1" stroke-linejoin="bevel"/>
    <path d="M250.5,260.5 L260.5,260.5 L260.5,270.5 L250.5,270.5 z" fill-opacity="0" stroke="#000000" stroke-width="1" stroke-linejoin="bevel"/>
    <path d="M310.5,400.5 L360.5,400.5 L360.5,450.5 L310.5,450.5 z" fill-opacity="0" stroke="#000000" stroke-width="1" stroke-linejoin="bevel"/>
    <path d="M300.5,360.5 L340.5,360.5 L340.5,400.5 L300.5,400.5 z" fill-opacity="0" stroke="#000000" stroke-width="1" stroke-linejoin="bevel"/>
    <path d="M290.5,330.5 L320.5,330.5 L320.5,360.5 L290.5,360.5 z" fill-opacity="0" stroke="#000000" stroke-width="1" stroke-linejoin="bevel"/>
    <path d="M320.5,340.5 L340.5,340.5 L340.5,360.5 L320.5,360.5 z" fill-opacity="0" stroke="#000000" stroke-width="1" stroke-linejoin="bevel"/>
    <path d="M320.5,330.5 L330.5,330.5 L330.5,340.5 L320.5,340.5 z" fill-opacity="0" stroke="#000000" stroke-width="1" stroke-linejoin="bevel"/>
    <path d="M290.5,290.5 L330.5,290.5 L330.5,330.5 L290.5,330.5 z" fill-opacity="0" stroke="#000000" stroke-width="1" stroke-linejoin="bevel"/>
    <path d="M270.5,260.5 L300.5,260.5 L300.5,290.5 L270.5,290.5 z" fill-opacity="0" stroke="#000000" stroke-width="1" stroke-linejoin="bevel"/>
    <path d="M250.5,230.5 L280.5,230.5 L280.5,260.5 L250.5,260.5 z" fill-opacity="0" stroke="#000000" stroke-width="1" stroke-linejoin="bevel"/>
    <path d="M300.5,270.5 L320.5,270.5 L320.5,290.5 L300.5,290.5 z" fill-opacity="0" stroke="#000000" stroke-width="1" stroke-linejoin="bevel"/>
    <path d="M320.5,280.5 L330.5,280.5 L330.5,290.5 L320.5,290.5 z" fill-opacity="0" stroke="#000000" stroke-width="1" stroke-linejoin="bevel"/>
    <path d="M280.5,240.5 L300.5,240.5 L300.5,260.5 L280.5,260.5 z" fill-opacity="0" stroke="#000000" stroke-width="1" stroke-linejoin="bevel"/>
    <path d="M300.5,250.5 L320.5,250.5 L320.5,270.5 L300.5,270.5 z" fill-opacity="0" stroke="#000000" stroke-width="1" stroke-linejoin="bevel"/>
    <path d="M320.5,260.5 L340.5,260.5 L340.5,280.5 L320.5,280.5 z" fill-opacity="0" stroke="#000000" stroke-width="1" stroke-linejoin="bevel"/>
    <path d="M340.5,340.5 L390.5,340.5 L390.5,390.5 L340.5,390.5 z" fill-opacity="0" stroke="#000000" stroke-width="1" stroke-linejoin="bevel"/>
    <path d="M390.5,330.5 L430.5,330.5 L430.5,370.5 L390.5,370.5 z" fill-opacity="0" stroke="#000000" stroke-width="1" stroke-linejoin="bevel"/>
    <path d="M330.5,280.5 L390.5,280.5 L390.5,340.5 L330.5,340.5 z" fill-opacity="0" stroke="#000000" stroke-width="1" stroke-linejoin="bevel"/>
    <path d="M390.5,300.5 L420.5,300.5 L420.5,330.5 L390.5,330.5 z" fill-opacity="0" stroke="#000000" stroke-width="1" stroke-linejoin="bevel"/>
    <path d="M390.5,280.5 L410.5,280.5 L410.5,300.5 L390.5,300.5 z" fill-opacity="0" stroke="#000000" stroke-width="1" stroke-linejoin="bevel"/>
    <path d="M430.5,300.5 L480.5,300.5 L480.5,350.5 L430.5,350.5 z" fill-opacity="0" stroke="#000000" stroke-width="1" stroke-linejoin="bevel"/>
    <path d="M440.5,260.5 L480.5,260.5 L480.5,300.5 L440.5,300.5 z" fill-opacity="0" stroke="#000000" stroke-width="1" stroke-linejoin="bevel"/>
    <path d="M450.5,230.5 L480.5,230.5 L480.5,260.5 L450.5,260.5 z" fill-opacity="0" stroke="#000000" stroke-width="1" stroke-linejoin="bevel"/>
    <path d="M460.5,210.5 L480.5,210.5 L480.5,230.5 L460.5,230.5 z" fill-opacity="0" stroke="#000000" stroke-width="1" stroke-linejoin="bevel"/>
    <path d="M480.5,260.5 L510.5,260.5 L510.5,290.5 L480.5,290.5 z" fill-opacity="0" stroke="#000000" stroke-width="1" stroke-linejoin="bevel"/>
    <path d="M480.5,220.5 L520.5,220.5 L520.5,260.5 L480.5,260.5 z" fill-opacity="0" stroke="#000000" stroke-width="1" stroke-linejoin="bevel"/>
    <path d="M520.5,210.5 L570.5,210.5 L570.5,260.5 L520.5,260.5 z" fill-opacity="0" stroke="#000000" stroke-width="1" stroke-linejoin="bevel"/>
    <path d="M550.5,270.5 L570.5,270.5 L570.5,290.5 L550.5,290.5 z" fill-opacity="0" stroke="#000000" stroke-width="1" stroke-linejoin="bevel"/>
    <path d="M560.5,290.5 L570.5,290.5 L570.5,300.5 L560.5,300.5 z" fill-opacity="0" stroke="#000000" stroke-width="1" stroke-linejoin="bevel"/>
    <path d="M570.5,270.5 L630.5,270.5 L630.5,330.5 L570.5,330.5 z" fill-opacity="0" stroke="#000000" stroke-width="1" stroke-linejoin="bevel"/>
    <path d="M570.5,220.5 L620.5,220.5 L620.5,270.5 L570.5,270.5 z" fill-opacity="0" stroke="#000000" stroke-width="1" stroke-linejoin="bevel"/>
    <path d="M570.5,180.5 L610.5,180.5 L610.5,220.5 L570.5,220.5 z" fill-opacity="0" stroke="#000000" stroke-width="1" stroke-linejoin="bevel"/>
    <path d="M610.5,190.5 L640.5,190.5 L640.5,220.5 L610.5,220.5 z" fill-opacity="0" stroke="#000000" stroke-width="1" stroke-linejoin="bevel"/>
    <path d="M620.5,220.5 L640.5,220.5 L640.5,240.5 L620.5,240.5 z" fill-opacity="0" stroke="#000000" stroke-width="1" stroke-linejoin="bevel"/>
    <path d="M630.5,240.5 L640.5,240.5 L640.5,250.5 L630.5,250.5 z" fill-opacity="0" stroke="#000000" stroke-width="1" stroke-linejoin="bevel"/>
    <path d="M610.5,150.5 L650.5,150.5 L650.5,190.5 L610.5,190.5 z" fill-opacity="0" stroke="#000000" stroke-width="1" stroke-linejoin="bevel"/>
    <path d="M590.5,80.5 L660.5,80.5 L660.5,150.5 L590.5,150.5 z" fill-opacity="0" stroke="#000000" stroke-width="1" stroke-linejoin="bevel"/>
    <path d="M580.5,0.5 L660.5,0.5 L660.5,80.5 L580.5,80.5 z" fill-opacity="0" stroke="#000000" stroke-width="1" stroke-linejoin="bevel"/>
    <path d="M580.5,150.5 L610.5,150.5 L610.5,180.5 L580.5,180.5 z" fill-opacity="0" stroke="#000000" stroke-width="1" stroke-linejoin="bevel"/>
    <path d="M510.5,0.5 L580.5,0.5 L580.5,70.5 L510.5,70.5 z" fill-opacity="0" stroke="#000000" stroke-width="1" stroke-linejoin="bevel"/>
    <path d="M150.5,180.5 L220.5,180.5 L220.5,250.5 L150.5,250.5 z" fill-opacity="0" stroke="#000000" stroke-width="1" stroke-linejoin="bevel"/>
    <path d="M220.5,220.5 L250.5,220.5 L250.5,250.5 L220.5,250.5 z" fill-opacity="0" stroke="#000000" stroke-width="1" stroke-linejoin="bevel"/>
    <path d="M220.5,180.5 L260.5,180.5 L260.5,220.5 L220.5,220.5 z" fill-opacity="0" stroke="#000000" stroke-width="1" stroke-linejoin="bevel"/>
    <path d="M260.5,200.5 L290.5,200.5 L290.5,230.5 L260.5,230.5 z" fill-opacity="0" stroke="#000000" stroke-width="1" stroke-linejoin="bevel"/>
    <path d="M100.5,0.5 L160.5,0.5 L160.5,60.5 L100.5,60.5 z" fill-opacity="0" stroke="#000000" stroke-width="1" stroke-linejoin="bevel"/>
    <path d="M100.5,60.5 L140.5,60.5 L140.5,100.5 L100.5,100.5 z" fill-opacity="0" stroke="#000000" stroke-width="1" stroke-linejoin="bevel"/>
    <path d="M150.5,120.5 L210.5,120.5 L210.5,180.5 L150.5,180.5 z" fill-opacity="0" stroke="#000000" stroke-width="1" stroke-linejoin="bevel"/>
    <path d="M210.5,140.5 L250.5,140.5 L250.5,180.5 L210.5,180.5 z" fill-opacity="0" stroke="#000000" stroke-width="1" stroke-linejoin="bevel"/>
    <path d="M140.5,60.5 L170.5,60.5 L170.5,90.5 L140.5,90.5 z" fill-opacity="0" stroke="#000000" stroke-width="1" stroke-linejoin="bevel"/>
    <path d="M150.5,90.5 L180.5,90.5 L180.5,120.5 L150.5,120.5 z" fill-opacity="0" stroke="#000000" stroke-width="1" stroke-linejoin="bevel"/>
    <path d="M160.5,0.5 L210.5,0.5 L210.5,50.5 L160.5,50.5 z" fill-opacity="0" stroke="#000000" stroke-width="1" stroke-linejoin="bevel"/>
    <path d="M210.5,0.5 L250.5,0.5 L250.5,40.5 L210.5,40.5 z" fill-opacity="0" stroke="#000000" stroke-width="1" stroke-linejoin="bevel"/>
    <path d="M170.5,50.5 L200.5,50.5 L200.5,80.5 L170.5,80.5 z" fill-opacity="0" stroke="#000000" stroke-width="1" stroke-linejoin="bevel"/>
    <path d="M180.5,80.5 L220.5,80.5 L220.5,120.5 L180.5,120.5 z" fill-opacity="0" stroke="#000000" stroke-width="1" stroke-linejoin="bevel"/>
    <path d="M210.5,120.5 L230.5,120.5 L230.5,140.5 L210.5,140.5 z" fill-opacity="0" stroke="#000000" stroke-width="1" stroke-linejoin="bevel"/>
    <path d="M230.5,130.5 L240.5,130.5 L240.5,140.5 L230.5,140.5 z" fill-opacity="0" stroke="#000000" stroke-width="1" stroke-linejoin="bevel"/>
    <path d="M210.5,40.5 L230.5,40.5 L230.5,60.5 L210.5,60.5 z" fill-opacity="0" stroke="#000000" stroke-width="1" stroke-linejoin="bevel"/>
    <path d="M230.5,40.5 L240.5,40.5 L240.5,50.5 L230.5,50.5 z" fill-opacity="0" stroke="#000000" stroke-width="1" stroke-linejoin="bevel"/>
    <path d="M220.5,60.5 L270.5,60.5 L270.5,110.5 L220.5,110.5 z" fill-opacity="0" stroke="#000000" stroke-width="1" stroke-linejoin="bevel"/>
    <path d="M240.5,40.5 L260.5,40.5 L260.5,60.5 L240.5,60.5 z" fill-opacity="0" stroke="#000000" stroke-width="1" stroke-linejoin="bevel"/>
    <path d="M250.5,0.5 L280.5,0.5 L280.5,30.5 L250.5,30.5 z" fill-opacity="0" stroke="#000000" stroke-width="1" stroke-linejoin="bevel"/>
    <path d="M260.5,30.5 L290.5,30.5 L290.5,60.5 L260.5,60.5 z" fill-opacity="0" stroke="#000000" stroke-width="1" stroke-linejoin="bevel"/>
    <path d="M200.5,60.5 L220.5,60.5 L220.5,80.5 L200.5,80.5 z" fill-opacity="0" stroke="#000000" stroke-width="1" stroke-linejoin="bevel"/>
    <path d="M240.5,110.5 L270.5,110.5 L270.5,140.5 L240.5,140.5 z" fill-opacity="0" stroke="#000000" stroke-width="1" stroke-linejoin="bevel"/>
    <path d="M250.5,140.5 L290.5,140.5 L290.5,180.5 L250.5,180.5 z" fill-opacity="0" stroke="#000000" stroke-width="1" stroke-linejoin="bevel"/>
    <path d="M260.5,180.5 L280.5,180.5 L280.5,200.5 L260.5,200.5 z" fill-opacity="0" stroke="#000000" stroke-width="1" stroke-linejoin="bevel"/>
    <path d="M280.5,190.5 L290.5,190.5 L290.5,200.5 L280.5,200.5 z" fill-opacity="0" stroke="#000000" stroke-width="1" stroke-linejoin="bevel"/>
    <path d="M270.5,90.5 L320.5,90.5 L320.5,140.5 L270.5,140.5 z" fill-opacity="0" stroke="#000000" stroke-width="1" stroke-linejoin="bevel"/>
    <path d="M270.5,60.5 L300.5,60.5 L300.5,90.5 L270.5,90.5 z" fill-opacity="0" stroke="#000000" stroke-width="1" stroke-linejoin="bevel"/>
    <path d="M300.5,70.5 L320.5,70.5 L320.5,90.5 L300.5,90.5 z" fill-opacity="0" stroke="#000000" stroke-width="1" stroke-linejoin="bevel"/>
    <path d="M300.5,60.5 L310.5,60.5 L310.5,70.5 L300.5,70.5 z" fill-opacity="0" stroke="#000000" stroke-width="1" stroke-linejoin="bevel"/>
    <path d="M290.5,30.5 L320.5,30.5 L320.5,60.5 L290.5,60.5 z" fill-opacity="0" stroke="#000000" stroke-width="1" stroke-linejoin="bevel"/>
    <path d="M280.5,0.5 L300.5,0.5 L300.5,20.5 L280.5,20.5 z" fill-opacity="0" stroke="#000000" stroke-width="1" stroke-linejoin="bevel"/>
    <path d="M290.5,20.5 L300.5,20.5 L300.5,30.5 L290.5,30.5 z" fill-opacity="0" stroke="#000000" stroke-width="1" stroke-linejoin="bevel"/>
    <path d="M300.5,0.5 L330.5,0.5 L330.5,30.5 L300.5,30.5 z" fill-opacity="0" stroke="#000000" stroke-width="1" stroke-linejoin="bevel"/>
    <path d="M330.5,0.5 L350.5,0.5 L350.5,20.5 L330.5,20.5 z" fill-opacity="0" stroke="#000000" stroke-width="1" stroke-linejoin="bevel"/>
    <path d="M340.5,240.5 L380.5,240.5 L380.5,280.5 L340.5,280.5 z" fill-opacity="0" stroke="#000000" stroke-width="1" stroke-linejoin="bevel"/>
    <path d="M410.5,270.5 L440.5,270.5 L440.5,300.5 L410.5,300.5 z" fill-opacity="0" stroke="#000000" stroke-width="1" stroke-linejoin="bevel"/>
    <path d="M380.5,250.5 L410.5,250.5 L410.5,280.5 L380.5,280.5 z" fill-opacity="0" stroke="#000000" stroke-width="1" stroke-linejoin="bevel"/>
    <path d="M410.5,250.5 L430.5,250.5 L430.5,270.5 L410.5,270.5 z" fill-opacity="0" stroke="#000000" stroke-width="1" stroke-linejoin="bevel"/>
    <path d="M430.5,260.5 L440.5,260.5 L440.5,270.5 L430.5,270.5 z" fill-opacity="0" stroke="#000000" stroke-width="1" stroke-linejoin="bevel"/>
    <path d="M430.5,240.5 L450.5,240.5 L450.5,260.5 L430.5,260.5 z" fill-opacity="0" stroke="#000000" stroke-width="1" stroke-linejoin="bevel"/>
    <path d="M550.5,80.5 L590.5,80.5 L590.5,120.5 L550.5,120.5 z" fill-opacity="0" stroke="#000000" stroke-width="1" stroke-linejoin="bevel"/>
    <path d="M560.5,120.5 L590.5,120.5 L590.5,150.5 L560.5,150.5 z" fill-opacity="0" stroke="#000000" stroke-width="1" stroke-linejoin="bevel"/>
    <path d="M570.5,70.5 L580.5,70.5 L580.5,80.5 L570.5,80.5 z" fill-opacity="0" stroke="#000000" stroke-width="1" stroke-linejoin="bevel"/>
    <path d="M450.5,0.5 L510.5,0.5 L510.5,60.5 L450.5,60.5 z" fill-opacity="0" stroke="#000000" stroke-width="1" stroke-linejoin="bevel"/>
    <path d="M410.5,0.5 L450.5,0.5 L450.5,40.5 L410.5,40.5 z" fill-opacity="0" stroke="#000000" stroke-width="1" stroke-linejoin="bevel"/>
    <path d="M380.5,0.5 L410.5,0.5 L410.5,30.5 L380.5,30.5 z" fill-opacity="0" stroke="#000000" stroke-width="1" stroke-linejoin="bevel"/>
    <path d="M360.5,0.5 L380.5,0.5 L380.5,20.5 L360.5,20.5 z" fill-opacity="0" stroke="#000000" stroke-width="1" stroke-linejoin="bevel"/>
    <path d="M350.5,0.5 L360.5,0.5 L360.5,10.5 L350.5,10.5 z" fill-opacity="0" stroke="#000000" stroke-width="1" stroke-linejoin="bevel"/>
    <path d="M330.5,20.5 L380.5,20.5 L380.5,70.5 L330.5,70.5 z" fill-opacity="0" stroke="#000000" stroke-width="1" stroke-linejoin="bevel"/>
    <path d="M320.5,70.5 L360.5,70.5 L360.5,110.5 L320.5,110.5 z" fill-opacity="0" stroke="#000000" stroke-width="1" stroke-linejoin="bevel"/>
    <path d="M380.5,30.5 L410.5,30.5 L410.5,60.5 L380.5,60.5 z" fill-opacity="0" stroke="#000000" stroke-width="1" stroke-linejoin="bevel"/>
    <path d="M410.5,40.5 L430.5,40.5 L430.5,60.5 L410.5,60.5 z" fill-opacity="0" stroke="#000000" stroke-width="1" stroke-linejoin="bevel"/>
    <path d="M430.5,40.5 L440.5,40.5 L440.5,50.5 L430.5,50.5 z" fill-opacity="0" stroke="#000000" stroke-width="1" stroke-linejoin="bevel"/>
    <path d="M290.5,220.5 L310.5,220.5 L310.5,240.5 L290.5,240.5 z" fill-opacity="0" stroke="#000000" stroke-width="1" stroke-linejoin="bevel"/>
    <path d="M310.5,220.5 L340.5,220.5 L340.5,250.5 L310.5,250.5 z" fill-opacity="0" stroke="#000000" stroke-width="1" stroke-linejoin="bevel"/>
    <path d="M290.5,170.5 L340.5,170.5 L340.5,220.5 L290.5,220.5 z" fill-opacity="0" stroke="#000000" stroke-width="1" stroke-linejoin="bevel"/>
    <path d="M290.5,140.5 L320.5,140.5 L320.5,170.5 L290.5,170.5 z" fill-opacity="0" stroke="#000000" stroke-width="1" stroke-linejoin="bevel"/>
    <path d="M320.5,110.5 L380.5,110.5 L380.5,170.5 L320.5,170.5 z" fill-opacity="0" stroke="#000000" stroke-width="1" stroke-linejoin="bevel"/>
    <path d="M340.5,170.5 L370.5,170.5 L370.5,200.5 L340.5,200.5 z" fill-opacity="0" stroke="#000000" stroke-width="1" stroke-linejoin="bevel"/>
    <path d="M340.5,200.5 L360.5,200.5 L360.5,220.5 L340.5,220.5 z" fill-opacity="0" stroke="#000000" stroke-width="1" stroke-linejoin="bevel"/>
    <path d="M340.5,220.5 L350.5,220.5 L350.5,230.5 L340.5,230.5 z" fill-opacity="0" stroke="#000000" stroke-width="1" stroke-linejoin="bevel"/>
    <path d="M360.5,70.5 L390.5,70.5 L390.5,100.5 L360.5,100.5 z" fill-opacity="0" stroke="#000000" stroke-width="1" stroke-linejoin="bevel"/>
    <path d="M390.5,60.5 L420.5,60.5 L420.5,90.5 L390.5,90.5 z" fill-opacity="0" stroke="#000000" stroke-width="1" stroke-linejoin="bevel"/>
    <path d="M430.5,50.5 L450.5,50.5 L450.5,70.5 L430.5,70.5 z" fill-opacity="0" stroke="#000000" stroke-width="1" stroke-linejoin="bevel"/>
    <path d="M420.5,60.5 L430.5,60.5 L430.5,70.5 L420.5,70.5 z" fill-opacity="0" stroke="#000000" stroke-width="1" stroke-linejoin="bevel"/>
    <path d="M560.5,150.5 L580.5,150.5 L580.5,170.5 L560.5,170.5 z" fill-opacity="0" stroke="#000000" stroke-width="1" stroke-linejoin="bevel"/>
    <path d="M570.5,170.5 L580.5,170.5 L580.5,180.5 L570.5,180.5 z" fill-opacity="0" stroke="#000000" stroke-width="1" stroke-linejoin="bevel"/>
    <path d="M530.5,170.5 L570.5,170.5 L570.5,210.5 L530.5,210.5 z" fill-opacity="0" stroke="#000000" stroke-width="1" stroke-linejoin="bevel"/>
    <path d="M530.5,140.5 L560.5,140.5 L560.5,170.5 L530.5,170.5 z" fill-opacity="0" stroke="#000000" stroke-width="1" stroke-linejoin="bevel"/>
    <path d="M540.5,120.5 L560.5,120.5 L560.5,140.5 L540.5,140.5 z" fill-opacity="0" stroke="#000000" stroke-width="1" stroke-linejoin="bevel"/>
    <path d="M540.5,110.5 L550.5,110.5 L550.5,120.5 L540.5,120.5 z" fill-opacity="0" stroke="#000000" stroke-width="1" stroke-linejoin="bevel"/>
    <path d="M510.5,70.5 L550.5,70.5 L550.5,110.5 L510.5,110.5 z" fill-opacity="0" stroke="#000000" stroke-width="1" stroke-linejoin="bevel"/>
    <path d="M470.5,60.5 L510.5,60.5 L510.5,100.5 L470.5,100.5 z" fill-opacity="0" stroke="#000000" stroke-width="1" stroke-linejoin="bevel"/>
    <path d="M450.5,60.5 L470.5,60.5 L470.5,80.5 L450.5,80.5 z" fill-opacity="0" stroke="#000000" stroke-width="1" stroke-linejoin="bevel"/>
    <path d="M420.5,70.5 L450.5,70.5 L450.5,100.5 L420.5,100.5 z" fill-opacity="0" stroke="#000000" stroke-width="1" stroke-linejoin="bevel"/>
    <path d="M450.5,80.5 L460.5,80.5 L460.5,90.5 L450.5,90.5 z" fill-opacity="0" stroke="#000000" stroke-width="1" stroke-linejoin="bevel"/>
    <path d="M350.5,220.5 L370.5,220.5 L370.5,240.5 L350.5,240.5 z" fill-opacity="0" stroke="#000000" stroke-width="1" stroke-linejoin="bevel"/>
    <path d="M380.5,220.5 L410.5,220.5 L410.5,250.5 L380.5,250.5 z" fill-opacity="0" stroke="#000000" stroke-width="1" stroke-linejoin="bevel"/>
    <path d="M360.5,200.5 L380.5,200.5 L380.5,220.5 L360.5,220.5 z" fill-opacity="0" stroke="#000000" stroke-width="1" stroke-linejoin="bevel"/>
    <path d="M370.5,190.5 L380.5,190.5 L380.5,200.5 L370.5,200.5 z" fill-opacity="0" stroke="#000000" stroke-width="1" stroke-linejoin="bevel"/>
    <path d="M410.5,200.5 L450.5,200.5 L450.5,240.5 L410.5,240.5 z" fill-opacity="0" stroke="#000000" stroke-width="1" stroke-linejoin="bevel"/>
    <path d="M480.5,180.5 L520.5,180.5 L520.5,220.5 L480.5,220.5 z" fill-opacity="0" stroke="#000000" stroke-width="1" stroke-linejoin="bevel"/>
    <path d="M510.5,110.5 L540.5,110.5 L540.5,140.5 L510.5,140.5 z" fill-opacity="0" stroke="#000000" stroke-width="1" stroke-linejoin="bevel"/>
    <path d="M510.5,140.5 L530.5,140.5 L530.5,160.5 L510.5,160.5 z" fill-opacity="0" stroke="#000000" stroke-width="1" stroke-linejoin="bevel"/>
    <path d="M510.5,160.5 L520.5,160.5 L520.5,170.5 L510.5,170.5 z" fill-opacity="0" stroke="#000000" stroke-width="1" stroke-linejoin="bevel"/>
    <path d="M460.5,130.5 L510.5,130.5 L510.5,180.5 L460.5,180.5 z" fill-opacity="0" stroke="#000000" stroke-width="1" stroke-linejoin="bevel"/>
    <path d="M480.5,100.5 L510.5,100.5 L510.5,130.5 L480.5,130.5 z" fill-opacity="0" stroke="#000000" stroke-width="1" stroke-linejoin="bevel"/>
    <path d="M450.5,180.5 L480.5,180.5 L480.5,210.5 L450.5,210.5 z" fill-opacity="0" stroke="#000000" stroke-width="1" stroke-linejoin="bevel"/>
    <path d="M430.5,180.5 L450.5,180.5 L450.5,200.5 L430.5,200.5 z" fill-opacity="0" stroke="#000000" stroke-width="1" stroke-linejoin="bevel"/>
    <path d="M420.5,190.5 L430.5,190.5 L430.5,200.5 L420.5,200.5 z" fill-opacity="0" stroke="#000000" stroke-width="1" stroke-linejoin="bevel"/>
    <path d="M380.5,190.5 L410.5,190.5 L410.5,220.5 L380.5,220.5 z" fill-opacity="0" stroke="#000000" stroke-width="1" stroke-linejoin="bevel"/>
    <path d="M370.5,170.5 L390.5,170.5 L390.5,190.5 L370.5,190.5 z" fill-opacity="0" stroke="#000000" stroke-width="1" stroke-linejoin="bevel"/>
    <path d="M450.5,100.5 L480.5,100.5 L480.5,130.5 L450.5,130.5 z" fill-opacity="0" stroke="#000000" stroke-width="1" stroke-linejoin="bevel"/>
    <path d="M420.5,140.5 L460.5,140.5 L460.5,180.5 L420.5,180.5 z" fill-opacity="0" stroke="#000000" stroke-width="1" stroke-linejoin="bevel"/>
    <path d="M390.5,160.5 L420.5,160.5 L420.5,190.5 L390.5,190.5 z" fill-opacity="0" stroke="#000000" stroke-width="1" stroke-linejoin="bevel"/>
    <path d="M380.5,120.5 L420.5,120.5 L420.5,160.5 L380.5,160.5 z" fill-opacity="0" stroke="#000000" stroke-width="1" stroke-linejoin="bevel"/>
    <path d="M420.5,110.5 L450.5,110.5 L450.5,140.5 L420.5,140.5 z" fill-opacity="0" stroke="#000000" stroke-width="1" stroke-linejoin="bevel"/>
    <path d="M390.5,90.5 L420.5,90.5 L420.5,120.5 L390.5,120.5 z" fill-opacity="0" stroke="#000000" stroke-width="1" stroke-linejoin="bevel"/>
    <path d="M420.5,100.5 L430.5,100.5 L430.5,110.5 L420.5,110.5 z" fill-opacity="0" stroke="#000000" stroke-width="1" stroke-linejoin="bevel"/>
    <path d="M770.5,270.5 L800.5,270.5 L800.5,300.5 L770.5,300.5 z" fill-opacity="0" stroke="#000000" stroke-width="1" stroke-linejoin="bevel"/>
    <path d="M750.5,280.5 L770.5,280.5 L770.5,300.5 L750.5,300.5 z" fill-opacity="0" stroke="#000000" stroke-width="1" stroke-linejoin="bevel"/>
    <path d="M750.5,330.5 L760.5,330.5 L760.5,340.5 L750.5,340.5 z" fill-opacity="0" stroke="#000000" stroke-width="1" stroke-linejoin="bevel"/>
    <path d="M570.5,370.5 L590.5,370.5 L590.5,390.5 L570.5,390.5 z" fill-opacity="0" stroke="#000000" stroke-width="1" stroke-linejoin="bevel"/>
    <path d="M480.5,290.5 L500.5,290.5 L500.5,310.5 L480.5,310.5 z" fill-opacity="0" stroke="#000000" stroke-width="1" stroke-linejoin="bevel"/>
    <path d="M480.5,310.5 L490.5,310.5 L490.5,320.5 L480.5,320.5 z" fill-opacity="0" stroke="#000000" stroke-width="1" stroke-linejoin="bevel"/>
    <path d="M450.5,410.5 L470.5,410.5 L470.5,430.5 L450.5,430.5 z" fill-opacity="0" stroke="#000000" stroke-width="1" stroke-linejoin="bevel"/>
    <path d="M300.5,780.5 L320.5,780.5 L320.5,800.5 L300.5,800.5 z" fill-opacity="0" stroke="#000000" stroke-width="1" stroke-linejoin="bevel"/>
    <path d="M320.5,790.5 L330.5,790.5 L330.5,800.5 L320.5,800.5 z" fill-opacity="0" stroke="#000000" stroke-width="1" stroke-linejoin="bevel"/>
    <path d="M450.5,780.5 L470.5,780.5 L470.5,800.5 L450.5,800.5 z" fill-opacity="0" stroke="#000000" stroke-width="1" stroke-linejoin="bevel"/>
    <path d="M470.5,790.5 L480.5,790.5 L480.5,800.5 L470.5,800.5 z" fill-opacity="0" stroke="#000000" stroke-width="1" stroke-linejoin="bevel"/>
    <path d="M530.5,690.5 L550.5,690.5 L550.5,710.5 L530.5,710.5 z" fill-opacity="0" stroke="#000000" stroke-width="1" stroke-linejoin="bevel"/>
    <path d="M540.5,710.5 L550.5,710.5 L550.5,720.5 L540.5,720.5 z" fill-opacity="0" stroke="#000000" stroke-width="1" stroke-linejoin="bevel"/>
  </g>
</svg>
