<?xml version="1.0" encoding="UTF-8"?>
<!DOCTYPE svg PUBLIC "-//W3C//DTD SVG 1.1//EN" "http://www.w3.org/Graphics/SVG/1.1/DTD/svg11.dtd">
<svg version="1.1" xmlns="http://www.w3.org/2000/svg" xmlns:xlink="http://www.w3.org/1999/xlink" x="0" y="0" width="800" height="800" viewBox="0, 0, 800, 800">
  <g id="-background" display="none">
    <path d="M0,-0 L800,-0 L800,800 L0,800 z" fill="#000000"/>
  </g>
  <g id="Layer_2_Copy">
    <path d="M0.5,0.5 L200.5,0.5 L200.5,200.5 L0.5,200.5 z" fill-opacity="0" stroke="#000000" stroke-width="1" stroke-linejoin="bevel"/>
    <path d="M0.5,200.5 L150.5,200.5 L150.5,350.5 L0.5,350.5 z" fill-opacity="0" stroke="#000000" stroke-width="1" stroke-linejoin="bevel"/>
    <path d="M0.5,550.5 L100.5,550.5 L100.5,650.5 L0.5,650.5 z" fill-opacity="0" stroke="#000000" stroke-width="1" stroke-linejoin="bevel"/>
    <path d="M0.5,650.5 L100.5,650.5 L100.5,750.5 L0.5,750.5 z" fill-opacity="0" stroke="#000000" stroke-width="1" stroke-linejoin="bevel"/>
    <path d="M0.5,750.5 L50.5,750.5 L50.5,800.5 L0.5,800.5 z" fill-opacity="0" stroke="#000000" stroke-width="1" stroke-linejoin="bevel"/>
    <path d="M600.5,600.5 L800.5,600.5 L800.5,800.5 L600.5,800.5 z" fill-opacity="0" stroke="#000000" stroke-width="1" stroke-linejoin="bevel"/>
    <path d="M650.5,440.5 L800.5,440.5 L800.5,600.5 L650.5,600.5 z" fill-opacity="0" stroke="#000000" stroke-width="1" stroke-linejoin="bevel"/>
    <path d="M700.5,150.5 L800.5,150.5 L800.5,250.5 L700.5,250.5 z" fill-opacity="0" stroke="#000000" stroke-width="1" stroke-linejoin="bevel"/>
    <path d="M700.5,50.5 L800.5,50.5 L800.5,150.5 L700.5,150.5 z" fill-opacity="0" stroke="#000000" stroke-width="1" stroke-linejoin="bevel"/>
    <path d="M750.5,0.5 L800.5,0.5 L800.5,50.5 L750.5,50.5 z" fill-opacity="0" stroke="#000000" stroke-width="1" stroke-linejoin="bevel"/>
    <path d="M200.5,150.5 L400.5,150.5 L400.5,350.5 L200.5,350.5 z" fill-opacity="0" stroke="#000000" stroke-width="1" stroke-linejoin="bevel"/>
    <path d="M400.5,450.5 L600.5,450.5 L600.5,650.5 L400.5,650.5 z" fill-opacity="0" stroke="#000000" stroke-width="1" stroke-linejoin="bevel"/>
    <path d="M350.5,350.5 L450.5,350.5 L450.5,450.5 L350.5,450.5 z" fill-opacity="0" stroke="#000000" stroke-width="1" stroke-linejoin="bevel"/>
    <path d="M150.5,250.5 L200.5,250.5 L200.5,300.5 L150.5,300.5 z" fill-opacity="0" stroke="#000000" stroke-width="1" stroke-linejoin="bevel"/>
    <path d="M600.5,500.5 L650.5,500.5 L650.5,550.5 L600.5,550.5 z" fill-opacity="0" stroke="#000000" stroke-width="1" stroke-linejoin="bevel"/>
    <path d="M400.5,250.5 L500.5,250.5 L500.5,350.5 L400.5,350.5 z" fill-opacity="0" stroke="#000000" stroke-width="1" stroke-linejoin="bevel"/>
    <path d="M300.5,450.5 L400.5,450.5 L400.5,550.5 L300.5,550.5 z" fill-opacity="0" stroke="#000000" stroke-width="1" stroke-linejoin="bevel"/>
    <path d="M600.5,550.5 L650.5,550.5 L650.5,600.5 L600.5,600.5 z" fill-opacity="0" stroke="#000000" stroke-width="1" stroke-linejoin="bevel"/>
    <path d="M150.5,200.5 L200.5,200.5 L200.5,250.5 L150.5,250.5 z" fill-opacity="0" stroke="#000000" stroke-width="1" stroke-linejoin="bevel"/>
    <path d="M500.5,200.5 L600.5,200.5 L600.5,300.5 L500.5,300.5 z" fill-opacity="0" stroke="#000000" stroke-width="1" stroke-linejoin="bevel"/>
    <path d="M200.5,500.5 L300.5,500.5 L300.5,600.5 L200.5,600.5 z" fill-opacity="0" stroke="#000000" stroke-width="1" stroke-linejoin="bevel"/>
    <path d="M150.5,550.5 L200.5,550.5 L200.5,600.5 L150.5,600.5 z" fill-opacity="0" stroke="#000000" stroke-width="1" stroke-linejoin="bevel"/>
    <path d="M600.5,200.5 L650.5,200.5 L650.5,250.5 L600.5,250.5 z" fill-opacity="0" stroke="#000000" stroke-width="1" stroke-linejoin="bevel"/>
    <path d="M200.5,0.5 L350.5,0.5 L350.5,150.5 L200.5,150.5 z" fill-opacity="0" stroke="#000000" stroke-width="1" stroke-linejoin="bevel"/>
    <path d="M450.5,650.5 L600.5,650.5 L600.5,800.5 L450.5,800.5 z" fill-opacity="0" stroke="#000000" stroke-width="1" stroke-linejoin="bevel"/>
    <path d="M400.5,150.5 L500.5,150.5 L500.5,250.5 L400.5,250.5 z" fill-opacity="0" stroke="#000000" stroke-width="1" stroke-linejoin="bevel"/>
    <path d="M300.5,550.5 L400.5,550.5 L400.5,650.5 L300.5,650.5 z" fill-opacity="0" stroke="#000000" stroke-width="1" stroke-linejoin="bevel"/>
    <path d="M0.5,350.5 L200.5,350.5 L200.5,550.5 L0.5,550.5 z" fill-opacity="0" stroke="#000000" stroke-width="1" stroke-linejoin="bevel"/>
    <path d="M600.5,250.5 L800.5,250.5 L800.5,440.5 L600.5,440.5 z" fill-opacity="0" stroke="#000000" stroke-width="1" stroke-linejoin="bevel"/>
    <path d="M700.5,0.5 L750.5,0.5 L750.5,50.5 L700.5,50.5 z" fill-opacity="0" stroke="#000000" stroke-width="1" stroke-linejoin="bevel"/>
    <path d="M50.5,750.5 L100.5,750.5 L100.5,800.5 L50.5,800.5 z" fill-opacity="0" stroke="#000000" stroke-width="1" stroke-linejoin="bevel"/>
    <path d="M100.5,600.5 L300.5,600.5 L300.5,800.5 L100.5,800.5 z" fill-opacity="0" stroke="#000000" stroke-width="1" stroke-linejoin="bevel"/>
    <path d="M300.5,650.5 L450.5,650.5 L450.5,800.5 L300.5,800.5 z" fill-opacity="0" stroke="#000000" stroke-width="1" stroke-linejoin="bevel"/>
    <path d="M500.5,0.5 L700.5,0.5 L700.5,200.5 L500.5,200.5 z" fill-opacity="0" stroke="#000000" stroke-width="1" stroke-linejoin="bevel"/>
    <path d="M350.5,0.5 L500.5,0.5 L500.5,150.5 L350.5,150.5 z" fill-opacity="0" stroke="#000000" stroke-width="1" stroke-linejoin="bevel"/>
  </g>
</svg>
