<?xml version="1.0" encoding="UTF-8"?>
<!DOCTYPE svg PUBLIC "-//W3C//DTD SVG 1.1//EN" "http://www.w3.org/Graphics/SVG/1.1/DTD/svg11.dtd">
<svg version="1.1" xmlns="http://www.w3.org/2000/svg" xmlns:xlink="http://www.w3.org/1999/xlink" x="0" y="0" width="800" height="800" viewBox="0, 0, 800, 800">
  <g id="Layer_6">
    <g>
      <path d="M290,380 L360,380 L360,500 L290,500 z" fill="#D4D4D4"/>
      <path d="M360,420 L510,420 L510,500 L360,500 z" fill="#9C9C9C"/>
      <path d="M440,300 L510,300 L510,420 L440,420 z" fill="#D4D4D4"/>
      <path d="M290,300 L440,300 L440,380 L290,380 z" fill="#9C9C9C"/>
      <path d="M360,380 L440,380 L440,420 L360,420 z" fill="#747474"/>
    </g>
    <g>
      <path d="M200,500 L260,500 L260,650 L200,650 z" fill="#979797"/>
      <path d="M260,500 L320,500 L320,610 L260,610 z" fill="#A9A9A9"/>
      <path d="M320,500 L380,500 L380,580 L320,580 z" fill="#B9B9B9"/>
      <path d="M380,500 L440,500 L440,580 L380,580 z" fill="#C5C5C5"/>
      <path d="M440,500 L490,500 L490,570 L440,570 z" fill="#D5D5D5"/>
      <path d="M490,500 L510,500 L510,550 L490,550 z" fill="#DFDFDF"/>
      <path d="M200,650 L320,650 L320,730 L200,730 z" fill="#575757"/>
      <path d="M260,610 L380,610 L380,650 L260,650 z" fill="#909090"/>
      <path d="M320,580 L440,580 L440,610 L320,610 z" fill="#FEFEFE"/>
      <path d="M490,550 L510,550 L510,570 L490,570 z" fill="#E9E9E9"/>
      <path d="M440,570 L480,570 L480,650 L440,650 z" fill="#FAFAFA"/>
      <path d="M480,570 L510,570 L510,610 L480,610 z" fill="#F3F3F3"/>
      <path d="M380,610 L440,610 L440,680 L380,680 z" fill="#888888"/>
      <path d="M450,710 L530,710 L530,800 L450,800 z" fill="#202020"/>
      <path d="M390,730 L450,730 L450,800 L390,800 z" fill="#2B2B2B"/>
      <path d="M290,730 L390,730 L390,800 L290,800 z" fill="#363636"/>
      <path d="M200,730 L290,730 L290,770 L200,770 z" fill="#4E4E4E"/>
      <path d="M200,770 L250,770 L250,800 L200,800 z" fill="#484848"/>
      <path d="M250,770 L290,770 L290,800 L250,800 z" fill="#3F3F3F"/>
      <path d="M320,650 L380,650 L380,730 L320,730 z" fill="#5F5F5F"/>
      <path d="M380,680 L450,680 L450,730 L380,730 z" fill="#676767"/>
      <path d="M440,650 L470,650 L470,680 L440,680 z" fill="#818181"/>
      <path d="M450,680 L530,680 L530,710 L450,710 z" fill="#6F6F6F"/>
      <path d="M470,650 L530,650 L530,680 L470,680 z" fill="#797979"/>
      <path d="M480,610 L510,610 L510,650 L480,650 z" fill="#F8F8F8"/>
    </g>
    <g>
      <path d="M600,300 L540,300 L540,150 L600,150 z" fill="#979797"/>
      <path d="M540,300 L480,300 L480,190 L540,190 z" fill="#A9A9A9"/>
      <path d="M480,300 L420,300 L420,220 L480,220 z" fill="#B9B9B9"/>
      <path d="M420,300 L360,300 L360,220 L420,220 z" fill="#C5C5C5"/>
      <path d="M360,300 L310,300 L310,230 L360,230 z" fill="#D5D5D5"/>
      <path d="M310,300 L290,300 L290,250 L310,250 z" fill="#DFDFDF"/>
      <path d="M600,150 L480,150 L480,70 L600,70 z" fill="#575757"/>
      <path d="M540,190 L420,190 L420,150 L540,150 z" fill="#909090"/>
      <path d="M480,220 L360,220 L360,190 L480,190 z" fill="#FEFEFE"/>
      <path d="M310,250 L290,250 L290,230 L310,230 z" fill="#E9E9E9"/>
      <path d="M360,230 L320,230 L320,150 L360,150 z" fill="#FAFAFA"/>
      <path d="M320,230 L290,230 L290,190 L320,190 z" fill="#F3F3F3"/>
      <path d="M420,190 L360,190 L360,120 L420,120 z" fill="#888888"/>
      <path d="M350,90 L270,90 L270,0 L350,0 z" fill="#202020"/>
      <path d="M410,70 L350,70 L350,-0 L410,-0 z" fill="#2B2B2B"/>
      <path d="M510,70 L410,70 L410,0 L510,0 z" fill="#363636"/>
      <path d="M600,70 L510,70 L510,30 L600,30 z" fill="#4E4E4E"/>
      <path d="M600,30 L550,30 L550,0 L600,0 z" fill="#484848"/>
      <path d="M550,30 L510,30 L510,0 L550,0 z" fill="#3F3F3F"/>
      <path d="M480,150 L420,150 L420,70 L480,70 z" fill="#5F5F5F"/>
      <path d="M420,120 L350,120 L350,70 L420,70 z" fill="#676767"/>
      <path d="M360,150 L330,150 L330,120 L360,120 z" fill="#818181"/>
      <path d="M350,120 L270,120 L270,90 L350,90 z" fill="#6F6F6F"/>
      <path d="M330,150 L270,150 L270,120 L330,120 z" fill="#797979"/>
      <path d="M320,190 L290,190 L290,150 L320,150 z" fill="#F8F8F8"/>
    </g>
    <g>
      <path d="M0,500 L200,500 L200,800 L0,800 z" fill="#626262"/>
      <path d="M0,300 L150,300 L150,500 L0,500 z" fill="#7E7E7E"/>
      <path d="M150,330 L220,330 L220,500 L150,500 z" fill="#949494"/>
      <path d="M220,360 L290,360 L290,500 L220,500 z" fill="#B1B1B1"/>
      <path d="M290,360 L220,360 L220,270 L290,270 z" fill="#C9C9C9"/>
      <path d="M220,330 L150,330 L150,250 L220,250 z" fill="#E5E5E5"/>
    </g>
    <g>
      <path d="M800,300 L600,300 L600,0 L800,0 z" fill="#626262"/>
      <path d="M800,500 L650,500 L650,300 L800,300 z" fill="#7E7E7E"/>
      <path d="M650,470 L580,470 L580,300 L650,300 z" fill="#949494"/>
      <path d="M580,440 L510,440 L510,300 L580,300 z" fill="#B1B1B1"/>
      <path d="M510,440 L580,440 L580,530 L510,530 z" fill="#C9C9C9"/>
      <path d="M580,470 L650,470 L650,550 L580,550 z" fill="#E5E5E5"/>
    </g>
    <g>
      <path d="M100,300 L0,300 L0,150 L100,150 z" fill="#939393"/>
      <path d="M70,150 L-0,150 L-0,50 L70,50 z" fill="#7E7E7E"/>
      <path d="M150,300 L100,300 L100,210 L150,210 z" fill="#9D9D9D"/>
      <path d="M40,50 L0,50 L0,-0 L40,-0 z" fill="#232323"/>
      <path d="M290,270 L220,270 L220,190 L290,190 z" fill="#EFEFEF"/>
      <path d="M220,250 L190,250 L190,210 L220,210 z" fill="#E1E1E1"/>
      <path d="M190,250 L150,250 L150,180 L190,180 z" fill="#DBDBDB"/>
      <path d="M150,210 L100,210 L100,160 L150,160 z" fill="#A8A8A8"/>
      <path d="M220,210 L190,210 L190,180 L220,180 z" fill="#E9E9E9"/>
      <path d="M150,50 L40,50 L40,0 L150,0 z" fill="#464646"/>
      <path d="M150,110 L70,110 L70,50 L150,50 z" fill="#676767"/>
      <path d="M100,150 L70,150 L70,110 L100,110 z" fill="#777777"/>
      <path d="M170,160 L100,160 L100,110 L170,110 z" fill="#B6B6B6"/>
      <path d="M200,180 L150,180 L150,160 L200,160 z" fill="#D3D3D3"/>
      <path d="M270,110 L150,110 L150,-0 L270,-0 z" fill="#595959"/>
      <path d="M270,160 L170,160 L170,110 L270,110 z" fill="#BFBFBF"/>
      <path d="M220,180 L200,180 L200,160 L220,160 z" fill="#CBCBCB"/>
      <path d="M270,190 L220,190 L220,160 L270,160 z" fill="#C6C6C6"/>
      <path d="M290,170 L270,170 L270,150 L290,150 z" fill="#FAFAFA"/>
      <path d="M290,190 L270,190 L270,170 L290,170 z" fill="#F5F5F5"/>
    </g>
    <g>
      <path d="M700,500 L800,500 L800,650 L700,650 z" fill="#939393"/>
      <path d="M730,650 L800,650 L800,750 L730,750 z" fill="#7E7E7E"/>
      <path d="M650,500 L700,500 L700,590 L650,590 z" fill="#9D9D9D"/>
      <path d="M760,750 L800,750 L800,800 L760,800 z" fill="#232323"/>
      <path d="M510,530 L580,530 L580,610 L510,610 z" fill="#EFEFEF"/>
      <path d="M580,550 L610,550 L610,590 L580,590 z" fill="#E1E1E1"/>
      <path d="M610,550 L650,550 L650,620 L610,620 z" fill="#DBDBDB"/>
      <path d="M650,590 L700,590 L700,640 L650,640 z" fill="#A8A8A8"/>
      <path d="M580,590 L610,590 L610,620 L580,620 z" fill="#E9E9E9"/>
      <path d="M650,750 L760,750 L760,800 L650,800 z" fill="#464646"/>
      <path d="M650,690 L730,690 L730,750 L650,750 z" fill="#676767"/>
      <path d="M700,650 L730,650 L730,690 L700,690 z" fill="#777777"/>
      <path d="M630,640 L700,640 L700,690 L630,690 z" fill="#B6B6B6"/>
      <path d="M600,620 L650,620 L650,640 L600,640 z" fill="#D3D3D3"/>
      <path d="M530,690 L650,690 L650,800 L530,800 z" fill="#595959"/>
      <path d="M530,640 L630,640 L630,690 L530,690 z" fill="#BFBFBF"/>
      <path d="M580,620 L600,620 L600,640 L580,640 z" fill="#CBCBCB"/>
      <path d="M530,610 L580,610 L580,640 L530,640 z" fill="#C6C6C6"/>
      <path d="M510,630 L530,630 L530,650 L510,650 z" fill="#FAFAFA"/>
      <path d="M510,610 L530,610 L530,630 L510,630 z" fill="#F5F5F5"/>
    </g>
  </g>
</svg>
