<?xml version="1.0" encoding="UTF-8"?>
<!DOCTYPE svg PUBLIC "-//W3C//DTD SVG 1.1//EN" "http://www.w3.org/Graphics/SVG/1.1/DTD/svg11.dtd">
<svg version="1.1" xmlns="http://www.w3.org/2000/svg" xmlns:xlink="http://www.w3.org/1999/xlink" x="0" y="0" width="2240" height="400" viewBox="0, 0, 2240, 400">
  <g id="Background">
    <rect x="0" y="0" width="2240" height="400" fill="#FFFFFF"/>
    <g stroke-width="1px">
      <line x1="10" y1="0" x2="10" y2="400" stroke="#AAAAAA" stroke-opacity="0.25"/>
      <line x1="20" y1="0" x2="20" y2="400" stroke="#AAAAAA" stroke-opacity="0.25"/>
      <line x1="30" y1="0" x2="30" y2="400" stroke="#AAAAAA" stroke-opacity="0.25"/>
      <line x1="40" y1="0" x2="40" y2="400" stroke="#AAAAAA" stroke-opacity="0.25"/>
      <line x1="50" y1="0" x2="50" y2="400" stroke="#AAAAAA" stroke-opacity="0.25"/>
      <line x1="60" y1="0" x2="60" y2="400" stroke="#AAAAAA" stroke-opacity="0.25"/>
      <line x1="70" y1="0" x2="70" y2="400" stroke="#AAAAAA" stroke-opacity="0.25"/>
      <line x1="80" y1="0" x2="80" y2="400" stroke="#AAAAAA" stroke-opacity="0.25"/>
      <line x1="90" y1="0" x2="90" y2="400" stroke="#AAAAAA" stroke-opacity="0.25"/>
      <line x1="100" y1="0" x2="100" y2="400" stroke="#AAAAAA" stroke-opacity="0.5"/>
      <line x1="110" y1="0" x2="110" y2="400" stroke="#AAAAAA" stroke-opacity="0.25"/>
      <line x1="120" y1="0" x2="120" y2="400" stroke="#AAAAAA" stroke-opacity="0.25"/>
      <line x1="130" y1="0" x2="130" y2="400" stroke="#AAAAAA" stroke-opacity="0.25"/>
      <line x1="140" y1="0" x2="140" y2="400" stroke="#AAAAAA" stroke-opacity="0.25"/>
      <line x1="150" y1="0" x2="150" y2="400" stroke="#AAAAAA" stroke-opacity="0.25"/>
      <line x1="160" y1="0" x2="160" y2="400" stroke="#AAAAAA" stroke-opacity="0.25"/>
      <line x1="170" y1="0" x2="170" y2="400" stroke="#AAAAAA" stroke-opacity="0.25"/>
      <line x1="180" y1="0" x2="180" y2="400" stroke="#AAAAAA" stroke-opacity="0.25"/>
      <line x1="190" y1="0" x2="190" y2="400" stroke="#AAAAAA" stroke-opacity="0.25"/>
      <line x1="200" y1="0" x2="200" y2="400" stroke="#AAAAAA" stroke-opacity="0.5"/>
      <line x1="210" y1="0" x2="210" y2="400" stroke="#AAAAAA" stroke-opacity="0.25"/>
      <line x1="220" y1="0" x2="220" y2="400" stroke="#AAAAAA" stroke-opacity="0.25"/>
      <line x1="230" y1="0" x2="230" y2="400" stroke="#AAAAAA" stroke-opacity="0.25"/>
      <line x1="240" y1="0" x2="240" y2="400" stroke="#AAAAAA" stroke-opacity="0.25"/>
      <line x1="250" y1="0" x2="250" y2="400" stroke="#AAAAAA" stroke-opacity="0.25"/>
      <line x1="260" y1="0" x2="260" y2="400" stroke="#AAAAAA" stroke-opacity="0.25"/>
      <line x1="270" y1="0" x2="270" y2="400" stroke="#AAAAAA" stroke-opacity="0.25"/>
      <line x1="280" y1="0" x2="280" y2="400" stroke="#AAAAAA" stroke-opacity="0.25"/>
      <line x1="290" y1="0" x2="290" y2="400" stroke="#AAAAAA" stroke-opacity="0.25"/>
      <line x1="300" y1="0" x2="300" y2="400" stroke="#AAAAAA" stroke-opacity="0.5"/>
      <line x1="310" y1="0" x2="310" y2="400" stroke="#AAAAAA" stroke-opacity="0.25"/>
      <line x1="320" y1="0" x2="320" y2="400" stroke="#AAAAAA" stroke-opacity="0.25"/>
      <line x1="330" y1="0" x2="330" y2="400" stroke="#AAAAAA" stroke-opacity="0.25"/>
      <line x1="340" y1="0" x2="340" y2="400" stroke="#AAAAAA" stroke-opacity="0.25"/>
      <line x1="350" y1="0" x2="350" y2="400" stroke="#AAAAAA" stroke-opacity="0.25"/>
      <line x1="360" y1="0" x2="360" y2="400" stroke="#AAAAAA" stroke-opacity="0.25"/>
      <line x1="370" y1="0" x2="370" y2="400" stroke="#AAAAAA" stroke-opacity="0.25"/>
      <line x1="380" y1="0" x2="380" y2="400" stroke="#AAAAAA" stroke-opacity="0.25"/>
      <line x1="390" y1="0" x2="390" y2="400" stroke="#AAAAAA" stroke-opacity="0.25"/>
      <line x1="400" y1="0" x2="400" y2="400" stroke="#AAAAAA" stroke-opacity="0.5"/>
      <line x1="410" y1="0" x2="410" y2="400" stroke="#AAAAAA" stroke-opacity="0.25"/>
      <line x1="420" y1="0" x2="420" y2="400" stroke="#AAAAAA" stroke-opacity="0.25"/>
      <line x1="430" y1="0" x2="430" y2="400" stroke="#AAAAAA" stroke-opacity="0.25"/>
      <line x1="440" y1="0" x2="440" y2="400" stroke="#AAAAAA" stroke-opacity="0.25"/>
      <line x1="450" y1="0" x2="450" y2="400" stroke="#AAAAAA" stroke-opacity="0.25"/>
      <line x1="460" y1="0" x2="460" y2="400" stroke="#AAAAAA" stroke-opacity="0.25"/>
      <line x1="470" y1="0" x2="470" y2="400" stroke="#AAAAAA" stroke-opacity="0.25"/>
      <line x1="480" y1="0" x2="480" y2="400" stroke="#AAAAAA" stroke-opacity="0.25"/>
      <line x1="490" y1="0" x2="490" y2="400" stroke="#AAAAAA" stroke-opacity="0.25"/>
      <line x1="500" y1="0" x2="500" y2="400" stroke="#AAAAAA" stroke-opacity="0.5"/>
      <line x1="510" y1="0" x2="510" y2="400" stroke="#AAAAAA" stroke-opacity="0.25"/>
      <line x1="520" y1="0" x2="520" y2="400" stroke="#AAAAAA" stroke-opacity="0.25"/>
      <line x1="530" y1="0" x2="530" y2="400" stroke="#AAAAAA" stroke-opacity="0.25"/>
      <line x1="540" y1="0" x2="540" y2="400" stroke="#AAAAAA" stroke-opacity="0.25"/>
      <line x1="550" y1="0" x2="550" y2="400" stroke="#AAAAAA" stroke-opacity="0.25"/>
      <line x1="560" y1="0" x2="560" y2="400" stroke="#AAAAAA" stroke-opacity="0.25"/>
      <line x1="570" y1="0" x2="570" y2="400" stroke="#AAAAAA" stroke-opacity="0.25"/>
      <line x1="580" y1="0" x2="580" y2="400" stroke="#AAAAAA" stroke-opacity="0.25"/>
      <line x1="590" y1="0" x2="590" y2="400" stroke="#AAAAAA" stroke-opacity="0.25"/>
      <line x1="600" y1="0" x2="600" y2="400" stroke="#AAAAAA" stroke-opacity="0.5"/>
      <line x1="610" y1="0" x2="610" y2="400" stroke="#AAAAAA" stroke-opacity="0.25"/>
      <line x1="620" y1="0" x2="620" y2="400" stroke="#AAAAAA" stroke-opacity="0.25"/>
      <line x1="630" y1="0" x2="630" y2="400" stroke="#AAAAAA" stroke-opacity="0.25"/>
      <line x1="640" y1="0" x2="640" y2="400" stroke="#AAAAAA" stroke-opacity="0.25"/>
      <line x1="650" y1="0" x2="650" y2="400" stroke="#AAAAAA" stroke-opacity="0.25"/>
      <line x1="660" y1="0" x2="660" y2="400" stroke="#AAAAAA" stroke-opacity="0.25"/>
      <line x1="670" y1="0" x2="670" y2="400" stroke="#AAAAAA" stroke-opacity="0.25"/>
      <line x1="680" y1="0" x2="680" y2="400" stroke="#AAAAAA" stroke-opacity="0.25"/>
      <line x1="690" y1="0" x2="690" y2="400" stroke="#AAAAAA" stroke-opacity="0.25"/>
      <line x1="700" y1="0" x2="700" y2="400" stroke="#AAAAAA" stroke-opacity="0.5"/>
      <line x1="710" y1="0" x2="710" y2="400" stroke="#AAAAAA" stroke-opacity="0.25"/>
      <line x1="720" y1="0" x2="720" y2="400" stroke="#AAAAAA" stroke-opacity="0.25"/>
      <line x1="730" y1="0" x2="730" y2="400" stroke="#AAAAAA" stroke-opacity="0.25"/>
      <line x1="740" y1="0" x2="740" y2="400" stroke="#AAAAAA" stroke-opacity="0.25"/>
      <line x1="750" y1="0" x2="750" y2="400" stroke="#AAAAAA" stroke-opacity="0.25"/>
      <line x1="760" y1="0" x2="760" y2="400" stroke="#AAAAAA" stroke-opacity="0.25"/>
      <line x1="770" y1="0" x2="770" y2="400" stroke="#AAAAAA" stroke-opacity="0.25"/>
      <line x1="780" y1="0" x2="780" y2="400" stroke="#AAAAAA" stroke-opacity="0.25"/>
      <line x1="790" y1="0" x2="790" y2="400" stroke="#AAAAAA" stroke-opacity="0.25"/>
      <line x1="800" y1="0" x2="800" y2="400" stroke="#AAAAAA" stroke-opacity="0.5"/>
      <line x1="810" y1="0" x2="810" y2="400" stroke="#AAAAAA" stroke-opacity="0.25"/>
      <line x1="820" y1="0" x2="820" y2="400" stroke="#AAAAAA" stroke-opacity="0.25"/>
      <line x1="830" y1="0" x2="830" y2="400" stroke="#AAAAAA" stroke-opacity="0.25"/>
      <line x1="840" y1="0" x2="840" y2="400" stroke="#AAAAAA" stroke-opacity="0.25"/>
      <line x1="850" y1="0" x2="850" y2="400" stroke="#AAAAAA" stroke-opacity="0.25"/>
      <line x1="860" y1="0" x2="860" y2="400" stroke="#AAAAAA" stroke-opacity="0.25"/>
      <line x1="870" y1="0" x2="870" y2="400" stroke="#AAAAAA" stroke-opacity="0.25"/>
      <line x1="880" y1="0" x2="880" y2="400" stroke="#AAAAAA" stroke-opacity="0.25"/>
      <line x1="890" y1="0" x2="890" y2="400" stroke="#AAAAAA" stroke-opacity="0.25"/>
      <line x1="900" y1="0" x2="900" y2="400" stroke="#AAAAAA" stroke-opacity="0.5"/>
      <line x1="910" y1="0" x2="910" y2="400" stroke="#AAAAAA" stroke-opacity="0.25"/>
      <line x1="920" y1="0" x2="920" y2="400" stroke="#AAAAAA" stroke-opacity="0.25"/>
      <line x1="930" y1="0" x2="930" y2="400" stroke="#AAAAAA" stroke-opacity="0.25"/>
      <line x1="940" y1="0" x2="940" y2="400" stroke="#AAAAAA" stroke-opacity="0.25"/>
      <line x1="950" y1="0" x2="950" y2="400" stroke="#AAAAAA" stroke-opacity="0.25"/>
      <line x1="960" y1="0" x2="960" y2="400" stroke="#AAAAAA" stroke-opacity="0.25"/>
      <line x1="970" y1="0" x2="970" y2="400" stroke="#AAAAAA" stroke-opacity="0.25"/>
      <line x1="980" y1="0" x2="980" y2="400" stroke="#AAAAAA" stroke-opacity="0.25"/>
      <line x1="990" y1="0" x2="990" y2="400" stroke="#AAAAAA" stroke-opacity="0.25"/>
      <line x1="1000" y1="0" x2="1000" y2="400" stroke="#AAAAAA" stroke-opacity="0.5"/>
      <line x1="1010" y1="0" x2="1010" y2="400" stroke="#AAAAAA" stroke-opacity="0.25"/>
      <line x1="1020" y1="0" x2="1020" y2="400" stroke="#AAAAAA" stroke-opacity="0.25"/>
      <line x1="1030" y1="0" x2="1030" y2="400" stroke="#AAAAAA" stroke-opacity="0.25"/>
      <line x1="1040" y1="0" x2="1040" y2="400" stroke="#AAAAAA" stroke-opacity="0.25"/>
      <line x1="1050" y1="0" x2="1050" y2="400" stroke="#AAAAAA" stroke-opacity="0.25"/>
      <line x1="1060" y1="0" x2="1060" y2="400" stroke="#AAAAAA" stroke-opacity="0.25"/>
      <line x1="1070" y1="0" x2="1070" y2="400" stroke="#AAAAAA" stroke-opacity="0.25"/>
      <line x1="1080" y1="0" x2="1080" y2="400" stroke="#AAAAAA" stroke-opacity="0.25"/>
      <line x1="1090" y1="0" x2="1090" y2="400" stroke="#AAAAAA" stroke-opacity="0.25"/>
      <line x1="1100" y1="0" x2="1100" y2="400" stroke="#AAAAAA" stroke-opacity="0.5"/>
      <line x1="1110" y1="0" x2="1110" y2="400" stroke="#AAAAAA" stroke-opacity="0.25"/>
      <line x1="1120" y1="0" x2="1120" y2="400" stroke="#AAAAAA" stroke-opacity="0.25"/>
      <line x1="1130" y1="0" x2="1130" y2="400" stroke="#AAAAAA" stroke-opacity="0.25"/>
      <line x1="1140" y1="0" x2="1140" y2="400" stroke="#AAAAAA" stroke-opacity="0.25"/>
      <line x1="1150" y1="0" x2="1150" y2="400" stroke="#AAAAAA" stroke-opacity="0.25"/>
      <line x1="1160" y1="0" x2="1160" y2="400" stroke="#AAAAAA" stroke-opacity="0.25"/>
      <line x1="1170" y1="0" x2="1170" y2="400" stroke="#AAAAAA" stroke-opacity="0.25"/>
      <line x1="1180" y1="0" x2="1180" y2="400" stroke="#AAAAAA" stroke-opacity="0.25"/>
      <line x1="1190" y1="0" x2="1190" y2="400" stroke="#AAAAAA" stroke-opacity="0.25"/>
      <line x1="1200" y1="0" x2="1200" y2="400" stroke="#AAAAAA" stroke-opacity="0.5"/>
      <line x1="1210" y1="0" x2="1210" y2="400" stroke="#AAAAAA" stroke-opacity="0.25"/>
      <line x1="1220" y1="0" x2="1220" y2="400" stroke="#AAAAAA" stroke-opacity="0.25"/>
      <line x1="1230" y1="0" x2="1230" y2="400" stroke="#AAAAAA" stroke-opacity="0.25"/>
      <line x1="1240" y1="0" x2="1240" y2="400" stroke="#AAAAAA" stroke-opacity="0.25"/>
      <line x1="1250" y1="0" x2="1250" y2="400" stroke="#AAAAAA" stroke-opacity="0.25"/>
      <line x1="1260" y1="0" x2="1260" y2="400" stroke="#AAAAAA" stroke-opacity="0.25"/>
      <line x1="1270" y1="0" x2="1270" y2="400" stroke="#AAAAAA" stroke-opacity="0.25"/>
      <line x1="1280" y1="0" x2="1280" y2="400" stroke="#AAAAAA" stroke-opacity="0.25"/>
      <line x1="1290" y1="0" x2="1290" y2="400" stroke="#AAAAAA" stroke-opacity="0.25"/>
      <line x1="1300" y1="0" x2="1300" y2="400" stroke="#AAAAAA" stroke-opacity="0.5"/>
      <line x1="1310" y1="0" x2="1310" y2="400" stroke="#AAAAAA" stroke-opacity="0.25"/>
      <line x1="1320" y1="0" x2="1320" y2="400" stroke="#AAAAAA" stroke-opacity="0.25"/>
      <line x1="1330" y1="0" x2="1330" y2="400" stroke="#AAAAAA" stroke-opacity="0.25"/>
      <line x1="1340" y1="0" x2="1340" y2="400" stroke="#AAAAAA" stroke-opacity="0.25"/>
      <line x1="1350" y1="0" x2="1350" y2="400" stroke="#AAAAAA" stroke-opacity="0.25"/>
      <line x1="1360" y1="0" x2="1360" y2="400" stroke="#AAAAAA" stroke-opacity="0.25"/>
      <line x1="1370" y1="0" x2="1370" y2="400" stroke="#AAAAAA" stroke-opacity="0.25"/>
      <line x1="1380" y1="0" x2="1380" y2="400" stroke="#AAAAAA" stroke-opacity="0.25"/>
      <line x1="1390" y1="0" x2="1390" y2="400" stroke="#AAAAAA" stroke-opacity="0.25"/>
      <line x1="1400" y1="0" x2="1400" y2="400" stroke="#AAAAAA" stroke-opacity="0.5"/>
      <line x1="1410" y1="0" x2="1410" y2="400" stroke="#AAAAAA" stroke-opacity="0.25"/>
      <line x1="1420" y1="0" x2="1420" y2="400" stroke="#AAAAAA" stroke-opacity="0.25"/>
      <line x1="1430" y1="0" x2="1430" y2="400" stroke="#AAAAAA" stroke-opacity="0.25"/>
      <line x1="1440" y1="0" x2="1440" y2="400" stroke="#AAAAAA" stroke-opacity="0.25"/>
      <line x1="1450" y1="0" x2="1450" y2="400" stroke="#AAAAAA" stroke-opacity="0.25"/>
      <line x1="1460" y1="0" x2="1460" y2="400" stroke="#AAAAAA" stroke-opacity="0.25"/>
      <line x1="1470" y1="0" x2="1470" y2="400" stroke="#AAAAAA" stroke-opacity="0.25"/>
      <line x1="1480" y1="0" x2="1480" y2="400" stroke="#AAAAAA" stroke-opacity="0.25"/>
      <line x1="1490" y1="0" x2="1490" y2="400" stroke="#AAAAAA" stroke-opacity="0.25"/>
      <line x1="1500" y1="0" x2="1500" y2="400" stroke="#AAAAAA" stroke-opacity="0.5"/>
      <line x1="1510" y1="0" x2="1510" y2="400" stroke="#AAAAAA" stroke-opacity="0.25"/>
      <line x1="1520" y1="0" x2="1520" y2="400" stroke="#AAAAAA" stroke-opacity="0.25"/>
      <line x1="1530" y1="0" x2="1530" y2="400" stroke="#AAAAAA" stroke-opacity="0.25"/>
      <line x1="1540" y1="0" x2="1540" y2="400" stroke="#AAAAAA" stroke-opacity="0.25"/>
      <line x1="1550" y1="0" x2="1550" y2="400" stroke="#AAAAAA" stroke-opacity="0.25"/>
      <line x1="1560" y1="0" x2="1560" y2="400" stroke="#AAAAAA" stroke-opacity="0.25"/>
      <line x1="1570" y1="0" x2="1570" y2="400" stroke="#AAAAAA" stroke-opacity="0.25"/>
      <line x1="1580" y1="0" x2="1580" y2="400" stroke="#AAAAAA" stroke-opacity="0.25"/>
      <line x1="1590" y1="0" x2="1590" y2="400" stroke="#AAAAAA" stroke-opacity="0.25"/>
      <line x1="1600" y1="0" x2="1600" y2="400" stroke="#AAAAAA" stroke-opacity="0.5"/>
      <line x1="1610" y1="0" x2="1610" y2="400" stroke="#AAAAAA" stroke-opacity="0.25"/>
      <line x1="1620" y1="0" x2="1620" y2="400" stroke="#AAAAAA" stroke-opacity="0.25"/>
      <line x1="1630" y1="0" x2="1630" y2="400" stroke="#AAAAAA" stroke-opacity="0.25"/>
      <line x1="1640" y1="0" x2="1640" y2="400" stroke="#AAAAAA" stroke-opacity="0.25"/>
      <line x1="1650" y1="0" x2="1650" y2="400" stroke="#AAAAAA" stroke-opacity="0.25"/>
      <line x1="1660" y1="0" x2="1660" y2="400" stroke="#AAAAAA" stroke-opacity="0.25"/>
      <line x1="1670" y1="0" x2="1670" y2="400" stroke="#AAAAAA" stroke-opacity="0.25"/>
      <line x1="1680" y1="0" x2="1680" y2="400" stroke="#AAAAAA" stroke-opacity="0.25"/>
      <line x1="1690" y1="0" x2="1690" y2="400" stroke="#AAAAAA" stroke-opacity="0.25"/>
      <line x1="1700" y1="0" x2="1700" y2="400" stroke="#AAAAAA" stroke-opacity="0.5"/>
      <line x1="1710" y1="0" x2="1710" y2="400" stroke="#AAAAAA" stroke-opacity="0.25"/>
      <line x1="1720" y1="0" x2="1720" y2="400" stroke="#AAAAAA" stroke-opacity="0.25"/>
      <line x1="1730" y1="0" x2="1730" y2="400" stroke="#AAAAAA" stroke-opacity="0.25"/>
      <line x1="1740" y1="0" x2="1740" y2="400" stroke="#AAAAAA" stroke-opacity="0.25"/>
      <line x1="1750" y1="0" x2="1750" y2="400" stroke="#AAAAAA" stroke-opacity="0.25"/>
      <line x1="1760" y1="0" x2="1760" y2="400" stroke="#AAAAAA" stroke-opacity="0.25"/>
      <line x1="1770" y1="0" x2="1770" y2="400" stroke="#AAAAAA" stroke-opacity="0.25"/>
      <line x1="1780" y1="0" x2="1780" y2="400" stroke="#AAAAAA" stroke-opacity="0.25"/>
      <line x1="1790" y1="0" x2="1790" y2="400" stroke="#AAAAAA" stroke-opacity="0.25"/>
      <line x1="1800" y1="0" x2="1800" y2="400" stroke="#AAAAAA" stroke-opacity="0.5"/>
      <line x1="1810" y1="0" x2="1810" y2="400" stroke="#AAAAAA" stroke-opacity="0.25"/>
      <line x1="1820" y1="0" x2="1820" y2="400" stroke="#AAAAAA" stroke-opacity="0.25"/>
      <line x1="1830" y1="0" x2="1830" y2="400" stroke="#AAAAAA" stroke-opacity="0.25"/>
      <line x1="1840" y1="0" x2="1840" y2="400" stroke="#AAAAAA" stroke-opacity="0.25"/>
      <line x1="1850" y1="0" x2="1850" y2="400" stroke="#AAAAAA" stroke-opacity="0.25"/>
      <line x1="1860" y1="0" x2="1860" y2="400" stroke="#AAAAAA" stroke-opacity="0.25"/>
      <line x1="1870" y1="0" x2="1870" y2="400" stroke="#AAAAAA" stroke-opacity="0.25"/>
      <line x1="1880" y1="0" x2="1880" y2="400" stroke="#AAAAAA" stroke-opacity="0.25"/>
      <line x1="1890" y1="0" x2="1890" y2="400" stroke="#AAAAAA" stroke-opacity="0.25"/>
      <line x1="1900" y1="0" x2="1900" y2="400" stroke="#AAAAAA" stroke-opacity="0.5"/>
      <line x1="1910" y1="0" x2="1910" y2="400" stroke="#AAAAAA" stroke-opacity="0.25"/>
      <line x1="1920" y1="0" x2="1920" y2="400" stroke="#AAAAAA" stroke-opacity="0.25"/>
      <line x1="1930" y1="0" x2="1930" y2="400" stroke="#AAAAAA" stroke-opacity="0.25"/>
      <line x1="1940" y1="0" x2="1940" y2="400" stroke="#AAAAAA" stroke-opacity="0.25"/>
      <line x1="1950" y1="0" x2="1950" y2="400" stroke="#AAAAAA" stroke-opacity="0.25"/>
      <line x1="1960" y1="0" x2="1960" y2="400" stroke="#AAAAAA" stroke-opacity="0.25"/>
      <line x1="1970" y1="0" x2="1970" y2="400" stroke="#AAAAAA" stroke-opacity="0.25"/>
      <line x1="1980" y1="0" x2="1980" y2="400" stroke="#AAAAAA" stroke-opacity="0.25"/>
      <line x1="1990" y1="0" x2="1990" y2="400" stroke="#AAAAAA" stroke-opacity="0.25"/>
      <line x1="2000" y1="0" x2="2000" y2="400" stroke="#AAAAAA" stroke-opacity="0.5"/>
      <line x1="2010" y1="0" x2="2010" y2="400" stroke="#AAAAAA" stroke-opacity="0.25"/>
      <line x1="2020" y1="0" x2="2020" y2="400" stroke="#AAAAAA" stroke-opacity="0.25"/>
      <line x1="2030" y1="0" x2="2030" y2="400" stroke="#AAAAAA" stroke-opacity="0.25"/>
      <line x1="2040" y1="0" x2="2040" y2="400" stroke="#AAAAAA" stroke-opacity="0.25"/>
      <line x1="2050" y1="0" x2="2050" y2="400" stroke="#AAAAAA" stroke-opacity="0.25"/>
      <line x1="2060" y1="0" x2="2060" y2="400" stroke="#AAAAAA" stroke-opacity="0.25"/>
      <line x1="2070" y1="0" x2="2070" y2="400" stroke="#AAAAAA" stroke-opacity="0.25"/>
      <line x1="2080" y1="0" x2="2080" y2="400" stroke="#AAAAAA" stroke-opacity="0.25"/>
      <line x1="2090" y1="0" x2="2090" y2="400" stroke="#AAAAAA" stroke-opacity="0.25"/>
      <line x1="2100" y1="0" x2="2100" y2="400" stroke="#AAAAAA" stroke-opacity="0.5"/>
      <line x1="2110" y1="0" x2="2110" y2="400" stroke="#AAAAAA" stroke-opacity="0.25"/>
      <line x1="2120" y1="0" x2="2120" y2="400" stroke="#AAAAAA" stroke-opacity="0.25"/>
      <line x1="2130" y1="0" x2="2130" y2="400" stroke="#AAAAAA" stroke-opacity="0.25"/>
      <line x1="2140" y1="0" x2="2140" y2="400" stroke="#AAAAAA" stroke-opacity="0.25"/>
      <line x1="2150" y1="0" x2="2150" y2="400" stroke="#AAAAAA" stroke-opacity="0.25"/>
      <line x1="2160" y1="0" x2="2160" y2="400" stroke="#AAAAAA" stroke-opacity="0.25"/>
      <line x1="2170" y1="0" x2="2170" y2="400" stroke="#AAAAAA" stroke-opacity="0.25"/>
      <line x1="2180" y1="0" x2="2180" y2="400" stroke="#AAAAAA" stroke-opacity="0.25"/>
      <line x1="2190" y1="0" x2="2190" y2="400" stroke="#AAAAAA" stroke-opacity="0.25"/>
      <line x1="2200" y1="0" x2="2200" y2="400" stroke="#AAAAAA" stroke-opacity="0.5"/>
      <line x1="2210" y1="0" x2="2210" y2="400" stroke="#AAAAAA" stroke-opacity="0.25"/>
      <line x1="2220" y1="0" x2="2220" y2="400" stroke="#AAAAAA" stroke-opacity="0.25"/>
      <line x1="2230" y1="0" x2="2230" y2="400" stroke="#AAAAAA" stroke-opacity="0.25"/>
      <line x1="2240" y1="0" x2="2240" y2="400" stroke="#AAAAAA" stroke-opacity="0.25"/>
      <line x1="0" y1="10" x2="2240" y2="10" stroke="#AAAAAA" stroke-opacity="0.25"/>
      <line x1="0" y1="20" x2="2240" y2="20" stroke="#AAAAAA" stroke-opacity="0.25"/>
      <line x1="0" y1="30" x2="2240" y2="30" stroke="#AAAAAA" stroke-opacity="0.25"/>
      <line x1="0" y1="40" x2="2240" y2="40" stroke="#AAAAAA" stroke-opacity="0.25"/>
      <line x1="0" y1="50" x2="2240" y2="50" stroke="#AAAAAA" stroke-opacity="0.25"/>
      <line x1="0" y1="60" x2="2240" y2="60" stroke="#AAAAAA" stroke-opacity="0.25"/>
      <line x1="0" y1="70" x2="2240" y2="70" stroke="#AAAAAA" stroke-opacity="0.25"/>
      <line x1="0" y1="80" x2="2240" y2="80" stroke="#AAAAAA" stroke-opacity="0.25"/>
      <line x1="0" y1="90" x2="2240" y2="90" stroke="#AAAAAA" stroke-opacity="0.25"/>
      <line x1="0" y1="100" x2="2240" y2="100" stroke="#AAAAAA" stroke-opacity="0.5"/>
      <line x1="0" y1="110" x2="2240" y2="110" stroke="#AAAAAA" stroke-opacity="0.25"/>
      <line x1="0" y1="120" x2="2240" y2="120" stroke="#AAAAAA" stroke-opacity="0.25"/>
      <line x1="0" y1="130" x2="2240" y2="130" stroke="#AAAAAA" stroke-opacity="0.25"/>
      <line x1="0" y1="140" x2="2240" y2="140" stroke="#AAAAAA" stroke-opacity="0.25"/>
      <line x1="0" y1="150" x2="2240" y2="150" stroke="#AAAAAA" stroke-opacity="0.25"/>
      <line x1="0" y1="160" x2="2240" y2="160" stroke="#AAAAAA" stroke-opacity="0.25"/>
      <line x1="0" y1="170" x2="2240" y2="170" stroke="#AAAAAA" stroke-opacity="0.25"/>
      <line x1="0" y1="180" x2="2240" y2="180" stroke="#AAAAAA" stroke-opacity="0.25"/>
      <line x1="0" y1="190" x2="2240" y2="190" stroke="#AAAAAA" stroke-opacity="0.25"/>
      <line x1="0" y1="200" x2="2240" y2="200" stroke="#AAAAAA" stroke-opacity="0.5"/>
      <line x1="0" y1="210" x2="2240" y2="210" stroke="#AAAAAA" stroke-opacity="0.25"/>
      <line x1="0" y1="220" x2="2240" y2="220" stroke="#AAAAAA" stroke-opacity="0.25"/>
      <line x1="0" y1="230" x2="2240" y2="230" stroke="#AAAAAA" stroke-opacity="0.25"/>
      <line x1="0" y1="240" x2="2240" y2="240" stroke="#AAAAAA" stroke-opacity="0.25"/>
      <line x1="0" y1="250" x2="2240" y2="250" stroke="#AAAAAA" stroke-opacity="0.25"/>
      <line x1="0" y1="260" x2="2240" y2="260" stroke="#AAAAAA" stroke-opacity="0.25"/>
      <line x1="0" y1="270" x2="2240" y2="270" stroke="#AAAAAA" stroke-opacity="0.25"/>
      <line x1="0" y1="280" x2="2240" y2="280" stroke="#AAAAAA" stroke-opacity="0.25"/>
      <line x1="0" y1="290" x2="2240" y2="290" stroke="#AAAAAA" stroke-opacity="0.25"/>
      <line x1="0" y1="300" x2="2240" y2="300" stroke="#AAAAAA" stroke-opacity="0.5"/>
      <line x1="0" y1="310" x2="2240" y2="310" stroke="#AAAAAA" stroke-opacity="0.25"/>
      <line x1="0" y1="320" x2="2240" y2="320" stroke="#AAAAAA" stroke-opacity="0.25"/>
      <line x1="0" y1="330" x2="2240" y2="330" stroke="#AAAAAA" stroke-opacity="0.25"/>
      <line x1="0" y1="340" x2="2240" y2="340" stroke="#AAAAAA" stroke-opacity="0.25"/>
      <line x1="0" y1="350" x2="2240" y2="350" stroke="#AAAAAA" stroke-opacity="0.25"/>
      <line x1="0" y1="360" x2="2240" y2="360" stroke="#AAAAAA" stroke-opacity="0.25"/>
      <line x1="0" y1="370" x2="2240" y2="370" stroke="#AAAAAA" stroke-opacity="0.25"/>
      <line x1="0" y1="380" x2="2240" y2="380" stroke="#AAAAAA" stroke-opacity="0.25"/>
      <line x1="0" y1="390" x2="2240" y2="390" stroke="#AAAAAA" stroke-opacity="0.25"/>
      <line x1="0" y1="400" x2="2240" y2="400" stroke="#AAAAAA" stroke-opacity="0.25"/>
    </g>
  </g>
  <g id="Layer_1" display="none">
    <g>
      <path d="M0.5,0.5 L4000.5,0.5 L4000.5,400.5 L0.5,400.5 z" fill="#999999" fill-opacity="0.549"/>
      <path d="M0.5,0.5 L4000.5,0.5 L4000.5,400.5 L0.5,400.5 z" fill-opacity="0" stroke="#000000" stroke-width="2" stroke-linejoin="bevel"/>
    </g>
  </g>
  <g id="Layer_2">
    <g>
      <path d="M1580.5,380.5 L2060.5,380.5 L2060.5,280.5 L2220.5,120.5 L2220.5,20.5 L1740.5,20.5 L1740.5,120.5 L1580.5,280.5 L1580.5,380.5 z" fill="#999999" fill-opacity="0.549"/>
      <path d="M1580.5,380.5 L2060.5,380.5 L2060.5,280.5 L2220.5,120.5 L2220.5,20.5 L1740.5,20.5 L1740.5,120.5 L1580.5,280.5 L1580.5,380.5 z" fill-opacity="0" stroke="#000000" stroke-width="2"/>
    </g>
    <g>
      <path d="M1060.5,380.5 L1540.5,380.5 L1540.5,280.5 L1700.5,120.5 L1700.5,20.5 L1220.5,20.5 L1220.5,120.5 L1060.5,280.5 L1060.5,380.5 z" fill="#999999" fill-opacity="0.549"/>
      <path d="M1060.5,380.5 L1540.5,380.5 L1540.5,280.5 L1700.5,120.5 L1700.5,20.5 L1220.5,20.5 L1220.5,120.5 L1060.5,280.5 L1060.5,380.5 z" fill-opacity="0" stroke="#000000" stroke-width="2"/>
    </g>
    <g>
      <path d="M540.5,380.5 L1020.5,380.5 L1020.5,280.5 L1180.5,120.5 L1180.5,20.5 L700.5,20.5 L700.5,120.5 L540.5,280.5 L540.5,380.5 z" fill="#999999" fill-opacity="0.549"/>
      <path d="M540.5,380.5 L1020.5,380.5 L1020.5,280.5 L1180.5,120.5 L1180.5,20.5 L700.5,20.5 L700.5,120.5 L540.5,280.5 L540.5,380.5 z" fill-opacity="0" stroke="#000000" stroke-width="2"/>
    </g>
    <g>
      <path d="M20.5,380.5 L500.5,380.5 L500.5,280.5 L660.5,120.5 L660.5,20.5 L180.5,20.5 L180.5,120.5 L20.5,280.5 L20.5,380.5 z" fill="#999999" fill-opacity="0.549"/>
      <path d="M20.5,380.5 L500.5,380.5 L500.5,280.5 L660.5,120.5 L660.5,20.5 L180.5,20.5 L180.5,120.5 L20.5,280.5 L20.5,380.5 z" fill-opacity="0" stroke="#000000" stroke-width="2"/>
    </g>
  </g>
  <g id="Layer_3">
    <g>
      <g>
        <path d="M220.5,30.5 L200.5,50.5 L200.5,120.5 L140.5,180.5 L140.5,220.5 L240.5,220.5 L240.5,30.5 L220.5,30.5 z" fill="#BCBCBC" fill-opacity="0.645"/>
        <path d="M220.5,30.5 L200.5,50.5 L200.5,120.5 L140.5,180.5 L140.5,220.5 L240.5,220.5 L240.5,30.5 L220.5,30.5 z" fill-opacity="0" stroke="#000000" stroke-width="2"/>
      </g>
      <g>
        <path d="M460.5,370.5 L480.5,350.5 L480.5,280.5 L540.5,220.5 L540.5,180.5 L440.5,180.5 L440.5,370.5 L460.5,370.5 z" fill="#BCBCBC" fill-opacity="0.645"/>
        <path d="M460.5,370.5 L480.5,350.5 L480.5,280.5 L540.5,220.5 L540.5,180.5 L440.5,180.5 L440.5,370.5 L460.5,370.5 z" fill-opacity="0" stroke="#000000" stroke-width="2"/>
      </g>
      <g>
        <path d="M260.5,50.5 L260.5,220.5 L240.5,240.5 L200.5,240.5 C200.5,240.5 180.5,260.5 180.5,260.5 C180.5,260.5 180.5,370.5 180.5,370.5 L320.5,370.5 L320.5,340.5 L300.5,320.5 L300.5,30.5 L280.5,30.5 L260.5,50.5 z" fill="#BCBCBC" fill-opacity="0.645"/>
        <path d="M260.5,50.5 L260.5,220.5 L240.5,240.5 L200.5,240.5 C200.5,240.5 180.5,260.5 180.5,260.5 C180.5,260.5 180.5,370.5 180.5,370.5 L320.5,370.5 L320.5,340.5 L300.5,320.5 L300.5,30.5 L280.5,30.5 L260.5,50.5 z" fill-opacity="0" stroke="#000000" stroke-width="2"/>
      </g>
      <g>
        <path d="M420.5,350.5 L420.5,180.5 L440.5,160.5 L480.5,160.5 C480.5,160.5 500.5,140.5 500.5,140.5 C500.5,140.5 500.5,30.5 500.5,30.5 L360.5,30.5 L360.5,70.5 L380.5,90.5 L380.5,370.5 L400.5,370.5 L420.5,350.5 z" fill="#BCBCBC" fill-opacity="0.645"/>
        <path d="M420.5,350.5 L420.5,180.5 L440.5,160.5 L480.5,160.5 C480.5,160.5 500.5,140.5 500.5,140.5 C500.5,140.5 500.5,30.5 500.5,30.5 L360.5,30.5 L360.5,70.5 L380.5,90.5 L380.5,370.5 L400.5,370.5 L420.5,350.5 z" fill-opacity="0" stroke="#000000" stroke-width="2"/>
      </g>
      <g>
        <path d="M340.5,70.5 L360.5,90.5 L360.5,370.5 L340.5,370.5 L340.5,340.5 L320.5,320.5 C320.5,320.5 320.5,30.5 320.5,30.5 C320.5,30.5 340.5,30.5 340.5,30.5 L340.5,70.5 z" fill="#BCBCBC" fill-opacity="0.645"/>
        <path d="M340.5,70.5 L360.5,90.5 L360.5,370.5 L340.5,370.5 L340.5,340.5 L320.5,320.5 C320.5,320.5 320.5,30.5 320.5,30.5 C320.5,30.5 340.5,30.5 340.5,30.5 L340.5,70.5 z" fill-opacity="0" stroke="#000000" stroke-width="2"/>
      </g>
      <g>
        <path d="M520.5,160.5 L600.5,160.5 L620.5,140.5 L620.5,120.5 L640.5,100.5 L640.5,30.5 L540.5,30.5 L520.5,50.5 L520.5,160.5 z" fill="#BCBCBC" fill-opacity="0.645"/>
        <path d="M520.5,160.5 L600.5,160.5 L620.5,140.5 L620.5,120.5 L640.5,100.5 L640.5,30.5 L540.5,30.5 L520.5,50.5 L520.5,160.5 z" fill-opacity="0" stroke="#000000" stroke-width="2"/>
      </g>
      <g>
        <path d="M160.5,240.5 L80.5,240.5 L60.5,260.5 L60.5,280.5 L40.5,300.5 L40.5,370.5 L140.5,370.5 L160.5,350.5 L160.5,240.5 z" fill="#BCBCBC" fill-opacity="0.645"/>
        <path d="M160.5,240.5 L80.5,240.5 L60.5,260.5 L60.5,280.5 L40.5,300.5 L40.5,370.5 L140.5,370.5 L160.5,350.5 L160.5,240.5 z" fill-opacity="0" stroke="#000000" stroke-width="2"/>
      </g>
    </g>
    <g>
      <g>
        <path d="M740.5,30.5 L720.5,50.5 L720.5,120.5 L660.5,180.5 L660.5,220.5 L760.5,220.5 L760.5,30.5 L740.5,30.5 z" fill="#BCBCBC" fill-opacity="0.645"/>
        <path d="M740.5,30.5 L720.5,50.5 L720.5,120.5 L660.5,180.5 L660.5,220.5 L760.5,220.5 L760.5,30.5 L740.5,30.5 z" fill-opacity="0" stroke="#000000" stroke-width="2"/>
      </g>
      <g>
        <path d="M980.5,370.5 L1000.5,350.5 L1000.5,280.5 L1060.5,220.5 L1060.5,180.5 L960.5,180.5 L960.5,370.5 L980.5,370.5 z" fill="#BCBCBC" fill-opacity="0.645"/>
        <path d="M980.5,370.5 L1000.5,350.5 L1000.5,280.5 L1060.5,220.5 L1060.5,180.5 L960.5,180.5 L960.5,370.5 L980.5,370.5 z" fill-opacity="0" stroke="#000000" stroke-width="2"/>
      </g>
      <g>
        <path d="M780.5,50.5 L780.5,220.5 L760.5,240.5 L720.5,240.5 C720.5,240.5 700.5,260.5 700.5,260.5 C700.5,260.5 700.5,370.5 700.5,370.5 L840.5,370.5 L840.5,340.5 L820.5,320.5 L820.5,30.5 L800.5,30.5 L780.5,50.5 z" fill="#BCBCBC" fill-opacity="0.645"/>
        <path d="M780.5,50.5 L780.5,220.5 L760.5,240.5 L720.5,240.5 C720.5,240.5 700.5,260.5 700.5,260.5 C700.5,260.5 700.5,370.5 700.5,370.5 L840.5,370.5 L840.5,340.5 L820.5,320.5 L820.5,30.5 L800.5,30.5 L780.5,50.5 z" fill-opacity="0" stroke="#000000" stroke-width="2"/>
      </g>
      <g>
        <path d="M940.5,350.5 L940.5,180.5 L960.5,160.5 L1000.5,160.5 C1000.5,160.5 1020.5,140.5 1020.5,140.5 C1020.5,140.5 1020.5,30.5 1020.5,30.5 L880.5,30.5 L880.5,70.5 L900.5,90.5 L900.5,370.5 L920.5,370.5 L940.5,350.5 z" fill="#BCBCBC" fill-opacity="0.645"/>
        <path d="M940.5,350.5 L940.5,180.5 L960.5,160.5 L1000.5,160.5 C1000.5,160.5 1020.5,140.5 1020.5,140.5 C1020.5,140.5 1020.5,30.5 1020.5,30.5 L880.5,30.5 L880.5,70.5 L900.5,90.5 L900.5,370.5 L920.5,370.5 L940.5,350.5 z" fill-opacity="0" stroke="#000000" stroke-width="2"/>
      </g>
      <g>
        <path d="M860.5,70.5 L880.5,90.5 L880.5,370.5 L860.5,370.5 L860.5,340.5 L840.5,320.5 C840.5,320.5 840.5,30.5 840.5,30.5 C840.5,30.5 860.5,30.5 860.5,30.5 L860.5,70.5 z" fill="#BCBCBC" fill-opacity="0.645"/>
        <path d="M860.5,70.5 L880.5,90.5 L880.5,370.5 L860.5,370.5 L860.5,340.5 L840.5,320.5 C840.5,320.5 840.5,30.5 840.5,30.5 C840.5,30.5 860.5,30.5 860.5,30.5 L860.5,70.5 z" fill-opacity="0" stroke="#000000" stroke-width="2"/>
      </g>
      <g>
        <path d="M1040.5,160.5 L1120.5,160.5 L1140.5,140.5 L1140.5,120.5 L1160.5,100.5 L1160.5,30.5 L1060.5,30.5 L1040.5,50.5 L1040.5,160.5 z" fill="#BCBCBC" fill-opacity="0.645"/>
        <path d="M1040.5,160.5 L1120.5,160.5 L1140.5,140.5 L1140.5,120.5 L1160.5,100.5 L1160.5,30.5 L1060.5,30.5 L1040.5,50.5 L1040.5,160.5 z" fill-opacity="0" stroke="#000000" stroke-width="2"/>
      </g>
      <g>
        <path d="M680.5,240.5 L600.5,240.5 L580.5,260.5 L580.5,280.5 L560.5,300.5 L560.5,370.5 L660.5,370.5 L680.5,350.5 L680.5,240.5 z" fill="#BCBCBC" fill-opacity="0.645"/>
        <path d="M680.5,240.5 L600.5,240.5 L580.5,260.5 L580.5,280.5 L560.5,300.5 L560.5,370.5 L660.5,370.5 L680.5,350.5 L680.5,240.5 z" fill-opacity="0" stroke="#000000" stroke-width="2"/>
      </g>
    </g>
    <g>
      <g>
        <path d="M1260.501,30.5 L1240.501,50.5 L1240.501,120.5 L1180.501,180.5 L1180.501,220.5 L1280.501,220.5 L1280.501,30.5 L1260.501,30.5 z" fill="#BCBCBC" fill-opacity="0.645"/>
        <path d="M1260.501,30.5 L1240.501,50.5 L1240.501,120.5 L1180.501,180.5 L1180.501,220.5 L1280.501,220.5 L1280.501,30.5 L1260.501,30.5 z" fill-opacity="0" stroke="#000000" stroke-width="2"/>
      </g>
      <g>
        <path d="M1500.501,370.5 L1520.501,350.5 L1520.501,280.5 L1580.501,220.5 L1580.501,180.5 L1480.501,180.5 L1480.501,370.5 L1500.501,370.5 z" fill="#BCBCBC" fill-opacity="0.645"/>
        <path d="M1500.501,370.5 L1520.501,350.5 L1520.501,280.5 L1580.501,220.5 L1580.501,180.5 L1480.501,180.5 L1480.501,370.5 L1500.501,370.5 z" fill-opacity="0" stroke="#000000" stroke-width="2"/>
      </g>
      <g>
        <path d="M1300.501,50.5 L1300.501,220.5 L1280.501,240.5 L1240.501,240.5 C1240.501,240.5 1220.501,260.5 1220.501,260.5 C1220.501,260.5 1220.501,370.5 1220.501,370.5 L1360.501,370.5 L1360.501,340.5 L1340.501,320.5 L1340.501,30.5 L1320.501,30.5 L1300.501,50.5 z" fill="#BCBCBC" fill-opacity="0.645"/>
        <path d="M1300.501,50.5 L1300.501,220.5 L1280.501,240.5 L1240.501,240.5 C1240.501,240.5 1220.501,260.5 1220.501,260.5 C1220.501,260.5 1220.501,370.5 1220.501,370.5 L1360.501,370.5 L1360.501,340.5 L1340.501,320.5 L1340.501,30.5 L1320.501,30.5 L1300.501,50.5 z" fill-opacity="0" stroke="#000000" stroke-width="2"/>
      </g>
      <g>
        <path d="M1460.501,350.5 L1460.501,180.5 L1480.501,160.5 L1520.501,160.5 C1520.501,160.5 1540.501,140.5 1540.501,140.5 C1540.501,140.5 1540.501,30.5 1540.501,30.5 L1400.501,30.5 L1400.501,70.5 L1420.501,90.5 L1420.501,370.5 L1440.501,370.5 L1460.501,350.5 z" fill="#BCBCBC" fill-opacity="0.645"/>
        <path d="M1460.501,350.5 L1460.501,180.5 L1480.501,160.5 L1520.501,160.5 C1520.501,160.5 1540.501,140.5 1540.501,140.5 C1540.501,140.5 1540.501,30.5 1540.501,30.5 L1400.501,30.5 L1400.501,70.5 L1420.501,90.5 L1420.501,370.5 L1440.501,370.5 L1460.501,350.5 z" fill-opacity="0" stroke="#000000" stroke-width="2"/>
      </g>
      <g>
        <path d="M1380.501,70.5 L1400.501,90.5 L1400.501,370.5 L1380.501,370.5 L1380.501,340.5 L1360.501,320.5 C1360.501,320.5 1360.501,30.5 1360.501,30.5 C1360.501,30.5 1380.501,30.5 1380.501,30.5 L1380.501,70.5 z" fill="#BCBCBC" fill-opacity="0.645"/>
        <path d="M1380.501,70.5 L1400.501,90.5 L1400.501,370.5 L1380.501,370.5 L1380.501,340.5 L1360.501,320.5 C1360.501,320.5 1360.501,30.5 1360.501,30.5 C1360.501,30.5 1380.501,30.5 1380.501,30.5 L1380.501,70.5 z" fill-opacity="0" stroke="#000000" stroke-width="2"/>
      </g>
      <g>
        <path d="M1560.501,160.5 L1640.501,160.5 L1660.501,140.5 L1660.501,120.5 L1680.501,100.5 L1680.501,30.5 L1580.501,30.5 L1560.501,50.5 L1560.501,160.5 z" fill="#BCBCBC" fill-opacity="0.645"/>
        <path d="M1560.501,160.5 L1640.501,160.5 L1660.501,140.5 L1660.501,120.5 L1680.501,100.5 L1680.501,30.5 L1580.501,30.5 L1560.501,50.5 L1560.501,160.5 z" fill-opacity="0" stroke="#000000" stroke-width="2"/>
      </g>
      <g>
        <path d="M1200.501,240.5 L1120.501,240.5 L1100.501,260.5 L1100.501,280.5 L1080.501,300.5 L1080.501,370.5 L1180.501,370.5 L1200.501,350.5 L1200.501,240.5 z" fill="#BCBCBC" fill-opacity="0.645"/>
        <path d="M1200.501,240.5 L1120.501,240.5 L1100.501,260.5 L1100.501,280.5 L1080.501,300.5 L1080.501,370.5 L1180.501,370.5 L1200.501,350.5 L1200.501,240.5 z" fill-opacity="0" stroke="#000000" stroke-width="2"/>
      </g>
    </g>
    <g>
      <g>
        <path d="M1780.501,30.5 L1760.501,50.5 L1760.501,120.5 L1700.501,180.5 L1700.501,220.5 L1800.501,220.5 L1800.501,30.5 L1780.501,30.5 z" fill="#BCBCBC" fill-opacity="0.645"/>
        <path d="M1780.501,30.5 L1760.501,50.5 L1760.501,120.5 L1700.501,180.5 L1700.501,220.5 L1800.501,220.5 L1800.501,30.5 L1780.501,30.5 z" fill-opacity="0" stroke="#000000" stroke-width="2"/>
      </g>
      <g>
        <path d="M2020.501,370.5 L2040.501,350.5 L2040.501,280.5 L2100.501,220.5 L2100.501,180.5 L2000.501,180.5 L2000.501,370.5 L2020.501,370.5 z" fill="#BCBCBC" fill-opacity="0.645"/>
        <path d="M2020.501,370.5 L2040.501,350.5 L2040.501,280.5 L2100.501,220.5 L2100.501,180.5 L2000.501,180.5 L2000.501,370.5 L2020.501,370.5 z" fill-opacity="0" stroke="#000000" stroke-width="2"/>
      </g>
      <g>
        <path d="M1820.501,50.5 L1820.501,220.5 L1800.501,240.5 L1760.501,240.5 C1760.501,240.5 1740.501,260.5 1740.501,260.5 C1740.501,260.5 1740.501,370.5 1740.501,370.5 L1880.501,370.5 L1880.501,340.5 L1860.501,320.5 L1860.501,30.5 L1840.501,30.5 L1820.501,50.5 z" fill="#BCBCBC" fill-opacity="0.645"/>
        <path d="M1820.501,50.5 L1820.501,220.5 L1800.501,240.5 L1760.501,240.5 C1760.501,240.5 1740.501,260.5 1740.501,260.5 C1740.501,260.5 1740.501,370.5 1740.501,370.5 L1880.501,370.5 L1880.501,340.5 L1860.501,320.5 L1860.501,30.5 L1840.501,30.5 L1820.501,50.5 z" fill-opacity="0" stroke="#000000" stroke-width="2"/>
      </g>
      <g>
        <path d="M1980.501,350.5 L1980.501,180.5 L2000.501,160.5 L2040.501,160.5 C2040.501,160.5 2060.501,140.5 2060.501,140.5 C2060.501,140.5 2060.501,30.5 2060.501,30.5 L1920.501,30.5 L1920.501,70.5 L1940.501,90.5 L1940.501,370.5 L1960.501,370.5 L1980.501,350.5 z" fill="#BCBCBC" fill-opacity="0.645"/>
        <path d="M1980.501,350.5 L1980.501,180.5 L2000.501,160.5 L2040.501,160.5 C2040.501,160.5 2060.501,140.5 2060.501,140.5 C2060.501,140.5 2060.501,30.5 2060.501,30.5 L1920.501,30.5 L1920.501,70.5 L1940.501,90.5 L1940.501,370.5 L1960.501,370.5 L1980.501,350.5 z" fill-opacity="0" stroke="#000000" stroke-width="2"/>
      </g>
      <g>
        <path d="M1900.501,70.5 L1920.501,90.5 L1920.501,370.5 L1900.501,370.5 L1900.501,340.5 L1880.501,320.5 C1880.501,320.5 1880.501,30.5 1880.501,30.5 C1880.501,30.5 1900.501,30.5 1900.501,30.5 L1900.501,70.5 z" fill="#BCBCBC" fill-opacity="0.645"/>
        <path d="M1900.501,70.5 L1920.501,90.5 L1920.501,370.5 L1900.501,370.5 L1900.501,340.5 L1880.501,320.5 C1880.501,320.5 1880.501,30.5 1880.501,30.5 C1880.501,30.5 1900.501,30.5 1900.501,30.5 L1900.501,70.5 z" fill-opacity="0" stroke="#000000" stroke-width="2"/>
      </g>
      <g>
        <path d="M2080.501,160.5 L2160.501,160.5 L2180.501,140.5 L2180.501,120.5 L2200.501,100.5 L2200.501,30.5 L2100.501,30.5 L2080.501,50.5 L2080.501,160.5 z" fill="#BCBCBC" fill-opacity="0.645"/>
        <path d="M2080.501,160.5 L2160.501,160.5 L2180.501,140.5 L2180.501,120.5 L2200.501,100.5 L2200.501,30.5 L2100.501,30.5 L2080.501,50.5 L2080.501,160.5 z" fill-opacity="0" stroke="#000000" stroke-width="2"/>
      </g>
      <g>
        <path d="M1720.501,240.5 L1640.501,240.5 L1620.501,260.5 L1620.501,280.5 L1600.501,300.5 L1600.501,370.5 L1700.501,370.5 L1720.501,350.5 L1720.501,240.5 z" fill="#BCBCBC" fill-opacity="0.645"/>
        <path d="M1720.501,240.5 L1640.501,240.5 L1620.501,260.5 L1620.501,280.5 L1600.501,300.5 L1600.501,370.5 L1700.501,370.5 L1720.501,350.5 L1720.501,240.5 z" fill-opacity="0" stroke="#000000" stroke-width="2"/>
      </g>
    </g>
  </g>
</svg>
