<?xml version="1.0" encoding="UTF-8"?>
<!DOCTYPE svg PUBLIC "-//W3C//DTD SVG 1.1//EN" "http://www.w3.org/Graphics/SVG/1.1/DTD/svg11.dtd">
<svg version="1.1" xmlns="http://www.w3.org/2000/svg" xmlns:xlink="http://www.w3.org/1999/xlink" x="0" y="0" width="5000" height="5000" viewBox="0, 0, 5000, 5000">
  <g id="Layer_3" display="none">
    <g>
      <path d="M2018.991,2628.887 L2242.228,2500.001 L2371.114,2723.238 L2147.877,2852.125 z" fill="#36939C" fill-opacity="0.547"/>
      <path d="M2371.114,2018.99 L2371.115,2276.763 L2147.877,2147.877 z" fill="#36939C" fill-opacity="0.547"/>
      <path d="M2018.99,2628.887 L2018.99,2371.115 L2242.228,2500.001 z" fill="#36939C" fill-opacity="0.547"/>
      <path d="M2147.877,2147.877 L2371.114,2276.763 L2242.228,2500 L2018.99,2371.114 z" fill="#36939C" fill-opacity="0.547"/>
      <path d="M2628.886,2018.99 L2628.887,2276.763 L2371.114,2276.763 L2371.114,2018.99 z" fill="#36939C" fill-opacity="0.547"/>
      <path d="M2981.01,2628.886 L2757.773,2500 L2981.01,2371.114 z" fill="#36939C" fill-opacity="0.547"/>
      <path d="M2628.887,2018.99 L2852.124,2147.876 L2628.886,2276.763 z" fill="#36939C" fill-opacity="0.547"/>
      <path d="M2981.01,2371.114 L2757.773,2500 L2628.887,2276.763 L2852.125,2147.876 z" fill="#36939C" fill-opacity="0.547"/>
      <path d="M2852.125,2852.124 L2628.887,2723.238 L2757.773,2500 L2981.01,2628.886 z" fill="#36939C" fill-opacity="0.547"/>
      <path d="M2628.887,2981.01 L2628.887,2723.238 L2852.125,2852.124 z" fill="#36939C" fill-opacity="0.547"/>
      <path d="M2147.877,2852.125 L2371.114,2723.238 L2371.115,2981.011 z" fill="#36939C" fill-opacity="0.547"/>
      <path d="M2371.115,2981.01 L2371.115,2723.238 L2628.887,2723.238 L2628.887,2981.01 z" fill="#36939C" fill-opacity="0.547"/>
      <path d="M2371.114,2723.238 L2242.228,2500 L2371.114,2276.763 L2628.887,2276.763 L2757.773,2500 L2628.887,2723.238 z" fill="#36939C" fill-opacity="0.547"/>
    </g>
    <g>
      <path d="M2628.886,3238.783 L2628.886,3496.555 L2371.114,3496.555 L2371.114,3238.783 z" fill="#36939C" fill-opacity="0.547"/>
      <path d="M2371.114,3238.783 L2371.114,2981.01 L2628.886,2981.01 L2628.886,3238.783 z" fill="#36939C" fill-opacity="0.547"/>
      <path d="M2981.01,3848.679 L2757.773,3719.793 L2981.01,3590.907 z" fill="#36939C" fill-opacity="0.547"/>
      <path d="M2628.886,3238.783 L2852.124,3367.669 L2628.886,3496.555 z" fill="#36939C" fill-opacity="0.547"/>
      <path d="M2981.01,3590.907 L2757.773,3719.793 L2628.887,3496.555 L2852.124,3367.669 z" fill="#36939C" fill-opacity="0.547"/>
      <path d="M2852.124,4071.917 L2628.887,3943.031 L2757.773,3719.793 L2981.01,3848.679 z" fill="#36939C" fill-opacity="0.547"/>
      <path d="M3075.362,4200.803 L2852.124,4071.917 L2981.01,3848.679 L3204.248,3977.565 z" fill="#36939C" fill-opacity="0.547"/>
      <path d="M2371.114,4458.576 L2371.114,4200.803 L2628.887,4200.803 L2628.887,4458.576 z" fill="#36939C" fill-opacity="0.547"/>
      <path d="M2147.877,4071.917 L2371.114,3943.031 L2371.114,4200.803 z" fill="#36939C" fill-opacity="0.547"/>
      <path d="M3075.362,4458.576 L2852.124,4587.462 L2628.887,4458.576 L2628.887,4200.803 L2852.124,4071.917 L3075.362,4200.803 z" fill="#36939C" fill-opacity="0.547"/>
      <path d="M2852.124,4071.917 L2628.887,4200.803 L2628.887,3943.031 z" fill="#36939C" fill-opacity="0.547"/>
      <path d="M2371.114,4200.803 L2371.114,3943.031 L2628.886,3943.031 L2628.887,4200.803 z" fill="#36939C" fill-opacity="0.547"/>
      <path d="M2371.114,4458.576 L2147.876,4587.462 L1924.639,4458.576 L1924.639,4200.803 L2147.876,4071.917 L2371.114,4200.803 z" fill="#36939C" fill-opacity="0.547"/>
      <path d="M2018.99,3848.68 L2242.228,3719.793 L2371.114,3943.031 L2147.877,4071.917 z" fill="#36939C" fill-opacity="0.547"/>
      <path d="M1795.753,3977.566 L2018.99,3848.68 L2147.877,4071.917 L1924.639,4200.804 z" fill="#36939C" fill-opacity="0.547"/>
      <path d="M2018.99,3590.907 L2242.228,3719.793 L2018.99,3848.68 z" fill="#36939C" fill-opacity="0.547"/>
      <path d="M1795.753,3977.566 L1572.515,3848.68 L1572.515,3590.907 L1795.753,3462.021 L2018.99,3590.907 L2018.99,3848.679 z" fill="#36939C" fill-opacity="0.547"/>
      <path d="M2371.114,3238.783 L2371.114,3496.555 L2147.876,3367.669 z" fill="#36939C" fill-opacity="0.547"/>
      <path d="M1924.638,3238.783 L1924.638,2981.01 L2147.876,2852.124 L2371.113,2981.01 L2371.114,3238.783 L2147.876,3367.669 z" fill="#36939C" fill-opacity="0.547"/>
      <path d="M2147.876,3367.67 L2371.114,3496.556 L2242.228,3719.793 L2018.99,3590.907 z" fill="#36939C" fill-opacity="0.547"/>
      <path d="M1924.639,3238.784 L2147.876,3367.67 L2018.99,3590.907 L1795.753,3462.021 z" fill="#36939C" fill-opacity="0.547"/>
      <path d="M2371.114,3496.556 L2628.887,3496.555 L2757.773,3719.793 L2628.887,3943.031 L2371.114,3943.031 L2242.228,3719.793 z" fill="#36939C" fill-opacity="0.547"/>
    </g>
    <g>
      <path d="M2371.114,1761.217 L2371.114,1503.445 L2628.886,1503.445 L2628.886,1761.217 z" fill="#36939C" fill-opacity="0.547"/>
      <path d="M2628.886,1761.217 L2628.886,2018.99 L2371.114,2018.99 L2371.114,1761.217 z" fill="#36939C" fill-opacity="0.547"/>
      <path d="M2018.99,1151.321 L2242.227,1280.207 L2018.99,1409.093 z" fill="#36939C" fill-opacity="0.547"/>
      <path d="M2371.114,1761.217 L2147.876,1632.331 L2371.114,1503.445 z" fill="#36939C" fill-opacity="0.547"/>
      <path d="M2018.99,1409.093 L2242.227,1280.207 L2371.113,1503.445 L2147.876,1632.331 z" fill="#36939C" fill-opacity="0.547"/>
      <path d="M2147.876,928.083 L2371.113,1056.97 L2242.227,1280.207 L2018.99,1151.321 z" fill="#36939C" fill-opacity="0.547"/>
      <path d="M1924.638,799.197 L2147.876,928.083 L2018.99,1151.321 L1795.752,1022.435 z" fill="#36939C" fill-opacity="0.547"/>
      <path d="M2628.886,541.424 L2628.886,799.197 L2371.113,799.197 L2371.113,541.424 z" fill="#36939C" fill-opacity="0.547"/>
      <path d="M2852.123,928.083 L2628.886,1056.97 L2628.886,799.197 z" fill="#36939C" fill-opacity="0.547"/>
      <path d="M1924.638,541.424 L2147.876,412.538 L2371.113,541.424 L2371.113,799.197 L2147.876,928.083 L1924.638,799.197 z" fill="#36939C" fill-opacity="0.547"/>
      <path d="M2147.876,928.083 L2371.113,799.197 L2371.113,1056.97 z" fill="#36939C" fill-opacity="0.547"/>
      <path d="M2628.886,799.197 L2628.886,1056.969 L2371.114,1056.969 L2371.113,799.197 z" fill="#36939C" fill-opacity="0.547"/>
      <path d="M2628.886,541.424 L2852.124,412.538 L3075.361,541.424 L3075.361,799.197 L2852.124,928.083 L2628.886,799.197 z" fill="#36939C" fill-opacity="0.547"/>
      <path d="M2981.01,1151.32 L2757.772,1280.207 L2628.886,1056.969 L2852.123,928.083 z" fill="#36939C" fill-opacity="0.547"/>
      <path d="M3204.247,1022.434 L2981.01,1151.32 L2852.123,928.083 L3075.361,799.197 z" fill="#36939C" fill-opacity="0.547"/>
      <path d="M2981.01,1409.093 L2757.772,1280.207 L2981.01,1151.32 z" fill="#36939C" fill-opacity="0.547"/>
      <path d="M3204.247,1022.434 L3427.485,1151.32 L3427.485,1409.093 L3204.247,1537.979 L2981.01,1409.093 L2981.01,1151.321 z" fill="#36939C" fill-opacity="0.547"/>
      <path d="M2628.886,1761.217 L2628.886,1503.445 L2852.124,1632.331 z" fill="#36939C" fill-opacity="0.547"/>
      <path d="M3075.362,1761.217 L3075.362,2018.99 L2852.124,2147.876 L2628.887,2018.99 L2628.886,1761.217 L2852.124,1632.331 z" fill="#36939C" fill-opacity="0.547"/>
      <path d="M2852.124,1632.33 L2628.886,1503.444 L2757.772,1280.207 L2981.01,1409.093 z" fill="#36939C" fill-opacity="0.547"/>
      <path d="M3075.361,1761.216 L2852.124,1632.33 L2981.01,1409.093 L3204.247,1537.979 z" fill="#36939C" fill-opacity="0.547"/>
      <path d="M2628.886,1503.445 L2371.113,1503.445 L2242.227,1280.207 L2371.113,1056.97 L2628.886,1056.969 L2757.772,1280.207 z" fill="#36939C" fill-opacity="0.547"/>
    </g>
    <g>
      <path d="M1924.638,2981.01 L1701.401,3109.896 L1572.515,2886.659 L1795.752,2757.773 z" fill="#36939C" fill-opacity="0.547"/>
      <path d="M1795.752,2757.773 L2018.99,2628.886 L2147.876,2852.124 L1924.638,2981.01 z" fill="#36939C" fill-opacity="0.547"/>
      <path d="M1572.515,3590.907 L1572.515,3333.134 L1795.752,3462.021 z" fill="#36939C" fill-opacity="0.547"/>
      <path d="M1924.638,2981.01 L1924.639,3238.783 L1701.401,3109.896 z" fill="#36939C" fill-opacity="0.547"/>
      <path d="M1795.752,3462.021 L1572.515,3333.135 L1701.401,3109.897 L1924.639,3238.783 z" fill="#36939C" fill-opacity="0.547"/>
      <path d="M1314.742,3590.907 L1314.742,3333.135 L1572.515,3333.135 L1572.515,3590.907 z" fill="#36939C" fill-opacity="0.547"/>
      <path d="M1314.743,3848.679 L1314.743,3590.907 L1572.515,3590.907 L1572.515,3848.679 z" fill="#36939C" fill-opacity="0.547"/>
      <path d="M739.381,3367.67 L962.618,3238.784 L1091.505,3462.021 L868.267,3590.908 z" fill="#36939C" fill-opacity="0.547"/>
      <path d="M962.618,2981.011 L1185.856,3109.897 L962.618,3238.783 z" fill="#36939C" fill-opacity="0.547"/>
      <path d="M1091.505,3977.567 L868.267,3848.68 L868.268,3590.908 L1091.505,3462.022 L1314.743,3590.908 L1314.743,3848.68 z" fill="#36939C" fill-opacity="0.547"/>
      <path d="M1314.742,3590.907 L1091.505,3462.021 L1314.742,3333.135 z" fill="#36939C" fill-opacity="0.547"/>
      <path d="M962.619,3238.783 L1185.856,3109.897 L1314.742,3333.135 L1091.505,3462.021 z" fill="#36939C" fill-opacity="0.547"/>
      <path d="M739.381,3367.67 L516.143,3238.783 L516.143,2981.011 L739.38,2852.125 L962.618,2981.011 L962.618,3238.783 z" fill="#36939C" fill-opacity="0.547"/>
      <path d="M1091.505,2757.773 L1314.742,2886.66 L1185.856,3109.897 L962.619,2981.011 z" fill="#36939C" fill-opacity="0.547"/>
      <path d="M868.267,2628.887 L1091.505,2757.773 L962.618,2981.011 L739.381,2852.125 z" fill="#36939C" fill-opacity="0.547"/>
      <path d="M1314.742,2628.887 L1314.742,2886.66 L1091.504,2757.773 z" fill="#36939C" fill-opacity="0.547"/>
      <path d="M868.267,2628.887 L868.267,2371.114 L1091.505,2242.228 L1314.742,2371.115 L1314.742,2628.887 L1091.505,2757.773 z" fill="#36939C" fill-opacity="0.547"/>
      <path d="M1795.752,2757.773 L1572.515,2886.659 L1572.514,2628.886 z" fill="#36939C" fill-opacity="0.547"/>
      <path d="M1572.515,2371.114 L1795.752,2242.227 L2018.99,2371.114 L2018.99,2628.886 L1795.752,2757.772 L1572.515,2628.886 z" fill="#36939C" fill-opacity="0.547"/>
      <path d="M1572.514,2628.887 L1572.514,2886.659 L1314.742,2886.659 L1314.742,2628.887 z" fill="#36939C" fill-opacity="0.547"/>
      <path d="M1572.514,2371.115 L1572.514,2628.887 L1314.742,2628.887 L1314.742,2371.115 z" fill="#36939C" fill-opacity="0.547"/>
      <path d="M1572.515,2886.659 L1701.401,3109.897 L1572.515,3333.135 L1314.742,3333.135 L1185.856,3109.897 L1314.742,2886.66 z" fill="#36939C" fill-opacity="0.547"/>
    </g>
    <g>
      <path d="M3075.362,2018.99 L3298.599,1890.104 L3427.485,2113.341 L3204.248,2242.227 z" fill="#36939C" fill-opacity="0.547"/>
      <path d="M3204.248,2242.227 L2981.01,2371.114 L2852.124,2147.876 L3075.362,2018.99 z" fill="#36939C" fill-opacity="0.547"/>
      <path d="M3427.485,1409.093 L3427.486,1666.866 L3204.248,1537.98 z" fill="#36939C" fill-opacity="0.547"/>
      <path d="M3075.362,2018.99 L3075.361,1761.217 L3298.599,1890.104 z" fill="#36939C" fill-opacity="0.547"/>
      <path d="M3204.248,1537.979 L3427.485,1666.866 L3298.599,1890.103 L3075.361,1761.217 z" fill="#36939C" fill-opacity="0.547"/>
      <path d="M3685.258,1409.093 L3685.258,1666.866 L3427.485,1666.866 L3427.485,1409.093 z" fill="#36939C" fill-opacity="0.547"/>
      <path d="M3685.257,1151.321 L3685.258,1409.093 L3427.485,1409.093 L3427.485,1151.321 z" fill="#36939C" fill-opacity="0.547"/>
      <path d="M4260.619,1632.33 L4037.382,1761.216 L3908.495,1537.979 L4131.733,1409.092 z" fill="#36939C" fill-opacity="0.547"/>
      <path d="M4037.382,2018.989 L3814.144,1890.103 L4037.382,1761.217 z" fill="#36939C" fill-opacity="0.547"/>
      <path d="M3908.495,1022.433 L4131.733,1151.32 L4131.733,1409.092 L3908.495,1537.979 L3685.258,1409.092 L3685.258,1151.32 z" fill="#36939C" fill-opacity="0.547"/>
      <path d="M3685.258,1409.093 L3908.495,1537.979 L3685.258,1666.866 z" fill="#36939C" fill-opacity="0.547"/>
      <path d="M4037.381,1761.217 L3814.144,1890.103 L3685.258,1666.866 L3908.495,1537.979 z" fill="#36939C" fill-opacity="0.547"/>
      <path d="M4260.619,1632.331 L4483.857,1761.217 L4483.857,2018.99 L4260.62,2147.876 L4037.382,2018.99 L4037.382,1761.217 z" fill="#36939C" fill-opacity="0.547"/>
      <path d="M3908.496,2242.227 L3685.258,2113.341 L3814.144,1890.103 L4037.381,2018.989 z" fill="#36939C" fill-opacity="0.547"/>
      <path d="M4131.733,2371.113 L3908.495,2242.227 L4037.382,2018.989 L4260.619,2147.875 z" fill="#36939C" fill-opacity="0.547"/>
      <path d="M3685.258,2371.113 L3685.258,2113.341 L3908.496,2242.227 z" fill="#36939C" fill-opacity="0.547"/>
      <path d="M4131.733,2371.113 L4131.733,2628.886 L3908.496,2757.772 L3685.258,2628.886 L3685.258,2371.113 L3908.495,2242.227 z" fill="#36939C" fill-opacity="0.547"/>
      <path d="M3204.248,2242.227 L3427.485,2113.341 L3427.486,2371.113 z" fill="#36939C" fill-opacity="0.547"/>
      <path d="M3427.486,2628.886 L3204.248,2757.773 L2981.011,2628.886 L2981.011,2371.114 L3204.248,2242.228 L3427.486,2371.114 z" fill="#36939C" fill-opacity="0.547"/>
      <path d="M3427.486,2371.113 L3427.486,2113.341 L3685.258,2113.341 L3685.258,2371.113 z" fill="#36939C" fill-opacity="0.547"/>
      <path d="M3427.486,2628.885 L3427.486,2371.113 L3685.258,2371.113 L3685.258,2628.885 z" fill="#36939C" fill-opacity="0.547"/>
      <path d="M3427.485,2113.341 L3298.599,1890.103 L3427.485,1666.866 L3685.258,1666.866 L3814.144,1890.103 L3685.258,2113.341 z" fill="#36939C" fill-opacity="0.547"/>
    </g>
    <g>
      <path d="M1795.752,2242.227 L1572.515,2113.341 L1701.401,1890.104 L1924.638,2018.99 z" fill="#36939C" fill-opacity="0.547"/>
      <path d="M1924.638,2018.99 L2147.875,2147.876 L2018.99,2371.114 L1795.752,2242.228 z" fill="#36939C" fill-opacity="0.547"/>
      <path d="M1091.505,2242.228 L1314.742,2113.341 L1314.742,2371.114 z" fill="#36939C" fill-opacity="0.547"/>
      <path d="M1795.752,2242.228 L1572.515,2371.114 L1572.515,2113.341 z" fill="#36939C" fill-opacity="0.547"/>
      <path d="M1314.742,2371.114 L1314.742,2113.342 L1572.514,2113.342 L1572.514,2371.114 z" fill="#36939C" fill-opacity="0.547"/>
      <path d="M962.618,2018.99 L1185.855,1890.104 L1314.741,2113.342 L1091.505,2242.228 z" fill="#36939C" fill-opacity="0.547"/>
      <path d="M739.381,2147.877 L962.618,2018.99 L1091.505,2242.228 L868.267,2371.114 z" fill="#36939C" fill-opacity="0.547"/>
      <path d="M868.267,1409.094 L1091.504,1537.98 L962.618,1761.218 L739.38,1632.331 z" fill="#36939C" fill-opacity="0.547"/>
      <path d="M1314.742,1409.094 L1314.742,1666.866 L1091.504,1537.98 z" fill="#36939C" fill-opacity="0.547"/>
      <path d="M516.143,2018.991 L516.143,1761.218 L739.38,1632.332 L962.618,1761.218 L962.618,2018.99 L739.38,2147.876 z" fill="#36939C" fill-opacity="0.547"/>
      <path d="M962.618,2018.99 L962.618,1761.218 L1185.856,1890.104 z" fill="#36939C" fill-opacity="0.547"/>
      <path d="M1091.504,1537.98 L1314.742,1666.866 L1185.855,1890.104 L962.618,1761.218 z" fill="#36939C" fill-opacity="0.547"/>
      <path d="M868.267,1409.094 L868.266,1151.321 L1091.504,1022.435 L1314.742,1151.321 L1314.742,1409.094 L1091.504,1537.98 z" fill="#36939C" fill-opacity="0.547"/>
      <path d="M1572.514,1409.094 L1572.514,1666.866 L1314.742,1666.866 L1314.741,1409.094 z" fill="#36939C" fill-opacity="0.547"/>
      <path d="M1572.514,1151.321 L1572.514,1409.094 L1314.741,1409.094 L1314.741,1151.321 z" fill="#36939C" fill-opacity="0.547"/>
      <path d="M1795.752,1537.98 L1572.514,1666.867 L1572.514,1409.094 z" fill="#36939C" fill-opacity="0.547"/>
      <path d="M1572.514,1151.321 L1795.752,1022.435 L2018.989,1151.321 L2018.989,1409.094 L1795.752,1537.98 L1572.514,1409.094 z" fill="#36939C" fill-opacity="0.547"/>
      <path d="M1924.638,2018.99 L1701.401,1890.104 L1924.638,1761.217 z" fill="#36939C" fill-opacity="0.547"/>
      <path d="M2147.876,1632.331 L2371.114,1761.217 L2371.114,2018.99 L2147.876,2147.876 L1924.639,2018.99 L1924.639,1761.217 z" fill="#36939C" fill-opacity="0.547"/>
      <path d="M1924.638,1761.217 L1701.4,1890.104 L1572.514,1666.866 L1795.751,1537.98 z" fill="#36939C" fill-opacity="0.547"/>
      <path d="M2147.875,1632.331 L1924.638,1761.217 L1795.751,1537.98 L2018.989,1409.094 z" fill="#36939C" fill-opacity="0.547"/>
      <path d="M1701.401,1890.104 L1572.515,2113.342 L1314.742,2113.342 L1185.856,1890.104 L1314.742,1666.866 L1572.515,1666.866 z" fill="#36939C" fill-opacity="0.547"/>
    </g>
    <g>
      <path d="M3204.248,2757.773 L3427.486,2886.659 L3298.599,3109.897 L3075.362,2981.01 z" fill="#36939C" fill-opacity="0.547"/>
      <path d="M3075.362,2981.01 L2852.124,2852.124 L2981.01,2628.887 L3204.247,2757.773 z" fill="#36939C" fill-opacity="0.547"/>
      <path d="M3908.496,2757.773 L3685.259,2886.659 L3685.258,2628.886 z" fill="#36939C" fill-opacity="0.547"/>
      <path d="M3204.248,2757.773 L3427.485,2628.886 L3427.485,2886.659 z" fill="#36939C" fill-opacity="0.547"/>
      <path d="M3685.258,2628.886 L3685.258,2886.659 L3427.486,2886.659 L3427.485,2628.886 z" fill="#36939C" fill-opacity="0.547"/>
      <path d="M4037.382,2981.01 L3814.144,3109.896 L3685.258,2886.659 L3908.495,2757.772 z" fill="#36939C" fill-opacity="0.547"/>
      <path d="M4260.619,2852.124 L4037.382,2981.01 L3908.495,2757.772 L4131.732,2628.886 z" fill="#36939C" fill-opacity="0.547"/>
      <path d="M4131.733,3590.906 L3908.496,3462.02 L4037.382,3238.783 L4260.62,3367.669 z" fill="#36939C" fill-opacity="0.547"/>
      <path d="M3685.258,3590.906 L3685.258,3333.134 L3908.496,3462.02 z" fill="#36939C" fill-opacity="0.547"/>
      <path d="M4483.857,2981.01 L4483.857,3238.782 L4260.62,3367.669 L4037.382,3238.782 L4037.382,2981.01 L4260.62,2852.124 z" fill="#36939C" fill-opacity="0.547"/>
      <path d="M4037.382,2981.01 L4037.382,3238.782 L3814.144,3109.896 z" fill="#36939C" fill-opacity="0.547"/>
      <path d="M3908.496,3462.02 L3685.258,3333.134 L3814.145,3109.896 L4037.382,3238.783 z" fill="#36939C" fill-opacity="0.547"/>
      <path d="M4131.733,3590.906 L4131.733,3848.679 L3908.496,3977.565 L3685.258,3848.679 L3685.258,3590.907 L3908.496,3462.021 z" fill="#36939C" fill-opacity="0.547"/>
      <path d="M3427.486,3590.906 L3427.486,3333.134 L3685.258,3333.134 L3685.258,3590.906 z" fill="#36939C" fill-opacity="0.547"/>
      <path d="M3427.486,3848.679 L3427.486,3590.906 L3685.258,3590.906 L3685.259,3848.679 z" fill="#36939C" fill-opacity="0.547"/>
      <path d="M3204.248,3462.02 L3427.486,3333.134 L3427.486,3590.907 z" fill="#36939C" fill-opacity="0.547"/>
      <path d="M3427.486,3848.679 L3204.248,3977.566 L2981.01,3848.679 L2981.01,3590.906 L3204.248,3462.02 L3427.485,3590.906 z" fill="#36939C" fill-opacity="0.547"/>
      <path d="M3075.362,2981.01 L3298.599,3109.897 L3075.361,3238.783 z" fill="#36939C" fill-opacity="0.547"/>
      <path d="M2852.124,3367.669 L2628.886,3238.783 L2628.886,2981.01 L2852.124,2852.124 L3075.361,2981.01 L3075.361,3238.783 z" fill="#36939C" fill-opacity="0.547"/>
      <path d="M3075.362,3238.783 L3298.599,3109.896 L3427.486,3333.134 L3204.249,3462.02 z" fill="#36939C" fill-opacity="0.547"/>
      <path d="M2852.125,3367.669 L3075.362,3238.783 L3204.248,3462.021 L2981.011,3590.907 z" fill="#36939C" fill-opacity="0.547"/>
      <path d="M3298.6,3109.896 L3427.486,2886.658 L3685.259,2886.659 L3814.145,3109.896 L3685.259,3333.134 L3427.486,3333.134 z" fill="#36939C" fill-opacity="0.547"/>
    </g>
  </g>
  <g id="Layer_3_Copy">
    <g>
      <path d="M3075.362,4200.803 L2852.124,4071.917 L2981.01,3848.679 L3204.248,3977.565 z" fill="#1E3979"/>
      <path d="M2371.114,4458.576 L2371.114,4200.803 L2628.887,4200.803 L2628.887,4458.576 z" fill="#234188"/>
      <path d="M3075.362,4458.576 L2852.124,4587.462 L2628.887,4458.576 L2628.887,4200.803 L2852.125,4071.917 L3075.362,4200.803 z" fill="#213D81"/>
      <path d="M2371.114,4458.576 L2147.876,4587.462 L1924.639,4458.576 L1924.639,4200.803 L2147.876,4071.917 L2371.114,4200.803 z" fill="#264692"/>
      <path d="M1795.753,3977.566 L2018.99,3848.68 L2147.877,4071.917 L1924.639,4200.804 z" fill="#284897"/>
      <path d="M1795.753,3977.566 L1572.515,3848.68 L1572.515,3590.907 L1795.753,3462.021 L2018.99,3590.907 L2018.99,3848.679 z" fill="#2A4C9E"/>
      <path d="M1924.638,3238.783 L1924.638,2981.01 L2147.876,2852.124 L2371.113,2981.01 L2371.114,3238.783 L2147.876,3367.669 z" fill="#2E52AA"/>
      <path d="M1924.639,3238.784 L2147.876,3367.67 L2018.99,3590.907 L1795.753,3462.021 z" fill="#2D4FA5"/>
      <path d="M2628.886,1761.217 L2628.886,2018.99 L2371.114,2018.99 L2371.114,1761.217 z" fill="#040A20"/>
      <path d="M3204.247,1022.434 L3427.485,1151.32 L3427.485,1409.093 L3204.247,1537.979 L2981.01,1409.093 L2981.01,1151.321 z" fill="#071433"/>
      <path d="M3075.362,1761.217 L3075.362,2018.99 L2852.124,2147.876 L2628.887,2018.99 L2628.886,1761.217 L2852.124,1632.331 z" fill="#050D25"/>
      <path d="M3075.361,1761.216 L2852.124,1632.33 L2981.01,1409.093 L3204.247,1537.979 z" fill="#06102C"/>
      <path d="M1795.752,2757.773 L2018.99,2628.887 L2147.876,2852.124 L1924.638,2981.01 z" fill="#3157B3"/>
      <path d="M868.267,2628.887 L868.267,2371.114 L1091.504,2242.228 L1314.742,2371.115 L1314.742,2628.887 L1091.505,2757.773 z" fill="#3A64CD"/>
      <path d="M1572.515,2371.114 L1795.752,2242.227 L2018.99,2371.114 L2018.99,2628.886 L1795.752,2757.773 L1572.515,2628.886 z" fill="#355EC0"/>
      <path d="M1572.514,2371.115 L1572.514,2628.887 L1314.742,2628.887 L1314.742,2371.115 z" fill="#3861C7"/>
      <path d="M3685.257,1151.321 L3685.258,1409.093 L3427.485,1409.093 L3427.485,1151.321 z" fill="#081636"/>
      <path d="M4260.619,1632.33 L4037.382,1761.216 L3908.495,1537.979 L4131.733,1409.092 z" fill="#0A193C"/>
      <path d="M3908.495,1022.433 L4131.733,1151.32 L4131.733,1409.092 L3908.495,1537.979 L3685.258,1409.092 L3685.258,1151.32 z" fill="#091739"/>
      <path d="M4260.619,1632.331 L4483.857,1761.217 L4483.857,2018.99 L4260.62,2147.876 L4037.382,2018.99 L4037.382,1761.217 z" fill="#0C1C43"/>
      <path d="M4131.733,2371.113 L3908.495,2242.227 L4037.382,2018.989 L4260.619,2147.875 z" fill="#0E1F48"/>
      <path d="M4131.733,2371.113 L4131.733,2628.886 L3908.496,2757.772 L3685.258,2628.886 L3685.258,2371.113 L3908.495,2242.227 z" fill="#10224E"/>
      <path d="M3427.486,2628.886 L3204.248,2757.773 L2981.011,2628.886 L2981.011,2371.114 L3204.248,2242.228 L3427.486,2371.114 z" fill="#14285A"/>
      <path d="M3427.486,2628.885 L3427.486,2371.113 L3685.258,2371.113 L3685.258,2628.885 z" fill="#122554"/>
      <path d="M739.381,2147.877 L962.618,2018.99 L1091.505,2242.228 L868.267,2371.114 z" fill="#3C68D4"/>
      <path d="M868.267,1409.094 L1091.504,1537.98 L962.618,1761.218 L739.38,1632.331 z" fill="#406FE0"/>
      <path d="M516.143,2018.991 L516.143,1761.218 L739.38,1632.332 L962.618,1761.218 L962.618,2018.99 L739.38,2147.876 z" fill="#3E6BDA"/>
      <path d="M868.267,1409.094 L868.266,1151.321 L1091.504,1022.435 L1314.742,1151.321 L1314.742,1409.094 L1091.504,1537.98 z" fill="#4272E7"/>
      <path d="M1572.514,1151.321 L1572.514,1409.094 L1314.741,1409.094 L1314.741,1151.321 z" fill="#4475ED"/>
      <path d="M1572.514,1151.321 L1795.752,1022.435 L2018.989,1151.321 L2018.989,1409.093 L1795.752,1537.98 L1572.514,1409.094 z" fill="#4678F3"/>
      <path d="M2147.876,1632.331 L2371.114,1761.217 L2371.114,2018.99 L2147.876,2147.876 L1924.639,2018.99 L1924.639,1761.217 z" fill="#4A7FFF"/>
      <path d="M2147.875,1632.331 L1924.638,1761.217 L1795.752,1537.98 L2018.989,1409.094 z" fill="#487BF9"/>
      <path d="M3075.361,2981.01 L2852.124,2852.124 L2981.01,2628.887 L3204.247,2757.773 z" fill="#162B5F"/>
      <path d="M3427.485,3848.679 L3204.248,3977.566 L2981.01,3848.679 L2981.01,3590.906 L3204.248,3462.02 L3427.485,3590.906 z" fill="#1C3572"/>
      <path d="M2852.124,3367.669 L2628.886,3238.783 L2628.886,2981.01 L2852.124,2852.124 L3075.361,2981.01 L3075.361,3238.783 z" fill="#182E65"/>
      <path d="M2852.125,3367.669 L3075.362,3238.783 L3204.248,3462.021 L2981.011,3590.907 z" fill="#19316A"/>
    </g>
    <g>
      <path d="M1314.743,3848.68 L1314.743,3590.907 L1572.515,3590.907 L1572.515,3848.68 z" fill="#1E3979"/>
      <path d="M739.381,3367.67 L962.618,3238.784 L1091.505,3462.021 L868.267,3590.908 z" fill="#234188"/>
      <path d="M1091.505,3977.567 L868.267,3848.68 L868.267,3590.908 L1091.505,3462.021 L1314.743,3590.908 L1314.743,3848.68 z" fill="#213D81"/>
      <path d="M739.381,3367.67 L516.143,3238.784 L516.143,2981.011 L739.381,2852.125 L962.618,2981.011 L962.618,3238.784 z" fill="#264692"/>
      <path d="M868.267,2628.888 L1091.505,2757.774 L962.618,2981.011 L739.381,2852.125 z" fill="#284897"/>
      <path d="M868.267,2628.888 L868.267,2371.115 L1091.505,2242.229 L1314.742,2371.115 L1314.742,2628.887 L1091.505,2757.774 z" fill="#2A4C9E"/>
      <path d="M1572.515,2371.114 L1795.752,2242.228 L2018.99,2371.114 L2018.99,2628.887 L1795.752,2757.773 L1572.515,2628.887 z" fill="#2E52AA"/>
      <path d="M1572.514,2371.115 L1572.514,2628.887 L1314.742,2628.887 L1314.742,2371.115 z" fill="#2D4FA5"/>
      <path d="M3204.248,2242.228 L2981.01,2371.114 L2852.124,2147.876 L3075.362,2018.99 z" fill="#040A20"/>
      <path d="M4131.733,2371.113 L4131.733,2628.886 L3908.496,2757.772 L3685.258,2628.886 L3685.258,2371.114 L3908.496,2242.228 z" fill="#071433"/>
      <path d="M3427.486,2628.887 L3204.248,2757.773 L2981.01,2628.887 L2981.01,2371.115 L3204.248,2242.228 L3427.486,2371.115 z" fill="#050D25"/>
      <path d="M3427.486,2628.886 L3427.486,2371.114 L3685.259,2371.114 L3685.259,2628.886 z" fill="#06102C"/>
      <path d="M1924.638,2018.99 L2147.876,2147.877 L2018.99,2371.114 L1795.752,2242.228 z" fill="#3157B3"/>
      <path d="M1572.514,1151.322 L1795.752,1022.435 L2018.989,1151.322 L2018.989,1409.094 L1795.752,1537.98 L1572.514,1409.094 z" fill="#3A64CD"/>
      <path d="M2147.876,1632.332 L2371.114,1761.218 L2371.114,2018.991 L2147.876,2147.877 L1924.639,2018.99 L1924.639,1761.218 z" fill="#355EC0"/>
      <path d="M2147.875,1632.332 L1924.638,1761.218 L1795.752,1537.98 L2018.989,1409.094 z" fill="#3861C7"/>
      <path d="M4260.619,2852.124 L4037.382,2981.01 L3908.496,2757.773 L4131.733,2628.886 z" fill="#081636"/>
      <path d="M4131.733,3590.906 L3908.497,3462.02 L4037.382,3238.783 L4260.621,3367.669 z" fill="#0A193C"/>
      <path d="M4483.858,2981.01 L4483.858,3238.783 L4260.62,3367.669 L4037.383,3238.783 L4037.383,2981.01 L4260.62,2852.124 z" fill="#091739"/>
      <path d="M4131.733,3590.907 L4131.733,3848.68 L3908.496,3977.566 L3685.258,3848.68 L3685.258,3590.907 L3908.496,3462.021 z" fill="#0C1C43"/>
      <path d="M3427.487,3848.679 L3427.486,3590.906 L3685.259,3590.907 L3685.259,3848.679 z" fill="#0E1F48"/>
      <path d="M3427.486,3848.679 L3204.248,3977.566 L2981.011,3848.679 L2981.011,3590.907 L3204.248,3462.021 L3427.486,3590.907 z" fill="#10224E"/>
      <path d="M2852.125,3367.67 L2628.886,3238.784 L2628.886,2981.011 L2852.124,2852.125 L3075.362,2981.011 L3075.362,3238.784 z" fill="#14285A"/>
      <path d="M2852.125,3367.67 L3075.362,3238.783 L3204.249,3462.021 L2981.011,3590.907 z" fill="#122554"/>
      <path d="M1924.639,799.198 L2147.876,928.084 L2018.99,1151.322 L1795.752,1022.436 z" fill="#3C68D4"/>
      <path d="M2628.886,541.425 L2628.886,799.197 L2371.114,799.197 L2371.113,541.425 z" fill="#406FE0"/>
      <path d="M1924.638,541.425 L2147.876,412.538 L2371.113,541.425 L2371.113,799.197 L2147.876,928.084 L1924.638,799.197 z" fill="#3E6BDA"/>
      <path d="M2628.886,541.425 L2852.124,412.538 L3075.361,541.425 L3075.361,799.197 L2852.124,928.084 L2628.886,799.197 z" fill="#4272E7"/>
      <path d="M3204.247,1022.435 L2981.01,1151.321 L2852.124,928.083 L3075.361,799.197 z" fill="#4475ED"/>
      <path d="M3204.247,1022.435 L3427.485,1151.321 L3427.485,1409.094 L3204.248,1537.98 L2981.01,1409.094 L2981.01,1151.321 z" fill="#4678F3"/>
      <path d="M3075.362,1761.218 L3075.362,2018.991 L2852.124,2147.877 L2628.887,2018.99 L2628.887,1761.218 L2852.124,1632.332 z" fill="#4A7FFF"/>
      <path d="M3075.361,1761.217 L2852.124,1632.331 L2981.01,1409.093 L3204.247,1537.979 z" fill="#487BF9"/>
      <path d="M2371.114,3238.783 L2371.114,2981.011 L2628.886,2981.011 L2628.886,3238.783 z" fill="#162B5F"/>
      <path d="M1795.753,3977.566 L1572.515,3848.68 L1572.515,3590.907 L1795.753,3462.021 L2018.99,3590.907 L2018.99,3848.679 z" fill="#1C3572"/>
      <path d="M1924.638,3238.784 L1924.638,2981.01 L2147.876,2852.125 L2371.113,2981.011 L2371.114,3238.783 L2147.876,3367.669 z" fill="#182E65"/>
      <path d="M1924.639,3238.784 L2147.876,3367.67 L2018.99,3590.908 L1795.753,3462.021 z" fill="#19316A"/>
    </g>
  </g>
  <g id="Layer_3_Copy">
    <g>
      <path d="M2018.991,2628.887 L2242.228,2500.001 L2371.115,2723.238 L2147.877,2852.125 z" fill="#9F3248"/>
      <path d="M2981.011,2371.114 L2757.773,2500 L2628.887,2276.763 L2852.125,2147.876 z" fill="#8F2C40"/>
      <path d="M2371.114,2723.238 L2242.228,2500 L2371.114,2276.763 L2628.887,2276.763 L2757.773,2500 L2628.887,2723.238 z" fill="#982F45"/>
      <path d="M1924.638,2981.01 L1701.401,3109.897 L1572.515,2886.659 L1795.752,2757.773 z" fill="#B03851"/>
      <path d="M1795.752,2757.773 L2018.99,2628.887 L2147.876,2852.124 L1924.638,2981.01 z" fill="#A7354C"/>
      <path d="M1572.515,3590.907 L1572.515,3333.135 L1795.752,3462.021 z" fill="#C4405B"/>
      <path d="M1924.638,2981.01 L1924.639,3238.783 L1701.401,3109.897 z" fill="#B73B54"/>
      <path d="M1795.752,3462.021 L1572.515,3333.135 L1701.401,3109.897 L1924.639,3238.783 z" fill="#BD3D57"/>
      <path d="M1314.742,3590.907 L1314.742,3333.135 L1572.515,3333.135 L1572.515,3590.907 z" fill="#C9415D"/>
      <path d="M962.618,2981.011 L1185.856,3109.897 L962.618,3238.783 z" fill="#DC4867"/>
      <path d="M1314.742,3590.907 L1091.505,3462.021 L1314.742,3333.135 z" fill="#CF4460"/>
      <path d="M962.619,3238.783 L1185.856,3109.897 L1314.742,3333.135 L1091.505,3462.021 z" fill="#D64663"/>
      <path d="M1091.504,2757.774 L1314.742,2886.66 L1185.856,3109.897 L962.619,2981.011 z" fill="#E24B6A"/>
      <path d="M1314.742,2628.887 L1314.742,2886.66 L1091.504,2757.773 z" fill="#E94D6D"/>
      <path d="M1795.752,2757.773 L1572.515,2886.659 L1572.514,2628.886 z" fill="#F75374"/>
      <path d="M1572.514,2628.887 L1572.514,2886.66 L1314.742,2886.66 L1314.742,2628.887 z" fill="#F15071"/>
      <path d="M3075.362,2018.99 L3298.599,1890.104 L3427.485,2113.341 L3204.248,2242.227 z" fill="#802639"/>
      <path d="M3204.248,2242.227 L2981.01,2371.114 L2852.124,2147.876 L3075.362,2018.99 z" fill="#87293C"/>
      <path d="M3427.485,1409.093 L3427.486,1666.866 L3204.248,1537.98 z" fill="#681E2D"/>
      <path d="M3075.362,2018.99 L3075.361,1761.217 L3298.599,1890.104 z" fill="#782435"/>
      <path d="M3204.248,1537.98 L3427.485,1666.866 L3298.599,1890.103 L3075.362,1761.217 z" fill="#702131"/>
      <path d="M3685.258,1409.093 L3685.258,1666.866 L3427.485,1666.866 L3427.485,1409.093 z" fill="#601B29"/>
      <path d="M4037.382,2018.989 L3814.144,1890.103 L4037.382,1761.217 z" fill="#4C131F"/>
      <path d="M3685.258,1409.093 L3908.495,1537.979 L3685.258,1666.866 z" fill="#581825"/>
      <path d="M4037.381,1761.217 L3814.144,1890.103 L3685.258,1666.866 L3908.495,1537.979 z" fill="#521522"/>
      <path d="M3908.496,2242.227 L3685.258,2113.341 L3814.144,1890.103 L4037.381,2018.989 z" fill="#43101A"/>
      <path d="M3685.258,2371.113 L3685.258,2113.341 L3908.496,2242.227 z" fill="#3A0D16"/>
      <path d="M3204.248,2242.227 L3427.485,2113.341 L3427.486,2371.113 z" fill="#24060B"/>
      <path d="M3427.486,2371.113 L3427.486,2113.341 L3685.258,2113.341 L3685.258,2371.113 z" fill="#300911"/>
    </g>
    <g>
      <path d="M2147.876,2147.877 L2371.114,2276.763 L2242.227,2500.001 L2018.99,2371.115 z" fill="#9F3248"/>
      <path d="M2852.124,2852.125 L2628.886,2723.238 L2757.773,2500.001 L2981.01,2628.887 z" fill="#8F2C40"/>
      <path d="M2242.227,2500.001 L2371.114,2276.763 L2628.886,2276.763 L2757.772,2500.001 L2628.886,2723.238 L2371.114,2723.238 z" fill="#982F45"/>
      <path d="M1795.752,2242.227 L1572.515,2113.341 L1701.401,1890.104 L1924.638,2018.99 z" fill="#B03851"/>
      <path d="M1924.638,2018.99 L2147.875,2147.876 L2018.989,2371.114 L1795.752,2242.228 z" fill="#A7354C"/>
      <path d="M1091.504,2242.228 L1314.742,2113.341 L1314.742,2371.114 z" fill="#C4405B"/>
      <path d="M1795.752,2242.228 L1572.515,2371.114 L1572.514,2113.341 z" fill="#B73B54"/>
      <path d="M1314.742,2371.114 L1314.742,2113.342 L1572.514,2113.342 L1572.515,2371.114 z" fill="#BD3D57"/>
      <path d="M962.618,2018.99 L1185.855,1890.104 L1314.742,2113.342 L1091.504,2242.228 z" fill="#C9415D"/>
      <path d="M1314.742,1409.094 L1314.742,1666.866 L1091.504,1537.98 z" fill="#DC4867"/>
      <path d="M962.618,2018.99 L962.618,1761.218 L1185.855,1890.104 z" fill="#CF4460"/>
      <path d="M1091.504,1537.98 L1314.741,1666.866 L1185.855,1890.104 L962.618,1761.218 z" fill="#D64663"/>
      <path d="M1572.514,1409.094 L1572.514,1666.867 L1314.741,1666.866 L1314.741,1409.094 z" fill="#E24B6A"/>
      <path d="M1795.751,1537.98 L1572.514,1666.866 L1572.514,1409.094 z" fill="#E94D6D"/>
      <path d="M1924.638,2018.99 L1701.4,1890.104 L1924.638,1761.217 z" fill="#F75374"/>
      <path d="M1924.638,1761.217 L1701.4,1890.104 L1572.514,1666.866 L1795.751,1537.98 z" fill="#F15071"/>
      <path d="M3204.248,2757.773 L3427.486,2886.659 L3298.599,3109.897 L3075.362,2981.01 z" fill="#802639"/>
      <path d="M3075.362,2981.01 L2852.124,2852.124 L2981.01,2628.887 L3204.248,2757.773 z" fill="#87293C"/>
      <path d="M3908.495,2757.773 L3685.258,2886.659 L3685.258,2628.886 z" fill="#681E2D"/>
      <path d="M3204.248,2757.773 L3427.485,2628.886 L3427.485,2886.659 z" fill="#782435"/>
      <path d="M3685.258,2628.886 L3685.258,2886.659 L3427.486,2886.659 L3427.486,2628.886 z" fill="#702131"/>
      <path d="M4037.382,2981.01 L3814.145,3109.896 L3685.258,2886.659 L3908.495,2757.772 z" fill="#601B29"/>
      <path d="M3685.258,3590.906 L3685.258,3333.134 L3908.496,3462.02 z" fill="#4C131F"/>
      <path d="M4037.382,2981.01 L4037.382,3238.782 L3814.145,3109.896 z" fill="#581825"/>
      <path d="M3908.496,3462.02 L3685.258,3333.134 L3814.144,3109.896 L4037.382,3238.783 z" fill="#521522"/>
      <path d="M3427.486,3590.906 L3427.486,3333.134 L3685.258,3333.134 L3685.258,3590.906 z" fill="#43101A"/>
      <path d="M3204.249,3462.02 L3427.486,3333.134 L3427.486,3590.906 z" fill="#3A0D16"/>
      <path d="M3075.362,2981.01 L3298.599,3109.896 L3075.362,3238.783 z" fill="#24060B"/>
      <path d="M3075.362,3238.783 L3298.6,3109.896 L3427.486,3333.134 L3204.249,3462.02 z" fill="#300911"/>
    </g>
    <g>
      <path d="M2628.885,2018.991 L2628.885,2276.763 L2371.113,2276.763 L2371.113,2018.991 z" fill="#9F3248"/>
      <path d="M2371.113,2981.011 L2371.113,2723.238 L2628.886,2723.238 L2628.886,2981.011 z" fill="#8F2C40"/>
      <path d="M2371.113,2276.763 L2628.886,2276.763 L2757.772,2500 L2628.886,2723.238 L2371.113,2723.238 L2242.227,2500.001 z" fill="#982F45"/>
      <path d="M2371.114,1761.217 L2371.114,1503.445 L2628.886,1503.445 L2628.886,1761.217 z" fill="#B03851"/>
      <path d="M2628.886,1761.217 L2628.886,2018.99 L2371.114,2018.99 L2371.114,1761.217 z" fill="#A7354C"/>
      <path d="M2018.99,1151.321 L2242.227,1280.207 L2018.99,1409.094 z" fill="#C4405B"/>
      <path d="M2371.114,1761.217 L2147.876,1632.331 L2371.114,1503.445 z" fill="#B73B54"/>
      <path d="M2018.99,1409.094 L2242.227,1280.207 L2371.113,1503.445 L2147.876,1632.331 z" fill="#BD3D57"/>
      <path d="M2147.875,928.084 L2371.113,1056.97 L2242.227,1280.207 L2018.99,1151.321 z" fill="#C9415D"/>
      <path d="M2852.123,928.083 L2628.886,1056.969 L2628.885,799.197 z" fill="#DC4867"/>
      <path d="M2147.875,928.083 L2371.113,799.197 L2371.113,1056.969 z" fill="#CF4460"/>
      <path d="M2628.885,799.197 L2628.886,1056.969 L2371.113,1056.969 L2371.113,799.197 z" fill="#D64663"/>
      <path d="M2981.009,1151.32 L2757.772,1280.207 L2628.886,1056.969 L2852.123,928.083 z" fill="#E24B6A"/>
      <path d="M2981.009,1409.093 L2757.772,1280.207 L2981.01,1151.32 z" fill="#E94D6D"/>
      <path d="M2628.886,1761.217 L2628.886,1503.445 L2852.124,1632.331 z" fill="#F75374"/>
      <path d="M2852.123,1632.33 L2628.886,1503.444 L2757.772,1280.207 L2981.01,1409.093 z" fill="#F15071"/>
      <path d="M2628.886,3238.783 L2628.886,3496.556 L2371.114,3496.556 L2371.114,3238.783 z" fill="#802639"/>
      <path d="M2371.114,3238.783 L2371.114,2981.011 L2628.886,2981.011 L2628.886,3238.783 z" fill="#87293C"/>
      <path d="M2981.01,3848.679 L2757.773,3719.793 L2981.01,3590.907 z" fill="#681E2D"/>
      <path d="M2628.886,3238.783 L2852.124,3367.669 L2628.886,3496.556 z" fill="#782435"/>
      <path d="M2981.01,3590.907 L2757.773,3719.793 L2628.887,3496.556 L2852.124,3367.669 z" fill="#702131"/>
      <path d="M2852.124,4071.917 L2628.887,3943.031 L2757.773,3719.793 L2981.01,3848.679 z" fill="#601B29"/>
      <path d="M2147.876,4071.917 L2371.114,3943.031 L2371.114,4200.803 z" fill="#4C131F"/>
      <path d="M2852.124,4071.917 L2628.887,4200.804 L2628.887,3943.031 z" fill="#581825"/>
      <path d="M2371.114,4200.803 L2371.114,3943.031 L2628.887,3943.031 L2628.887,4200.804 z" fill="#521522"/>
      <path d="M2018.99,3848.68 L2242.228,3719.793 L2371.114,3943.031 L2147.877,4071.917 z" fill="#43101A"/>
      <path d="M2018.99,3590.907 L2242.228,3719.793 L2018.99,3848.68 z" fill="#3A0D16"/>
      <path d="M2371.114,3238.783 L2371.114,3496.556 L2147.876,3367.67 z" fill="#24060B"/>
      <path d="M2147.876,3367.67 L2371.114,3496.556 L2242.228,3719.794 L2018.99,3590.907 z" fill="#300911"/>
    </g>
  </g>
  <g id="Layer_3_Copy">
    <g>
      <path d="M3075.362,4200.803 L2852.124,4071.917 L2981.01,3848.679 L3204.248,3977.565 z" fill="#8E5E1F"/>
      <path d="M2371.114,4458.576 L2371.114,4200.803 L2628.887,4200.803 L2628.887,4458.576 z" fill="#936220"/>
      <path d="M3075.362,4458.576 L2852.124,4587.462 L2628.887,4458.576 L2628.887,4200.803 L2852.125,4071.917 L3075.362,4200.803 z" fill="#90601F"/>
      <path d="M2371.114,4458.576 L2147.876,4587.462 L1924.639,4458.576 L1924.639,4200.804 L2147.876,4071.917 L2371.114,4200.803 z" fill="#986521"/>
      <path d="M1795.753,3977.566 L2018.99,3848.68 L2147.877,4071.917 L1924.639,4200.804 z" fill="#9C6823"/>
      <path d="M1795.753,3977.566 L1572.515,3848.68 L1572.515,3590.907 L1795.753,3462.021 L2018.99,3590.907 L2018.99,3848.679 z" fill="#A16C24"/>
      <path d="M1924.638,799.197 L2147.876,928.083 L2018.99,1151.321 L1795.752,1022.435 z" fill="#EFA23A"/>
      <path d="M2628.886,541.424 L2628.886,799.197 L2371.113,799.197 L2371.113,541.424 z" fill="#1F1104"/>
      <path d="M1924.638,541.424 L2147.876,412.538 L2371.113,541.424 L2371.113,799.197 L2147.876,928.083 L1924.638,799.197 z" fill="#F7A73D"/>
      <path d="M2628.886,541.424 L2852.124,412.538 L3075.361,541.424 L3075.361,799.197 L2852.124,928.083 L2628.886,799.197 z" fill="#261604"/>
      <path d="M3204.247,1022.434 L2981.01,1151.32 L2852.123,928.083 L3075.361,799.197 z" fill="#2D1B05"/>
      <path d="M3204.247,1022.434 L3427.485,1151.32 L3427.485,1409.093 L3204.247,1537.979 L2981.01,1409.093 L2981.01,1151.321 z" fill="#331F06"/>
      <path d="M1314.743,3848.68 L1314.742,3590.907 L1572.515,3590.907 L1572.515,3848.679 z" fill="#A66F25"/>
      <path d="M739.381,3367.67 L962.618,3238.783 L1091.504,3462.021 L868.267,3590.907 z" fill="#AD7427"/>
      <path d="M1091.505,3977.567 L868.267,3848.68 L868.267,3590.907 L1091.505,3462.021 L1314.742,3590.907 L1314.742,3848.68 z" fill="#A87026"/>
      <path d="M739.381,3367.67 L516.143,3238.784 L516.143,2981.011 L739.381,2852.125 L962.618,2981.011 L962.618,3238.783 z" fill="#B17729"/>
      <path d="M868.267,2628.887 L1091.504,2757.773 L962.618,2981.011 L739.38,2852.125 z" fill="#B67A2A"/>
      <path d="M868.267,2628.887 L868.267,2371.114 L1091.504,2242.228 L1314.742,2371.115 L1314.742,2628.887 L1091.504,2757.773 z" fill="#BA7D2B"/>
      <path d="M3685.258,1151.321 L3685.258,1409.093 L3427.485,1409.093 L3427.485,1151.321 z" fill="#3D2608"/>
      <path d="M4260.619,1632.33 L4037.382,1761.217 L3908.495,1537.979 L4131.733,1409.093 z" fill="#52340D"/>
      <path d="M3908.495,1022.434 L4131.733,1151.321 L4131.733,1409.093 L3908.495,1537.979 L3685.258,1409.093 L3685.258,1151.321 z" fill="#492E0B"/>
      <path d="M4260.619,1632.331 L4483.857,1761.217 L4483.857,2018.99 L4260.62,2147.876 L4037.382,2018.99 L4037.382,1761.217 z" fill="#5A3A10"/>
      <path d="M4131.733,2371.113 L3908.495,2242.227 L4037.382,2018.989 L4260.619,2147.875 z" fill="#624012"/>
      <path d="M4131.733,2371.113 L4131.733,2628.886 L3908.496,2757.772 L3685.258,2628.886 L3685.258,2371.113 L3908.495,2242.227 z" fill="#6A4614"/>
      <path d="M739.381,2147.877 L962.618,2018.991 L1091.504,2242.228 L868.267,2371.114 z" fill="#BF802D"/>
      <path d="M868.266,1409.094 L1091.504,1537.98 L962.618,1761.218 L739.38,1632.331 z" fill="#CA8830"/>
      <path d="M516.143,2018.991 L516.142,1761.218 L739.38,1632.332 L962.618,1761.218 L962.618,2018.99 L739.38,2147.876 z" fill="#C3832E"/>
      <path d="M868.266,1409.094 L868.266,1151.321 L1091.504,1022.435 L1314.741,1151.321 L1314.742,1409.094 L1091.504,1537.98 z" fill="#D08C32"/>
      <path d="M1572.514,1151.321 L1572.514,1409.094 L1314.741,1409.093 L1314.741,1151.321 z" fill="#DB9435"/>
      <path d="M1572.514,1151.321 L1795.752,1022.435 L2018.989,1151.321 L2018.989,1409.094 L1795.752,1537.98 L1572.514,1409.094 z" fill="#E49A37"/>
      <path d="M4260.619,2852.124 L4037.382,2981.01 L3908.496,2757.772 L4131.733,2628.886 z" fill="#724B17"/>
      <path d="M4131.733,3590.906 L3908.496,3462.02 L4037.382,3238.782 L4260.62,3367.669 z" fill="#7A5019"/>
      <path d="M4483.857,2981.01 L4483.857,3238.782 L4260.62,3367.669 L4037.382,3238.782 L4037.382,2981.01 L4260.62,2852.124 z" fill="#754D17"/>
      <path d="M4131.733,3590.906 L4131.734,3848.679 L3908.496,3977.565 L3685.259,3848.679 L3685.258,3590.906 L3908.496,3462.02 z" fill="#7F541A"/>
      <path d="M3427.487,3848.679 L3427.486,3590.906 L3685.259,3590.906 L3685.259,3848.679 z" fill="#84571C"/>
      <path d="M3427.487,3848.679 L3204.248,3977.565 L2981.011,3848.679 L2981.011,3590.907 L3204.248,3462.02 L3427.486,3590.906 z" fill="#895B1D"/>
    </g>
  </g>
  <g id="Layer_3_Copy">
    <g>
      <path d="M2018.991,2628.887 L2242.228,2500.001 L2371.114,2723.238 L2147.877,2852.125 z" fill="#36939C" fill-opacity="0.547"/>
      <path d="M2371.114,2018.99 L2371.115,2276.763 L2147.877,2147.877 z" fill="#36939C" fill-opacity="0.547"/>
      <path d="M2018.99,2628.887 L2018.99,2371.115 L2242.228,2500.001 z" fill="#36939C" fill-opacity="0.547"/>
      <path d="M2147.877,2147.877 L2371.114,2276.763 L2242.228,2500 L2018.99,2371.114 z" fill="#36939C" fill-opacity="0.547"/>
      <path d="M2628.886,2018.99 L2628.887,2276.763 L2371.114,2276.763 L2371.114,2018.99 z" fill="#36939C" fill-opacity="0.547"/>
      <path d="M2981.01,2628.886 L2757.773,2500 L2981.01,2371.114 z" fill="#36939C" fill-opacity="0.547"/>
      <path d="M2628.887,2018.99 L2852.124,2147.876 L2628.886,2276.763 z" fill="#36939C" fill-opacity="0.547"/>
      <path d="M2981.01,2371.114 L2757.773,2500 L2628.887,2276.763 L2852.125,2147.876 z" fill="#36939C" fill-opacity="0.547"/>
      <path d="M2852.125,2852.124 L2628.887,2723.238 L2757.773,2500 L2981.01,2628.886 z" fill="#36939C" fill-opacity="0.547"/>
      <path d="M2628.887,2981.01 L2628.887,2723.238 L2852.125,2852.124 z" fill="#36939C" fill-opacity="0.547"/>
      <path d="M2147.877,2852.125 L2371.114,2723.238 L2371.115,2981.011 z" fill="#36939C" fill-opacity="0.547"/>
      <path d="M2371.115,2981.01 L2371.115,2723.238 L2628.887,2723.238 L2628.887,2981.01 z" fill="#36939C" fill-opacity="0.547"/>
      <path d="M2371.114,2723.238 L2242.228,2500 L2371.114,2276.763 L2628.887,2276.763 L2757.773,2500 L2628.887,2723.238 z" fill="#36939C" fill-opacity="0.547"/>
    </g>
    <path d="M2628.886,3238.783 L2628.886,3496.555 L2371.114,3496.555 L2371.114,3238.783 z" fill="#36939C" fill-opacity="0.547"/>
    <path d="M2371.114,3238.783 L2371.114,2981.01 L2628.886,2981.01 L2628.886,3238.783 z" fill="#36939C" fill-opacity="0.547"/>
    <path d="M2628.886,3238.783 L2852.124,3367.669 L2628.886,3496.555 z" fill="#36939C" fill-opacity="0.547"/>
    <path d="M2371.114,3238.783 L2371.114,3496.555 L2147.876,3367.669 z" fill="#36939C" fill-opacity="0.547"/>
    <path d="M1924.638,3238.783 L1924.638,2981.01 L2147.876,2852.124 L2371.113,2981.01 L2371.114,3238.783 L2147.876,3367.669 z" fill="#36939C" fill-opacity="0.547"/>
    <path d="M2371.114,1761.217 L2371.114,1503.445 L2628.886,1503.445 L2628.886,1761.217 z" fill="#36939C" fill-opacity="0.547"/>
    <path d="M2628.886,1761.217 L2628.886,2018.99 L2371.114,2018.99 L2371.114,1761.217 z" fill="#36939C" fill-opacity="0.547"/>
    <path d="M2371.114,1761.217 L2147.876,1632.331 L2371.114,1503.445 z" fill="#36939C" fill-opacity="0.547"/>
    <path d="M2628.886,1761.217 L2628.886,1503.445 L2852.124,1632.331 z" fill="#36939C" fill-opacity="0.547"/>
    <path d="M3075.362,1761.217 L3075.362,2018.99 L2852.124,2147.876 L2628.887,2018.99 L2628.886,1761.217 L2852.124,1632.331 z" fill="#36939C" fill-opacity="0.547"/>
    <path d="M1924.638,2981.01 L1701.401,3109.896 L1572.515,2886.659 L1795.752,2757.773 z" fill="#36939C" fill-opacity="0.547"/>
    <path d="M1795.752,2757.773 L2018.99,2628.886 L2147.876,2852.124 L1924.638,2981.01 z" fill="#36939C" fill-opacity="0.547"/>
    <path d="M1924.638,2981.01 L1924.639,3238.783 L1701.401,3109.896 z" fill="#36939C" fill-opacity="0.547"/>
    <path d="M1795.752,2757.773 L1572.515,2886.659 L1572.514,2628.886 z" fill="#36939C" fill-opacity="0.547"/>
    <path d="M1572.515,2371.114 L1795.752,2242.227 L2018.99,2371.114 L2018.99,2628.886 L1795.752,2757.772 L1572.515,2628.886 z" fill="#36939C" fill-opacity="0.547"/>
    <path d="M3075.362,2018.99 L3298.599,1890.104 L3427.485,2113.341 L3204.248,2242.228 z" fill="#36939C" fill-opacity="0.547"/>
    <path d="M3204.248,2242.227 L2981.01,2371.114 L2852.124,2147.876 L3075.362,2018.99 z" fill="#36939C" fill-opacity="0.547"/>
    <path d="M3075.362,2018.99 L3075.361,1761.217 L3298.599,1890.104 z" fill="#36939C" fill-opacity="0.547"/>
    <path d="M3204.248,2242.227 L3427.485,2113.341 L3427.486,2371.113 z" fill="#36939C" fill-opacity="0.547"/>
    <path d="M3427.486,2628.886 L3204.248,2757.773 L2981.011,2628.886 L2981.011,2371.114 L3204.248,2242.228 L3427.486,2371.114 z" fill="#36939C" fill-opacity="0.547"/>
    <path d="M1795.752,2242.227 L1572.515,2113.341 L1701.401,1890.104 L1924.638,2018.99 z" fill="#36939C" fill-opacity="0.547"/>
    <path d="M1924.638,2018.99 L2147.875,2147.876 L2018.99,2371.114 L1795.752,2242.227 z" fill="#36939C" fill-opacity="0.547"/>
    <path d="M1795.752,2242.228 L1572.515,2371.114 L1572.515,2113.341 z" fill="#36939C" fill-opacity="0.547"/>
    <path d="M1924.638,2018.99 L1701.401,1890.104 L1924.638,1761.217 z" fill="#36939C" fill-opacity="0.547"/>
    <path d="M2147.876,1632.331 L2371.114,1761.217 L2371.114,2018.99 L2147.876,2147.876 L1924.639,2018.99 L1924.639,1761.217 z" fill="#36939C" fill-opacity="0.547"/>
    <path d="M3204.248,2757.773 L3427.486,2886.659 L3298.599,3109.897 L3075.362,2981.01 z" fill="#36939C" fill-opacity="0.547"/>
    <path d="M3075.361,2981.01 L2852.124,2852.124 L2981.01,2628.887 L3204.247,2757.773 z" fill="#36939C" fill-opacity="0.547"/>
    <path d="M3204.248,2757.773 L3427.485,2628.886 L3427.485,2886.659 z" fill="#36939C" fill-opacity="0.547"/>
    <path d="M3075.362,2981.01 L3298.599,3109.897 L3075.361,3238.783 z" fill="#36939C" fill-opacity="0.547"/>
    <path d="M2852.124,3367.669 L2628.886,3238.783 L2628.886,2981.01 L2852.124,2852.124 L3075.361,2981.01 L3075.361,3238.783 z" fill="#36939C" fill-opacity="0.547"/>
  </g>
  <g id="Layer_3_Copy_Copy">
    <g>
      <path d="M2018.991,2628.887 L2242.228,2500.001 L2371.115,2723.238 L2147.877,2852.125 z" fill="#7A1B55"/>
      <path d="M2852.125,2852.124 L2628.887,2723.238 L2757.773,2500 L2981.01,2628.886 z" fill="#7A1B55"/>
      <path d="M2628.887,2981.01 L2628.887,2723.238 L2852.125,2852.124 z" fill="#9A256C"/>
      <path d="M2147.877,2852.125 L2371.114,2723.238 L2371.115,2981.011 z" fill="#9A256C"/>
      <path d="M2371.115,2981.01 L2371.115,2723.238 L2628.887,2723.238 L2628.887,2981.01 z" fill="#FB42B3"/>
      <path d="M2371.114,2723.238 L2242.228,2500 L2371.114,2276.763 L2628.887,2276.763 L2757.773,2500 L2628.887,2723.238 z" fill="#641545"/>
      <path d="M2628.886,3238.783 L2628.886,3496.555 L2371.114,3496.555 L2371.114,3238.783 z" fill="#DB399C"/>
      <path d="M2371.114,3238.783 L2371.114,2981.01 L2628.886,2981.01 L2628.886,3238.783 z" fill="#ED3EA9"/>
      <path d="M2628.886,3238.783 L2852.124,3367.669 L2628.886,3496.555 z" fill="#C6328C"/>
      <path d="M2371.114,3238.783 L2371.114,3496.555 L2147.876,3367.669 z" fill="#C6328C"/>
      <path d="M1924.638,3238.783 L1924.638,2981.01 L2147.876,2852.124 L2371.113,2981.01 L2371.114,3238.783 L2147.876,3367.669 z" fill="#B22C7D"/>
      <path d="M2852.124,3367.669 L2628.886,3238.783 L2628.886,2981.01 L2852.124,2852.124 L3075.361,2981.01 L3075.361,3238.783 z" fill="#B22C7D"/>
    </g>
    <g>
      <path d="M2981.01,2371.113 L2757.773,2500 L2628.886,2276.762 L2852.124,2147.876 z" fill="#7A1B55"/>
      <path d="M2147.876,2147.876 L2371.114,2276.763 L2242.228,2500 L2018.99,2371.114 z" fill="#7A1B55"/>
      <path d="M2371.114,2018.99 L2371.114,2276.763 L2147.876,2147.876 z" fill="#9A256C"/>
      <path d="M2852.124,2147.876 L2628.886,2276.762 L2628.886,2018.989 z" fill="#9A256C"/>
      <path d="M2628.886,2018.99 L2628.886,2276.762 L2371.114,2276.762 L2371.114,2018.99 z" fill="#FB42B3"/>
      <path d="M2628.886,2276.762 L2757.773,2500 L2628.887,2723.238 L2371.114,2723.238 L2242.228,2500 L2371.114,2276.763 z" fill="#641545"/>
      <path d="M2371.115,1761.217 L2371.115,1503.445 L2628.887,1503.445 L2628.887,1761.217 z" fill="#DB399C"/>
      <path d="M2628.887,1761.217 L2628.887,2018.99 L2371.115,2018.99 L2371.115,1761.217 z" fill="#ED3EA9"/>
      <path d="M2371.115,1761.217 L2147.877,1632.331 L2371.115,1503.445 z" fill="#C6328C"/>
      <path d="M2628.887,1761.217 L2628.887,1503.445 L2852.125,1632.331 z" fill="#C6328C"/>
      <path d="M3075.363,1761.217 L3075.363,2018.99 L2852.125,2147.876 L2628.888,2018.99 L2628.887,1761.218 L2852.125,1632.331 z" fill="#B22C7D"/>
      <path d="M2147.877,1632.331 L2371.115,1761.217 L2371.115,2018.99 L2147.877,2147.876 L1924.64,2018.99 L1924.64,1761.217 z" fill="#B22C7D"/>
    </g>
    <g>
      <path d="M2147.876,2147.877 L2371.114,2276.763 L2242.228,2500.001 L2018.99,2371.115 z" fill="#7A1B55"/>
      <path d="M2371.115,2981.01 L2371.114,2723.238 L2628.887,2723.238 L2628.887,2981.01 z" fill="#7A1B55"/>
      <path d="M2147.877,2852.124 L2371.114,2723.238 L2371.115,2981.011 z" fill="#9A256C"/>
      <path d="M2018.99,2371.115 L2242.228,2500 L2018.99,2628.887 z" fill="#9A256C"/>
      <path d="M2018.991,2628.887 L2242.228,2500 L2371.114,2723.238 L2147.877,2852.124 z" fill="#FB42B3"/>
      <path d="M2242.228,2500 L2371.114,2276.762 L2628.887,2276.763 L2757.773,2500 L2628.887,2723.238 L2371.114,2723.238 z" fill="#641545"/>
      <path d="M1924.638,2981.01 L1701.401,3109.896 L1572.515,2886.659 L1795.752,2757.772 z" fill="#DB399C"/>
      <path d="M1795.752,2757.772 L2018.99,2628.886 L2147.876,2852.124 L1924.639,2981.01 z" fill="#ED3EA9"/>
      <path d="M1924.639,2981.01 L1924.639,3238.782 L1701.401,3109.896 z" fill="#C6328C"/>
      <path d="M1795.752,2757.772 L1572.515,2886.659 L1572.515,2628.886 z" fill="#C6328C"/>
      <path d="M1572.515,2371.114 L1795.752,2242.227 L2018.99,2371.113 L2018.99,2628.886 L1795.752,2757.772 L1572.515,2628.886 z" fill="#B22C7D"/>
      <path d="M1924.638,3238.782 L1924.638,2981.01 L2147.876,2852.123 L2371.114,2981.01 L2371.114,3238.782 L2147.876,3367.668 z" fill="#B22C7D"/>
    </g>
    <g>
      <path d="M2852.125,2852.123 L2628.887,2723.237 L2757.773,2500 L2981.01,2628.886 z" fill="#7A1B55"/>
      <path d="M2628.886,2018.99 L2628.886,2276.762 L2371.114,2276.762 L2371.114,2018.99 z" fill="#7A1B55"/>
      <path d="M2852.124,2147.876 L2628.886,2276.762 L2628.886,2018.99 z" fill="#9A256C"/>
      <path d="M2981.011,2628.886 L2757.773,2500 L2981.011,2371.113 z" fill="#9A256C"/>
      <path d="M2981.01,2371.114 L2757.773,2500 L2628.886,2276.762 L2852.124,2147.876 z" fill="#FB42B3"/>
      <path d="M2757.773,2500 L2628.887,2723.238 L2371.114,2723.238 L2242.228,2500 L2371.114,2276.762 L2628.886,2276.763 z" fill="#641545"/>
      <path d="M3075.362,2018.99 L3298.6,1890.104 L3427.486,2113.342 L3204.249,2242.228 z" fill="#DB399C"/>
      <path d="M3204.249,2242.228 L2981.011,2371.114 L2852.125,2147.876 L3075.362,2018.99 z" fill="#ED3EA9"/>
      <path d="M3075.362,2018.99 L3075.362,1761.218 L3298.6,1890.104 z" fill="#C6328C"/>
      <path d="M3204.249,2242.228 L3427.486,2113.341 L3427.486,2371.114 z" fill="#C6328C"/>
      <path d="M3427.486,2628.887 L3204.248,2757.773 L2981.011,2628.887 L2981.011,2371.115 L3204.248,2242.228 L3427.486,2371.115 z" fill="#B22C7D"/>
      <path d="M3075.362,1761.217 L3075.363,2018.99 L2852.125,2147.876 L2628.887,2018.99 L2628.887,1761.218 L2852.125,1632.331 z" fill="#B22C7D"/>
    </g>
    <g>
      <path d="M2628.886,2018.99 L2628.886,2276.762 L2371.114,2276.762 L2371.113,2018.99 z" fill="#7A1B55"/>
      <path d="M2018.99,2628.887 L2242.228,2500 L2371.114,2723.238 L2147.876,2852.124 z" fill="#7A1B55"/>
      <path d="M2018.99,2371.114 L2242.228,2500 L2018.99,2628.887 z" fill="#9A256C"/>
      <path d="M2371.114,2018.99 L2371.114,2276.762 L2147.876,2147.876 z" fill="#9A256C"/>
      <path d="M2147.876,2147.877 L2371.114,2276.763 L2242.228,2500 L2018.99,2371.114 z" fill="#FB42B3"/>
      <path d="M2371.114,2276.762 L2628.887,2276.762 L2757.773,2500 L2628.886,2723.238 L2371.114,2723.238 L2242.228,2500 z" fill="#641545"/>
      <path d="M1795.753,2242.227 L1572.515,2113.341 L1701.401,1890.103 L1924.639,2018.989 z" fill="#DB399C"/>
      <path d="M1924.639,2018.99 L2147.876,2147.876 L2018.99,2371.113 L1795.752,2242.227 z" fill="#ED3EA9"/>
      <path d="M1795.753,2242.227 L1572.515,2371.114 L1572.515,2113.341 z" fill="#C6328C"/>
      <path d="M1924.639,2018.989 L1701.401,1890.103 L1924.639,1761.217 z" fill="#C6328C"/>
      <path d="M2147.876,1632.33 L2371.115,1761.217 L2371.114,2018.989 L2147.877,2147.875 L1924.639,2018.99 L1924.639,1761.217 z" fill="#B22C7D"/>
      <path d="M1572.515,2371.113 L1795.753,2242.227 L2018.991,2371.113 L2018.99,2628.885 L1795.753,2757.772 L1572.516,2628.886 z" fill="#B22C7D"/>
    </g>
    <g>
      <path d="M2371.115,2981.01 L2371.115,2723.238 L2628.887,2723.238 L2628.887,2981.01 z" fill="#7A1B55"/>
      <path d="M2981.01,2371.114 L2757.773,2500 L2628.887,2276.762 L2852.124,2147.876 z" fill="#7A1B55"/>
      <path d="M2981.01,2628.886 L2757.773,2500 L2981.01,2371.114 z" fill="#9A256C"/>
      <path d="M2628.887,2981.01 L2628.887,2723.238 L2852.125,2852.124 z" fill="#9A256C"/>
      <path d="M2852.125,2852.124 L2628.887,2723.237 L2757.773,2500 L2981.01,2628.886 z" fill="#FB42B3"/>
      <path d="M2628.887,2723.238 L2371.114,2723.238 L2242.228,2500 L2371.114,2276.763 L2628.887,2276.762 L2757.773,2500 z" fill="#641545"/>
      <path d="M3204.248,2757.773 L3427.485,2886.659 L3298.599,3109.897 L3075.362,2981.011 z" fill="#DB399C"/>
      <path d="M3075.362,2981.01 L2852.124,2852.125 L2981.01,2628.887 L3204.248,2757.773 z" fill="#ED3EA9"/>
      <path d="M3204.248,2757.773 L3427.485,2628.887 L3427.486,2886.659 z" fill="#C6328C"/>
      <path d="M3075.362,2981.011 L3298.599,3109.897 L3075.362,3238.783 z" fill="#C6328C"/>
      <path d="M2852.124,3367.67 L2628.886,3238.783 L2628.886,2981.011 L2852.124,2852.125 L3075.362,2981.011 L3075.362,3238.783 z" fill="#B22C7D"/>
      <path d="M3427.486,2628.887 L3204.248,2757.774 L2981.01,2628.887 L2981.01,2371.115 L3204.248,2242.228 L3427.485,2371.115 z" fill="#B22C7D"/>
    </g>
  </g>
  <g id="Layer_3_Copy">
    <g>
      <path d="M2018.991,2628.887 L2242.228,2500.001 L2371.115,2723.238 L2147.877,2852.125 z" fill="#C756F9"/>
      <path d="M2147.877,2147.877 L2371.114,2276.763 L2242.228,2500 L2018.99,2371.114 z" fill="#6A2A86"/>
      <path d="M2981.011,2371.114 L2757.773,2500 L2628.887,2276.763 L2852.125,2147.876 z" fill="#240A30"/>
      <path d="M2852.125,2852.124 L2628.887,2723.238 L2757.773,2500 L2981.01,2628.886 z" fill="#5C2474"/>
      <path d="M2371.114,2723.238 L2242.228,2500 L2371.114,2276.763 L2628.887,2276.763 L2757.773,2500 L2628.887,2723.238 z" fill="#190622"/>
      <path d="M1924.638,2981.01 L1701.401,3109.896 L1572.515,2886.659 L1795.752,2757.773 z" fill="#AE4ADA"/>
      <path d="M1795.752,2757.773 L2018.99,2628.887 L2147.876,2852.124 L1924.638,2981.01 z" fill="#B94FE7"/>
      <path d="M1572.514,2628.887 L1572.514,2886.659 L1314.742,2886.659 L1314.742,2628.887 z" fill="#A144CA"/>
      <path d="M1572.514,2371.115 L1572.514,2628.887 L1314.742,2628.887 L1314.742,2371.115 z" fill="#963FBB"/>
      <path d="M1572.515,2886.659 L1701.401,3109.897 L1572.515,3333.135 L1314.742,3333.135 L1185.856,3109.897 L1314.742,2886.66 z" fill="#A948D3"/>
      <path d="M3075.362,2018.99 L3298.599,1890.104 L3427.485,2113.341 L3204.248,2242.227 z" fill="#361246"/>
      <path d="M3204.248,2242.227 L2981.01,2371.114 L2852.124,2147.876 L3075.362,2018.99 z" fill="#2E0E3C"/>
      <path d="M3427.486,2371.113 L3427.486,2113.341 L3685.258,2113.341 L3685.258,2371.113 z" fill="#3F1651"/>
      <path d="M3427.486,2628.885 L3427.486,2371.113 L3685.258,2371.113 L3685.258,2628.885 z" fill="#441857"/>
      <path d="M3427.485,2113.341 L3298.599,1890.103 L3427.485,1666.865 L3685.258,1666.866 L3814.144,1890.103 L3685.258,2113.341 z" fill="#3B144B"/>
      <path d="M1795.752,2242.227 L1572.515,2113.341 L1701.401,1890.104 L1924.638,2018.99 z" fill="#7A3299"/>
      <path d="M1924.638,2018.99 L2147.875,2147.876 L2018.99,2371.114 L1795.752,2242.227 z" fill="#702D8D"/>
      <path d="M1314.742,2371.114 L1314.742,2113.341 L1572.514,2113.341 L1572.515,2371.114 z" fill="#8D3AB0"/>
      <path d="M1701.401,1890.104 L1572.515,2113.342 L1314.742,2113.342 L1185.856,1890.104 L1314.742,1666.866 L1572.515,1666.866 z" fill="#8235A3"/>
      <path d="M3204.248,2757.773 L3427.486,2886.659 L3298.599,3109.897 L3075.362,2981.01 z" fill="#4F1E65"/>
      <path d="M3075.361,2981.01 L2852.124,2852.124 L2981.01,2628.887 L3204.247,2757.773 z" fill="#56216C"/>
      <path d="M3685.258,2628.886 L3685.258,2886.659 L3427.485,2886.659 L3427.485,2628.886 z" fill="#481B5C"/>
      <path d="M3298.6,3109.896 L3427.486,2886.658 L3685.259,2886.659 L3814.145,3109.896 L3685.259,3333.134 L3427.486,3333.134 z" fill="#4B1C5F"/>
    </g>
    <g>
      <path d="M2147.876,2147.877 L2371.114,2276.763 L2242.227,2500.001 L2018.99,2371.115 z" fill="#C756F9"/>
      <path d="M2628.886,2018.99 L2628.886,2276.763 L2371.114,2276.763 L2371.114,2018.99 z" fill="#6A2A86"/>
      <path d="M2852.124,2852.124 L2628.886,2723.238 L2757.773,2500.001 L2981.01,2628.887 z" fill="#240A30"/>
      <path d="M2371.114,2981.01 L2371.114,2723.238 L2628.886,2723.238 L2628.887,2981.01 z" fill="#5C2474"/>
      <path d="M2242.228,2500.001 L2371.114,2276.763 L2628.886,2276.763 L2757.773,2500 L2628.886,2723.238 L2371.114,2723.238 z" fill="#190622"/>
      <path d="M1795.752,2242.227 L1572.515,2113.341 L1701.401,1890.103 L1924.639,2018.99 z" fill="#AE4ADA"/>
      <path d="M1924.638,2018.99 L2147.875,2147.876 L2018.99,2371.114 L1795.752,2242.227 z" fill="#B94FE7"/>
      <path d="M1924.638,1761.217 L1701.4,1890.104 L1572.514,1666.866 L1795.751,1537.98 z" fill="#A144CA"/>
      <path d="M2147.875,1632.331 L1924.638,1761.217 L1795.751,1537.98 L2018.989,1409.093 z" fill="#963FBB"/>
      <path d="M1701.401,1890.104 L1572.515,2113.342 L1314.742,2113.341 L1185.856,1890.104 L1314.742,1666.866 L1572.514,1666.866 z" fill="#A948D3"/>
      <path d="M3204.248,2757.773 L3427.486,2886.659 L3298.599,3109.896 L3075.362,2981.01 z" fill="#361246"/>
      <path d="M3075.362,2981.01 L2852.124,2852.124 L2981.01,2628.886 L3204.248,2757.772 z" fill="#2E0E3C"/>
      <path d="M3075.362,3238.783 L3298.6,3109.896 L3427.486,3333.134 L3204.249,3462.02 z" fill="#3F1651"/>
      <path d="M2852.125,3367.669 L3075.362,3238.783 L3204.249,3462.02 L2981.011,3590.906 z" fill="#441857"/>
      <path d="M3298.599,3109.896 L3427.485,2886.658 L3685.258,2886.658 L3814.144,3109.896 L3685.258,3333.134 L3427.486,3333.134 z" fill="#3B144B"/>
      <path d="M2371.114,1761.217 L2371.114,1503.444 L2628.886,1503.444 L2628.886,1761.217 z" fill="#7A3299"/>
      <path d="M2628.886,1761.217 L2628.886,2018.989 L2371.114,2018.989 L2371.114,1761.217 z" fill="#702D8D"/>
      <path d="M2018.99,1409.093 L2242.227,1280.207 L2371.114,1503.444 L2147.876,1632.331 z" fill="#8D3AB0"/>
      <path d="M2628.886,1503.444 L2371.113,1503.445 L2242.227,1280.207 L2371.114,1056.969 L2628.886,1056.969 L2757.772,1280.207 z" fill="#8235A3"/>
      <path d="M2628.886,3238.783 L2628.886,3496.555 L2371.114,3496.555 L2371.114,3238.783 z" fill="#4F1E65"/>
      <path d="M2371.114,3238.782 L2371.114,2981.01 L2628.886,2981.01 L2628.886,3238.782 z" fill="#56216C"/>
      <path d="M2981.01,3590.906 L2757.773,3719.792 L2628.886,3496.555 L2852.124,3367.668 z" fill="#481B5C"/>
      <path d="M2371.114,3496.555 L2628.887,3496.555 L2757.773,3719.793 L2628.887,3943.031 L2371.114,3943.031 L2242.228,3719.793 z" fill="#4B1C5F"/>
    </g>
    <g>
      <path d="M2628.885,2018.99 L2628.885,2276.763 L2371.113,2276.763 L2371.113,2018.99 z" fill="#C756F9"/>
      <path d="M2981.01,2371.114 L2757.772,2500 L2628.886,2276.763 L2852.124,2147.876 z" fill="#6A2A86"/>
      <path d="M2371.114,2981.01 L2371.114,2723.238 L2628.886,2723.238 L2628.886,2981.01 z" fill="#240A30"/>
      <path d="M2018.99,2628.887 L2242.227,2500 L2371.114,2723.238 L2147.876,2852.124 z" fill="#5C2474"/>
      <path d="M2371.113,2276.763 L2628.886,2276.762 L2757.772,2500 L2628.886,2723.238 L2371.114,2723.238 L2242.227,2500 z" fill="#190622"/>
      <path d="M2371.114,1761.217 L2371.114,1503.444 L2628.886,1503.444 L2628.886,1761.217 z" fill="#AE4ADA"/>
      <path d="M2628.886,1761.217 L2628.886,2018.989 L2371.114,2018.989 L2371.114,1761.217 z" fill="#B94FE7"/>
      <path d="M2852.124,1632.33 L2628.886,1503.444 L2757.772,1280.207 L2981.01,1409.093 z" fill="#A144CA"/>
      <path d="M3075.361,1761.216 L2852.124,1632.33 L2981.01,1409.093 L3204.248,1537.979 z" fill="#963FBB"/>
      <path d="M2628.886,1503.444 L2371.113,1503.445 L2242.227,1280.207 L2371.113,1056.969 L2628.886,1056.969 L2757.772,1280.207 z" fill="#A948D3"/>
      <path d="M2628.886,3238.783 L2628.886,3496.555 L2371.114,3496.555 L2371.114,3238.783 z" fill="#361246"/>
      <path d="M2371.114,3238.783 L2371.114,2981.01 L2628.886,2981.01 L2628.886,3238.783 z" fill="#2E0E3C"/>
      <path d="M2147.877,3367.67 L2371.114,3496.556 L2242.228,3719.793 L2018.991,3590.907 z" fill="#3F1651"/>
      <path d="M1924.639,3238.784 L2147.877,3367.67 L2018.99,3590.907 L1795.753,3462.021 z" fill="#441857"/>
      <path d="M2371.114,3496.555 L2628.887,3496.555 L2757.773,3719.793 L2628.887,3943.03 L2371.114,3943.031 L2242.228,3719.793 z" fill="#3B144B"/>
      <path d="M3075.362,2018.99 L3298.599,1890.104 L3427.486,2113.341 L3204.248,2242.227 z" fill="#7A3299"/>
      <path d="M3204.248,2242.227 L2981.011,2371.114 L2852.125,2147.876 L3075.362,2018.99 z" fill="#702D8D"/>
      <path d="M3204.248,1537.979 L3427.485,1666.866 L3298.599,1890.103 L3075.362,1761.217 z" fill="#8D3AB0"/>
      <path d="M3427.486,2113.341 L3298.599,1890.103 L3427.485,1666.866 L3685.258,1666.866 L3814.144,1890.103 L3685.258,2113.341 z" fill="#8235A3"/>
      <path d="M1924.638,2981.01 L1701.401,3109.896 L1572.515,2886.659 L1795.752,2757.772 z" fill="#4F1E65"/>
      <path d="M1795.752,2757.772 L2018.99,2628.886 L2147.876,2852.124 L1924.639,2981.01 z" fill="#56216C"/>
      <path d="M1795.752,3462.02 L1572.515,3333.134 L1701.401,3109.896 L1924.639,3238.783 z" fill="#481B5C"/>
      <path d="M1572.515,2886.659 L1701.401,3109.897 L1572.515,3333.134 L1314.742,3333.134 L1185.856,3109.897 L1314.742,2886.659 z" fill="#4B1C5F"/>
    </g>
  </g>
  <g id="-frames">
    <g>
      <path d="M2019.491,2629.387 L2242.728,2500.501 L2371.614,2723.738 L2148.377,2852.625 z" fill-opacity="0" stroke="#50A7A2" stroke-width="8" stroke-linejoin="bevel"/>
      <path d="M2371.614,2019.49 L2371.615,2277.263 L2148.377,2148.377 z" fill-opacity="0" stroke="#50A7A2" stroke-width="8" stroke-linejoin="bevel"/>
      <path d="M2019.49,2629.387 L2019.49,2371.615 L2242.728,2500.501 z" fill-opacity="0" stroke="#50A7A2" stroke-width="8" stroke-linejoin="bevel"/>
      <path d="M2148.377,2148.377 L2371.614,2277.263 L2242.728,2500.5 L2019.49,2371.614 z" fill-opacity="0" stroke="#50A7A2" stroke-width="8" stroke-linejoin="bevel"/>
      <path d="M2629.386,2019.49 L2629.387,2277.263 L2371.614,2277.263 L2371.614,2019.49 z" fill-opacity="0" stroke="#50A7A2" stroke-width="8" stroke-linejoin="bevel"/>
      <path d="M2981.51,2629.386 L2758.273,2500.5 L2981.51,2371.614 z" fill-opacity="0" stroke="#50A7A2" stroke-width="8" stroke-linejoin="bevel"/>
      <path d="M2629.387,2019.49 L2852.624,2148.376 L2629.386,2277.263 z" fill-opacity="0" stroke="#50A7A2" stroke-width="8" stroke-linejoin="bevel"/>
      <path d="M2981.51,2371.614 L2758.273,2500.5 L2629.387,2277.263 L2852.625,2148.376 z" fill-opacity="0" stroke="#50A7A2" stroke-width="8" stroke-linejoin="bevel"/>
      <path d="M2852.625,2852.624 L2629.387,2723.738 L2758.273,2500.5 L2981.51,2629.386 z" fill-opacity="0" stroke="#50A7A2" stroke-width="8" stroke-linejoin="bevel"/>
      <path d="M2629.387,2981.51 L2629.387,2723.738 L2852.625,2852.624 z" fill-opacity="0" stroke="#50A7A2" stroke-width="8" stroke-linejoin="bevel"/>
      <path d="M2148.377,2852.625 L2371.614,2723.738 L2371.615,2981.511 z" fill-opacity="0" stroke="#50A7A2" stroke-width="8" stroke-linejoin="bevel"/>
      <path d="M2371.615,2981.51 L2371.615,2723.738 L2629.387,2723.738 L2629.387,2981.51 z" fill-opacity="0" stroke="#50A7A2" stroke-width="8" stroke-linejoin="bevel"/>
      <path d="M2371.614,2723.738 L2242.728,2500.5 L2371.614,2277.263 L2629.387,2277.263 L2758.273,2500.5 L2629.387,2723.738 z" fill-opacity="0" stroke="#50A7A2" stroke-width="8" stroke-linejoin="bevel"/>
    </g>
    <g>
      <path d="M2629.386,3239.283 L2629.386,3497.055 L2371.614,3497.055 L2371.614,3239.283 z" fill-opacity="0" stroke="#50A7A2" stroke-width="8" stroke-linejoin="bevel"/>
      <path d="M2371.614,3239.283 L2371.614,2981.51 L2629.386,2981.51 L2629.386,3239.283 z" fill-opacity="0" stroke="#50A7A2" stroke-width="8" stroke-linejoin="bevel"/>
      <path d="M2981.51,3849.179 L2758.273,3720.293 L2981.51,3591.407 z" fill-opacity="0" stroke="#50A7A2" stroke-width="8" stroke-linejoin="bevel"/>
      <path d="M2629.386,3239.283 L2852.624,3368.169 L2629.386,3497.055 z" fill-opacity="0" stroke="#50A7A2" stroke-width="8" stroke-linejoin="bevel"/>
      <path d="M2981.51,3591.407 L2758.273,3720.293 L2629.387,3497.055 L2852.624,3368.169 z" fill-opacity="0" stroke="#50A7A2" stroke-width="8" stroke-linejoin="bevel"/>
      <path d="M2852.624,4072.417 L2629.387,3943.531 L2758.273,3720.293 L2981.51,3849.179 z" fill-opacity="0" stroke="#50A7A2" stroke-width="8" stroke-linejoin="bevel"/>
      <path d="M3075.862,4201.303 L2852.624,4072.417 L2981.51,3849.179 L3204.748,3978.065 z" fill-opacity="0" stroke="#50A7A2" stroke-width="8" stroke-linejoin="bevel"/>
      <path d="M2371.614,4459.076 L2371.614,4201.303 L2629.387,4201.303 L2629.387,4459.076 z" fill-opacity="0" stroke="#50A7A2" stroke-width="8" stroke-linejoin="bevel"/>
      <path d="M2148.377,4072.417 L2371.614,3943.531 L2371.614,4201.303 z" fill-opacity="0" stroke="#50A7A2" stroke-width="8" stroke-linejoin="bevel"/>
      <path d="M3075.862,4459.076 L2852.624,4587.962 L2629.387,4459.076 L2629.387,4201.303 L2852.624,4072.417 L3075.862,4201.303 z" fill-opacity="0" stroke="#50A7A2" stroke-width="8" stroke-linejoin="bevel"/>
      <path d="M2852.624,4072.417 L2629.387,4201.303 L2629.387,3943.531 z" fill-opacity="0" stroke="#50A7A2" stroke-width="8" stroke-linejoin="bevel"/>
      <path d="M2371.614,4201.303 L2371.614,3943.531 L2629.386,3943.531 L2629.387,4201.303 z" fill-opacity="0" stroke="#50A7A2" stroke-width="8" stroke-linejoin="bevel"/>
      <path d="M2371.614,4459.076 L2148.376,4587.962 L1925.139,4459.076 L1925.139,4201.303 L2148.376,4072.417 L2371.614,4201.303 z" fill-opacity="0" stroke="#50A7A2" stroke-width="8" stroke-linejoin="bevel"/>
      <path d="M2019.49,3849.18 L2242.728,3720.293 L2371.614,3943.531 L2148.377,4072.417 z" fill-opacity="0" stroke="#50A7A2" stroke-width="8" stroke-linejoin="bevel"/>
      <path d="M1796.253,3978.066 L2019.49,3849.18 L2148.377,4072.417 L1925.139,4201.304 z" fill-opacity="0" stroke="#50A7A2" stroke-width="8" stroke-linejoin="bevel"/>
      <path d="M2019.49,3591.407 L2242.728,3720.293 L2019.49,3849.18 z" fill-opacity="0" stroke="#50A7A2" stroke-width="8" stroke-linejoin="bevel"/>
      <path d="M1796.253,3978.066 L1573.015,3849.18 L1573.015,3591.407 L1796.253,3462.521 L2019.49,3591.407 L2019.49,3849.179 z" fill-opacity="0" stroke="#50A7A2" stroke-width="8" stroke-linejoin="bevel"/>
      <path d="M2371.614,3239.283 L2371.614,3497.055 L2148.376,3368.169 z" fill-opacity="0" stroke="#50A7A2" stroke-width="8" stroke-linejoin="bevel"/>
      <path d="M1925.138,3239.283 L1925.138,2981.51 L2148.376,2852.624 L2371.613,2981.51 L2371.614,3239.283 L2148.376,3368.169 z" fill-opacity="0" stroke="#50A7A2" stroke-width="8" stroke-linejoin="bevel"/>
      <path d="M2148.376,3368.17 L2371.614,3497.056 L2242.728,3720.293 L2019.49,3591.407 z" fill-opacity="0" stroke="#50A7A2" stroke-width="8" stroke-linejoin="bevel"/>
      <path d="M1925.139,3239.284 L2148.376,3368.17 L2019.49,3591.407 L1796.253,3462.521 z" fill-opacity="0" stroke="#50A7A2" stroke-width="8" stroke-linejoin="bevel"/>
      <path d="M2371.614,3497.056 L2629.387,3497.055 L2758.273,3720.293 L2629.387,3943.531 L2371.614,3943.531 L2242.728,3720.293 z" fill-opacity="0" stroke="#50A7A2" stroke-width="8" stroke-linejoin="bevel"/>
    </g>
    <g>
      <path d="M2371.614,1761.717 L2371.614,1503.945 L2629.386,1503.945 L2629.386,1761.717 z" fill-opacity="0" stroke="#50A7A2" stroke-width="8" stroke-linejoin="bevel"/>
      <path d="M2629.386,1761.717 L2629.386,2019.49 L2371.614,2019.49 L2371.614,1761.717 z" fill-opacity="0" stroke="#50A7A2" stroke-width="8" stroke-linejoin="bevel"/>
      <path d="M2019.49,1151.821 L2242.727,1280.707 L2019.49,1409.593 z" fill-opacity="0" stroke="#50A7A2" stroke-width="8" stroke-linejoin="bevel"/>
      <path d="M2371.614,1761.717 L2148.376,1632.831 L2371.614,1503.945 z" fill-opacity="0" stroke="#50A7A2" stroke-width="8" stroke-linejoin="bevel"/>
      <path d="M2019.49,1409.593 L2242.727,1280.707 L2371.613,1503.945 L2148.376,1632.831 z" fill-opacity="0" stroke="#50A7A2" stroke-width="8" stroke-linejoin="bevel"/>
      <path d="M2148.376,928.583 L2371.613,1057.47 L2242.727,1280.707 L2019.49,1151.821 z" fill-opacity="0" stroke="#50A7A2" stroke-width="8" stroke-linejoin="bevel"/>
      <path d="M1925.138,799.697 L2148.376,928.583 L2019.49,1151.821 L1796.252,1022.935 z" fill-opacity="0" stroke="#50A7A2" stroke-width="8" stroke-linejoin="bevel"/>
      <path d="M2629.386,541.924 L2629.386,799.697 L2371.613,799.697 L2371.613,541.924 z" fill-opacity="0" stroke="#50A7A2" stroke-width="8" stroke-linejoin="bevel"/>
      <path d="M2852.623,928.583 L2629.386,1057.47 L2629.386,799.697 z" fill-opacity="0" stroke="#50A7A2" stroke-width="8" stroke-linejoin="bevel"/>
      <path d="M1925.138,541.924 L2148.376,413.038 L2371.613,541.924 L2371.613,799.697 L2148.376,928.583 L1925.138,799.697 z" fill-opacity="0" stroke="#50A7A2" stroke-width="8" stroke-linejoin="bevel"/>
      <path d="M2148.376,928.583 L2371.613,799.697 L2371.613,1057.47 z" fill-opacity="0" stroke="#50A7A2" stroke-width="8" stroke-linejoin="bevel"/>
      <path d="M2629.386,799.697 L2629.386,1057.469 L2371.614,1057.469 L2371.613,799.697 z" fill-opacity="0" stroke="#50A7A2" stroke-width="8" stroke-linejoin="bevel"/>
      <path d="M2629.386,541.924 L2852.624,413.038 L3075.861,541.924 L3075.861,799.697 L2852.624,928.583 L2629.386,799.697 z" fill-opacity="0" stroke="#50A7A2" stroke-width="8" stroke-linejoin="bevel"/>
      <path d="M2981.51,1151.82 L2758.272,1280.707 L2629.386,1057.469 L2852.623,928.583 z" fill-opacity="0" stroke="#50A7A2" stroke-width="8" stroke-linejoin="bevel"/>
      <path d="M3204.747,1022.934 L2981.51,1151.82 L2852.623,928.583 L3075.861,799.697 z" fill-opacity="0" stroke="#50A7A2" stroke-width="8" stroke-linejoin="bevel"/>
      <path d="M2981.51,1409.593 L2758.272,1280.707 L2981.51,1151.82 z" fill-opacity="0" stroke="#50A7A2" stroke-width="8" stroke-linejoin="bevel"/>
      <path d="M3204.747,1022.934 L3427.985,1151.82 L3427.985,1409.593 L3204.747,1538.479 L2981.51,1409.593 L2981.51,1151.821 z" fill-opacity="0" stroke="#50A7A2" stroke-width="8" stroke-linejoin="bevel"/>
      <path d="M2629.386,1761.717 L2629.386,1503.945 L2852.624,1632.831 z" fill-opacity="0" stroke="#50A7A2" stroke-width="8" stroke-linejoin="bevel"/>
      <path d="M3075.862,1761.717 L3075.862,2019.49 L2852.624,2148.376 L2629.387,2019.49 L2629.386,1761.717 L2852.624,1632.831 z" fill-opacity="0" stroke="#50A7A2" stroke-width="8" stroke-linejoin="bevel"/>
      <path d="M2852.624,1632.83 L2629.386,1503.944 L2758.272,1280.707 L2981.51,1409.593 z" fill-opacity="0" stroke="#50A7A2" stroke-width="8" stroke-linejoin="bevel"/>
      <path d="M3075.861,1761.716 L2852.624,1632.83 L2981.51,1409.593 L3204.747,1538.479 z" fill-opacity="0" stroke="#50A7A2" stroke-width="8" stroke-linejoin="bevel"/>
      <path d="M2629.386,1503.945 L2371.613,1503.945 L2242.727,1280.707 L2371.613,1057.47 L2629.386,1057.469 L2758.272,1280.707 z" fill-opacity="0" stroke="#50A7A2" stroke-width="8" stroke-linejoin="bevel"/>
    </g>
    <g>
      <path d="M1925.138,2981.51 L1701.901,3110.396 L1573.015,2887.159 L1796.252,2758.273 z" fill-opacity="0" stroke="#50A7A2" stroke-width="8" stroke-linejoin="bevel"/>
      <path d="M1796.252,2758.273 L2019.49,2629.386 L2148.376,2852.624 L1925.138,2981.51 z" fill-opacity="0" stroke="#50A7A2" stroke-width="8" stroke-linejoin="bevel"/>
      <path d="M1573.015,3591.407 L1573.015,3333.634 L1796.252,3462.521 z" fill-opacity="0" stroke="#50A7A2" stroke-width="8" stroke-linejoin="bevel"/>
      <path d="M1925.138,2981.51 L1925.139,3239.283 L1701.901,3110.396 z" fill-opacity="0" stroke="#50A7A2" stroke-width="8" stroke-linejoin="bevel"/>
      <path d="M1796.252,3462.521 L1573.015,3333.635 L1701.901,3110.397 L1925.139,3239.283 z" fill-opacity="0" stroke="#50A7A2" stroke-width="8" stroke-linejoin="bevel"/>
      <path d="M1315.242,3591.407 L1315.242,3333.635 L1573.015,3333.635 L1573.015,3591.407 z" fill-opacity="0" stroke="#50A7A2" stroke-width="8" stroke-linejoin="bevel"/>
      <path d="M1315.243,3849.179 L1315.243,3591.407 L1573.015,3591.407 L1573.015,3849.179 z" fill-opacity="0" stroke="#50A7A2" stroke-width="8" stroke-linejoin="bevel"/>
      <path d="M739.881,3368.17 L963.118,3239.284 L1092.005,3462.521 L868.767,3591.408 z" fill-opacity="0" stroke="#50A7A2" stroke-width="8" stroke-linejoin="bevel"/>
      <path d="M963.118,2981.511 L1186.356,3110.397 L963.118,3239.283 z" fill-opacity="0" stroke="#50A7A2" stroke-width="8" stroke-linejoin="bevel"/>
      <path d="M1092.005,3978.067 L868.767,3849.18 L868.768,3591.408 L1092.005,3462.522 L1315.243,3591.408 L1315.243,3849.18 z" fill-opacity="0" stroke="#50A7A2" stroke-width="8" stroke-linejoin="bevel"/>
      <path d="M1315.242,3591.407 L1092.005,3462.521 L1315.242,3333.635 z" fill-opacity="0" stroke="#50A7A2" stroke-width="8" stroke-linejoin="bevel"/>
      <path d="M963.119,3239.283 L1186.356,3110.397 L1315.242,3333.635 L1092.005,3462.521 z" fill-opacity="0" stroke="#50A7A2" stroke-width="8" stroke-linejoin="bevel"/>
      <path d="M739.881,3368.17 L516.643,3239.283 L516.643,2981.511 L739.88,2852.625 L963.118,2981.511 L963.118,3239.283 z" fill-opacity="0" stroke="#50A7A2" stroke-width="8" stroke-linejoin="bevel"/>
      <path d="M1092.005,2758.273 L1315.242,2887.16 L1186.356,3110.397 L963.119,2981.511 z" fill-opacity="0" stroke="#50A7A2" stroke-width="8" stroke-linejoin="bevel"/>
      <path d="M868.767,2629.387 L1092.005,2758.273 L963.118,2981.511 L739.881,2852.625 z" fill-opacity="0" stroke="#50A7A2" stroke-width="8" stroke-linejoin="bevel"/>
      <path d="M1315.242,2629.387 L1315.242,2887.16 L1092.004,2758.273 z" fill-opacity="0" stroke="#50A7A2" stroke-width="8" stroke-linejoin="bevel"/>
      <path d="M868.767,2629.387 L868.767,2371.614 L1092.005,2242.728 L1315.242,2371.615 L1315.242,2629.387 L1092.005,2758.273 z" fill-opacity="0" stroke="#50A7A2" stroke-width="8" stroke-linejoin="bevel"/>
      <path d="M1796.252,2758.273 L1573.015,2887.159 L1573.014,2629.386 z" fill-opacity="0" stroke="#50A7A2" stroke-width="8" stroke-linejoin="bevel"/>
      <path d="M1573.015,2371.614 L1796.252,2242.727 L2019.49,2371.614 L2019.49,2629.386 L1796.252,2758.272 L1573.015,2629.386 z" fill-opacity="0" stroke="#50A7A2" stroke-width="8" stroke-linejoin="bevel"/>
      <path d="M1573.014,2629.387 L1573.014,2887.159 L1315.242,2887.159 L1315.242,2629.387 z" fill-opacity="0" stroke="#50A7A2" stroke-width="8" stroke-linejoin="bevel"/>
      <path d="M1573.014,2371.615 L1573.014,2629.387 L1315.242,2629.387 L1315.242,2371.615 z" fill-opacity="0" stroke="#50A7A2" stroke-width="8" stroke-linejoin="bevel"/>
      <path d="M1573.015,2887.159 L1701.901,3110.397 L1573.015,3333.635 L1315.242,3333.635 L1186.356,3110.397 L1315.242,2887.16 z" fill-opacity="0" stroke="#50A7A2" stroke-width="8" stroke-linejoin="bevel"/>
    </g>
    <g>
      <path d="M3075.862,2019.49 L3299.099,1890.604 L3427.985,2113.841 L3204.748,2242.727 z" fill-opacity="0" stroke="#50A7A2" stroke-width="8" stroke-linejoin="bevel"/>
      <path d="M3204.748,2242.727 L2981.51,2371.614 L2852.624,2148.376 L3075.862,2019.49 z" fill-opacity="0" stroke="#50A7A2" stroke-width="8" stroke-linejoin="bevel"/>
      <path d="M3427.985,1409.593 L3427.986,1667.366 L3204.748,1538.48 z" fill-opacity="0" stroke="#50A7A2" stroke-width="8" stroke-linejoin="bevel"/>
      <path d="M3075.862,2019.49 L3075.861,1761.717 L3299.099,1890.604 z" fill-opacity="0" stroke="#50A7A2" stroke-width="8" stroke-linejoin="bevel"/>
      <path d="M3204.748,1538.479 L3427.985,1667.366 L3299.099,1890.603 L3075.861,1761.717 z" fill-opacity="0" stroke="#50A7A2" stroke-width="8" stroke-linejoin="bevel"/>
      <path d="M3685.758,1409.593 L3685.758,1667.366 L3427.985,1667.366 L3427.985,1409.593 z" fill-opacity="0" stroke="#50A7A2" stroke-width="8" stroke-linejoin="bevel"/>
      <path d="M3685.757,1151.821 L3685.758,1409.593 L3427.985,1409.593 L3427.985,1151.821 z" fill-opacity="0" stroke="#50A7A2" stroke-width="8" stroke-linejoin="bevel"/>
      <path d="M4261.119,1632.83 L4037.882,1761.716 L3908.995,1538.479 L4132.233,1409.592 z" fill-opacity="0" stroke="#50A7A2" stroke-width="8" stroke-linejoin="bevel"/>
      <path d="M4037.882,2019.489 L3814.644,1890.603 L4037.882,1761.717 z" fill-opacity="0" stroke="#50A7A2" stroke-width="8" stroke-linejoin="bevel"/>
      <path d="M3908.995,1022.933 L4132.233,1151.82 L4132.233,1409.592 L3908.995,1538.479 L3685.758,1409.592 L3685.758,1151.82 z" fill-opacity="0" stroke="#50A7A2" stroke-width="8" stroke-linejoin="bevel"/>
      <path d="M3685.758,1409.593 L3908.995,1538.479 L3685.758,1667.366 z" fill-opacity="0" stroke="#50A7A2" stroke-width="8" stroke-linejoin="bevel"/>
      <path d="M4037.881,1761.717 L3814.644,1890.603 L3685.758,1667.366 L3908.995,1538.479 z" fill-opacity="0" stroke="#50A7A2" stroke-width="8" stroke-linejoin="bevel"/>
      <path d="M4261.119,1632.831 L4484.357,1761.717 L4484.357,2019.49 L4261.12,2148.376 L4037.882,2019.49 L4037.882,1761.717 z" fill-opacity="0" stroke="#50A7A2" stroke-width="8" stroke-linejoin="bevel"/>
      <path d="M3908.996,2242.727 L3685.758,2113.841 L3814.644,1890.603 L4037.881,2019.489 z" fill-opacity="0" stroke="#50A7A2" stroke-width="8" stroke-linejoin="bevel"/>
      <path d="M4132.233,2371.613 L3908.995,2242.727 L4037.882,2019.489 L4261.119,2148.375 z" fill-opacity="0" stroke="#50A7A2" stroke-width="8" stroke-linejoin="bevel"/>
      <path d="M3685.758,2371.613 L3685.758,2113.841 L3908.996,2242.727 z" fill-opacity="0" stroke="#50A7A2" stroke-width="8" stroke-linejoin="bevel"/>
      <path d="M4132.233,2371.613 L4132.233,2629.386 L3908.996,2758.272 L3685.758,2629.386 L3685.758,2371.613 L3908.995,2242.727 z" fill-opacity="0" stroke="#50A7A2" stroke-width="8" stroke-linejoin="bevel"/>
      <path d="M3204.748,2242.727 L3427.985,2113.841 L3427.986,2371.613 z" fill-opacity="0" stroke="#50A7A2" stroke-width="8" stroke-linejoin="bevel"/>
      <path d="M3427.986,2629.386 L3204.748,2758.273 L2981.511,2629.386 L2981.511,2371.614 L3204.748,2242.728 L3427.986,2371.614 z" fill-opacity="0" stroke="#50A7A2" stroke-width="8" stroke-linejoin="bevel"/>
      <path d="M3427.986,2371.613 L3427.986,2113.841 L3685.758,2113.841 L3685.758,2371.613 z" fill-opacity="0" stroke="#50A7A2" stroke-width="8" stroke-linejoin="bevel"/>
      <path d="M3427.986,2629.385 L3427.986,2371.613 L3685.758,2371.613 L3685.758,2629.385 z" fill-opacity="0" stroke="#50A7A2" stroke-width="8" stroke-linejoin="bevel"/>
      <path d="M3427.985,2113.841 L3299.099,1890.603 L3427.985,1667.366 L3685.758,1667.366 L3814.644,1890.603 L3685.758,2113.841 z" fill-opacity="0" stroke="#50A7A2" stroke-width="8" stroke-linejoin="bevel"/>
    </g>
    <g>
      <path d="M1796.252,2242.727 L1573.015,2113.841 L1701.901,1890.604 L1925.138,2019.49 z" fill-opacity="0" stroke="#50A7A2" stroke-width="8" stroke-linejoin="bevel"/>
      <path d="M1925.138,2019.49 L2148.375,2148.376 L2019.49,2371.614 L1796.252,2242.728 z" fill-opacity="0" stroke="#50A7A2" stroke-width="8" stroke-linejoin="bevel"/>
      <path d="M1092.005,2242.728 L1315.242,2113.841 L1315.242,2371.614 z" fill-opacity="0" stroke="#50A7A2" stroke-width="8" stroke-linejoin="bevel"/>
      <path d="M1796.252,2242.728 L1573.015,2371.614 L1573.015,2113.841 z" fill-opacity="0" stroke="#50A7A2" stroke-width="8" stroke-linejoin="bevel"/>
      <path d="M1315.242,2371.614 L1315.242,2113.842 L1573.014,2113.842 L1573.014,2371.614 z" fill-opacity="0" stroke="#50A7A2" stroke-width="8" stroke-linejoin="bevel"/>
      <path d="M963.118,2019.49 L1186.355,1890.604 L1315.241,2113.842 L1092.005,2242.728 z" fill-opacity="0" stroke="#50A7A2" stroke-width="8" stroke-linejoin="bevel"/>
      <path d="M739.881,2148.377 L963.118,2019.49 L1092.005,2242.728 L868.767,2371.614 z" fill-opacity="0" stroke="#50A7A2" stroke-width="8" stroke-linejoin="bevel"/>
      <path d="M868.767,1409.594 L1092.004,1538.48 L963.118,1761.718 L739.88,1632.831 z" fill-opacity="0" stroke="#50A7A2" stroke-width="8" stroke-linejoin="bevel"/>
      <path d="M1315.242,1409.594 L1315.242,1667.366 L1092.004,1538.48 z" fill-opacity="0" stroke="#50A7A2" stroke-width="8" stroke-linejoin="bevel"/>
      <path d="M516.643,2019.491 L516.643,1761.718 L739.88,1632.832 L963.118,1761.718 L963.118,2019.49 L739.88,2148.376 z" fill-opacity="0" stroke="#50A7A2" stroke-width="8" stroke-linejoin="bevel"/>
      <path d="M963.118,2019.49 L963.118,1761.718 L1186.356,1890.604 z" fill-opacity="0" stroke="#50A7A2" stroke-width="8" stroke-linejoin="bevel"/>
      <path d="M1092.004,1538.48 L1315.242,1667.366 L1186.355,1890.604 L963.118,1761.718 z" fill-opacity="0" stroke="#50A7A2" stroke-width="8" stroke-linejoin="bevel"/>
      <path d="M868.767,1409.594 L868.766,1151.821 L1092.004,1022.935 L1315.242,1151.821 L1315.242,1409.594 L1092.004,1538.48 z" fill-opacity="0" stroke="#50A7A2" stroke-width="8" stroke-linejoin="bevel"/>
      <path d="M1573.014,1409.594 L1573.014,1667.366 L1315.242,1667.366 L1315.241,1409.594 z" fill-opacity="0" stroke="#50A7A2" stroke-width="8" stroke-linejoin="bevel"/>
      <path d="M1573.014,1151.821 L1573.014,1409.594 L1315.241,1409.594 L1315.241,1151.821 z" fill-opacity="0" stroke="#50A7A2" stroke-width="8" stroke-linejoin="bevel"/>
      <path d="M1796.252,1538.48 L1573.014,1667.367 L1573.014,1409.594 z" fill-opacity="0" stroke="#50A7A2" stroke-width="8" stroke-linejoin="bevel"/>
      <path d="M1573.014,1151.821 L1796.252,1022.935 L2019.489,1151.821 L2019.489,1409.594 L1796.252,1538.48 L1573.014,1409.594 z" fill-opacity="0" stroke="#50A7A2" stroke-width="8" stroke-linejoin="bevel"/>
      <path d="M1925.138,2019.49 L1701.901,1890.604 L1925.138,1761.717 z" fill-opacity="0" stroke="#50A7A2" stroke-width="8" stroke-linejoin="bevel"/>
      <path d="M2148.376,1632.831 L2371.614,1761.717 L2371.614,2019.49 L2148.376,2148.376 L1925.139,2019.49 L1925.139,1761.717 z" fill-opacity="0" stroke="#50A7A2" stroke-width="8" stroke-linejoin="bevel"/>
      <path d="M1925.138,1761.717 L1701.9,1890.604 L1573.014,1667.366 L1796.251,1538.48 z" fill-opacity="0" stroke="#50A7A2" stroke-width="8" stroke-linejoin="bevel"/>
      <path d="M2148.375,1632.831 L1925.138,1761.717 L1796.251,1538.48 L2019.489,1409.594 z" fill-opacity="0" stroke="#50A7A2" stroke-width="8" stroke-linejoin="bevel"/>
      <path d="M1701.901,1890.604 L1573.015,2113.842 L1315.242,2113.842 L1186.356,1890.604 L1315.242,1667.366 L1573.015,1667.366 z" fill-opacity="0" stroke="#50A7A2" stroke-width="8" stroke-linejoin="bevel"/>
    </g>
    <g>
      <path d="M3204.748,2758.273 L3427.986,2887.159 L3299.099,3110.397 L3075.862,2981.51 z" fill-opacity="0" stroke="#50A7A2" stroke-width="8" stroke-linejoin="bevel"/>
      <path d="M3075.862,2981.51 L2852.624,2852.624 L2981.51,2629.387 L3204.747,2758.273 z" fill-opacity="0" stroke="#50A7A2" stroke-width="8" stroke-linejoin="bevel"/>
      <path d="M3908.996,2758.273 L3685.759,2887.159 L3685.758,2629.386 z" fill-opacity="0" stroke="#50A7A2" stroke-width="8" stroke-linejoin="bevel"/>
      <path d="M3204.748,2758.273 L3427.985,2629.386 L3427.985,2887.159 z" fill-opacity="0" stroke="#50A7A2" stroke-width="8" stroke-linejoin="bevel"/>
      <path d="M3685.758,2629.386 L3685.758,2887.159 L3427.986,2887.159 L3427.985,2629.386 z" fill-opacity="0" stroke="#50A7A2" stroke-width="8" stroke-linejoin="bevel"/>
      <path d="M4037.882,2981.51 L3814.644,3110.396 L3685.758,2887.159 L3908.995,2758.272 z" fill-opacity="0" stroke="#50A7A2" stroke-width="8" stroke-linejoin="bevel"/>
      <path d="M4261.119,2852.624 L4037.882,2981.51 L3908.995,2758.272 L4132.232,2629.386 z" fill-opacity="0" stroke="#50A7A2" stroke-width="8" stroke-linejoin="bevel"/>
      <path d="M4132.233,3591.406 L3908.996,3462.52 L4037.882,3239.283 L4261.12,3368.169 z" fill-opacity="0" stroke="#50A7A2" stroke-width="8" stroke-linejoin="bevel"/>
      <path d="M3685.758,3591.406 L3685.758,3333.634 L3908.996,3462.52 z" fill-opacity="0" stroke="#50A7A2" stroke-width="8" stroke-linejoin="bevel"/>
      <path d="M4484.357,2981.51 L4484.357,3239.282 L4261.12,3368.169 L4037.882,3239.282 L4037.882,2981.51 L4261.12,2852.624 z" fill-opacity="0" stroke="#50A7A2" stroke-width="8" stroke-linejoin="bevel"/>
      <path d="M4037.882,2981.51 L4037.882,3239.282 L3814.644,3110.396 z" fill-opacity="0" stroke="#50A7A2" stroke-width="8" stroke-linejoin="bevel"/>
      <path d="M3908.996,3462.52 L3685.758,3333.634 L3814.645,3110.396 L4037.882,3239.283 z" fill-opacity="0" stroke="#50A7A2" stroke-width="8" stroke-linejoin="bevel"/>
      <path d="M4132.233,3591.406 L4132.233,3849.179 L3908.996,3978.065 L3685.758,3849.179 L3685.758,3591.407 L3908.996,3462.521 z" fill-opacity="0" stroke="#50A7A2" stroke-width="8" stroke-linejoin="bevel"/>
      <path d="M3427.986,3591.406 L3427.986,3333.634 L3685.758,3333.634 L3685.758,3591.406 z" fill-opacity="0" stroke="#50A7A2" stroke-width="8" stroke-linejoin="bevel"/>
      <path d="M3427.986,3849.179 L3427.986,3591.406 L3685.758,3591.406 L3685.759,3849.179 z" fill-opacity="0" stroke="#50A7A2" stroke-width="8" stroke-linejoin="bevel"/>
      <path d="M3204.748,3462.52 L3427.986,3333.634 L3427.986,3591.407 z" fill-opacity="0" stroke="#50A7A2" stroke-width="8" stroke-linejoin="bevel"/>
      <path d="M3427.986,3849.179 L3204.748,3978.066 L2981.51,3849.179 L2981.51,3591.406 L3204.748,3462.52 L3427.985,3591.406 z" fill-opacity="0" stroke="#50A7A2" stroke-width="8" stroke-linejoin="bevel"/>
      <path d="M3075.862,2981.51 L3299.099,3110.397 L3075.861,3239.283 z" fill-opacity="0" stroke="#50A7A2" stroke-width="8" stroke-linejoin="bevel"/>
      <path d="M2852.624,3368.169 L2629.386,3239.283 L2629.386,2981.51 L2852.624,2852.624 L3075.861,2981.51 L3075.861,3239.283 z" fill-opacity="0" stroke="#50A7A2" stroke-width="8" stroke-linejoin="bevel"/>
      <path d="M3075.862,3239.283 L3299.099,3110.396 L3427.986,3333.634 L3204.749,3462.52 z" fill-opacity="0" stroke="#50A7A2" stroke-width="8" stroke-linejoin="bevel"/>
      <path d="M2852.625,3368.169 L3075.862,3239.283 L3204.748,3462.521 L2981.511,3591.407 z" fill-opacity="0" stroke="#50A7A2" stroke-width="8" stroke-linejoin="bevel"/>
      <path d="M3299.1,3110.396 L3427.986,2887.158 L3685.759,2887.159 L3814.645,3110.396 L3685.759,3333.634 L3427.986,3333.634 z" fill-opacity="0" stroke="#50A7A2" stroke-width="8" stroke-linejoin="bevel"/>
    </g>
  </g>
</svg>
